<?xml version="1.0" encoding="UTF-8" standalone="no"?>
<!DOCTYPE svg PUBLIC "-//W3C//DTD SVG 1.1//EN"
 "http://www.w3.org/Graphics/SVG/1.1/DTD/svg11.dtd">
<!-- Generated by graphviz version 2.40.1 (20161225.0304)
 -->
<!-- Title: %3 Pages: 1 -->
<svg width="1567pt" height="508pt"
 viewBox="0.00 0.00 1567.13 508.00" xmlns="http://www.w3.org/2000/svg" xmlns:xlink="http://www.w3.org/1999/xlink">
<g id="graph0" class="graph" transform="scale(1 1) rotate(0) translate(4 504)">
<title>%3</title>
<polygon fill="#ffffff" stroke="transparent" points="-4,4 -4,-504 1563.1318,-504 1563.1318,4 -4,4"/>
<g id="clust1" class="cluster">
<title>cluster_Client</title>
<polygon fill="none" stroke="#000000" points="56.1318,-8 56.1318,-132 861.1318,-132 861.1318,-8 56.1318,-8"/>
</g>
<g id="clust2" class="cluster">
<title>cluster_crop</title>
<polygon fill="none" stroke="#000000" points="22.1318,-152 22.1318,-492 723.1318,-492 723.1318,-152 22.1318,-152"/>
</g>
<g id="clust3" class="cluster">
<title>cluster_resize</title>
<polygon fill="none" stroke="#000000" points="869.1318,-80 869.1318,-420 1551.1318,-420 1551.1318,-80 869.1318,-80"/>
</g>
<!-- 686466458 -->
<g id="node1" class="node">
<title>686466458</title>
<polygon fill="none" stroke="#000000" points="1060.7289,-124 877.5347,-124 877.5347,-88 1060.7289,-88 1060.7289,-124"/>
<text text-anchor="middle" x="969.1318" y="-101.8" font-family="Times,serif" font-size="14.00" fill="#000000">FinishNode &amp;finished&amp;resize</text>
</g>
<!-- 875016237 -->
<g id="node9" class="node">
<title>875016237</title>
<polygon fill="none" stroke="#000000" points="505.1357,-124 351.1279,-124 351.1279,-88 505.1357,-88 505.1357,-124"/>
<text text-anchor="middle" x="428.1318" y="-101.8" font-family="Times,serif" font-size="14.00" fill="#000000">accept &amp;finished&amp;resize</text>
</g>
<!-- 686466458&#45;&gt;875016237 -->
<g id="edge15" class="edge">
<title>686466458&#45;&gt;875016237</title>
<path fill="none" stroke="#000000" stroke-dasharray="1,5" d="M923.4503,-124.0908C903.1772,-131.19 878.8167,-138.4738 856.1318,-142 783.0099,-153.3663 595.9214,-155.3292 523.1318,-142 507.3347,-139.1072 490.7566,-133.7179 475.9516,-127.974"/>
<polygon fill="#000000" stroke="#000000" points="477.0883,-124.6587 466.5047,-124.1708 474.4741,-131.1522 477.0883,-124.6587"/>
</g>
<!-- 1984990929 -->
<g id="node2" class="node">
<title>1984990929</title>
<polygon fill="none" stroke="#000000" points="853.0391,-124 779.2245,-124 779.2245,-88 853.0391,-88 853.0391,-124"/>
<text text-anchor="middle" x="816.1318" y="-101.8" font-family="Times,serif" font-size="14.00" fill="#000000">accept fb3</text>
</g>
<!-- 1782580546 -->
<g id="node3" class="node">
<title>1782580546</title>
<polygon fill="none" stroke="#000000" points="761.0391,-124 687.2245,-124 687.2245,-88 761.0391,-88 761.0391,-124"/>
<text text-anchor="middle" x="724.1318" y="-101.8" font-family="Times,serif" font-size="14.00" fill="#000000">accept fb1</text>
</g>
<!-- 836220863 -->
<g id="node6" class="node">
<title>836220863</title>
<polygon fill="none" stroke="#000000" points="485.1113,-52 363.1523,-52 363.1523,-16 485.1113,-16 485.1113,-52"/>
<text text-anchor="middle" x="424.1318" y="-29.8" font-family="Times,serif" font-size="14.00" fill="#000000">transmit fb1&#45;&gt;crop</text>
</g>
<!-- 1782580546&#45;&gt;836220863 -->
<g id="edge1" class="edge">
<title>1782580546&#45;&gt;836220863</title>
<path fill="none" stroke="#000000" d="M695.6361,-87.9593C689.994,-84.9486 683.9984,-82.1203 678.1318,-80 618.3695,-58.4011 546.8843,-46.6165 494.9977,-40.4005"/>
<polygon fill="#000000" stroke="#000000" points="495.2272,-36.9038 484.891,-39.2303 494.422,-43.8573 495.2272,-36.9038"/>
</g>
<!-- 1822971466 -->
<g id="node4" class="node">
<title>1822971466</title>
<polygon fill="none" stroke="#000000" points="1007.0391,-412 933.2245,-412 933.2245,-376 1007.0391,-376 1007.0391,-412"/>
<text text-anchor="middle" x="970.1318" y="-389.8" font-family="Times,serif" font-size="14.00" fill="#000000">accept fb2</text>
</g>
<!-- 388357135 -->
<g id="node26" class="node">
<title>388357135</title>
<polygon fill="none" stroke="#000000" points="1175.3048,-340 876.9588,-340 876.9588,-304 1175.3048,-304 1175.3048,-340"/>
<text text-anchor="middle" x="1026.1318" y="-317.8" font-family="Times,serif" font-size="14.00" fill="#000000">cast fb2 from Arr to Catalano.Imaging.FastBitmap</text>
</g>
<!-- 1822971466&#45;&gt;388357135 -->
<g id="edge9" class="edge">
<title>1822971466&#45;&gt;388357135</title>
<path fill="none" stroke="#000000" d="M984.263,-375.8314C990.7129,-367.5386 998.4763,-357.557 1005.557,-348.4533"/>
<polygon fill="#000000" stroke="#000000" points="1008.4337,-350.4556 1011.8104,-340.4133 1002.9082,-346.158 1008.4337,-350.4556"/>
</g>
<!-- 1105423942 -->
<g id="node5" class="node">
<title>1105423942</title>
<polygon fill="none" stroke="#000000" points="1034.4552,-196 903.8084,-196 903.8084,-160 1034.4552,-160 1034.4552,-196"/>
<text text-anchor="middle" x="969.1318" y="-173.8" font-family="Times,serif" font-size="14.00" fill="#000000">transmit fb3&#45;&gt;Client</text>
</g>
<!-- 1105423942&#45;&gt;686466458 -->
<g id="edge11" class="edge">
<title>1105423942&#45;&gt;686466458</title>
<path fill="none" stroke="#000000" d="M969.1318,-159.8314C969.1318,-152.131 969.1318,-142.9743 969.1318,-134.4166"/>
<polygon fill="#000000" stroke="#000000" points="972.6319,-134.4132 969.1318,-124.4133 965.6319,-134.4133 972.6319,-134.4132"/>
</g>
<!-- 1105423942&#45;&gt;1984990929 -->
<g id="edge16" class="edge">
<title>1105423942&#45;&gt;1984990929</title>
<path fill="none" stroke="#000000" stroke-dasharray="1,5" d="M926.5655,-159.9897C907.6144,-151.7622 885.1107,-141.7036 865.1318,-132 863.0555,-130.9915 860.9384,-129.944 858.8064,-128.8735"/>
<polygon fill="#000000" stroke="#000000" points="859.9404,-125.5222 849.4437,-124.0835 856.7521,-131.7541 859.9404,-125.5222"/>
</g>
<!-- 820914198 -->
<g id="node7" class="node">
<title>820914198</title>
<polygon fill="none" stroke="#000000" points="160.0391,-484 86.2245,-484 86.2245,-448 160.0391,-448 160.0391,-484"/>
<text text-anchor="middle" x="123.1318" y="-461.8" font-family="Times,serif" font-size="14.00" fill="#000000">accept fb1</text>
</g>
<!-- 836220863&#45;&gt;820914198 -->
<g id="edge17" class="edge">
<title>836220863&#45;&gt;820914198</title>
<path fill="none" stroke="#000000" stroke-dasharray="1,5" d="M363.1985,-38.5436C264.9612,-46.3197 80.016,-62.9931 55.1318,-80 14.2503,-107.9401 2.1318,-128.4828 2.1318,-178 2.1318,-322 2.1318,-322 2.1318,-322 2.1318,-366.3666 -6.3954,-385.2056 21.1318,-420 34.9077,-437.4127 56.7149,-448.4464 76.6358,-455.3261"/>
<polygon fill="#000000" stroke="#000000" points="75.6296,-458.6788 86.2202,-458.3795 77.7545,-452.0091 75.6296,-458.6788"/>
</g>
<!-- 1546693040 -->
<g id="node17" class="node">
<title>1546693040</title>
<polygon fill="none" stroke="#000000" points="328.3048,-412 29.9588,-412 29.9588,-376 328.3048,-376 328.3048,-412"/>
<text text-anchor="middle" x="179.1318" y="-389.8" font-family="Times,serif" font-size="14.00" fill="#000000">cast fb1 from Arr to Catalano.Imaging.FastBitmap</text>
</g>
<!-- 820914198&#45;&gt;1546693040 -->
<g id="edge5" class="edge">
<title>820914198&#45;&gt;1546693040</title>
<path fill="none" stroke="#000000" d="M137.263,-447.8314C143.7129,-439.5386 151.4763,-429.557 158.557,-420.4533"/>
<polygon fill="#000000" stroke="#000000" points="161.4337,-422.4556 164.8104,-412.4133 155.9082,-418.158 161.4337,-422.4556"/>
</g>
<!-- 2128029086 -->
<g id="node8" class="node">
<title>2128029086</title>
<polygon fill="none" stroke="#000000" points="669.3703,-124 522.8933,-124 522.8933,-88 669.3703,-88 669.3703,-124"/>
<text text-anchor="middle" x="596.1318" y="-101.8" font-family="Times,serif" font-size="14.00" fill="#000000">accept &amp;finished&amp;crop</text>
</g>
<!-- 1702940637 -->
<g id="node10" class="node">
<title>1702940637</title>
<polygon fill="none" stroke="#000000" points="861.4552,-196 730.8084,-196 730.8084,-160 861.4552,-160 861.4552,-196"/>
<text text-anchor="middle" x="796.1318" y="-173.8" font-family="Times,serif" font-size="14.00" fill="#000000">transmit fb1&#45;&gt;Client</text>
</g>
<!-- 1702940637&#45;&gt;1782580546 -->
<g id="edge18" class="edge">
<title>1702940637&#45;&gt;1782580546</title>
<path fill="none" stroke="#000000" stroke-dasharray="1,5" d="M777.9632,-159.8314C769.4166,-151.2848 759.0761,-140.9443 749.7516,-131.6198"/>
<polygon fill="#000000" stroke="#000000" points="752.091,-129.0095 742.5451,-124.4133 747.1413,-133.9592 752.091,-129.0095"/>
</g>
<!-- 1354003114 -->
<g id="node11" class="node">
<title>1354003114</title>
<polygon fill="none" stroke="#000000" points="660.8762,-268 531.3874,-268 531.3874,-232 660.8762,-232 660.8762,-268"/>
<text text-anchor="middle" x="596.1318" y="-245.8" font-family="Times,serif" font-size="14.00" fill="#000000">transmit fb2&#45;&gt;resize</text>
</g>
<!-- 1354003114&#45;&gt;1822971466 -->
<g id="edge19" class="edge">
<title>1354003114&#45;&gt;1822971466</title>
<path fill="none" stroke="#000000" stroke-dasharray="1,5" d="M643.0909,-268.0805C714.9446,-295.7461 851.3794,-348.2772 923.2105,-375.934"/>
<polygon fill="#000000" stroke="#000000" points="922.3141,-379.3393 932.9039,-379.6663 924.8294,-372.8068 922.3141,-379.3393"/>
</g>
<!-- 1028780142 -->
<g id="node12" class="node">
<title>1028780142</title>
<polygon fill="none" stroke="#000000" points="683.9629,-196 508.3007,-196 508.3007,-160 683.9629,-160 683.9629,-196"/>
<text text-anchor="middle" x="596.1318" y="-173.8" font-family="Times,serif" font-size="14.00" fill="#000000">FinishNode &amp;finished&amp;crop</text>
</g>
<!-- 1354003114&#45;&gt;1028780142 -->
<g id="edge8" class="edge">
<title>1354003114&#45;&gt;1028780142</title>
<path fill="none" stroke="#000000" d="M596.1318,-231.8314C596.1318,-224.131 596.1318,-214.9743 596.1318,-206.4166"/>
<polygon fill="#000000" stroke="#000000" points="599.6319,-206.4132 596.1318,-196.4133 592.6319,-206.4133 599.6319,-206.4132"/>
</g>
<!-- 1028780142&#45;&gt;2128029086 -->
<g id="edge20" class="edge">
<title>1028780142&#45;&gt;2128029086</title>
<path fill="none" stroke="#000000" stroke-dasharray="1,5" d="M596.1318,-159.8314C596.1318,-152.131 596.1318,-142.9743 596.1318,-134.4166"/>
<polygon fill="#000000" stroke="#000000" points="599.6319,-134.4132 596.1318,-124.4133 592.6319,-134.4133 599.6319,-134.4132"/>
</g>
<!-- Client -->
<g id="node13" class="node">
<title>Client</title>
<polygon fill="none" stroke="#ffa500" stroke-width="2" points="333.5571,-111.5623 294.1318,-124 254.7065,-111.5623 254.7433,-91.4377 333.5203,-91.4377 333.5571,-111.5623"/>
<text text-anchor="middle" x="294.1318" y="-101.8" font-family="Times,serif" font-size="14.00" fill="#000000">Client</text>
</g>
<!-- 1010856212 -->
<g id="node14" class="node">
<title>1010856212</title>
<polygon fill="none" stroke="#000000" points="236.6699,-124 159.5937,-124 159.5937,-88 236.6699,-88 236.6699,-124"/>
<text text-anchor="middle" x="198.1318" y="-101.8" font-family="Times,serif" font-size="14.00" fill="#000000">send graph</text>
</g>
<!-- 1107024580 -->
<g id="node15" class="node">
<title>1107024580</title>
<polygon fill="none" stroke="#000000" points="141.6699,-124 64.5937,-124 64.5937,-88 141.6699,-88 141.6699,-124"/>
<text text-anchor="middle" x="103.1318" y="-101.8" font-family="Times,serif" font-size="14.00" fill="#000000">send graph</text>
</g>
<!-- crop -->
<g id="node16" class="node">
<title>crop</title>
<polygon fill="none" stroke="#ffa500" stroke-width="2" points="521.9635,-471.5623 490.1318,-484 458.3001,-471.5623 458.3298,-451.4377 521.9338,-451.4377 521.9635,-471.5623"/>
<text text-anchor="middle" x="490.1318" y="-461.8" font-family="Times,serif" font-size="14.00" fill="#000000">crop</text>
</g>
<!-- 203849460 -->
<g id="node18" class="node">
<title>203849460</title>
<polygon fill="none" stroke="#000000" points="623.207,-340 439.0566,-340 439.0566,-304 623.207,-304 623.207,-340"/>
<text text-anchor="middle" x="531.1318" y="-317.8" font-family="Times,serif" font-size="14.00" fill="#000000">fb2 = s1::ApplyInPlace([fb1])</text>
</g>
<!-- 1546693040&#45;&gt;203849460 -->
<g id="edge2" class="edge">
<title>1546693040&#45;&gt;203849460</title>
<path fill="none" stroke="#000000" d="M267.5019,-375.9243C317.9148,-365.6126 381.206,-352.6666 433.1378,-342.0442"/>
<polygon fill="#000000" stroke="#000000" points="433.9349,-345.4537 443.0307,-340.0207 432.5321,-338.5957 433.9349,-345.4537"/>
</g>
<!-- 203849460&#45;&gt;1354003114 -->
<g id="edge3" class="edge">
<title>203849460&#45;&gt;1354003114</title>
<path fill="none" stroke="#000000" d="M547.534,-303.8314C555.1733,-295.3694 564.4001,-285.1489 572.7525,-275.8971"/>
<polygon fill="#000000" stroke="#000000" points="575.4056,-278.1813 579.5087,-268.4133 570.2097,-273.4906 575.4056,-278.1813"/>
</g>
<!-- 24119573 -->
<g id="node19" class="node">
<title>24119573</title>
<polygon fill="none" stroke="#000000" points="440.4359,-484 323.8277,-484 323.8277,-448 440.4359,-448 440.4359,-484"/>
<text text-anchor="middle" x="382.1318" y="-461.8" font-family="Times,serif" font-size="14.00" fill="#000000">parse Number: 10</text>
</g>
<!-- 1664439369 -->
<g id="node20" class="node">
<title>1664439369</title>
<polygon fill="none" stroke="#000000" points="715.4141,-412 346.8495,-412 346.8495,-376 715.4141,-376 715.4141,-412"/>
<text text-anchor="middle" x="531.1318" y="-389.8" font-family="Times,serif" font-size="14.00" fill="#000000">s1 = Catalano.Imaging.Filters.Crop::__construct([5, 5, 10, 10])</text>
</g>
<!-- 24119573&#45;&gt;1664439369 -->
<g id="edge4" class="edge">
<title>24119573&#45;&gt;1664439369</title>
<path fill="none" stroke="#000000" d="M419.7308,-447.8314C439.4815,-438.2874 463.8615,-426.5065 484.7735,-416.4013"/>
<polygon fill="#000000" stroke="#000000" points="486.3221,-419.5403 493.8032,-412.038 483.2765,-413.2376 486.3221,-419.5403"/>
</g>
<!-- 1664439369&#45;&gt;203849460 -->
<g id="edge6" class="edge">
<title>1664439369&#45;&gt;203849460</title>
<path fill="none" stroke="#000000" d="M531.1318,-375.8314C531.1318,-368.131 531.1318,-358.9743 531.1318,-350.4166"/>
<polygon fill="#000000" stroke="#000000" points="534.6319,-350.4132 531.1318,-340.4133 527.6319,-350.4133 534.6319,-350.4132"/>
</g>
<!-- 1781071780 -->
<g id="node21" class="node">
<title>1781071780</title>
<polygon fill="none" stroke="#000000" points="649.9359,-484 540.3277,-484 540.3277,-448 649.9359,-448 649.9359,-484"/>
<text text-anchor="middle" x="595.1318" y="-461.8" font-family="Times,serif" font-size="14.00" fill="#000000">parse Number: 5</text>
</g>
<!-- 1781071780&#45;&gt;1664439369 -->
<g id="edge7" class="edge">
<title>1781071780&#45;&gt;1664439369</title>
<path fill="none" stroke="#000000" d="M578.9819,-447.8314C571.4601,-439.3694 562.3753,-429.1489 554.1514,-419.8971"/>
<polygon fill="#000000" stroke="#000000" points="556.7588,-417.5621 547.4991,-412.4133 551.5269,-422.2127 556.7588,-417.5621"/>
</g>
<!-- resize -->
<g id="node22" class="node">
<title>resize</title>
<polygon fill="none" stroke="#ffa500" stroke-width="2" points="1197.09,-399.5623 1159.1318,-412 1121.1736,-399.5623 1121.209,-379.4377 1197.0546,-379.4377 1197.09,-399.5623"/>
<text text-anchor="middle" x="1159.1318" y="-389.8" font-family="Times,serif" font-size="14.00" fill="#000000">resize</text>
</g>
<!-- 404214852 -->
<g id="node23" class="node">
<title>404214852</title>
<polygon fill="none" stroke="#000000" points="1116.3106,-268 935.953,-268 935.953,-232 1116.3106,-232 1116.3106,-268"/>
<text text-anchor="middle" x="1026.1318" y="-245.8" font-family="Times,serif" font-size="14.00" fill="#000000">fb3 = s2::applyInPlace([fb2])</text>
</g>
<!-- 404214852&#45;&gt;1105423942 -->
<g id="edge10" class="edge">
<title>404214852&#45;&gt;1105423942</title>
<path fill="none" stroke="#000000" d="M1011.7483,-231.8314C1005.1832,-223.5386 997.2811,-213.557 990.074,-204.4533"/>
<polygon fill="#000000" stroke="#000000" points="992.6602,-202.0813 983.709,-196.4133 987.1719,-206.4262 992.6602,-202.0813"/>
</g>
<!-- 1668016508 -->
<g id="node24" class="node">
<title>1668016508</title>
<polygon fill="none" stroke="#000000" points="1426.4359,-412 1309.8277,-412 1309.8277,-376 1426.4359,-376 1426.4359,-412"/>
<text text-anchor="middle" x="1368.1318" y="-389.8" font-family="Times,serif" font-size="14.00" fill="#000000">parse Number: 20</text>
</g>
<!-- 1585635178 -->
<g id="node25" class="node">
<title>1585635178</title>
<polygon fill="none" stroke="#000000" points="1543.2314,-340 1193.0322,-340 1193.0322,-304 1543.2314,-304 1543.2314,-340"/>
<text text-anchor="middle" x="1368.1318" y="-317.8" font-family="Times,serif" font-size="14.00" fill="#000000">s2 = Catalano.Imaging.Filters.Resize::__construct([20, 20])</text>
</g>
<!-- 1668016508&#45;&gt;1585635178 -->
<g id="edge12" class="edge">
<title>1668016508&#45;&gt;1585635178</title>
<path fill="none" stroke="#000000" d="M1368.1318,-375.8314C1368.1318,-368.131 1368.1318,-358.9743 1368.1318,-350.4166"/>
<polygon fill="#000000" stroke="#000000" points="1371.6319,-350.4132 1368.1318,-340.4133 1364.6319,-350.4133 1371.6319,-350.4132"/>
</g>
<!-- 1585635178&#45;&gt;404214852 -->
<g id="edge13" class="edge">
<title>1585635178&#45;&gt;404214852</title>
<path fill="none" stroke="#000000" d="M1282.2722,-303.9243C1233.3933,-293.634 1172.054,-280.7205 1121.6567,-270.1105"/>
<polygon fill="#000000" stroke="#000000" points="1122.2366,-266.6559 1111.73,-268.0207 1120.7945,-273.5058 1122.2366,-266.6559"/>
</g>
<!-- 388357135&#45;&gt;404214852 -->
<g id="edge14" class="edge">
<title>388357135&#45;&gt;404214852</title>
<path fill="none" stroke="#000000" d="M1026.1318,-303.8314C1026.1318,-296.131 1026.1318,-286.9743 1026.1318,-278.4166"/>
<polygon fill="#000000" stroke="#000000" points="1029.6319,-278.4132 1026.1318,-268.4133 1022.6319,-278.4133 1029.6319,-278.4132"/>
</g>
</g>
</svg>
