<?xml version="1.0" encoding="UTF-8" standalone="no"?>
<!DOCTYPE svg PUBLIC "-//W3C//DTD SVG 1.1//EN"
 "http://www.w3.org/Graphics/SVG/1.1/DTD/svg11.dtd">
<!-- Generated by graphviz version 2.40.1 (20161225.0304)
 -->
<!-- Title: %3 Pages: 1 -->
<svg width="700pt" height="116pt"
 viewBox="0.00 0.00 700.47 116.00" xmlns="http://www.w3.org/2000/svg" xmlns:xlink="http://www.w3.org/1999/xlink">
<g id="graph0" class="graph" transform="scale(1 1) rotate(0) translate(4 112)">
<title>%3</title>
<polygon fill="#ffffff" stroke="transparent" points="-4,4 -4,-112 696.4727,-112 696.4727,4 -4,4"/>
<!-- 1984990929 -->
<g id="node1" class="node">
<title>1984990929</title>
<polygon fill="none" stroke="#000000" points="73.8609,-108 .0463,-108 .0463,-72 73.8609,-72 73.8609,-108"/>
<text text-anchor="middle" x="36.9536" y="-85.8" font-family="Times,serif" font-size="14.00" fill="#000000">accept fb3</text>
</g>
<!-- 1782580546 -->
<g id="node2" class="node">
<title>1782580546</title>
<polygon fill="none" stroke="#000000" points="165.8609,-108 92.0463,-108 92.0463,-72 165.8609,-72 165.8609,-108"/>
<text text-anchor="middle" x="128.9536" y="-85.8" font-family="Times,serif" font-size="14.00" fill="#000000">accept fb1</text>
</g>
<!-- 836220863 -->
<g id="node4" class="node">
<title>836220863</title>
<polygon fill="none" stroke="#000000" points="189.9331,-36 67.9742,-36 67.9742,0 189.9331,0 189.9331,-36"/>
<text text-anchor="middle" x="128.9536" y="-13.8" font-family="Times,serif" font-size="14.00" fill="#000000">transmit fb1&#45;&gt;crop</text>
</g>
<!-- 1782580546&#45;&gt;836220863 -->
<g id="edge1" class="edge">
<title>1782580546&#45;&gt;836220863</title>
<path fill="none" stroke="#000000" d="M128.9536,-71.8314C128.9536,-64.131 128.9536,-54.9743 128.9536,-46.4166"/>
<polygon fill="#000000" stroke="#000000" points="132.4537,-46.4132 128.9536,-36.4133 125.4537,-46.4133 132.4537,-46.4132"/>
</g>
<!-- 1010856212 -->
<g id="node3" class="node">
<title>1010856212</title>
<polygon fill="none" stroke="#000000" points="260.4917,-108 183.4155,-108 183.4155,-72 260.4917,-72 260.4917,-108"/>
<text text-anchor="middle" x="221.9536" y="-85.8" font-family="Times,serif" font-size="14.00" fill="#000000">send graph</text>
</g>
<!-- 2128029086 -->
<g id="node5" class="node">
<title>2128029086</title>
<polygon fill="none" stroke="#000000" points="425.1921,-108 278.7151,-108 278.7151,-72 425.1921,-72 425.1921,-108"/>
<text text-anchor="middle" x="351.9536" y="-85.8" font-family="Times,serif" font-size="14.00" fill="#000000">accept &amp;finished&amp;crop</text>
</g>
<!-- 875016237 -->
<g id="node6" class="node">
<title>875016237</title>
<polygon fill="none" stroke="#000000" points="596.9575,-108 442.9497,-108 442.9497,-72 596.9575,-72 596.9575,-108"/>
<text text-anchor="middle" x="519.9536" y="-85.8" font-family="Times,serif" font-size="14.00" fill="#000000">accept &amp;finished&amp;resize</text>
</g>
<!-- 1107024580 -->
<g id="node7" class="node">
<title>1107024580</title>
<polygon fill="none" stroke="#000000" points="692.4917,-108 615.4155,-108 615.4155,-72 692.4917,-72 692.4917,-108"/>
<text text-anchor="middle" x="653.9536" y="-85.8" font-family="Times,serif" font-size="14.00" fill="#000000">send graph</text>
</g>
</g>
</svg>
