<?xml version="1.0" encoding="UTF-8" standalone="no"?>
<!DOCTYPE svg PUBLIC "-//W3C//DTD SVG 1.1//EN"
 "http://www.w3.org/Graphics/SVG/1.1/DTD/svg11.dtd">
<!-- Generated by graphviz version 2.40.1 (20161225.0304)
 -->
<!-- Title: %3 Pages: 1 -->
<svg width="694pt" height="332pt"
 viewBox="0.00 0.00 693.73 332.00" xmlns="http://www.w3.org/2000/svg" xmlns:xlink="http://www.w3.org/1999/xlink">
<g id="graph0" class="graph" transform="scale(1 1) rotate(0) translate(4 328)">
<title>%3</title>
<polygon fill="#ffffff" stroke="transparent" points="-4,4 -4,-328 689.7275,-328 689.7275,4 -4,4"/>
<!-- 1546693040 -->
<g id="node1" class="node">
<title>1546693040</title>
<polygon fill="none" stroke="#000000" points="685.5641,-252 387.2181,-252 387.2181,-216 685.5641,-216 685.5641,-252"/>
<text text-anchor="middle" x="536.3911" y="-229.8" font-family="Times,serif" font-size="14.00" fill="#000000">cast fb1 from Arr to Catalano.Imaging.FastBitmap</text>
</g>
<!-- 203849460 -->
<g id="node2" class="node">
<title>203849460</title>
<polygon fill="none" stroke="#000000" points="452.4663,-180 268.3159,-180 268.3159,-144 452.4663,-144 452.4663,-180"/>
<text text-anchor="middle" x="360.3911" y="-157.8" font-family="Times,serif" font-size="14.00" fill="#000000">fb2 = s1::ApplyInPlace([fb1])</text>
</g>
<!-- 1546693040&#45;&gt;203849460 -->
<g id="edge1" class="edge">
<title>1546693040&#45;&gt;203849460</title>
<path fill="none" stroke="#000000" d="M491.9789,-215.8314C468.2307,-206.1162 438.8165,-194.0831 413.8247,-183.8592"/>
<polygon fill="#000000" stroke="#000000" points="415.0647,-180.585 404.484,-180.038 412.4142,-187.0638 415.0647,-180.585"/>
</g>
<!-- 1354003114 -->
<g id="node7" class="node">
<title>1354003114</title>
<polygon fill="none" stroke="#000000" points="425.1355,-108 295.6467,-108 295.6467,-72 425.1355,-72 425.1355,-108"/>
<text text-anchor="middle" x="360.3911" y="-85.8" font-family="Times,serif" font-size="14.00" fill="#000000">transmit fb2&#45;&gt;resize</text>
</g>
<!-- 203849460&#45;&gt;1354003114 -->
<g id="edge2" class="edge">
<title>203849460&#45;&gt;1354003114</title>
<path fill="none" stroke="#000000" d="M360.3911,-143.8314C360.3911,-136.131 360.3911,-126.9743 360.3911,-118.4166"/>
<polygon fill="#000000" stroke="#000000" points="363.8912,-118.4132 360.3911,-108.4133 356.8912,-118.4133 363.8912,-118.4132"/>
</g>
<!-- 24119573 -->
<g id="node3" class="node">
<title>24119573</title>
<polygon fill="none" stroke="#000000" points="177.6952,-324 61.087,-324 61.087,-288 177.6952,-288 177.6952,-324"/>
<text text-anchor="middle" x="119.3911" y="-301.8" font-family="Times,serif" font-size="14.00" fill="#000000">parse Number: 10</text>
</g>
<!-- 1664439369 -->
<g id="node5" class="node">
<title>1664439369</title>
<polygon fill="none" stroke="#000000" points="368.6734,-252 .1088,-252 .1088,-216 368.6734,-216 368.6734,-252"/>
<text text-anchor="middle" x="184.3911" y="-229.8" font-family="Times,serif" font-size="14.00" fill="#000000">s1 = Catalano.Imaging.Filters.Crop::__construct([5, 5, 10, 10])</text>
</g>
<!-- 24119573&#45;&gt;1664439369 -->
<g id="edge3" class="edge">
<title>24119573&#45;&gt;1664439369</title>
<path fill="none" stroke="#000000" d="M135.7934,-287.8314C143.4326,-279.3694 152.6595,-269.1489 161.0118,-259.8971"/>
<polygon fill="#000000" stroke="#000000" points="163.6649,-262.1813 167.768,-252.4133 158.469,-257.4906 163.6649,-262.1813"/>
</g>
<!-- 820914198 -->
<g id="node4" class="node">
<title>820914198</title>
<polygon fill="none" stroke="#000000" points="573.2984,-324 499.4838,-324 499.4838,-288 573.2984,-288 573.2984,-324"/>
<text text-anchor="middle" x="536.3911" y="-301.8" font-family="Times,serif" font-size="14.00" fill="#000000">accept fb1</text>
</g>
<!-- 820914198&#45;&gt;1546693040 -->
<g id="edge4" class="edge">
<title>820914198&#45;&gt;1546693040</title>
<path fill="none" stroke="#000000" d="M536.3911,-287.8314C536.3911,-280.131 536.3911,-270.9743 536.3911,-262.4166"/>
<polygon fill="#000000" stroke="#000000" points="539.8912,-262.4132 536.3911,-252.4133 532.8912,-262.4133 539.8912,-262.4132"/>
</g>
<!-- 1664439369&#45;&gt;203849460 -->
<g id="edge5" class="edge">
<title>1664439369&#45;&gt;203849460</title>
<path fill="none" stroke="#000000" d="M228.8033,-215.8314C252.5515,-206.1162 281.9657,-194.0831 306.9575,-183.8592"/>
<polygon fill="#000000" stroke="#000000" points="308.368,-187.0638 316.2982,-180.038 305.7175,-180.585 308.368,-187.0638"/>
</g>
<!-- 1781071780 -->
<g id="node6" class="node">
<title>1781071780</title>
<polygon fill="none" stroke="#000000" points="305.1952,-324 195.587,-324 195.587,-288 305.1952,-288 305.1952,-324"/>
<text text-anchor="middle" x="250.3911" y="-301.8" font-family="Times,serif" font-size="14.00" fill="#000000">parse Number: 5</text>
</g>
<!-- 1781071780&#45;&gt;1664439369 -->
<g id="edge6" class="edge">
<title>1781071780&#45;&gt;1664439369</title>
<path fill="none" stroke="#000000" d="M233.7365,-287.8314C225.9797,-279.3694 216.6109,-269.1489 208.1301,-259.8971"/>
<polygon fill="#000000" stroke="#000000" points="210.6073,-257.4198 201.2699,-252.4133 205.4472,-262.1499 210.6073,-257.4198"/>
</g>
<!-- 1028780142 -->
<g id="node8" class="node">
<title>1028780142</title>
<polygon fill="none" stroke="#000000" points="448.2222,-36 272.56,-36 272.56,0 448.2222,0 448.2222,-36"/>
<text text-anchor="middle" x="360.3911" y="-13.8" font-family="Times,serif" font-size="14.00" fill="#000000">FinishNode &amp;finished&amp;crop</text>
</g>
<!-- 1354003114&#45;&gt;1028780142 -->
<g id="edge7" class="edge">
<title>1354003114&#45;&gt;1028780142</title>
<path fill="none" stroke="#000000" d="M360.3911,-71.8314C360.3911,-64.131 360.3911,-54.9743 360.3911,-46.4166"/>
<polygon fill="#000000" stroke="#000000" points="363.8912,-46.4132 360.3911,-36.4133 356.8912,-46.4133 363.8912,-46.4132"/>
</g>
</g>
</svg>
