<?xml version="1.0" encoding="UTF-8" standalone="no"?>
<!DOCTYPE svg PUBLIC "-//W3C//DTD SVG 1.1//EN"
 "http://www.w3.org/Graphics/SVG/1.1/DTD/svg11.dtd">
<!-- Generated by graphviz version 2.40.1 (20161225.0304)
 -->
<!-- Title: %3 Pages: 1 -->
<svg width="674pt" height="332pt"
 viewBox="0.00 0.00 674.39 332.00" xmlns="http://www.w3.org/2000/svg" xmlns:xlink="http://www.w3.org/1999/xlink">
<g id="graph0" class="graph" transform="scale(1 1) rotate(0) translate(4 328)">
<title>%3</title>
<polygon fill="#ffffff" stroke="transparent" points="-4,4 -4,-328 670.3862,-328 670.3862,4 -4,4"/>
<!-- 686466458 -->
<g id="node1" class="node">
<title>686466458</title>
<polygon fill="none" stroke="#000000" points="437.6469,-36 254.4527,-36 254.4527,0 437.6469,0 437.6469,-36"/>
<text text-anchor="middle" x="346.0498" y="-13.8" font-family="Times,serif" font-size="14.00" fill="#000000">FinishNode &amp;finished&amp;resize</text>
</g>
<!-- 1822971466 -->
<g id="node2" class="node">
<title>1822971466</title>
<polygon fill="none" stroke="#000000" points="553.9571,-324 480.1425,-324 480.1425,-288 553.9571,-288 553.9571,-324"/>
<text text-anchor="middle" x="517.0498" y="-301.8" font-family="Times,serif" font-size="14.00" fill="#000000">accept fb2</text>
</g>
<!-- 388357135 -->
<g id="node7" class="node">
<title>388357135</title>
<polygon fill="none" stroke="#000000" points="666.2228,-252 367.8768,-252 367.8768,-216 666.2228,-216 666.2228,-252"/>
<text text-anchor="middle" x="517.0498" y="-229.8" font-family="Times,serif" font-size="14.00" fill="#000000">cast fb2 from Arr to Catalano.Imaging.FastBitmap</text>
</g>
<!-- 1822971466&#45;&gt;388357135 -->
<g id="edge1" class="edge">
<title>1822971466&#45;&gt;388357135</title>
<path fill="none" stroke="#000000" d="M517.0498,-287.8314C517.0498,-280.131 517.0498,-270.9743 517.0498,-262.4166"/>
<polygon fill="#000000" stroke="#000000" points="520.5499,-262.4132 517.0498,-252.4133 513.5499,-262.4133 520.5499,-262.4132"/>
</g>
<!-- 404214852 -->
<g id="node3" class="node">
<title>404214852</title>
<polygon fill="none" stroke="#000000" points="436.2286,-180 255.871,-180 255.871,-144 436.2286,-144 436.2286,-180"/>
<text text-anchor="middle" x="346.0498" y="-157.8" font-family="Times,serif" font-size="14.00" fill="#000000">fb3 = s2::applyInPlace([fb2])</text>
</g>
<!-- 1105423942 -->
<g id="node4" class="node">
<title>1105423942</title>
<polygon fill="none" stroke="#000000" points="411.3732,-108 280.7264,-108 280.7264,-72 411.3732,-72 411.3732,-108"/>
<text text-anchor="middle" x="346.0498" y="-85.8" font-family="Times,serif" font-size="14.00" fill="#000000">transmit fb3&#45;&gt;Client</text>
</g>
<!-- 404214852&#45;&gt;1105423942 -->
<g id="edge2" class="edge">
<title>404214852&#45;&gt;1105423942</title>
<path fill="none" stroke="#000000" d="M346.0498,-143.8314C346.0498,-136.131 346.0498,-126.9743 346.0498,-118.4166"/>
<polygon fill="#000000" stroke="#000000" points="349.5499,-118.4132 346.0498,-108.4133 342.5499,-118.4133 349.5499,-118.4132"/>
</g>
<!-- 1105423942&#45;&gt;686466458 -->
<g id="edge3" class="edge">
<title>1105423942&#45;&gt;686466458</title>
<path fill="none" stroke="#000000" d="M346.0498,-71.8314C346.0498,-64.131 346.0498,-54.9743 346.0498,-46.4166"/>
<polygon fill="#000000" stroke="#000000" points="349.5499,-46.4132 346.0498,-36.4133 342.5499,-46.4133 349.5499,-46.4132"/>
</g>
<!-- 1668016508 -->
<g id="node5" class="node">
<title>1668016508</title>
<polygon fill="none" stroke="#000000" points="233.3539,-324 116.7457,-324 116.7457,-288 233.3539,-288 233.3539,-324"/>
<text text-anchor="middle" x="175.0498" y="-301.8" font-family="Times,serif" font-size="14.00" fill="#000000">parse Number: 20</text>
</g>
<!-- 1585635178 -->
<g id="node6" class="node">
<title>1585635178</title>
<polygon fill="none" stroke="#000000" points="350.1494,-252 -.0498,-252 -.0498,-216 350.1494,-216 350.1494,-252"/>
<text text-anchor="middle" x="175.0498" y="-229.8" font-family="Times,serif" font-size="14.00" fill="#000000">s2 = Catalano.Imaging.Filters.Resize::__construct([20, 20])</text>
</g>
<!-- 1668016508&#45;&gt;1585635178 -->
<g id="edge4" class="edge">
<title>1668016508&#45;&gt;1585635178</title>
<path fill="none" stroke="#000000" d="M175.0498,-287.8314C175.0498,-280.131 175.0498,-270.9743 175.0498,-262.4166"/>
<polygon fill="#000000" stroke="#000000" points="178.5499,-262.4132 175.0498,-252.4133 171.5499,-262.4133 178.5499,-262.4132"/>
</g>
<!-- 1585635178&#45;&gt;404214852 -->
<g id="edge5" class="edge">
<title>1585635178&#45;&gt;404214852</title>
<path fill="none" stroke="#000000" d="M218.2003,-215.8314C241.1722,-206.159 269.6007,-194.1891 293.813,-183.9944"/>
<polygon fill="#000000" stroke="#000000" points="295.3514,-187.1443 303.2096,-180.038 292.635,-180.6929 295.3514,-187.1443"/>
</g>
<!-- 388357135&#45;&gt;404214852 -->
<g id="edge6" class="edge">
<title>388357135&#45;&gt;404214852</title>
<path fill="none" stroke="#000000" d="M473.8993,-215.8314C450.9274,-206.159 422.4989,-194.1891 398.2866,-183.9944"/>
<polygon fill="#000000" stroke="#000000" points="399.4646,-180.6929 388.89,-180.038 396.7482,-187.1443 399.4646,-180.6929"/>
</g>
</g>
</svg>
