<?xml version="1.0" encoding="UTF-8" standalone="no"?>
<!DOCTYPE svg PUBLIC "-//W3C//DTD SVG 1.1//EN"
 "http://www.w3.org/Graphics/SVG/1.1/DTD/svg11.dtd">
<!-- Generated by graphviz version 2.40.1 (20161225.0304)
 -->
<!-- Title: %3 Pages: 1 -->
<svg width="2499pt" height="796pt"
 viewBox="0.00 0.00 2499.00 796.00" xmlns="http://www.w3.org/2000/svg" xmlns:xlink="http://www.w3.org/1999/xlink">
<g id="graph0" class="graph" transform="scale(1 1) rotate(0) translate(4 792)">
<title>%3</title>
<polygon fill="#ffffff" stroke="transparent" points="-4,4 -4,-792 2495,-792 2495,4 -4,4"/>
<g id="clust1" class="cluster">
<title>cluster_1520322171</title>
<polygon fill="none" stroke="#000000" points="194,-368 194,-564 1102,-564 1102,-368 194,-368"/>
</g>
<g id="clust2" class="cluster">
<title>cluster_922600667</title>
<polygon fill="none" stroke="#000000" points="469,-8 469,-348 869,-348 869,-8 469,-8"/>
</g>
<g id="clust3" class="cluster">
<title>cluster_1836648262</title>
<polygon fill="none" stroke="#000000" points="1453,-296 1453,-780 2483,-780 2483,-296 1453,-296"/>
</g>
<!-- node_80 -->
<g id="node1" class="node">
<title>node_80</title>
<polygon fill="none" stroke="#000000" points="1268.3165,-556 1109.6835,-556 1109.6835,-520 1268.3165,-520 1268.3165,-556"/>
<text text-anchor="middle" x="1189" y="-533.8" font-family="Times,serif" font-size="14.00" fill="#000000">transmit indices1&#45;&gt;Client</text>
</g>
<!-- node_75 -->
<g id="node11" class="node">
<title>node_75</title>
<polygon fill="none" stroke="#000000" points="812.9004,-484 711.0996,-484 711.0996,-448 812.9004,-448 812.9004,-484"/>
<text text-anchor="middle" x="762" y="-461.8" font-family="Times,serif" font-size="14.00" fill="#000000">accept indices1</text>
</g>
<!-- node_80&#45;&gt;node_75 -->
<g id="edge46" class="edge">
<title>node_80&#45;&gt;node_75</title>
<path fill="none" stroke="#000000" stroke-dasharray="1,5" d="M1109.5113,-520.6129C1108.3336,-520.4038 1107.1626,-520.1994 1106,-520 983.7821,-499.0426 948.2615,-509.7886 822.8988,-483.9911"/>
<polygon fill="#000000" stroke="#000000" points="823.4201,-480.5244 812.9148,-481.8993 821.9845,-487.3756 823.4201,-480.5244"/>
</g>
<!-- node_66 -->
<g id="node2" class="node">
<title>node_66</title>
<polygon fill="none" stroke="#000000" points="617.7755,-412 438.2245,-412 438.2245,-376 617.7755,-376 617.7755,-412"/>
<text text-anchor="middle" x="528" y="-389.8" font-family="Times,serif" font-size="14.00" fill="#000000">transmit service2&#45;&gt;executor2</text>
</g>
<!-- node_47 -->
<g id="node21" class="node">
<title>node_47</title>
<polygon fill="none" stroke="#000000" points="578.8868,-340 477.1132,-340 477.1132,-304 578.8868,-304 578.8868,-340"/>
<text text-anchor="middle" x="528" y="-317.8" font-family="Times,serif" font-size="14.00" fill="#000000">accept service2</text>
</g>
<!-- node_66&#45;&gt;node_47 -->
<g id="edge49" class="edge">
<title>node_66&#45;&gt;node_47</title>
<path fill="none" stroke="#000000" stroke-dasharray="1,5" d="M528,-375.8314C528,-368.131 528,-358.9743 528,-350.4166"/>
<polygon fill="#000000" stroke="#000000" points="531.5001,-350.4132 528,-340.4133 524.5001,-350.4133 531.5001,-350.4132"/>
</g>
<!-- node_67 -->
<g id="node3" class="node">
<title>node_67</title>
<polygon fill="none" stroke="#000000" points="303.8868,-484 202.1132,-484 202.1132,-448 303.8868,-448 303.8868,-484"/>
<text text-anchor="middle" x="253" y="-461.8" font-family="Times,serif" font-size="14.00" fill="#000000">accept service2</text>
</g>
<!-- node_67&#45;&gt;node_66 -->
<g id="edge13" class="edge">
<title>node_67&#45;&gt;node_66</title>
<path fill="none" stroke="#000000" d="M304.0176,-450.5231C307.0529,-449.6556 310.0642,-448.8086 313,-448 355.5856,-436.2707 403.2018,-424.2045 442.7779,-414.4611"/>
<polygon fill="#000000" stroke="#000000" points="443.7812,-417.8188 452.6584,-412.0357 442.1123,-411.0207 443.7812,-417.8188"/>
</g>
<!-- node_68 -->
<g id="node4" class="node">
<title>node_68</title>
<polygon fill="none" stroke="#000000" points="1062.7755,-412 883.2245,-412 883.2245,-376 1062.7755,-376 1062.7755,-412"/>
<text text-anchor="middle" x="973" y="-389.8" font-family="Times,serif" font-size="14.00" fill="#000000">transmit service1&#45;&gt;executor1</text>
</g>
<!-- node_64 -->
<g id="node23" class="node">
<title>node_64</title>
<polygon fill="none" stroke="#000000" points="1562.8868,-700 1461.1132,-700 1461.1132,-664 1562.8868,-664 1562.8868,-700"/>
<text text-anchor="middle" x="1512" y="-677.8" font-family="Times,serif" font-size="14.00" fill="#000000">accept service1</text>
</g>
<!-- node_68&#45;&gt;node_64 -->
<g id="edge47" class="edge">
<title>node_68&#45;&gt;node_64</title>
<path fill="none" stroke="#000000" stroke-dasharray="1,5" d="M1062.9373,-407.3429C1185.7497,-427.2323 1397.1878,-467.9591 1454,-520 1492.3292,-555.1102 1505.3492,-617.3325 1509.7576,-653.5913"/>
<polygon fill="#000000" stroke="#000000" points="1506.3221,-654.3815 1510.8677,-663.9517 1513.2823,-653.6357 1506.3221,-654.3815"/>
</g>
<!-- node_69 -->
<g id="node5" class="node">
<title>node_69</title>
<polygon fill="none" stroke="#000000" points="693.0562,-484 516.9438,-484 516.9438,-448 693.0562,-448 693.0562,-484"/>
<text text-anchor="middle" x="605" y="-461.8" font-family="Times,serif" font-size="14.00" fill="#000000">accept &amp;finished&amp;executor1</text>
</g>
<!-- node_70 -->
<g id="node6" class="node">
<title>node_70</title>
<polygon fill="none" stroke="#000000" points="784.5381,-556 707.4619,-556 707.4619,-520 784.5381,-520 784.5381,-556"/>
<text text-anchor="middle" x="746" y="-533.8" font-family="Times,serif" font-size="14.00" fill="#000000">send graph</text>
</g>
<!-- node_70&#45;&gt;node_67 -->
<g id="edge11" class="edge">
<title>node_70&#45;&gt;node_67</title>
<path fill="none" stroke="#000000" d="M707.3101,-528.0596C694.8286,-525.1252 680.8886,-522.132 668,-520 514.7478,-494.6497 470.3538,-514.0911 313.8747,-483.9475"/>
<polygon fill="#000000" stroke="#000000" points="314.3836,-480.4807 303.8966,-481.9881 313.0347,-487.3495 314.3836,-480.4807"/>
</g>
<!-- node_70&#45;&gt;node_69 -->
<g id="edge14" class="edge">
<title>node_70&#45;&gt;node_69</title>
<path fill="none" stroke="#000000" d="M710.4197,-519.8314C691.9675,-510.4089 669.2455,-498.8062 649.627,-488.7883"/>
<polygon fill="#000000" stroke="#000000" points="651.0667,-485.5935 640.5689,-484.1628 647.8832,-491.8278 651.0667,-485.5935"/>
</g>
<!-- node_71 -->
<g id="node7" class="node">
<title>node_71</title>
<polygon fill="none" stroke="#000000" points="1093.5938,-484 950.4062,-484 950.4062,-448 1093.5938,-448 1093.5938,-484"/>
<text text-anchor="middle" x="1022" y="-461.8" font-family="Times,serif" font-size="14.00" fill="#000000">accept datasetService1</text>
</g>
<!-- node_70&#45;&gt;node_71 -->
<g id="edge1" class="edge">
<title>node_70&#45;&gt;node_71</title>
<path fill="none" stroke="#000000" d="M784.6672,-527.9129C825.5041,-517.2598 891.0285,-500.1665 942.8924,-486.6368"/>
<polygon fill="#000000" stroke="#000000" points="943.947,-489.9789 952.7397,-484.0679 942.18,-483.2055 943.947,-489.9789"/>
</g>
<!-- node_72 -->
<g id="node8" class="node">
<title>node_72</title>
<polygon fill="none" stroke="#000000" points="932.8868,-484 831.1132,-484 831.1132,-448 932.8868,-448 932.8868,-484"/>
<text text-anchor="middle" x="882" y="-461.8" font-family="Times,serif" font-size="14.00" fill="#000000">accept service1</text>
</g>
<!-- node_70&#45;&gt;node_72 -->
<g id="edge4" class="edge">
<title>node_70&#45;&gt;node_72</title>
<path fill="none" stroke="#000000" d="M780.3185,-519.8314C798.0359,-510.4516 819.8345,-498.9112 838.6984,-488.9244"/>
<polygon fill="#000000" stroke="#000000" points="840.4922,-491.935 847.6924,-484.1628 837.2169,-485.7485 840.4922,-491.935"/>
</g>
<!-- node_74 -->
<g id="node10" class="node">
<title>node_74</title>
<polygon fill="none" stroke="#000000" points="498.0562,-484 321.9438,-484 321.9438,-448 498.0562,-448 498.0562,-484"/>
<text text-anchor="middle" x="410" y="-461.8" font-family="Times,serif" font-size="14.00" fill="#000000">accept &amp;finished&amp;executor2</text>
</g>
<!-- node_70&#45;&gt;node_74 -->
<g id="edge6" class="edge">
<title>node_70&#45;&gt;node_74</title>
<path fill="none" stroke="#000000" d="M707.154,-528.8706C694.664,-525.9795 680.7586,-522.807 668,-520 615.2114,-508.3859 556.2135,-495.9938 507.9729,-486.0139"/>
<polygon fill="#000000" stroke="#000000" points="508.6626,-482.5826 498.1613,-483.9867 507.2462,-489.4378 508.6626,-482.5826"/>
</g>
<!-- node_70&#45;&gt;node_75 -->
<g id="edge7" class="edge">
<title>node_70&#45;&gt;node_75</title>
<path fill="none" stroke="#000000" d="M750.0375,-519.8314C751.7487,-512.131 753.7835,-502.9743 755.6852,-494.4166"/>
<polygon fill="#000000" stroke="#000000" points="759.1554,-494.9344 757.9082,-484.4133 752.3221,-493.4159 759.1554,-494.9344"/>
</g>
<!-- node_72&#45;&gt;node_68 -->
<g id="edge9" class="edge">
<title>node_72&#45;&gt;node_68</title>
<path fill="none" stroke="#000000" d="M904.9631,-447.8314C916.1715,-438.9632 929.8209,-428.1637 941.9439,-418.5718"/>
<polygon fill="#000000" stroke="#000000" points="944.3737,-421.1125 950.0442,-412.1628 940.0303,-415.6229 944.3737,-421.1125"/>
</g>
<!-- node_73 -->
<g id="node9" class="node">
<title>node_73</title>
<polygon fill="none" stroke="#000000" points="658.5381,-556 581.4619,-556 581.4619,-520 658.5381,-520 658.5381,-556"/>
<text text-anchor="middle" x="620" y="-533.8" font-family="Times,serif" font-size="14.00" fill="#000000">send graph</text>
</g>
<!-- node_73&#45;&gt;node_67 -->
<g id="edge8" class="edge">
<title>node_73&#45;&gt;node_67</title>
<path fill="none" stroke="#000000" d="M581.4154,-532.6989C524.7699,-524.5932 415.6663,-507.7542 313.7876,-484.0453"/>
<polygon fill="#000000" stroke="#000000" points="314.489,-480.6148 303.9529,-481.7295 312.8845,-487.4284 314.489,-480.6148"/>
</g>
<!-- node_73&#45;&gt;node_69 -->
<g id="edge10" class="edge">
<title>node_73&#45;&gt;node_69</title>
<path fill="none" stroke="#000000" d="M616.2149,-519.8314C614.6106,-512.131 612.703,-502.9743 610.9201,-494.4166"/>
<polygon fill="#000000" stroke="#000000" points="614.3021,-493.4892 608.8361,-484.4133 607.4493,-494.9169 614.3021,-493.4892"/>
</g>
<!-- node_73&#45;&gt;node_71 -->
<g id="edge12" class="edge">
<title>node_73&#45;&gt;node_71</title>
<path fill="none" stroke="#000000" d="M658.752,-528.4106C671.2369,-525.4949 685.1632,-522.4241 698,-520 802.559,-500.2552 832.4912,-503.8095 940.1315,-484.2783"/>
<polygon fill="#000000" stroke="#000000" points="940.8924,-487.6971 950.0941,-482.4455 939.6259,-480.8126 940.8924,-487.6971"/>
</g>
<!-- node_73&#45;&gt;node_72 -->
<g id="edge15" class="edge">
<title>node_73&#45;&gt;node_72</title>
<path fill="none" stroke="#000000" d="M658.8202,-527.9946C697.4916,-517.9448 758.7992,-501.7906 820.9833,-484.2504"/>
<polygon fill="#000000" stroke="#000000" points="822.299,-487.5155 830.9676,-481.4241 820.3924,-480.7802 822.299,-487.5155"/>
</g>
<!-- node_73&#45;&gt;node_74 -->
<g id="edge2" class="edge">
<title>node_73&#45;&gt;node_74</title>
<path fill="none" stroke="#000000" d="M580.9928,-524.6261C550.5265,-514.1805 507.5948,-499.4611 472.3719,-487.3846"/>
<polygon fill="#000000" stroke="#000000" points="473.253,-483.9868 462.6584,-484.0543 470.9827,-490.6084 473.253,-483.9868"/>
</g>
<!-- node_73&#45;&gt;node_75 -->
<g id="edge5" class="edge">
<title>node_73&#45;&gt;node_75</title>
<path fill="none" stroke="#000000" d="M655.8326,-519.8314C674.4157,-510.4089 697.2989,-498.8062 717.0565,-488.7883"/>
<polygon fill="#000000" stroke="#000000" points="718.8427,-491.8069 726.1789,-484.1628 715.677,-485.5635 718.8427,-491.8069"/>
</g>
<!-- node_76 -->
<g id="node12" class="node">
<title>node_76</title>
<polygon fill="none" stroke="#000000" points="833.7892,-412 654.2108,-412 654.2108,-376 833.7892,-376 833.7892,-412"/>
<text text-anchor="middle" x="744" y="-389.8" font-family="Times,serif" font-size="14.00" fill="#000000">transmit indices1&#45;&gt;executor1</text>
</g>
<!-- node_75&#45;&gt;node_76 -->
<g id="edge3" class="edge">
<title>node_75&#45;&gt;node_76</title>
<path fill="none" stroke="#000000" d="M757.4578,-447.8314C755.5116,-440.0463 753.1932,-430.7729 751.0337,-422.1347"/>
<polygon fill="#000000" stroke="#000000" points="754.4242,-421.2658 748.6033,-412.4133 747.6332,-422.9636 754.4242,-421.2658"/>
</g>
<!-- node_54 -->
<g id="node29" class="node">
<title>node_54</title>
<polygon fill="none" stroke="#000000" points="1721.9004,-772 1620.0996,-772 1620.0996,-736 1721.9004,-736 1721.9004,-772"/>
<text text-anchor="middle" x="1671" y="-749.8" font-family="Times,serif" font-size="14.00" fill="#000000">accept indices1</text>
</g>
<!-- node_76&#45;&gt;node_54 -->
<g id="edge44" class="edge">
<title>node_76&#45;&gt;node_54</title>
<path fill="none" stroke="#000000" stroke-dasharray="1,5" d="M654.0202,-408.4918C644.9048,-409.7652 635.776,-410.9622 627,-412 423.1317,-436.1077 0,-373.4801 0,-538 0,-610 0,-610 0,-610 0,-692.4633 1308.8091,-741.7522 1609.7997,-751.997"/>
<polygon fill="#000000" stroke="#000000" points="1609.9652,-755.5045 1620.0779,-752.3449 1610.2021,-748.5085 1609.9652,-755.5045"/>
</g>
<!-- node_77 -->
<g id="node13" class="node">
<title>node_77</title>
<polygon fill="none" stroke="#000000" points="392,-556 347.2728,-538 392,-520 436.7272,-538 392,-556"/>
<text text-anchor="middle" x="392" y="-533.8" font-family="Times,serif" font-size="14.00" fill="#000000">Client</text>
</g>
<!-- node_48 -->
<g id="node14" class="node">
<title>node_48</title>
<polygon fill="none" stroke="#000000" points="860.7736,-268 585.2264,-268 585.2264,-232 860.7736,-232 860.7736,-268"/>
<text text-anchor="middle" x="723" y="-245.8" font-family="Times,serif" font-size="14.00" fill="#000000">cast data1 from dataset to weka.core.Instances</text>
</g>
<!-- node_42 -->
<g id="node16" class="node">
<title>node_42</title>
<polygon fill="none" stroke="#000000" points="652.542,-196 507.458,-196 507.458,-160 652.542,-160 652.542,-196"/>
<text text-anchor="middle" x="580" y="-173.8" font-family="Times,serif" font-size="14.00" fill="#000000">service2::train([data1])</text>
</g>
<!-- node_48&#45;&gt;node_42 -->
<g id="edge19" class="edge">
<title>node_48&#45;&gt;node_42</title>
<path fill="none" stroke="#000000" d="M686.9151,-231.8314C668.2011,-222.4089 645.1568,-210.8062 625.26,-200.7883"/>
<polygon fill="#000000" stroke="#000000" points="626.5792,-197.5339 616.0734,-196.1628 623.4311,-203.7861 626.5792,-197.5339"/>
</g>
<!-- node_49 -->
<g id="node15" class="node">
<title>node_49</title>
<polygon fill="none" stroke="#000000" points="797,-340 733.3022,-322 797,-304 860.6978,-322 797,-340"/>
<text text-anchor="middle" x="797" y="-317.8" font-family="Times,serif" font-size="14.00" fill="#000000">executor2</text>
</g>
<!-- node_43 -->
<g id="node17" class="node">
<title>node_43</title>
<polygon fill="none" stroke="#000000" points="626.8561,-124 533.1439,-124 533.1439,-88 626.8561,-88 626.8561,-124"/>
<text text-anchor="middle" x="580" y="-101.8" font-family="Times,serif" font-size="14.00" fill="#000000">store service2</text>
</g>
<!-- node_42&#45;&gt;node_43 -->
<g id="edge16" class="edge">
<title>node_42&#45;&gt;node_43</title>
<path fill="none" stroke="#000000" d="M580,-159.8314C580,-152.131 580,-142.9743 580,-134.4166"/>
<polygon fill="#000000" stroke="#000000" points="583.5001,-134.4132 580,-124.4133 576.5001,-134.4133 583.5001,-134.4132"/>
</g>
<!-- node_45 -->
<g id="node19" class="node">
<title>node_45</title>
<polygon fill="none" stroke="#000000" points="683.1485,-52 476.8515,-52 476.8515,-16 683.1485,-16 683.1485,-52"/>
<text text-anchor="middle" x="580" y="-29.8" font-family="Times,serif" font-size="14.00" fill="#000000">FinishNode &amp;finished&amp;executor2</text>
</g>
<!-- node_43&#45;&gt;node_45 -->
<g id="edge17" class="edge">
<title>node_43&#45;&gt;node_45</title>
<path fill="none" stroke="#000000" d="M580,-87.8314C580,-80.131 580,-70.9743 580,-62.4166"/>
<polygon fill="#000000" stroke="#000000" points="583.5001,-62.4132 580,-52.4133 576.5001,-62.4133 583.5001,-62.4132"/>
</g>
<!-- node_44 -->
<g id="node18" class="node">
<title>node_44</title>
<polygon fill="none" stroke="#000000" points="567.2455,-268 476.7545,-268 476.7545,-232 567.2455,-232 567.2455,-268"/>
<text text-anchor="middle" x="522" y="-245.8" font-family="Times,serif" font-size="14.00" fill="#000000">load service2</text>
</g>
<!-- node_44&#45;&gt;node_42 -->
<g id="edge21" class="edge">
<title>node_44&#45;&gt;node_42</title>
<path fill="none" stroke="#000000" d="M536.6358,-231.8314C543.3161,-223.5386 551.3568,-213.557 558.6904,-204.4533"/>
<polygon fill="#000000" stroke="#000000" points="561.6194,-206.3965 565.1671,-196.4133 556.1681,-202.0052 561.6194,-206.3965"/>
</g>
<!-- node_45&#45;&gt;node_74 -->
<g id="edge48" class="edge">
<title>node_45&#45;&gt;node_74</title>
<path fill="none" stroke="#000000" stroke-dasharray="1,5" d="M529.4547,-52.0453C479.3433,-73.5612 410,-114.7597 410,-178 410,-322 410,-322 410,-322 410,-362.124 410,-408.5369 410,-437.5823"/>
<polygon fill="#000000" stroke="#000000" points="406.5001,-437.8146 410,-447.8146 413.5001,-437.8147 406.5001,-437.8146"/>
</g>
<!-- node_46 -->
<g id="node20" class="node">
<title>node_46</title>
<polygon fill="none" stroke="#000000" points="715.5636,-340 630.4364,-340 630.4364,-304 715.5636,-304 715.5636,-340"/>
<text text-anchor="middle" x="673" y="-317.8" font-family="Times,serif" font-size="14.00" fill="#000000">accept data1</text>
</g>
<!-- node_46&#45;&gt;node_48 -->
<g id="edge18" class="edge">
<title>node_46&#45;&gt;node_48</title>
<path fill="none" stroke="#000000" d="M685.6171,-303.8314C691.3172,-295.6232 698.1663,-285.7606 704.4359,-276.7323"/>
<polygon fill="#000000" stroke="#000000" points="707.3838,-278.6234 710.213,-268.4133 701.6342,-274.6306 707.3838,-278.6234"/>
</g>
<!-- node_47&#45;&gt;node_44 -->
<g id="edge20" class="edge">
<title>node_47&#45;&gt;node_44</title>
<path fill="none" stroke="#000000" d="M526.4859,-303.8314C525.8442,-296.131 525.0812,-286.9743 524.3681,-278.4166"/>
<polygon fill="#000000" stroke="#000000" points="527.8529,-278.088 523.5344,-268.4133 520.8771,-278.6694 527.8529,-278.088"/>
</g>
<!-- node_78 -->
<g id="node22" class="node">
<title>node_78</title>
<polygon fill="none" stroke="#000000" points="1445.3029,-556 1286.6971,-556 1286.6971,-520 1445.3029,-520 1445.3029,-556"/>
<text text-anchor="middle" x="1366" y="-533.8" font-family="Times,serif" font-size="14.00" fill="#000000">transmit service1&#45;&gt;Client</text>
</g>
<!-- node_78&#45;&gt;node_72 -->
<g id="edge43" class="edge">
<title>node_78&#45;&gt;node_72</title>
<path fill="none" stroke="#000000" stroke-dasharray="1,5" d="M1286.4891,-521.5387C1283.2882,-520.9966 1280.1159,-520.481 1277,-520 1131.7587,-497.5814 1089.9382,-513.3373 942.8568,-484.1955"/>
<polygon fill="#000000" stroke="#000000" points="943.509,-480.7566 933.0144,-482.2102 942.1249,-487.6184 943.509,-480.7566"/>
</g>
<!-- node_57 -->
<g id="node32" class="node">
<title>node_57</title>
<polygon fill="none" stroke="#000000" points="1619.2455,-628 1528.7545,-628 1528.7545,-592 1619.2455,-592 1619.2455,-628"/>
<text text-anchor="middle" x="1574" y="-605.8" font-family="Times,serif" font-size="14.00" fill="#000000">load service1</text>
</g>
<!-- node_64&#45;&gt;node_57 -->
<g id="edge32" class="edge">
<title>node_64&#45;&gt;node_57</title>
<path fill="none" stroke="#000000" d="M1527.6452,-663.8314C1534.8591,-655.454 1543.557,-645.3531 1551.4605,-636.1749"/>
<polygon fill="#000000" stroke="#000000" points="1554.2711,-638.2748 1558.1441,-628.4133 1548.9667,-633.7071 1554.2711,-638.2748"/>
</g>
<!-- node_65 -->
<g id="node24" class="node">
<title>node_65</title>
<polygon fill="none" stroke="#000000" points="2396,-772 2332.3022,-754 2396,-736 2459.6978,-754 2396,-772"/>
<text text-anchor="middle" x="2396" y="-749.8" font-family="Times,serif" font-size="14.00" fill="#000000">executor1</text>
</g>
<!-- node_50 -->
<g id="node25" class="node">
<title>node_50</title>
<polygon fill="none" stroke="#000000" points="1690.8041,-700 1581.1959,-700 1581.1959,-664 1690.8041,-664 1690.8041,-700"/>
<text text-anchor="middle" x="1636" y="-677.8" font-family="Times,serif" font-size="14.00" fill="#000000">parse Number: 4</text>
</g>
<!-- node_53 -->
<g id="node28" class="node">
<title>node_53</title>
<polygon fill="none" stroke="#000000" points="1994.9417,-628 1665.0583,-628 1665.0583,-592 1994.9417,-592 1994.9417,-628"/>
<text text-anchor="middle" x="1830" y="-605.8" font-family="Times,serif" font-size="14.00" fill="#000000">i1 = datasetService1::fromIndicesLabeled([indices1, 4])</text>
</g>
<!-- node_50&#45;&gt;node_53 -->
<g id="edge24" class="edge">
<title>node_50&#45;&gt;node_53</title>
<path fill="none" stroke="#000000" d="M1684.9544,-663.8314C1711.362,-654.0306 1744.1256,-641.8709 1771.8286,-631.5894"/>
<polygon fill="#000000" stroke="#000000" points="1773.2403,-634.7988 1781.3976,-628.038 1770.8047,-628.2362 1773.2403,-634.7988"/>
</g>
<!-- node_51 -->
<g id="node26" class="node">
<title>node_51</title>
<polygon fill="none" stroke="#000000" points="1829.8561,-412 1736.1439,-412 1736.1439,-376 1829.8561,-376 1829.8561,-412"/>
<text text-anchor="middle" x="1783" y="-389.8" font-family="Times,serif" font-size="14.00" fill="#000000">store service1</text>
</g>
<!-- node_63 -->
<g id="node38" class="node">
<title>node_63</title>
<polygon fill="none" stroke="#000000" points="1740.1485,-340 1533.8515,-340 1533.8515,-304 1740.1485,-304 1740.1485,-340"/>
<text text-anchor="middle" x="1637" y="-317.8" font-family="Times,serif" font-size="14.00" fill="#000000">FinishNode &amp;finished&amp;executor1</text>
</g>
<!-- node_51&#45;&gt;node_63 -->
<g id="edge31" class="edge">
<title>node_51&#45;&gt;node_63</title>
<path fill="none" stroke="#000000" d="M1746.158,-375.8314C1726.8918,-366.3302 1703.1301,-354.6121 1682.7008,-344.5374"/>
<polygon fill="#000000" stroke="#000000" points="1684.0938,-341.3219 1673.577,-340.038 1680.9977,-347.6 1684.0938,-341.3219"/>
</g>
<!-- node_52 -->
<g id="node27" class="node">
<title>node_52</title>
<polygon fill="none" stroke="#000000" points="2015.0632,-484 1880.9368,-484 1880.9368,-448 2015.0632,-448 2015.0632,-484"/>
<text text-anchor="middle" x="1948" y="-461.8" font-family="Times,serif" font-size="14.00" fill="#000000">store datasetService1</text>
</g>
<!-- node_52&#45;&gt;node_63 -->
<g id="edge30" class="edge">
<title>node_52&#45;&gt;node_63</title>
<path fill="none" stroke="#000000" d="M1933.047,-447.7751C1913.7073,-425.4546 1877.8617,-388.1384 1839,-368 1811.7437,-353.8756 1780.2081,-344.0562 1750.2765,-337.2412"/>
<polygon fill="#000000" stroke="#000000" points="1750.7118,-333.754 1740.1957,-335.0433 1749.2206,-340.5933 1750.7118,-333.754"/>
</g>
<!-- node_53&#45;&gt;node_52 -->
<g id="edge37" class="edge">
<title>node_53&#45;&gt;node_52</title>
<path fill="none" stroke="#000000" d="M1844.9448,-591.7623C1865.6033,-566.5518 1903.004,-520.9103 1926.6165,-492.0952"/>
<polygon fill="#000000" stroke="#000000" points="1929.5455,-494.0428 1933.1766,-484.0896 1924.1311,-489.606 1929.5455,-494.0428"/>
</g>
<!-- node_55 -->
<g id="node30" class="node">
<title>node_55</title>
<polygon fill="none" stroke="#000000" points="1862.5342,-484 1657.4658,-484 1657.4658,-448 1862.5342,-448 1862.5342,-484"/>
<text text-anchor="middle" x="1760" y="-461.8" font-family="Times,serif" font-size="14.00" fill="#000000">data1 = service1::preprocess([i1])</text>
</g>
<!-- node_53&#45;&gt;node_55 -->
<g id="edge22" class="edge">
<title>node_53&#45;&gt;node_55</title>
<path fill="none" stroke="#000000" d="M1842.6392,-591.6788C1854.0264,-572.6912 1867.1231,-542.6731 1854,-520 1846.493,-507.0299 1834.5621,-496.9041 1821.6854,-489.1078"/>
<polygon fill="#000000" stroke="#000000" points="1823.101,-485.8898 1812.6625,-484.0763 1819.6917,-492.0035 1823.101,-485.8898"/>
</g>
<!-- node_56 -->
<g id="node31" class="node">
<title>node_56</title>
<polygon fill="none" stroke="#000000" points="1844.6148,-556 1719.3852,-556 1719.3852,-520 1844.6148,-520 1844.6148,-556"/>
<text text-anchor="middle" x="1782" y="-533.8" font-family="Times,serif" font-size="14.00" fill="#000000">service1::train([i1])</text>
</g>
<!-- node_53&#45;&gt;node_56 -->
<g id="edge25" class="edge">
<title>node_53&#45;&gt;node_56</title>
<path fill="none" stroke="#000000" d="M1817.8876,-591.8314C1812.4719,-583.7079 1805.9758,-573.9637 1800.0079,-565.0118"/>
<polygon fill="#000000" stroke="#000000" points="1802.7347,-562.7923 1794.2755,-556.4133 1796.9104,-566.6753 1802.7347,-562.7923"/>
</g>
<!-- node_60 -->
<g id="node35" class="node">
<title>node_60</title>
<polygon fill="none" stroke="#000000" points="1701.0098,-556 1500.9902,-556 1500.9902,-520 1701.0098,-520 1701.0098,-556"/>
<text text-anchor="middle" x="1601" y="-533.8" font-family="Times,serif" font-size="14.00" fill="#000000">transmit datasetService1&#45;&gt;Client</text>
</g>
<!-- node_53&#45;&gt;node_60 -->
<g id="edge29" class="edge">
<title>node_53&#45;&gt;node_60</title>
<path fill="none" stroke="#000000" d="M1772.5092,-591.9243C1740.7952,-581.9531 1701.2473,-569.5188 1668.1225,-559.104"/>
<polygon fill="#000000" stroke="#000000" points="1669.1038,-555.7437 1658.5144,-556.0831 1667.0042,-562.4214 1669.1038,-555.7437"/>
</g>
<!-- node_59 -->
<g id="node34" class="node">
<title>node_59</title>
<polygon fill="none" stroke="#000000" points="1951.3176,-700 1708.6824,-700 1708.6824,-664 1951.3176,-664 1951.3176,-700"/>
<text text-anchor="middle" x="1830" y="-677.8" font-family="Times,serif" font-size="14.00" fill="#000000">cast indices1 from jsonlist to builtin.List</text>
</g>
<!-- node_54&#45;&gt;node_59 -->
<g id="edge27" class="edge">
<title>node_54&#45;&gt;node_59</title>
<path fill="none" stroke="#000000" d="M1711.1224,-735.8314C1732.2932,-726.2446 1758.4483,-714.4008 1780.8303,-704.2655"/>
<polygon fill="#000000" stroke="#000000" points="1782.5003,-707.3515 1790.1661,-700.038 1779.6128,-700.9748 1782.5003,-707.3515"/>
</g>
<!-- node_55&#45;&gt;node_51 -->
<g id="edge35" class="edge">
<title>node_55&#45;&gt;node_51</title>
<path fill="none" stroke="#000000" d="M1765.8039,-447.8314C1768.2908,-440.0463 1771.2531,-430.7729 1774.0125,-422.1347"/>
<polygon fill="#000000" stroke="#000000" points="1777.409,-423.0041 1777.118,-412.4133 1770.7409,-420.874 1777.409,-423.0041"/>
</g>
<!-- node_61 -->
<g id="node36" class="node">
<title>node_61</title>
<polygon fill="none" stroke="#000000" points="1718.9518,-412 1555.0482,-412 1555.0482,-376 1718.9518,-376 1718.9518,-412"/>
<text text-anchor="middle" x="1637" y="-389.8" font-family="Times,serif" font-size="14.00" fill="#000000">transmit data1&#45;&gt;executor2</text>
</g>
<!-- node_55&#45;&gt;node_61 -->
<g id="edge28" class="edge">
<title>node_55&#45;&gt;node_61</title>
<path fill="none" stroke="#000000" d="M1728.9619,-447.8314C1713.2295,-438.6221 1693.9389,-427.3301 1677.0956,-417.4706"/>
<polygon fill="#000000" stroke="#000000" points="1678.4265,-414.1941 1668.0282,-412.1628 1674.8902,-420.2352 1678.4265,-414.1941"/>
</g>
<!-- node_56&#45;&gt;node_55 -->
<g id="edge38" class="edge">
<title>node_56&#45;&gt;node_55</title>
<path fill="none" stroke="#000000" d="M1776.4485,-519.8314C1774.0697,-512.0463 1771.2362,-502.7729 1768.5967,-494.1347"/>
<polygon fill="#000000" stroke="#000000" points="1771.8958,-492.954 1765.6263,-484.4133 1765.2013,-494.9996 1771.8958,-492.954"/>
</g>
<!-- node_57&#45;&gt;node_56 -->
<g id="edge39" class="edge">
<title>node_57&#45;&gt;node_56</title>
<path fill="none" stroke="#000000" d="M1619.4126,-594.8973C1645.8835,-586.0297 1679.8835,-574.5297 1710,-564 1714.2066,-562.5292 1718.5465,-560.9977 1722.9126,-559.4465"/>
<polygon fill="#000000" stroke="#000000" points="1724.2291,-562.693 1732.4709,-556.0354 1721.8763,-556.1002 1724.2291,-562.693"/>
</g>
<!-- node_58 -->
<g id="node33" class="node">
<title>node_58</title>
<polygon fill="none" stroke="#000000" points="2474.6856,-700 1969.3144,-700 1969.3144,-664 2474.6856,-664 2474.6856,-700"/>
<text text-anchor="middle" x="2222" y="-677.8" font-family="Times,serif" font-size="14.00" fill="#000000">datasetService1 = de.upb.sede.services.mls.DataSetService::__construct([weather.arff])</text>
</g>
<!-- node_58&#45;&gt;node_53 -->
<g id="edge34" class="edge">
<title>node_58&#45;&gt;node_53</title>
<path fill="none" stroke="#000000" d="M2123.8405,-663.9707C2067.3511,-653.5951 1996.2785,-640.5409 1938.1824,-629.8702"/>
<polygon fill="#000000" stroke="#000000" points="1938.703,-626.4074 1928.2352,-628.0432 1937.4384,-633.2922 1938.703,-626.4074"/>
</g>
<!-- node_59&#45;&gt;node_53 -->
<g id="edge33" class="edge">
<title>node_59&#45;&gt;node_53</title>
<path fill="none" stroke="#000000" d="M1830,-663.8314C1830,-656.131 1830,-646.9743 1830,-638.4166"/>
<polygon fill="#000000" stroke="#000000" points="1833.5001,-638.4132 1830,-628.4133 1826.5001,-638.4133 1833.5001,-638.4132"/>
</g>
<!-- node_60&#45;&gt;node_71 -->
<g id="edge45" class="edge">
<title>node_60&#45;&gt;node_71</title>
<path fill="none" stroke="#000000" stroke-dasharray="1,5" d="M1500.8069,-525.5408C1388.3552,-511.5571 1208.0437,-489.135 1103.7485,-476.1656"/>
<polygon fill="#000000" stroke="#000000" points="1103.9432,-472.663 1093.5877,-474.9021 1103.0793,-479.6095 1103.9432,-472.663"/>
</g>
<!-- node_60&#45;&gt;node_63 -->
<g id="edge26" class="edge">
<title>node_60&#45;&gt;node_63</title>
<path fill="none" stroke="#000000" d="M1585.7612,-519.9387C1560.3761,-487.5294 1515.1244,-418.2036 1546,-368 1551.6801,-358.7642 1559.8514,-351.3146 1568.9967,-345.3252"/>
<polygon fill="#000000" stroke="#000000" points="1570.7973,-348.3267 1577.6257,-340.2259 1567.236,-342.3003 1570.7973,-348.3267"/>
</g>
<!-- node_61&#45;&gt;node_46 -->
<g id="edge40" class="edge">
<title>node_61&#45;&gt;node_46</title>
<path fill="none" stroke="#000000" stroke-dasharray="1,5" d="M1554.883,-389.9744C1331.4776,-379.0083 728.9954,-349.3337 724,-348 720.2192,-346.9906 716.3949,-345.6766 712.63,-344.1756"/>
<polygon fill="#000000" stroke="#000000" points="714.0141,-340.9608 703.4521,-340.1263 711.1884,-347.3652 714.0141,-340.9608"/>
</g>
<!-- node_61&#45;&gt;node_63 -->
<g id="edge23" class="edge">
<title>node_61&#45;&gt;node_63</title>
<path fill="none" stroke="#000000" d="M1637,-375.8314C1637,-368.131 1637,-358.9743 1637,-350.4166"/>
<polygon fill="#000000" stroke="#000000" points="1640.5001,-350.4132 1637,-340.4133 1633.5001,-350.4133 1640.5001,-350.4132"/>
</g>
<!-- node_62 -->
<g id="node37" class="node">
<title>node_62</title>
<polygon fill="none" stroke="#000000" points="2300.6479,-772 2143.3521,-772 2143.3521,-736 2300.6479,-736 2300.6479,-772"/>
<text text-anchor="middle" x="2222" y="-749.8" font-family="Times,serif" font-size="14.00" fill="#000000">parse String: weather.arff</text>
</g>
<!-- node_62&#45;&gt;node_58 -->
<g id="edge36" class="edge">
<title>node_62&#45;&gt;node_58</title>
<path fill="none" stroke="#000000" d="M2222,-735.8314C2222,-728.131 2222,-718.9743 2222,-710.4166"/>
<polygon fill="#000000" stroke="#000000" points="2225.5001,-710.4132 2222,-700.4133 2218.5001,-710.4133 2225.5001,-710.4132"/>
</g>
<!-- node_63&#45;&gt;node_69 -->
<g id="edge42" class="edge">
<title>node_63&#45;&gt;node_69</title>
<path fill="none" stroke="#000000" stroke-dasharray="1,5" d="M1535.7135,-340.0441C1422.8512,-359.7041 1234.8059,-391.1326 1072,-412 911.3205,-432.5949 867.3063,-425.2112 703.1875,-447.8996"/>
<polygon fill="#000000" stroke="#000000" points="702.6535,-444.4402 693.2348,-449.2918 703.6232,-451.3727 702.6535,-444.4402"/>
</g>
<!-- node_79 -->
<g id="node39" class="node">
<title>node_79</title>
<polygon fill="none" stroke="#000000" points="186.3029,-556 27.6971,-556 27.6971,-520 186.3029,-520 186.3029,-556"/>
<text text-anchor="middle" x="107" y="-533.8" font-family="Times,serif" font-size="14.00" fill="#000000">transmit service2&#45;&gt;Client</text>
</g>
<!-- node_79&#45;&gt;node_67 -->
<g id="edge41" class="edge">
<title>node_79&#45;&gt;node_67</title>
<path fill="none" stroke="#000000" stroke-dasharray="1,5" d="M143.842,-519.8314C163.1082,-510.3302 186.8699,-498.6121 207.2992,-488.5374"/>
<polygon fill="#000000" stroke="#000000" points="209.0023,-491.6 216.423,-484.038 205.9062,-485.3219 209.0023,-491.6"/>
</g>
</g>
</svg>
