<?xml version="1.0" encoding="UTF-8" standalone="no"?>
<!DOCTYPE svg PUBLIC "-//W3C//DTD SVG 1.1//EN"
 "http://www.w3.org/Graphics/SVG/1.1/DTD/svg11.dtd">
<!-- Generated by graphviz version 2.40.1 (20161225.0304)
 -->
<!-- Title: %3 Pages: 1 -->
<svg width="3104pt" height="724pt"
 viewBox="0.00 0.00 3104.41 724.00" xmlns="http://www.w3.org/2000/svg" xmlns:xlink="http://www.w3.org/1999/xlink">
<g id="graph0" class="graph" transform="scale(1 1) rotate(0) translate(4 720)">
<title>%3</title>
<polygon fill="#ffffff" stroke="transparent" points="-4,4 -4,-720 3100.4082,-720 3100.4082,4 -4,4"/>
<g id="clust1" class="cluster">
<title>cluster_1338398838</title>
<polygon fill="none" stroke="#000000" points="2545.4082,-8 2545.4082,-348 3088.4082,-348 3088.4082,-8 2545.4082,-8"/>
</g>
<g id="clust2" class="cluster">
<title>cluster_1257005781</title>
<polygon fill="none" stroke="#000000" points="1547.4082,-152 1547.4082,-348 2429.4082,-348 2429.4082,-152 1547.4082,-152"/>
</g>
<g id="clust3" class="cluster">
<title>cluster_583588898</title>
<polygon fill="none" stroke="#000000" points="343.4082,-296 343.4082,-708 1373.4082,-708 1373.4082,-296 343.4082,-296"/>
</g>
<!-- node_81 -->
<g id="node1" class="node">
<title>node_81</title>
<polygon fill="none" stroke="#000000" points="3080.3181,-268 2954.4984,-268 2954.4984,-232 3080.3181,-232 3080.3181,-268"/>
<text text-anchor="middle" x="3017.4082" y="-245.8" font-family="Times,serif" font-size="14.00" fill="#000000">parse Bool: FALSE</text>
</g>
<!-- node_84 -->
<g id="node4" class="node">
<title>node_84</title>
<polygon fill="none" stroke="#000000" points="2889.5205,-196 2605.2959,-196 2605.2959,-160 2889.5205,-160 2889.5205,-196"/>
<text text-anchor="middle" x="2747.4082" y="-173.8" font-family="Times,serif" font-size="14.00" fill="#000000">predictions = service2::predict([FALSE, data1])</text>
</g>
<!-- node_81&#45;&gt;node_84 -->
<g id="edge3" class="edge">
<title>node_81&#45;&gt;node_84</title>
<path fill="none" stroke="#000000" d="M2954.446,-233.2101C2915.7841,-222.9002 2865.9746,-209.6177 2824.9002,-198.6645"/>
<polygon fill="#000000" stroke="#000000" points="2825.7645,-195.2728 2815.2003,-196.0779 2823.9608,-202.0364 2825.7645,-195.2728"/>
</g>
<!-- node_82 -->
<g id="node2" class="node">
<title>node_82</title>
<polygon fill="none" stroke="#000000" points="2643.6537,-268 2553.1628,-268 2553.1628,-232 2643.6537,-232 2643.6537,-268"/>
<text text-anchor="middle" x="2598.4082" y="-245.8" font-family="Times,serif" font-size="14.00" fill="#000000">load service2</text>
</g>
<!-- node_82&#45;&gt;node_84 -->
<g id="edge2" class="edge">
<title>node_82&#45;&gt;node_84</title>
<path fill="none" stroke="#000000" d="M2636.0072,-231.8314C2655.7579,-222.2874 2680.1379,-210.5065 2701.0499,-200.4013"/>
<polygon fill="#000000" stroke="#000000" points="2702.5985,-203.5403 2710.0796,-196.038 2699.5529,-197.2376 2702.5985,-203.5403"/>
</g>
<!-- node_83 -->
<g id="node3" class="node">
<title>node_83</title>
<polygon fill="none" stroke="#000000" points="2937.1818,-268 2661.6346,-268 2661.6346,-232 2937.1818,-232 2937.1818,-268"/>
<text text-anchor="middle" x="2799.4082" y="-245.8" font-family="Times,serif" font-size="14.00" fill="#000000">cast data1 from dataset to weka.core.Instances</text>
</g>
<!-- node_83&#45;&gt;node_84 -->
<g id="edge1" class="edge">
<title>node_83&#45;&gt;node_84</title>
<path fill="none" stroke="#000000" d="M2786.2864,-231.8314C2780.3583,-223.6232 2773.2353,-213.7606 2766.7149,-204.7323"/>
<polygon fill="#000000" stroke="#000000" points="2769.399,-202.4708 2760.7067,-196.4133 2763.7242,-206.5693 2769.399,-202.4708"/>
</g>
<!-- node_87 -->
<g id="node7" class="node">
<title>node_87</title>
<polygon fill="none" stroke="#000000" points="2743.7768,-124 2569.0396,-124 2569.0396,-88 2743.7768,-88 2743.7768,-124"/>
<text text-anchor="middle" x="2656.4082" y="-101.8" font-family="Times,serif" font-size="14.00" fill="#000000">transmit predictions&#45;&gt;Client</text>
</g>
<!-- node_84&#45;&gt;node_87 -->
<g id="edge4" class="edge">
<title>node_84&#45;&gt;node_87</title>
<path fill="none" stroke="#000000" d="M2724.4451,-159.8314C2713.2367,-150.9632 2699.5873,-140.1637 2687.4643,-130.5718"/>
<polygon fill="#000000" stroke="#000000" points="2689.3779,-127.6229 2679.364,-124.1628 2685.0345,-133.1125 2689.3779,-127.6229"/>
</g>
<!-- node_85 -->
<g id="node5" class="node">
<title>node_85</title>
<polygon fill="none" stroke="#000000" points="2759.5567,-52 2553.2597,-52 2553.2597,-16 2759.5567,-16 2759.5567,-52"/>
<text text-anchor="middle" x="2656.4082" y="-29.8" font-family="Times,serif" font-size="14.00" fill="#000000">FinishNode &amp;finished&amp;executor2</text>
</g>
<!-- node_105 -->
<g id="node18" class="node">
<title>node_105</title>
<polygon fill="none" stroke="#000000" points="2285.4644,-268 2109.352,-268 2109.352,-232 2285.4644,-232 2285.4644,-268"/>
<text text-anchor="middle" x="2197.4082" y="-245.8" font-family="Times,serif" font-size="14.00" fill="#000000">accept &amp;finished&amp;executor2</text>
</g>
<!-- node_85&#45;&gt;node_105 -->
<g id="edge37" class="edge">
<title>node_85&#45;&gt;node_105</title>
<path fill="none" stroke="#000000" stroke-dasharray="1,5" d="M2552.9529,-41.12C2340.0555,-56.8256 1868.8125,-97.4257 1821.4082,-152 1738.8809,-247.0098 1961.6357,-213.7172 2099.0091,-231.9419"/>
<polygon fill="#000000" stroke="#000000" points="2098.7577,-235.4419 2109.1558,-233.4097 2099.76,-228.514 2098.7577,-235.4419"/>
</g>
<!-- node_86 -->
<g id="node6" class="node">
<title>node_86</title>
<polygon fill="none" stroke="#000000" points="2801.295,-340 2699.5214,-340 2699.5214,-304 2801.295,-304 2801.295,-340"/>
<text text-anchor="middle" x="2750.4082" y="-317.8" font-family="Times,serif" font-size="14.00" fill="#000000">accept service2</text>
</g>
<!-- node_86&#45;&gt;node_82 -->
<g id="edge6" class="edge">
<title>node_86&#45;&gt;node_82</title>
<path fill="none" stroke="#000000" d="M2712.0522,-303.8314C2691.9038,-294.2874 2667.033,-282.5065 2645.6999,-272.4013"/>
<polygon fill="#000000" stroke="#000000" points="2647.0241,-269.1558 2636.4884,-268.038 2644.0275,-275.482 2647.0241,-269.1558"/>
</g>
<!-- node_87&#45;&gt;node_85 -->
<g id="edge7" class="edge">
<title>node_87&#45;&gt;node_85</title>
<path fill="none" stroke="#000000" d="M2656.4082,-87.8314C2656.4082,-80.131 2656.4082,-70.9743 2656.4082,-62.4166"/>
<polygon fill="#000000" stroke="#000000" points="2659.9083,-62.4132 2656.4082,-52.4133 2652.9083,-62.4133 2659.9083,-62.4132"/>
</g>
<!-- node_104 -->
<g id="node17" class="node">
<title>node_104</title>
<polygon fill="none" stroke="#000000" points="2421.3612,-268 2303.4552,-268 2303.4552,-232 2421.3612,-232 2421.3612,-268"/>
<text text-anchor="middle" x="2362.4082" y="-245.8" font-family="Times,serif" font-size="14.00" fill="#000000">accept predictions</text>
</g>
<!-- node_87&#45;&gt;node_104 -->
<g id="edge34" class="edge">
<title>node_87&#45;&gt;node_104</title>
<path fill="none" stroke="#000000" stroke-dasharray="1,5" d="M2569.098,-107.7097C2362.9333,-112.1727 1861.2805,-125.6933 1836.4082,-152 1822.9732,-166.2098 1823.1332,-181.6406 1836.4082,-196 1869.4695,-231.762 2210.5564,-224.2564 2293.4685,-232.4368"/>
<polygon fill="#000000" stroke="#000000" points="2293.215,-235.9329 2303.5789,-233.7329 2294.1051,-228.9897 2293.215,-235.9329"/>
</g>
<!-- node_88 -->
<g id="node8" class="node">
<title>node_88</title>
<polygon fill="none" stroke="#000000" points="2904.9718,-340 2819.8446,-340 2819.8446,-304 2904.9718,-304 2904.9718,-340"/>
<text text-anchor="middle" x="2862.4082" y="-317.8" font-family="Times,serif" font-size="14.00" fill="#000000">accept data1</text>
</g>
<!-- node_88&#45;&gt;node_83 -->
<g id="edge5" class="edge">
<title>node_88&#45;&gt;node_83</title>
<path fill="none" stroke="#000000" d="M2846.5106,-303.8314C2839.1804,-295.454 2830.3422,-285.3531 2822.3113,-276.1749"/>
<polygon fill="#000000" stroke="#000000" points="2824.7389,-273.6343 2815.5198,-268.4133 2819.4709,-278.2438 2824.7389,-273.6343"/>
</g>
<!-- node_89 -->
<g id="node9" class="node">
<title>node_89</title>
<polygon fill="none" stroke="#000000" points="2617.4082,-340 2553.7104,-322 2617.4082,-304 2681.106,-322 2617.4082,-340"/>
<text text-anchor="middle" x="2617.4082" y="-317.8" font-family="Times,serif" font-size="14.00" fill="#000000">executor2</text>
</g>
<!-- node_114 -->
<g id="node10" class="node">
<title>node_114</title>
<polygon fill="none" stroke="#000000" points="335.7111,-340 177.1053,-340 177.1053,-304 335.7111,-304 335.7111,-340"/>
<text text-anchor="middle" x="256.4082" y="-317.8" font-family="Times,serif" font-size="14.00" fill="#000000">transmit service2&#45;&gt;Client</text>
</g>
<!-- node_111 -->
<g id="node24" class="node">
<title>node_111</title>
<polygon fill="none" stroke="#000000" points="1777.295,-268 1675.5214,-268 1675.5214,-232 1777.295,-232 1777.295,-268"/>
<text text-anchor="middle" x="1726.4082" y="-245.8" font-family="Times,serif" font-size="14.00" fill="#000000">accept service2</text>
</g>
<!-- node_114&#45;&gt;node_111 -->
<g id="edge41" class="edge">
<title>node_114&#45;&gt;node_111</title>
<path fill="none" stroke="#000000" stroke-dasharray="1,5" d="M305.8914,-303.9999C316.7936,-300.7404 328.381,-297.806 339.4082,-296 627.216,-248.8643 1358.3817,-312.4485 1664.9521,-267.9044"/>
<polygon fill="#000000" stroke="#000000" points="1665.8709,-271.3052 1675.2326,-266.3445 1664.8207,-264.3844 1665.8709,-271.3052"/>
</g>
<!-- node_115 -->
<g id="node11" class="node">
<title>node_115</title>
<polygon fill="none" stroke="#000000" points="158.7247,-340 .0917,-340 .0917,-304 158.7247,-304 158.7247,-340"/>
<text text-anchor="middle" x="79.4082" y="-317.8" font-family="Times,serif" font-size="14.00" fill="#000000">transmit indices1&#45;&gt;Client</text>
</g>
<!-- node_102 -->
<g id="node15" class="node">
<title>node_102</title>
<polygon fill="none" stroke="#000000" points="1657.3086,-268 1555.5078,-268 1555.5078,-232 1657.3086,-232 1657.3086,-268"/>
<text text-anchor="middle" x="1606.4082" y="-245.8" font-family="Times,serif" font-size="14.00" fill="#000000">accept indices1</text>
</g>
<!-- node_115&#45;&gt;node_102 -->
<g id="edge35" class="edge">
<title>node_115&#45;&gt;node_102</title>
<path fill="none" stroke="#000000" stroke-dasharray="1,5" d="M133.035,-303.973C144.5806,-300.7593 156.8038,-297.8501 168.4082,-296 305.4125,-274.1571 1287.6748,-255.5813 1544.888,-251.0532"/>
<polygon fill="#000000" stroke="#000000" points="1545.2248,-254.548 1555.1619,-250.8731 1545.102,-247.549 1545.2248,-254.548"/>
</g>
<!-- node_116 -->
<g id="node12" class="node">
<title>node_116</title>
<polygon fill="none" stroke="#000000" points="1539.7111,-340 1381.1053,-340 1381.1053,-304 1539.7111,-304 1539.7111,-340"/>
<text text-anchor="middle" x="1460.4082" y="-317.8" font-family="Times,serif" font-size="14.00" fill="#000000">transmit service1&#45;&gt;Client</text>
</g>
<!-- node_103 -->
<g id="node16" class="node">
<title>node_103</title>
<polygon fill="none" stroke="#000000" points="2091.295,-268 1989.5214,-268 1989.5214,-232 2091.295,-232 2091.295,-268"/>
<text text-anchor="middle" x="2040.4082" y="-245.8" font-family="Times,serif" font-size="14.00" fill="#000000">accept service1</text>
</g>
<!-- node_116&#45;&gt;node_103 -->
<g id="edge36" class="edge">
<title>node_116&#45;&gt;node_103</title>
<path fill="none" stroke="#000000" stroke-dasharray="1,5" d="M1511.2826,-303.9599C1521.7894,-300.8316 1532.8676,-297.9592 1543.4082,-296 1731.5747,-261.0244 1787.019,-301.0342 1979.3485,-267.935"/>
<polygon fill="#000000" stroke="#000000" points="1979.9678,-271.3798 1989.2075,-266.1954 1978.7514,-264.4863 1979.9678,-271.3798"/>
</g>
<!-- node_112 -->
<g id="node13" class="node">
<title>node_112</title>
<polygon fill="none" stroke="#000000" points="2223.1837,-196 2043.6327,-196 2043.6327,-160 2223.1837,-160 2223.1837,-196"/>
<text text-anchor="middle" x="2133.4082" y="-173.8" font-family="Times,serif" font-size="14.00" fill="#000000">transmit service2&#45;&gt;executor2</text>
</g>
<!-- node_112&#45;&gt;node_86 -->
<g id="edge39" class="edge">
<title>node_112&#45;&gt;node_86</title>
<path fill="none" stroke="#000000" stroke-dasharray="1,5" d="M2223.2205,-194.5189C2226.3189,-195.0284 2229.3884,-195.5237 2232.4082,-196 2351.5565,-214.7939 2391.027,-183.3633 2501.4082,-232 2524.2168,-242.05 2521.8923,-257.3104 2544.4082,-268 2604.0946,-296.3366 2627.2721,-276.5254 2690.4082,-296 2694.4356,-297.2423 2698.5568,-298.671 2702.6598,-300.2061"/>
<polygon fill="#000000" stroke="#000000" points="2701.5609,-303.5349 2712.1479,-303.943 2704.1261,-297.0218 2701.5609,-303.5349"/>
</g>
<!-- node_113 -->
<g id="node14" class="node">
<title>node_113</title>
<polygon fill="none" stroke="#000000" points="2243.4082,-340 2198.681,-322 2243.4082,-304 2288.1354,-322 2243.4082,-340"/>
<text text-anchor="middle" x="2243.4082" y="-317.8" font-family="Times,serif" font-size="14.00" fill="#000000">Client</text>
</g>
<!-- node_108 -->
<g id="node21" class="node">
<title>node_108</title>
<polygon fill="none" stroke="#000000" points="2025.1974,-196 1845.619,-196 1845.619,-160 2025.1974,-160 2025.1974,-196"/>
<text text-anchor="middle" x="1935.4082" y="-173.8" font-family="Times,serif" font-size="14.00" fill="#000000">transmit indices1&#45;&gt;executor1</text>
</g>
<!-- node_102&#45;&gt;node_108 -->
<g id="edge13" class="edge">
<title>node_102&#45;&gt;node_108</title>
<path fill="none" stroke="#000000" d="M1657.3817,-234.355C1660.4281,-233.5298 1663.4539,-232.738 1666.4082,-232 1721.9723,-218.1205 1784.6808,-205.3668 1835.5662,-195.7431"/>
<polygon fill="#000000" stroke="#000000" points="1836.3988,-199.1479 1845.58,-193.8606 1835.1055,-192.2684 1836.3988,-199.1479"/>
</g>
<!-- node_109 -->
<g id="node22" class="node">
<title>node_109</title>
<polygon fill="none" stroke="#000000" points="2421.1837,-196 2241.6327,-196 2241.6327,-160 2421.1837,-160 2421.1837,-196"/>
<text text-anchor="middle" x="2331.4082" y="-173.8" font-family="Times,serif" font-size="14.00" fill="#000000">transmit service1&#45;&gt;executor1</text>
</g>
<!-- node_103&#45;&gt;node_109 -->
<g id="edge14" class="edge">
<title>node_103&#45;&gt;node_109</title>
<path fill="none" stroke="#000000" d="M2091.4103,-234.4656C2094.4494,-233.6126 2097.4659,-232.7845 2100.4082,-232 2145.7236,-219.9185 2196.4301,-207.9007 2238.7658,-198.2804"/>
<polygon fill="#000000" stroke="#000000" points="2239.7986,-201.6352 2248.7793,-196.0141 2238.2534,-194.8079 2239.7986,-201.6352"/>
</g>
<!-- node_106 -->
<g id="node19" class="node">
<title>node_106</title>
<polygon fill="none" stroke="#000000" points="2047.9463,-340 1970.8701,-340 1970.8701,-304 2047.9463,-304 2047.9463,-340"/>
<text text-anchor="middle" x="2009.4082" y="-317.8" font-family="Times,serif" font-size="14.00" fill="#000000">send graph</text>
</g>
<!-- node_106&#45;&gt;node_102 -->
<g id="edge16" class="edge">
<title>node_106&#45;&gt;node_102</title>
<path fill="none" stroke="#000000" d="M1970.687,-303.9573C1962.7933,-300.8696 1954.4424,-298.0133 1946.4082,-296 1828.1744,-266.3714 1790.9728,-290.9833 1667.4639,-267.9693"/>
<polygon fill="#000000" stroke="#000000" points="1668.1143,-264.5303 1657.6322,-266.0718 1666.7878,-271.4035 1668.1143,-264.5303"/>
</g>
<!-- node_106&#45;&gt;node_103 -->
<g id="edge18" class="edge">
<title>node_106&#45;&gt;node_103</title>
<path fill="none" stroke="#000000" d="M2017.2308,-303.8314C2020.6191,-295.9617 2024.6623,-286.5712 2028.4158,-277.8533"/>
<polygon fill="#000000" stroke="#000000" points="2031.7403,-278.9822 2032.4803,-268.4133 2025.3109,-276.214 2031.7403,-278.9822"/>
</g>
<!-- node_106&#45;&gt;node_104 -->
<g id="edge20" class="edge">
<title>node_106&#45;&gt;node_104</title>
<path fill="none" stroke="#000000" d="M2048.3122,-315.5371C2101.4695,-306.5075 2199.9604,-289.0702 2293.581,-268.1077"/>
<polygon fill="#000000" stroke="#000000" points="2294.5158,-271.4849 2303.4999,-265.8692 2292.9747,-264.6566 2294.5158,-271.4849"/>
</g>
<!-- node_106&#45;&gt;node_105 -->
<g id="edge22" class="edge">
<title>node_106&#45;&gt;node_105</title>
<path fill="none" stroke="#000000" d="M2048.3619,-307.0816C2075.0502,-296.8605 2110.8791,-283.1388 2140.7195,-271.7106"/>
<polygon fill="#000000" stroke="#000000" points="2142.0915,-274.9331 2150.1783,-268.088 2139.588,-268.3961 2142.0915,-274.9331"/>
</g>
<!-- node_110 -->
<g id="node23" class="node">
<title>node_110</title>
<polygon fill="none" stroke="#000000" points="1971.4644,-268 1795.352,-268 1795.352,-232 1971.4644,-232 1971.4644,-268"/>
<text text-anchor="middle" x="1883.4082" y="-245.8" font-family="Times,serif" font-size="14.00" fill="#000000">accept &amp;finished&amp;executor1</text>
</g>
<!-- node_106&#45;&gt;node_110 -->
<g id="edge10" class="edge">
<title>node_106&#45;&gt;node_110</title>
<path fill="none" stroke="#000000" d="M1977.6131,-303.8314C1961.3477,-294.5368 1941.3696,-283.1208 1924.0031,-273.1971"/>
<polygon fill="#000000" stroke="#000000" points="1925.6121,-270.0854 1915.1932,-268.1628 1922.1391,-276.1631 1925.6121,-270.0854"/>
</g>
<!-- node_106&#45;&gt;node_111 -->
<g id="edge12" class="edge">
<title>node_106&#45;&gt;node_111</title>
<path fill="none" stroke="#000000" d="M1970.5611,-304.4231C1962.6778,-301.297 1954.3629,-298.3075 1946.4082,-296 1880.0537,-276.7523 1858.5047,-283.9259 1787.265,-268.0192"/>
<polygon fill="#000000" stroke="#000000" points="1787.8915,-264.5718 1777.3604,-265.7325 1786.3168,-271.3924 1787.8915,-264.5718"/>
</g>
<!-- node_107 -->
<g id="node20" class="node">
<title>node_107</title>
<polygon fill="none" stroke="#000000" points="1936.9463,-340 1859.8701,-340 1859.8701,-304 1936.9463,-304 1936.9463,-340"/>
<text text-anchor="middle" x="1898.4082" y="-317.8" font-family="Times,serif" font-size="14.00" fill="#000000">send graph</text>
</g>
<!-- node_107&#45;&gt;node_102 -->
<g id="edge15" class="edge">
<title>node_107&#45;&gt;node_102</title>
<path fill="none" stroke="#000000" d="M1859.6374,-313.7559C1815.4064,-304.1788 1740.7153,-287.4853 1667.2889,-268.1567"/>
<polygon fill="#000000" stroke="#000000" points="1667.9724,-264.7171 1657.4094,-265.5377 1666.1786,-271.4834 1667.9724,-264.7171"/>
</g>
<!-- node_107&#45;&gt;node_103 -->
<g id="edge17" class="edge">
<title>node_107&#45;&gt;node_103</title>
<path fill="none" stroke="#000000" d="M1934.2408,-303.8314C1952.8239,-294.4089 1975.7071,-282.8062 1995.4647,-272.7883"/>
<polygon fill="#000000" stroke="#000000" points="1997.2509,-275.8069 2004.5871,-268.1628 1994.0852,-269.5635 1997.2509,-275.8069"/>
</g>
<!-- node_107&#45;&gt;node_104 -->
<g id="edge19" class="edge">
<title>node_107&#45;&gt;node_104</title>
<path fill="none" stroke="#000000" d="M1936.7666,-303.9889C1944.7615,-300.8583 1953.2434,-297.9777 1961.4082,-296 2102.655,-261.7868 2146.1956,-291.9656 2293.7066,-267.9112"/>
<polygon fill="#000000" stroke="#000000" points="2294.2966,-271.3612 2303.5754,-266.2471 2293.1326,-264.4587 2294.2966,-271.3612"/>
</g>
<!-- node_107&#45;&gt;node_105 -->
<g id="edge21" class="edge">
<title>node_107&#45;&gt;node_105</title>
<path fill="none" stroke="#000000" d="M1936.9536,-304.6787C1944.9341,-301.4947 1953.3627,-298.418 1961.4082,-296 1968.3691,-293.908 2037.6295,-280.473 2099.3302,-268.6585"/>
<polygon fill="#000000" stroke="#000000" points="2099.9931,-272.0953 2109.1571,-266.7783 2098.6775,-265.22 2099.9931,-272.0953"/>
</g>
<!-- node_107&#45;&gt;node_110 -->
<g id="edge9" class="edge">
<title>node_107&#45;&gt;node_110</title>
<path fill="none" stroke="#000000" d="M1894.6231,-303.8314C1893.0188,-296.131 1891.1112,-286.9743 1889.3283,-278.4166"/>
<polygon fill="#000000" stroke="#000000" points="1892.7104,-277.4892 1887.2443,-268.4133 1885.8575,-278.9169 1892.7104,-277.4892"/>
</g>
<!-- node_107&#45;&gt;node_111 -->
<g id="edge11" class="edge">
<title>node_107&#45;&gt;node_111</title>
<path fill="none" stroke="#000000" d="M1859.808,-305.8418C1835.9025,-295.8348 1804.8908,-282.8532 1778.7852,-271.9252"/>
<polygon fill="#000000" stroke="#000000" points="1779.9874,-268.6343 1769.4115,-268.0014 1777.2844,-275.0914 1779.9874,-268.6343"/>
</g>
<!-- node_98 -->
<g id="node27" class="node">
<title>node_98</title>
<polygon fill="none" stroke="#000000" points="1206.3086,-700 1104.5078,-700 1104.5078,-664 1206.3086,-664 1206.3086,-700"/>
<text text-anchor="middle" x="1155.4082" y="-677.8" font-family="Times,serif" font-size="14.00" fill="#000000">accept indices1</text>
</g>
<!-- node_108&#45;&gt;node_98 -->
<g id="edge38" class="edge">
<title>node_108&#45;&gt;node_98</title>
<path fill="none" stroke="#000000" stroke-dasharray="1,5" d="M2025.462,-194.7253C2028.4771,-195.1729 2031.4655,-195.5995 2034.4082,-196 2121.9641,-207.9153 2355.0049,-185.9312 2430.4082,-232 2470.8115,-256.685 2487.4082,-274.6526 2487.4082,-322 2487.4082,-538 2487.4082,-538 2487.4082,-538 2487.4082,-602.8066 1477.6129,-663.9271 1216.4637,-678.6502"/>
<polygon fill="#000000" stroke="#000000" points="1216.1901,-675.16 1206.4021,-679.2154 1216.5827,-682.149 1216.1901,-675.16"/>
</g>
<!-- node_100 -->
<g id="node29" class="node">
<title>node_100</title>
<polygon fill="none" stroke="#000000" points="1365.295,-628 1263.5214,-628 1263.5214,-592 1365.295,-592 1365.295,-628"/>
<text text-anchor="middle" x="1314.4082" y="-605.8" font-family="Times,serif" font-size="14.00" fill="#000000">accept service1</text>
</g>
<!-- node_109&#45;&gt;node_100 -->
<g id="edge40" class="edge">
<title>node_109&#45;&gt;node_100</title>
<path fill="none" stroke="#000000" stroke-dasharray="1,5" d="M2383.6129,-196.0952C2400.8804,-204.5015 2418.6617,-216.2151 2430.4082,-232 2454.8144,-264.797 2449.4082,-281.1184 2449.4082,-322 2449.4082,-466 2449.4082,-466 2449.4082,-466 2449.4082,-575.2354 1611.3363,-603.0678 1375.4959,-608.7375"/>
<polygon fill="#000000" stroke="#000000" points="1375.2965,-605.2411 1365.3818,-608.9758 1375.4615,-612.2392 1375.2965,-605.2411"/>
</g>
<!-- node_111&#45;&gt;node_112 -->
<g id="edge8" class="edge">
<title>node_111&#45;&gt;node_112</title>
<path fill="none" stroke="#000000" d="M1777.3369,-234.1647C1780.3945,-233.3874 1783.4351,-232.658 1786.4082,-232 1892.0745,-208.6143 1922.7639,-213.6472 2033.6822,-196.0709"/>
<polygon fill="#000000" stroke="#000000" points="2034.2728,-199.521 2043.5889,-194.4752 2033.1596,-192.61 2034.2728,-199.521"/>
</g>
<!-- node_96 -->
<g id="node25" class="node">
<title>node_96</title>
<polygon fill="none" stroke="#000000" points="1363.9424,-484 1158.874,-484 1158.874,-448 1363.9424,-448 1363.9424,-484"/>
<text text-anchor="middle" x="1261.4082" y="-461.8" font-family="Times,serif" font-size="14.00" fill="#000000">data1 = service1::preprocess([i1])</text>
</g>
<!-- node_90 -->
<g id="node31" class="node">
<title>node_90</title>
<polygon fill="none" stroke="#000000" points="1343.36,-412 1179.4564,-412 1179.4564,-376 1343.36,-376 1343.36,-412"/>
<text text-anchor="middle" x="1261.4082" y="-389.8" font-family="Times,serif" font-size="14.00" fill="#000000">transmit data1&#45;&gt;executor2</text>
</g>
<!-- node_96&#45;&gt;node_90 -->
<g id="edge27" class="edge">
<title>node_96&#45;&gt;node_90</title>
<path fill="none" stroke="#000000" d="M1261.4082,-447.8314C1261.4082,-440.131 1261.4082,-430.9743 1261.4082,-422.4166"/>
<polygon fill="#000000" stroke="#000000" points="1264.9083,-422.4132 1261.4082,-412.4133 1257.9083,-422.4133 1264.9083,-422.4132"/>
</g>
<!-- node_97 -->
<g id="node26" class="node">
<title>node_97</title>
<polygon fill="none" stroke="#000000" points="1192.3499,-556 862.4665,-556 862.4665,-520 1192.3499,-520 1192.3499,-556"/>
<text text-anchor="middle" x="1027.4082" y="-533.8" font-family="Times,serif" font-size="14.00" fill="#000000">i1 = datasetService1::fromIndicesLabeled([indices1, 4])</text>
</g>
<!-- node_97&#45;&gt;node_96 -->
<g id="edge32" class="edge">
<title>node_97&#45;&gt;node_96</title>
<path fill="none" stroke="#000000" d="M1086.1542,-519.9243C1118.5607,-509.9531 1158.9721,-497.5188 1192.8202,-487.104"/>
<polygon fill="#000000" stroke="#000000" points="1194.1095,-490.3693 1202.638,-484.0831 1192.0509,-483.6788 1194.1095,-490.3693"/>
</g>
<!-- node_93 -->
<g id="node34" class="node">
<title>node_93</title>
<polygon fill="none" stroke="#000000" points="1117.7258,-628 875.0906,-628 875.0906,-592 1117.7258,-592 1117.7258,-628"/>
<text text-anchor="middle" x="996.4082" y="-605.8" font-family="Times,serif" font-size="14.00" fill="#000000">cast indices1 from jsonlist to builtin.List</text>
</g>
<!-- node_98&#45;&gt;node_93 -->
<g id="edge28" class="edge">
<title>node_98&#45;&gt;node_93</title>
<path fill="none" stroke="#000000" d="M1115.2858,-663.8314C1094.115,-654.2446 1067.9599,-642.4008 1045.5779,-632.2655"/>
<polygon fill="#000000" stroke="#000000" points="1046.7954,-628.9748 1036.2421,-628.038 1043.9079,-635.3515 1046.7954,-628.9748"/>
</g>
<!-- node_99 -->
<g id="node28" class="node">
<title>node_99</title>
<polygon fill="none" stroke="#000000" points="1245.2123,-628 1135.6041,-628 1135.6041,-592 1245.2123,-592 1245.2123,-628"/>
<text text-anchor="middle" x="1190.4082" y="-605.8" font-family="Times,serif" font-size="14.00" fill="#000000">parse Number: 4</text>
</g>
<!-- node_99&#45;&gt;node_97 -->
<g id="edge30" class="edge">
<title>node_99&#45;&gt;node_97</title>
<path fill="none" stroke="#000000" d="M1149.2764,-591.8314C1127.4761,-582.2018 1100.5204,-570.295 1077.5078,-560.1299"/>
<polygon fill="#000000" stroke="#000000" points="1078.8058,-556.877 1068.2442,-556.038 1075.9774,-563.2802 1078.8058,-556.877"/>
</g>
<!-- node_95 -->
<g id="node36" class="node">
<title>node_95</title>
<polygon fill="none" stroke="#000000" points="1332.6537,-556 1242.1628,-556 1242.1628,-520 1332.6537,-520 1332.6537,-556"/>
<text text-anchor="middle" x="1287.4082" y="-533.8" font-family="Times,serif" font-size="14.00" fill="#000000">load service1</text>
</g>
<!-- node_100&#45;&gt;node_95 -->
<g id="edge29" class="edge">
<title>node_100&#45;&gt;node_95</title>
<path fill="none" stroke="#000000" d="M1307.595,-591.8314C1304.6438,-583.9617 1301.1224,-574.5712 1297.8532,-565.8533"/>
<polygon fill="#000000" stroke="#000000" points="1301.1016,-564.5476 1294.3132,-556.4133 1294.5473,-567.0055 1301.1016,-564.5476"/>
</g>
<!-- node_101 -->
<g id="node30" class="node">
<title>node_101</title>
<polygon fill="none" stroke="#000000" points="973.4082,-700 909.7104,-682 973.4082,-664 1037.106,-682 973.4082,-700"/>
<text text-anchor="middle" x="973.4082" y="-677.8" font-family="Times,serif" font-size="14.00" fill="#000000">executor1</text>
</g>
<!-- node_90&#45;&gt;node_88 -->
<g id="edge42" class="edge">
<title>node_90&#45;&gt;node_88</title>
<path fill="none" stroke="#000000" stroke-dasharray="1,5" d="M1343.236,-393.6325C1642.5766,-392.005 2668.0554,-383.8438 2810.4082,-348 2814.3157,-347.0161 2818.2691,-345.7068 2822.159,-344.1975"/>
<polygon fill="#000000" stroke="#000000" points="2823.8423,-347.283 2831.6353,-340.1052 2821.0671,-340.8566 2823.8423,-347.283"/>
</g>
<!-- node_94 -->
<g id="node35" class="node">
<title>node_94</title>
<polygon fill="none" stroke="#000000" points="1363.5567,-340 1157.2597,-340 1157.2597,-304 1363.5567,-304 1363.5567,-340"/>
<text text-anchor="middle" x="1260.4082" y="-317.8" font-family="Times,serif" font-size="14.00" fill="#000000">FinishNode &amp;finished&amp;executor1</text>
</g>
<!-- node_90&#45;&gt;node_94 -->
<g id="edge24" class="edge">
<title>node_90&#45;&gt;node_94</title>
<path fill="none" stroke="#000000" d="M1261.1559,-375.8314C1261.0489,-368.131 1260.9217,-358.9743 1260.8029,-350.4166"/>
<polygon fill="#000000" stroke="#000000" points="1264.3026,-350.3637 1260.6639,-340.4133 1257.3033,-350.4609 1264.3026,-350.3637"/>
</g>
<!-- node_91 -->
<g id="node32" class="node">
<title>node_91</title>
<polygon fill="none" stroke="#000000" points="857.0938,-628 351.7226,-628 351.7226,-592 857.0938,-592 857.0938,-628"/>
<text text-anchor="middle" x="604.4082" y="-605.8" font-family="Times,serif" font-size="14.00" fill="#000000">datasetService1 = de.upb.sede.services.mls.DataSetService::__construct([weather.arff])</text>
</g>
<!-- node_91&#45;&gt;node_97 -->
<g id="edge26" class="edge">
<title>node_91&#45;&gt;node_97</title>
<path fill="none" stroke="#000000" d="M710.3303,-591.9707C771.5388,-581.5522 848.6143,-568.433 911.447,-557.7381"/>
<polygon fill="#000000" stroke="#000000" points="912.1335,-561.1717 921.4044,-556.0432 910.9589,-554.2709 912.1335,-561.1717"/>
</g>
<!-- node_92 -->
<g id="node33" class="node">
<title>node_92</title>
<polygon fill="none" stroke="#000000" points="683.0561,-700 525.7603,-700 525.7603,-664 683.0561,-664 683.0561,-700"/>
<text text-anchor="middle" x="604.4082" y="-677.8" font-family="Times,serif" font-size="14.00" fill="#000000">parse String: weather.arff</text>
</g>
<!-- node_92&#45;&gt;node_91 -->
<g id="edge31" class="edge">
<title>node_92&#45;&gt;node_91</title>
<path fill="none" stroke="#000000" d="M604.4082,-663.8314C604.4082,-656.131 604.4082,-646.9743 604.4082,-638.4166"/>
<polygon fill="#000000" stroke="#000000" points="607.9083,-638.4132 604.4082,-628.4133 600.9083,-638.4133 607.9083,-638.4132"/>
</g>
<!-- node_93&#45;&gt;node_97 -->
<g id="edge25" class="edge">
<title>node_93&#45;&gt;node_97</title>
<path fill="none" stroke="#000000" d="M1004.2308,-591.8314C1007.6191,-583.9617 1011.6623,-574.5712 1015.4158,-565.8533"/>
<polygon fill="#000000" stroke="#000000" points="1018.7403,-566.9822 1019.4803,-556.4133 1012.3109,-564.214 1018.7403,-566.9822"/>
</g>
<!-- node_94&#45;&gt;node_110 -->
<g id="edge33" class="edge">
<title>node_94&#45;&gt;node_110</title>
<path fill="none" stroke="#000000" stroke-dasharray="1,5" d="M1330.2777,-303.9616C1344.1601,-300.8934 1358.6862,-298.0432 1372.4082,-296 1551.611,-269.3163 1601.6877,-290.3181 1785.2077,-268.0564"/>
<polygon fill="#000000" stroke="#000000" points="1785.6948,-271.5229 1795.1883,-266.8194 1784.8337,-264.5761 1785.6948,-271.5229"/>
</g>
<!-- node_95&#45;&gt;node_96 -->
<g id="edge23" class="edge">
<title>node_95&#45;&gt;node_96</title>
<path fill="none" stroke="#000000" d="M1280.8473,-519.8314C1278.0055,-511.9617 1274.6145,-502.5712 1271.4663,-493.8533"/>
<polygon fill="#000000" stroke="#000000" points="1274.7459,-492.63 1268.0574,-484.4133 1268.162,-495.0076 1274.7459,-492.63"/>
</g>
</g>
</svg>
