<?xml version="1.0" encoding="UTF-8" standalone="no"?>
<!DOCTYPE svg PUBLIC "-//W3C//DTD SVG 1.1//EN"
 "http://www.w3.org/Graphics/SVG/1.1/DTD/svg11.dtd">
<!-- Generated by graphviz version 2.40.1 (20161225.0304)
 -->
<!-- Title: %3 Pages: 1 -->
<svg width="1821pt" height="652pt"
 viewBox="0.00 0.00 1821.00 652.00" xmlns="http://www.w3.org/2000/svg" xmlns:xlink="http://www.w3.org/1999/xlink">
<g id="graph0" class="graph" transform="scale(1 1) rotate(0) translate(4 648)">
<title>%3</title>
<polygon fill="#ffffff" stroke="transparent" points="-4,4 -4,-648 1817,-648 1817,4 -4,4"/>
<g id="clust1" class="cluster">
<title>cluster_778846956</title>
<polygon fill="none" stroke="#000000" points="8,-296 8,-636 388,-636 388,-296 8,-296"/>
</g>
<g id="clust2" class="cluster">
<title>cluster_649623887</title>
<polygon fill="none" stroke="#000000" points="972,-8 972,-348 1515,-348 1515,-8 972,-8"/>
</g>
<g id="clust3" class="cluster">
<title>cluster_5500348</title>
<polygon fill="none" stroke="#000000" points="959,-368 959,-564 1805,-564 1805,-368 959,-368"/>
</g>
<!-- node_200 -->
<g id="node1" class="node">
<title>node_200</title>
<polygon fill="none" stroke="#000000" points="271.8457,-556 16.1543,-556 16.1543,-520 271.8457,-520 271.8457,-556"/>
<text text-anchor="middle" x="144" y="-533.8" font-family="Times,serif" font-size="14.00" fill="#000000">cast i1 from dataset to weka.core.Instances</text>
</g>
<!-- node_201 -->
<g id="node2" class="node">
<title>node_201</title>
<polygon fill="none" stroke="#000000" points="379.5342,-484 174.4658,-484 174.4658,-448 379.5342,-448 379.5342,-484"/>
<text text-anchor="middle" x="277" y="-461.8" font-family="Times,serif" font-size="14.00" fill="#000000">data1 = service1::preprocess([i1])</text>
</g>
<!-- node_200&#45;&gt;node_201 -->
<g id="edge1" class="edge">
<title>node_200&#45;&gt;node_201</title>
<path fill="none" stroke="#000000" d="M177.5615,-519.8314C194.8881,-510.4516 216.2058,-498.9112 234.6536,-488.9244"/>
<polygon fill="#000000" stroke="#000000" points="236.3214,-492.0015 243.4492,-484.1628 232.9889,-485.8457 236.3214,-492.0015"/>
</g>
<!-- node_202 -->
<g id="node3" class="node">
<title>node_202</title>
<polygon fill="none" stroke="#000000" points="358.9518,-412 195.0482,-412 195.0482,-376 358.9518,-376 358.9518,-412"/>
<text text-anchor="middle" x="277" y="-389.8" font-family="Times,serif" font-size="14.00" fill="#000000">transmit data1&#45;&gt;executor2</text>
</g>
<!-- node_201&#45;&gt;node_202 -->
<g id="edge2" class="edge">
<title>node_201&#45;&gt;node_202</title>
<path fill="none" stroke="#000000" d="M277,-447.8314C277,-440.131 277,-430.9743 277,-422.4166"/>
<polygon fill="#000000" stroke="#000000" points="280.5001,-422.4132 277,-412.4133 273.5001,-422.4133 280.5001,-422.4132"/>
</g>
<!-- node_205 -->
<g id="node6" class="node">
<title>node_205</title>
<polygon fill="none" stroke="#000000" points="380.1485,-340 173.8515,-340 173.8515,-304 380.1485,-304 380.1485,-340"/>
<text text-anchor="middle" x="277" y="-317.8" font-family="Times,serif" font-size="14.00" fill="#000000">FinishNode &amp;finished&amp;executor1</text>
</g>
<!-- node_202&#45;&gt;node_205 -->
<g id="edge3" class="edge">
<title>node_202&#45;&gt;node_205</title>
<path fill="none" stroke="#000000" d="M277,-375.8314C277,-368.131 277,-358.9743 277,-350.4166"/>
<polygon fill="#000000" stroke="#000000" points="280.5001,-350.4132 277,-340.4133 273.5001,-350.4133 280.5001,-350.4132"/>
</g>
<!-- node_192 -->
<g id="node9" class="node">
<title>node_192</title>
<polygon fill="none" stroke="#000000" points="1257.5636,-340 1172.4364,-340 1172.4364,-304 1257.5636,-304 1257.5636,-340"/>
<text text-anchor="middle" x="1215" y="-317.8" font-family="Times,serif" font-size="14.00" fill="#000000">accept data1</text>
</g>
<!-- node_202&#45;&gt;node_192 -->
<g id="edge32" class="edge">
<title>node_202&#45;&gt;node_192</title>
<path fill="none" stroke="#000000" stroke-dasharray="1,5" d="M359.0523,-390.9617C559.968,-383.3321 1065.7134,-362.9117 1141,-348 1148.0712,-346.5994 1155.3822,-344.6663 1162.5316,-342.4808"/>
<polygon fill="#000000" stroke="#000000" points="1163.7062,-345.7795 1172.1427,-339.3704 1161.5508,-339.1195 1163.7062,-345.7795"/>
</g>
<!-- node_203 -->
<g id="node4" class="node">
<title>node_203</title>
<polygon fill="none" stroke="#000000" points="380.2455,-556 289.7545,-556 289.7545,-520 380.2455,-520 380.2455,-556"/>
<text text-anchor="middle" x="335" y="-533.8" font-family="Times,serif" font-size="14.00" fill="#000000">load service1</text>
</g>
<!-- node_203&#45;&gt;node_201 -->
<g id="edge5" class="edge">
<title>node_203&#45;&gt;node_201</title>
<path fill="none" stroke="#000000" d="M320.3642,-519.8314C313.6839,-511.5386 305.6432,-501.557 298.3096,-492.4533"/>
<polygon fill="#000000" stroke="#000000" points="300.8319,-490.0052 291.8329,-484.4133 295.3806,-494.3965 300.8319,-490.0052"/>
</g>
<!-- node_204 -->
<g id="node5" class="node">
<title>node_204</title>
<polygon fill="none" stroke="#000000" points="379.8868,-628 278.1132,-628 278.1132,-592 379.8868,-592 379.8868,-628"/>
<text text-anchor="middle" x="329" y="-605.8" font-family="Times,serif" font-size="14.00" fill="#000000">accept service1</text>
</g>
<!-- node_204&#45;&gt;node_203 -->
<g id="edge6" class="edge">
<title>node_204&#45;&gt;node_203</title>
<path fill="none" stroke="#000000" d="M330.5141,-591.8314C331.1558,-584.131 331.9188,-574.9743 332.6319,-566.4166"/>
<polygon fill="#000000" stroke="#000000" points="336.1229,-566.6694 333.4656,-556.4133 329.1471,-566.088 336.1229,-566.6694"/>
</g>
<!-- node_212 -->
<g id="node25" class="node">
<title>node_212</title>
<polygon fill="none" stroke="#000000" points="1467.0562,-484 1290.9438,-484 1290.9438,-448 1467.0562,-448 1467.0562,-484"/>
<text text-anchor="middle" x="1379" y="-461.8" font-family="Times,serif" font-size="14.00" fill="#000000">accept &amp;finished&amp;executor1</text>
</g>
<!-- node_205&#45;&gt;node_212 -->
<g id="edge34" class="edge">
<title>node_205&#45;&gt;node_212</title>
<path fill="none" stroke="#000000" stroke-dasharray="1,5" d="M380.3115,-325.9237C515.3994,-331.0458 759.406,-340.2692 968,-348 998.4438,-349.1283 1494.8547,-346.0689 1516,-368 1529.5734,-382.0778 1527.0042,-395.8344 1516,-412 1508.0856,-423.6265 1481.6673,-435.2341 1454.1127,-444.6913"/>
<polygon fill="#000000" stroke="#000000" points="1452.7294,-441.4629 1444.3475,-447.9432 1454.9411,-448.1043 1452.7294,-441.4629"/>
</g>
<!-- node_206 -->
<g id="node7" class="node">
<title>node_206</title>
<polygon fill="none" stroke="#000000" points="252.1349,-628 185.8651,-628 185.8651,-592 252.1349,-592 252.1349,-628"/>
<text text-anchor="middle" x="219" y="-605.8" font-family="Times,serif" font-size="14.00" fill="#000000">accept i1</text>
</g>
<!-- node_206&#45;&gt;node_200 -->
<g id="edge4" class="edge">
<title>node_206&#45;&gt;node_200</title>
<path fill="none" stroke="#000000" d="M200.0743,-591.8314C191.0143,-583.1337 180.0191,-572.5783 170.1735,-563.1265"/>
<polygon fill="#000000" stroke="#000000" points="172.5574,-560.5633 162.9196,-556.1628 167.7096,-565.613 172.5574,-560.5633"/>
</g>
<!-- node_207 -->
<g id="node8" class="node">
<title>node_207</title>
<polygon fill="none" stroke="#000000" points="88,-628 24.3022,-610 88,-592 151.6978,-610 88,-628"/>
<text text-anchor="middle" x="88" y="-605.8" font-family="Times,serif" font-size="14.00" fill="#000000">executor1</text>
</g>
<!-- node_198 -->
<g id="node15" class="node">
<title>node_198</title>
<polygon fill="none" stroke="#000000" points="1398.7736,-268 1123.2264,-268 1123.2264,-232 1398.7736,-232 1398.7736,-268"/>
<text text-anchor="middle" x="1261" y="-245.8" font-family="Times,serif" font-size="14.00" fill="#000000">cast data1 from dataset to weka.core.Instances</text>
</g>
<!-- node_192&#45;&gt;node_198 -->
<g id="edge8" class="edge">
<title>node_192&#45;&gt;node_198</title>
<path fill="none" stroke="#000000" d="M1226.6077,-303.8314C1231.7978,-295.7079 1238.0232,-285.9637 1243.7425,-277.0118"/>
<polygon fill="#000000" stroke="#000000" points="1246.8015,-278.7246 1249.236,-268.4133 1240.9026,-274.9559 1246.8015,-278.7246"/>
</g>
<!-- node_193 -->
<g id="node10" class="node">
<title>node_193</title>
<polygon fill="none" stroke="#000000" points="1455.1123,-196 1170.8877,-196 1170.8877,-160 1455.1123,-160 1455.1123,-196"/>
<text text-anchor="middle" x="1313" y="-173.8" font-family="Times,serif" font-size="14.00" fill="#000000">predictions = service2::predict([FALSE, data1])</text>
</g>
<!-- node_195 -->
<g id="node12" class="node">
<title>node_195</title>
<polygon fill="none" stroke="#000000" points="1491.3686,-124 1316.6314,-124 1316.6314,-88 1491.3686,-88 1491.3686,-124"/>
<text text-anchor="middle" x="1404" y="-101.8" font-family="Times,serif" font-size="14.00" fill="#000000">transmit predictions&#45;&gt;Client</text>
</g>
<!-- node_193&#45;&gt;node_195 -->
<g id="edge7" class="edge">
<title>node_193&#45;&gt;node_195</title>
<path fill="none" stroke="#000000" d="M1335.9631,-159.8314C1347.1715,-150.9632 1360.8209,-140.1637 1372.9439,-130.5718"/>
<polygon fill="#000000" stroke="#000000" points="1375.3737,-133.1125 1381.0442,-124.1628 1371.0303,-127.6229 1375.3737,-133.1125"/>
</g>
<!-- node_194 -->
<g id="node11" class="node">
<title>node_194</title>
<polygon fill="none" stroke="#000000" points="1507.2455,-268 1416.7545,-268 1416.7545,-232 1507.2455,-232 1507.2455,-268"/>
<text text-anchor="middle" x="1462" y="-245.8" font-family="Times,serif" font-size="14.00" fill="#000000">load service2</text>
</g>
<!-- node_194&#45;&gt;node_193 -->
<g id="edge13" class="edge">
<title>node_194&#45;&gt;node_193</title>
<path fill="none" stroke="#000000" d="M1424.401,-231.8314C1404.6503,-222.2874 1380.2703,-210.5065 1359.3583,-200.4013"/>
<polygon fill="#000000" stroke="#000000" points="1360.8553,-197.2376 1350.3286,-196.038 1357.8097,-203.5403 1360.8553,-197.2376"/>
</g>
<!-- node_191 -->
<g id="node17" class="node">
<title>node_191</title>
<polygon fill="none" stroke="#000000" points="1507.1485,-52 1300.8515,-52 1300.8515,-16 1507.1485,-16 1507.1485,-52"/>
<text text-anchor="middle" x="1404" y="-29.8" font-family="Times,serif" font-size="14.00" fill="#000000">FinishNode &amp;finished&amp;executor2</text>
</g>
<!-- node_195&#45;&gt;node_191 -->
<g id="edge10" class="edge">
<title>node_195&#45;&gt;node_191</title>
<path fill="none" stroke="#000000" d="M1404,-87.8314C1404,-80.131 1404,-70.9743 1404,-62.4166"/>
<polygon fill="#000000" stroke="#000000" points="1407.5001,-62.4132 1404,-52.4133 1400.5001,-62.4133 1407.5001,-62.4132"/>
</g>
<!-- node_208 -->
<g id="node21" class="node">
<title>node_208</title>
<polygon fill="none" stroke="#000000" points="1602.953,-484 1485.047,-484 1485.047,-448 1602.953,-448 1602.953,-484"/>
<text text-anchor="middle" x="1544" y="-461.8" font-family="Times,serif" font-size="14.00" fill="#000000">accept predictions</text>
</g>
<!-- node_195&#45;&gt;node_208 -->
<g id="edge38" class="edge">
<title>node_195&#45;&gt;node_208</title>
<path fill="none" stroke="#000000" stroke-dasharray="1,5" d="M1454.248,-124.13C1504.0646,-145.7175 1573,-186.9761 1573,-250 1573,-322 1573,-322 1573,-322 1573,-362.8828 1561.6276,-409.0322 1553.126,-437.8198"/>
<polygon fill="#000000" stroke="#000000" points="1549.7133,-437.0126 1550.1502,-447.5984 1556.41,-439.0506 1549.7133,-437.0126"/>
</g>
<!-- node_196 -->
<g id="node13" class="node">
<title>node_196</title>
<polygon fill="none" stroke="#000000" points="1486.8868,-340 1385.1132,-340 1385.1132,-304 1486.8868,-304 1486.8868,-340"/>
<text text-anchor="middle" x="1436" y="-317.8" font-family="Times,serif" font-size="14.00" fill="#000000">accept service2</text>
</g>
<!-- node_196&#45;&gt;node_194 -->
<g id="edge12" class="edge">
<title>node_196&#45;&gt;node_194</title>
<path fill="none" stroke="#000000" d="M1442.5609,-303.8314C1445.4027,-295.9617 1448.7937,-286.5712 1451.9419,-277.8533"/>
<polygon fill="#000000" stroke="#000000" points="1455.2462,-279.0076 1455.3508,-268.4133 1448.6623,-276.63 1455.2462,-279.0076"/>
</g>
<!-- node_197 -->
<g id="node14" class="node">
<title>node_197</title>
<polygon fill="none" stroke="#000000" points="1105.9098,-268 980.0902,-268 980.0902,-232 1105.9098,-232 1105.9098,-268"/>
<text text-anchor="middle" x="1043" y="-245.8" font-family="Times,serif" font-size="14.00" fill="#000000">parse Bool: FALSE</text>
</g>
<!-- node_197&#45;&gt;node_193 -->
<g id="edge11" class="edge">
<title>node_197&#45;&gt;node_193</title>
<path fill="none" stroke="#000000" d="M1105.9622,-233.2101C1144.6241,-222.9002 1194.4337,-209.6177 1235.508,-198.6645"/>
<polygon fill="#000000" stroke="#000000" points="1236.4474,-202.0364 1245.2079,-196.0779 1234.6437,-195.2728 1236.4474,-202.0364"/>
</g>
<!-- node_198&#45;&gt;node_193 -->
<g id="edge9" class="edge">
<title>node_198&#45;&gt;node_193</title>
<path fill="none" stroke="#000000" d="M1274.1218,-231.8314C1280.0499,-223.6232 1287.1729,-213.7606 1293.6933,-204.7323"/>
<polygon fill="#000000" stroke="#000000" points="1296.684,-206.5693 1299.7015,-196.4133 1291.0092,-202.4708 1296.684,-206.5693"/>
</g>
<!-- node_199 -->
<g id="node16" class="node">
<title>node_199</title>
<polygon fill="none" stroke="#000000" points="1068,-340 1004.3022,-322 1068,-304 1131.6978,-322 1068,-340"/>
<text text-anchor="middle" x="1068" y="-317.8" font-family="Times,serif" font-size="14.00" fill="#000000">executor2</text>
</g>
<!-- node_211 -->
<g id="node24" class="node">
<title>node_211</title>
<polygon fill="none" stroke="#000000" points="1797.0562,-484 1620.9438,-484 1620.9438,-448 1797.0562,-448 1797.0562,-484"/>
<text text-anchor="middle" x="1709" y="-461.8" font-family="Times,serif" font-size="14.00" fill="#000000">accept &amp;finished&amp;executor2</text>
</g>
<!-- node_191&#45;&gt;node_211 -->
<g id="edge31" class="edge">
<title>node_191&#45;&gt;node_211</title>
<path fill="none" stroke="#000000" stroke-dasharray="1,5" d="M1507.3871,-50.2207C1578.4365,-67.9338 1660,-104.3148 1660,-178 1660,-322 1660,-322 1660,-322 1660,-364.469 1679.3374,-410.4078 1693.7165,-438.697"/>
<polygon fill="#000000" stroke="#000000" points="1690.6295,-440.3468 1698.3677,-447.5836 1696.8314,-437.1007 1690.6295,-440.3468"/>
</g>
<!-- node_220 -->
<g id="node18" class="node">
<title>node_220</title>
<polygon fill="none" stroke="#000000" points="951.3029,-556 792.6971,-556 792.6971,-520 951.3029,-520 951.3029,-556"/>
<text text-anchor="middle" x="872" y="-533.8" font-family="Times,serif" font-size="14.00" fill="#000000">transmit service2&#45;&gt;Client</text>
</g>
<!-- node_213 -->
<g id="node26" class="node">
<title>node_213</title>
<polygon fill="none" stroke="#000000" points="1272.8868,-484 1171.1132,-484 1171.1132,-448 1272.8868,-448 1272.8868,-484"/>
<text text-anchor="middle" x="1222" y="-461.8" font-family="Times,serif" font-size="14.00" fill="#000000">accept service2</text>
</g>
<!-- node_220&#45;&gt;node_213 -->
<g id="edge35" class="edge">
<title>node_220&#45;&gt;node_213</title>
<path fill="none" stroke="#000000" stroke-dasharray="1,5" d="M951.5025,-520.6882C952.6759,-520.4557 953.8423,-520.2261 955,-520 1043.5168,-502.7124 1069.366,-505.2501 1161.0606,-484.0754"/>
<polygon fill="#000000" stroke="#000000" points="1162.1102,-487.4243 1171.0487,-481.7363 1160.514,-480.6087 1162.1102,-487.4243"/>
</g>
<!-- node_221 -->
<g id="node19" class="node">
<title>node_221</title>
<polygon fill="none" stroke="#000000" points="597.5508,-556 474.4492,-556 474.4492,-520 597.5508,-520 597.5508,-556"/>
<text text-anchor="middle" x="536" y="-533.8" font-family="Times,serif" font-size="14.00" fill="#000000">transmit i1&#45;&gt;Client</text>
</g>
<!-- node_214 -->
<g id="node27" class="node">
<title>node_214</title>
<polygon fill="none" stroke="#000000" points="1033.1349,-484 966.8651,-484 966.8651,-448 1033.1349,-448 1033.1349,-484"/>
<text text-anchor="middle" x="1000" y="-461.8" font-family="Times,serif" font-size="14.00" fill="#000000">accept i1</text>
</g>
<!-- node_221&#45;&gt;node_214 -->
<g id="edge36" class="edge">
<title>node_221&#45;&gt;node_214</title>
<path fill="none" stroke="#000000" stroke-dasharray="1,5" d="M597.8642,-521.8829C600.9465,-521.216 604.0044,-520.5836 607,-520 733.1227,-495.4275 884.1524,-477.9896 956.7934,-470.3388"/>
<polygon fill="#000000" stroke="#000000" points="957.3471,-473.8001 966.9299,-469.2813 956.6207,-466.8379 957.3471,-473.8001"/>
</g>
<!-- node_222 -->
<g id="node20" class="node">
<title>node_222</title>
<polygon fill="none" stroke="#000000" points="774.3029,-556 615.6971,-556 615.6971,-520 774.3029,-520 774.3029,-556"/>
<text text-anchor="middle" x="695" y="-533.8" font-family="Times,serif" font-size="14.00" fill="#000000">transmit service1&#45;&gt;Client</text>
</g>
<!-- node_217 -->
<g id="node30" class="node">
<title>node_217</title>
<polygon fill="none" stroke="#000000" points="1152.8868,-484 1051.1132,-484 1051.1132,-448 1152.8868,-448 1152.8868,-484"/>
<text text-anchor="middle" x="1102" y="-461.8" font-family="Times,serif" font-size="14.00" fill="#000000">accept service1</text>
</g>
<!-- node_222&#45;&gt;node_217 -->
<g id="edge37" class="edge">
<title>node_222&#45;&gt;node_217</title>
<path fill="none" stroke="#000000" stroke-dasharray="1,5" d="M774.5315,-521.6652C777.7266,-521.0882 780.8921,-520.5306 784,-520 895.0056,-501.0482 927.1446,-508.2791 1041.254,-483.9801"/>
<polygon fill="#000000" stroke="#000000" points="1042.0421,-487.3907 1051.0756,-481.8548 1040.5616,-480.5491 1042.0421,-487.3907"/>
</g>
<!-- node_209 -->
<g id="node22" class="node">
<title>node_209</title>
<polygon fill="none" stroke="#000000" points="1401.5381,-556 1324.4619,-556 1324.4619,-520 1401.5381,-520 1401.5381,-556"/>
<text text-anchor="middle" x="1363" y="-533.8" font-family="Times,serif" font-size="14.00" fill="#000000">send graph</text>
</g>
<!-- node_209&#45;&gt;node_208 -->
<g id="edge28" class="edge">
<title>node_209&#45;&gt;node_208</title>
<path fill="none" stroke="#000000" d="M1401.829,-522.5542C1427.3067,-512.4194 1461.0008,-499.0162 1489.1924,-487.8019"/>
<polygon fill="#000000" stroke="#000000" points="1490.5241,-491.039 1498.5223,-484.0906 1487.9368,-484.5347 1490.5241,-491.039"/>
</g>
<!-- node_209&#45;&gt;node_211 -->
<g id="edge17" class="edge">
<title>node_209&#45;&gt;node_211</title>
<path fill="none" stroke="#000000" d="M1401.6835,-529.9503C1452.2745,-519.4226 1542.6591,-500.6143 1612.3577,-486.1105"/>
<polygon fill="#000000" stroke="#000000" points="1613.4066,-489.4673 1622.4838,-484.0034 1611.9804,-482.6141 1613.4066,-489.4673"/>
</g>
<!-- node_209&#45;&gt;node_212 -->
<g id="edge18" class="edge">
<title>node_209&#45;&gt;node_212</title>
<path fill="none" stroke="#000000" d="M1367.0375,-519.8314C1368.7487,-512.131 1370.7835,-502.9743 1372.6852,-494.4166"/>
<polygon fill="#000000" stroke="#000000" points="1376.1554,-494.9344 1374.9082,-484.4133 1369.3221,-493.4159 1376.1554,-494.9344"/>
</g>
<!-- node_209&#45;&gt;node_213 -->
<g id="edge19" class="edge">
<title>node_209&#45;&gt;node_213</title>
<path fill="none" stroke="#000000" d="M1327.4197,-519.8314C1308.9675,-510.4089 1286.2455,-498.8062 1266.627,-488.7883"/>
<polygon fill="#000000" stroke="#000000" points="1268.0667,-485.5935 1257.5689,-484.1628 1264.8832,-491.8278 1268.0667,-485.5935"/>
</g>
<!-- node_209&#45;&gt;node_214 -->
<g id="edge20" class="edge">
<title>node_209&#45;&gt;node_214</title>
<path fill="none" stroke="#000000" d="M1324.2471,-528.4152C1311.7622,-525.4997 1297.8361,-522.4279 1285,-520 1180.8663,-500.3034 1148.9103,-512.9574 1042.9855,-483.8889"/>
<polygon fill="#000000" stroke="#000000" points="1043.7622,-480.4717 1033.1885,-481.1409 1041.8716,-487.2116 1043.7622,-480.4717"/>
</g>
<!-- node_209&#45;&gt;node_217 -->
<g id="edge21" class="edge">
<title>node_209&#45;&gt;node_217</title>
<path fill="none" stroke="#000000" d="M1324.3755,-527.9787C1285.8983,-517.9167 1224.8965,-501.7525 1162.9761,-484.2411"/>
<polygon fill="#000000" stroke="#000000" points="1163.6093,-480.7826 1153.0336,-481.4198 1161.6983,-487.5168 1163.6093,-480.7826"/>
</g>
<!-- node_210 -->
<g id="node23" class="node">
<title>node_210</title>
<polygon fill="none" stroke="#000000" points="1506.7755,-412 1327.2245,-412 1327.2245,-376 1506.7755,-376 1506.7755,-412"/>
<text text-anchor="middle" x="1417" y="-389.8" font-family="Times,serif" font-size="14.00" fill="#000000">transmit service2&#45;&gt;executor2</text>
</g>
<!-- node_210&#45;&gt;node_196 -->
<g id="edge29" class="edge">
<title>node_210&#45;&gt;node_196</title>
<path fill="none" stroke="#000000" stroke-dasharray="1,5" d="M1421.7945,-375.8314C1423.8489,-368.0463 1426.296,-358.7729 1428.5756,-350.1347"/>
<polygon fill="#000000" stroke="#000000" points="1431.9735,-350.9753 1431.1409,-340.4133 1425.2052,-349.1892 1431.9735,-350.9753"/>
</g>
<!-- node_213&#45;&gt;node_210 -->
<g id="edge25" class="edge">
<title>node_213&#45;&gt;node_210</title>
<path fill="none" stroke="#000000" d="M1270.955,-447.9243C1297.4968,-438.1243 1330.4823,-425.945 1358.3858,-415.6422"/>
<polygon fill="#000000" stroke="#000000" points="1359.8562,-418.8303 1368.0248,-412.0831 1357.4315,-412.2636 1359.8562,-418.8303"/>
</g>
<!-- node_215 -->
<g id="node28" class="node">
<title>node_215</title>
<polygon fill="none" stroke="#000000" points="1111.0234,-412 966.9766,-412 966.9766,-376 1111.0234,-376 1111.0234,-412"/>
<text text-anchor="middle" x="1039" y="-389.8" font-family="Times,serif" font-size="14.00" fill="#000000">transmit i1&#45;&gt;executor1</text>
</g>
<!-- node_214&#45;&gt;node_215 -->
<g id="edge14" class="edge">
<title>node_214&#45;&gt;node_215</title>
<path fill="none" stroke="#000000" d="M1009.8413,-447.8314C1014.1957,-439.7925 1019.4098,-430.1666 1024.2169,-421.2918"/>
<polygon fill="#000000" stroke="#000000" points="1027.3408,-422.8732 1029.0261,-412.4133 1021.1857,-419.5392 1027.3408,-422.8732"/>
</g>
<!-- node_215&#45;&gt;node_206 -->
<g id="edge33" class="edge">
<title>node_215&#45;&gt;node_206</title>
<path fill="none" stroke="#000000" stroke-dasharray="1,5" d="M966.9164,-396.1354C815.2596,-401.2364 473.6978,-416.1516 432,-448 388.304,-481.3746 430.2455,-527.6405 389,-564 347.9178,-600.2155 321.5198,-576.4764 269,-592 266.6001,-592.7094 264.1474,-593.4705 261.6801,-594.2644"/>
<polygon fill="#000000" stroke="#000000" points="260.5423,-590.9543 252.1717,-597.4493 262.7656,-597.5919 260.5423,-590.9543"/>
</g>
<!-- node_216 -->
<g id="node29" class="node">
<title>node_216</title>
<polygon fill="none" stroke="#000000" points="1275.5381,-556 1198.4619,-556 1198.4619,-520 1275.5381,-520 1275.5381,-556"/>
<text text-anchor="middle" x="1237" y="-533.8" font-family="Times,serif" font-size="14.00" fill="#000000">send graph</text>
</g>
<!-- node_216&#45;&gt;node_208 -->
<g id="edge22" class="edge">
<title>node_216&#45;&gt;node_208</title>
<path fill="none" stroke="#000000" d="M1275.8694,-528.9753C1288.3606,-526.0897 1302.2609,-522.8941 1315,-520 1383.4283,-504.4542 1403.1,-501.614 1475.0476,-484.1882"/>
<polygon fill="#000000" stroke="#000000" points="1476.1751,-487.516 1485.0638,-481.7504 1474.5197,-480.7146 1476.1751,-487.516"/>
</g>
<!-- node_216&#45;&gt;node_211 -->
<g id="edge23" class="edge">
<title>node_216&#45;&gt;node_211</title>
<path fill="none" stroke="#000000" d="M1275.7156,-528.211C1288.1986,-525.2846 1302.1329,-522.2579 1315,-520 1442.7676,-497.5793 1478.8209,-503.8101 1610.6706,-484.1451"/>
<polygon fill="#000000" stroke="#000000" points="1611.3885,-487.5764 1620.7521,-482.6192 1610.341,-480.6552 1611.3885,-487.5764"/>
</g>
<!-- node_216&#45;&gt;node_212 -->
<g id="edge24" class="edge">
<title>node_216&#45;&gt;node_212</title>
<path fill="none" stroke="#000000" d="M1272.8326,-519.8314C1291.4157,-510.4089 1314.2989,-498.8062 1334.0565,-488.7883"/>
<polygon fill="#000000" stroke="#000000" points="1335.8427,-491.8069 1343.1789,-484.1628 1332.677,-485.5635 1335.8427,-491.8069"/>
</g>
<!-- node_216&#45;&gt;node_213 -->
<g id="edge26" class="edge">
<title>node_216&#45;&gt;node_213</title>
<path fill="none" stroke="#000000" d="M1233.2149,-519.8314C1231.6106,-512.131 1229.703,-502.9743 1227.9201,-494.4166"/>
<polygon fill="#000000" stroke="#000000" points="1231.3021,-493.4892 1225.8361,-484.4133 1224.4493,-494.9169 1231.3021,-493.4892"/>
</g>
<!-- node_216&#45;&gt;node_214 -->
<g id="edge27" class="edge">
<title>node_216&#45;&gt;node_214</title>
<path fill="none" stroke="#000000" d="M1198.4167,-528.9475C1160.7493,-519.7505 1101.7403,-504.3899 1042.771,-484.0613"/>
<polygon fill="#000000" stroke="#000000" points="1043.9052,-480.7501 1033.3104,-480.7562 1041.5965,-487.3585 1043.9052,-480.7501"/>
</g>
<!-- node_216&#45;&gt;node_217 -->
<g id="edge15" class="edge">
<title>node_216&#45;&gt;node_217</title>
<path fill="none" stroke="#000000" d="M1202.9338,-519.8314C1185.3467,-510.4516 1163.7084,-498.9112 1144.9832,-488.9244"/>
<polygon fill="#000000" stroke="#000000" points="1146.5259,-485.7805 1136.0553,-484.1628 1143.2318,-491.957 1146.5259,-485.7805"/>
</g>
<!-- node_218 -->
<g id="node31" class="node">
<title>node_218</title>
<polygon fill="none" stroke="#000000" points="1308.7755,-412 1129.2245,-412 1129.2245,-376 1308.7755,-376 1308.7755,-412"/>
<text text-anchor="middle" x="1219" y="-389.8" font-family="Times,serif" font-size="14.00" fill="#000000">transmit service1&#45;&gt;executor1</text>
</g>
<!-- node_217&#45;&gt;node_218 -->
<g id="edge16" class="edge">
<title>node_217&#45;&gt;node_218</title>
<path fill="none" stroke="#000000" d="M1131.524,-447.8314C1146.4891,-438.6221 1164.8386,-427.3301 1180.8603,-417.4706"/>
<polygon fill="#000000" stroke="#000000" points="1182.8032,-420.3847 1189.4854,-412.1628 1179.1345,-414.423 1182.8032,-420.3847"/>
</g>
<!-- node_218&#45;&gt;node_204 -->
<g id="edge30" class="edge">
<title>node_218&#45;&gt;node_204</title>
<path fill="none" stroke="#000000" stroke-dasharray="1,5" d="M1129.168,-410.3996C1126.0752,-410.943 1123.0122,-411.4779 1120,-412 829.2932,-462.391 732.2365,-394.9628 465,-520 437.8847,-532.687 438.6408,-546.9992 414,-564 401.9973,-572.2812 388.3481,-580.2411 375.5535,-587.1435"/>
<polygon fill="#000000" stroke="#000000" points="373.6273,-584.2028 366.4239,-591.9721 376.9,-590.3907 373.6273,-584.2028"/>
</g>
<!-- node_219 -->
<g id="node32" class="node">
<title>node_219</title>
<polygon fill="none" stroke="#000000" points="1083,-556 1038.2728,-538 1083,-520 1127.7272,-538 1083,-556"/>
<text text-anchor="middle" x="1083" y="-533.8" font-family="Times,serif" font-size="14.00" fill="#000000">Client</text>
</g>
</g>
</svg>
