<?xml version="1.0" encoding="UTF-8" standalone="no"?>
<!DOCTYPE svg PUBLIC "-//W3C//DTD SVG 1.1//EN"
 "http://www.w3.org/Graphics/SVG/1.1/DTD/svg11.dtd">
<!-- Generated by graphviz version 2.40.1 (20161225.0304)
 -->
<!-- Title: %3 Pages: 1 -->
<svg width="3470pt" height="724pt"
 viewBox="0.00 0.00 3469.65 724.00" xmlns="http://www.w3.org/2000/svg" xmlns:xlink="http://www.w3.org/1999/xlink">
<g id="graph0" class="graph" transform="scale(1 1) rotate(0) translate(4 720)">
<title>%3</title>
<polygon fill="#ffffff" stroke="transparent" points="-4,4 -4,-720 3465.6481,-720 3465.6481,4 -4,4"/>
<g id="clust1" class="cluster">
<title>cluster_1514593101</title>
<polygon fill="none" stroke="#000000" points="894,-296 894,-492 2238,-492 2238,-296 894,-296"/>
</g>
<g id="clust2" class="cluster">
<title>cluster_1987238111</title>
<polygon fill="none" stroke="#000000" points="2464,-368 2464,-708 3440,-708 3440,-368 2464,-368"/>
</g>
<g id="clust3" class="cluster">
<title>cluster_685307750</title>
<polygon fill="none" stroke="#000000" points="58,-8 58,-348 886,-348 886,-8 58,-8"/>
</g>
<!-- node_37 -->
<g id="node1" class="node">
<title>node_37</title>
<polygon fill="none" stroke="#000000" points="2456.127,-484 2245.873,-484 2245.873,-448 2456.127,-448 2456.127,-484"/>
<text text-anchor="middle" x="2351" y="-461.8" font-family="Times,serif" font-size="14.00" fill="#000000">transmit searcherOptions1&#45;&gt;Client</text>
</g>
<!-- node_30 -->
<g id="node21" class="node">
<title>node_30</title>
<polygon fill="none" stroke="#000000" points="2109.7111,-412 1956.2889,-412 1956.2889,-376 2109.7111,-376 2109.7111,-412"/>
<text text-anchor="middle" x="2033" y="-389.8" font-family="Times,serif" font-size="14.00" fill="#000000">accept searcherOptions1</text>
</g>
<!-- node_37&#45;&gt;node_30 -->
<g id="edge53" class="edge">
<title>node_37&#45;&gt;node_30</title>
<path fill="none" stroke="#000000" stroke-dasharray="1,5" d="M2271.1656,-447.9243C2225.0474,-437.4824 2166.9993,-424.3395 2119.7574,-413.6432"/>
<polygon fill="#000000" stroke="#000000" points="2120.3747,-410.1944 2109.8486,-411.3997 2118.8288,-417.0216 2120.3747,-410.1944"/>
</g>
<!-- node_38 -->
<g id="node2" class="node">
<title>node_38</title>
<polygon fill="none" stroke="#000000" points="273.4793,-484 130.5207,-484 130.5207,-448 273.4793,-448 273.4793,-484"/>
<text text-anchor="middle" x="202" y="-461.8" font-family="Times,serif" font-size="14.00" fill="#000000">transmit eval1&#45;&gt;Client</text>
</g>
<!-- node_34 -->
<g id="node8" class="node">
<title>node_34</title>
<polygon fill="none" stroke="#000000" points="987.5636,-412 902.4364,-412 902.4364,-376 987.5636,-376 987.5636,-412"/>
<text text-anchor="middle" x="945" y="-389.8" font-family="Times,serif" font-size="14.00" fill="#000000">accept eval1</text>
</g>
<!-- node_38&#45;&gt;node_34 -->
<g id="edge55" class="edge">
<title>node_38&#45;&gt;node_34</title>
<path fill="none" stroke="#000000" stroke-dasharray="1,5" d="M273.4537,-449.5633C276.6732,-448.9989 279.8664,-448.4737 283,-448 508.0003,-413.9877 779.4884,-400.3247 892.0937,-395.849"/>
<polygon fill="#000000" stroke="#000000" points="892.3129,-399.3433 902.169,-395.4564 892.0402,-392.3486 892.3129,-399.3433"/>
</g>
<!-- node_39 -->
<g id="node3" class="node">
<title>node_39</title>
<polygon fill="none" stroke="#000000" points="478.3165,-484 291.6835,-484 291.6835,-448 478.3165,-448 478.3165,-484"/>
<text text-anchor="middle" x="385" y="-461.8" font-family="Times,serif" font-size="14.00" fill="#000000">transmit evalOptions1&#45;&gt;Client</text>
</g>
<!-- node_26 -->
<g id="node17" class="node">
<title>node_26</title>
<polygon fill="none" stroke="#000000" points="1135.9004,-412 1006.0996,-412 1006.0996,-376 1135.9004,-376 1135.9004,-412"/>
<text text-anchor="middle" x="1071" y="-389.8" font-family="Times,serif" font-size="14.00" fill="#000000">accept evalOptions1</text>
</g>
<!-- node_39&#45;&gt;node_26 -->
<g id="edge50" class="edge">
<title>node_39&#45;&gt;node_26</title>
<path fill="none" stroke="#000000" stroke-dasharray="1,5" d="M478.3253,-449.1297C481.2474,-448.7299 484.1445,-448.3518 487,-448 709.2223,-420.6246 770.6855,-446.2044 995.609,-412.0643"/>
<polygon fill="#000000" stroke="#000000" points="996.3994,-415.4839 1005.7497,-410.5018 995.3333,-408.5656 996.3994,-415.4839"/>
</g>
<!-- node_40 -->
<g id="node4" class="node">
<title>node_40</title>
<polygon fill="none" stroke="#000000" points="661.7892,-484 496.2108,-484 496.2108,-448 661.7892,-448 661.7892,-484"/>
<text text-anchor="middle" x="579" y="-461.8" font-family="Times,serif" font-size="14.00" fill="#000000">transmit searcher1&#45;&gt;Client</text>
</g>
<!-- node_25 -->
<g id="node16" class="node">
<title>node_25</title>
<polygon fill="none" stroke="#000000" points="1262.3731,-412 1153.6269,-412 1153.6269,-376 1262.3731,-376 1262.3731,-412"/>
<text text-anchor="middle" x="1208" y="-389.8" font-family="Times,serif" font-size="14.00" fill="#000000">accept searcher1</text>
</g>
<!-- node_40&#45;&gt;node_25 -->
<g id="edge46" class="edge">
<title>node_40&#45;&gt;node_25</title>
<path fill="none" stroke="#000000" stroke-dasharray="1,5" d="M662.172,-449.2731C665.1473,-448.8195 668.097,-448.3929 671,-448 877.0937,-420.1104 935.2214,-448.3021 1143.4907,-412.0696"/>
<polygon fill="#000000" stroke="#000000" points="1144.2855,-415.4834 1153.523,-410.2951 1143.0662,-408.5904 1144.2855,-415.4834"/>
</g>
<!-- node_41 -->
<g id="node5" class="node">
<title>node_41</title>
<polygon fill="none" stroke="#000000" points="886.2648,-484 679.7352,-484 679.7352,-448 886.2648,-448 886.2648,-484"/>
<text text-anchor="middle" x="783" y="-461.8" font-family="Times,serif" font-size="14.00" fill="#000000">transmit classifierOptions&#45;&gt;Client</text>
</g>
<!-- node_27 -->
<g id="node18" class="node">
<title>node_27</title>
<polygon fill="none" stroke="#000000" points="1429.849,-412 1280.151,-412 1280.151,-376 1429.849,-376 1429.849,-412"/>
<text text-anchor="middle" x="1355" y="-389.8" font-family="Times,serif" font-size="14.00" fill="#000000">accept classifierOptions</text>
</g>
<!-- node_41&#45;&gt;node_27 -->
<g id="edge48" class="edge">
<title>node_41&#45;&gt;node_27</title>
<path fill="none" stroke="#000000" stroke-dasharray="1,5" d="M886.3371,-448.488C887.5646,-448.322 888.786,-448.1593 890,-448 1055.4313,-426.2986 1101.16,-437.4192 1270.0007,-412.0504"/>
<polygon fill="#000000" stroke="#000000" points="1270.6157,-415.4971 1279.9746,-410.5312 1269.5615,-408.577 1270.6157,-415.4971"/>
</g>
<!-- node_32 -->
<g id="node6" class="node">
<title>node_32</title>
<polygon fill="none" stroke="#000000" points="1461.5381,-484 1384.4619,-484 1384.4619,-448 1461.5381,-448 1461.5381,-484"/>
<text text-anchor="middle" x="1423" y="-461.8" font-family="Times,serif" font-size="14.00" fill="#000000">send graph</text>
</g>
<!-- node_32&#45;&gt;node_34 -->
<g id="edge3" class="edge">
<title>node_32&#45;&gt;node_34</title>
<path fill="none" stroke="#000000" d="M1384.3409,-463.7879C1310.6639,-458.9967 1145.1226,-445.4663 997.7694,-411.8922"/>
<polygon fill="#000000" stroke="#000000" points="998.1743,-408.3934 987.6424,-409.546 996.5944,-415.2128 998.1743,-408.3934"/>
</g>
<!-- node_20 -->
<g id="node11" class="node">
<title>node_20</title>
<polygon fill="none" stroke="#000000" points="1624.0562,-412 1447.9438,-412 1447.9438,-376 1624.0562,-376 1624.0562,-412"/>
<text text-anchor="middle" x="1536" y="-389.8" font-family="Times,serif" font-size="14.00" fill="#000000">accept &amp;finished&amp;executor1</text>
</g>
<!-- node_32&#45;&gt;node_20 -->
<g id="edge8" class="edge">
<title>node_32&#45;&gt;node_20</title>
<path fill="none" stroke="#000000" d="M1451.5147,-447.8314C1465.8342,-438.7074 1483.3624,-427.539 1498.7338,-417.7449"/>
<polygon fill="#000000" stroke="#000000" points="1500.9417,-420.4882 1507.4945,-412.1628 1497.1801,-414.5847 1500.9417,-420.4882"/>
</g>
<!-- node_23 -->
<g id="node14" class="node">
<title>node_23</title>
<polygon fill="none" stroke="#000000" points="2229.8868,-412 2128.1132,-412 2128.1132,-376 2229.8868,-376 2229.8868,-412"/>
<text text-anchor="middle" x="2179" y="-389.8" font-family="Times,serif" font-size="14.00" fill="#000000">accept service2</text>
</g>
<!-- node_32&#45;&gt;node_23 -->
<g id="edge10" class="edge">
<title>node_32&#45;&gt;node_23</title>
<path fill="none" stroke="#000000" d="M1461.7002,-450.1158C1464.4806,-449.304 1467.2657,-448.5845 1470,-448 1749.1957,-388.3222 1832.4981,-460.131 2117.5776,-411.9887"/>
<polygon fill="#000000" stroke="#000000" points="2118.5448,-415.3737 2127.8046,-410.2252 2117.3552,-408.4755 2118.5448,-415.3737"/>
</g>
<!-- node_32&#45;&gt;node_25 -->
<g id="edge11" class="edge">
<title>node_32&#45;&gt;node_25</title>
<path fill="none" stroke="#000000" d="M1384.0651,-452.9613C1352.7396,-442.4709 1308.0827,-427.5161 1271.5829,-415.2929"/>
<polygon fill="#000000" stroke="#000000" points="1272.6024,-411.9433 1262.0086,-412.0866 1270.3795,-418.581 1272.6024,-411.9433"/>
</g>
<!-- node_32&#45;&gt;node_26 -->
<g id="edge13" class="edge">
<title>node_32&#45;&gt;node_26</title>
<path fill="none" stroke="#000000" d="M1384.2057,-459.0564C1332.2594,-449.6289 1237.0143,-431.8898 1145.8762,-412.1425"/>
<polygon fill="#000000" stroke="#000000" points="1146.4482,-408.6851 1135.9323,-409.9762 1144.9581,-415.5246 1146.4482,-408.6851"/>
</g>
<!-- node_32&#45;&gt;node_27 -->
<g id="edge14" class="edge">
<title>node_32&#45;&gt;node_27</title>
<path fill="none" stroke="#000000" d="M1405.8407,-447.8314C1397.8489,-439.3694 1388.1962,-429.1489 1379.4584,-419.8971"/>
<polygon fill="#000000" stroke="#000000" points="1381.8011,-417.2802 1372.3903,-412.4133 1376.712,-422.0866 1381.8011,-417.2802"/>
</g>
<!-- node_28 -->
<g id="node19" class="node">
<title>node_28</title>
<polygon fill="none" stroke="#000000" points="1743.8868,-412 1642.1132,-412 1642.1132,-376 1743.8868,-376 1743.8868,-412"/>
<text text-anchor="middle" x="1693" y="-389.8" font-family="Times,serif" font-size="14.00" fill="#000000">accept service1</text>
</g>
<!-- node_32&#45;&gt;node_28 -->
<g id="edge17" class="edge">
<title>node_32&#45;&gt;node_28</title>
<path fill="none" stroke="#000000" d="M1461.5715,-450.7069C1464.4075,-449.7431 1467.2383,-448.8288 1470,-448 1538.0059,-427.5907 1559.3731,-430.3752 1631.9194,-412.1616"/>
<polygon fill="#000000" stroke="#000000" points="1633.1904,-415.4492 1642.0093,-409.5774 1631.4535,-408.668 1633.1904,-415.4492"/>
</g>
<!-- node_32&#45;&gt;node_30 -->
<g id="edge20" class="edge">
<title>node_32&#45;&gt;node_30</title>
<path fill="none" stroke="#000000" d="M1461.7138,-450.1783C1464.491,-449.3516 1467.2717,-448.6116 1470,-448 1674.2122,-402.2188 1734.6203,-440.6015 1946.0123,-412.0086"/>
<polygon fill="#000000" stroke="#000000" points="1946.7699,-415.4371 1956.1939,-410.5958 1945.8078,-408.5035 1946.7699,-415.4371"/>
</g>
<!-- node_31 -->
<g id="node22" class="node">
<title>node_31</title>
<polygon fill="none" stroke="#000000" points="1938.0562,-412 1761.9438,-412 1761.9438,-376 1938.0562,-376 1938.0562,-412"/>
<text text-anchor="middle" x="1850" y="-389.8" font-family="Times,serif" font-size="14.00" fill="#000000">accept &amp;finished&amp;executor2</text>
</g>
<!-- node_32&#45;&gt;node_31 -->
<g id="edge23" class="edge">
<title>node_32&#45;&gt;node_31</title>
<path fill="none" stroke="#000000" d="M1461.7518,-450.3383C1464.52,-449.4735 1467.2882,-448.6813 1470,-448 1589.8477,-417.8904 1625.9068,-430.8691 1751.7291,-412.1277"/>
<polygon fill="#000000" stroke="#000000" points="1752.392,-415.5671 1761.7487,-410.597 1751.3348,-408.6474 1752.392,-415.5671"/>
</g>
<!-- node_33 -->
<g id="node7" class="node">
<title>node_33</title>
<polygon fill="none" stroke="#000000" points="2108.5996,-340 1877.4004,-340 1877.4004,-304 2108.5996,-304 2108.5996,-340"/>
<text text-anchor="middle" x="1993" y="-317.8" font-family="Times,serif" font-size="14.00" fill="#000000">transmit searcherOptions1&#45;&gt;executor1</text>
</g>
<!-- node_14 -->
<g id="node41" class="node">
<title>node_14</title>
<polygon fill="none" stroke="#000000" points="378.7111,-340 225.2889,-340 225.2889,-304 378.7111,-304 378.7111,-340"/>
<text text-anchor="middle" x="302" y="-317.8" font-family="Times,serif" font-size="14.00" fill="#000000">accept searcherOptions1</text>
</g>
<!-- node_33&#45;&gt;node_14 -->
<g id="edge44" class="edge">
<title>node_33&#45;&gt;node_14</title>
<path fill="none" stroke="#000000" stroke-dasharray="1,5" d="M1923.2205,-340.0174C1892.1578,-347.1508 1854.9875,-354.4813 1821,-358 1747.2276,-365.6376 559.8208,-365.1538 486,-358 453.2574,-354.827 417.6908,-348.5487 386.6327,-342.1115"/>
<polygon fill="#000000" stroke="#000000" points="387.2238,-338.6592 376.7167,-340.0196 385.7788,-345.5084 387.2238,-338.6592"/>
</g>
<!-- node_21 -->
<g id="node12" class="node">
<title>node_21</title>
<polygon fill="none" stroke="#000000" points="1065.9518,-340 902.0482,-340 902.0482,-304 1065.9518,-304 1065.9518,-340"/>
<text text-anchor="middle" x="984" y="-317.8" font-family="Times,serif" font-size="14.00" fill="#000000">transmit eval1&#45;&gt;executor1</text>
</g>
<!-- node_34&#45;&gt;node_21 -->
<g id="edge7" class="edge">
<title>node_34&#45;&gt;node_21</title>
<path fill="none" stroke="#000000" d="M954.8413,-375.8314C959.1957,-367.7925 964.4098,-358.1666 969.2169,-349.2918"/>
<polygon fill="#000000" stroke="#000000" points="972.3408,-350.8732 974.0261,-340.4133 966.1857,-347.5392 972.3408,-350.8732"/>
</g>
<!-- node_35 -->
<g id="node9" class="node">
<title>node_35</title>
<polygon fill="none" stroke="#000000" points="1820.7374,-340 1593.2626,-340 1593.2626,-304 1820.7374,-304 1820.7374,-340"/>
<text text-anchor="middle" x="1707" y="-317.8" font-family="Times,serif" font-size="14.00" fill="#000000">transmit classifierOptions&#45;&gt;executor2</text>
</g>
<!-- node_6 -->
<g id="node29" class="node">
<title>node_6</title>
<polygon fill="none" stroke="#000000" points="3396.849,-700 3247.151,-700 3247.151,-664 3396.849,-664 3396.849,-700"/>
<text text-anchor="middle" x="3322" y="-677.8" font-family="Times,serif" font-size="14.00" fill="#000000">accept classifierOptions</text>
</g>
<!-- node_35&#45;&gt;node_6 -->
<g id="edge43" class="edge">
<title>node_35&#45;&gt;node_6</title>
<path fill="none" stroke="#000000" stroke-dasharray="1,5" d="M1805.0685,-340.0193C1825.7837,-343.212 1847.5595,-346.1147 1868,-348 1930.3551,-353.7511 3460,-323.8045 3460,-466 3460,-538 3460,-538 3460,-538 3460,-578.8816 3466.5924,-596.12 3441,-628 3430.0774,-641.6062 3414.9777,-651.9108 3399.1965,-659.6696"/>
<polygon fill="#000000" stroke="#000000" points="3397.4866,-656.603 3389.8524,-663.9494 3400.4016,-662.9672 3397.4866,-656.603"/>
</g>
<!-- node_36 -->
<g id="node10" class="node">
<title>node_36</title>
<polygon fill="none" stroke="#000000" points="1524,-484 1479.2728,-466 1524,-448 1568.7272,-466 1524,-484"/>
<text text-anchor="middle" x="1524" y="-461.8" font-family="Times,serif" font-size="14.00" fill="#000000">Client</text>
</g>
<!-- node_13 -->
<g id="node40" class="node">
<title>node_13</title>
<polygon fill="none" stroke="#000000" points="751.5636,-268 666.4364,-268 666.4364,-232 751.5636,-232 751.5636,-268"/>
<text text-anchor="middle" x="709" y="-245.8" font-family="Times,serif" font-size="14.00" fill="#000000">accept eval1</text>
</g>
<!-- node_21&#45;&gt;node_13 -->
<g id="edge52" class="edge">
<title>node_21&#45;&gt;node_13</title>
<path fill="none" stroke="#000000" stroke-dasharray="1,5" d="M920.6699,-303.9615C910.4409,-301.1985 899.946,-298.4529 890,-296 835.9309,-282.6655 819.174,-283.6948 761.3634,-267.9219"/>
<polygon fill="#000000" stroke="#000000" points="762.2927,-264.5476 751.7206,-265.2414 760.4179,-271.2919 762.2927,-264.5476"/>
</g>
<!-- node_22 -->
<g id="node13" class="node">
<title>node_22</title>
<polygon fill="none" stroke="#000000" points="1291.7892,-340 1084.2108,-340 1084.2108,-304 1291.7892,-304 1291.7892,-340"/>
<text text-anchor="middle" x="1188" y="-317.8" font-family="Times,serif" font-size="14.00" fill="#000000">transmit evalOptions1&#45;&gt;executor1</text>
</g>
<!-- node_11 -->
<g id="node38" class="node">
<title>node_11</title>
<polygon fill="none" stroke="#000000" points="615.9004,-340 486.0996,-340 486.0996,-304 615.9004,-304 615.9004,-340"/>
<text text-anchor="middle" x="551" y="-317.8" font-family="Times,serif" font-size="14.00" fill="#000000">accept evalOptions1</text>
</g>
<!-- node_22&#45;&gt;node_11 -->
<g id="edge51" class="edge">
<title>node_22&#45;&gt;node_11</title>
<path fill="none" stroke="#000000" stroke-dasharray="1,5" d="M1138.8583,-340.0007C1116.8908,-347.131 1090.4793,-354.4637 1066,-358 987.9216,-369.2794 789.4064,-366.7118 711,-358 682.8965,-354.8774 652.5184,-348.7596 625.86,-342.4406"/>
<polygon fill="#000000" stroke="#000000" points="626.3802,-338.9655 615.8375,-340.0147 624.7334,-345.7691 626.3802,-338.9655"/>
</g>
<!-- node_24 -->
<g id="node15" class="node">
<title>node_24</title>
<polygon fill="none" stroke="#000000" points="1496.2619,-340 1309.7381,-340 1309.7381,-304 1496.2619,-304 1496.2619,-340"/>
<text text-anchor="middle" x="1403" y="-317.8" font-family="Times,serif" font-size="14.00" fill="#000000">transmit searcher1&#45;&gt;executor1</text>
</g>
<!-- node_9 -->
<g id="node36" class="node">
<title>node_9</title>
<polygon fill="none" stroke="#000000" points="878.3731,-268 769.6269,-268 769.6269,-232 878.3731,-232 878.3731,-268"/>
<text text-anchor="middle" x="824" y="-245.8" font-family="Times,serif" font-size="14.00" fill="#000000">accept searcher1</text>
</g>
<!-- node_24&#45;&gt;node_9 -->
<g id="edge45" class="edge">
<title>node_24&#45;&gt;node_9</title>
<path fill="none" stroke="#000000" stroke-dasharray="1,5" d="M1338.5728,-303.9871C1326.1765,-300.9738 1313.2415,-298.1374 1301,-296 1154.8585,-270.4829 980.8769,-258.1954 888.7431,-253.0877"/>
<polygon fill="#000000" stroke="#000000" points="888.9078,-249.5916 878.7324,-252.5432 888.5276,-256.5812 888.9078,-249.5916"/>
</g>
<!-- node_25&#45;&gt;node_24 -->
<g id="edge21" class="edge">
<title>node_25&#45;&gt;node_24</title>
<path fill="none" stroke="#000000" d="M1250.9112,-375.9145C1257.6109,-373.1998 1264.4747,-370.4812 1271,-368 1293.2296,-359.5472 1317.7833,-350.8251 1339.6241,-343.2786"/>
<polygon fill="#000000" stroke="#000000" points="1340.808,-346.5727 1349.1257,-340.0103 1338.531,-339.9534 1340.808,-346.5727"/>
</g>
<!-- node_26&#45;&gt;node_22 -->
<g id="edge15" class="edge">
<title>node_26&#45;&gt;node_22</title>
<path fill="none" stroke="#000000" d="M1100.524,-375.8314C1115.4891,-366.6221 1133.8386,-355.3301 1149.8603,-345.4706"/>
<polygon fill="#000000" stroke="#000000" points="1151.8032,-348.3847 1158.4854,-340.1628 1148.1345,-342.423 1151.8032,-348.3847"/>
</g>
<!-- node_27&#45;&gt;node_35 -->
<g id="edge6" class="edge">
<title>node_27&#45;&gt;node_35</title>
<path fill="none" stroke="#000000" d="M1409.8413,-375.9027C1419.4978,-373.0385 1429.4985,-370.2757 1439,-368 1485.7278,-356.8084 1537.6628,-347.2446 1583.278,-339.7834"/>
<polygon fill="#000000" stroke="#000000" points="1583.9003,-343.2283 1593.2124,-338.1751 1582.7816,-336.3183 1583.9003,-343.2283"/>
</g>
<!-- node_29 -->
<g id="node20" class="node">
<title>node_29</title>
<polygon fill="none" stroke="#000000" points="1663.5381,-484 1586.4619,-484 1586.4619,-448 1663.5381,-448 1663.5381,-484"/>
<text text-anchor="middle" x="1625" y="-461.8" font-family="Times,serif" font-size="14.00" fill="#000000">send graph</text>
</g>
<!-- node_29&#45;&gt;node_34 -->
<g id="edge5" class="edge">
<title>node_29&#45;&gt;node_34</title>
<path fill="none" stroke="#000000" d="M1586.2955,-450.1362C1583.516,-449.3195 1580.7324,-448.5933 1578,-448 1328.3836,-393.7998 1252.6049,-461.0322 997.5232,-411.7313"/>
<polygon fill="#000000" stroke="#000000" points="998.0821,-408.2742 987.5935,-409.7712 996.7263,-415.1416 998.0821,-408.2742"/>
</g>
<!-- node_29&#45;&gt;node_20 -->
<g id="edge9" class="edge">
<title>node_29&#45;&gt;node_20</title>
<path fill="none" stroke="#000000" d="M1602.5415,-447.8314C1591.5795,-438.9632 1578.2301,-428.1637 1566.3735,-418.5718"/>
<polygon fill="#000000" stroke="#000000" points="1568.4271,-415.7313 1558.4513,-412.1628 1564.0245,-421.1734 1568.4271,-415.7313"/>
</g>
<!-- node_29&#45;&gt;node_23 -->
<g id="edge12" class="edge">
<title>node_29&#45;&gt;node_23</title>
<path fill="none" stroke="#000000" d="M1663.8016,-464.1709C1746.072,-459.7769 1944.0593,-446.4719 2118.2451,-411.9416"/>
<polygon fill="#000000" stroke="#000000" points="2118.9841,-415.3631 2128.0978,-409.9603 2117.6041,-408.5005 2118.9841,-415.3631"/>
</g>
<!-- node_29&#45;&gt;node_25 -->
<g id="edge16" class="edge">
<title>node_29&#45;&gt;node_25</title>
<path fill="none" stroke="#000000" d="M1586.2557,-450.3077C1583.4858,-449.4502 1580.7151,-448.668 1578,-448 1447.7254,-415.9485 1407.5832,-437.8749 1272.4032,-412.0954"/>
<polygon fill="#000000" stroke="#000000" points="1272.99,-408.6439 1262.5035,-410.1554 1271.6438,-415.5132 1272.99,-408.6439"/>
</g>
<!-- node_29&#45;&gt;node_26 -->
<g id="edge18" class="edge">
<title>node_29&#45;&gt;node_26</title>
<path fill="none" stroke="#000000" d="M1586.2808,-450.2022C1583.5048,-449.3698 1580.726,-448.622 1578,-448 1392.9485,-405.7731 1337.5066,-441.6434 1146.3527,-412.0601"/>
<polygon fill="#000000" stroke="#000000" points="1146.6827,-408.5687 1136.2574,-410.4568 1145.5847,-415.482 1146.6827,-408.5687"/>
</g>
<!-- node_29&#45;&gt;node_27 -->
<g id="edge19" class="edge">
<title>node_29&#45;&gt;node_27</title>
<path fill="none" stroke="#000000" d="M1586.4091,-450.7704C1583.5776,-449.7916 1580.7532,-448.8567 1578,-448 1552.2279,-439.9808 1491.2518,-425.3197 1439.5647,-413.2958"/>
<polygon fill="#000000" stroke="#000000" points="1440.2312,-409.8575 1429.6988,-411.0063 1438.6488,-416.6763 1440.2312,-409.8575"/>
</g>
<!-- node_29&#45;&gt;node_28 -->
<g id="edge22" class="edge">
<title>node_29&#45;&gt;node_28</title>
<path fill="none" stroke="#000000" d="M1642.1593,-447.8314C1650.1511,-439.3694 1659.8038,-429.1489 1668.5416,-419.8971"/>
<polygon fill="#000000" stroke="#000000" points="1671.288,-422.0866 1675.6097,-412.4133 1666.1989,-417.2802 1671.288,-422.0866"/>
</g>
<!-- node_29&#45;&gt;node_30 -->
<g id="edge1" class="edge">
<title>node_29&#45;&gt;node_30</title>
<path fill="none" stroke="#000000" d="M1663.7501,-460.0168C1722.4879,-450.8349 1837.8077,-432.3693 1946.0241,-412.1462"/>
<polygon fill="#000000" stroke="#000000" points="1946.9542,-415.5328 1956.1364,-410.2473 1945.6622,-408.6531 1946.9542,-415.5328"/>
</g>
<!-- node_29&#45;&gt;node_31 -->
<g id="edge2" class="edge">
<title>node_29&#45;&gt;node_31</title>
<path fill="none" stroke="#000000" d="M1663.6789,-453.6228C1696.6904,-443.0591 1744.8852,-427.6367 1783.9878,-415.1239"/>
<polygon fill="#000000" stroke="#000000" points="1785.261,-418.3914 1793.7185,-412.0101 1783.1275,-411.7244 1785.261,-418.3914"/>
</g>
<!-- node_30&#45;&gt;node_33 -->
<g id="edge4" class="edge">
<title>node_30&#45;&gt;node_33</title>
<path fill="none" stroke="#000000" d="M2022.9063,-375.8314C2018.4403,-367.7925 2013.0925,-358.1666 2008.1621,-349.2918"/>
<polygon fill="#000000" stroke="#000000" points="2011.1456,-347.4551 2003.2296,-340.4133 2005.0265,-350.8546 2011.1456,-347.4551"/>
</g>
<!-- node_0 -->
<g id="node23" class="node">
<title>node_0</title>
<polygon fill="none" stroke="#000000" points="3431.7657,-628 3142.2343,-628 3142.2343,-592 3431.7657,-592 3431.7657,-628"/>
<text text-anchor="middle" x="3287" y="-605.8" font-family="Times,serif" font-size="14.00" fill="#000000">cast classifierOptions from jsonlist to builtin.List</text>
</g>
<!-- node_1 -->
<g id="node24" class="node">
<title>node_1</title>
<polygon fill="none" stroke="#000000" points="2882.4522,-556 2635.5478,-556 2635.5478,-520 2882.4522,-520 2882.4522,-556"/>
<text text-anchor="middle" x="2759" y="-533.8" font-family="Times,serif" font-size="14.00" fill="#000000">service2::set_options([classifierOptions])</text>
</g>
<!-- node_0&#45;&gt;node_1 -->
<g id="edge24" class="edge">
<title>node_0&#45;&gt;node_1</title>
<path fill="none" stroke="#000000" d="M3154.7852,-591.9707C3074.8141,-581.0656 2973.1441,-567.2015 2892.8753,-556.2557"/>
<polygon fill="#000000" stroke="#000000" points="2893.078,-552.7511 2882.6968,-554.8677 2892.1322,-559.6869 2893.078,-552.7511"/>
</g>
<!-- node_4 -->
<g id="node27" class="node">
<title>node_4</title>
<polygon fill="none" stroke="#000000" points="2674.3029,-484 2515.6971,-484 2515.6971,-448 2674.3029,-448 2674.3029,-484"/>
<text text-anchor="middle" x="2595" y="-461.8" font-family="Times,serif" font-size="14.00" fill="#000000">transmit service2&#45;&gt;Client</text>
</g>
<!-- node_1&#45;&gt;node_4 -->
<g id="edge25" class="edge">
<title>node_1&#45;&gt;node_4</title>
<path fill="none" stroke="#000000" d="M2717.6159,-519.8314C2695.6818,-510.2018 2668.5608,-498.295 2645.4069,-488.1299"/>
<polygon fill="#000000" stroke="#000000" points="2646.65,-484.8532 2636.0865,-484.038 2643.836,-491.2627 2646.65,-484.8532"/>
</g>
<!-- node_5 -->
<g id="node28" class="node">
<title>node_5</title>
<polygon fill="none" stroke="#000000" points="2795.8561,-484 2702.1439,-484 2702.1439,-448 2795.8561,-448 2795.8561,-484"/>
<text text-anchor="middle" x="2749" y="-461.8" font-family="Times,serif" font-size="14.00" fill="#000000">store service2</text>
</g>
<!-- node_1&#45;&gt;node_5 -->
<g id="edge26" class="edge">
<title>node_1&#45;&gt;node_5</title>
<path fill="none" stroke="#000000" d="M2756.4766,-519.8314C2755.4071,-512.131 2754.1353,-502.9743 2752.9468,-494.4166"/>
<polygon fill="#000000" stroke="#000000" points="2756.3999,-493.8367 2751.5574,-484.4133 2749.4664,-494.7997 2756.3999,-493.8367"/>
</g>
<!-- node_2 -->
<g id="node25" class="node">
<title>node_2</title>
<polygon fill="none" stroke="#000000" points="2940.9251,-700 2655.0749,-700 2655.0749,-664 2940.9251,-664 2940.9251,-700"/>
<text text-anchor="middle" x="2798" y="-677.8" font-family="Times,serif" font-size="14.00" fill="#000000">parse String: weka.classifiers.bayes.NaiveBayes</text>
</g>
<!-- node_7 -->
<g id="node30" class="node">
<title>node_7</title>
<polygon fill="none" stroke="#000000" points="3124.0156,-628 2471.9844,-628 2471.9844,-592 3124.0156,-592 3124.0156,-628"/>
<text text-anchor="middle" x="2798" y="-605.8" font-family="Times,serif" font-size="14.00" fill="#000000">service2 = de.upb.sede.services.jsml.WekaBClassifierWrapper::__construct([weka.classifiers.bayes.NaiveBayes])</text>
</g>
<!-- node_2&#45;&gt;node_7 -->
<g id="edge27" class="edge">
<title>node_2&#45;&gt;node_7</title>
<path fill="none" stroke="#000000" d="M2798,-663.8314C2798,-656.131 2798,-646.9743 2798,-638.4166"/>
<polygon fill="#000000" stroke="#000000" points="2801.5001,-638.4132 2798,-628.4133 2794.5001,-638.4133 2801.5001,-638.4132"/>
</g>
<!-- node_3 -->
<g id="node26" class="node">
<title>node_3</title>
<polygon fill="none" stroke="#000000" points="2698.1485,-412 2491.8515,-412 2491.8515,-376 2698.1485,-376 2698.1485,-412"/>
<text text-anchor="middle" x="2595" y="-389.8" font-family="Times,serif" font-size="14.00" fill="#000000">FinishNode &amp;finished&amp;executor2</text>
</g>
<!-- node_3&#45;&gt;node_31 -->
<g id="edge54" class="edge">
<title>node_3&#45;&gt;node_31</title>
<path fill="none" stroke="#000000" stroke-dasharray="1,5" d="M2501.4537,-412.0036C2376.3353,-433.1899 2147.9859,-461.7119 1956,-430 1938.1273,-427.0478 1919.2176,-421.4731 1902.3953,-415.577"/>
<polygon fill="#000000" stroke="#000000" points="1903.3496,-412.2002 1892.7554,-412.0856 1900.9658,-418.7818 1903.3496,-412.2002"/>
</g>
<!-- node_4&#45;&gt;node_23 -->
<g id="edge49" class="edge">
<title>node_4&#45;&gt;node_23</title>
<path fill="none" stroke="#000000" stroke-dasharray="1,5" d="M2515.2832,-452.2029C2434.9549,-438.2999 2312.7474,-417.1486 2239.8852,-404.5378"/>
<polygon fill="#000000" stroke="#000000" points="2240.3915,-401.0735 2229.941,-402.8167 2239.1976,-407.9709 2240.3915,-401.0735"/>
</g>
<!-- node_4&#45;&gt;node_3 -->
<g id="edge31" class="edge">
<title>node_4&#45;&gt;node_3</title>
<path fill="none" stroke="#000000" d="M2595,-447.8314C2595,-440.131 2595,-430.9743 2595,-422.4166"/>
<polygon fill="#000000" stroke="#000000" points="2598.5001,-422.4132 2595,-412.4133 2591.5001,-422.4133 2598.5001,-422.4132"/>
</g>
<!-- node_5&#45;&gt;node_3 -->
<g id="edge30" class="edge">
<title>node_5&#45;&gt;node_3</title>
<path fill="none" stroke="#000000" d="M2710.1393,-447.8314C2689.7258,-438.2874 2664.5277,-426.5065 2642.914,-416.4013"/>
<polygon fill="#000000" stroke="#000000" points="2644.1225,-413.1027 2633.5813,-412.038 2641.1577,-419.4439 2644.1225,-413.1027"/>
</g>
<!-- node_6&#45;&gt;node_0 -->
<g id="edge28" class="edge">
<title>node_6&#45;&gt;node_0</title>
<path fill="none" stroke="#000000" d="M3313.168,-663.8314C3309.3014,-655.8771 3304.6794,-646.369 3300.4032,-637.5723"/>
<polygon fill="#000000" stroke="#000000" points="3303.4707,-635.8768 3295.9509,-628.4133 3297.1751,-638.9371 3303.4707,-635.8768"/>
</g>
<!-- node_7&#45;&gt;node_1 -->
<g id="edge29" class="edge">
<title>node_7&#45;&gt;node_1</title>
<path fill="none" stroke="#000000" d="M2788.1587,-591.8314C2783.8043,-583.7925 2778.5902,-574.1666 2773.7831,-565.2918"/>
<polygon fill="#000000" stroke="#000000" points="2776.8143,-563.5392 2768.9739,-556.4133 2770.6592,-566.8732 2776.8143,-563.5392"/>
</g>
<!-- node_8 -->
<g id="node31" class="node">
<title>node_8</title>
<polygon fill="none" stroke="#000000" points="2555,-700 2491.3022,-682 2555,-664 2618.6978,-682 2555,-700"/>
<text text-anchor="middle" x="2555" y="-677.8" font-family="Times,serif" font-size="14.00" fill="#000000">executor2</text>
</g>
<!-- node_16 -->
<g id="node32" class="node">
<title>node_16</title>
<polygon fill="none" stroke="#000000" points="458.8561,-124 365.1439,-124 365.1439,-88 458.8561,-88 458.8561,-124"/>
<text text-anchor="middle" x="412" y="-101.8" font-family="Times,serif" font-size="14.00" fill="#000000">store service1</text>
</g>
<!-- node_17 -->
<g id="node33" class="node">
<title>node_17</title>
<polygon fill="none" stroke="#000000" points="322.1485,-52 115.8515,-52 115.8515,-16 322.1485,-16 322.1485,-52"/>
<text text-anchor="middle" x="219" y="-29.8" font-family="Times,serif" font-size="14.00" fill="#000000">FinishNode &amp;finished&amp;executor1</text>
</g>
<!-- node_16&#45;&gt;node_17 -->
<g id="edge32" class="edge">
<title>node_16&#45;&gt;node_17</title>
<path fill="none" stroke="#000000" d="M365.2801,-88.5708C338.6189,-78.6247 304.9766,-66.0742 276.6791,-55.5176"/>
<polygon fill="#000000" stroke="#000000" points="277.8978,-52.2367 267.3052,-52.0206 275.4511,-58.7952 277.8978,-52.2367"/>
</g>
<!-- node_17&#45;&gt;node_20 -->
<g id="edge42" class="edge">
<title>node_17&#45;&gt;node_20</title>
<path fill="none" stroke="#000000" stroke-dasharray="1,5" d="M139.0064,-52.0292C76.446,-71.4111 0,-109.1757 0,-178 0,-250 0,-250 0,-250 0,-302.5122 19.8242,-322.9935 66,-348 133.0808,-384.3276 1363.4417,-357.4889 1439,-368 1448.4842,-369.3194 1458.3635,-371.2693 1468.0319,-373.5186"/>
<polygon fill="#000000" stroke="#000000" points="1467.4605,-376.9819 1478.0056,-375.957 1469.1229,-370.1821 1467.4605,-376.9819"/>
</g>
<!-- node_18 -->
<g id="node34" class="node">
<title>node_18</title>
<polygon fill="none" stroke="#000000" points="359.6282,-268 66.3718,-268 66.3718,-232 359.6282,-232 359.6282,-268"/>
<text text-anchor="middle" x="213" y="-245.8" font-family="Times,serif" font-size="14.00" fill="#000000">cast searcherOptions1 from jsonlist to builtin.List</text>
</g>
<!-- node_12 -->
<g id="node39" class="node">
<title>node_12</title>
<polygon fill="none" stroke="#000000" points="807.4816,-196 116.5184,-196 116.5184,-160 807.4816,-160 807.4816,-196"/>
<text text-anchor="middle" x="462" y="-173.8" font-family="Times,serif" font-size="14.00" fill="#000000">service1 = de.upb.sede.services.jsml.WekaASWrapper::__construct([searcher1, eval1, searcherOptions1, evalOptions1])</text>
</g>
<!-- node_18&#45;&gt;node_12 -->
<g id="edge38" class="edge">
<title>node_18&#45;&gt;node_12</title>
<path fill="none" stroke="#000000" d="M275.5118,-231.9243C310.1436,-221.9103 353.3667,-209.412 389.4787,-198.97"/>
<polygon fill="#000000" stroke="#000000" points="390.8283,-202.2232 399.4625,-196.0831 388.8838,-195.4987 390.8283,-202.2232"/>
</g>
<!-- node_19 -->
<g id="node35" class="node">
<title>node_19</title>
<polygon fill="none" stroke="#000000" points="775,-340 711.3022,-322 775,-304 838.6978,-322 775,-340"/>
<text text-anchor="middle" x="775" y="-317.8" font-family="Times,serif" font-size="14.00" fill="#000000">executor1</text>
</g>
<!-- node_9&#45;&gt;node_12 -->
<g id="edge33" class="edge">
<title>node_9&#45;&gt;node_12</title>
<path fill="none" stroke="#000000" d="M769.451,-234.0549C766.5996,-233.3341 763.7699,-232.6441 761,-232 704.2884,-218.8118 640.8949,-206.9573 587.1248,-197.7381"/>
<polygon fill="#000000" stroke="#000000" points="587.6463,-194.2766 577.2005,-196.0477 586.4708,-201.1772 587.6463,-194.2766"/>
</g>
<!-- node_10 -->
<g id="node37" class="node">
<title>node_10</title>
<polygon fill="none" stroke="#000000" points="298.3029,-124 139.6971,-124 139.6971,-88 298.3029,-88 298.3029,-124"/>
<text text-anchor="middle" x="219" y="-101.8" font-family="Times,serif" font-size="14.00" fill="#000000">transmit service1&#45;&gt;Client</text>
</g>
<!-- node_10&#45;&gt;node_28 -->
<g id="edge47" class="edge">
<title>node_10&#45;&gt;node_28</title>
<path fill="none" stroke="#000000" stroke-dasharray="1,5" d="M168.8517,-124.0179C148.578,-132.8538 125.8111,-144.8868 108,-160 78.0992,-185.3717 68.8936,-194.6326 57,-232 30.4695,-315.354 131.0357,-327.1955 216,-348 368.9419,-385.4496 1479.0489,-334.9433 1633,-368 1638.0052,-369.0747 1643.1088,-370.5776 1648.1208,-372.3243"/>
<polygon fill="#000000" stroke="#000000" points="1647.0055,-375.6448 1657.5963,-375.9357 1649.4985,-369.1038 1647.0055,-375.6448"/>
</g>
<!-- node_10&#45;&gt;node_17 -->
<g id="edge37" class="edge">
<title>node_10&#45;&gt;node_17</title>
<path fill="none" stroke="#000000" d="M219,-87.8314C219,-80.131 219,-70.9743 219,-62.4166"/>
<polygon fill="#000000" stroke="#000000" points="222.5001,-62.4132 219,-52.4133 215.5001,-62.4133 222.5001,-62.4132"/>
</g>
<!-- node_15 -->
<g id="node42" class="node">
<title>node_15</title>
<polygon fill="none" stroke="#000000" points="648.3176,-268 377.6824,-268 377.6824,-232 648.3176,-232 648.3176,-268"/>
<text text-anchor="middle" x="513" y="-245.8" font-family="Times,serif" font-size="14.00" fill="#000000">cast evalOptions1 from jsonlist to builtin.List</text>
</g>
<!-- node_11&#45;&gt;node_15 -->
<g id="edge34" class="edge">
<title>node_11&#45;&gt;node_15</title>
<path fill="none" stroke="#000000" d="M541.411,-303.8314C537.1683,-295.7925 532.0879,-286.1666 527.404,-277.2918"/>
<polygon fill="#000000" stroke="#000000" points="530.4811,-275.6235 522.7181,-268.4133 524.2904,-278.8908 530.4811,-275.6235"/>
</g>
<!-- node_12&#45;&gt;node_16 -->
<g id="edge35" class="edge">
<title>node_12&#45;&gt;node_16</title>
<path fill="none" stroke="#000000" d="M449.3829,-159.8314C443.6828,-151.6232 436.8337,-141.7606 430.5641,-132.7323"/>
<polygon fill="#000000" stroke="#000000" points="433.3658,-130.6306 424.787,-124.4133 427.6162,-134.6234 433.3658,-130.6306"/>
</g>
<!-- node_12&#45;&gt;node_10 -->
<g id="edge40" class="edge">
<title>node_12&#45;&gt;node_10</title>
<path fill="none" stroke="#000000" d="M400.9945,-159.9243C367.1972,-149.9103 325.0156,-137.412 289.7738,-126.97"/>
<polygon fill="#000000" stroke="#000000" points="290.6129,-123.5683 280.0306,-124.0831 288.6243,-130.2799 290.6129,-123.5683"/>
</g>
<!-- node_13&#45;&gt;node_12 -->
<g id="edge41" class="edge">
<title>node_13&#45;&gt;node_12</title>
<path fill="none" stroke="#000000" d="M666.2219,-234.9527C663.1084,-233.9311 660.0102,-232.9368 657,-232 619.136,-220.2168 576.7477,-208.3252 541.1879,-198.7122"/>
<polygon fill="#000000" stroke="#000000" points="541.9148,-195.2833 531.3487,-196.0632 540.0949,-202.0426 541.9148,-195.2833"/>
</g>
<!-- node_14&#45;&gt;node_18 -->
<g id="edge36" class="edge">
<title>node_14&#45;&gt;node_18</title>
<path fill="none" stroke="#000000" d="M279.5415,-303.8314C268.5795,-294.9632 255.2301,-284.1637 243.3735,-274.5718"/>
<polygon fill="#000000" stroke="#000000" points="245.4271,-271.7313 235.4513,-268.1628 241.0245,-277.1734 245.4271,-271.7313"/>
</g>
<!-- node_15&#45;&gt;node_12 -->
<g id="edge39" class="edge">
<title>node_15&#45;&gt;node_12</title>
<path fill="none" stroke="#000000" d="M500.1305,-231.8314C494.3165,-223.6232 487.3304,-213.7606 480.9354,-204.7323"/>
<polygon fill="#000000" stroke="#000000" points="483.679,-202.5505 475.0427,-196.4133 477.9669,-206.5966 483.679,-202.5505"/>
</g>
</g>
</svg>
