<?xml version="1.0" encoding="UTF-8" standalone="no"?>
<!DOCTYPE svg PUBLIC "-//W3C//DTD SVG 1.1//EN"
 "http://www.w3.org/Graphics/SVG/1.1/DTD/svg11.dtd">
<!-- Generated by graphviz version 2.40.1 (20161225.0304)
 -->
<!-- Title: %3 Pages: 1 -->
<svg width="2553pt" height="796pt"
 viewBox="0.00 0.00 2553.00 796.00" xmlns="http://www.w3.org/2000/svg" xmlns:xlink="http://www.w3.org/1999/xlink">
<g id="graph0" class="graph" transform="scale(1 1) rotate(0) translate(4 792)">
<title>%3</title>
<polygon fill="#ffffff" stroke="transparent" points="-4,4 -4,-792 2549,-792 2549,4 -4,4"/>
<g id="clust1" class="cluster">
<title>cluster_431701051</title>
<polygon fill="none" stroke="#000000" points="1050,-8 1050,-348 1450,-348 1450,-8 1050,-8"/>
</g>
<g id="clust2" class="cluster">
<title>cluster_851811425</title>
<polygon fill="none" stroke="#000000" points="1050,-368 1050,-564 1959,-564 1959,-368 1050,-368"/>
</g>
<g id="clust3" class="cluster">
<title>cluster_996044647</title>
<polygon fill="none" stroke="#000000" points="8,-296 8,-780 1042,-780 1042,-296 8,-296"/>
</g>
<!-- node_48 -->
<g id="node1" class="node">
<title>node_48</title>
<polygon fill="none" stroke="#000000" points="1442.1485,-52 1235.8515,-52 1235.8515,-16 1442.1485,-16 1442.1485,-52"/>
<text text-anchor="middle" x="1339" y="-29.8" font-family="Times,serif" font-size="14.00" fill="#000000">FinishNode &amp;finished&amp;executor2</text>
</g>
<!-- node_66 -->
<g id="node10" class="node">
<title>node_66</title>
<polygon fill="none" stroke="#000000" points="1591.0562,-484 1414.9438,-484 1414.9438,-448 1591.0562,-448 1591.0562,-484"/>
<text text-anchor="middle" x="1503" y="-461.8" font-family="Times,serif" font-size="14.00" fill="#000000">accept &amp;finished&amp;executor2</text>
</g>
<!-- node_48&#45;&gt;node_66 -->
<g id="edge40" class="edge">
<title>node_48&#45;&gt;node_66</title>
<path fill="none" stroke="#000000" stroke-dasharray="1,5" d="M1373.0767,-52.1752C1411.8914,-75.6338 1470,-120.3759 1470,-178 1470,-250 1470,-250 1470,-250 1470,-294.3666 1481.7448,-316.0133 1451,-348 1424.1061,-375.9802 1390.0956,-337.5768 1366,-368 1353.8585,-383.3299 1354.9958,-395.8344 1366,-412 1373.9144,-423.6265 1400.3327,-435.2341 1427.8873,-444.6913"/>
<polygon fill="#000000" stroke="#000000" points="1427.0589,-448.1043 1437.6525,-447.9432 1429.2706,-441.4629 1427.0589,-448.1043"/>
</g>
<!-- node_49 -->
<g id="node2" class="node">
<title>node_49</title>
<polygon fill="none" stroke="#000000" points="1378,-340 1314.3022,-322 1378,-304 1441.6978,-322 1378,-340"/>
<text text-anchor="middle" x="1378" y="-317.8" font-family="Times,serif" font-size="14.00" fill="#000000">executor2</text>
</g>
<!-- node_42 -->
<g id="node3" class="node">
<title>node_42</title>
<polygon fill="none" stroke="#000000" points="1295.8868,-340 1194.1132,-340 1194.1132,-304 1295.8868,-304 1295.8868,-340"/>
<text text-anchor="middle" x="1245" y="-317.8" font-family="Times,serif" font-size="14.00" fill="#000000">accept service2</text>
</g>
<!-- node_44 -->
<g id="node5" class="node">
<title>node_44</title>
<polygon fill="none" stroke="#000000" points="1442.2455,-268 1351.7545,-268 1351.7545,-232 1442.2455,-232 1442.2455,-268"/>
<text text-anchor="middle" x="1397" y="-245.8" font-family="Times,serif" font-size="14.00" fill="#000000">load service2</text>
</g>
<!-- node_42&#45;&gt;node_44 -->
<g id="edge3" class="edge">
<title>node_42&#45;&gt;node_44</title>
<path fill="none" stroke="#000000" d="M1283.356,-303.8314C1303.5044,-294.2874 1328.3752,-282.5065 1349.7083,-272.4013"/>
<polygon fill="#000000" stroke="#000000" points="1351.3807,-275.482 1358.9198,-268.038 1348.3841,-269.1558 1351.3807,-275.482"/>
</g>
<!-- node_43 -->
<g id="node4" class="node">
<title>node_43</title>
<polygon fill="none" stroke="#000000" points="1159.5636,-340 1074.4364,-340 1074.4364,-304 1159.5636,-304 1159.5636,-340"/>
<text text-anchor="middle" x="1117" y="-317.8" font-family="Times,serif" font-size="14.00" fill="#000000">accept data1</text>
</g>
<!-- node_47 -->
<g id="node8" class="node">
<title>node_47</title>
<polygon fill="none" stroke="#000000" points="1333.7736,-268 1058.2264,-268 1058.2264,-232 1333.7736,-232 1333.7736,-268"/>
<text text-anchor="middle" x="1196" y="-245.8" font-family="Times,serif" font-size="14.00" fill="#000000">cast data1 from dataset to weka.core.Instances</text>
</g>
<!-- node_43&#45;&gt;node_47 -->
<g id="edge5" class="edge">
<title>node_43&#45;&gt;node_47</title>
<path fill="none" stroke="#000000" d="M1136.935,-303.8314C1146.4783,-295.1337 1158.0599,-284.5783 1168.4306,-275.1265"/>
<polygon fill="#000000" stroke="#000000" points="1171.038,-277.4857 1176.0713,-268.1628 1166.3228,-272.3121 1171.038,-277.4857"/>
</g>
<!-- node_45 -->
<g id="node6" class="node">
<title>node_45</title>
<polygon fill="none" stroke="#000000" points="1411.542,-196 1266.458,-196 1266.458,-160 1411.542,-160 1411.542,-196"/>
<text text-anchor="middle" x="1339" y="-173.8" font-family="Times,serif" font-size="14.00" fill="#000000">service2::train([data1])</text>
</g>
<!-- node_44&#45;&gt;node_45 -->
<g id="edge1" class="edge">
<title>node_44&#45;&gt;node_45</title>
<path fill="none" stroke="#000000" d="M1382.3642,-231.8314C1375.6839,-223.5386 1367.6432,-213.557 1360.3096,-204.4533"/>
<polygon fill="#000000" stroke="#000000" points="1362.8319,-202.0052 1353.8329,-196.4133 1357.3806,-206.3965 1362.8319,-202.0052"/>
</g>
<!-- node_46 -->
<g id="node7" class="node">
<title>node_46</title>
<polygon fill="none" stroke="#000000" points="1385.8561,-124 1292.1439,-124 1292.1439,-88 1385.8561,-88 1385.8561,-124"/>
<text text-anchor="middle" x="1339" y="-101.8" font-family="Times,serif" font-size="14.00" fill="#000000">store service2</text>
</g>
<!-- node_45&#45;&gt;node_46 -->
<g id="edge2" class="edge">
<title>node_45&#45;&gt;node_46</title>
<path fill="none" stroke="#000000" d="M1339,-159.8314C1339,-152.131 1339,-142.9743 1339,-134.4166"/>
<polygon fill="#000000" stroke="#000000" points="1342.5001,-134.4132 1339,-124.4133 1335.5001,-134.4133 1342.5001,-134.4132"/>
</g>
<!-- node_46&#45;&gt;node_48 -->
<g id="edge4" class="edge">
<title>node_46&#45;&gt;node_48</title>
<path fill="none" stroke="#000000" d="M1339,-87.8314C1339,-80.131 1339,-70.9743 1339,-62.4166"/>
<polygon fill="#000000" stroke="#000000" points="1342.5001,-62.4132 1339,-52.4133 1335.5001,-62.4133 1342.5001,-62.4132"/>
</g>
<!-- node_47&#45;&gt;node_45 -->
<g id="edge6" class="edge">
<title>node_47&#45;&gt;node_45</title>
<path fill="none" stroke="#000000" d="M1232.0849,-231.8314C1250.7989,-222.4089 1273.8432,-210.8062 1293.74,-200.7883"/>
<polygon fill="#000000" stroke="#000000" points="1295.5689,-203.7861 1302.9266,-196.1628 1292.4208,-197.5339 1295.5689,-203.7861"/>
</g>
<!-- node_80 -->
<g id="node9" class="node">
<title>node_80</title>
<polygon fill="none" stroke="#000000" points="2125.3029,-556 1966.6971,-556 1966.6971,-520 2125.3029,-520 2125.3029,-556"/>
<text text-anchor="middle" x="2046" y="-533.8" font-family="Times,serif" font-size="14.00" fill="#000000">transmit service2&#45;&gt;Client</text>
</g>
<!-- node_76 -->
<g id="node20" class="node">
<title>node_76</title>
<polygon fill="none" stroke="#000000" points="1710.8868,-484 1609.1132,-484 1609.1132,-448 1710.8868,-448 1710.8868,-484"/>
<text text-anchor="middle" x="1660" y="-461.8" font-family="Times,serif" font-size="14.00" fill="#000000">accept service2</text>
</g>
<!-- node_80&#45;&gt;node_76 -->
<g id="edge46" class="edge">
<title>node_80&#45;&gt;node_76</title>
<path fill="none" stroke="#000000" stroke-dasharray="1,5" d="M1966.5053,-520.6472C1965.3294,-520.4275 1964.1604,-520.2115 1963,-520 1858.7382,-500.9931 1828.3327,-507.3417 1720.8752,-484.0192"/>
<polygon fill="#000000" stroke="#000000" points="1721.4503,-480.562 1710.931,-481.8249 1719.9419,-487.3976 1721.4503,-480.562"/>
</g>
<!-- node_67 -->
<g id="node11" class="node">
<title>node_67</title>
<polygon fill="none" stroke="#000000" points="1950.9004,-484 1849.0996,-484 1849.0996,-448 1950.9004,-448 1950.9004,-484"/>
<text text-anchor="middle" x="1900" y="-461.8" font-family="Times,serif" font-size="14.00" fill="#000000">accept indices1</text>
</g>
<!-- node_75 -->
<g id="node19" class="node">
<title>node_75</title>
<polygon fill="none" stroke="#000000" points="1950.7892,-412 1771.2108,-412 1771.2108,-376 1950.7892,-376 1950.7892,-412"/>
<text text-anchor="middle" x="1861" y="-389.8" font-family="Times,serif" font-size="14.00" fill="#000000">transmit indices1&#45;&gt;executor1</text>
</g>
<!-- node_67&#45;&gt;node_75 -->
<g id="edge14" class="edge">
<title>node_67&#45;&gt;node_75</title>
<path fill="none" stroke="#000000" d="M1890.1587,-447.8314C1885.8043,-439.7925 1880.5902,-430.1666 1875.7831,-421.2918"/>
<polygon fill="#000000" stroke="#000000" points="1878.8143,-419.5392 1870.9739,-412.4133 1872.6592,-422.8732 1878.8143,-419.5392"/>
</g>
<!-- node_68 -->
<g id="node12" class="node">
<title>node_68</title>
<polygon fill="none" stroke="#000000" points="1752.7755,-412 1573.2245,-412 1573.2245,-376 1752.7755,-376 1752.7755,-412"/>
<text text-anchor="middle" x="1663" y="-389.8" font-family="Times,serif" font-size="14.00" fill="#000000">transmit service1&#45;&gt;executor1</text>
</g>
<!-- node_59 -->
<g id="node33" class="node">
<title>node_59</title>
<polygon fill="none" stroke="#000000" points="1033.8868,-700 932.1132,-700 932.1132,-664 1033.8868,-664 1033.8868,-700"/>
<text text-anchor="middle" x="983" y="-677.8" font-family="Times,serif" font-size="14.00" fill="#000000">accept service1</text>
</g>
<!-- node_68&#45;&gt;node_59 -->
<g id="edge43" class="edge">
<title>node_68&#45;&gt;node_59</title>
<path fill="none" stroke="#000000" stroke-dasharray="1,5" d="M1752.8215,-410.4613C1755.9173,-410.9872 1758.9838,-411.5016 1762,-412 1922.9264,-438.5923 2381.4875,-396.4705 2488,-520 2500.7701,-534.8103 2501.2764,-549.6419 2488,-564 2438.1251,-617.9385 1320.8731,-667.9215 1044.4363,-679.4929"/>
<polygon fill="#000000" stroke="#000000" points="1044.0391,-676.0063 1034.1936,-679.9201 1044.3309,-683.0002 1044.0391,-676.0063"/>
</g>
<!-- node_69 -->
<g id="node13" class="node">
<title>node_69</title>
<polygon fill="none" stroke="#000000" points="1554.7755,-412 1375.2245,-412 1375.2245,-376 1554.7755,-376 1554.7755,-412"/>
<text text-anchor="middle" x="1465" y="-389.8" font-family="Times,serif" font-size="14.00" fill="#000000">transmit service2&#45;&gt;executor2</text>
</g>
<!-- node_69&#45;&gt;node_42 -->
<g id="edge42" class="edge">
<title>node_69&#45;&gt;node_42</title>
<path fill="none" stroke="#000000" stroke-dasharray="1,5" d="M1394.6768,-375.8935C1366.5316,-368.1007 1333.9738,-358.3937 1305,-348 1301.4803,-346.7374 1297.8731,-345.3693 1294.2592,-343.9437"/>
<polygon fill="#000000" stroke="#000000" points="1295.3144,-340.5945 1284.7326,-340.069 1292.677,-347.0787 1295.3144,-340.5945"/>
</g>
<!-- node_70 -->
<g id="node14" class="node">
<title>node_70</title>
<polygon fill="none" stroke="#000000" points="1682.5381,-556 1605.4619,-556 1605.4619,-520 1682.5381,-520 1682.5381,-556"/>
<text text-anchor="middle" x="1644" y="-533.8" font-family="Times,serif" font-size="14.00" fill="#000000">send graph</text>
</g>
<!-- node_70&#45;&gt;node_66 -->
<g id="edge19" class="edge">
<title>node_70&#45;&gt;node_66</title>
<path fill="none" stroke="#000000" d="M1608.4197,-519.8314C1589.9675,-510.4089 1567.2455,-498.8062 1547.627,-488.7883"/>
<polygon fill="#000000" stroke="#000000" points="1549.0667,-485.5935 1538.5689,-484.1628 1545.8832,-491.8278 1549.0667,-485.5935"/>
</g>
<!-- node_70&#45;&gt;node_67 -->
<g id="edge20" class="edge">
<title>node_70&#45;&gt;node_67</title>
<path fill="none" stroke="#000000" d="M1682.7492,-527.6016C1720.3297,-517.455 1779.1993,-501.3984 1839.3058,-484.1716"/>
<polygon fill="#000000" stroke="#000000" points="1840.3156,-487.5232 1848.96,-481.3975 1838.3823,-480.7954 1840.3156,-487.5232"/>
</g>
<!-- node_71 -->
<g id="node15" class="node">
<title>node_71</title>
<polygon fill="none" stroke="#000000" points="1396.0562,-484 1219.9438,-484 1219.9438,-448 1396.0562,-448 1396.0562,-484"/>
<text text-anchor="middle" x="1308" y="-461.8" font-family="Times,serif" font-size="14.00" fill="#000000">accept &amp;finished&amp;executor1</text>
</g>
<!-- node_70&#45;&gt;node_71 -->
<g id="edge7" class="edge">
<title>node_70&#45;&gt;node_71</title>
<path fill="none" stroke="#000000" d="M1605.154,-528.8706C1592.664,-525.9795 1578.7586,-522.807 1566,-520 1513.2114,-508.3859 1454.2135,-495.9938 1405.9729,-486.0139"/>
<polygon fill="#000000" stroke="#000000" points="1406.6626,-482.5826 1396.1613,-483.9867 1405.2462,-489.4378 1406.6626,-482.5826"/>
</g>
<!-- node_73 -->
<g id="node17" class="node">
<title>node_73</title>
<polygon fill="none" stroke="#000000" points="1830.8868,-484 1729.1132,-484 1729.1132,-448 1830.8868,-448 1830.8868,-484"/>
<text text-anchor="middle" x="1780" y="-461.8" font-family="Times,serif" font-size="14.00" fill="#000000">accept service1</text>
</g>
<!-- node_70&#45;&gt;node_73 -->
<g id="edge10" class="edge">
<title>node_70&#45;&gt;node_73</title>
<path fill="none" stroke="#000000" d="M1678.3185,-519.8314C1696.0359,-510.4516 1717.8345,-498.9112 1736.6984,-488.9244"/>
<polygon fill="#000000" stroke="#000000" points="1738.4922,-491.935 1745.6924,-484.1628 1735.2169,-485.7485 1738.4922,-491.935"/>
</g>
<!-- node_74 -->
<g id="node18" class="node">
<title>node_74</title>
<polygon fill="none" stroke="#000000" points="1201.5938,-484 1058.4062,-484 1058.4062,-448 1201.5938,-448 1201.5938,-484"/>
<text text-anchor="middle" x="1130" y="-461.8" font-family="Times,serif" font-size="14.00" fill="#000000">accept datasetService1</text>
</g>
<!-- node_70&#45;&gt;node_74 -->
<g id="edge11" class="edge">
<title>node_70&#45;&gt;node_74</title>
<path fill="none" stroke="#000000" d="M1605.3101,-528.0596C1592.8286,-525.1252 1578.8886,-522.132 1566,-520 1412.7478,-494.6497 1369.3345,-508.6417 1211.9422,-484.0361"/>
<polygon fill="#000000" stroke="#000000" points="1212.3299,-480.5538 1201.9042,-482.4391 1211.23,-487.4669 1212.3299,-480.5538"/>
</g>
<!-- node_70&#45;&gt;node_76 -->
<g id="edge13" class="edge">
<title>node_70&#45;&gt;node_76</title>
<path fill="none" stroke="#000000" d="M1648.0375,-519.8314C1649.7487,-512.131 1651.7835,-502.9743 1653.6852,-494.4166"/>
<polygon fill="#000000" stroke="#000000" points="1657.1554,-494.9344 1655.9082,-484.4133 1650.3221,-493.4159 1657.1554,-494.9344"/>
</g>
<!-- node_72 -->
<g id="node16" class="node">
<title>node_72</title>
<polygon fill="none" stroke="#000000" points="1556.5381,-556 1479.4619,-556 1479.4619,-520 1556.5381,-520 1556.5381,-556"/>
<text text-anchor="middle" x="1518" y="-533.8" font-family="Times,serif" font-size="14.00" fill="#000000">send graph</text>
</g>
<!-- node_72&#45;&gt;node_66 -->
<g id="edge16" class="edge">
<title>node_72&#45;&gt;node_66</title>
<path fill="none" stroke="#000000" d="M1514.2149,-519.8314C1512.6106,-512.131 1510.703,-502.9743 1508.9201,-494.4166"/>
<polygon fill="#000000" stroke="#000000" points="1512.3021,-493.4892 1506.8361,-484.4133 1505.4493,-494.9169 1512.3021,-493.4892"/>
</g>
<!-- node_72&#45;&gt;node_67 -->
<g id="edge17" class="edge">
<title>node_72&#45;&gt;node_67</title>
<path fill="none" stroke="#000000" d="M1556.752,-528.4106C1569.2369,-525.4949 1583.1632,-522.4241 1596,-520 1700.559,-500.2552 1731.2159,-507.3586 1839.0873,-484.0245"/>
<polygon fill="#000000" stroke="#000000" points="1840.0558,-487.3952 1849.0695,-481.8271 1838.5508,-480.5589 1840.0558,-487.3952"/>
</g>
<!-- node_72&#45;&gt;node_71 -->
<g id="edge21" class="edge">
<title>node_72&#45;&gt;node_71</title>
<path fill="none" stroke="#000000" d="M1478.9928,-524.6261C1448.5265,-514.1805 1405.5948,-499.4611 1370.3719,-487.3846"/>
<polygon fill="#000000" stroke="#000000" points="1371.253,-483.9868 1360.6584,-484.0543 1368.9827,-490.6084 1371.253,-483.9868"/>
</g>
<!-- node_72&#45;&gt;node_73 -->
<g id="edge8" class="edge">
<title>node_72&#45;&gt;node_73</title>
<path fill="none" stroke="#000000" d="M1556.8202,-527.9946C1595.4916,-517.9448 1656.7992,-501.7906 1718.9833,-484.2504"/>
<polygon fill="#000000" stroke="#000000" points="1720.299,-487.5155 1728.9676,-481.4241 1718.3924,-480.7802 1720.299,-487.5155"/>
</g>
<!-- node_72&#45;&gt;node_74 -->
<g id="edge9" class="edge">
<title>node_72&#45;&gt;node_74</title>
<path fill="none" stroke="#000000" d="M1479.1263,-531.7327C1422.5814,-522.4916 1314.1201,-504.2966 1211.8313,-484.1225"/>
<polygon fill="#000000" stroke="#000000" points="1212.4434,-480.6758 1201.9536,-482.1642 1211.0821,-487.5421 1212.4434,-480.6758"/>
</g>
<!-- node_72&#45;&gt;node_76 -->
<g id="edge12" class="edge">
<title>node_72&#45;&gt;node_76</title>
<path fill="none" stroke="#000000" d="M1553.8326,-519.8314C1572.4157,-510.4089 1595.2989,-498.8062 1615.0565,-488.7883"/>
<polygon fill="#000000" stroke="#000000" points="1616.8427,-491.8069 1624.1789,-484.1628 1613.677,-485.5635 1616.8427,-491.8069"/>
</g>
<!-- node_73&#45;&gt;node_68 -->
<g id="edge18" class="edge">
<title>node_73&#45;&gt;node_68</title>
<path fill="none" stroke="#000000" d="M1750.476,-447.8314C1735.5109,-438.6221 1717.1614,-427.3301 1701.1397,-417.4706"/>
<polygon fill="#000000" stroke="#000000" points="1702.8655,-414.423 1692.5146,-412.1628 1699.1968,-420.3847 1702.8655,-414.423"/>
</g>
<!-- node_55 -->
<g id="node29" class="node">
<title>node_55</title>
<polygon fill="none" stroke="#000000" points="755.9004,-772 654.0996,-772 654.0996,-736 755.9004,-736 755.9004,-772"/>
<text text-anchor="middle" x="705" y="-749.8" font-family="Times,serif" font-size="14.00" fill="#000000">accept indices1</text>
</g>
<!-- node_75&#45;&gt;node_55 -->
<g id="edge45" class="edge">
<title>node_75&#45;&gt;node_55</title>
<path fill="none" stroke="#000000" stroke-dasharray="1,5" d="M1951.0396,-398.4974C2080.503,-405.7554 2312.4163,-421.9325 2392,-448 2466.9729,-472.5573 2545,-459.1077 2545,-538 2545,-610 2545,-610 2545,-610 2545,-704.2603 946.811,-726.8074 853,-736 824.333,-738.8091 792.6224,-742.5773 765.9314,-745.94"/>
<polygon fill="#000000" stroke="#000000" points="765.4435,-742.4737 755.9643,-747.2061 766.3257,-749.4179 765.4435,-742.4737"/>
</g>
<!-- node_76&#45;&gt;node_69 -->
<g id="edge15" class="edge">
<title>node_76&#45;&gt;node_69</title>
<path fill="none" stroke="#000000" d="M1611.045,-447.9243C1584.5032,-438.1243 1551.5177,-425.945 1523.6142,-415.6422"/>
<polygon fill="#000000" stroke="#000000" points="1524.5685,-412.2636 1513.9752,-412.0831 1522.1438,-418.8303 1524.5685,-412.2636"/>
</g>
<!-- node_77 -->
<g id="node21" class="node">
<title>node_77</title>
<polygon fill="none" stroke="#000000" points="1268,-556 1223.2728,-538 1268,-520 1312.7272,-538 1268,-556"/>
<text text-anchor="middle" x="1268" y="-533.8" font-family="Times,serif" font-size="14.00" fill="#000000">Client</text>
</g>
<!-- node_64 -->
<g id="node22" class="node">
<title>node_64</title>
<polygon fill="none" stroke="#000000" points="782.3176,-700 539.6824,-700 539.6824,-664 782.3176,-664 782.3176,-700"/>
<text text-anchor="middle" x="661" y="-677.8" font-family="Times,serif" font-size="14.00" fill="#000000">cast indices1 from jsonlist to builtin.List</text>
</g>
<!-- node_50 -->
<g id="node24" class="node">
<title>node_50</title>
<polygon fill="none" stroke="#000000" points="838.1035,-628 503.8965,-628 503.8965,-592 838.1035,-592 838.1035,-628"/>
<text text-anchor="middle" x="671" y="-605.8" font-family="Times,serif" font-size="14.00" fill="#000000">i1 = datasetService1::fromIndicesLabeled([indices1, &#45;1])</text>
</g>
<!-- node_64&#45;&gt;node_50 -->
<g id="edge31" class="edge">
<title>node_64&#45;&gt;node_50</title>
<path fill="none" stroke="#000000" d="M663.5234,-663.8314C664.5929,-656.131 665.8647,-646.9743 667.0532,-638.4166"/>
<polygon fill="#000000" stroke="#000000" points="670.5336,-638.7997 668.4426,-628.4133 663.6001,-637.8367 670.5336,-638.7997"/>
</g>
<!-- node_65 -->
<g id="node23" class="node">
<title>node_65</title>
<polygon fill="none" stroke="#000000" points="926,-772 862.3022,-754 926,-736 989.6978,-754 926,-772"/>
<text text-anchor="middle" x="926" y="-749.8" font-family="Times,serif" font-size="14.00" fill="#000000">executor1</text>
</g>
<!-- node_53 -->
<g id="node27" class="node">
<title>node_53</title>
<polygon fill="none" stroke="#000000" points="873.5342,-484 668.4658,-484 668.4658,-448 873.5342,-448 873.5342,-484"/>
<text text-anchor="middle" x="771" y="-461.8" font-family="Times,serif" font-size="14.00" fill="#000000">data1 = service1::preprocess([i1])</text>
</g>
<!-- node_50&#45;&gt;node_53 -->
<g id="edge23" class="edge">
<title>node_50&#45;&gt;node_53</title>
<path fill="none" stroke="#000000" d="M668.5512,-591.8912C666.8878,-572.5324 667.0756,-541.6993 681,-520 689.1557,-507.2905 701.463,-497.1506 714.3792,-489.2486"/>
<polygon fill="#000000" stroke="#000000" points="716.4134,-492.1181 723.375,-484.1314 712.9523,-486.0337 716.4134,-492.1181"/>
</g>
<!-- node_56 -->
<g id="node30" class="node">
<title>node_56</title>
<polygon fill="none" stroke="#000000" points="815.6148,-556 690.3852,-556 690.3852,-520 815.6148,-520 815.6148,-556"/>
<text text-anchor="middle" x="753" y="-533.8" font-family="Times,serif" font-size="14.00" fill="#000000">service1::train([i1])</text>
</g>
<!-- node_50&#45;&gt;node_56 -->
<g id="edge25" class="edge">
<title>node_50&#45;&gt;node_56</title>
<path fill="none" stroke="#000000" d="M691.6921,-591.8314C701.6948,-583.0485 713.855,-572.3712 724.6999,-562.8489"/>
<polygon fill="#000000" stroke="#000000" points="727.1094,-565.3909 732.3146,-556.1628 722.4908,-560.1308 727.1094,-565.3909"/>
</g>
<!-- node_58 -->
<g id="node32" class="node">
<title>node_58</title>
<polygon fill="none" stroke="#000000" points="650.0632,-484 515.9368,-484 515.9368,-448 650.0632,-448 650.0632,-484"/>
<text text-anchor="middle" x="583" y="-461.8" font-family="Times,serif" font-size="14.00" fill="#000000">store datasetService1</text>
</g>
<!-- node_50&#45;&gt;node_58 -->
<g id="edge26" class="edge">
<title>node_50&#45;&gt;node_58</title>
<path fill="none" stroke="#000000" d="M659.8547,-591.7623C644.5806,-566.7682 617.0342,-521.6924 599.4028,-492.8409"/>
<polygon fill="#000000" stroke="#000000" points="602.2558,-490.7974 594.0548,-484.0896 596.2828,-494.4475 602.2558,-490.7974"/>
</g>
<!-- node_62 -->
<g id="node36" class="node">
<title>node_62</title>
<polygon fill="none" stroke="#000000" points="1034.0098,-556 833.9902,-556 833.9902,-520 1034.0098,-520 1034.0098,-556"/>
<text text-anchor="middle" x="934" y="-533.8" font-family="Times,serif" font-size="14.00" fill="#000000">transmit datasetService1&#45;&gt;Client</text>
</g>
<!-- node_50&#45;&gt;node_62 -->
<g id="edge30" class="edge">
<title>node_50&#45;&gt;node_62</title>
<path fill="none" stroke="#000000" d="M737.0265,-591.9243C773.7618,-581.8675 819.6492,-569.3052 857.8898,-558.8363"/>
<polygon fill="#000000" stroke="#000000" points="859.2254,-562.0995 867.9463,-556.0831 857.377,-555.3479 859.2254,-562.0995"/>
</g>
<!-- node_51 -->
<g id="node25" class="node">
<title>node_51</title>
<polygon fill="none" stroke="#000000" points="913.9658,-700 800.0342,-700 800.0342,-664 913.9658,-664 913.9658,-700"/>
<text text-anchor="middle" x="857" y="-677.8" font-family="Times,serif" font-size="14.00" fill="#000000">parse Number: &#45;1</text>
</g>
<!-- node_51&#45;&gt;node_50 -->
<g id="edge37" class="edge">
<title>node_51&#45;&gt;node_50</title>
<path fill="none" stroke="#000000" d="M810.0643,-663.8314C784.8563,-654.0734 753.6074,-641.977 727.1209,-631.7242"/>
<polygon fill="#000000" stroke="#000000" points="728.1873,-628.384 717.5981,-628.038 725.6603,-634.912 728.1873,-628.384"/>
</g>
<!-- node_52 -->
<g id="node26" class="node">
<title>node_52</title>
<polygon fill="none" stroke="#000000" points="748.8561,-412 655.1439,-412 655.1439,-376 748.8561,-376 748.8561,-412"/>
<text text-anchor="middle" x="702" y="-389.8" font-family="Times,serif" font-size="14.00" fill="#000000">store service1</text>
</g>
<!-- node_57 -->
<g id="node31" class="node">
<title>node_57</title>
<polygon fill="none" stroke="#000000" points="951.1485,-340 744.8515,-340 744.8515,-304 951.1485,-304 951.1485,-340"/>
<text text-anchor="middle" x="848" y="-317.8" font-family="Times,serif" font-size="14.00" fill="#000000">FinishNode &amp;finished&amp;executor1</text>
</g>
<!-- node_52&#45;&gt;node_57 -->
<g id="edge24" class="edge">
<title>node_52&#45;&gt;node_57</title>
<path fill="none" stroke="#000000" d="M738.842,-375.8314C758.1082,-366.3302 781.8699,-354.6121 802.2992,-344.5374"/>
<polygon fill="#000000" stroke="#000000" points="804.0023,-347.6 811.423,-340.038 800.9062,-341.3219 804.0023,-347.6"/>
</g>
<!-- node_53&#45;&gt;node_52 -->
<g id="edge38" class="edge">
<title>node_53&#45;&gt;node_52</title>
<path fill="none" stroke="#000000" d="M753.5884,-447.8314C745.479,-439.3694 735.6844,-429.1489 726.818,-419.8971"/>
<polygon fill="#000000" stroke="#000000" points="729.0921,-417.2115 719.646,-412.4133 724.0382,-422.0549 729.0921,-417.2115"/>
</g>
<!-- node_61 -->
<g id="node35" class="node">
<title>node_61</title>
<polygon fill="none" stroke="#000000" points="929.9518,-412 766.0482,-412 766.0482,-376 929.9518,-376 929.9518,-412"/>
<text text-anchor="middle" x="848" y="-389.8" font-family="Times,serif" font-size="14.00" fill="#000000">transmit data1&#45;&gt;executor2</text>
</g>
<!-- node_53&#45;&gt;node_61 -->
<g id="edge27" class="edge">
<title>node_53&#45;&gt;node_61</title>
<path fill="none" stroke="#000000" d="M790.4304,-447.8314C799.732,-439.1337 811.0204,-428.5783 821.1286,-419.1265"/>
<polygon fill="#000000" stroke="#000000" points="823.6621,-421.5493 828.5759,-412.1628 818.8811,-416.4363 823.6621,-421.5493"/>
</g>
<!-- node_54 -->
<g id="node28" class="node">
<title>node_54</title>
<polygon fill="none" stroke="#000000" points="347.6479,-772 190.3521,-772 190.3521,-736 347.6479,-736 347.6479,-772"/>
<text text-anchor="middle" x="269" y="-749.8" font-family="Times,serif" font-size="14.00" fill="#000000">parse String: weather.arff</text>
</g>
<!-- node_63 -->
<g id="node37" class="node">
<title>node_63</title>
<polygon fill="none" stroke="#000000" points="521.6856,-700 16.3144,-700 16.3144,-664 521.6856,-664 521.6856,-700"/>
<text text-anchor="middle" x="269" y="-677.8" font-family="Times,serif" font-size="14.00" fill="#000000">datasetService1 = de.upb.sede.services.mls.DataSetService::__construct([weather.arff])</text>
</g>
<!-- node_54&#45;&gt;node_63 -->
<g id="edge28" class="edge">
<title>node_54&#45;&gt;node_63</title>
<path fill="none" stroke="#000000" d="M269,-735.8314C269,-728.131 269,-718.9743 269,-710.4166"/>
<polygon fill="#000000" stroke="#000000" points="272.5001,-710.4132 269,-700.4133 265.5001,-710.4133 272.5001,-710.4132"/>
</g>
<!-- node_55&#45;&gt;node_64 -->
<g id="edge29" class="edge">
<title>node_55&#45;&gt;node_64</title>
<path fill="none" stroke="#000000" d="M693.8969,-735.8314C688.9326,-727.7079 682.9778,-717.9637 677.5072,-709.0118"/>
<polygon fill="#000000" stroke="#000000" points="680.4536,-707.121 672.2526,-700.4133 674.4806,-710.7712 680.4536,-707.121"/>
</g>
<!-- node_56&#45;&gt;node_53 -->
<g id="edge36" class="edge">
<title>node_56&#45;&gt;node_53</title>
<path fill="none" stroke="#000000" d="M757.5422,-519.8314C759.4884,-512.0463 761.8068,-502.7729 763.9663,-494.1347"/>
<polygon fill="#000000" stroke="#000000" points="767.3668,-494.9636 766.3967,-484.4133 760.5758,-493.2658 767.3668,-494.9636"/>
</g>
<!-- node_57&#45;&gt;node_71 -->
<g id="edge48" class="edge">
<title>node_57&#45;&gt;node_71</title>
<path fill="none" stroke="#000000" stroke-dasharray="1,5" d="M905.5571,-340.0179C990.7482,-366.6864 1150.0611,-416.5583 1240.5913,-444.8982"/>
<polygon fill="#000000" stroke="#000000" points="1239.6175,-448.2607 1250.2065,-447.9081 1241.7088,-441.5804 1239.6175,-448.2607"/>
</g>
<!-- node_58&#45;&gt;node_57 -->
<g id="edge39" class="edge">
<title>node_58&#45;&gt;node_57</title>
<path fill="none" stroke="#000000" d="M589.6982,-447.7232C598.8699,-425.349 617.5187,-387.9775 646,-368 661.2721,-357.2877 697.3331,-347.7041 734.8284,-340.0933"/>
<polygon fill="#000000" stroke="#000000" points="735.7701,-343.4749 744.9008,-338.1008 734.4117,-336.608 735.7701,-343.4749"/>
</g>
<!-- node_60 -->
<g id="node34" class="node">
<title>node_60</title>
<polygon fill="none" stroke="#000000" points="987.2455,-628 896.7545,-628 896.7545,-592 987.2455,-592 987.2455,-628"/>
<text text-anchor="middle" x="942" y="-605.8" font-family="Times,serif" font-size="14.00" fill="#000000">load service1</text>
</g>
<!-- node_59&#45;&gt;node_60 -->
<g id="edge22" class="edge">
<title>node_59&#45;&gt;node_60</title>
<path fill="none" stroke="#000000" d="M972.654,-663.8314C968.0763,-655.7925 962.5948,-646.1666 957.5412,-637.2918"/>
<polygon fill="#000000" stroke="#000000" points="960.4752,-635.3712 952.4853,-628.4133 954.3923,-638.8351 960.4752,-635.3712"/>
</g>
<!-- node_60&#45;&gt;node_56 -->
<g id="edge34" class="edge">
<title>node_60&#45;&gt;node_56</title>
<path fill="none" stroke="#000000" d="M896.7298,-592.7542C870.7445,-582.855 837.869,-570.3311 810.12,-559.76"/>
<polygon fill="#000000" stroke="#000000" points="811.1291,-556.3991 800.5383,-556.1098 808.6371,-562.9405 811.1291,-556.3991"/>
</g>
<!-- node_61&#45;&gt;node_43 -->
<g id="edge49" class="edge">
<title>node_61&#45;&gt;node_43</title>
<path fill="none" stroke="#000000" stroke-dasharray="1,5" d="M929.9927,-377.3197C965.8684,-369.4138 1008.2903,-359.2388 1046,-348 1052.0266,-346.2039 1058.284,-344.1695 1064.4748,-342.0489"/>
<polygon fill="#000000" stroke="#000000" points="1065.8298,-345.2827 1074.1056,-338.6674 1063.5107,-338.678 1065.8298,-345.2827"/>
</g>
<!-- node_61&#45;&gt;node_57 -->
<g id="edge35" class="edge">
<title>node_61&#45;&gt;node_57</title>
<path fill="none" stroke="#000000" d="M848,-375.8314C848,-368.131 848,-358.9743 848,-350.4166"/>
<polygon fill="#000000" stroke="#000000" points="851.5001,-350.4132 848,-340.4133 844.5001,-350.4133 851.5001,-350.4132"/>
</g>
<!-- node_62&#45;&gt;node_74 -->
<g id="edge47" class="edge">
<title>node_62&#45;&gt;node_74</title>
<path fill="none" stroke="#000000" stroke-dasharray="1,5" d="M983.2061,-519.9243C1009.8839,-510.1243 1043.0386,-497.945 1071.0852,-487.6422"/>
<polygon fill="#000000" stroke="#000000" points="1072.5938,-490.8167 1080.7737,-484.0831 1070.1801,-484.246 1072.5938,-490.8167"/>
</g>
<!-- node_62&#45;&gt;node_57 -->
<g id="edge33" class="edge">
<title>node_62&#45;&gt;node_57</title>
<path fill="none" stroke="#000000" d="M940.5173,-519.9774C951.2194,-487.0259 968.5438,-416.0381 939,-368 933.3199,-358.7642 925.1486,-351.3146 916.0033,-345.3252"/>
<polygon fill="#000000" stroke="#000000" points="917.764,-342.3003 907.3743,-340.2259 914.2027,-348.3267 917.764,-342.3003"/>
</g>
<!-- node_63&#45;&gt;node_50 -->
<g id="edge32" class="edge">
<title>node_63&#45;&gt;node_50</title>
<path fill="none" stroke="#000000" d="M369.6635,-663.9707C427.594,-653.5951 500.4797,-640.5409 560.0579,-629.8702"/>
<polygon fill="#000000" stroke="#000000" points="561.0325,-633.2515 570.2588,-628.0432 559.7983,-626.3611 561.0325,-633.2515"/>
</g>
<!-- node_78 -->
<g id="node38" class="node">
<title>node_78</title>
<polygon fill="none" stroke="#000000" points="2479.3165,-556 2320.6835,-556 2320.6835,-520 2479.3165,-520 2479.3165,-556"/>
<text text-anchor="middle" x="2400" y="-533.8" font-family="Times,serif" font-size="14.00" fill="#000000">transmit indices1&#45;&gt;Client</text>
</g>
<!-- node_78&#45;&gt;node_67 -->
<g id="edge41" class="edge">
<title>node_78&#45;&gt;node_67</title>
<path fill="none" stroke="#000000" stroke-dasharray="1,5" d="M2320.4738,-521.6335C2317.2772,-521.0652 2314.11,-520.5182 2311,-520 2187.2697,-499.3849 2041.5038,-481.8096 1961.0624,-472.6909"/>
<polygon fill="#000000" stroke="#000000" points="1961.4357,-469.2109 1951.1063,-471.5677 1960.6509,-476.1667 1961.4357,-469.2109"/>
</g>
<!-- node_79 -->
<g id="node39" class="node">
<title>node_79</title>
<polygon fill="none" stroke="#000000" points="2302.3029,-556 2143.6971,-556 2143.6971,-520 2302.3029,-520 2302.3029,-556"/>
<text text-anchor="middle" x="2223" y="-533.8" font-family="Times,serif" font-size="14.00" fill="#000000">transmit service1&#45;&gt;Client</text>
</g>
<!-- node_79&#45;&gt;node_73 -->
<g id="edge44" class="edge">
<title>node_79&#45;&gt;node_73</title>
<path fill="none" stroke="#000000" stroke-dasharray="1,5" d="M2143.4796,-521.5986C2140.2814,-521.04 2137.1122,-520.5045 2134,-520 2007.226,-499.4504 1970.6176,-510.4409 1840.8332,-483.9729"/>
<polygon fill="#000000" stroke="#000000" points="1841.4142,-480.5189 1830.9117,-481.9143 1839.992,-487.373 1841.4142,-480.5189"/>
</g>
</g>
</svg>
