<?xml version="1.0" encoding="UTF-8" standalone="no"?>
<!DOCTYPE svg PUBLIC "-//W3C//DTD SVG 1.1//EN"
 "http://www.w3.org/Graphics/SVG/1.1/DTD/svg11.dtd">
<!-- Generated by graphviz version 2.40.1 (20161225.0304)
 -->
<!-- Title: %3 Pages: 1 -->
<svg width="2953pt" height="796pt"
 viewBox="0.00 0.00 2953.00 796.00" xmlns="http://www.w3.org/2000/svg" xmlns:xlink="http://www.w3.org/1999/xlink">
<g id="graph0" class="graph" transform="scale(1 1) rotate(0) translate(4 792)">
<title>%3</title>
<polygon fill="#ffffff" stroke="transparent" points="-4,4 -4,-792 2949,-792 2949,4 -4,4"/>
<g id="clust1" class="cluster">
<title>cluster_638244907</title>
<polygon fill="none" stroke="#000000" points="409,-296 409,-492 1317,-492 1317,-296 409,-296"/>
</g>
<g id="clust2" class="cluster">
<title>cluster_491454503</title>
<polygon fill="none" stroke="#000000" points="2537,-8 2537,-348 2937,-348 2937,-8 2537,-8"/>
</g>
<g id="clust3" class="cluster">
<title>cluster_807417757</title>
<polygon fill="none" stroke="#000000" points="1491,-296 1491,-780 2529,-780 2529,-296 1491,-296"/>
</g>
<!-- node_80 -->
<g id="node1" class="node">
<title>node_80</title>
<polygon fill="none" stroke="#000000" points="224.3165,-484 65.6835,-484 65.6835,-448 224.3165,-448 224.3165,-484"/>
<text text-anchor="middle" x="145" y="-461.8" font-family="Times,serif" font-size="14.00" fill="#000000">transmit indices1&#45;&gt;Client</text>
</g>
<!-- node_70 -->
<g id="node6" class="node">
<title>node_70</title>
<polygon fill="none" stroke="#000000" points="518.9004,-412 417.0996,-412 417.0996,-376 518.9004,-376 518.9004,-412"/>
<text text-anchor="middle" x="468" y="-389.8" font-family="Times,serif" font-size="14.00" fill="#000000">accept indices1</text>
</g>
<!-- node_80&#45;&gt;node_70 -->
<g id="edge44" class="edge">
<title>node_80&#45;&gt;node_70</title>
<path fill="none" stroke="#000000" stroke-dasharray="1,5" d="M224.4284,-448.2946C280.6409,-435.7642 354.9207,-419.2065 406.6091,-407.6847"/>
<polygon fill="#000000" stroke="#000000" points="407.6346,-411.042 416.6336,-405.4501 406.1116,-404.2097 407.6346,-411.042"/>
</g>
<!-- node_66 -->
<g id="node2" class="node">
<title>node_66</title>
<polygon fill="none" stroke="#000000" points="833.0562,-412 656.9438,-412 656.9438,-376 833.0562,-376 833.0562,-412"/>
<text text-anchor="middle" x="745" y="-389.8" font-family="Times,serif" font-size="14.00" fill="#000000">accept &amp;finished&amp;executor2</text>
</g>
<!-- node_67 -->
<g id="node3" class="node">
<title>node_67</title>
<polygon fill="none" stroke="#000000" points="953.5381,-484 876.4619,-484 876.4619,-448 953.5381,-448 953.5381,-484"/>
<text text-anchor="middle" x="915" y="-461.8" font-family="Times,serif" font-size="14.00" fill="#000000">send graph</text>
</g>
<!-- node_67&#45;&gt;node_66 -->
<g id="edge13" class="edge">
<title>node_67&#45;&gt;node_66</title>
<path fill="none" stroke="#000000" d="M876.4244,-449.6621C852.8673,-439.685 822.4478,-426.8014 796.8083,-415.9423"/>
<polygon fill="#000000" stroke="#000000" points="798.1732,-412.7195 787.6,-412.0423 795.4432,-419.1652 798.1732,-412.7195"/>
</g>
<!-- node_68 -->
<g id="node4" class="node">
<title>node_68</title>
<polygon fill="none" stroke="#000000" points="638.8868,-412 537.1132,-412 537.1132,-376 638.8868,-376 638.8868,-412"/>
<text text-anchor="middle" x="588" y="-389.8" font-family="Times,serif" font-size="14.00" fill="#000000">accept service2</text>
</g>
<!-- node_67&#45;&gt;node_68 -->
<g id="edge1" class="edge">
<title>node_67&#45;&gt;node_68</title>
<path fill="none" stroke="#000000" d="M876.3608,-458.6396C816.9583,-447.252 704.9785,-425.4829 648.7916,-412.0473"/>
<polygon fill="#000000" stroke="#000000" points="649.5206,-408.6225 638.9748,-409.6399 647.8534,-415.421 649.5206,-408.6225"/>
</g>
<!-- node_67&#45;&gt;node_70 -->
<g id="edge4" class="edge">
<title>node_67&#45;&gt;node_70</title>
<path fill="none" stroke="#000000" d="M876.3857,-458.2849C858.642,-454.8813 837.2961,-450.9853 818,-448 692.7824,-428.6276 656.8359,-438.2544 528.7081,-411.9516"/>
<polygon fill="#000000" stroke="#000000" points="529.4169,-408.5242 518.9129,-409.9084 527.9875,-415.3767 529.4169,-408.5242"/>
</g>
<!-- node_71 -->
<g id="node7" class="node">
<title>node_71</title>
<polygon fill="none" stroke="#000000" points="1028.0562,-412 851.9438,-412 851.9438,-376 1028.0562,-376 1028.0562,-412"/>
<text text-anchor="middle" x="940" y="-389.8" font-family="Times,serif" font-size="14.00" fill="#000000">accept &amp;finished&amp;executor1</text>
</g>
<!-- node_67&#45;&gt;node_71 -->
<g id="edge5" class="edge">
<title>node_67&#45;&gt;node_71</title>
<path fill="none" stroke="#000000" d="M921.3086,-447.8314C924.0117,-440.0463 927.2316,-430.7729 930.231,-422.1347"/>
<polygon fill="#000000" stroke="#000000" points="933.6327,-423.0081 933.6065,-412.4133 927.02,-420.7119 933.6327,-423.0081"/>
</g>
<!-- node_72 -->
<g id="node8" class="node">
<title>node_72</title>
<polygon fill="none" stroke="#000000" points="1147.8868,-412 1046.1132,-412 1046.1132,-376 1147.8868,-376 1147.8868,-412"/>
<text text-anchor="middle" x="1097" y="-389.8" font-family="Times,serif" font-size="14.00" fill="#000000">accept service1</text>
</g>
<!-- node_67&#45;&gt;node_72 -->
<g id="edge6" class="edge">
<title>node_67&#45;&gt;node_72</title>
<path fill="none" stroke="#000000" d="M953.5975,-450.7307C979.2842,-440.5689 1013.4211,-427.0642 1041.9444,-415.7802"/>
<polygon fill="#000000" stroke="#000000" points="1043.3707,-418.98 1051.382,-412.0467 1040.7956,-412.4708 1043.3707,-418.98"/>
</g>
<!-- node_75 -->
<g id="node11" class="node">
<title>node_75</title>
<polygon fill="none" stroke="#000000" points="1308.5938,-412 1165.4062,-412 1165.4062,-376 1308.5938,-376 1308.5938,-412"/>
<text text-anchor="middle" x="1237" y="-389.8" font-family="Times,serif" font-size="14.00" fill="#000000">accept datasetService1</text>
</g>
<!-- node_67&#45;&gt;node_75 -->
<g id="edge7" class="edge">
<title>node_67&#45;&gt;node_75</title>
<path fill="none" stroke="#000000" d="M953.5645,-457.4168C999.3657,-447.218 1078.3532,-429.6142 1155.1977,-412.4023"/>
<polygon fill="#000000" stroke="#000000" points="1156.0502,-415.7982 1165.0431,-410.1966 1154.5198,-408.9675 1156.0502,-415.7982"/>
</g>
<!-- node_76 -->
<g id="node12" class="node">
<title>node_76</title>
<polygon fill="none" stroke="#000000" points="891.7755,-340 712.2245,-340 712.2245,-304 891.7755,-304 891.7755,-340"/>
<text text-anchor="middle" x="802" y="-317.8" font-family="Times,serif" font-size="14.00" fill="#000000">transmit service2&#45;&gt;executor2</text>
</g>
<!-- node_68&#45;&gt;node_76 -->
<g id="edge8" class="edge">
<title>node_68&#45;&gt;node_76</title>
<path fill="none" stroke="#000000" d="M638.9864,-376.8457C668.9002,-366.7812 706.9482,-353.98 738.761,-343.2767"/>
<polygon fill="#000000" stroke="#000000" points="740.056,-346.5338 748.4178,-340.0277 737.8237,-339.8993 740.056,-346.5338"/>
</g>
<!-- node_69 -->
<g id="node5" class="node">
<title>node_69</title>
<polygon fill="none" stroke="#000000" points="596.7892,-340 417.2108,-340 417.2108,-304 596.7892,-304 596.7892,-340"/>
<text text-anchor="middle" x="507" y="-317.8" font-family="Times,serif" font-size="14.00" fill="#000000">transmit indices1&#45;&gt;executor1</text>
</g>
<!-- node_56 -->
<g id="node30" class="node">
<title>node_56</title>
<polygon fill="none" stroke="#000000" points="1761.9004,-772 1660.0996,-772 1660.0996,-736 1761.9004,-736 1761.9004,-772"/>
<text text-anchor="middle" x="1711" y="-749.8" font-family="Times,serif" font-size="14.00" fill="#000000">accept indices1</text>
</g>
<!-- node_69&#45;&gt;node_56 -->
<g id="edge41" class="edge">
<title>node_69&#45;&gt;node_56</title>
<path fill="none" stroke="#000000" stroke-dasharray="1,5" d="M416.9121,-327.8899C315.1007,-335.6119 156.4583,-351.1714 102,-376 46.99,-401.0801 0,-405.5425 0,-466 0,-610 0,-610 0,-610 0,-694.5567 1344.391,-742.3542 1649.7925,-752.1214"/>
<polygon fill="#000000" stroke="#000000" points="1649.6869,-755.6197 1659.7932,-752.4394 1649.9095,-748.6232 1649.6869,-755.6197"/>
</g>
<!-- node_70&#45;&gt;node_69 -->
<g id="edge14" class="edge">
<title>node_70&#45;&gt;node_69</title>
<path fill="none" stroke="#000000" d="M477.8413,-375.8314C482.1957,-367.7925 487.4098,-358.1666 492.2169,-349.2918"/>
<polygon fill="#000000" stroke="#000000" points="495.3408,-350.8732 497.0261,-340.4133 489.1857,-347.5392 495.3408,-350.8732"/>
</g>
<!-- node_74 -->
<g id="node10" class="node">
<title>node_74</title>
<polygon fill="none" stroke="#000000" points="1137.7755,-340 958.2245,-340 958.2245,-304 1137.7755,-304 1137.7755,-340"/>
<text text-anchor="middle" x="1048" y="-317.8" font-family="Times,serif" font-size="14.00" fill="#000000">transmit service1&#45;&gt;executor1</text>
</g>
<!-- node_72&#45;&gt;node_74 -->
<g id="edge2" class="edge">
<title>node_72&#45;&gt;node_74</title>
<path fill="none" stroke="#000000" d="M1084.6352,-375.8314C1079.0491,-367.6232 1072.337,-357.7606 1066.1928,-348.7323"/>
<polygon fill="#000000" stroke="#000000" points="1069.051,-346.7112 1060.5313,-340.4133 1063.264,-350.6496 1069.051,-346.7112"/>
</g>
<!-- node_73 -->
<g id="node9" class="node">
<title>node_73</title>
<polygon fill="none" stroke="#000000" points="808.5381,-484 731.4619,-484 731.4619,-448 808.5381,-448 808.5381,-484"/>
<text text-anchor="middle" x="770" y="-461.8" font-family="Times,serif" font-size="14.00" fill="#000000">send graph</text>
</g>
<!-- node_73&#45;&gt;node_66 -->
<g id="edge9" class="edge">
<title>node_73&#45;&gt;node_66</title>
<path fill="none" stroke="#000000" d="M763.6914,-447.8314C760.9883,-440.0463 757.7684,-430.7729 754.769,-422.1347"/>
<polygon fill="#000000" stroke="#000000" points="757.98,-420.7119 751.3935,-412.4133 751.3673,-423.0081 757.98,-420.7119"/>
</g>
<!-- node_73&#45;&gt;node_68 -->
<g id="edge10" class="edge">
<title>node_73&#45;&gt;node_68</title>
<path fill="none" stroke="#000000" d="M731.4025,-450.7307C705.7158,-440.5689 671.5789,-427.0642 643.0556,-415.7802"/>
<polygon fill="#000000" stroke="#000000" points="644.2044,-412.4708 633.618,-412.0467 641.6293,-418.98 644.2044,-412.4708"/>
</g>
<!-- node_73&#45;&gt;node_70 -->
<g id="edge11" class="edge">
<title>node_73&#45;&gt;node_70</title>
<path fill="none" stroke="#000000" d="M731.2342,-458.2465C685.2385,-448.8497 606.0551,-432.0538 528.8811,-412.1415"/>
<polygon fill="#000000" stroke="#000000" points="529.5517,-408.6995 518.9927,-409.5698 527.7898,-415.4742 529.5517,-408.6995"/>
</g>
<!-- node_73&#45;&gt;node_71 -->
<g id="edge12" class="edge">
<title>node_73&#45;&gt;node_71</title>
<path fill="none" stroke="#000000" d="M808.5756,-449.6621C832.1327,-439.685 862.5522,-426.8014 888.1917,-415.9423"/>
<polygon fill="#000000" stroke="#000000" points="889.5568,-419.1652 897.4,-412.0423 886.8268,-412.7195 889.5568,-419.1652"/>
</g>
<!-- node_73&#45;&gt;node_72 -->
<g id="edge15" class="edge">
<title>node_73&#45;&gt;node_72</title>
<path fill="none" stroke="#000000" d="M808.6392,-458.6396C868.0417,-447.252 980.0215,-425.4829 1036.2084,-412.0473"/>
<polygon fill="#000000" stroke="#000000" points="1037.1466,-415.421 1046.0252,-409.6399 1035.4794,-408.6225 1037.1466,-415.421"/>
</g>
<!-- node_73&#45;&gt;node_75 -->
<g id="edge3" class="edge">
<title>node_73&#45;&gt;node_75</title>
<path fill="none" stroke="#000000" d="M808.6143,-458.2849C826.358,-454.8813 847.7039,-450.9853 867,-448 992.0923,-428.647 1027.2752,-433.9866 1154.939,-412.2769"/>
<polygon fill="#000000" stroke="#000000" points="1155.8481,-415.6719 1165.1083,-410.5241 1154.6591,-408.7736 1155.8481,-415.6719"/>
</g>
<!-- node_53 -->
<g id="node27" class="node">
<title>node_53</title>
<polygon fill="none" stroke="#000000" points="1600.8868,-700 1499.1132,-700 1499.1132,-664 1600.8868,-664 1600.8868,-700"/>
<text text-anchor="middle" x="1550" y="-677.8" font-family="Times,serif" font-size="14.00" fill="#000000">accept service1</text>
</g>
<!-- node_74&#45;&gt;node_53 -->
<g id="edge49" class="edge">
<title>node_74&#45;&gt;node_53</title>
<path fill="none" stroke="#000000" stroke-dasharray="1,5" d="M958.0687,-339.6427C939.272,-342.8415 919.535,-345.8422 901,-348 824.4141,-356.916 38,-332.1749 38,-466 38,-538 38,-538 38,-538 38,-612.1523 1205.671,-667.183 1488.7414,-679.4342"/>
<polygon fill="#000000" stroke="#000000" points="1488.6852,-682.935 1498.8267,-679.8688 1488.9866,-675.9415 1488.6852,-682.935"/>
</g>
<!-- node_46 -->
<g id="node20" class="node">
<title>node_46</title>
<polygon fill="none" stroke="#000000" points="2646.8868,-340 2545.1132,-340 2545.1132,-304 2646.8868,-304 2646.8868,-340"/>
<text text-anchor="middle" x="2596" y="-317.8" font-family="Times,serif" font-size="14.00" fill="#000000">accept service2</text>
</g>
<!-- node_76&#45;&gt;node_46 -->
<g id="edge40" class="edge">
<title>node_76&#45;&gt;node_46</title>
<path fill="none" stroke="#000000" stroke-dasharray="1,5" d="M858.0262,-340.0009C887.4453,-348.5217 924.2964,-357.7478 958,-362 1044.3157,-372.89 2439.7815,-383.8232 2524,-362 2537.2162,-358.5753 2550.5891,-352.1414 2562.1636,-345.4191"/>
<polygon fill="#000000" stroke="#000000" points="2564.3066,-348.2118 2571.0232,-340.0181 2560.6629,-342.2349 2564.3066,-348.2118"/>
</g>
<!-- node_77 -->
<g id="node13" class="node">
<title>node_77</title>
<polygon fill="none" stroke="#000000" points="579,-484 534.2728,-466 579,-448 623.7272,-466 579,-484"/>
<text text-anchor="middle" x="579" y="-461.8" font-family="Times,serif" font-size="14.00" fill="#000000">Client</text>
</g>
<!-- node_48 -->
<g id="node14" class="node">
<title>node_48</title>
<polygon fill="none" stroke="#000000" points="2635.2455,-268 2544.7545,-268 2544.7545,-232 2635.2455,-232 2635.2455,-268"/>
<text text-anchor="middle" x="2590" y="-245.8" font-family="Times,serif" font-size="14.00" fill="#000000">load service2</text>
</g>
<!-- node_43 -->
<g id="node17" class="node">
<title>node_43</title>
<polygon fill="none" stroke="#000000" points="2720.542,-196 2575.458,-196 2575.458,-160 2720.542,-160 2720.542,-196"/>
<text text-anchor="middle" x="2648" y="-173.8" font-family="Times,serif" font-size="14.00" fill="#000000">service2::train([data1])</text>
</g>
<!-- node_48&#45;&gt;node_43 -->
<g id="edge20" class="edge">
<title>node_48&#45;&gt;node_43</title>
<path fill="none" stroke="#000000" d="M2604.6358,-231.8314C2611.3161,-223.5386 2619.3568,-213.557 2626.6904,-204.4533"/>
<polygon fill="#000000" stroke="#000000" points="2629.6194,-206.3965 2633.1671,-196.4133 2624.1681,-202.0052 2629.6194,-206.3965"/>
</g>
<!-- node_49 -->
<g id="node15" class="node">
<title>node_49</title>
<polygon fill="none" stroke="#000000" points="2856,-340 2792.3022,-322 2856,-304 2919.6978,-322 2856,-340"/>
<text text-anchor="middle" x="2856" y="-317.8" font-family="Times,serif" font-size="14.00" fill="#000000">executor2</text>
</g>
<!-- node_42 -->
<g id="node16" class="node">
<title>node_42</title>
<polygon fill="none" stroke="#000000" points="2751.1485,-52 2544.8515,-52 2544.8515,-16 2751.1485,-16 2751.1485,-52"/>
<text text-anchor="middle" x="2648" y="-29.8" font-family="Times,serif" font-size="14.00" fill="#000000">FinishNode &amp;finished&amp;executor2</text>
</g>
<!-- node_42&#45;&gt;node_66 -->
<g id="edge45" class="edge">
<title>node_42&#45;&gt;node_66</title>
<path fill="none" stroke="#000000" stroke-dasharray="1,5" d="M2544.8215,-39.7846C2232.5671,-57.9674 1319,-116.4264 1319,-178 1319,-250 1319,-250 1319,-250 1319,-337.982 1230.9248,-321.5905 1147,-348 1017.5739,-388.7278 977.4163,-357.5035 843,-376 842.8982,-376.014 842.7964,-376.028 842.6946,-376.0421"/>
<polygon fill="#000000" stroke="#000000" points="842.483,-372.5361 833.0887,-377.4348 843.4874,-379.4637 842.483,-372.5361"/>
</g>
<!-- node_47 -->
<g id="node21" class="node">
<title>node_47</title>
<polygon fill="none" stroke="#000000" points="2694.8561,-124 2601.1439,-124 2601.1439,-88 2694.8561,-88 2694.8561,-124"/>
<text text-anchor="middle" x="2648" y="-101.8" font-family="Times,serif" font-size="14.00" fill="#000000">store service2</text>
</g>
<!-- node_43&#45;&gt;node_47 -->
<g id="edge18" class="edge">
<title>node_43&#45;&gt;node_47</title>
<path fill="none" stroke="#000000" d="M2648,-159.8314C2648,-152.131 2648,-142.9743 2648,-134.4166"/>
<polygon fill="#000000" stroke="#000000" points="2651.5001,-134.4132 2648,-124.4133 2644.5001,-134.4133 2651.5001,-134.4132"/>
</g>
<!-- node_44 -->
<g id="node18" class="node">
<title>node_44</title>
<polygon fill="none" stroke="#000000" points="2766.5636,-340 2681.4364,-340 2681.4364,-304 2766.5636,-304 2766.5636,-340"/>
<text text-anchor="middle" x="2724" y="-317.8" font-family="Times,serif" font-size="14.00" fill="#000000">accept data1</text>
</g>
<!-- node_45 -->
<g id="node19" class="node">
<title>node_45</title>
<polygon fill="none" stroke="#000000" points="2928.7736,-268 2653.2264,-268 2653.2264,-232 2928.7736,-232 2928.7736,-268"/>
<text text-anchor="middle" x="2791" y="-245.8" font-family="Times,serif" font-size="14.00" fill="#000000">cast data1 from dataset to weka.core.Instances</text>
</g>
<!-- node_44&#45;&gt;node_45 -->
<g id="edge16" class="edge">
<title>node_44&#45;&gt;node_45</title>
<path fill="none" stroke="#000000" d="M2740.9069,-303.8314C2748.7813,-295.3694 2758.292,-285.1489 2766.9013,-275.8971"/>
<polygon fill="#000000" stroke="#000000" points="2769.6153,-278.1183 2773.8654,-268.4133 2764.4908,-273.3497 2769.6153,-278.1183"/>
</g>
<!-- node_45&#45;&gt;node_43 -->
<g id="edge21" class="edge">
<title>node_45&#45;&gt;node_43</title>
<path fill="none" stroke="#000000" d="M2754.9151,-231.8314C2736.2011,-222.4089 2713.1568,-210.8062 2693.26,-200.7883"/>
<polygon fill="#000000" stroke="#000000" points="2694.5792,-197.5339 2684.0734,-196.1628 2691.4311,-203.7861 2694.5792,-197.5339"/>
</g>
<!-- node_46&#45;&gt;node_48 -->
<g id="edge17" class="edge">
<title>node_46&#45;&gt;node_48</title>
<path fill="none" stroke="#000000" d="M2594.4859,-303.8314C2593.8442,-296.131 2593.0812,-286.9743 2592.3681,-278.4166"/>
<polygon fill="#000000" stroke="#000000" points="2595.8529,-278.088 2591.5344,-268.4133 2588.8771,-278.6694 2595.8529,-278.088"/>
</g>
<!-- node_47&#45;&gt;node_42 -->
<g id="edge19" class="edge">
<title>node_47&#45;&gt;node_42</title>
<path fill="none" stroke="#000000" d="M2648,-87.8314C2648,-80.131 2648,-70.9743 2648,-62.4166"/>
<polygon fill="#000000" stroke="#000000" points="2651.5001,-62.4132 2648,-52.4133 2644.5001,-62.4133 2651.5001,-62.4132"/>
</g>
<!-- node_64 -->
<g id="node22" class="node">
<title>node_64</title>
<polygon fill="none" stroke="#000000" points="1924.5342,-484 1719.4658,-484 1719.4658,-448 1924.5342,-448 1924.5342,-484"/>
<text text-anchor="middle" x="1822" y="-461.8" font-family="Times,serif" font-size="14.00" fill="#000000">data1 = service1::preprocess([i1])</text>
</g>
<!-- node_55 -->
<g id="node29" class="node">
<title>node_55</title>
<polygon fill="none" stroke="#000000" points="1913.9518,-412 1750.0482,-412 1750.0482,-376 1913.9518,-376 1913.9518,-412"/>
<text text-anchor="middle" x="1832" y="-389.8" font-family="Times,serif" font-size="14.00" fill="#000000">transmit data1&#45;&gt;executor2</text>
</g>
<!-- node_64&#45;&gt;node_55 -->
<g id="edge35" class="edge">
<title>node_64&#45;&gt;node_55</title>
<path fill="none" stroke="#000000" d="M1824.5234,-447.8314C1825.5929,-440.131 1826.8647,-430.9743 1828.0532,-422.4166"/>
<polygon fill="#000000" stroke="#000000" points="1831.5336,-422.7997 1829.4426,-412.4133 1824.6001,-421.8367 1831.5336,-422.7997"/>
</g>
<!-- node_60 -->
<g id="node34" class="node">
<title>node_60</title>
<polygon fill="none" stroke="#000000" points="1732.8561,-412 1639.1439,-412 1639.1439,-376 1732.8561,-376 1732.8561,-412"/>
<text text-anchor="middle" x="1686" y="-389.8" font-family="Times,serif" font-size="14.00" fill="#000000">store service1</text>
</g>
<!-- node_64&#45;&gt;node_60 -->
<g id="edge37" class="edge">
<title>node_64&#45;&gt;node_60</title>
<path fill="none" stroke="#000000" d="M1787.6815,-447.8314C1769.9641,-438.4516 1748.1655,-426.9112 1729.3016,-416.9244"/>
<polygon fill="#000000" stroke="#000000" points="1730.7831,-413.7485 1720.3076,-412.1628 1727.5078,-419.935 1730.7831,-413.7485"/>
</g>
<!-- node_65 -->
<g id="node23" class="node">
<title>node_65</title>
<polygon fill="none" stroke="#000000" points="2441,-772 2377.3022,-754 2441,-736 2504.6978,-754 2441,-772"/>
<text text-anchor="middle" x="2441" y="-749.8" font-family="Times,serif" font-size="14.00" fill="#000000">executor1</text>
</g>
<!-- node_50 -->
<g id="node24" class="node">
<title>node_50</title>
<polygon fill="none" stroke="#000000" points="1701.0098,-484 1500.9902,-484 1500.9902,-448 1701.0098,-448 1701.0098,-484"/>
<text text-anchor="middle" x="1601" y="-461.8" font-family="Times,serif" font-size="14.00" fill="#000000">transmit datasetService1&#45;&gt;Client</text>
</g>
<!-- node_50&#45;&gt;node_75 -->
<g id="edge46" class="edge">
<title>node_50&#45;&gt;node_75</title>
<path fill="none" stroke="#000000" stroke-dasharray="1,5" d="M1509.6173,-447.9243C1450.9117,-436.3122 1375.3183,-421.3597 1318.6289,-410.1464"/>
<polygon fill="#000000" stroke="#000000" points="1319.1191,-406.6756 1308.63,-408.1686 1317.7608,-413.5426 1319.1191,-406.6756"/>
</g>
<!-- node_62 -->
<g id="node36" class="node">
<title>node_62</title>
<polygon fill="none" stroke="#000000" points="1789.1485,-340 1582.8515,-340 1582.8515,-304 1789.1485,-304 1789.1485,-340"/>
<text text-anchor="middle" x="1686" y="-317.8" font-family="Times,serif" font-size="14.00" fill="#000000">FinishNode &amp;finished&amp;executor1</text>
</g>
<!-- node_50&#45;&gt;node_62 -->
<g id="edge32" class="edge">
<title>node_50&#45;&gt;node_62</title>
<path fill="none" stroke="#000000" d="M1604.0946,-447.9862C1607.9548,-428.9832 1615.8397,-398.7045 1630,-376 1636.6447,-365.3459 1645.8488,-355.3083 1654.877,-346.8445"/>
<polygon fill="#000000" stroke="#000000" points="1657.2569,-349.4115 1662.3593,-340.1262 1652.5802,-344.203 1657.2569,-349.4115"/>
</g>
<!-- node_51 -->
<g id="node25" class="node">
<title>node_51</title>
<polygon fill="none" stroke="#000000" points="1998.1035,-628 1663.8965,-628 1663.8965,-592 1998.1035,-592 1998.1035,-628"/>
<text text-anchor="middle" x="1831" y="-605.8" font-family="Times,serif" font-size="14.00" fill="#000000">i1 = datasetService1::fromIndicesLabeled([indices1, &#45;1])</text>
</g>
<!-- node_51&#45;&gt;node_64 -->
<g id="edge33" class="edge">
<title>node_51&#45;&gt;node_64</title>
<path fill="none" stroke="#000000" d="M1829.8601,-591.7623C1828.3251,-567.201 1825.578,-523.2474 1823.7721,-494.3541"/>
<polygon fill="#000000" stroke="#000000" points="1827.2477,-493.8518 1823.1306,-484.0896 1820.2613,-494.2885 1827.2477,-493.8518"/>
</g>
<!-- node_51&#45;&gt;node_50 -->
<g id="edge38" class="edge">
<title>node_51&#45;&gt;node_50</title>
<path fill="none" stroke="#000000" d="M1827.0385,-591.6417C1821.652,-568.3158 1811.4818,-529.8904 1801,-520 1796.4134,-515.6722 1736.8081,-499.8749 1683.8536,-486.4763"/>
<polygon fill="#000000" stroke="#000000" points="1684.6103,-483.0576 1674.058,-484.0057 1682.8984,-489.8451 1684.6103,-483.0576"/>
</g>
<!-- node_57 -->
<g id="node31" class="node">
<title>node_57</title>
<polygon fill="none" stroke="#000000" points="1791.6148,-556 1666.3852,-556 1666.3852,-520 1791.6148,-520 1791.6148,-556"/>
<text text-anchor="middle" x="1729" y="-533.8" font-family="Times,serif" font-size="14.00" fill="#000000">service1::train([i1])</text>
</g>
<!-- node_51&#45;&gt;node_57 -->
<g id="edge27" class="edge">
<title>node_51&#45;&gt;node_57</title>
<path fill="none" stroke="#000000" d="M1805.2611,-591.8314C1792.4563,-582.7927 1776.8091,-571.7476 1763.0281,-562.0198"/>
<polygon fill="#000000" stroke="#000000" points="1764.9188,-559.0703 1754.7307,-556.1628 1760.882,-564.7891 1764.9188,-559.0703"/>
</g>
<!-- node_61 -->
<g id="node35" class="node">
<title>node_61</title>
<polygon fill="none" stroke="#000000" points="2002.0632,-556 1867.9368,-556 1867.9368,-520 2002.0632,-520 2002.0632,-556"/>
<text text-anchor="middle" x="1935" y="-533.8" font-family="Times,serif" font-size="14.00" fill="#000000">store datasetService1</text>
</g>
<!-- node_51&#45;&gt;node_61 -->
<g id="edge31" class="edge">
<title>node_51&#45;&gt;node_61</title>
<path fill="none" stroke="#000000" d="M1857.2436,-591.8314C1870.2995,-582.7927 1886.2535,-571.7476 1900.3047,-562.0198"/>
<polygon fill="#000000" stroke="#000000" points="1902.5351,-564.7326 1908.7648,-556.1628 1898.5506,-558.9773 1902.5351,-564.7326"/>
</g>
<!-- node_52 -->
<g id="node26" class="node">
<title>node_52</title>
<polygon fill="none" stroke="#000000" points="1732.9658,-700 1619.0342,-700 1619.0342,-664 1732.9658,-664 1732.9658,-700"/>
<text text-anchor="middle" x="1676" y="-677.8" font-family="Times,serif" font-size="14.00" fill="#000000">parse Number: &#45;1</text>
</g>
<!-- node_52&#45;&gt;node_51 -->
<g id="edge39" class="edge">
<title>node_52&#45;&gt;node_51</title>
<path fill="none" stroke="#000000" d="M1715.113,-663.8314C1735.7512,-654.2446 1761.2484,-642.4008 1783.0673,-632.2655"/>
<polygon fill="#000000" stroke="#000000" points="1784.5734,-635.4251 1792.1682,-628.038 1781.6244,-629.0766 1784.5734,-635.4251"/>
</g>
<!-- node_54 -->
<g id="node28" class="node">
<title>node_54</title>
<polygon fill="none" stroke="#000000" points="1620.2455,-628 1529.7545,-628 1529.7545,-592 1620.2455,-592 1620.2455,-628"/>
<text text-anchor="middle" x="1575" y="-605.8" font-family="Times,serif" font-size="14.00" fill="#000000">load service1</text>
</g>
<!-- node_53&#45;&gt;node_54 -->
<g id="edge22" class="edge">
<title>node_53&#45;&gt;node_54</title>
<path fill="none" stroke="#000000" d="M1556.3086,-663.8314C1559.0117,-656.0463 1562.2316,-646.7729 1565.231,-638.1347"/>
<polygon fill="#000000" stroke="#000000" points="1568.6327,-639.0081 1568.6065,-628.4133 1562.02,-636.7119 1568.6327,-639.0081"/>
</g>
<!-- node_54&#45;&gt;node_57 -->
<g id="edge26" class="edge">
<title>node_54&#45;&gt;node_57</title>
<path fill="none" stroke="#000000" d="M1613.8607,-591.8314C1634.2742,-582.2874 1659.4723,-570.5065 1681.086,-560.4013"/>
<polygon fill="#000000" stroke="#000000" points="1682.8423,-563.4439 1690.4187,-556.038 1679.8775,-557.1027 1682.8423,-563.4439"/>
</g>
<!-- node_55&#45;&gt;node_44 -->
<g id="edge42" class="edge">
<title>node_55&#45;&gt;node_44</title>
<path fill="none" stroke="#000000" stroke-dasharray="1,5" d="M1913.9328,-392.6372C2093.3589,-389.1308 2516.1466,-377.8795 2656,-348 2661.7011,-346.782 2667.5553,-345.1588 2673.3224,-343.316"/>
<polygon fill="#000000" stroke="#000000" points="2674.5734,-346.5873 2682.9033,-340.0403 2672.3087,-339.9638 2674.5734,-346.5873"/>
</g>
<!-- node_55&#45;&gt;node_62 -->
<g id="edge28" class="edge">
<title>node_55&#45;&gt;node_62</title>
<path fill="none" stroke="#000000" d="M1795.158,-375.8314C1775.8918,-366.3302 1752.1301,-354.6121 1731.7008,-344.5374"/>
<polygon fill="#000000" stroke="#000000" points="1733.0938,-341.3219 1722.577,-340.038 1729.9977,-347.6 1733.0938,-341.3219"/>
</g>
<!-- node_63 -->
<g id="node37" class="node">
<title>node_63</title>
<polygon fill="none" stroke="#000000" points="1993.3176,-700 1750.6824,-700 1750.6824,-664 1993.3176,-664 1993.3176,-700"/>
<text text-anchor="middle" x="1872" y="-677.8" font-family="Times,serif" font-size="14.00" fill="#000000">cast indices1 from jsonlist to builtin.List</text>
</g>
<!-- node_56&#45;&gt;node_63 -->
<g id="edge29" class="edge">
<title>node_56&#45;&gt;node_63</title>
<path fill="none" stroke="#000000" d="M1751.6271,-735.8314C1773.1599,-726.2018 1799.7849,-714.295 1822.5152,-704.1299"/>
<polygon fill="#000000" stroke="#000000" points="1823.9652,-707.3155 1831.665,-700.038 1821.1074,-700.9254 1823.9652,-707.3155"/>
</g>
<!-- node_57&#45;&gt;node_64 -->
<g id="edge30" class="edge">
<title>node_57&#45;&gt;node_64</title>
<path fill="none" stroke="#000000" d="M1752.4678,-519.8314C1764.0327,-510.8779 1778.1404,-499.9558 1790.6183,-490.2955"/>
<polygon fill="#000000" stroke="#000000" points="1792.775,-493.0521 1798.5397,-484.1628 1788.4898,-487.5171 1792.775,-493.0521"/>
</g>
<!-- node_58 -->
<g id="node32" class="node">
<title>node_58</title>
<polygon fill="none" stroke="#000000" points="2344.6479,-772 2187.3521,-772 2187.3521,-736 2344.6479,-736 2344.6479,-772"/>
<text text-anchor="middle" x="2266" y="-749.8" font-family="Times,serif" font-size="14.00" fill="#000000">parse String: weather.arff</text>
</g>
<!-- node_59 -->
<g id="node33" class="node">
<title>node_59</title>
<polygon fill="none" stroke="#000000" points="2520.5754,-700 2011.4246,-700 2011.4246,-664 2520.5754,-664 2520.5754,-700"/>
<text text-anchor="middle" x="2266" y="-677.8" font-family="Times,serif" font-size="14.00" fill="#000000">datasetService1 = de.upb.sede.services.jsml.DataSetService::__construct([weather.arff])</text>
</g>
<!-- node_58&#45;&gt;node_59 -->
<g id="edge23" class="edge">
<title>node_58&#45;&gt;node_59</title>
<path fill="none" stroke="#000000" d="M2266,-735.8314C2266,-728.131 2266,-718.9743 2266,-710.4166"/>
<polygon fill="#000000" stroke="#000000" points="2269.5001,-710.4132 2266,-700.4133 2262.5001,-710.4133 2269.5001,-710.4132"/>
</g>
<!-- node_59&#45;&gt;node_51 -->
<g id="edge36" class="edge">
<title>node_59&#45;&gt;node_51</title>
<path fill="none" stroke="#000000" d="M2157.073,-663.9707C2094.1281,-653.5522 2014.8661,-640.433 1950.2509,-629.7381"/>
<polygon fill="#000000" stroke="#000000" points="1950.4483,-626.2232 1940.011,-628.0432 1949.3052,-633.1293 1950.4483,-626.2232"/>
</g>
<!-- node_60&#45;&gt;node_62 -->
<g id="edge25" class="edge">
<title>node_60&#45;&gt;node_62</title>
<path fill="none" stroke="#000000" d="M1686,-375.8314C1686,-368.131 1686,-358.9743 1686,-350.4166"/>
<polygon fill="#000000" stroke="#000000" points="1689.5001,-350.4132 1686,-340.4133 1682.5001,-350.4133 1689.5001,-350.4132"/>
</g>
<!-- node_61&#45;&gt;node_62 -->
<g id="edge24" class="edge">
<title>node_61&#45;&gt;node_62</title>
<path fill="none" stroke="#000000" d="M1940.1032,-519.8618C1948.2491,-486.5785 1959.7812,-415.5461 1923,-376 1905.5511,-357.2394 1851.336,-344.1271 1799.1576,-335.5255"/>
<polygon fill="#000000" stroke="#000000" points="1799.532,-332.041 1789.1049,-333.9183 1798.4269,-338.9532 1799.532,-332.041"/>
</g>
<!-- node_62&#45;&gt;node_71 -->
<g id="edge47" class="edge">
<title>node_62&#45;&gt;node_71</title>
<path fill="none" stroke="#000000" stroke-dasharray="1,5" d="M1582.7912,-329.3159C1431.6781,-340.2379 1156.2729,-360.9942 1038.4566,-375.9054"/>
<polygon fill="#000000" stroke="#000000" points="1037.691,-372.4755 1028.2275,-377.2391 1038.5961,-379.4167 1037.691,-372.4755"/>
</g>
<!-- node_63&#45;&gt;node_51 -->
<g id="edge34" class="edge">
<title>node_63&#45;&gt;node_51</title>
<path fill="none" stroke="#000000" d="M1861.654,-663.8314C1857.0763,-655.7925 1851.5948,-646.1666 1846.5412,-637.2918"/>
<polygon fill="#000000" stroke="#000000" points="1849.4752,-635.3712 1841.4853,-628.4133 1843.3923,-638.8351 1849.4752,-635.3712"/>
</g>
<!-- node_78 -->
<g id="node38" class="node">
<title>node_78</title>
<polygon fill="none" stroke="#000000" points="1483.3029,-484 1324.6971,-484 1324.6971,-448 1483.3029,-448 1483.3029,-484"/>
<text text-anchor="middle" x="1404" y="-461.8" font-family="Times,serif" font-size="14.00" fill="#000000">transmit service1&#45;&gt;Client</text>
</g>
<!-- node_78&#45;&gt;node_72 -->
<g id="edge48" class="edge">
<title>node_78&#45;&gt;node_72</title>
<path fill="none" stroke="#000000" stroke-dasharray="1,5" d="M1324.4005,-448.7076C1263.6026,-435.4946 1186.3942,-418.7025 1158.1794,-412.2583"/>
<polygon fill="#000000" stroke="#000000" points="1158.6318,-408.7686 1148.0941,-409.8673 1157.0169,-415.5798 1158.6318,-408.7686"/>
</g>
<!-- node_79 -->
<g id="node39" class="node">
<title>node_79</title>
<polygon fill="none" stroke="#000000" points="401.3029,-484 242.6971,-484 242.6971,-448 401.3029,-448 401.3029,-484"/>
<text text-anchor="middle" x="322" y="-461.8" font-family="Times,serif" font-size="14.00" fill="#000000">transmit service2&#45;&gt;Client</text>
</g>
<!-- node_79&#45;&gt;node_68 -->
<g id="edge43" class="edge">
<title>node_79&#45;&gt;node_68</title>
<path fill="none" stroke="#000000" stroke-dasharray="1,5" d="M393.1929,-447.9938C430.5421,-438.393 477.2678,-426.1414 527.2662,-412.1646"/>
<polygon fill="#000000" stroke="#000000" points="528.2899,-415.5126 536.9724,-409.441 526.3986,-408.773 528.2899,-415.5126"/>
</g>
</g>
</svg>
