<?xml version="1.0" encoding="UTF-8" standalone="no"?>
<!DOCTYPE svg PUBLIC "-//W3C//DTD SVG 1.1//EN"
 "http://www.w3.org/Graphics/SVG/1.1/DTD/svg11.dtd">
<!-- Generated by graphviz version 2.40.1 (20161225.0304)
 -->
<!-- Title: %3 Pages: 1 -->
<svg width="3116pt" height="724pt"
 viewBox="0.00 0.00 3116.40 724.00" xmlns="http://www.w3.org/2000/svg" xmlns:xlink="http://www.w3.org/1999/xlink">
<g id="graph0" class="graph" transform="scale(1 1) rotate(0) translate(4 720)">
<title>%3</title>
<polygon fill="#ffffff" stroke="transparent" points="-4,4 -4,-720 3112.4014,-720 3112.4014,4 -4,4"/>
<g id="clust1" class="cluster">
<title>cluster_322221616</title>
<polygon fill="none" stroke="#000000" points="1056.4014,-296 1056.4014,-708 2090.4014,-708 2090.4014,-296 1056.4014,-296"/>
</g>
<g id="clust2" class="cluster">
<title>cluster_2108087630</title>
<polygon fill="none" stroke="#000000" points="2557.4014,-8 2557.4014,-348 3100.4014,-348 3100.4014,-8 2557.4014,-8"/>
</g>
<g id="clust3" class="cluster">
<title>cluster_1781351571</title>
<polygon fill="none" stroke="#000000" points="166.4014,-152 166.4014,-348 1048.4014,-348 1048.4014,-152 166.4014,-152"/>
</g>
<!-- node_114 -->
<g id="node1" class="node">
<title>node_114</title>
<polygon fill="none" stroke="#000000" points="2256.7042,-340 2098.0985,-340 2098.0985,-304 2256.7042,-304 2256.7042,-340"/>
<text text-anchor="middle" x="2177.4014" y="-317.8" font-family="Times,serif" font-size="14.00" fill="#000000">transmit service1&#45;&gt;Client</text>
</g>
<!-- node_110 -->
<g id="node35" class="node">
<title>node_110</title>
<polygon fill="none" stroke="#000000" points="920.2881,-268 818.5146,-268 818.5146,-232 920.2881,-232 920.2881,-268"/>
<text text-anchor="middle" x="869.4014" y="-245.8" font-family="Times,serif" font-size="14.00" fill="#000000">accept service1</text>
</g>
<!-- node_114&#45;&gt;node_110 -->
<g id="edge40" class="edge">
<title>node_114&#45;&gt;node_110</title>
<path fill="none" stroke="#000000" stroke-dasharray="1,5" d="M2127.4718,-303.8924C2116.6991,-300.6841 2105.2769,-297.7975 2094.4014,-296 1842.1476,-254.3072 1201.6848,-307.302 930.8416,-267.9004"/>
<polygon fill="#000000" stroke="#000000" points="930.9921,-264.383 920.5786,-266.3343 929.9361,-271.3029 930.9921,-264.383"/>
</g>
<!-- node_115 -->
<g id="node2" class="node">
<title>node_115</title>
<polygon fill="none" stroke="#000000" points="2433.7179,-340 2275.0849,-340 2275.0849,-304 2433.7179,-304 2433.7179,-340"/>
<text text-anchor="middle" x="2354.4014" y="-317.8" font-family="Times,serif" font-size="14.00" fill="#000000">transmit indices1&#45;&gt;Client</text>
</g>
<!-- node_103 -->
<g id="node28" class="node">
<title>node_103</title>
<polygon fill="none" stroke="#000000" points="1040.3018,-268 938.5009,-268 938.5009,-232 1040.3018,-232 1040.3018,-268"/>
<text text-anchor="middle" x="989.4014" y="-245.8" font-family="Times,serif" font-size="14.00" fill="#000000">accept indices1</text>
</g>
<!-- node_115&#45;&gt;node_103 -->
<g id="edge35" class="edge">
<title>node_115&#45;&gt;node_103</title>
<path fill="none" stroke="#000000" stroke-dasharray="1,5" d="M2300.2939,-303.8771C2288.8889,-300.7131 2276.8431,-297.848 2265.4014,-296 2027.2316,-257.5325 1271.578,-251.2244 1050.634,-250.1978"/>
<polygon fill="#000000" stroke="#000000" points="1050.5367,-246.6974 1040.5212,-250.1528 1050.5055,-253.6973 1050.5367,-246.6974"/>
</g>
<!-- node_96 -->
<g id="node3" class="node">
<title>node_96</title>
<polygon fill="none" stroke="#000000" points="1704.5049,-556 1370.2978,-556 1370.2978,-520 1704.5049,-520 1704.5049,-556"/>
<text text-anchor="middle" x="1537.4014" y="-533.8" font-family="Times,serif" font-size="14.00" fill="#000000">i1 = datasetService1::fromIndicesLabeled([indices1, &#45;1])</text>
</g>
<!-- node_90 -->
<g id="node9" class="node">
<title>node_90</title>
<polygon fill="none" stroke="#000000" points="1842.9355,-484 1637.8672,-484 1637.8672,-448 1842.9355,-448 1842.9355,-484"/>
<text text-anchor="middle" x="1740.4014" y="-461.8" font-family="Times,serif" font-size="14.00" fill="#000000">data1 = service1::preprocess([i1])</text>
</g>
<!-- node_96&#45;&gt;node_90 -->
<g id="edge8" class="edge">
<title>node_96&#45;&gt;node_90</title>
<path fill="none" stroke="#000000" d="M1588.3648,-519.9243C1616.1161,-510.0815 1650.6342,-497.8386 1679.7628,-487.5073"/>
<polygon fill="#000000" stroke="#000000" points="1681.1622,-490.7246 1689.417,-484.0831 1678.8222,-484.1273 1681.1622,-490.7246"/>
</g>
<!-- node_97 -->
<g id="node4" class="node">
<title>node_97</title>
<polygon fill="none" stroke="#000000" points="1900.6468,-556 1810.1559,-556 1810.1559,-520 1900.6468,-520 1900.6468,-556"/>
<text text-anchor="middle" x="1855.4014" y="-533.8" font-family="Times,serif" font-size="14.00" fill="#000000">load service1</text>
</g>
<!-- node_97&#45;&gt;node_90 -->
<g id="edge7" class="edge">
<title>node_97&#45;&gt;node_90</title>
<path fill="none" stroke="#000000" d="M1826.382,-519.8314C1811.6728,-510.6221 1793.6369,-499.3301 1777.8892,-489.4706"/>
<polygon fill="#000000" stroke="#000000" points="1779.7446,-486.5029 1769.4114,-484.1628 1776.03,-492.436 1779.7446,-486.5029"/>
</g>
<!-- node_98 -->
<g id="node5" class="node">
<title>node_98</title>
<polygon fill="none" stroke="#000000" points="1702.087,-628 1196.7157,-628 1196.7157,-592 1702.087,-592 1702.087,-628"/>
<text text-anchor="middle" x="1449.4014" y="-605.8" font-family="Times,serif" font-size="14.00" fill="#000000">datasetService1 = de.upb.sede.services.mls.DataSetService::__construct([weather.arff])</text>
</g>
<!-- node_98&#45;&gt;node_96 -->
<g id="edge10" class="edge">
<title>node_98&#45;&gt;node_96</title>
<path fill="none" stroke="#000000" d="M1471.6075,-591.8314C1482.4463,-582.9632 1495.6457,-572.1637 1507.3691,-562.5718"/>
<polygon fill="#000000" stroke="#000000" points="1509.6791,-565.2041 1515.2024,-556.1628 1505.2464,-559.7864 1509.6791,-565.2041"/>
</g>
<!-- node_99 -->
<g id="node6" class="node">
<title>node_99</title>
<polygon fill="none" stroke="#000000" points="1702.5499,-340 1496.2529,-340 1496.2529,-304 1702.5499,-304 1702.5499,-340"/>
<text text-anchor="middle" x="1599.4014" y="-317.8" font-family="Times,serif" font-size="14.00" fill="#000000">FinishNode &amp;finished&amp;executor1</text>
</g>
<!-- node_112 -->
<g id="node25" class="node">
<title>node_112</title>
<polygon fill="none" stroke="#000000" points="800.4576,-268 624.3451,-268 624.3451,-232 800.4576,-232 800.4576,-268"/>
<text text-anchor="middle" x="712.4014" y="-245.8" font-family="Times,serif" font-size="14.00" fill="#000000">accept &amp;finished&amp;executor1</text>
</g>
<!-- node_99&#45;&gt;node_112 -->
<g id="edge41" class="edge">
<title>node_99&#45;&gt;node_112</title>
<path fill="none" stroke="#000000" stroke-dasharray="1,5" d="M1496.1421,-318.7377C1346.913,-313.1756 1062.186,-299.3897 810.6834,-268.0809"/>
<polygon fill="#000000" stroke="#000000" points="810.98,-264.5907 800.6216,-266.8167 810.1072,-271.5361 810.98,-264.5907"/>
</g>
<!-- node_100 -->
<g id="node7" class="node">
<title>node_100</title>
<polygon fill="none" stroke="#000000" points="1962.719,-628 1720.0838,-628 1720.0838,-592 1962.719,-592 1962.719,-628"/>
<text text-anchor="middle" x="1841.4014" y="-605.8" font-family="Times,serif" font-size="14.00" fill="#000000">cast indices1 from jsonlist to builtin.List</text>
</g>
<!-- node_100&#45;&gt;node_96 -->
<g id="edge9" class="edge">
<title>node_100&#45;&gt;node_96</title>
<path fill="none" stroke="#000000" d="M1765.0817,-591.9243C1721.9959,-581.7198 1668.018,-568.9355 1623.4343,-558.3762"/>
<polygon fill="#000000" stroke="#000000" points="1624.0262,-554.9196 1613.4887,-556.0207 1622.4128,-561.7312 1624.0262,-554.9196"/>
</g>
<!-- node_101 -->
<g id="node8" class="node">
<title>node_101</title>
<polygon fill="none" stroke="#000000" points="2007.4014,-700 1943.7036,-682 2007.4014,-664 2071.0991,-682 2007.4014,-700"/>
<text text-anchor="middle" x="2007.4014" y="-677.8" font-family="Times,serif" font-size="14.00" fill="#000000">executor1</text>
</g>
<!-- node_91 -->
<g id="node10" class="node">
<title>node_91</title>
<polygon fill="none" stroke="#000000" points="1822.3532,-412 1658.4496,-412 1658.4496,-376 1822.3532,-376 1822.3532,-412"/>
<text text-anchor="middle" x="1740.4014" y="-389.8" font-family="Times,serif" font-size="14.00" fill="#000000">transmit data1&#45;&gt;executor2</text>
</g>
<!-- node_90&#45;&gt;node_91 -->
<g id="edge1" class="edge">
<title>node_90&#45;&gt;node_91</title>
<path fill="none" stroke="#000000" d="M1740.4014,-447.8314C1740.4014,-440.131 1740.4014,-430.9743 1740.4014,-422.4166"/>
<polygon fill="#000000" stroke="#000000" points="1743.9015,-422.4132 1740.4014,-412.4133 1736.9015,-422.4133 1743.9015,-422.4132"/>
</g>
<!-- node_91&#45;&gt;node_99 -->
<g id="edge6" class="edge">
<title>node_91&#45;&gt;node_99</title>
<path fill="none" stroke="#000000" d="M1704.8211,-375.8314C1686.3689,-366.4089 1663.6469,-354.8062 1644.0284,-344.7883"/>
<polygon fill="#000000" stroke="#000000" points="1645.468,-341.5935 1634.9702,-340.1628 1642.2846,-347.8278 1645.468,-341.5935"/>
</g>
<!-- node_85 -->
<g id="node20" class="node">
<title>node_85</title>
<polygon fill="none" stroke="#000000" points="2916.965,-340 2831.8378,-340 2831.8378,-304 2916.965,-304 2916.965,-340"/>
<text text-anchor="middle" x="2874.4014" y="-317.8" font-family="Times,serif" font-size="14.00" fill="#000000">accept data1</text>
</g>
<!-- node_91&#45;&gt;node_85 -->
<g id="edge39" class="edge">
<title>node_91&#45;&gt;node_85</title>
<path fill="none" stroke="#000000" stroke-dasharray="1,5" d="M1822.1322,-392.4967C2057.5828,-387.8896 2726.6658,-372.7584 2822.4014,-348 2826.3025,-346.9911 2830.2515,-345.6646 2834.1385,-344.1441"/>
<polygon fill="#000000" stroke="#000000" points="2835.8294,-347.2258 2843.6105,-340.0351 2833.0436,-340.8039 2835.8294,-347.2258"/>
</g>
<!-- node_92 -->
<g id="node11" class="node">
<title>node_92</title>
<polygon fill="none" stroke="#000000" points="1528.0492,-700 1370.7535,-700 1370.7535,-664 1528.0492,-664 1528.0492,-700"/>
<text text-anchor="middle" x="1449.4014" y="-677.8" font-family="Times,serif" font-size="14.00" fill="#000000">parse String: weather.arff</text>
</g>
<!-- node_92&#45;&gt;node_98 -->
<g id="edge5" class="edge">
<title>node_92&#45;&gt;node_98</title>
<path fill="none" stroke="#000000" d="M1449.4014,-663.8314C1449.4014,-656.131 1449.4014,-646.9743 1449.4014,-638.4166"/>
<polygon fill="#000000" stroke="#000000" points="1452.9015,-638.4132 1449.4014,-628.4133 1445.9015,-638.4133 1452.9015,-638.4132"/>
</g>
<!-- node_93 -->
<g id="node12" class="node">
<title>node_93</title>
<polygon fill="none" stroke="#000000" points="2082.2881,-628 1980.5146,-628 1980.5146,-592 2082.2881,-592 2082.2881,-628"/>
<text text-anchor="middle" x="2031.4014" y="-605.8" font-family="Times,serif" font-size="14.00" fill="#000000">accept service1</text>
</g>
<!-- node_93&#45;&gt;node_97 -->
<g id="edge3" class="edge">
<title>node_93&#45;&gt;node_97</title>
<path fill="none" stroke="#000000" d="M1986.9891,-591.8314C1963.2409,-582.1162 1933.8268,-570.0831 1908.835,-559.8592"/>
<polygon fill="#000000" stroke="#000000" points="1910.0749,-556.585 1899.4942,-556.038 1907.4245,-563.0638 1910.0749,-556.585"/>
</g>
<!-- node_94 -->
<g id="node13" class="node">
<title>node_94</title>
<polygon fill="none" stroke="#000000" points="1178.3672,-628 1064.4355,-628 1064.4355,-592 1178.3672,-592 1178.3672,-628"/>
<text text-anchor="middle" x="1121.4014" y="-605.8" font-family="Times,serif" font-size="14.00" fill="#000000">parse Number: &#45;1</text>
</g>
<!-- node_94&#45;&gt;node_96 -->
<g id="edge2" class="edge">
<title>node_94&#45;&gt;node_96</title>
<path fill="none" stroke="#000000" d="M1178.5421,-593.991C1181.5308,-593.2869 1184.4972,-592.618 1187.4014,-592 1252.1992,-578.2115 1324.4558,-566.4636 1386.4127,-557.4813"/>
<polygon fill="#000000" stroke="#000000" points="1387.2616,-560.8953 1396.6613,-556.007 1386.2648,-553.9666 1387.2616,-560.8953"/>
</g>
<!-- node_95 -->
<g id="node14" class="node">
<title>node_95</title>
<polygon fill="none" stroke="#000000" points="1903.3018,-700 1801.5009,-700 1801.5009,-664 1903.3018,-664 1903.3018,-700"/>
<text text-anchor="middle" x="1852.4014" y="-677.8" font-family="Times,serif" font-size="14.00" fill="#000000">accept indices1</text>
</g>
<!-- node_95&#45;&gt;node_100 -->
<g id="edge4" class="edge">
<title>node_95&#45;&gt;node_100</title>
<path fill="none" stroke="#000000" d="M1849.6256,-663.8314C1848.4492,-656.131 1847.0502,-646.9743 1845.7428,-638.4166"/>
<polygon fill="#000000" stroke="#000000" points="1849.1847,-637.7699 1844.2145,-628.4133 1842.265,-638.8272 1849.1847,-637.7699"/>
</g>
<!-- node_116 -->
<g id="node15" class="node">
<title>node_116</title>
<polygon fill="none" stroke="#000000" points="158.7042,-340 .0985,-340 .0985,-304 158.7042,-304 158.7042,-340"/>
<text text-anchor="middle" x="79.4014" y="-317.8" font-family="Times,serif" font-size="14.00" fill="#000000">transmit service2&#45;&gt;Client</text>
</g>
<!-- node_102 -->
<g id="node27" class="node">
<title>node_102</title>
<polygon fill="none" stroke="#000000" points="276.2881,-268 174.5146,-268 174.5146,-232 276.2881,-232 276.2881,-268"/>
<text text-anchor="middle" x="225.4014" y="-245.8" font-family="Times,serif" font-size="14.00" fill="#000000">accept service2</text>
</g>
<!-- node_116&#45;&gt;node_102 -->
<g id="edge34" class="edge">
<title>node_116&#45;&gt;node_102</title>
<path fill="none" stroke="#000000" stroke-dasharray="1,5" d="M116.2433,-303.8314C135.5096,-294.3302 159.2713,-282.6121 179.7005,-272.5374"/>
<polygon fill="#000000" stroke="#000000" points="181.4037,-275.6 188.8243,-268.038 178.3076,-269.3219 181.4037,-275.6"/>
</g>
<!-- node_81 -->
<g id="node16" class="node">
<title>node_81</title>
<polygon fill="none" stroke="#000000" points="2655.6468,-268 2565.1559,-268 2565.1559,-232 2655.6468,-232 2655.6468,-268"/>
<text text-anchor="middle" x="2610.4014" y="-245.8" font-family="Times,serif" font-size="14.00" fill="#000000">load service2</text>
</g>
<!-- node_83 -->
<g id="node18" class="node">
<title>node_83</title>
<polygon fill="none" stroke="#000000" points="2901.5137,-196 2617.289,-196 2617.289,-160 2901.5137,-160 2901.5137,-196"/>
<text text-anchor="middle" x="2759.4014" y="-173.8" font-family="Times,serif" font-size="14.00" fill="#000000">predictions = service2::predict([FALSE, data1])</text>
</g>
<!-- node_81&#45;&gt;node_83 -->
<g id="edge13" class="edge">
<title>node_81&#45;&gt;node_83</title>
<path fill="none" stroke="#000000" d="M2648.0004,-231.8314C2667.7511,-222.2874 2692.131,-210.5065 2713.043,-200.4013"/>
<polygon fill="#000000" stroke="#000000" points="2714.5917,-203.5403 2722.0727,-196.038 2711.546,-197.2376 2714.5917,-203.5403"/>
</g>
<!-- node_82 -->
<g id="node17" class="node">
<title>node_82</title>
<polygon fill="none" stroke="#000000" points="3092.3112,-268 2966.4915,-268 2966.4915,-232 3092.3112,-232 3092.3112,-268"/>
<text text-anchor="middle" x="3029.4014" y="-245.8" font-family="Times,serif" font-size="14.00" fill="#000000">parse Bool: FALSE</text>
</g>
<!-- node_82&#45;&gt;node_83 -->
<g id="edge11" class="edge">
<title>node_82&#45;&gt;node_83</title>
<path fill="none" stroke="#000000" d="M2966.4391,-233.2101C2927.7773,-222.9002 2877.9677,-209.6177 2836.8934,-198.6645"/>
<polygon fill="#000000" stroke="#000000" points="2837.7576,-195.2728 2827.1934,-196.0779 2835.9539,-202.0364 2837.7576,-195.2728"/>
</g>
<!-- node_88 -->
<g id="node23" class="node">
<title>node_88</title>
<polygon fill="none" stroke="#000000" points="2755.7699,-124 2581.0328,-124 2581.0328,-88 2755.7699,-88 2755.7699,-124"/>
<text text-anchor="middle" x="2668.4014" y="-101.8" font-family="Times,serif" font-size="14.00" fill="#000000">transmit predictions&#45;&gt;Client</text>
</g>
<!-- node_83&#45;&gt;node_88 -->
<g id="edge14" class="edge">
<title>node_83&#45;&gt;node_88</title>
<path fill="none" stroke="#000000" d="M2736.4382,-159.8314C2725.2299,-150.9632 2711.5805,-140.1637 2699.4574,-130.5718"/>
<polygon fill="#000000" stroke="#000000" points="2701.3711,-127.6229 2691.3572,-124.1628 2697.0277,-133.1125 2701.3711,-127.6229"/>
</g>
<!-- node_84 -->
<g id="node19" class="node">
<title>node_84</title>
<polygon fill="none" stroke="#000000" points="2813.2881,-340 2711.5146,-340 2711.5146,-304 2813.2881,-304 2813.2881,-340"/>
<text text-anchor="middle" x="2762.4014" y="-317.8" font-family="Times,serif" font-size="14.00" fill="#000000">accept service2</text>
</g>
<!-- node_84&#45;&gt;node_81 -->
<g id="edge15" class="edge">
<title>node_84&#45;&gt;node_81</title>
<path fill="none" stroke="#000000" d="M2724.0453,-303.8314C2703.8969,-294.2874 2679.0261,-282.5065 2657.6931,-272.4013"/>
<polygon fill="#000000" stroke="#000000" points="2659.0173,-269.1558 2648.4816,-268.038 2656.0206,-275.482 2659.0173,-269.1558"/>
</g>
<!-- node_86 -->
<g id="node21" class="node">
<title>node_86</title>
<polygon fill="none" stroke="#000000" points="2949.1749,-268 2673.6278,-268 2673.6278,-232 2949.1749,-232 2949.1749,-268"/>
<text text-anchor="middle" x="2811.4014" y="-245.8" font-family="Times,serif" font-size="14.00" fill="#000000">cast data1 from dataset to weka.core.Instances</text>
</g>
<!-- node_85&#45;&gt;node_86 -->
<g id="edge12" class="edge">
<title>node_85&#45;&gt;node_86</title>
<path fill="none" stroke="#000000" d="M2858.5038,-303.8314C2851.1736,-295.454 2842.3354,-285.3531 2834.3044,-276.1749"/>
<polygon fill="#000000" stroke="#000000" points="2836.7321,-273.6343 2827.513,-268.4133 2831.464,-278.2438 2836.7321,-273.6343"/>
</g>
<!-- node_86&#45;&gt;node_83 -->
<g id="edge16" class="edge">
<title>node_86&#45;&gt;node_83</title>
<path fill="none" stroke="#000000" d="M2798.2796,-231.8314C2792.3515,-223.6232 2785.2284,-213.7606 2778.708,-204.7323"/>
<polygon fill="#000000" stroke="#000000" points="2781.3922,-202.4708 2772.6998,-196.4133 2775.7174,-206.5693 2781.3922,-202.4708"/>
</g>
<!-- node_87 -->
<g id="node22" class="node">
<title>node_87</title>
<polygon fill="none" stroke="#000000" points="2771.5499,-52 2565.2529,-52 2565.2529,-16 2771.5499,-16 2771.5499,-52"/>
<text text-anchor="middle" x="2668.4014" y="-29.8" font-family="Times,serif" font-size="14.00" fill="#000000">FinishNode &amp;finished&amp;executor2</text>
</g>
<!-- node_108 -->
<g id="node33" class="node">
<title>node_108</title>
<polygon fill="none" stroke="#000000" points="470.4576,-268 294.3451,-268 294.3451,-232 470.4576,-232 470.4576,-268"/>
<text text-anchor="middle" x="382.4014" y="-245.8" font-family="Times,serif" font-size="14.00" fill="#000000">accept &amp;finished&amp;executor2</text>
</g>
<!-- node_87&#45;&gt;node_108 -->
<g id="edge37" class="edge">
<title>node_87&#45;&gt;node_108</title>
<path fill="none" stroke="#000000" stroke-dasharray="1,5" d="M2565.2002,-36.8034C2139.0848,-48.7192 534.6158,-97.0754 442.4014,-152 416.4229,-167.4732 400.1738,-198.9777 391.2397,-222.106"/>
<polygon fill="#000000" stroke="#000000" points="387.8634,-221.1502 387.7462,-231.7444 394.4444,-223.5356 387.8634,-221.1502"/>
</g>
<!-- node_88&#45;&gt;node_87 -->
<g id="edge17" class="edge">
<title>node_88&#45;&gt;node_87</title>
<path fill="none" stroke="#000000" d="M2668.4014,-87.8314C2668.4014,-80.131 2668.4014,-70.9743 2668.4014,-62.4166"/>
<polygon fill="#000000" stroke="#000000" points="2671.9015,-62.4132 2668.4014,-52.4133 2664.9015,-62.4133 2671.9015,-62.4132"/>
</g>
<!-- node_104 -->
<g id="node29" class="node">
<title>node_104</title>
<polygon fill="none" stroke="#000000" points="606.3544,-268 488.4483,-268 488.4483,-232 606.3544,-232 606.3544,-268"/>
<text text-anchor="middle" x="547.4014" y="-245.8" font-family="Times,serif" font-size="14.00" fill="#000000">accept predictions</text>
</g>
<!-- node_88&#45;&gt;node_104 -->
<g id="edge33" class="edge">
<title>node_88&#45;&gt;node_104</title>
<path fill="none" stroke="#000000" stroke-dasharray="1,5" d="M2580.9102,-106.1611C2174.9829,-107.1125 493.2248,-113.3822 455.4014,-152 441.7179,-165.9708 445.6844,-179.0294 455.4014,-196 462.8037,-208.9281 474.6372,-219.0632 487.3864,-226.8841"/>
<polygon fill="#000000" stroke="#000000" points="485.8885,-230.058 496.3158,-231.9348 489.3348,-223.9651 485.8885,-230.058"/>
</g>
<!-- node_89 -->
<g id="node24" class="node">
<title>node_89</title>
<polygon fill="none" stroke="#000000" points="2629.4014,-340 2565.7036,-322 2629.4014,-304 2693.0991,-322 2629.4014,-340"/>
<text text-anchor="middle" x="2629.4014" y="-317.8" font-family="Times,serif" font-size="14.00" fill="#000000">executor2</text>
</g>
<!-- node_113 -->
<g id="node26" class="node">
<title>node_113</title>
<polygon fill="none" stroke="#000000" points="903.4014,-340 858.6741,-322 903.4014,-304 948.1286,-322 903.4014,-340"/>
<text text-anchor="middle" x="903.4014" y="-317.8" font-family="Times,serif" font-size="14.00" fill="#000000">Client</text>
</g>
<!-- node_107 -->
<g id="node32" class="node">
<title>node_107</title>
<polygon fill="none" stroke="#000000" points="644.1769,-196 464.6258,-196 464.6258,-160 644.1769,-160 644.1769,-196"/>
<text text-anchor="middle" x="554.4014" y="-173.8" font-family="Times,serif" font-size="14.00" fill="#000000">transmit service2&#45;&gt;executor2</text>
</g>
<!-- node_102&#45;&gt;node_107 -->
<g id="edge23" class="edge">
<title>node_102&#45;&gt;node_107</title>
<path fill="none" stroke="#000000" d="M276.3749,-234.355C279.4212,-233.5298 282.4471,-232.738 285.4014,-232 340.9654,-218.1205 403.674,-205.3668 454.5594,-195.7431"/>
<polygon fill="#000000" stroke="#000000" points="455.392,-199.1479 464.5732,-193.8606 454.0987,-192.2684 455.392,-199.1479"/>
</g>
<!-- node_106 -->
<g id="node31" class="node">
<title>node_106</title>
<polygon fill="none" stroke="#000000" points="1040.1906,-196 860.6122,-196 860.6122,-160 1040.1906,-160 1040.1906,-196"/>
<text text-anchor="middle" x="950.4014" y="-173.8" font-family="Times,serif" font-size="14.00" fill="#000000">transmit indices1&#45;&gt;executor1</text>
</g>
<!-- node_103&#45;&gt;node_106 -->
<g id="edge20" class="edge">
<title>node_103&#45;&gt;node_106</title>
<path fill="none" stroke="#000000" d="M979.56,-231.8314C975.2056,-223.7925 969.9916,-214.1666 965.1844,-205.2918"/>
<polygon fill="#000000" stroke="#000000" points="968.2156,-203.5392 960.3752,-196.4133 962.0606,-206.8732 968.2156,-203.5392"/>
</g>
<!-- node_105 -->
<g id="node30" class="node">
<title>node_105</title>
<polygon fill="none" stroke="#000000" points="732.9395,-340 655.8633,-340 655.8633,-304 732.9395,-304 732.9395,-340"/>
<text text-anchor="middle" x="694.4014" y="-317.8" font-family="Times,serif" font-size="14.00" fill="#000000">send graph</text>
</g>
<!-- node_105&#45;&gt;node_112 -->
<g id="edge25" class="edge">
<title>node_105&#45;&gt;node_112</title>
<path fill="none" stroke="#000000" d="M698.9435,-303.8314C700.8898,-296.0463 703.2081,-286.7729 705.3677,-278.1347"/>
<polygon fill="#000000" stroke="#000000" points="708.7681,-278.9636 707.7981,-268.4133 701.9771,-277.2658 708.7681,-278.9636"/>
</g>
<!-- node_105&#45;&gt;node_102 -->
<g id="edge29" class="edge">
<title>node_105&#45;&gt;node_102</title>
<path fill="none" stroke="#000000" d="M655.6556,-307.7744C642.1376,-303.3326 626.7564,-298.8536 612.4014,-296 472.549,-268.1987 430.5622,-294.1052 286.6964,-268.004"/>
<polygon fill="#000000" stroke="#000000" points="287.0885,-264.5167 276.6158,-266.1211 285.8032,-271.3978 287.0885,-264.5167"/>
</g>
<!-- node_105&#45;&gt;node_103 -->
<g id="edge30" class="edge">
<title>node_105&#45;&gt;node_103</title>
<path fill="none" stroke="#000000" d="M733.2654,-313.8872C778.0153,-304.3656 853.9266,-287.6638 928.3854,-268.1874"/>
<polygon fill="#000000" stroke="#000000" points="929.6248,-271.4803 938.4028,-265.5476 927.841,-264.7114 929.6248,-271.4803"/>
</g>
<!-- node_105&#45;&gt;node_104 -->
<g id="edge31" class="edge">
<title>node_105&#45;&gt;node_104</title>
<path fill="none" stroke="#000000" d="M657.3071,-303.8314C637.9088,-294.3302 613.9844,-282.6121 593.4152,-272.5374"/>
<polygon fill="#000000" stroke="#000000" points="594.7491,-269.2935 584.2289,-268.038 591.67,-275.5799 594.7491,-269.2935"/>
</g>
<!-- node_105&#45;&gt;node_108 -->
<g id="edge21" class="edge">
<title>node_105&#45;&gt;node_108</title>
<path fill="none" stroke="#000000" d="M655.8612,-308.8209C642.2258,-304.414 626.7188,-299.6897 612.4014,-296 587.5401,-289.593 531.3698,-278.3376 480.7647,-268.5643"/>
<polygon fill="#000000" stroke="#000000" points="481.2103,-265.0859 470.7288,-266.6313 479.8863,-271.9596 481.2103,-265.0859"/>
</g>
<!-- node_105&#45;&gt;node_110 -->
<g id="edge24" class="edge">
<title>node_105&#45;&gt;node_110</title>
<path fill="none" stroke="#000000" d="M733.2395,-306.0209C757.5435,-296.0215 789.1917,-283.0006 815.859,-272.0289"/>
<polygon fill="#000000" stroke="#000000" points="817.5195,-275.1304 825.4356,-268.0888 814.856,-268.6569 817.5195,-275.1304"/>
</g>
<!-- node_106&#45;&gt;node_95 -->
<g id="edge36" class="edge">
<title>node_106&#45;&gt;node_95</title>
<path fill="none" stroke="#000000" stroke-dasharray="1,5" d="M1040.3173,-179.0967C1330.4269,-182.962 2230.1591,-197.6161 2356.4014,-232 2461.6264,-260.6595 2499.4014,-275.0085 2499.4014,-322 2499.4014,-538 2499.4014,-538 2499.4014,-538 2499.4014,-538.9319 2075.0562,-632.7991 1913.6823,-668.462"/>
<polygon fill="#000000" stroke="#000000" points="1912.4496,-665.1499 1903.4405,-670.7253 1913.9601,-671.985 1912.4496,-665.1499"/>
</g>
<!-- node_107&#45;&gt;node_84 -->
<g id="edge38" class="edge">
<title>node_107&#45;&gt;node_84</title>
<path fill="none" stroke="#000000" stroke-dasharray="1,5" d="M644.435,-194.8867C647.4559,-195.2881 650.451,-195.6613 653.4014,-196 1106.3015,-247.9975 2258.4103,-192.5871 2702.4014,-296 2707.1281,-297.1009 2711.9494,-298.5592 2716.7018,-300.2248"/>
<polygon fill="#000000" stroke="#000000" points="2715.7168,-303.595 2726.3077,-303.8867 2718.2104,-297.0541 2715.7168,-303.595"/>
</g>
<!-- node_109 -->
<g id="node34" class="node">
<title>node_109</title>
<polygon fill="none" stroke="#000000" points="602.9395,-340 525.8633,-340 525.8633,-304 602.9395,-304 602.9395,-340"/>
<text text-anchor="middle" x="564.4014" y="-317.8" font-family="Times,serif" font-size="14.00" fill="#000000">send graph</text>
</g>
<!-- node_109&#45;&gt;node_112 -->
<g id="edge22" class="edge">
<title>node_109&#45;&gt;node_112</title>
<path fill="none" stroke="#000000" d="M601.748,-303.8314C621.2782,-294.3302 645.3654,-282.6121 666.0745,-272.5374"/>
<polygon fill="#000000" stroke="#000000" points="667.8621,-275.56 675.3233,-268.038 664.7998,-269.2654 667.8621,-275.56"/>
</g>
<!-- node_109&#45;&gt;node_102 -->
<g id="edge26" class="edge">
<title>node_109&#45;&gt;node_102</title>
<path fill="none" stroke="#000000" d="M525.7753,-315.785C473.5817,-307.1114 377.4964,-290.1737 286.3142,-268.1023"/>
<polygon fill="#000000" stroke="#000000" points="286.9141,-264.6459 276.3688,-265.6694 285.2507,-271.4454 286.9141,-264.6459"/>
</g>
<!-- node_109&#45;&gt;node_103 -->
<g id="edge27" class="edge">
<title>node_109&#45;&gt;node_103</title>
<path fill="none" stroke="#000000" d="M603.169,-307.8826C616.6888,-303.4495 632.0655,-298.9483 646.4014,-296 767.0588,-271.1855 803.561,-291.4108 928.2502,-267.9959"/>
<polygon fill="#000000" stroke="#000000" points="929.0248,-271.411 938.178,-266.0755 927.6953,-264.5384 929.0248,-271.411"/>
</g>
<!-- node_109&#45;&gt;node_104 -->
<g id="edge28" class="edge">
<title>node_109&#45;&gt;node_104</title>
<path fill="none" stroke="#000000" d="M560.1115,-303.8314C558.2934,-296.131 556.1314,-286.9743 554.1109,-278.4166"/>
<polygon fill="#000000" stroke="#000000" points="557.4533,-277.3414 551.7489,-268.4133 550.6406,-278.95 557.4533,-277.3414"/>
</g>
<!-- node_109&#45;&gt;node_108 -->
<g id="edge32" class="edge">
<title>node_109&#45;&gt;node_108</title>
<path fill="none" stroke="#000000" d="M525.8038,-306.7307C500.1171,-296.5689 465.9802,-283.0642 437.457,-271.7802"/>
<polygon fill="#000000" stroke="#000000" points="438.6057,-268.4708 428.0194,-268.0467 436.0306,-274.98 438.6057,-268.4708"/>
</g>
<!-- node_109&#45;&gt;node_110 -->
<g id="edge18" class="edge">
<title>node_109&#45;&gt;node_110</title>
<path fill="none" stroke="#000000" d="M603.2999,-308.466C616.8302,-304.0797 632.18,-299.4588 646.4014,-296 714.7558,-279.3752 736.0294,-284.3259 808.3877,-268.0659"/>
<polygon fill="#000000" stroke="#000000" points="809.4948,-271.4025 818.4518,-265.7436 807.9208,-264.5817 809.4948,-271.4025"/>
</g>
<!-- node_111 -->
<g id="node36" class="node">
<title>node_111</title>
<polygon fill="none" stroke="#000000" points="842.1769,-196 662.6258,-196 662.6258,-160 842.1769,-160 842.1769,-196"/>
<text text-anchor="middle" x="752.4014" y="-173.8" font-family="Times,serif" font-size="14.00" fill="#000000">transmit service1&#45;&gt;executor1</text>
</g>
<!-- node_110&#45;&gt;node_111 -->
<g id="edge19" class="edge">
<title>node_110&#45;&gt;node_111</title>
<path fill="none" stroke="#000000" d="M839.8773,-231.8314C824.9123,-222.6221 806.5628,-211.3301 790.5411,-201.4706"/>
<polygon fill="#000000" stroke="#000000" points="792.2669,-198.423 781.916,-196.1628 788.5982,-204.3847 792.2669,-198.423"/>
</g>
<!-- node_111&#45;&gt;node_93 -->
<g id="edge42" class="edge">
<title>node_111&#45;&gt;node_93</title>
<path fill="none" stroke="#000000" stroke-dasharray="1,5" d="M842.4414,-194.8327C845.4604,-195.2496 848.4534,-195.6406 851.4014,-196 1029.5185,-217.7144 2461.4014,-142.5641 2461.4014,-322 2461.4014,-466 2461.4014,-466 2461.4014,-466 2461.4014,-542.8805 2211.1209,-586.2684 2092.4482,-602.52"/>
<polygon fill="#000000" stroke="#000000" points="2091.8595,-599.0676 2082.4166,-603.872 2092.7945,-606.0049 2091.8595,-599.0676"/>
</g>
</g>
</svg>
