<?xml version="1.0" encoding="UTF-8" standalone="no"?>
<!DOCTYPE svg PUBLIC "-//W3C//DTD SVG 1.1//EN"
 "http://www.w3.org/Graphics/SVG/1.1/DTD/svg11.dtd">
<!-- Generated by graphviz version 2.40.1 (20161225.0304)
 -->
<!-- Title: %3 Pages: 1 -->
<svg width="2512pt" height="724pt"
 viewBox="0.00 0.00 2512.00 724.00" xmlns="http://www.w3.org/2000/svg" xmlns:xlink="http://www.w3.org/1999/xlink">
<g id="graph0" class="graph" transform="scale(1 1) rotate(0) translate(4 720)">
<title>%3</title>
<polygon fill="#ffffff" stroke="transparent" points="-4,4 -4,-720 2508,-720 2508,4 -4,4"/>
<g id="clust1" class="cluster">
<title>cluster_1368861719</title>
<polygon fill="none" stroke="#000000" points="8,-296 8,-708 1046,-708 1046,-296 8,-296"/>
</g>
<g id="clust2" class="cluster">
<title>cluster_884832900</title>
<polygon fill="none" stroke="#000000" points="1614,-368 1614,-564 2496,-564 2496,-368 1614,-368"/>
</g>
<g id="clust3" class="cluster">
<title>cluster_1647367756</title>
<polygon fill="none" stroke="#000000" points="1668,-8 1668,-348 2206,-348 2206,-8 1668,-8"/>
</g>
<!-- node_96 -->
<g id="node1" class="node">
<title>node_96</title>
<polygon fill="none" stroke="#000000" points="1038.1485,-340 831.8515,-340 831.8515,-304 1038.1485,-304 1038.1485,-340"/>
<text text-anchor="middle" x="935" y="-317.8" font-family="Times,serif" font-size="14.00" fill="#000000">FinishNode &amp;finished&amp;executor1</text>
</g>
<!-- node_106 -->
<g id="node22" class="node">
<title>node_106</title>
<polygon fill="none" stroke="#000000" points="2158.0562,-484 1981.9438,-484 1981.9438,-448 2158.0562,-448 2158.0562,-484"/>
<text text-anchor="middle" x="2070" y="-461.8" font-family="Times,serif" font-size="14.00" fill="#000000">accept &amp;finished&amp;executor1</text>
</g>
<!-- node_96&#45;&gt;node_106 -->
<g id="edge39" class="edge">
<title>node_96&#45;&gt;node_106</title>
<path fill="none" stroke="#000000" stroke-dasharray="1,5" d="M1038.2264,-325.6748C1341.1259,-336.4653 2206.3672,-367.3439 2207,-368 2220.5757,-382.0755 2218.0042,-395.8344 2207,-412 2199.0856,-423.6265 2172.6673,-435.2341 2145.1127,-444.6913"/>
<polygon fill="#000000" stroke="#000000" points="2143.7294,-441.4629 2135.3475,-447.9432 2145.9411,-448.1043 2143.7294,-441.4629"/>
</g>
<!-- node_97 -->
<g id="node2" class="node">
<title>node_97</title>
<polygon fill="none" stroke="#000000" points="847.1035,-556 512.8965,-556 512.8965,-520 847.1035,-520 847.1035,-556"/>
<text text-anchor="middle" x="680" y="-533.8" font-family="Times,serif" font-size="14.00" fill="#000000">i1 = datasetService1::fromIndicesLabeled([indices1, &#45;1])</text>
</g>
<!-- node_93 -->
<g id="node10" class="node">
<title>node_93</title>
<polygon fill="none" stroke="#000000" points="999.5342,-484 794.4658,-484 794.4658,-448 999.5342,-448 999.5342,-484"/>
<text text-anchor="middle" x="897" y="-461.8" font-family="Times,serif" font-size="14.00" fill="#000000">data1 = service1::preprocess([i1])</text>
</g>
<!-- node_97&#45;&gt;node_93 -->
<g id="edge6" class="edge">
<title>node_97&#45;&gt;node_93</title>
<path fill="none" stroke="#000000" d="M734.4782,-519.9243C764.4013,-509.9959 801.6843,-497.6255 832.9904,-487.2382"/>
<polygon fill="#000000" stroke="#000000" points="834.1104,-490.5543 842.4994,-484.0831 831.906,-483.9104 834.1104,-490.5543"/>
</g>
<!-- node_98 -->
<g id="node3" class="node">
<title>node_98</title>
<polygon fill="none" stroke="#000000" points="525.5754,-628 16.4246,-628 16.4246,-592 525.5754,-592 525.5754,-628"/>
<text text-anchor="middle" x="271" y="-605.8" font-family="Times,serif" font-size="14.00" fill="#000000">datasetService1 = de.upb.sede.services.jsml.DataSetService::__construct([weather.arff])</text>
</g>
<!-- node_98&#45;&gt;node_97 -->
<g id="edge10" class="edge">
<title>node_98&#45;&gt;node_97</title>
<path fill="none" stroke="#000000" d="M373.4164,-591.9707C432.4774,-581.5737 506.817,-568.487 567.5016,-557.8041"/>
<polygon fill="#000000" stroke="#000000" points="568.2629,-561.224 577.5046,-556.0432 567.0492,-554.33 568.2629,-561.224"/>
</g>
<!-- node_99 -->
<g id="node4" class="node">
<title>node_99</title>
<polygon fill="none" stroke="#000000" points="917.9658,-628 804.0342,-628 804.0342,-592 917.9658,-592 917.9658,-628"/>
<text text-anchor="middle" x="861" y="-605.8" font-family="Times,serif" font-size="14.00" fill="#000000">parse Number: &#45;1</text>
</g>
<!-- node_99&#45;&gt;node_97 -->
<g id="edge7" class="edge">
<title>node_99&#45;&gt;node_97</title>
<path fill="none" stroke="#000000" d="M815.3261,-591.8314C790.9032,-582.1162 760.6534,-570.0831 734.9516,-559.8592"/>
<polygon fill="#000000" stroke="#000000" points="735.931,-556.4821 725.3455,-556.038 733.3437,-562.9864 735.931,-556.4821"/>
</g>
<!-- node_100 -->
<g id="node5" class="node">
<title>node_100</title>
<polygon fill="none" stroke="#000000" points="349.6479,-700 192.3521,-700 192.3521,-664 349.6479,-664 349.6479,-700"/>
<text text-anchor="middle" x="271" y="-677.8" font-family="Times,serif" font-size="14.00" fill="#000000">parse String: weather.arff</text>
</g>
<!-- node_100&#45;&gt;node_98 -->
<g id="edge8" class="edge">
<title>node_100&#45;&gt;node_98</title>
<path fill="none" stroke="#000000" d="M271,-663.8314C271,-656.131 271,-646.9743 271,-638.4166"/>
<polygon fill="#000000" stroke="#000000" points="274.5001,-638.4132 271,-628.4133 267.5001,-638.4133 274.5001,-638.4132"/>
</g>
<!-- node_101 -->
<g id="node6" class="node">
<title>node_101</title>
<polygon fill="none" stroke="#000000" points="643,-700 579.3022,-682 643,-664 706.6978,-682 643,-700"/>
<text text-anchor="middle" x="643" y="-677.8" font-family="Times,serif" font-size="14.00" fill="#000000">executor1</text>
</g>
<!-- node_90 -->
<g id="node7" class="node">
<title>node_90</title>
<polygon fill="none" stroke="#000000" points="971.2455,-556 880.7545,-556 880.7545,-520 971.2455,-520 971.2455,-556"/>
<text text-anchor="middle" x="926" y="-533.8" font-family="Times,serif" font-size="14.00" fill="#000000">load service1</text>
</g>
<!-- node_90&#45;&gt;node_93 -->
<g id="edge3" class="edge">
<title>node_90&#45;&gt;node_93</title>
<path fill="none" stroke="#000000" d="M918.6821,-519.8314C915.5124,-511.9617 911.73,-502.5712 908.2187,-493.8533"/>
<polygon fill="#000000" stroke="#000000" points="911.3992,-492.3815 904.4165,-484.4133 904.9061,-494.9968 911.3992,-492.3815"/>
</g>
<!-- node_91 -->
<g id="node8" class="node">
<title>node_91</title>
<polygon fill="none" stroke="#000000" points="786.3176,-628 543.6824,-628 543.6824,-592 786.3176,-592 786.3176,-628"/>
<text text-anchor="middle" x="665" y="-605.8" font-family="Times,serif" font-size="14.00" fill="#000000">cast indices1 from jsonlist to builtin.List</text>
</g>
<!-- node_91&#45;&gt;node_97 -->
<g id="edge4" class="edge">
<title>node_91&#45;&gt;node_97</title>
<path fill="none" stroke="#000000" d="M668.7851,-591.8314C670.3894,-584.131 672.297,-574.9743 674.0799,-566.4166"/>
<polygon fill="#000000" stroke="#000000" points="677.5507,-566.9169 676.1639,-556.4133 670.6979,-565.4892 677.5507,-566.9169"/>
</g>
<!-- node_92 -->
<g id="node9" class="node">
<title>node_92</title>
<polygon fill="none" stroke="#000000" points="876.9004,-700 775.0996,-700 775.0996,-664 876.9004,-664 876.9004,-700"/>
<text text-anchor="middle" x="826" y="-677.8" font-family="Times,serif" font-size="14.00" fill="#000000">accept indices1</text>
</g>
<!-- node_92&#45;&gt;node_91 -->
<g id="edge9" class="edge">
<title>node_92&#45;&gt;node_91</title>
<path fill="none" stroke="#000000" d="M785.3729,-663.8314C763.8401,-654.2018 737.2151,-642.295 714.4848,-632.1299"/>
<polygon fill="#000000" stroke="#000000" points="715.8926,-628.9254 705.335,-628.038 713.0348,-635.3155 715.8926,-628.9254"/>
</g>
<!-- node_95 -->
<g id="node12" class="node">
<title>node_95</title>
<polygon fill="none" stroke="#000000" points="1016.9518,-412 853.0482,-412 853.0482,-376 1016.9518,-376 1016.9518,-412"/>
<text text-anchor="middle" x="935" y="-389.8" font-family="Times,serif" font-size="14.00" fill="#000000">transmit data1&#45;&gt;executor2</text>
</g>
<!-- node_93&#45;&gt;node_95 -->
<g id="edge2" class="edge">
<title>node_93&#45;&gt;node_95</title>
<path fill="none" stroke="#000000" d="M906.589,-447.8314C910.8317,-439.7925 915.9121,-430.1666 920.596,-421.2918"/>
<polygon fill="#000000" stroke="#000000" points="923.7096,-422.8908 925.2819,-412.4133 917.5189,-419.6235 923.7096,-422.8908"/>
</g>
<!-- node_94 -->
<g id="node11" class="node">
<title>node_94</title>
<polygon fill="none" stroke="#000000" points="1037.8868,-628 936.1132,-628 936.1132,-592 1037.8868,-592 1037.8868,-628"/>
<text text-anchor="middle" x="987" y="-605.8" font-family="Times,serif" font-size="14.00" fill="#000000">accept service1</text>
</g>
<!-- node_94&#45;&gt;node_90 -->
<g id="edge5" class="edge">
<title>node_94&#45;&gt;node_90</title>
<path fill="none" stroke="#000000" d="M971.6071,-591.8314C964.5096,-583.454 955.952,-573.3531 948.176,-564.1749"/>
<polygon fill="#000000" stroke="#000000" points="950.7348,-561.7807 941.6001,-556.4133 945.3939,-566.3056 950.7348,-561.7807"/>
</g>
<!-- node_95&#45;&gt;node_96 -->
<g id="edge1" class="edge">
<title>node_95&#45;&gt;node_96</title>
<path fill="none" stroke="#000000" d="M935,-375.8314C935,-368.131 935,-358.9743 935,-350.4166"/>
<polygon fill="#000000" stroke="#000000" points="938.5001,-350.4132 935,-340.4133 931.5001,-350.4133 938.5001,-350.4132"/>
</g>
<!-- node_81 -->
<g id="node28" class="node">
<title>node_81</title>
<polygon fill="none" stroke="#000000" points="1950.5636,-340 1865.4364,-340 1865.4364,-304 1950.5636,-304 1950.5636,-340"/>
<text text-anchor="middle" x="1908" y="-317.8" font-family="Times,serif" font-size="14.00" fill="#000000">accept data1</text>
</g>
<!-- node_95&#45;&gt;node_81 -->
<g id="edge33" class="edge">
<title>node_95&#45;&gt;node_81</title>
<path fill="none" stroke="#000000" stroke-dasharray="1,5" d="M1017.047,-391.1692C1223.955,-383.8364 1756.1703,-363.7016 1835,-348 1841.7373,-346.658 1848.6913,-344.817 1855.5074,-342.7293"/>
<polygon fill="#000000" stroke="#000000" points="1856.9287,-345.9475 1865.354,-339.5237 1854.7617,-339.2914 1856.9287,-345.9475"/>
</g>
<!-- node_114 -->
<g id="node13" class="node">
<title>node_114</title>
<polygon fill="none" stroke="#000000" points="1252.3029,-556 1093.6971,-556 1093.6971,-520 1252.3029,-520 1252.3029,-556"/>
<text text-anchor="middle" x="1173" y="-533.8" font-family="Times,serif" font-size="14.00" fill="#000000">transmit service1&#45;&gt;Client</text>
</g>
<!-- node_102 -->
<g id="node18" class="node">
<title>node_102</title>
<polygon fill="none" stroke="#000000" points="1723.8868,-484 1622.1132,-484 1622.1132,-448 1723.8868,-448 1723.8868,-484"/>
<text text-anchor="middle" x="1673" y="-461.8" font-family="Times,serif" font-size="14.00" fill="#000000">accept service1</text>
</g>
<!-- node_114&#45;&gt;node_102 -->
<g id="edge35" class="edge">
<title>node_114&#45;&gt;node_102</title>
<path fill="none" stroke="#000000" stroke-dasharray="1,5" d="M1252.5262,-521.6335C1255.7228,-521.0652 1258.89,-520.5182 1262,-520 1385.7303,-499.3849 1531.4962,-481.8096 1611.9376,-472.6909"/>
<polygon fill="#000000" stroke="#000000" points="1612.3491,-476.1667 1621.8937,-471.5677 1611.5643,-469.2109 1612.3491,-476.1667"/>
</g>
<!-- node_115 -->
<g id="node14" class="node">
<title>node_115</title>
<polygon fill="none" stroke="#000000" points="1606.3029,-556 1447.6971,-556 1447.6971,-520 1606.3029,-520 1606.3029,-556"/>
<text text-anchor="middle" x="1527" y="-533.8" font-family="Times,serif" font-size="14.00" fill="#000000">transmit service2&#45;&gt;Client</text>
</g>
<!-- node_109 -->
<g id="node25" class="node">
<title>node_109</title>
<polygon fill="none" stroke="#000000" points="1963.8868,-484 1862.1132,-484 1862.1132,-448 1963.8868,-448 1963.8868,-484"/>
<text text-anchor="middle" x="1913" y="-461.8" font-family="Times,serif" font-size="14.00" fill="#000000">accept service2</text>
</g>
<!-- node_115&#45;&gt;node_109 -->
<g id="edge38" class="edge">
<title>node_115&#45;&gt;node_109</title>
<path fill="none" stroke="#000000" stroke-dasharray="1,5" d="M1606.4947,-520.6472C1607.6706,-520.4275 1608.8396,-520.2115 1610,-520 1714.2618,-500.9931 1744.6673,-507.3417 1852.1248,-484.0192"/>
<polygon fill="#000000" stroke="#000000" points="1853.0581,-487.3976 1862.069,-481.8249 1851.5497,-480.562 1853.0581,-487.3976"/>
</g>
<!-- node_116 -->
<g id="node15" class="node">
<title>node_116</title>
<polygon fill="none" stroke="#000000" points="1429.3165,-556 1270.6835,-556 1270.6835,-520 1429.3165,-520 1429.3165,-556"/>
<text text-anchor="middle" x="1350" y="-533.8" font-family="Times,serif" font-size="14.00" fill="#000000">transmit indices1&#45;&gt;Client</text>
</g>
<!-- node_112 -->
<g id="node16" class="node">
<title>node_112</title>
<polygon fill="none" stroke="#000000" points="1843.9004,-484 1742.0996,-484 1742.0996,-448 1843.9004,-448 1843.9004,-484"/>
<text text-anchor="middle" x="1793" y="-461.8" font-family="Times,serif" font-size="14.00" fill="#000000">accept indices1</text>
</g>
<!-- node_116&#45;&gt;node_112 -->
<g id="edge40" class="edge">
<title>node_116&#45;&gt;node_112</title>
<path fill="none" stroke="#000000" stroke-dasharray="1,5" d="M1429.5204,-521.5986C1432.7186,-521.04 1435.8878,-520.5045 1439,-520 1565.774,-499.4504 1602.3824,-510.4409 1732.1668,-483.9729"/>
<polygon fill="#000000" stroke="#000000" points="1733.008,-487.373 1742.0883,-481.9143 1731.5858,-480.5189 1733.008,-487.373"/>
</g>
<!-- node_110 -->
<g id="node26" class="node">
<title>node_110</title>
<polygon fill="none" stroke="#000000" points="1999.7892,-412 1820.2108,-412 1820.2108,-376 1999.7892,-376 1999.7892,-412"/>
<text text-anchor="middle" x="1910" y="-389.8" font-family="Times,serif" font-size="14.00" fill="#000000">transmit indices1&#45;&gt;executor1</text>
</g>
<!-- node_112&#45;&gt;node_110 -->
<g id="edge24" class="edge">
<title>node_112&#45;&gt;node_110</title>
<path fill="none" stroke="#000000" d="M1822.524,-447.8314C1837.4891,-438.6221 1855.8386,-427.3301 1871.8603,-417.4706"/>
<polygon fill="#000000" stroke="#000000" points="1873.8032,-420.3847 1880.4854,-412.1628 1870.1345,-414.423 1873.8032,-420.3847"/>
</g>
<!-- node_113 -->
<g id="node17" class="node">
<title>node_113</title>
<polygon fill="none" stroke="#000000" points="2306,-556 2261.2728,-538 2306,-520 2350.7272,-538 2306,-556"/>
<text text-anchor="middle" x="2306" y="-533.8" font-family="Times,serif" font-size="14.00" fill="#000000">Client</text>
</g>
<!-- node_107 -->
<g id="node23" class="node">
<title>node_107</title>
<polygon fill="none" stroke="#000000" points="1801.7755,-412 1622.2245,-412 1622.2245,-376 1801.7755,-376 1801.7755,-412"/>
<text text-anchor="middle" x="1712" y="-389.8" font-family="Times,serif" font-size="14.00" fill="#000000">transmit service1&#45;&gt;executor1</text>
</g>
<!-- node_102&#45;&gt;node_107 -->
<g id="edge16" class="edge">
<title>node_102&#45;&gt;node_107</title>
<path fill="none" stroke="#000000" d="M1682.8413,-447.8314C1687.1957,-439.7925 1692.4098,-430.1666 1697.2169,-421.2918"/>
<polygon fill="#000000" stroke="#000000" points="1700.3408,-422.8732 1702.0261,-412.4133 1694.1857,-419.5392 1700.3408,-422.8732"/>
</g>
<!-- node_103 -->
<g id="node19" class="node">
<title>node_103</title>
<polygon fill="none" stroke="#000000" points="2488.0562,-484 2311.9438,-484 2311.9438,-448 2488.0562,-448 2488.0562,-484"/>
<text text-anchor="middle" x="2400" y="-461.8" font-family="Times,serif" font-size="14.00" fill="#000000">accept &amp;finished&amp;executor2</text>
</g>
<!-- node_104 -->
<g id="node20" class="node">
<title>node_104</title>
<polygon fill="none" stroke="#000000" points="2293.953,-484 2176.047,-484 2176.047,-448 2293.953,-448 2293.953,-484"/>
<text text-anchor="middle" x="2235" y="-461.8" font-family="Times,serif" font-size="14.00" fill="#000000">accept predictions</text>
</g>
<!-- node_105 -->
<g id="node21" class="node">
<title>node_105</title>
<polygon fill="none" stroke="#000000" points="2092.5381,-556 2015.4619,-556 2015.4619,-520 2092.5381,-520 2092.5381,-556"/>
<text text-anchor="middle" x="2054" y="-533.8" font-family="Times,serif" font-size="14.00" fill="#000000">send graph</text>
</g>
<!-- node_105&#45;&gt;node_112 -->
<g id="edge17" class="edge">
<title>node_105&#45;&gt;node_112</title>
<path fill="none" stroke="#000000" d="M2015.3755,-527.9787C1976.8983,-517.9167 1915.8965,-501.7525 1853.9761,-484.2411"/>
<polygon fill="#000000" stroke="#000000" points="1854.6093,-480.7826 1844.0336,-481.4198 1852.6983,-487.5168 1854.6093,-480.7826"/>
</g>
<!-- node_105&#45;&gt;node_102 -->
<g id="edge21" class="edge">
<title>node_105&#45;&gt;node_102</title>
<path fill="none" stroke="#000000" d="M2015.2471,-528.4152C2002.7622,-525.4997 1988.8361,-522.4279 1976,-520 1871.8663,-500.3034 1841.3403,-507.3013 1733.8756,-484.0175"/>
<polygon fill="#000000" stroke="#000000" points="1734.45,-480.5601 1723.931,-481.8249 1732.9429,-487.396 1734.45,-480.5601"/>
</g>
<!-- node_105&#45;&gt;node_103 -->
<g id="edge22" class="edge">
<title>node_105&#45;&gt;node_103</title>
<path fill="none" stroke="#000000" d="M2092.6835,-529.9503C2143.2745,-519.4226 2233.6591,-500.6143 2303.3577,-486.1105"/>
<polygon fill="#000000" stroke="#000000" points="2304.4066,-489.4673 2313.4838,-484.0034 2302.9804,-482.6141 2304.4066,-489.4673"/>
</g>
<!-- node_105&#45;&gt;node_104 -->
<g id="edge25" class="edge">
<title>node_105&#45;&gt;node_104</title>
<path fill="none" stroke="#000000" d="M2092.829,-522.5542C2118.3067,-512.4194 2152.0008,-499.0162 2180.1924,-487.8019"/>
<polygon fill="#000000" stroke="#000000" points="2181.5241,-491.039 2189.5223,-484.0906 2178.9368,-484.5347 2181.5241,-491.039"/>
</g>
<!-- node_105&#45;&gt;node_106 -->
<g id="edge11" class="edge">
<title>node_105&#45;&gt;node_106</title>
<path fill="none" stroke="#000000" d="M2058.0375,-519.8314C2059.7487,-512.131 2061.7835,-502.9743 2063.6852,-494.4166"/>
<polygon fill="#000000" stroke="#000000" points="2067.1554,-494.9344 2065.9082,-484.4133 2060.3221,-493.4159 2067.1554,-494.9344"/>
</g>
<!-- node_105&#45;&gt;node_109 -->
<g id="edge14" class="edge">
<title>node_105&#45;&gt;node_109</title>
<path fill="none" stroke="#000000" d="M2018.4197,-519.8314C1999.9675,-510.4089 1977.2455,-498.8062 1957.627,-488.7883"/>
<polygon fill="#000000" stroke="#000000" points="1959.0667,-485.5935 1948.5689,-484.1628 1955.8832,-491.8278 1959.0667,-485.5935"/>
</g>
<!-- node_107&#45;&gt;node_94 -->
<g id="edge34" class="edge">
<title>node_107&#45;&gt;node_94</title>
<path fill="none" stroke="#000000" stroke-dasharray="1,5" d="M1622.1828,-396.1538C1452.3027,-400.9769 1096.8465,-414.9272 1052,-448 1009.0464,-479.6769 994.4297,-544.4401 989.4901,-581.7743"/>
<polygon fill="#000000" stroke="#000000" points="985.9831,-581.6303 988.2923,-591.9704 992.9353,-582.4471 985.9831,-581.6303"/>
</g>
<!-- node_108 -->
<g id="node24" class="node">
<title>node_108</title>
<polygon fill="none" stroke="#000000" points="1966.5381,-556 1889.4619,-556 1889.4619,-520 1966.5381,-520 1966.5381,-556"/>
<text text-anchor="middle" x="1928" y="-533.8" font-family="Times,serif" font-size="14.00" fill="#000000">send graph</text>
</g>
<!-- node_108&#45;&gt;node_112 -->
<g id="edge15" class="edge">
<title>node_108&#45;&gt;node_112</title>
<path fill="none" stroke="#000000" d="M1893.9338,-519.8314C1876.3467,-510.4516 1854.7084,-498.9112 1835.9832,-488.9244"/>
<polygon fill="#000000" stroke="#000000" points="1837.5259,-485.7805 1827.0553,-484.1628 1834.2318,-491.957 1837.5259,-485.7805"/>
</g>
<!-- node_108&#45;&gt;node_102 -->
<g id="edge18" class="edge">
<title>node_108&#45;&gt;node_102</title>
<path fill="none" stroke="#000000" d="M1889.4524,-527.5854C1852.0666,-517.4268 1793.4996,-501.3607 1733.6541,-484.1622"/>
<polygon fill="#000000" stroke="#000000" points="1734.6194,-480.798 1724.0413,-481.393 1732.6816,-487.5245 1734.6194,-480.798"/>
</g>
<!-- node_108&#45;&gt;node_103 -->
<g id="edge19" class="edge">
<title>node_108&#45;&gt;node_103</title>
<path fill="none" stroke="#000000" d="M1966.7156,-528.211C1979.1986,-525.2846 1993.1329,-522.2579 2006,-520 2133.7676,-497.5793 2169.8209,-503.8101 2301.6706,-484.1451"/>
<polygon fill="#000000" stroke="#000000" points="2302.3885,-487.5764 2311.7521,-482.6192 2301.341,-480.6552 2302.3885,-487.5764"/>
</g>
<!-- node_108&#45;&gt;node_104 -->
<g id="edge20" class="edge">
<title>node_108&#45;&gt;node_104</title>
<path fill="none" stroke="#000000" d="M1966.8694,-528.9753C1979.3606,-526.0897 1993.2609,-522.8941 2006,-520 2074.4283,-504.4542 2094.1,-501.614 2166.0476,-484.1882"/>
<polygon fill="#000000" stroke="#000000" points="2167.1751,-487.516 2176.0638,-481.7504 2165.5197,-480.7146 2167.1751,-487.516"/>
</g>
<!-- node_108&#45;&gt;node_106 -->
<g id="edge23" class="edge">
<title>node_108&#45;&gt;node_106</title>
<path fill="none" stroke="#000000" d="M1963.8326,-519.8314C1982.4157,-510.4089 2005.2989,-498.8062 2025.0565,-488.7883"/>
<polygon fill="#000000" stroke="#000000" points="2026.8427,-491.8069 2034.1789,-484.1628 2023.677,-485.5635 2026.8427,-491.8069"/>
</g>
<!-- node_108&#45;&gt;node_109 -->
<g id="edge12" class="edge">
<title>node_108&#45;&gt;node_109</title>
<path fill="none" stroke="#000000" d="M1924.2149,-519.8314C1922.6106,-512.131 1920.703,-502.9743 1918.9201,-494.4166"/>
<polygon fill="#000000" stroke="#000000" points="1922.3021,-493.4892 1916.8361,-484.4133 1915.4493,-494.9169 1922.3021,-493.4892"/>
</g>
<!-- node_111 -->
<g id="node27" class="node">
<title>node_111</title>
<polygon fill="none" stroke="#000000" points="2197.7755,-412 2018.2245,-412 2018.2245,-376 2197.7755,-376 2197.7755,-412"/>
<text text-anchor="middle" x="2108" y="-389.8" font-family="Times,serif" font-size="14.00" fill="#000000">transmit service2&#45;&gt;executor2</text>
</g>
<!-- node_109&#45;&gt;node_111 -->
<g id="edge13" class="edge">
<title>node_109&#45;&gt;node_111</title>
<path fill="none" stroke="#000000" d="M1961.955,-447.9243C1988.4968,-438.1243 2021.4823,-425.945 2049.3858,-415.6422"/>
<polygon fill="#000000" stroke="#000000" points="2050.8562,-418.8303 2059.0248,-412.0831 2048.4315,-412.2636 2050.8562,-418.8303"/>
</g>
<!-- node_110&#45;&gt;node_92 -->
<g id="edge41" class="edge">
<title>node_110&#45;&gt;node_92</title>
<path fill="none" stroke="#000000" stroke-dasharray="1,5" d="M1820.1785,-410.4613C1817.0827,-410.9872 1814.0162,-411.5016 1811,-412 1650.0736,-438.5923 1210.7891,-416.1658 1085,-520 1045.7579,-552.3928 1084.7115,-593.8375 1047,-628 1023.7008,-649.1065 943.9202,-664.8444 886.9129,-673.7288"/>
<polygon fill="#000000" stroke="#000000" points="886.266,-670.2869 876.908,-675.2547 887.3214,-677.2069 886.266,-670.2869"/>
</g>
<!-- node_85 -->
<g id="node32" class="node">
<title>node_85</title>
<polygon fill="none" stroke="#000000" points="2177.8868,-340 2076.1132,-340 2076.1132,-304 2177.8868,-304 2177.8868,-340"/>
<text text-anchor="middle" x="2127" y="-317.8" font-family="Times,serif" font-size="14.00" fill="#000000">accept service2</text>
</g>
<!-- node_111&#45;&gt;node_85 -->
<g id="edge37" class="edge">
<title>node_111&#45;&gt;node_85</title>
<path fill="none" stroke="#000000" stroke-dasharray="1,5" d="M2112.7945,-375.8314C2114.8489,-368.0463 2117.296,-358.7729 2119.5756,-350.1347"/>
<polygon fill="#000000" stroke="#000000" points="2122.9735,-350.9753 2122.1409,-340.4133 2116.2052,-349.1892 2122.9735,-350.9753"/>
</g>
<!-- node_87 -->
<g id="node34" class="node">
<title>node_87</title>
<polygon fill="none" stroke="#000000" points="2089.7736,-268 1814.2264,-268 1814.2264,-232 2089.7736,-232 2089.7736,-268"/>
<text text-anchor="middle" x="1952" y="-245.8" font-family="Times,serif" font-size="14.00" fill="#000000">cast data1 from dataset to weka.core.Instances</text>
</g>
<!-- node_81&#45;&gt;node_87 -->
<g id="edge29" class="edge">
<title>node_81&#45;&gt;node_87</title>
<path fill="none" stroke="#000000" d="M1919.1031,-303.8314C1924.0674,-295.7079 1930.0222,-285.9637 1935.4928,-277.0118"/>
<polygon fill="#000000" stroke="#000000" points="1938.5194,-278.7712 1940.7474,-268.4133 1932.5464,-275.121 1938.5194,-278.7712"/>
</g>
<!-- node_82 -->
<g id="node29" class="node">
<title>node_82</title>
<polygon fill="none" stroke="#000000" points="1795.9609,-268 1676.0391,-268 1676.0391,-232 1795.9609,-232 1795.9609,-268"/>
<text text-anchor="middle" x="1736" y="-245.8" font-family="Times,serif" font-size="14.00" fill="#000000">parse Bool: TRUE</text>
</g>
<!-- node_86 -->
<g id="node33" class="node">
<title>node_86</title>
<polygon fill="none" stroke="#000000" points="2145.4102,-196 1866.5898,-196 1866.5898,-160 2145.4102,-160 2145.4102,-196"/>
<text text-anchor="middle" x="2006" y="-173.8" font-family="Times,serif" font-size="14.00" fill="#000000">predictions = service2::predict([TRUE, data1])</text>
</g>
<!-- node_82&#45;&gt;node_86 -->
<g id="edge27" class="edge">
<title>node_82&#45;&gt;node_86</title>
<path fill="none" stroke="#000000" d="M1796.2572,-233.9314C1835.2501,-223.5333 1886.3908,-209.8958 1928.4116,-198.6902"/>
<polygon fill="#000000" stroke="#000000" points="1929.5705,-202.0036 1938.331,-196.0451 1927.7668,-195.2399 1929.5705,-202.0036"/>
</g>
<!-- node_83 -->
<g id="node30" class="node">
<title>node_83</title>
<polygon fill="none" stroke="#000000" points="2182.3686,-124 2007.6314,-124 2007.6314,-88 2182.3686,-88 2182.3686,-124"/>
<text text-anchor="middle" x="2095" y="-101.8" font-family="Times,serif" font-size="14.00" fill="#000000">transmit predictions&#45;&gt;Client</text>
</g>
<!-- node_83&#45;&gt;node_104 -->
<g id="edge36" class="edge">
<title>node_83&#45;&gt;node_104</title>
<path fill="none" stroke="#000000" stroke-dasharray="1,5" d="M2145.248,-124.13C2195.0646,-145.7175 2264,-186.9761 2264,-250 2264,-322 2264,-322 2264,-322 2264,-362.8828 2252.6276,-409.0322 2244.126,-437.8198"/>
<polygon fill="#000000" stroke="#000000" points="2240.7133,-437.0126 2241.1502,-447.5984 2247.41,-439.0506 2240.7133,-437.0126"/>
</g>
<!-- node_88 -->
<g id="node35" class="node">
<title>node_88</title>
<polygon fill="none" stroke="#000000" points="2198.1485,-52 1991.8515,-52 1991.8515,-16 2198.1485,-16 2198.1485,-52"/>
<text text-anchor="middle" x="2095" y="-29.8" font-family="Times,serif" font-size="14.00" fill="#000000">FinishNode &amp;finished&amp;executor2</text>
</g>
<!-- node_83&#45;&gt;node_88 -->
<g id="edge28" class="edge">
<title>node_83&#45;&gt;node_88</title>
<path fill="none" stroke="#000000" d="M2095,-87.8314C2095,-80.131 2095,-70.9743 2095,-62.4166"/>
<polygon fill="#000000" stroke="#000000" points="2098.5001,-62.4132 2095,-52.4133 2091.5001,-62.4133 2098.5001,-62.4132"/>
</g>
<!-- node_84 -->
<g id="node31" class="node">
<title>node_84</title>
<polygon fill="none" stroke="#000000" points="2198.2455,-268 2107.7545,-268 2107.7545,-232 2198.2455,-232 2198.2455,-268"/>
<text text-anchor="middle" x="2153" y="-245.8" font-family="Times,serif" font-size="14.00" fill="#000000">load service2</text>
</g>
<!-- node_84&#45;&gt;node_86 -->
<g id="edge26" class="edge">
<title>node_84&#45;&gt;node_86</title>
<path fill="none" stroke="#000000" d="M2115.9057,-231.8314C2096.5074,-222.3302 2072.583,-210.6121 2052.0138,-200.5374"/>
<polygon fill="#000000" stroke="#000000" points="2053.3478,-197.2935 2042.8276,-196.038 2050.2686,-203.5799 2053.3478,-197.2935"/>
</g>
<!-- node_85&#45;&gt;node_84 -->
<g id="edge31" class="edge">
<title>node_85&#45;&gt;node_84</title>
<path fill="none" stroke="#000000" d="M2133.5609,-303.8314C2136.4027,-295.9617 2139.7937,-286.5712 2142.9419,-277.8533"/>
<polygon fill="#000000" stroke="#000000" points="2146.2462,-279.0076 2146.3508,-268.4133 2139.6623,-276.63 2146.2462,-279.0076"/>
</g>
<!-- node_86&#45;&gt;node_83 -->
<g id="edge30" class="edge">
<title>node_86&#45;&gt;node_83</title>
<path fill="none" stroke="#000000" d="M2028.4585,-159.8314C2039.4205,-150.9632 2052.7699,-140.1637 2064.6265,-130.5718"/>
<polygon fill="#000000" stroke="#000000" points="2066.9755,-133.1734 2072.5487,-124.1628 2062.5729,-127.7313 2066.9755,-133.1734"/>
</g>
<!-- node_87&#45;&gt;node_86 -->
<g id="edge32" class="edge">
<title>node_87&#45;&gt;node_86</title>
<path fill="none" stroke="#000000" d="M1965.6265,-231.8314C1971.846,-223.5386 1979.3322,-213.557 1986.16,-204.4533"/>
<polygon fill="#000000" stroke="#000000" points="1988.99,-206.5133 1992.19,-196.4133 1983.39,-202.3133 1988.99,-206.5133"/>
</g>
<!-- node_88&#45;&gt;node_103 -->
<g id="edge42" class="edge">
<title>node_88&#45;&gt;node_103</title>
<path fill="none" stroke="#000000" stroke-dasharray="1,5" d="M2198.3871,-50.2207C2269.4365,-67.9338 2351,-104.3148 2351,-178 2351,-322 2351,-322 2351,-322 2351,-364.469 2370.3374,-410.4078 2384.7165,-438.697"/>
<polygon fill="#000000" stroke="#000000" points="2381.6295,-440.3468 2389.3677,-447.5836 2387.8314,-437.1007 2381.6295,-440.3468"/>
</g>
<!-- node_89 -->
<g id="node36" class="node">
<title>node_89</title>
<polygon fill="none" stroke="#000000" points="1762,-340 1698.3022,-322 1762,-304 1825.6978,-322 1762,-340"/>
<text text-anchor="middle" x="1762" y="-317.8" font-family="Times,serif" font-size="14.00" fill="#000000">executor2</text>
</g>
</g>
</svg>
