<?xml version="1.0" encoding="UTF-8" standalone="no"?>
<!DOCTYPE svg PUBLIC "-//W3C//DTD SVG 1.1//EN"
 "http://www.w3.org/Graphics/SVG/1.1/DTD/svg11.dtd">
<!-- Generated by graphviz version 2.40.1 (20161225.0304)
 -->
<!-- Title: %3 Pages: 1 -->
<svg width="2372pt" height="652pt"
 viewBox="0.00 0.00 2372.04 652.00" xmlns="http://www.w3.org/2000/svg" xmlns:xlink="http://www.w3.org/1999/xlink">
<g id="graph0" class="graph" transform="scale(1 1) rotate(0) translate(4 648)">
<title>%3</title>
<polygon fill="#ffffff" stroke="transparent" points="-4,4 -4,-648 2368.0381,-648 2368.0381,4 -4,4"/>
<g id="clust1" class="cluster">
<title>cluster_1081084897</title>
<polygon fill="none" stroke="#000000" points="8,-8 8,-348 546,-348 546,-8 8,-8"/>
</g>
<g id="clust2" class="cluster">
<title>cluster_800533014</title>
<polygon fill="none" stroke="#000000" points="586,-152 586,-348 1432,-348 1432,-152 586,-152"/>
</g>
<g id="clust3" class="cluster">
<title>cluster_1032052382</title>
<polygon fill="none" stroke="#000000" points="1924,-296 1924,-636 2304,-636 2304,-296 1924,-296"/>
</g>
<!-- node_80 -->
<g id="node1" class="node">
<title>node_80</title>
<polygon fill="none" stroke="#000000" points="538.1485,-52 331.8515,-52 331.8515,-16 538.1485,-16 538.1485,-52"/>
<text text-anchor="middle" x="435" y="-29.8" font-family="Times,serif" font-size="14.00" fill="#000000">FinishNode &amp;finished&amp;executor2</text>
</g>
<!-- node_92 -->
<g id="node18" class="node">
<title>node_92</title>
<polygon fill="none" stroke="#000000" points="906.0562,-268 729.9438,-268 729.9438,-232 906.0562,-232 906.0562,-268"/>
<text text-anchor="middle" x="818" y="-245.8" font-family="Times,serif" font-size="14.00" fill="#000000">accept &amp;finished&amp;executor2</text>
</g>
<!-- node_80&#45;&gt;node_92 -->
<g id="edge37" class="edge">
<title>node_80&#45;&gt;node_92</title>
<path fill="none" stroke="#000000" stroke-dasharray="1,5" d="M467.4452,-52.2347C486.0504,-62.695 509.8422,-76.078 531,-88 618.5906,-137.3555 721.1549,-195.2809 776.8695,-226.7581"/>
<polygon fill="#000000" stroke="#000000" points="775.3,-229.8913 785.7281,-231.7632 778.7434,-223.7968 775.3,-229.8913"/>
</g>
<!-- node_81 -->
<g id="node2" class="node">
<title>node_81</title>
<polygon fill="none" stroke="#000000" points="537.9609,-268 418.0391,-268 418.0391,-232 537.9609,-232 537.9609,-268"/>
<text text-anchor="middle" x="478" y="-245.8" font-family="Times,serif" font-size="14.00" fill="#000000">parse Bool: TRUE</text>
</g>
<!-- node_77 -->
<g id="node7" class="node">
<title>node_77</title>
<polygon fill="none" stroke="#000000" points="516.4102,-196 237.5898,-196 237.5898,-160 516.4102,-160 516.4102,-196"/>
<text text-anchor="middle" x="377" y="-173.8" font-family="Times,serif" font-size="14.00" fill="#000000">predictions = service2::predict([TRUE, data1])</text>
</g>
<!-- node_81&#45;&gt;node_77 -->
<g id="edge6" class="edge">
<title>node_81&#45;&gt;node_77</title>
<path fill="none" stroke="#000000" d="M452.5134,-231.8314C439.8341,-222.7927 424.3404,-211.7476 410.6945,-202.0198"/>
<polygon fill="#000000" stroke="#000000" points="412.6529,-199.1176 402.4784,-196.1628 408.5895,-204.8176 412.6529,-199.1176"/>
</g>
<!-- node_82 -->
<g id="node3" class="node">
<title>node_82</title>
<polygon fill="none" stroke="#000000" points="474,-340 410.3022,-322 474,-304 537.6978,-322 474,-340"/>
<text text-anchor="middle" x="474" y="-317.8" font-family="Times,serif" font-size="14.00" fill="#000000">executor2</text>
</g>
<!-- node_74 -->
<g id="node4" class="node">
<title>node_74</title>
<polygon fill="none" stroke="#000000" points="391.8868,-340 290.1132,-340 290.1132,-304 391.8868,-304 391.8868,-340"/>
<text text-anchor="middle" x="341" y="-317.8" font-family="Times,serif" font-size="14.00" fill="#000000">accept service2</text>
</g>
<!-- node_75 -->
<g id="node5" class="node">
<title>node_75</title>
<polygon fill="none" stroke="#000000" points="400.2455,-268 309.7545,-268 309.7545,-232 400.2455,-232 400.2455,-268"/>
<text text-anchor="middle" x="355" y="-245.8" font-family="Times,serif" font-size="14.00" fill="#000000">load service2</text>
</g>
<!-- node_74&#45;&gt;node_75 -->
<g id="edge1" class="edge">
<title>node_74&#45;&gt;node_75</title>
<path fill="none" stroke="#000000" d="M344.5328,-303.8314C346.0301,-296.131 347.8105,-286.9743 349.4745,-278.4166"/>
<polygon fill="#000000" stroke="#000000" points="352.9465,-278.8975 351.4196,-268.4133 346.0752,-277.5614 352.9465,-278.8975"/>
</g>
<!-- node_75&#45;&gt;node_77 -->
<g id="edge3" class="edge">
<title>node_75&#45;&gt;node_77</title>
<path fill="none" stroke="#000000" d="M360.5515,-231.8314C362.9303,-224.0463 365.7638,-214.7729 368.4033,-206.1347"/>
<polygon fill="#000000" stroke="#000000" points="371.7987,-206.9996 371.3737,-196.4133 365.1042,-204.954 371.7987,-206.9996"/>
</g>
<!-- node_76 -->
<g id="node6" class="node">
<title>node_76</title>
<polygon fill="none" stroke="#000000" points="233.5636,-340 148.4364,-340 148.4364,-304 233.5636,-304 233.5636,-340"/>
<text text-anchor="middle" x="191" y="-317.8" font-family="Times,serif" font-size="14.00" fill="#000000">accept data1</text>
</g>
<!-- node_79 -->
<g id="node9" class="node">
<title>node_79</title>
<polygon fill="none" stroke="#000000" points="291.7736,-268 16.2264,-268 16.2264,-232 291.7736,-232 291.7736,-268"/>
<text text-anchor="middle" x="154" y="-245.8" font-family="Times,serif" font-size="14.00" fill="#000000">cast data1 from dataset to weka.core.Instances</text>
</g>
<!-- node_76&#45;&gt;node_79 -->
<g id="edge5" class="edge">
<title>node_76&#45;&gt;node_79</title>
<path fill="none" stroke="#000000" d="M181.6633,-303.8314C177.5757,-295.8771 172.6896,-286.369 168.1691,-277.5723"/>
<polygon fill="#000000" stroke="#000000" points="171.1461,-275.7078 163.4624,-268.4133 164.9201,-278.9074 171.1461,-275.7078"/>
</g>
<!-- node_78 -->
<g id="node8" class="node">
<title>node_78</title>
<polygon fill="none" stroke="#000000" points="522.3686,-124 347.6314,-124 347.6314,-88 522.3686,-88 522.3686,-124"/>
<text text-anchor="middle" x="435" y="-101.8" font-family="Times,serif" font-size="14.00" fill="#000000">transmit predictions&#45;&gt;Client</text>
</g>
<!-- node_77&#45;&gt;node_78 -->
<g id="edge2" class="edge">
<title>node_77&#45;&gt;node_78</title>
<path fill="none" stroke="#000000" d="M391.6358,-159.8314C398.3161,-151.5386 406.3568,-141.557 413.6904,-132.4533"/>
<polygon fill="#000000" stroke="#000000" points="416.6194,-134.3965 420.1671,-124.4133 411.1681,-130.0052 416.6194,-134.3965"/>
</g>
<!-- node_78&#45;&gt;node_80 -->
<g id="edge4" class="edge">
<title>node_78&#45;&gt;node_80</title>
<path fill="none" stroke="#000000" d="M435,-87.8314C435,-80.131 435,-70.9743 435,-62.4166"/>
<polygon fill="#000000" stroke="#000000" points="438.5001,-62.4132 435,-52.4133 431.5001,-62.4133 438.5001,-62.4132"/>
</g>
<!-- node_93 -->
<g id="node19" class="node">
<title>node_93</title>
<polygon fill="none" stroke="#000000" points="711.953,-268 594.047,-268 594.047,-232 711.953,-232 711.953,-268"/>
<text text-anchor="middle" x="653" y="-245.8" font-family="Times,serif" font-size="14.00" fill="#000000">accept predictions</text>
</g>
<!-- node_78&#45;&gt;node_93 -->
<g id="edge38" class="edge">
<title>node_78&#45;&gt;node_93</title>
<path fill="none" stroke="#000000" stroke-dasharray="1,5" d="M474.3912,-124.2054C490.4509,-132.1184 508.9732,-141.8858 525,-152 560.6663,-174.5084 598.6948,-204.4747 623.9464,-225.3198"/>
<polygon fill="#000000" stroke="#000000" points="621.7495,-228.045 631.6769,-231.7462 626.2244,-222.6621 621.7495,-228.045"/>
</g>
<!-- node_79&#45;&gt;node_77 -->
<g id="edge7" class="edge">
<title>node_79&#45;&gt;node_77</title>
<path fill="none" stroke="#000000" d="M209.9845,-231.9243C240.735,-221.9959 279.0488,-209.6255 311.2205,-199.2382"/>
<polygon fill="#000000" stroke="#000000" points="312.5516,-202.4864 320.9925,-196.0831 310.4008,-195.825 312.5516,-202.4864"/>
</g>
<!-- node_96 -->
<g id="node10" class="node">
<title>node_96</title>
<polygon fill="none" stroke="#000000" points="1165.5381,-340 1088.4619,-340 1088.4619,-304 1165.5381,-304 1165.5381,-340"/>
<text text-anchor="middle" x="1127" y="-317.8" font-family="Times,serif" font-size="14.00" fill="#000000">send graph</text>
</g>
<!-- node_97 -->
<g id="node11" class="node">
<title>node_97</title>
<polygon fill="none" stroke="#000000" points="1229.8868,-268 1128.1132,-268 1128.1132,-232 1229.8868,-232 1229.8868,-268"/>
<text text-anchor="middle" x="1179" y="-245.8" font-family="Times,serif" font-size="14.00" fill="#000000">accept service1</text>
</g>
<!-- node_96&#45;&gt;node_97 -->
<g id="edge8" class="edge">
<title>node_96&#45;&gt;node_97</title>
<path fill="none" stroke="#000000" d="M1140.1218,-303.8314C1146.0499,-295.6232 1153.1729,-285.7606 1159.6933,-276.7323"/>
<polygon fill="#000000" stroke="#000000" points="1162.684,-278.5693 1165.7015,-268.4133 1157.0092,-274.4708 1162.684,-278.5693"/>
</g>
<!-- node_98 -->
<g id="node12" class="node">
<title>node_98</title>
<polygon fill="none" stroke="#000000" points="1025.8868,-268 924.1132,-268 924.1132,-232 1025.8868,-232 1025.8868,-268"/>
<text text-anchor="middle" x="975" y="-245.8" font-family="Times,serif" font-size="14.00" fill="#000000">accept service2</text>
</g>
<!-- node_96&#45;&gt;node_98 -->
<g id="edge10" class="edge">
<title>node_96&#45;&gt;node_98</title>
<path fill="none" stroke="#000000" d="M1095.3554,-303.9753C1090.262,-301.2248 1085.0157,-298.4794 1080,-296 1063.371,-287.7798 1044.9319,-279.4475 1028.2052,-272.1745"/>
<polygon fill="#000000" stroke="#000000" points="1029.1498,-268.7703 1018.5813,-268.0235 1026.3774,-275.1979 1029.1498,-268.7703"/>
</g>
<!-- node_99 -->
<g id="node13" class="node">
<title>node_99</title>
<polygon fill="none" stroke="#000000" points="1424.0562,-268 1247.9438,-268 1247.9438,-232 1424.0562,-232 1424.0562,-268"/>
<text text-anchor="middle" x="1336" y="-245.8" font-family="Times,serif" font-size="14.00" fill="#000000">accept &amp;finished&amp;executor1</text>
</g>
<!-- node_96&#45;&gt;node_99 -->
<g id="edge12" class="edge">
<title>node_96&#45;&gt;node_99</title>
<path fill="none" stroke="#000000" d="M1165.8215,-308.6261C1196.1426,-298.1805 1238.8699,-283.4611 1273.9251,-271.3846"/>
<polygon fill="#000000" stroke="#000000" points="1275.2777,-274.6206 1283.5924,-268.0543 1272.9976,-268.0023 1275.2777,-274.6206"/>
</g>
<!-- node_96&#45;&gt;node_92 -->
<g id="edge17" class="edge">
<title>node_96&#45;&gt;node_92</title>
<path fill="none" stroke="#000000" d="M1097.87,-303.9182C1092.1066,-300.9113 1085.985,-298.0949 1080,-296 1012.8113,-272.4826 990.178,-280.2478 916.5164,-268.1896"/>
<polygon fill="#000000" stroke="#000000" points="916.7239,-264.6744 906.2773,-266.4409 915.5454,-271.5745 916.7239,-264.6744"/>
</g>
<!-- node_96&#45;&gt;node_93 -->
<g id="edge19" class="edge">
<title>node_96&#45;&gt;node_93</title>
<path fill="none" stroke="#000000" d="M1098.7753,-303.872C1092.7804,-300.7505 1086.3413,-297.9031 1080,-296 929.8578,-250.9399 880.7892,-293.0086 721.9521,-267.934"/>
<polygon fill="#000000" stroke="#000000" points="722.2644,-264.4384 711.829,-266.2693 721.1285,-271.3457 722.2644,-264.4384"/>
</g>
<!-- node_94 -->
<g id="node20" class="node">
<title>node_94</title>
<polygon fill="none" stroke="#000000" points="1110.1349,-268 1043.8651,-268 1043.8651,-232 1110.1349,-232 1110.1349,-268"/>
<text text-anchor="middle" x="1077" y="-245.8" font-family="Times,serif" font-size="14.00" fill="#000000">accept i1</text>
</g>
<!-- node_96&#45;&gt;node_94 -->
<g id="edge21" class="edge">
<title>node_96&#45;&gt;node_94</title>
<path fill="none" stroke="#000000" d="M1114.3829,-303.8314C1108.6828,-295.6232 1101.8337,-285.7606 1095.5641,-276.7323"/>
<polygon fill="#000000" stroke="#000000" points="1098.3658,-274.6306 1089.787,-268.4133 1092.6162,-278.6234 1098.3658,-274.6306"/>
</g>
<!-- node_91 -->
<g id="node17" class="node">
<title>node_91</title>
<polygon fill="none" stroke="#000000" points="1403.7755,-196 1224.2245,-196 1224.2245,-160 1403.7755,-160 1403.7755,-196"/>
<text text-anchor="middle" x="1314" y="-173.8" font-family="Times,serif" font-size="14.00" fill="#000000">transmit service1&#45;&gt;executor1</text>
</g>
<!-- node_97&#45;&gt;node_91 -->
<g id="edge16" class="edge">
<title>node_97&#45;&gt;node_91</title>
<path fill="none" stroke="#000000" d="M1213.0662,-231.8314C1230.6533,-222.4516 1252.2916,-210.9112 1271.0168,-200.9244"/>
<polygon fill="#000000" stroke="#000000" points="1272.7682,-203.957 1279.9447,-196.1628 1269.4741,-197.7805 1272.7682,-203.957"/>
</g>
<!-- node_101 -->
<g id="node15" class="node">
<title>node_101</title>
<polygon fill="none" stroke="#000000" points="967.7755,-196 788.2245,-196 788.2245,-160 967.7755,-160 967.7755,-196"/>
<text text-anchor="middle" x="878" y="-173.8" font-family="Times,serif" font-size="14.00" fill="#000000">transmit service2&#45;&gt;executor2</text>
</g>
<!-- node_98&#45;&gt;node_101 -->
<g id="edge13" class="edge">
<title>node_98&#45;&gt;node_101</title>
<path fill="none" stroke="#000000" d="M950.5228,-231.8314C938.4605,-222.8779 923.746,-211.9558 910.7314,-202.2955"/>
<polygon fill="#000000" stroke="#000000" points="912.5852,-199.3127 902.4694,-196.1628 908.413,-204.9335 912.5852,-199.3127"/>
</g>
<!-- node_100 -->
<g id="node14" class="node">
<title>node_100</title>
<polygon fill="none" stroke="#000000" points="1168.0234,-196 1023.9766,-196 1023.9766,-160 1168.0234,-160 1168.0234,-196"/>
<text text-anchor="middle" x="1096" y="-173.8" font-family="Times,serif" font-size="14.00" fill="#000000">transmit i1&#45;&gt;executor1</text>
</g>
<!-- node_87 -->
<g id="node29" class="node">
<title>node_87</title>
<polygon fill="none" stroke="#000000" points="2168.1349,-628 2101.8651,-628 2101.8651,-592 2168.1349,-592 2168.1349,-628"/>
<text text-anchor="middle" x="2135" y="-605.8" font-family="Times,serif" font-size="14.00" fill="#000000">accept i1</text>
</g>
<!-- node_100&#45;&gt;node_87 -->
<g id="edge29" class="edge">
<title>node_100&#45;&gt;node_87</title>
<path fill="none" stroke="#000000" stroke-dasharray="1,5" d="M1168.2987,-189.4498C1183.6959,-191.7442 1199.8724,-194.047 1215,-196 1629.0473,-249.4541 1734.8827,-243.0904 2149,-296 2226.9975,-305.9653 2324,-243.3685 2324,-322 2324,-466 2324,-466 2324,-466 2324,-506.8816 2332.6774,-525.9123 2305,-556 2267.3028,-596.98 2237.8811,-574.5634 2185,-592 2182.6233,-592.7837 2180.189,-593.6033 2177.7358,-594.4426"/>
<polygon fill="#000000" stroke="#000000" points="2176.5555,-591.1474 2168.2632,-597.742 2178.858,-597.7579 2176.5555,-591.1474"/>
</g>
<!-- node_101&#45;&gt;node_74 -->
<g id="edge30" class="edge">
<title>node_101&#45;&gt;node_74</title>
<path fill="none" stroke="#000000" stroke-dasharray="1,5" d="M788.1305,-188.8695C715.4961,-198.6953 619.8121,-214.3028 585,-232 564.2615,-242.5427 567.7003,-257.3824 547,-268 488.2108,-298.154 464.1362,-276.5254 401,-296 396.9726,-297.2423 392.8514,-298.671 388.7484,-300.2061"/>
<polygon fill="#000000" stroke="#000000" points="387.2821,-297.0218 379.2604,-303.943 389.8473,-303.5349 387.2821,-297.0218"/>
</g>
<!-- node_102 -->
<g id="node16" class="node">
<title>node_102</title>
<polygon fill="none" stroke="#000000" points="1026,-340 981.2728,-322 1026,-304 1070.7272,-322 1026,-340"/>
<text text-anchor="middle" x="1026" y="-317.8" font-family="Times,serif" font-size="14.00" fill="#000000">Client</text>
</g>
<!-- node_84 -->
<g id="node26" class="node">
<title>node_84</title>
<polygon fill="none" stroke="#000000" points="2295.8868,-628 2194.1132,-628 2194.1132,-592 2295.8868,-592 2295.8868,-628"/>
<text text-anchor="middle" x="2245" y="-605.8" font-family="Times,serif" font-size="14.00" fill="#000000">accept service1</text>
</g>
<!-- node_91&#45;&gt;node_84 -->
<g id="edge34" class="edge">
<title>node_91&#45;&gt;node_84</title>
<path fill="none" stroke="#000000" stroke-dasharray="1,5" d="M1403.8311,-179.8885C1646.9472,-185.376 2302.0077,-202.8086 2338,-232 2370.1523,-258.077 2362,-280.6022 2362,-322 2362,-466 2362,-466 2362,-466 2362,-507.3978 2363.1412,-523.1108 2338,-556 2328.3268,-568.6543 2314.7725,-578.8716 2300.9982,-586.8707"/>
<polygon fill="#000000" stroke="#000000" points="2299.0523,-583.9454 2291.9533,-591.8103 2302.4074,-590.089 2299.0523,-583.9454"/>
</g>
<!-- node_94&#45;&gt;node_100 -->
<g id="edge15" class="edge">
<title>node_94&#45;&gt;node_100</title>
<path fill="none" stroke="#000000" d="M1081.7945,-231.8314C1083.8489,-224.0463 1086.296,-214.7729 1088.5756,-206.1347"/>
<polygon fill="#000000" stroke="#000000" points="1091.9735,-206.9753 1091.1409,-196.4133 1085.2052,-205.1892 1091.9735,-206.9753"/>
</g>
<!-- node_95 -->
<g id="node21" class="node">
<title>node_95</title>
<polygon fill="none" stroke="#000000" points="963.5381,-340 886.4619,-340 886.4619,-304 963.5381,-304 963.5381,-340"/>
<text text-anchor="middle" x="925" y="-317.8" font-family="Times,serif" font-size="14.00" fill="#000000">send graph</text>
</g>
<!-- node_95&#45;&gt;node_97 -->
<g id="edge9" class="edge">
<title>node_95&#45;&gt;node_97</title>
<path fill="none" stroke="#000000" d="M954.4189,-303.8825C960.1045,-300.9161 966.1241,-298.1233 972,-296 1031.6174,-274.4569 1052.4413,-282.8961 1118.0242,-268.0461"/>
<polygon fill="#000000" stroke="#000000" points="1119.1084,-271.3864 1128.0351,-265.6798 1117.4981,-264.5741 1119.1084,-271.3864"/>
</g>
<!-- node_95&#45;&gt;node_98 -->
<g id="edge11" class="edge">
<title>node_95&#45;&gt;node_98</title>
<path fill="none" stroke="#000000" d="M937.6171,-303.8314C943.3172,-295.6232 950.1663,-285.7606 956.4359,-276.7323"/>
<polygon fill="#000000" stroke="#000000" points="959.3838,-278.6234 962.213,-268.4133 953.6342,-274.6306 959.3838,-278.6234"/>
</g>
<!-- node_95&#45;&gt;node_99 -->
<g id="edge14" class="edge">
<title>node_95&#45;&gt;node_99</title>
<path fill="none" stroke="#000000" d="M953.5187,-303.872C959.4381,-300.7913 965.7735,-297.9595 972,-296 1082.7024,-261.1619 1118.9387,-283.8021 1237.5583,-268.0975"/>
<polygon fill="#000000" stroke="#000000" points="1238.338,-271.5229 1247.7612,-266.68 1237.3747,-264.5895 1238.338,-271.5229"/>
</g>
<!-- node_95&#45;&gt;node_92 -->
<g id="edge18" class="edge">
<title>node_95&#45;&gt;node_92</title>
<path fill="none" stroke="#000000" d="M897.9994,-303.8314C884.5669,-294.7927 868.1527,-283.7476 853.6961,-274.0198"/>
<polygon fill="#000000" stroke="#000000" points="855.2425,-270.8418 844.992,-268.1628 851.3346,-276.6494 855.2425,-270.8418"/>
</g>
<!-- node_95&#45;&gt;node_93 -->
<g id="edge20" class="edge">
<title>node_95&#45;&gt;node_93</title>
<path fill="none" stroke="#000000" d="M886.3179,-311.7606C843.5346,-300.4356 773.7685,-281.9681 721.6523,-268.1727"/>
<polygon fill="#000000" stroke="#000000" points="722.3703,-264.7423 711.8076,-265.5667 720.579,-271.5092 722.3703,-264.7423"/>
</g>
<!-- node_95&#45;&gt;node_94 -->
<g id="edge22" class="edge">
<title>node_95&#45;&gt;node_94</title>
<path fill="none" stroke="#000000" d="M956.6446,-303.9753C961.738,-301.2248 966.9843,-298.4794 972,-296 978.1374,-292.9661 1008.0128,-279.9037 1034.3345,-268.4701"/>
<polygon fill="#000000" stroke="#000000" points="1036.0408,-271.545 1043.8206,-264.353 1033.2538,-265.1237 1036.0408,-271.545"/>
</g>
<!-- node_103 -->
<g id="node22" class="node">
<title>node_103</title>
<polygon fill="none" stroke="#000000" points="1739.5508,-340 1616.4492,-340 1616.4492,-304 1739.5508,-304 1739.5508,-340"/>
<text text-anchor="middle" x="1678" y="-317.8" font-family="Times,serif" font-size="14.00" fill="#000000">transmit i1&#45;&gt;Client</text>
</g>
<!-- node_103&#45;&gt;node_94 -->
<g id="edge32" class="edge">
<title>node_103&#45;&gt;node_94</title>
<path fill="none" stroke="#000000" stroke-dasharray="1,5" d="M1635.033,-303.983C1625.9203,-300.8114 1616.255,-297.9163 1607,-296 1397.4869,-252.6187 1332.4355,-315.7933 1120.0145,-267.7219"/>
<polygon fill="#000000" stroke="#000000" points="1120.6469,-264.2757 1110.1147,-265.4258 1119.0653,-271.0947 1120.6469,-264.2757"/>
</g>
<!-- node_104 -->
<g id="node23" class="node">
<title>node_104</title>
<polygon fill="none" stroke="#000000" points="1598.3029,-340 1439.6971,-340 1439.6971,-304 1598.3029,-304 1598.3029,-340"/>
<text text-anchor="middle" x="1519" y="-317.8" font-family="Times,serif" font-size="14.00" fill="#000000">transmit service2&#45;&gt;Client</text>
</g>
<!-- node_104&#45;&gt;node_98 -->
<g id="edge35" class="edge">
<title>node_104&#45;&gt;node_98</title>
<path fill="none" stroke="#000000" stroke-dasharray="1,5" d="M1467.6724,-303.875C1457.2987,-300.7941 1446.3866,-297.9614 1436,-296 1263.6182,-263.4475 1212.5877,-298.7649 1036.0761,-267.9447"/>
<polygon fill="#000000" stroke="#000000" points="1036.6649,-264.4946 1026.2043,-266.1756 1035.43,-271.3848 1036.6649,-264.4946"/>
</g>
<!-- node_105 -->
<g id="node24" class="node">
<title>node_105</title>
<polygon fill="none" stroke="#000000" points="1916.3029,-340 1757.6971,-340 1757.6971,-304 1916.3029,-304 1916.3029,-340"/>
<text text-anchor="middle" x="1837" y="-317.8" font-family="Times,serif" font-size="14.00" fill="#000000">transmit service1&#45;&gt;Client</text>
</g>
<!-- node_105&#45;&gt;node_97 -->
<g id="edge33" class="edge">
<title>node_105&#45;&gt;node_97</title>
<path fill="none" stroke="#000000" stroke-dasharray="1,5" d="M1783.014,-303.907C1771.8779,-300.7828 1760.1457,-297.9254 1749,-296 1528.5821,-257.9222 1464.4847,-305.6721 1240.3006,-267.966"/>
<polygon fill="#000000" stroke="#000000" points="1240.6438,-264.4737 1230.1951,-266.2271 1239.4567,-271.3723 1240.6438,-264.4737"/>
</g>
<!-- node_83 -->
<g id="node25" class="node">
<title>node_83</title>
<polygon fill="none" stroke="#000000" points="2187.8457,-556 1932.1543,-556 1932.1543,-520 2187.8457,-520 2187.8457,-556"/>
<text text-anchor="middle" x="2060" y="-533.8" font-family="Times,serif" font-size="14.00" fill="#000000">cast i1 from dataset to weka.core.Instances</text>
</g>
<!-- node_85 -->
<g id="node27" class="node">
<title>node_85</title>
<polygon fill="none" stroke="#000000" points="2162.5342,-484 1957.4658,-484 1957.4658,-448 2162.5342,-448 2162.5342,-484"/>
<text text-anchor="middle" x="2060" y="-461.8" font-family="Times,serif" font-size="14.00" fill="#000000">data1 = service1::preprocess([i1])</text>
</g>
<!-- node_83&#45;&gt;node_85 -->
<g id="edge24" class="edge">
<title>node_83&#45;&gt;node_85</title>
<path fill="none" stroke="#000000" d="M2060,-519.8314C2060,-512.131 2060,-502.9743 2060,-494.4166"/>
<polygon fill="#000000" stroke="#000000" points="2063.5001,-494.4132 2060,-484.4133 2056.5001,-494.4133 2063.5001,-494.4132"/>
</g>
<!-- node_89 -->
<g id="node31" class="node">
<title>node_89</title>
<polygon fill="none" stroke="#000000" points="2296.2455,-556 2205.7545,-556 2205.7545,-520 2296.2455,-520 2296.2455,-556"/>
<text text-anchor="middle" x="2251" y="-533.8" font-family="Times,serif" font-size="14.00" fill="#000000">load service1</text>
</g>
<!-- node_84&#45;&gt;node_89 -->
<g id="edge26" class="edge">
<title>node_84&#45;&gt;node_89</title>
<path fill="none" stroke="#000000" d="M2246.5141,-591.8314C2247.1558,-584.131 2247.9188,-574.9743 2248.6319,-566.4166"/>
<polygon fill="#000000" stroke="#000000" points="2252.1229,-566.6694 2249.4656,-556.4133 2245.1471,-566.088 2252.1229,-566.6694"/>
</g>
<!-- node_86 -->
<g id="node28" class="node">
<title>node_86</title>
<polygon fill="none" stroke="#000000" points="2118.9518,-412 1955.0482,-412 1955.0482,-376 2118.9518,-376 2118.9518,-412"/>
<text text-anchor="middle" x="2037" y="-389.8" font-family="Times,serif" font-size="14.00" fill="#000000">transmit data1&#45;&gt;executor2</text>
</g>
<!-- node_85&#45;&gt;node_86 -->
<g id="edge23" class="edge">
<title>node_85&#45;&gt;node_86</title>
<path fill="none" stroke="#000000" d="M2054.1961,-447.8314C2051.7092,-440.0463 2048.7469,-430.7729 2045.9875,-422.1347"/>
<polygon fill="#000000" stroke="#000000" points="2049.2591,-420.874 2042.882,-412.4133 2042.591,-423.0041 2049.2591,-420.874"/>
</g>
<!-- node_86&#45;&gt;node_76 -->
<g id="edge31" class="edge">
<title>node_86&#45;&gt;node_76</title>
<path fill="none" stroke="#000000" stroke-dasharray="1,5" d="M1955.1978,-393.083C1631.1685,-389.2829 447.2244,-373.7537 281,-348 268.8203,-346.113 255.9649,-343.0648 243.9012,-339.7083"/>
<polygon fill="#000000" stroke="#000000" points="244.5652,-336.2568 233.9861,-336.835 242.6168,-342.9801 244.5652,-336.2568"/>
</g>
<!-- node_88 -->
<g id="node30" class="node">
<title>node_88</title>
<polygon fill="none" stroke="#000000" points="2140.1485,-340 1933.8515,-340 1933.8515,-304 2140.1485,-304 2140.1485,-340"/>
<text text-anchor="middle" x="2037" y="-317.8" font-family="Times,serif" font-size="14.00" fill="#000000">FinishNode &amp;finished&amp;executor1</text>
</g>
<!-- node_86&#45;&gt;node_88 -->
<g id="edge25" class="edge">
<title>node_86&#45;&gt;node_88</title>
<path fill="none" stroke="#000000" d="M2037,-375.8314C2037,-368.131 2037,-358.9743 2037,-350.4166"/>
<polygon fill="#000000" stroke="#000000" points="2040.5001,-350.4132 2037,-340.4133 2033.5001,-350.4133 2040.5001,-350.4132"/>
</g>
<!-- node_87&#45;&gt;node_83 -->
<g id="edge27" class="edge">
<title>node_87&#45;&gt;node_83</title>
<path fill="none" stroke="#000000" d="M2116.0743,-591.8314C2107.0143,-583.1337 2096.0191,-572.5783 2086.1735,-563.1265"/>
<polygon fill="#000000" stroke="#000000" points="2088.5574,-560.5633 2078.9196,-556.1628 2083.7096,-565.613 2088.5574,-560.5633"/>
</g>
<!-- node_88&#45;&gt;node_99 -->
<g id="edge36" class="edge">
<title>node_88&#45;&gt;node_99</title>
<path fill="none" stroke="#000000" stroke-dasharray="1,5" d="M1966.5137,-303.9426C1952.8147,-300.9146 1938.5139,-298.0842 1925,-296 1753.6118,-269.5673 1551.6968,-257.9847 1434.3332,-253.1664"/>
<polygon fill="#000000" stroke="#000000" points="1434.4223,-249.6673 1424.2896,-252.7622 1434.1407,-256.6616 1434.4223,-249.6673"/>
</g>
<!-- node_89&#45;&gt;node_85 -->
<g id="edge28" class="edge">
<title>node_89&#45;&gt;node_85</title>
<path fill="none" stroke="#000000" d="M2205.7357,-520.937C2179.273,-510.9615 2145.6162,-498.2742 2117.3154,-487.6058"/>
<polygon fill="#000000" stroke="#000000" points="2118.533,-484.3244 2107.9412,-484.0721 2116.0639,-490.8745 2118.533,-484.3244"/>
</g>
<!-- node_90 -->
<g id="node32" class="node">
<title>node_90</title>
<polygon fill="none" stroke="#000000" points="2004,-628 1940.3022,-610 2004,-592 2067.6978,-610 2004,-628"/>
<text text-anchor="middle" x="2004" y="-605.8" font-family="Times,serif" font-size="14.00" fill="#000000">executor1</text>
</g>
</g>
</svg>
