<?xml version="1.0" encoding="UTF-8" standalone="no"?>
<!DOCTYPE svg PUBLIC "-//W3C//DTD SVG 1.1//EN"
 "http://www.w3.org/Graphics/SVG/1.1/DTD/svg11.dtd">
<!-- Generated by graphviz version 2.40.1 (20161225.0304)
 -->
<!-- Title: %3 Pages: 1 -->
<svg width="3352pt" height="724pt"
 viewBox="0.00 0.00 3352.00 724.00" xmlns="http://www.w3.org/2000/svg" xmlns:xlink="http://www.w3.org/1999/xlink">
<g id="graph0" class="graph" transform="scale(1 1) rotate(0) translate(4 720)">
<title>%3</title>
<polygon fill="#ffffff" stroke="transparent" points="-4,4 -4,-720 3348,-720 3348,4 -4,4"/>
<g id="clust1" class="cluster">
<title>cluster_931409620</title>
<polygon fill="none" stroke="#000000" points="8,-368 8,-708 984,-708 984,-368 8,-368"/>
</g>
<g id="clust2" class="cluster">
<title>cluster_2028045719</title>
<polygon fill="none" stroke="#000000" points="1778,-296 1778,-492 3122,-492 3122,-296 1778,-296"/>
</g>
<g id="clust3" class="cluster">
<title>cluster_2043230206</title>
<polygon fill="none" stroke="#000000" points="942,-8 942,-348 1770,-348 1770,-8 942,-8"/>
</g>
<!-- node_0 -->
<g id="node1" class="node">
<title>node_0</title>
<polygon fill="none" stroke="#000000" points="940.849,-700 791.151,-700 791.151,-664 940.849,-664 940.849,-700"/>
<text text-anchor="middle" x="866" y="-677.8" font-family="Times,serif" font-size="14.00" fill="#000000">accept classifierOptions</text>
</g>
<!-- node_6 -->
<g id="node7" class="node">
<title>node_6</title>
<polygon fill="none" stroke="#000000" points="975.7657,-628 686.2343,-628 686.2343,-592 975.7657,-592 975.7657,-628"/>
<text text-anchor="middle" x="831" y="-605.8" font-family="Times,serif" font-size="14.00" fill="#000000">cast classifierOptions from jsonlist to builtin.List</text>
</g>
<!-- node_0&#45;&gt;node_6 -->
<g id="edge4" class="edge">
<title>node_0&#45;&gt;node_6</title>
<path fill="none" stroke="#000000" d="M857.168,-663.8314C853.3014,-655.8771 848.6794,-646.369 844.4032,-637.5723"/>
<polygon fill="#000000" stroke="#000000" points="847.4707,-635.8768 839.9509,-628.4133 841.1751,-638.9371 847.4707,-635.8768"/>
</g>
<!-- node_1 -->
<g id="node2" class="node">
<title>node_1</title>
<polygon fill="none" stroke="#000000" points="974.3029,-484 815.6971,-484 815.6971,-448 974.3029,-448 974.3029,-484"/>
<text text-anchor="middle" x="895" y="-461.8" font-family="Times,serif" font-size="14.00" fill="#000000">transmit service2&#45;&gt;Client</text>
</g>
<!-- node_4 -->
<g id="node5" class="node">
<title>node_4</title>
<polygon fill="none" stroke="#000000" points="976.1485,-412 769.8515,-412 769.8515,-376 976.1485,-376 976.1485,-412"/>
<text text-anchor="middle" x="873" y="-389.8" font-family="Times,serif" font-size="14.00" fill="#000000">FinishNode &amp;finished&amp;executor2</text>
</g>
<!-- node_1&#45;&gt;node_4 -->
<g id="edge2" class="edge">
<title>node_1&#45;&gt;node_4</title>
<path fill="none" stroke="#000000" d="M889.4485,-447.8314C887.0697,-440.0463 884.2362,-430.7729 881.5967,-422.1347"/>
<polygon fill="#000000" stroke="#000000" points="884.8958,-420.954 878.6263,-412.4133 878.2013,-422.9996 884.8958,-420.954"/>
</g>
<!-- node_31 -->
<g id="node27" class="node">
<title>node_31</title>
<polygon fill="none" stroke="#000000" points="1887.8868,-412 1786.1132,-412 1786.1132,-376 1887.8868,-376 1887.8868,-412"/>
<text text-anchor="middle" x="1837" y="-389.8" font-family="Times,serif" font-size="14.00" fill="#000000">accept service2</text>
</g>
<!-- node_1&#45;&gt;node_31 -->
<g id="edge55" class="edge">
<title>node_1&#45;&gt;node_31</title>
<path fill="none" stroke="#000000" stroke-dasharray="1,5" d="M974.5415,-449.2157C977.3915,-448.7783 980.2176,-448.3707 983,-448 1278.2285,-408.6652 1634.8091,-397.8211 1775.5832,-394.9676"/>
<polygon fill="#000000" stroke="#000000" points="1775.8127,-398.4639 1785.742,-394.7681 1775.6752,-391.4652 1775.8127,-398.4639"/>
</g>
<!-- node_2 -->
<g id="node3" class="node">
<title>node_2</title>
<polygon fill="none" stroke="#000000" points="668.0156,-628 15.9844,-628 15.9844,-592 668.0156,-592 668.0156,-628"/>
<text text-anchor="middle" x="342" y="-605.8" font-family="Times,serif" font-size="14.00" fill="#000000">service2 = de.upb.sede.services.jsml.WekaBClassifierWrapper::__construct([weka.classifiers.bayes.NaiveBayes])</text>
</g>
<!-- node_5 -->
<g id="node6" class="node">
<title>node_5</title>
<polygon fill="none" stroke="#000000" points="914.4522,-556 667.5478,-556 667.5478,-520 914.4522,-520 914.4522,-556"/>
<text text-anchor="middle" x="791" y="-533.8" font-family="Times,serif" font-size="14.00" fill="#000000">service2::set_options([classifierOptions])</text>
</g>
<!-- node_2&#45;&gt;node_5 -->
<g id="edge3" class="edge">
<title>node_2&#45;&gt;node_5</title>
<path fill="none" stroke="#000000" d="M454.4327,-591.9707C519.5371,-581.5308 601.5531,-568.379 668.3227,-557.6721"/>
<polygon fill="#000000" stroke="#000000" points="669.1609,-561.0825 678.4806,-556.0432 668.0525,-554.1708 669.1609,-561.0825"/>
</g>
<!-- node_3 -->
<g id="node4" class="node">
<title>node_3</title>
<polygon fill="none" stroke="#000000" points="797.8561,-484 704.1439,-484 704.1439,-448 797.8561,-448 797.8561,-484"/>
<text text-anchor="middle" x="751" y="-461.8" font-family="Times,serif" font-size="14.00" fill="#000000">store service2</text>
</g>
<!-- node_3&#45;&gt;node_4 -->
<g id="edge1" class="edge">
<title>node_3&#45;&gt;node_4</title>
<path fill="none" stroke="#000000" d="M781.7858,-447.8314C797.3903,-438.6221 816.524,-427.3301 833.2303,-417.4706"/>
<polygon fill="#000000" stroke="#000000" points="835.3909,-420.2596 842.2241,-412.1628 831.8331,-414.2312 835.3909,-420.2596"/>
</g>
<!-- node_26 -->
<g id="node22" class="node">
<title>node_26</title>
<polygon fill="none" stroke="#000000" points="2846.0562,-412 2669.9438,-412 2669.9438,-376 2846.0562,-376 2846.0562,-412"/>
<text text-anchor="middle" x="2758" y="-389.8" font-family="Times,serif" font-size="14.00" fill="#000000">accept &amp;finished&amp;executor2</text>
</g>
<!-- node_4&#45;&gt;node_26 -->
<g id="edge51" class="edge">
<title>node_4&#45;&gt;node_26</title>
<path fill="none" stroke="#000000" stroke-dasharray="1,5" d="M976.3376,-399.4197C1145.0866,-407.9703 1490.3566,-424.2137 1783,-430 1975.8512,-433.8131 2460.6453,-461.164 2651,-430 2669.0282,-427.0485 2688.1127,-421.474 2705.0945,-415.5778"/>
<polygon fill="#000000" stroke="#000000" points="2706.5956,-418.7578 2714.8263,-412.0864 2704.2317,-412.1689 2706.5956,-418.7578"/>
</g>
<!-- node_5&#45;&gt;node_1 -->
<g id="edge6" class="edge">
<title>node_5&#45;&gt;node_1</title>
<path fill="none" stroke="#000000" d="M817.2436,-519.8314C830.2995,-510.7927 846.2535,-499.7476 860.3047,-490.0198"/>
<polygon fill="#000000" stroke="#000000" points="862.5351,-492.7326 868.7648,-484.1628 858.5506,-486.9773 862.5351,-492.7326"/>
</g>
<!-- node_5&#45;&gt;node_3 -->
<g id="edge7" class="edge">
<title>node_5&#45;&gt;node_3</title>
<path fill="none" stroke="#000000" d="M780.9063,-519.8314C776.4403,-511.7925 771.0925,-502.1666 766.1621,-493.2918"/>
<polygon fill="#000000" stroke="#000000" points="769.1456,-491.4551 761.2296,-484.4133 763.0265,-494.8546 769.1456,-491.4551"/>
</g>
<!-- node_6&#45;&gt;node_5 -->
<g id="edge8" class="edge">
<title>node_6&#45;&gt;node_5</title>
<path fill="none" stroke="#000000" d="M820.9063,-591.8314C816.4403,-583.7925 811.0925,-574.1666 806.1621,-565.2918"/>
<polygon fill="#000000" stroke="#000000" points="809.1456,-563.4551 801.2296,-556.4133 803.0265,-566.8546 809.1456,-563.4551"/>
</g>
<!-- node_7 -->
<g id="node8" class="node">
<title>node_7</title>
<polygon fill="none" stroke="#000000" points="484.9251,-700 199.0749,-700 199.0749,-664 484.9251,-664 484.9251,-700"/>
<text text-anchor="middle" x="342" y="-677.8" font-family="Times,serif" font-size="14.00" fill="#000000">parse String: weka.classifiers.bayes.NaiveBayes</text>
</g>
<!-- node_7&#45;&gt;node_2 -->
<g id="edge5" class="edge">
<title>node_7&#45;&gt;node_2</title>
<path fill="none" stroke="#000000" d="M342,-663.8314C342,-656.131 342,-646.9743 342,-638.4166"/>
<polygon fill="#000000" stroke="#000000" points="345.5001,-638.4132 342,-628.4133 338.5001,-638.4133 345.5001,-638.4132"/>
</g>
<!-- node_8 -->
<g id="node9" class="node">
<title>node_8</title>
<polygon fill="none" stroke="#000000" points="99,-700 35.3022,-682 99,-664 162.6978,-682 99,-700"/>
<text text-anchor="middle" x="99" y="-677.8" font-family="Times,serif" font-size="14.00" fill="#000000">executor2</text>
</g>
<!-- node_37 -->
<g id="node10" class="node">
<title>node_37</title>
<polygon fill="none" stroke="#000000" points="3316.3165,-484 3129.6835,-484 3129.6835,-448 3316.3165,-448 3316.3165,-484"/>
<text text-anchor="middle" x="3223" y="-461.8" font-family="Times,serif" font-size="14.00" fill="#000000">transmit evalOptions1&#45;&gt;Client</text>
</g>
<!-- node_21 -->
<g id="node17" class="node">
<title>node_21</title>
<polygon fill="none" stroke="#000000" points="3113.9004,-412 2984.0996,-412 2984.0996,-376 3113.9004,-376 3113.9004,-412"/>
<text text-anchor="middle" x="3049" y="-389.8" font-family="Times,serif" font-size="14.00" fill="#000000">accept evalOptions1</text>
</g>
<!-- node_37&#45;&gt;node_21 -->
<g id="edge45" class="edge">
<title>node_37&#45;&gt;node_21</title>
<path fill="none" stroke="#000000" stroke-dasharray="1,5" d="M3179.0925,-447.8314C3155.7176,-438.159 3126.7903,-426.1891 3102.1532,-415.9944"/>
<polygon fill="#000000" stroke="#000000" points="3103.1702,-412.6275 3092.5918,-412.038 3100.4937,-419.0956 3103.1702,-412.6275"/>
</g>
<!-- node_32 -->
<g id="node11" class="node">
<title>node_32</title>
<polygon fill="none" stroke="#000000" points="2651.0562,-412 2474.9438,-412 2474.9438,-376 2651.0562,-376 2651.0562,-412"/>
<text text-anchor="middle" x="2563" y="-389.8" font-family="Times,serif" font-size="14.00" fill="#000000">accept &amp;finished&amp;executor1</text>
</g>
<!-- node_33 -->
<g id="node12" class="node">
<title>node_33</title>
<polygon fill="none" stroke="#000000" points="3053.7892,-340 2846.2108,-340 2846.2108,-304 3053.7892,-304 3053.7892,-340"/>
<text text-anchor="middle" x="2950" y="-317.8" font-family="Times,serif" font-size="14.00" fill="#000000">transmit evalOptions1&#45;&gt;executor1</text>
</g>
<!-- node_11 -->
<g id="node35" class="node">
<title>node_11</title>
<polygon fill="none" stroke="#000000" points="1186.9004,-340 1057.0996,-340 1057.0996,-304 1186.9004,-304 1186.9004,-340"/>
<text text-anchor="middle" x="1122" y="-317.8" font-family="Times,serif" font-size="14.00" fill="#000000">accept evalOptions1</text>
</g>
<!-- node_33&#45;&gt;node_11 -->
<g id="edge42" class="edge">
<title>node_33&#45;&gt;node_11</title>
<path fill="none" stroke="#000000" stroke-dasharray="1,5" d="M2876.1059,-340.0193C2843.2265,-347.153 2803.9027,-354.4832 2768,-358 2689.708,-365.6689 1430.4297,-364.1008 1352,-358 1299.9282,-353.9495 1241.8199,-344.815 1197.0381,-336.7613"/>
<polygon fill="#000000" stroke="#000000" points="1197.5797,-333.3025 1187.1145,-334.9552 1196.3262,-340.1893 1197.5797,-333.3025"/>
</g>
<!-- node_34 -->
<g id="node13" class="node">
<title>node_34</title>
<polygon fill="none" stroke="#000000" points="2456.849,-412 2307.151,-412 2307.151,-376 2456.849,-376 2456.849,-412"/>
<text text-anchor="middle" x="2382" y="-389.8" font-family="Times,serif" font-size="14.00" fill="#000000">accept classifierOptions</text>
</g>
<!-- node_20 -->
<g id="node16" class="node">
<title>node_20</title>
<polygon fill="none" stroke="#000000" points="2767.7374,-340 2540.2626,-340 2540.2626,-304 2767.7374,-304 2767.7374,-340"/>
<text text-anchor="middle" x="2654" y="-317.8" font-family="Times,serif" font-size="14.00" fill="#000000">transmit classifierOptions&#45;&gt;executor2</text>
</g>
<!-- node_34&#45;&gt;node_20 -->
<g id="edge23" class="edge">
<title>node_34&#45;&gt;node_20</title>
<path fill="none" stroke="#000000" d="M2438.7965,-375.9126C2447.8686,-373.1702 2457.1724,-370.4437 2466,-368 2498.2895,-359.0612 2533.946,-350.1073 2565.4484,-342.506"/>
<polygon fill="#000000" stroke="#000000" points="2566.6146,-345.8256 2575.521,-340.0874 2564.9801,-339.0191 2566.6146,-345.8256"/>
</g>
<!-- node_35 -->
<g id="node14" class="node">
<title>node_35</title>
<polygon fill="none" stroke="#000000" points="2965.8868,-412 2864.1132,-412 2864.1132,-376 2965.8868,-376 2965.8868,-412"/>
<text text-anchor="middle" x="2915" y="-389.8" font-family="Times,serif" font-size="14.00" fill="#000000">accept service1</text>
</g>
<!-- node_36 -->
<g id="node15" class="node">
<title>node_36</title>
<polygon fill="none" stroke="#000000" points="2822,-484 2777.2728,-466 2822,-448 2866.7272,-466 2822,-484"/>
<text text-anchor="middle" x="2822" y="-461.8" font-family="Times,serif" font-size="14.00" fill="#000000">Client</text>
</g>
<!-- node_20&#45;&gt;node_0 -->
<g id="edge43" class="edge">
<title>node_20&#45;&gt;node_0</title>
<path fill="none" stroke="#000000" stroke-dasharray="1,5" d="M2768.0586,-339.486C2790.8574,-342.6196 2814.6619,-345.6351 2837,-348 2952.0351,-360.1784 3344,-350.3221 3344,-466 3344,-538 3344,-538 3344,-538 3344,-660.5614 1386.5653,-679.0124 951.1432,-681.6006"/>
<polygon fill="#000000" stroke="#000000" points="950.8162,-678.1024 940.8367,-681.6606 950.857,-685.1023 950.8162,-678.1024"/>
</g>
<!-- node_21&#45;&gt;node_33 -->
<g id="edge21" class="edge">
<title>node_21&#45;&gt;node_33</title>
<path fill="none" stroke="#000000" d="M3024.0181,-375.8314C3011.7072,-366.8779 2996.6893,-355.9558 2983.4063,-346.2955"/>
<polygon fill="#000000" stroke="#000000" points="2985.1199,-343.214 2974.9739,-340.1628 2981.0027,-348.8752 2985.1199,-343.214"/>
</g>
<!-- node_22 -->
<g id="node18" class="node">
<title>node_22</title>
<polygon fill="none" stroke="#000000" points="2403.9518,-340 2240.0482,-340 2240.0482,-304 2403.9518,-304 2403.9518,-340"/>
<text text-anchor="middle" x="2322" y="-317.8" font-family="Times,serif" font-size="14.00" fill="#000000">transmit eval1&#45;&gt;executor1</text>
</g>
<!-- node_18 -->
<g id="node31" class="node">
<title>node_18</title>
<polygon fill="none" stroke="#000000" points="1761.5636,-268 1676.4364,-268 1676.4364,-232 1761.5636,-232 1761.5636,-268"/>
<text text-anchor="middle" x="1719" y="-245.8" font-family="Times,serif" font-size="14.00" fill="#000000">accept eval1</text>
</g>
<!-- node_22&#45;&gt;node_18 -->
<g id="edge54" class="edge">
<title>node_22&#45;&gt;node_18</title>
<path fill="none" stroke="#000000" stroke-dasharray="1,5" d="M2265.1109,-303.9679C2253.8945,-300.9185 2242.146,-298.0738 2231,-296 2065.2411,-265.1598 1865.3012,-254.7863 1771.8988,-251.4675"/>
<polygon fill="#000000" stroke="#000000" points="1771.9652,-247.9678 1761.8512,-251.1233 1771.7254,-254.9637 1771.9652,-247.9678"/>
</g>
<!-- node_23 -->
<g id="node19" class="node">
<title>node_23</title>
<polygon fill="none" stroke="#000000" points="2372.5381,-484 2295.4619,-484 2295.4619,-448 2372.5381,-448 2372.5381,-484"/>
<text text-anchor="middle" x="2334" y="-461.8" font-family="Times,serif" font-size="14.00" fill="#000000">send graph</text>
</g>
<!-- node_23&#45;&gt;node_32 -->
<g id="edge19" class="edge">
<title>node_23&#45;&gt;node_32</title>
<path fill="none" stroke="#000000" d="M2372.6425,-450.9291C2375.4619,-449.9131 2378.2694,-448.9264 2381,-448 2415.7908,-436.1963 2454.7903,-424.4338 2487.7372,-414.9144"/>
<polygon fill="#000000" stroke="#000000" points="2489.1124,-418.1609 2497.7564,-412.0346 2487.1787,-411.4333 2489.1124,-418.1609"/>
</g>
<!-- node_23&#45;&gt;node_34 -->
<g id="edge20" class="edge">
<title>node_23&#45;&gt;node_34</title>
<path fill="none" stroke="#000000" d="M2346.1124,-447.8314C2351.5281,-439.7079 2358.0242,-429.9637 2363.9921,-421.0118"/>
<polygon fill="#000000" stroke="#000000" points="2367.0896,-422.6753 2369.7245,-412.4133 2361.2653,-418.7923 2367.0896,-422.6753"/>
</g>
<!-- node_23&#45;&gt;node_35 -->
<g id="edge22" class="edge">
<title>node_23&#45;&gt;node_35</title>
<path fill="none" stroke="#000000" d="M2372.7142,-450.1798C2375.4913,-449.3528 2378.2718,-448.6123 2381,-448 2583.9243,-402.4569 2645.3639,-449.0754 2853.7561,-411.9846"/>
<polygon fill="#000000" stroke="#000000" points="2854.582,-415.3918 2863.7918,-410.1544 2853.3261,-408.5054 2854.582,-415.3918"/>
</g>
<!-- node_23&#45;&gt;node_21 -->
<g id="edge29" class="edge">
<title>node_23&#45;&gt;node_21</title>
<path fill="none" stroke="#000000" d="M2372.7036,-450.1319C2375.4833,-449.3163 2378.2672,-448.5914 2381,-448 2636.2178,-392.764 2711.5607,-449.9232 2973.5552,-412.0463"/>
<polygon fill="#000000" stroke="#000000" points="2974.375,-415.4632 2983.7552,-410.5376 2973.3507,-408.5385 2974.375,-415.4632"/>
</g>
<!-- node_24 -->
<g id="node20" class="node">
<title>node_24</title>
<polygon fill="none" stroke="#000000" points="2059.7111,-412 1906.2889,-412 1906.2889,-376 2059.7111,-376 2059.7111,-412"/>
<text text-anchor="middle" x="1983" y="-389.8" font-family="Times,serif" font-size="14.00" fill="#000000">accept searcherOptions1</text>
</g>
<!-- node_23&#45;&gt;node_24 -->
<g id="edge9" class="edge">
<title>node_23&#45;&gt;node_24</title>
<path fill="none" stroke="#000000" d="M2295.3665,-458.1943C2245.6712,-448.1389 2156.4075,-430.0276 2069.8795,-412.1766"/>
<polygon fill="#000000" stroke="#000000" points="2070.391,-408.7084 2059.8898,-410.1143 2068.9757,-415.5639 2070.391,-408.7084"/>
</g>
<!-- node_25 -->
<g id="node21" class="node">
<title>node_25</title>
<polygon fill="none" stroke="#000000" points="2289.5636,-412 2204.4364,-412 2204.4364,-376 2289.5636,-376 2289.5636,-412"/>
<text text-anchor="middle" x="2247" y="-389.8" font-family="Times,serif" font-size="14.00" fill="#000000">accept eval1</text>
</g>
<!-- node_23&#45;&gt;node_25 -->
<g id="edge11" class="edge">
<title>node_23&#45;&gt;node_25</title>
<path fill="none" stroke="#000000" d="M2312.0462,-447.8314C2301.3305,-438.9632 2288.2811,-428.1637 2276.691,-418.5718"/>
<polygon fill="#000000" stroke="#000000" points="2278.8822,-415.8422 2268.9467,-412.1628 2274.4192,-421.2349 2278.8822,-415.8422"/>
</g>
<!-- node_23&#45;&gt;node_26 -->
<g id="edge13" class="edge">
<title>node_23&#45;&gt;node_26</title>
<path fill="none" stroke="#000000" d="M2372.7533,-450.3439C2375.5211,-449.4778 2378.2888,-448.6837 2381,-448 2502.2324,-417.4269 2536.4706,-431.3001 2660,-412 2660.1015,-411.9841 2660.203,-411.9683 2660.3046,-411.9524"/>
<polygon fill="#000000" stroke="#000000" points="2660.5706,-415.4546 2669.8889,-410.4127 2659.4603,-408.5432 2660.5706,-415.4546"/>
</g>
<!-- node_28 -->
<g id="node24" class="node">
<title>node_28</title>
<polygon fill="none" stroke="#000000" points="2186.3731,-412 2077.6269,-412 2077.6269,-376 2186.3731,-376 2186.3731,-412"/>
<text text-anchor="middle" x="2132" y="-389.8" font-family="Times,serif" font-size="14.00" fill="#000000">accept searcher1</text>
</g>
<!-- node_23&#45;&gt;node_28 -->
<g id="edge15" class="edge">
<title>node_23&#45;&gt;node_28</title>
<path fill="none" stroke="#000000" d="M2295.0524,-452.1177C2265.9398,-441.7409 2225.5972,-427.3614 2192.325,-415.502"/>
<polygon fill="#000000" stroke="#000000" points="2193.2908,-412.1306 2182.6961,-412.0699 2190.9405,-418.7243 2193.2908,-412.1306"/>
</g>
<!-- node_23&#45;&gt;node_31 -->
<g id="edge18" class="edge">
<title>node_23&#45;&gt;node_31</title>
<path fill="none" stroke="#000000" d="M2295.3535,-463.4223C2220.3588,-457.9486 2049.8517,-443.2007 1897.8937,-411.9901"/>
<polygon fill="#000000" stroke="#000000" points="1898.4162,-408.5239 1887.9125,-409.9104 1896.9883,-415.3767 1898.4162,-408.5239"/>
</g>
<!-- node_29 -->
<g id="node25" class="node">
<title>node_29</title>
<polygon fill="none" stroke="#000000" points="2017.5996,-340 1786.4004,-340 1786.4004,-304 2017.5996,-304 2017.5996,-340"/>
<text text-anchor="middle" x="1902" y="-317.8" font-family="Times,serif" font-size="14.00" fill="#000000">transmit searcherOptions1&#45;&gt;executor1</text>
</g>
<!-- node_24&#45;&gt;node_29 -->
<g id="edge16" class="edge">
<title>node_24&#45;&gt;node_29</title>
<path fill="none" stroke="#000000" d="M1962.5603,-375.8314C1952.6795,-367.0485 1940.6676,-356.3712 1929.955,-346.8489"/>
<polygon fill="#000000" stroke="#000000" points="1932.2326,-344.1906 1922.4332,-340.1628 1927.582,-349.4224 1932.2326,-344.1906"/>
</g>
<!-- node_25&#45;&gt;node_22 -->
<g id="edge28" class="edge">
<title>node_25&#45;&gt;node_22</title>
<path fill="none" stroke="#000000" d="M2265.9257,-375.8314C2274.9857,-367.1337 2285.9809,-356.5783 2295.8265,-347.1265"/>
<polygon fill="#000000" stroke="#000000" points="2298.2904,-349.613 2303.0804,-340.1628 2293.4426,-344.5633 2298.2904,-349.613"/>
</g>
<!-- node_27 -->
<g id="node23" class="node">
<title>node_27</title>
<polygon fill="none" stroke="#000000" points="2222.2619,-340 2035.7381,-340 2035.7381,-304 2222.2619,-304 2222.2619,-340"/>
<text text-anchor="middle" x="2129" y="-317.8" font-family="Times,serif" font-size="14.00" fill="#000000">transmit searcher1&#45;&gt;executor1</text>
</g>
<!-- node_9 -->
<g id="node33" class="node">
<title>node_9</title>
<polygon fill="none" stroke="#000000" points="1658.3731,-268 1549.6269,-268 1549.6269,-232 1658.3731,-232 1658.3731,-268"/>
<text text-anchor="middle" x="1604" y="-245.8" font-family="Times,serif" font-size="14.00" fill="#000000">accept searcher1</text>
</g>
<!-- node_27&#45;&gt;node_9 -->
<g id="edge44" class="edge">
<title>node_27&#45;&gt;node_9</title>
<path fill="none" stroke="#000000" stroke-dasharray="1,5" d="M2065.1507,-303.9359C2052.5856,-300.8893 2039.4411,-298.0538 2027,-296 1871.907,-270.3973 1826.7897,-295.3425 1668.5672,-268.0714"/>
<polygon fill="#000000" stroke="#000000" points="1668.9346,-264.5822 1658.4782,-266.2889 1667.7166,-271.4754 1668.9346,-264.5822"/>
</g>
<!-- node_28&#45;&gt;node_27 -->
<g id="edge31" class="edge">
<title>node_28&#45;&gt;node_27</title>
<path fill="none" stroke="#000000" d="M2131.243,-375.8314C2130.9221,-368.131 2130.5406,-358.9743 2130.184,-350.4166"/>
<polygon fill="#000000" stroke="#000000" points="2133.6806,-350.2589 2129.7672,-340.4133 2126.6867,-350.5503 2133.6806,-350.2589"/>
</g>
<!-- node_17 -->
<g id="node30" class="node">
<title>node_17</title>
<polygon fill="none" stroke="#000000" points="1724.7111,-340 1571.2889,-340 1571.2889,-304 1724.7111,-304 1724.7111,-340"/>
<text text-anchor="middle" x="1648" y="-317.8" font-family="Times,serif" font-size="14.00" fill="#000000">accept searcherOptions1</text>
</g>
<!-- node_29&#45;&gt;node_17 -->
<g id="edge50" class="edge">
<title>node_29&#45;&gt;node_17</title>
<path fill="none" stroke="#000000" stroke-dasharray="1,5" d="M1786.1204,-322C1769.0601,-322 1751.9998,-322 1734.9394,-322"/>
<polygon fill="#000000" stroke="#000000" points="1734.8946,-318.5001 1724.8945,-322 1734.8945,-325.5001 1734.8946,-318.5001"/>
</g>
<!-- node_30 -->
<g id="node26" class="node">
<title>node_30</title>
<polygon fill="none" stroke="#000000" points="2467.5381,-484 2390.4619,-484 2390.4619,-448 2467.5381,-448 2467.5381,-484"/>
<text text-anchor="middle" x="2429" y="-461.8" font-family="Times,serif" font-size="14.00" fill="#000000">send graph</text>
</g>
<!-- node_30&#45;&gt;node_32 -->
<g id="edge12" class="edge">
<title>node_30&#45;&gt;node_32</title>
<path fill="none" stroke="#000000" d="M2462.8139,-447.8314C2480.2707,-438.4516 2501.7487,-426.9112 2520.3352,-416.9244"/>
<polygon fill="#000000" stroke="#000000" points="2522.0446,-419.9792 2529.197,-412.1628 2518.7314,-413.8129 2522.0446,-419.9792"/>
</g>
<!-- node_30&#45;&gt;node_34 -->
<g id="edge14" class="edge">
<title>node_30&#45;&gt;node_34</title>
<path fill="none" stroke="#000000" d="M2417.1399,-447.8314C2411.8371,-439.7079 2405.4763,-429.9637 2399.6327,-421.0118"/>
<polygon fill="#000000" stroke="#000000" points="2402.4169,-418.8739 2394.0198,-412.4133 2396.5552,-422.7003 2402.4169,-418.8739"/>
</g>
<!-- node_30&#45;&gt;node_35 -->
<g id="edge17" class="edge">
<title>node_30&#45;&gt;node_35</title>
<path fill="none" stroke="#000000" d="M2467.5419,-463.2618C2541.0206,-457.5807 2706.237,-442.5918 2853.9334,-412.0306"/>
<polygon fill="#000000" stroke="#000000" points="2855.0177,-415.3794 2864.0852,-409.8993 2853.5794,-408.5287 2855.0177,-415.3794"/>
</g>
<!-- node_30&#45;&gt;node_21 -->
<g id="edge24" class="edge">
<title>node_30&#45;&gt;node_21</title>
<path fill="none" stroke="#000000" d="M2467.6411,-464.0421C2555.8168,-459.176 2778.6904,-444.6208 2973.8726,-412.0649"/>
<polygon fill="#000000" stroke="#000000" points="2974.4552,-415.5161 2983.7332,-410.4006 2973.2902,-408.6138 2974.4552,-415.5161"/>
</g>
<!-- node_30&#45;&gt;node_24 -->
<g id="edge25" class="edge">
<title>node_30&#45;&gt;node_24</title>
<path fill="none" stroke="#000000" d="M2390.2574,-450.3008C2387.4871,-449.445 2384.7158,-448.665 2382,-448 2249.1773,-415.4778 2209.1006,-433.474 2070.0167,-412.0566"/>
<polygon fill="#000000" stroke="#000000" points="2070.253,-408.5505 2059.8289,-410.4451 2069.1593,-415.4645 2070.253,-408.5505"/>
</g>
<!-- node_30&#45;&gt;node_25 -->
<g id="edge26" class="edge">
<title>node_30&#45;&gt;node_25</title>
<path fill="none" stroke="#000000" d="M2390.4025,-450.7307C2363.872,-440.2351 2328.3272,-426.1734 2299.2636,-414.6757"/>
<polygon fill="#000000" stroke="#000000" points="2300.2644,-411.3078 2289.6781,-410.8836 2297.6894,-417.8169 2300.2644,-411.3078"/>
</g>
<!-- node_30&#45;&gt;node_26 -->
<g id="edge27" class="edge">
<title>node_30&#45;&gt;node_26</title>
<path fill="none" stroke="#000000" d="M2467.7079,-457.529C2516.0163,-446.9569 2600.2256,-428.5281 2665.5467,-414.2329"/>
<polygon fill="#000000" stroke="#000000" points="2666.4291,-417.6227 2675.4496,-412.0657 2664.9326,-410.7846 2666.4291,-417.6227"/>
</g>
<!-- node_30&#45;&gt;node_28 -->
<g id="edge30" class="edge">
<title>node_30&#45;&gt;node_28</title>
<path fill="none" stroke="#000000" d="M2390.4535,-450.6213C2387.6116,-449.6775 2384.7727,-448.7912 2382,-448 2303.6318,-425.6373 2279.134,-431.1765 2196.3908,-412.2112"/>
<polygon fill="#000000" stroke="#000000" points="2197.0931,-408.781 2186.5582,-409.9062 2195.4954,-415.5962 2197.0931,-408.781"/>
</g>
<!-- node_30&#45;&gt;node_31 -->
<g id="edge10" class="edge">
<title>node_30&#45;&gt;node_31</title>
<path fill="none" stroke="#000000" d="M2390.287,-450.1744C2387.5096,-449.3487 2384.7287,-448.61 2382,-448 2174.2503,-401.5608 2111.4446,-449.7821 1898.1494,-411.9656"/>
<polygon fill="#000000" stroke="#000000" points="1898.6715,-408.5033 1888.2071,-410.1604 1897.4209,-415.3907 1898.6715,-408.5033"/>
</g>
<!-- node_38 -->
<g id="node28" class="node">
<title>node_38</title>
<polygon fill="none" stroke="#000000" points="1202.127,-484 991.873,-484 991.873,-448 1202.127,-448 1202.127,-484"/>
<text text-anchor="middle" x="1097" y="-461.8" font-family="Times,serif" font-size="14.00" fill="#000000">transmit searcherOptions1&#45;&gt;Client</text>
</g>
<!-- node_38&#45;&gt;node_24 -->
<g id="edge48" class="edge">
<title>node_38&#45;&gt;node_24</title>
<path fill="none" stroke="#000000" stroke-dasharray="1,5" d="M1202.2299,-448.9759C1205.1826,-448.6296 1208.1105,-448.3031 1211,-448 1511.3806,-416.4906 1592.5072,-450.6404 1896.2323,-411.9697"/>
<polygon fill="#000000" stroke="#000000" points="1896.7355,-415.4339 1906.2059,-410.6841 1895.8405,-408.4914 1896.7355,-415.4339"/>
</g>
<!-- node_16 -->
<g id="node29" class="node">
<title>node_16</title>
<polygon fill="none" stroke="#000000" points="1205.1485,-52 998.8515,-52 998.8515,-16 1205.1485,-16 1205.1485,-52"/>
<text text-anchor="middle" x="1102" y="-29.8" font-family="Times,serif" font-size="14.00" fill="#000000">FinishNode &amp;finished&amp;executor1</text>
</g>
<!-- node_16&#45;&gt;node_32 -->
<g id="edge47" class="edge">
<title>node_16&#45;&gt;node_32</title>
<path fill="none" stroke="#000000" stroke-dasharray="1,5" d="M1022.6803,-52.043C960.3487,-71.4656 884,-109.2816 884,-178 884,-250 884,-250 884,-250 884,-302.0209 902.4155,-322.9356 948,-348 984.9527,-368.3182 2424.2279,-362.2186 2466,-368 2475.4851,-369.3128 2485.3649,-371.259 2495.0336,-373.5063"/>
<polygon fill="#000000" stroke="#000000" points="2494.4625,-376.9697 2505.0075,-375.9435 2496.1241,-370.1698 2494.4625,-376.9697"/>
</g>
<!-- node_10 -->
<g id="node34" class="node">
<title>node_10</title>
<polygon fill="none" stroke="#000000" points="1531.6282,-268 1238.3718,-268 1238.3718,-232 1531.6282,-232 1531.6282,-268"/>
<text text-anchor="middle" x="1385" y="-245.8" font-family="Times,serif" font-size="14.00" fill="#000000">cast searcherOptions1 from jsonlist to builtin.List</text>
</g>
<!-- node_17&#45;&gt;node_10 -->
<g id="edge38" class="edge">
<title>node_17&#45;&gt;node_10</title>
<path fill="none" stroke="#000000" d="M1581.9735,-303.9243C1545.2382,-293.8675 1499.3508,-281.3052 1461.1102,-270.8363"/>
<polygon fill="#000000" stroke="#000000" points="1461.623,-267.3479 1451.0537,-268.0831 1459.7746,-274.0995 1461.623,-267.3479"/>
</g>
<!-- node_15 -->
<g id="node39" class="node">
<title>node_15</title>
<polygon fill="none" stroke="#000000" points="1685.4816,-196 994.5184,-196 994.5184,-160 1685.4816,-160 1685.4816,-196"/>
<text text-anchor="middle" x="1340" y="-173.8" font-family="Times,serif" font-size="14.00" fill="#000000">service1 = de.upb.sede.services.jsml.WekaASWrapper::__construct([searcher1, eval1, searcherOptions1, evalOptions1])</text>
</g>
<!-- node_18&#45;&gt;node_15 -->
<g id="edge40" class="edge">
<title>node_18&#45;&gt;node_15</title>
<path fill="none" stroke="#000000" d="M1676.3257,-234.585C1673.1879,-233.6497 1670.0558,-232.7752 1667,-232 1610.3085,-217.6177 1547.0834,-206.1432 1491.4508,-197.5349"/>
<polygon fill="#000000" stroke="#000000" points="1491.9294,-194.0675 1481.5152,-196.0153 1490.8711,-200.987 1491.9294,-194.0675"/>
</g>
<!-- node_19 -->
<g id="node32" class="node">
<title>node_19</title>
<polygon fill="none" stroke="#000000" points="1416,-340 1352.3022,-322 1416,-304 1479.6978,-322 1416,-340"/>
<text text-anchor="middle" x="1416" y="-317.8" font-family="Times,serif" font-size="14.00" fill="#000000">executor1</text>
</g>
<!-- node_9&#45;&gt;node_15 -->
<g id="edge37" class="edge">
<title>node_9&#45;&gt;node_15</title>
<path fill="none" stroke="#000000" d="M1549.3792,-234.3368C1546.5465,-233.5424 1543.7405,-232.7596 1541,-232 1500.5654,-220.7929 1455.4561,-208.642 1418.2329,-198.7096"/>
<polygon fill="#000000" stroke="#000000" points="1419.0159,-195.2962 1408.4518,-196.1023 1417.2128,-202.06 1419.0159,-195.2962"/>
</g>
<!-- node_10&#45;&gt;node_15 -->
<g id="edge36" class="edge">
<title>node_10&#45;&gt;node_15</title>
<path fill="none" stroke="#000000" d="M1373.6446,-231.8314C1368.5674,-223.7079 1362.4773,-213.9637 1356.8824,-205.0118"/>
<polygon fill="#000000" stroke="#000000" points="1359.7763,-203.0383 1351.5083,-196.4133 1353.8403,-206.7483 1359.7763,-203.0383"/>
</g>
<!-- node_14 -->
<g id="node38" class="node">
<title>node_14</title>
<polygon fill="none" stroke="#000000" points="1220.3176,-268 949.6824,-268 949.6824,-232 1220.3176,-232 1220.3176,-268"/>
<text text-anchor="middle" x="1085" y="-245.8" font-family="Times,serif" font-size="14.00" fill="#000000">cast evalOptions1 from jsonlist to builtin.List</text>
</g>
<!-- node_11&#45;&gt;node_14 -->
<g id="edge33" class="edge">
<title>node_11&#45;&gt;node_14</title>
<path fill="none" stroke="#000000" d="M1112.6633,-303.8314C1108.5757,-295.8771 1103.6896,-286.369 1099.1691,-277.5723"/>
<polygon fill="#000000" stroke="#000000" points="1102.1461,-275.7078 1094.4624,-268.4133 1095.9201,-278.9074 1102.1461,-275.7078"/>
</g>
<!-- node_12 -->
<g id="node36" class="node">
<title>node_12</title>
<polygon fill="none" stroke="#000000" points="1181.3029,-124 1022.6971,-124 1022.6971,-88 1181.3029,-88 1181.3029,-124"/>
<text text-anchor="middle" x="1102" y="-101.8" font-family="Times,serif" font-size="14.00" fill="#000000">transmit service1&#45;&gt;Client</text>
</g>
<!-- node_12&#45;&gt;node_35 -->
<g id="edge52" class="edge">
<title>node_12&#45;&gt;node_35</title>
<path fill="none" stroke="#000000" stroke-dasharray="1,5" d="M1046.7749,-124.0742C1026.1295,-132.6907 1003.475,-144.551 986,-160 957.7282,-184.9941 951.4031,-195.7264 941,-232 921.6639,-299.4212 981.567,-325.5019 1048,-348 1143.0901,-380.2031 2756.8103,-347.0729 2855,-368 2860.0069,-369.0671 2865.1115,-370.565 2870.1242,-372.3088"/>
<polygon fill="#000000" stroke="#000000" points="2869.0095,-375.6295 2879.6004,-375.9168 2871.5002,-369.0876 2869.0095,-375.6295"/>
</g>
<!-- node_12&#45;&gt;node_16 -->
<g id="edge35" class="edge">
<title>node_12&#45;&gt;node_16</title>
<path fill="none" stroke="#000000" d="M1102,-87.8314C1102,-80.131 1102,-70.9743 1102,-62.4166"/>
<polygon fill="#000000" stroke="#000000" points="1105.5001,-62.4132 1102,-52.4133 1098.5001,-62.4133 1105.5001,-62.4132"/>
</g>
<!-- node_13 -->
<g id="node37" class="node">
<title>node_13</title>
<polygon fill="none" stroke="#000000" points="1316.8561,-124 1223.1439,-124 1223.1439,-88 1316.8561,-88 1316.8561,-124"/>
<text text-anchor="middle" x="1270" y="-101.8" font-family="Times,serif" font-size="14.00" fill="#000000">store service1</text>
</g>
<!-- node_13&#45;&gt;node_16 -->
<g id="edge34" class="edge">
<title>node_13&#45;&gt;node_16</title>
<path fill="none" stroke="#000000" d="M1227.6065,-87.8314C1205.0376,-78.159 1177.1079,-66.1891 1153.3204,-55.9944"/>
<polygon fill="#000000" stroke="#000000" points="1154.6588,-52.7602 1144.0886,-52.038 1151.9014,-59.1943 1154.6588,-52.7602"/>
</g>
<!-- node_14&#45;&gt;node_15 -->
<g id="edge32" class="edge">
<title>node_14&#45;&gt;node_15</title>
<path fill="none" stroke="#000000" d="M1149.0181,-231.9243C1184.6359,-221.8675 1229.1275,-209.3052 1266.2049,-198.8363"/>
<polygon fill="#000000" stroke="#000000" points="1267.2829,-202.1688 1275.9555,-196.0831 1265.3807,-195.4322 1267.2829,-202.1688"/>
</g>
<!-- node_15&#45;&gt;node_12 -->
<g id="edge39" class="edge">
<title>node_15&#45;&gt;node_12</title>
<path fill="none" stroke="#000000" d="M1280.2498,-159.9243C1247.2894,-149.9531 1206.1872,-137.5188 1171.7605,-127.104"/>
<polygon fill="#000000" stroke="#000000" points="1172.3599,-123.6288 1161.7748,-124.0831 1170.3329,-130.3289 1172.3599,-123.6288"/>
</g>
<!-- node_15&#45;&gt;node_13 -->
<g id="edge41" class="edge">
<title>node_15&#45;&gt;node_13</title>
<path fill="none" stroke="#000000" d="M1322.336,-159.8314C1314.0268,-151.2848 1303.9736,-140.9443 1294.9082,-131.6198"/>
<polygon fill="#000000" stroke="#000000" points="1297.3821,-129.1435 1287.9018,-124.4133 1292.3631,-134.023 1297.3821,-129.1435"/>
</g>
<!-- node_39 -->
<g id="node40" class="node">
<title>node_39</title>
<polygon fill="none" stroke="#000000" points="1770.2648,-484 1563.7352,-484 1563.7352,-448 1770.2648,-448 1770.2648,-484"/>
<text text-anchor="middle" x="1667" y="-461.8" font-family="Times,serif" font-size="14.00" fill="#000000">transmit classifierOptions&#45;&gt;Client</text>
</g>
<!-- node_39&#45;&gt;node_34 -->
<g id="edge53" class="edge">
<title>node_39&#45;&gt;node_34</title>
<path fill="none" stroke="#000000" stroke-dasharray="1,5" d="M1770.3315,-448.4435C1771.5608,-448.2915 1772.784,-448.1436 1774,-448 2002.9779,-420.9557 2065.6734,-444.193 2296.9171,-412.1918"/>
<polygon fill="#000000" stroke="#000000" points="2297.5704,-415.6345 2306.9868,-410.7783 2296.5974,-408.7024 2297.5704,-415.6345"/>
</g>
<!-- node_40 -->
<g id="node41" class="node">
<title>node_40</title>
<polygon fill="none" stroke="#000000" points="1385.7892,-484 1220.2108,-484 1220.2108,-448 1385.7892,-448 1385.7892,-484"/>
<text text-anchor="middle" x="1303" y="-461.8" font-family="Times,serif" font-size="14.00" fill="#000000">transmit searcher1&#45;&gt;Client</text>
</g>
<!-- node_40&#45;&gt;node_28 -->
<g id="edge49" class="edge">
<title>node_40&#45;&gt;node_28</title>
<path fill="none" stroke="#000000" stroke-dasharray="1,5" d="M1386.161,-449.1886C1389.1395,-448.7588 1392.0927,-448.3603 1395,-448 1689.3623,-411.5241 1771.2989,-460.3974 2067.3646,-412.0569"/>
<polygon fill="#000000" stroke="#000000" points="2068.2428,-415.4592 2077.5363,-410.3719 2067.0987,-408.5534 2068.2428,-415.4592"/>
</g>
<!-- node_41 -->
<g id="node42" class="node">
<title>node_41</title>
<polygon fill="none" stroke="#000000" points="1546.4793,-484 1403.5207,-484 1403.5207,-448 1546.4793,-448 1546.4793,-484"/>
<text text-anchor="middle" x="1475" y="-461.8" font-family="Times,serif" font-size="14.00" fill="#000000">transmit eval1&#45;&gt;Client</text>
</g>
<!-- node_41&#45;&gt;node_25 -->
<g id="edge46" class="edge">
<title>node_41&#45;&gt;node_25</title>
<path fill="none" stroke="#000000" stroke-dasharray="1,5" d="M1546.4221,-449.3164C1549.3126,-448.8359 1552.1801,-448.3938 1555,-448 1833.8495,-409.0587 1913.6258,-465.7657 2194.3392,-411.7594"/>
<polygon fill="#000000" stroke="#000000" points="2195.2674,-415.1443 2204.4105,-409.7912 2193.9248,-408.2743 2195.2674,-415.1443"/>
</g>
</g>
</svg>
