<?xml version="1.0" encoding="UTF-8" standalone="no"?>
<!DOCTYPE svg PUBLIC "-//W3C//DTD SVG 1.1//EN"
 "http://www.w3.org/Graphics/SVG/1.1/DTD/svg11.dtd">
<!-- Generated by graphviz version 2.40.1 (20161225.0304)
 -->
<!-- Title: %3 Pages: 1 -->
<svg width="1213pt" height="652pt"
 viewBox="0.00 0.00 1213.40 652.00" xmlns="http://www.w3.org/2000/svg" xmlns:xlink="http://www.w3.org/1999/xlink">
<g id="graph0" class="graph" transform="scale(1 1) rotate(0) translate(4 648)">
<title>%3</title>
<polygon fill="#ffffff" stroke="transparent" points="-4,4 -4,-648 1209.4014,-648 1209.4014,4 -4,4"/>
<g id="clust1" class="cluster">
<title>cluster_1589527596</title>
<polygon fill="none" stroke="#000000" points="10,-440 10,-636 721,-636 721,-440 10,-440"/>
</g>
<g id="clust2" class="cluster">
<title>cluster_262151752</title>
<polygon fill="none" stroke="#000000" points="428,-80 428,-420 828,-420 828,-80 428,-80"/>
</g>
<g id="clust3" class="cluster">
<title>cluster_1141000938</title>
<polygon fill="none" stroke="#000000" points="8,-8 8,-420 388,-420 388,-8 8,-8"/>
</g>
<!-- node_64 -->
<g id="node1" class="node">
<title>node_64</title>
<polygon fill="none" stroke="#000000" points="323.7755,-484 144.2245,-484 144.2245,-448 323.7755,-448 323.7755,-484"/>
<text text-anchor="middle" x="234" y="-461.8" font-family="Times,serif" font-size="14.00" fill="#000000">transmit service1&#45;&gt;executor1</text>
</g>
<!-- node_57 -->
<g id="node28" class="node">
<title>node_57</title>
<polygon fill="none" stroke="#000000" points="281.8868,-412 180.1132,-412 180.1132,-376 281.8868,-376 281.8868,-412"/>
<text text-anchor="middle" x="231" y="-389.8" font-family="Times,serif" font-size="14.00" fill="#000000">accept service1</text>
</g>
<!-- node_64&#45;&gt;node_57 -->
<g id="edge36" class="edge">
<title>node_64&#45;&gt;node_57</title>
<path fill="none" stroke="#000000" stroke-dasharray="1,5" d="M233.243,-447.8314C232.9221,-440.131 232.5406,-430.9743 232.184,-422.4166"/>
<polygon fill="#000000" stroke="#000000" points="235.6806,-422.2589 231.7672,-412.4133 228.6867,-422.5503 235.6806,-422.2589"/>
</g>
<!-- node_65 -->
<g id="node2" class="node">
<title>node_65</title>
<polygon fill="none" stroke="#000000" points="712.7755,-484 533.2245,-484 533.2245,-448 712.7755,-448 712.7755,-484"/>
<text text-anchor="middle" x="623" y="-461.8" font-family="Times,serif" font-size="14.00" fill="#000000">transmit service2&#45;&gt;executor2</text>
</g>
<!-- node_46 -->
<g id="node19" class="node">
<title>node_46</title>
<polygon fill="none" stroke="#000000" points="673.8868,-412 572.1132,-412 572.1132,-376 673.8868,-376 673.8868,-412"/>
<text text-anchor="middle" x="623" y="-389.8" font-family="Times,serif" font-size="14.00" fill="#000000">accept service2</text>
</g>
<!-- node_65&#45;&gt;node_46 -->
<g id="edge38" class="edge">
<title>node_65&#45;&gt;node_46</title>
<path fill="none" stroke="#000000" stroke-dasharray="1,5" d="M623,-447.8314C623,-440.131 623,-430.9743 623,-422.4166"/>
<polygon fill="#000000" stroke="#000000" points="626.5001,-422.4132 623,-412.4133 619.5001,-422.4133 626.5001,-422.4132"/>
</g>
<!-- node_66 -->
<g id="node3" class="node">
<title>node_66</title>
<polygon fill="none" stroke="#000000" points="194.0562,-556 17.9438,-556 17.9438,-520 194.0562,-520 194.0562,-556"/>
<text text-anchor="middle" x="106" y="-533.8" font-family="Times,serif" font-size="14.00" fill="#000000">accept &amp;finished&amp;executor2</text>
</g>
<!-- node_67 -->
<g id="node4" class="node">
<title>node_67</title>
<polygon fill="none" stroke="#000000" points="367.5381,-628 290.4619,-628 290.4619,-592 367.5381,-592 367.5381,-628"/>
<text text-anchor="middle" x="329" y="-605.8" font-family="Times,serif" font-size="14.00" fill="#000000">send graph</text>
</g>
<!-- node_67&#45;&gt;node_66 -->
<g id="edge13" class="edge">
<title>node_67&#45;&gt;node_66</title>
<path fill="none" stroke="#000000" d="M290.4109,-597.5408C257.7736,-587.0031 210.2946,-571.6736 171.6866,-559.2082"/>
<polygon fill="#000000" stroke="#000000" points="172.6683,-555.8473 162.0766,-556.1055 170.5175,-562.5087 172.6683,-555.8473"/>
</g>
<!-- node_68 -->
<g id="node5" class="node">
<title>node_68</title>
<polygon fill="none" stroke="#000000" points="508.8868,-556 407.1132,-556 407.1132,-520 508.8868,-520 508.8868,-556"/>
<text text-anchor="middle" x="458" y="-533.8" font-family="Times,serif" font-size="14.00" fill="#000000">accept service1</text>
</g>
<!-- node_67&#45;&gt;node_68 -->
<g id="edge2" class="edge">
<title>node_67&#45;&gt;node_68</title>
<path fill="none" stroke="#000000" d="M361.5521,-591.8314C378.2048,-582.5368 398.6585,-571.1208 416.4385,-561.1971"/>
<polygon fill="#000000" stroke="#000000" points="418.4321,-564.0927 425.4583,-556.1628 415.0205,-557.9803 418.4321,-564.0927"/>
</g>
<!-- node_60 -->
<g id="node8" class="node">
<title>node_60</title>
<polygon fill="none" stroke="#000000" points="712.8868,-556 611.1132,-556 611.1132,-520 712.8868,-520 712.8868,-556"/>
<text text-anchor="middle" x="662" y="-533.8" font-family="Times,serif" font-size="14.00" fill="#000000">accept service2</text>
</g>
<!-- node_67&#45;&gt;node_60 -->
<g id="edge7" class="edge">
<title>node_67&#45;&gt;node_60</title>
<path fill="none" stroke="#000000" d="M367.7772,-594.436C370.5393,-593.5479 373.2993,-592.7238 376,-592 471.1735,-566.4926 500.9907,-577.8899 601.144,-556.0101"/>
<polygon fill="#000000" stroke="#000000" points="602.0685,-559.3898 611.0603,-553.7865 600.5368,-552.5594 602.0685,-559.3898"/>
</g>
<!-- node_61 -->
<g id="node9" class="node">
<title>node_61</title>
<polygon fill="none" stroke="#000000" points="389.0562,-556 212.9438,-556 212.9438,-520 389.0562,-520 389.0562,-556"/>
<text text-anchor="middle" x="301" y="-533.8" font-family="Times,serif" font-size="14.00" fill="#000000">accept &amp;finished&amp;executor1</text>
</g>
<!-- node_67&#45;&gt;node_61 -->
<g id="edge8" class="edge">
<title>node_67&#45;&gt;node_61</title>
<path fill="none" stroke="#000000" d="M321.9344,-591.8314C318.874,-583.9617 315.2221,-574.5712 311.8318,-565.8533"/>
<polygon fill="#000000" stroke="#000000" points="315.0473,-564.4647 308.1607,-556.4133 308.5232,-567.0019 315.0473,-564.4647"/>
</g>
<!-- node_63 -->
<g id="node11" class="node">
<title>node_63</title>
<polygon fill="none" stroke="#000000" points="593.1349,-556 526.8651,-556 526.8651,-520 593.1349,-520 593.1349,-556"/>
<text text-anchor="middle" x="560" y="-533.8" font-family="Times,serif" font-size="14.00" fill="#000000">accept i1</text>
</g>
<!-- node_67&#45;&gt;node_63 -->
<g id="edge9" class="edge">
<title>node_67&#45;&gt;node_63</title>
<path fill="none" stroke="#000000" d="M367.6014,-594.8039C370.4304,-593.8173 373.2514,-592.8714 376,-592 435.154,-573.2456 454.5247,-576.5129 517.1495,-556.0246"/>
<polygon fill="#000000" stroke="#000000" points="518.3408,-559.3168 526.713,-552.824 516.1192,-552.6787 518.3408,-559.3168"/>
</g>
<!-- node_68&#45;&gt;node_64 -->
<g id="edge10" class="edge">
<title>node_68&#45;&gt;node_64</title>
<path fill="none" stroke="#000000" d="M406.8906,-521.572C375.277,-511.4105 334.3641,-498.2599 300.2744,-487.3025"/>
<polygon fill="#000000" stroke="#000000" points="300.9855,-483.8547 290.3942,-484.1267 298.8434,-490.519 300.9855,-483.8547"/>
</g>
<!-- node_69 -->
<g id="node6" class="node">
<title>node_69</title>
<polygon fill="none" stroke="#000000" points="490.0234,-484 345.9766,-484 345.9766,-448 490.0234,-448 490.0234,-484"/>
<text text-anchor="middle" x="418" y="-461.8" font-family="Times,serif" font-size="14.00" fill="#000000">transmit i1&#45;&gt;executor1</text>
</g>
<!-- node_54 -->
<g id="node25" class="node">
<title>node_54</title>
<polygon fill="none" stroke="#000000" points="373.1349,-412 306.8651,-412 306.8651,-376 373.1349,-376 373.1349,-412"/>
<text text-anchor="middle" x="340" y="-389.8" font-family="Times,serif" font-size="14.00" fill="#000000">accept i1</text>
</g>
<!-- node_69&#45;&gt;node_54 -->
<g id="edge30" class="edge">
<title>node_69&#45;&gt;node_54</title>
<path fill="none" stroke="#000000" stroke-dasharray="1,5" d="M398.3173,-447.8314C388.8949,-439.1337 377.4599,-428.5783 367.2204,-419.1265"/>
<polygon fill="#000000" stroke="#000000" points="369.3984,-416.3738 359.6764,-412.1628 364.6505,-421.5175 369.3984,-416.3738"/>
</g>
<!-- node_70 -->
<g id="node7" class="node">
<title>node_70</title>
<polygon fill="none" stroke="#000000" points="430,-628 385.2728,-610 430,-592 474.7272,-610 430,-628"/>
<text text-anchor="middle" x="430" y="-605.8" font-family="Times,serif" font-size="14.00" fill="#000000">Client</text>
</g>
<!-- node_60&#45;&gt;node_65 -->
<g id="edge4" class="edge">
<title>node_60&#45;&gt;node_65</title>
<path fill="none" stroke="#000000" d="M652.1587,-519.8314C647.8043,-511.7925 642.5902,-502.1666 637.7831,-493.2918"/>
<polygon fill="#000000" stroke="#000000" points="640.8143,-491.5392 632.9739,-484.4133 634.6592,-494.8732 640.8143,-491.5392"/>
</g>
<!-- node_62 -->
<g id="node10" class="node">
<title>node_62</title>
<polygon fill="none" stroke="#000000" points="569.5381,-628 492.4619,-628 492.4619,-592 569.5381,-592 569.5381,-628"/>
<text text-anchor="middle" x="531" y="-605.8" font-family="Times,serif" font-size="14.00" fill="#000000">send graph</text>
</g>
<!-- node_62&#45;&gt;node_66 -->
<g id="edge3" class="edge">
<title>node_62&#45;&gt;node_66</title>
<path fill="none" stroke="#000000" d="M492.2471,-594.3424C489.4792,-593.4767 486.7113,-592.6831 484,-592 362.3333,-561.3467 327.9693,-575.3401 204,-556 203.8985,-555.9842 203.797,-555.9683 203.6954,-555.9524"/>
<polygon fill="#000000" stroke="#000000" points="204.539,-552.5431 194.1108,-554.4146 203.43,-559.4547 204.539,-552.5431"/>
</g>
<!-- node_62&#45;&gt;node_68 -->
<g id="edge5" class="edge">
<title>node_62&#45;&gt;node_68</title>
<path fill="none" stroke="#000000" d="M512.579,-591.8314C503.8471,-583.219 493.2683,-572.7851 483.7577,-563.4048"/>
<polygon fill="#000000" stroke="#000000" points="485.9925,-560.6931 476.4151,-556.1628 481.077,-565.6769 485.9925,-560.6931"/>
</g>
<!-- node_62&#45;&gt;node_60 -->
<g id="edge11" class="edge">
<title>node_62&#45;&gt;node_60</title>
<path fill="none" stroke="#000000" d="M564.0568,-591.8314C580.9677,-582.5368 601.7385,-571.1208 619.7941,-561.1971"/>
<polygon fill="#000000" stroke="#000000" points="621.876,-564.0468 628.9537,-556.1628 618.5043,-557.9122 621.876,-564.0468"/>
</g>
<!-- node_62&#45;&gt;node_61 -->
<g id="edge12" class="edge">
<title>node_62&#45;&gt;node_61</title>
<path fill="none" stroke="#000000" d="M492.3591,-594.9244C489.5393,-593.9095 486.7312,-592.9244 484,-592 448.8739,-580.1118 409.4736,-568.2945 376.2546,-558.7595"/>
<polygon fill="#000000" stroke="#000000" points="377.1847,-555.3852 366.6079,-556.0046 375.2624,-562.1161 377.1847,-555.3852"/>
</g>
<!-- node_62&#45;&gt;node_63 -->
<g id="edge1" class="edge">
<title>node_62&#45;&gt;node_63</title>
<path fill="none" stroke="#000000" d="M538.3179,-591.8314C541.4876,-583.9617 545.27,-574.5712 548.7813,-565.8533"/>
<polygon fill="#000000" stroke="#000000" points="552.0939,-566.9968 552.5835,-556.4133 545.6008,-564.3815 552.0939,-566.9968"/>
</g>
<!-- node_63&#45;&gt;node_69 -->
<g id="edge6" class="edge">
<title>node_63&#45;&gt;node_69</title>
<path fill="none" stroke="#000000" d="M526.7073,-521.1192C507.5701,-511.4158 483.2841,-499.1018 462.5233,-488.5752"/>
<polygon fill="#000000" stroke="#000000" points="464.0682,-485.4344 453.5663,-484.0336 460.9025,-491.6777 464.0682,-485.4344"/>
</g>
<!-- node_71 -->
<g id="node12" class="node">
<title>node_71</title>
<polygon fill="none" stroke="#000000" points="887.3029,-628 728.6971,-628 728.6971,-592 887.3029,-592 887.3029,-628"/>
<text text-anchor="middle" x="808" y="-605.8" font-family="Times,serif" font-size="14.00" fill="#000000">transmit service1&#45;&gt;Client</text>
</g>
<!-- node_71&#45;&gt;node_68 -->
<g id="edge37" class="edge">
<title>node_71&#45;&gt;node_68</title>
<path fill="none" stroke="#000000" stroke-dasharray="1,5" d="M728.4975,-592.6882C727.3241,-592.4557 726.1577,-592.2261 725,-592 636.4832,-574.7124 610.634,-577.2501 518.9394,-556.0754"/>
<polygon fill="#000000" stroke="#000000" points="519.486,-552.6087 508.9513,-553.7363 517.8898,-559.4243 519.486,-552.6087"/>
</g>
<!-- node_48 -->
<g id="node13" class="node">
<title>node_48</title>
<polygon fill="none" stroke="#000000" points="763.8561,-196 670.1439,-196 670.1439,-160 763.8561,-160 763.8561,-196"/>
<text text-anchor="middle" x="717" y="-173.8" font-family="Times,serif" font-size="14.00" fill="#000000">store service2</text>
</g>
<!-- node_43 -->
<g id="node16" class="node">
<title>node_43</title>
<polygon fill="none" stroke="#000000" points="820.1485,-124 613.8515,-124 613.8515,-88 820.1485,-88 820.1485,-124"/>
<text text-anchor="middle" x="717" y="-101.8" font-family="Times,serif" font-size="14.00" fill="#000000">FinishNode &amp;finished&amp;executor2</text>
</g>
<!-- node_48&#45;&gt;node_43 -->
<g id="edge18" class="edge">
<title>node_48&#45;&gt;node_43</title>
<path fill="none" stroke="#000000" d="M717,-159.8314C717,-152.131 717,-142.9743 717,-134.4166"/>
<polygon fill="#000000" stroke="#000000" points="720.5001,-134.4132 717,-124.4133 713.5001,-134.4133 720.5001,-134.4132"/>
</g>
<!-- node_49 -->
<g id="node14" class="node">
<title>node_49</title>
<polygon fill="none" stroke="#000000" points="756,-412 692.3022,-394 756,-376 819.6978,-394 756,-412"/>
<text text-anchor="middle" x="756" y="-389.8" font-family="Times,serif" font-size="14.00" fill="#000000">executor2</text>
</g>
<!-- node_42 -->
<g id="node15" class="node">
<title>node_42</title>
<polygon fill="none" stroke="#000000" points="537.5636,-412 452.4364,-412 452.4364,-376 537.5636,-376 537.5636,-412"/>
<text text-anchor="middle" x="495" y="-389.8" font-family="Times,serif" font-size="14.00" fill="#000000">accept data1</text>
</g>
<!-- node_44 -->
<g id="node17" class="node">
<title>node_44</title>
<polygon fill="none" stroke="#000000" points="711.7736,-340 436.2264,-340 436.2264,-304 711.7736,-304 711.7736,-340"/>
<text text-anchor="middle" x="574" y="-317.8" font-family="Times,serif" font-size="14.00" fill="#000000">cast data1 from dataset to weka.core.Instances</text>
</g>
<!-- node_42&#45;&gt;node_44 -->
<g id="edge16" class="edge">
<title>node_42&#45;&gt;node_44</title>
<path fill="none" stroke="#000000" d="M514.935,-375.8314C524.4783,-367.1337 536.0599,-356.5783 546.4306,-347.1265"/>
<polygon fill="#000000" stroke="#000000" points="549.038,-349.4857 554.0713,-340.1628 544.3228,-344.3121 549.038,-349.4857"/>
</g>
<!-- node_43&#45;&gt;node_66 -->
<g id="edge34" class="edge">
<title>node_43&#45;&gt;node_66</title>
<path fill="none" stroke="#000000" stroke-dasharray="1,5" d="M751.0767,-124.1752C789.8914,-147.6338 848,-192.3759 848,-250 848,-394 848,-394 848,-394 848,-539.8245 348.6773,-501.7445 204,-520 203.8981,-520.0129 203.7961,-520.0258 203.6941,-520.0387"/>
<polygon fill="#000000" stroke="#000000" points="203.5164,-516.5307 194.0763,-521.3407 204.4555,-523.4675 203.5164,-516.5307"/>
</g>
<!-- node_45 -->
<g id="node18" class="node">
<title>node_45</title>
<polygon fill="none" stroke="#000000" points="789.542,-268 644.458,-268 644.458,-232 789.542,-232 789.542,-268"/>
<text text-anchor="middle" x="717" y="-245.8" font-family="Times,serif" font-size="14.00" fill="#000000">service2::train([data1])</text>
</g>
<!-- node_44&#45;&gt;node_45 -->
<g id="edge14" class="edge">
<title>node_44&#45;&gt;node_45</title>
<path fill="none" stroke="#000000" d="M610.0849,-303.8314C628.7989,-294.4089 651.8432,-282.8062 671.74,-272.7883"/>
<polygon fill="#000000" stroke="#000000" points="673.5689,-275.7861 680.9266,-268.1628 670.4208,-269.5339 673.5689,-275.7861"/>
</g>
<!-- node_45&#45;&gt;node_48 -->
<g id="edge17" class="edge">
<title>node_45&#45;&gt;node_48</title>
<path fill="none" stroke="#000000" d="M717,-231.8314C717,-224.131 717,-214.9743 717,-206.4166"/>
<polygon fill="#000000" stroke="#000000" points="720.5001,-206.4132 717,-196.4133 713.5001,-206.4133 720.5001,-206.4132"/>
</g>
<!-- node_47 -->
<g id="node20" class="node">
<title>node_47</title>
<polygon fill="none" stroke="#000000" points="820.2455,-340 729.7545,-340 729.7545,-304 820.2455,-304 820.2455,-340"/>
<text text-anchor="middle" x="775" y="-317.8" font-family="Times,serif" font-size="14.00" fill="#000000">load service2</text>
</g>
<!-- node_46&#45;&gt;node_47 -->
<g id="edge15" class="edge">
<title>node_46&#45;&gt;node_47</title>
<path fill="none" stroke="#000000" d="M661.356,-375.8314C681.5044,-366.2874 706.3752,-354.5065 727.7083,-344.4013"/>
<polygon fill="#000000" stroke="#000000" points="729.3807,-347.482 736.9198,-340.038 726.3841,-341.1558 729.3807,-347.482"/>
</g>
<!-- node_47&#45;&gt;node_45 -->
<g id="edge19" class="edge">
<title>node_47&#45;&gt;node_45</title>
<path fill="none" stroke="#000000" d="M760.3642,-303.8314C753.6839,-295.5386 745.6432,-285.557 738.3096,-276.4533"/>
<polygon fill="#000000" stroke="#000000" points="740.8319,-274.0052 731.8329,-268.4133 735.3806,-278.3965 740.8319,-274.0052"/>
</g>
<!-- node_50 -->
<g id="node21" class="node">
<title>node_50</title>
<polygon fill="none" stroke="#000000" points="232.6148,-268 107.3852,-268 107.3852,-232 232.6148,-232 232.6148,-268"/>
<text text-anchor="middle" x="170" y="-245.8" font-family="Times,serif" font-size="14.00" fill="#000000">service1::train([i1])</text>
</g>
<!-- node_55 -->
<g id="node26" class="node">
<title>node_55</title>
<polygon fill="none" stroke="#000000" points="313.5342,-196 108.4658,-196 108.4658,-160 313.5342,-160 313.5342,-196"/>
<text text-anchor="middle" x="211" y="-173.8" font-family="Times,serif" font-size="14.00" fill="#000000">data1 = service1::preprocess([i1])</text>
</g>
<!-- node_50&#45;&gt;node_55 -->
<g id="edge23" class="edge">
<title>node_50&#45;&gt;node_55</title>
<path fill="none" stroke="#000000" d="M180.346,-231.8314C184.9237,-223.7925 190.4052,-214.1666 195.4588,-205.2918"/>
<polygon fill="#000000" stroke="#000000" points="198.6077,-206.8351 200.5147,-196.4133 192.5248,-203.3712 198.6077,-206.8351"/>
</g>
<!-- node_51 -->
<g id="node22" class="node">
<title>node_51</title>
<polygon fill="none" stroke="#000000" points="106.2455,-340 15.7545,-340 15.7545,-304 106.2455,-304 106.2455,-340"/>
<text text-anchor="middle" x="61" y="-317.8" font-family="Times,serif" font-size="14.00" fill="#000000">load service1</text>
</g>
<!-- node_51&#45;&gt;node_50 -->
<g id="edge29" class="edge">
<title>node_51&#45;&gt;node_50</title>
<path fill="none" stroke="#000000" d="M88.5053,-303.8314C102.318,-294.7074 119.2256,-283.539 134.0529,-273.7449"/>
<polygon fill="#000000" stroke="#000000" points="136.0886,-276.5949 142.5035,-268.1628 132.2304,-270.7541 136.0886,-276.5949"/>
</g>
<!-- node_52 -->
<g id="node23" class="node">
<title>node_52</title>
<polygon fill="none" stroke="#000000" points="379.8457,-340 124.1543,-340 124.1543,-304 379.8457,-304 379.8457,-340"/>
<text text-anchor="middle" x="252" y="-317.8" font-family="Times,serif" font-size="14.00" fill="#000000">cast i1 from dataset to weka.core.Instances</text>
</g>
<!-- node_52&#45;&gt;node_50 -->
<g id="edge26" class="edge">
<title>node_52&#45;&gt;node_50</title>
<path fill="none" stroke="#000000" d="M231.3079,-303.8314C221.3052,-295.0485 209.145,-284.3712 198.3001,-274.8489"/>
<polygon fill="#000000" stroke="#000000" points="200.5092,-272.1308 190.6854,-268.1628 195.8906,-277.3909 200.5092,-272.1308"/>
</g>
<!-- node_52&#45;&gt;node_55 -->
<g id="edge22" class="edge">
<title>node_52&#45;&gt;node_55</title>
<path fill="none" stroke="#000000" d="M252.1394,-303.9562C251.7913,-285.4531 249.8634,-256.0586 242,-232 238.9418,-222.6432 234.1368,-213.1104 229.2147,-204.7107"/>
<polygon fill="#000000" stroke="#000000" points="232.1338,-202.7762 223.9048,-196.1028 226.1761,-206.4513 232.1338,-202.7762"/>
</g>
<!-- node_53 -->
<g id="node24" class="node">
<title>node_53</title>
<polygon fill="none" stroke="#000000" points="379.9518,-124 216.0482,-124 216.0482,-88 379.9518,-88 379.9518,-124"/>
<text text-anchor="middle" x="298" y="-101.8" font-family="Times,serif" font-size="14.00" fill="#000000">transmit data1&#45;&gt;executor2</text>
</g>
<!-- node_53&#45;&gt;node_42 -->
<g id="edge33" class="edge">
<title>node_53&#45;&gt;node_42</title>
<path fill="none" stroke="#000000" stroke-dasharray="1,5" d="M306.7905,-124.0563C330.4764,-172.3378 395.9305,-303.243 427,-340 436.2284,-350.9178 447.9505,-361.1567 459.0525,-369.7216"/>
<polygon fill="#000000" stroke="#000000" points="457.2622,-372.7527 467.3699,-375.9284 461.4488,-367.1426 457.2622,-372.7527"/>
</g>
<!-- node_58 -->
<g id="node29" class="node">
<title>node_58</title>
<polygon fill="none" stroke="#000000" points="380.1485,-52 173.8515,-52 173.8515,-16 380.1485,-16 380.1485,-52"/>
<text text-anchor="middle" x="277" y="-29.8" font-family="Times,serif" font-size="14.00" fill="#000000">FinishNode &amp;finished&amp;executor1</text>
</g>
<!-- node_53&#45;&gt;node_58 -->
<g id="edge24" class="edge">
<title>node_53&#45;&gt;node_58</title>
<path fill="none" stroke="#000000" d="M292.7008,-87.8314C290.4302,-80.0463 287.7254,-70.7729 285.206,-62.1347"/>
<polygon fill="#000000" stroke="#000000" points="288.5306,-61.0332 282.3705,-52.4133 281.8106,-62.9933 288.5306,-61.0332"/>
</g>
<!-- node_54&#45;&gt;node_52 -->
<g id="edge27" class="edge">
<title>node_54&#45;&gt;node_52</title>
<path fill="none" stroke="#000000" d="M317.7939,-375.8314C306.955,-366.9632 293.7556,-356.1637 282.0322,-346.5718"/>
<polygon fill="#000000" stroke="#000000" points="284.155,-343.7864 274.199,-340.1628 279.7223,-349.2041 284.155,-343.7864"/>
</g>
<!-- node_55&#45;&gt;node_53 -->
<g id="edge28" class="edge">
<title>node_55&#45;&gt;node_53</title>
<path fill="none" stroke="#000000" d="M232.9538,-159.8314C243.6695,-150.9632 256.7189,-140.1637 268.309,-130.5718"/>
<polygon fill="#000000" stroke="#000000" points="270.5808,-133.2349 276.0533,-124.1628 266.1178,-127.8422 270.5808,-133.2349"/>
</g>
<!-- node_56 -->
<g id="node27" class="node">
<title>node_56</title>
<polygon fill="none" stroke="#000000" points="198.8561,-124 105.1439,-124 105.1439,-88 198.8561,-88 198.8561,-124"/>
<text text-anchor="middle" x="152" y="-101.8" font-family="Times,serif" font-size="14.00" fill="#000000">store service1</text>
</g>
<!-- node_55&#45;&gt;node_56 -->
<g id="edge20" class="edge">
<title>node_55&#45;&gt;node_56</title>
<path fill="none" stroke="#000000" d="M196.1118,-159.8314C189.247,-151.454 180.9699,-141.3531 173.4489,-132.1749"/>
<polygon fill="#000000" stroke="#000000" points="176.1341,-129.9297 167.0886,-124.4133 170.7197,-134.3665 176.1341,-129.9297"/>
</g>
<!-- node_56&#45;&gt;node_58 -->
<g id="edge21" class="edge">
<title>node_56&#45;&gt;node_58</title>
<path fill="none" stroke="#000000" d="M183.5428,-87.8314C199.6791,-78.5368 219.4986,-67.1208 236.7272,-57.1971"/>
<polygon fill="#000000" stroke="#000000" points="238.5489,-60.187 245.4673,-52.1628 235.055,-54.1212 238.5489,-60.187"/>
</g>
<!-- node_57&#45;&gt;node_51 -->
<g id="edge25" class="edge">
<title>node_57&#45;&gt;node_51</title>
<path fill="none" stroke="#000000" d="M188.1018,-375.8314C165.2643,-366.159 137.002,-354.1891 112.9313,-343.9944"/>
<polygon fill="#000000" stroke="#000000" points="114.1629,-340.7151 103.5897,-340.038 111.4329,-347.1608 114.1629,-340.7151"/>
</g>
<!-- node_58&#45;&gt;node_61 -->
<g id="edge32" class="edge">
<title>node_58&#45;&gt;node_61</title>
<path fill="none" stroke="#000000" stroke-dasharray="1,5" d="M380.3674,-37.3239C530.5052,-42.9385 795.1064,-56.0948 832,-80 873.735,-107.0421 886,-128.2699 886,-178 886,-394 886,-394 886,-394 886,-451.8393 844.6506,-460.0564 792,-484 714.6243,-519.1878 499.9969,-508.7381 399.2035,-520.0269"/>
<polygon fill="#000000" stroke="#000000" points="398.722,-516.5597 389.2317,-521.2696 399.5878,-523.506 398.722,-516.5597"/>
</g>
<!-- node_59 -->
<g id="node30" class="node">
<title>node_59</title>
<polygon fill="none" stroke="#000000" points="92,-412 28.3022,-394 92,-376 155.6978,-394 92,-412"/>
<text text-anchor="middle" x="92" y="-389.8" font-family="Times,serif" font-size="14.00" fill="#000000">executor1</text>
</g>
<!-- node_72 -->
<g id="node31" class="node">
<title>node_72</title>
<polygon fill="none" stroke="#000000" points="1028.5508,-628 905.4492,-628 905.4492,-592 1028.5508,-592 1028.5508,-628"/>
<text text-anchor="middle" x="967" y="-605.8" font-family="Times,serif" font-size="14.00" fill="#000000">transmit i1&#45;&gt;Client</text>
</g>
<!-- node_72&#45;&gt;node_63 -->
<g id="edge35" class="edge">
<title>node_72&#45;&gt;node_63</title>
<path fill="none" stroke="#000000" stroke-dasharray="1,5" d="M905.1462,-593.8286C902.0612,-593.1761 898.9998,-592.5616 896,-592 769.7644,-568.3676 730.9893,-589.2004 602.9496,-555.8293"/>
<polygon fill="#000000" stroke="#000000" points="603.7307,-552.4154 593.1665,-553.2206 601.927,-559.1791 603.7307,-552.4154"/>
</g>
<!-- node_73 -->
<g id="node32" class="node">
<title>node_73</title>
<polygon fill="none" stroke="#000000" points="1205.3029,-628 1046.6971,-628 1046.6971,-592 1205.3029,-592 1205.3029,-628"/>
<text text-anchor="middle" x="1126" y="-605.8" font-family="Times,serif" font-size="14.00" fill="#000000">transmit service2&#45;&gt;Client</text>
</g>
<!-- node_73&#45;&gt;node_60 -->
<g id="edge31" class="edge">
<title>node_73&#45;&gt;node_60</title>
<path fill="none" stroke="#000000" stroke-dasharray="1,5" d="M1046.4146,-593.5016C1043.577,-592.9833 1040.7654,-592.481 1038,-592 927.3896,-572.7621 797.6115,-555.2301 723.0754,-545.6429"/>
<polygon fill="#000000" stroke="#000000" points="723.2961,-542.1426 712.9324,-544.3435 722.4066,-549.0859 723.2961,-542.1426"/>
</g>
</g>
</svg>
