<?xml version="1.0" encoding="UTF-8" standalone="no"?>
<!DOCTYPE svg PUBLIC "-//W3C//DTD SVG 1.1//EN"
 "http://www.w3.org/Graphics/SVG/1.1/DTD/svg11.dtd">
<!-- Generated by graphviz version 2.40.1 (20161225.0304)
 -->
<!-- Title: %3 Pages: 1 -->
<svg width="3348pt" height="724pt"
 viewBox="0.00 0.00 3348.00 724.00" xmlns="http://www.w3.org/2000/svg" xmlns:xlink="http://www.w3.org/1999/xlink">
<g id="graph0" class="graph" transform="scale(1 1) rotate(0) translate(4 720)">
<title>%3</title>
<polygon fill="#ffffff" stroke="transparent" points="-4,4 -4,-720 3344,-720 3344,4 -4,4"/>
<g id="clust1" class="cluster">
<title>cluster_1352590364</title>
<polygon fill="none" stroke="#000000" points="8,-368 8,-708 980,-708 980,-368 8,-368"/>
</g>
<g id="clust2" class="cluster">
<title>cluster_366549866</title>
<polygon fill="none" stroke="#000000" points="917,-8 917,-348 1746,-348 1746,-8 917,-8"/>
</g>
<g id="clust3" class="cluster">
<title>cluster_804242650</title>
<polygon fill="none" stroke="#000000" points="1754,-296 1754,-492 3098,-492 3098,-296 1754,-296"/>
</g>
<!-- node_117 -->
<g id="node1" class="node">
<title>node_117</title>
<polygon fill="none" stroke="#000000" points="971.7657,-628 682.2343,-628 682.2343,-592 971.7657,-592 971.7657,-628"/>
<text text-anchor="middle" x="827" y="-605.8" font-family="Times,serif" font-size="14.00" fill="#000000">cast classifierOptions from jsonlist to builtin.List</text>
</g>
<!-- node_120 -->
<g id="node4" class="node">
<title>node_120</title>
<polygon fill="none" stroke="#000000" points="910.4522,-556 663.5478,-556 663.5478,-520 910.4522,-520 910.4522,-556"/>
<text text-anchor="middle" x="787" y="-533.8" font-family="Times,serif" font-size="14.00" fill="#000000">service2::set_options([classifierOptions])</text>
</g>
<!-- node_117&#45;&gt;node_120 -->
<g id="edge2" class="edge">
<title>node_117&#45;&gt;node_120</title>
<path fill="none" stroke="#000000" d="M816.9063,-591.8314C812.4403,-583.7925 807.0925,-574.1666 802.1621,-565.2918"/>
<polygon fill="#000000" stroke="#000000" points="805.1456,-563.4551 797.2296,-556.4133 799.0265,-566.8546 805.1456,-563.4551"/>
</g>
<!-- node_118 -->
<g id="node2" class="node">
<title>node_118</title>
<polygon fill="none" stroke="#000000" points="972.1485,-412 765.8515,-412 765.8515,-376 972.1485,-376 972.1485,-412"/>
<text text-anchor="middle" x="869" y="-389.8" font-family="Times,serif" font-size="14.00" fill="#000000">FinishNode &amp;finished&amp;executor2</text>
</g>
<!-- node_151 -->
<g id="node35" class="node">
<title>node_151</title>
<polygon fill="none" stroke="#000000" points="2922.0562,-412 2745.9438,-412 2745.9438,-376 2922.0562,-376 2922.0562,-412"/>
<text text-anchor="middle" x="2834" y="-389.8" font-family="Times,serif" font-size="14.00" fill="#000000">accept &amp;finished&amp;executor2</text>
</g>
<!-- node_118&#45;&gt;node_151 -->
<g id="edge42" class="edge">
<title>node_118&#45;&gt;node_151</title>
<path fill="none" stroke="#000000" stroke-dasharray="1,5" d="M972.079,-399.5239C1137.8377,-408.1017 1473.9403,-424.2371 1759,-430 1974.2893,-434.3524 2515.5455,-465.0929 2728,-430 2745.8727,-427.0478 2764.7824,-421.4731 2781.6047,-415.577"/>
<polygon fill="#000000" stroke="#000000" points="2783.0342,-418.7818 2791.2446,-412.0856 2780.6504,-412.2002 2783.0342,-418.7818"/>
</g>
<!-- node_119 -->
<g id="node3" class="node">
<title>node_119</title>
<polygon fill="none" stroke="#000000" points="936.849,-700 787.151,-700 787.151,-664 936.849,-664 936.849,-700"/>
<text text-anchor="middle" x="862" y="-677.8" font-family="Times,serif" font-size="14.00" fill="#000000">accept classifierOptions</text>
</g>
<!-- node_119&#45;&gt;node_117 -->
<g id="edge8" class="edge">
<title>node_119&#45;&gt;node_117</title>
<path fill="none" stroke="#000000" d="M853.168,-663.8314C849.3014,-655.8771 844.6794,-646.369 840.4032,-637.5723"/>
<polygon fill="#000000" stroke="#000000" points="843.4707,-635.8768 835.9509,-628.4133 837.1751,-638.9371 843.4707,-635.8768"/>
</g>
<!-- node_122 -->
<g id="node6" class="node">
<title>node_122</title>
<polygon fill="none" stroke="#000000" points="969.3029,-484 810.6971,-484 810.6971,-448 969.3029,-448 969.3029,-484"/>
<text text-anchor="middle" x="890" y="-461.8" font-family="Times,serif" font-size="14.00" fill="#000000">transmit service2&#45;&gt;Client</text>
</g>
<!-- node_120&#45;&gt;node_122 -->
<g id="edge1" class="edge">
<title>node_120&#45;&gt;node_122</title>
<path fill="none" stroke="#000000" d="M812.9912,-519.8314C825.9216,-510.7927 841.7222,-499.7476 855.6383,-490.0198"/>
<polygon fill="#000000" stroke="#000000" points="857.8263,-492.7608 864.0171,-484.1628 853.8157,-487.0235 857.8263,-492.7608"/>
</g>
<!-- node_123 -->
<g id="node7" class="node">
<title>node_123</title>
<polygon fill="none" stroke="#000000" points="792.8561,-484 699.1439,-484 699.1439,-448 792.8561,-448 792.8561,-484"/>
<text text-anchor="middle" x="746" y="-461.8" font-family="Times,serif" font-size="14.00" fill="#000000">store service2</text>
</g>
<!-- node_120&#45;&gt;node_123 -->
<g id="edge3" class="edge">
<title>node_120&#45;&gt;node_123</title>
<path fill="none" stroke="#000000" d="M776.654,-519.8314C772.0763,-511.7925 766.5948,-502.1666 761.5412,-493.2918"/>
<polygon fill="#000000" stroke="#000000" points="764.4752,-491.3712 756.4853,-484.4133 758.3923,-494.8351 764.4752,-491.3712"/>
</g>
<!-- node_121 -->
<g id="node5" class="node">
<title>node_121</title>
<polygon fill="none" stroke="#000000" points="482.9251,-700 197.0749,-700 197.0749,-664 482.9251,-664 482.9251,-700"/>
<text text-anchor="middle" x="340" y="-677.8" font-family="Times,serif" font-size="14.00" fill="#000000">parse String: weka.classifiers.bayes.NaiveBayes</text>
</g>
<!-- node_124 -->
<g id="node8" class="node">
<title>node_124</title>
<polygon fill="none" stroke="#000000" points="664.126,-628 15.874,-628 15.874,-592 664.126,-592 664.126,-628"/>
<text text-anchor="middle" x="340" y="-605.8" font-family="Times,serif" font-size="14.00" fill="#000000">service2 = de.upb.sede.services.mls.WekaBClassifierWrapper::__construct([weka.classifiers.bayes.NaiveBayes])</text>
</g>
<!-- node_121&#45;&gt;node_124 -->
<g id="edge4" class="edge">
<title>node_121&#45;&gt;node_124</title>
<path fill="none" stroke="#000000" d="M340,-663.8314C340,-656.131 340,-646.9743 340,-638.4166"/>
<polygon fill="#000000" stroke="#000000" points="343.5001,-638.4132 340,-628.4133 336.5001,-638.4133 343.5001,-638.4132"/>
</g>
<!-- node_122&#45;&gt;node_118 -->
<g id="edge6" class="edge">
<title>node_122&#45;&gt;node_118</title>
<path fill="none" stroke="#000000" d="M884.7008,-447.8314C882.4302,-440.0463 879.7254,-430.7729 877.206,-422.1347"/>
<polygon fill="#000000" stroke="#000000" points="880.5306,-421.0332 874.3705,-412.4133 873.8106,-422.9933 880.5306,-421.0332"/>
</g>
<!-- node_140 -->
<g id="node24" class="node">
<title>node_140</title>
<polygon fill="none" stroke="#000000" points="1863.8868,-412 1762.1132,-412 1762.1132,-376 1863.8868,-376 1863.8868,-412"/>
<text text-anchor="middle" x="1813" y="-389.8" font-family="Times,serif" font-size="14.00" fill="#000000">accept service2</text>
</g>
<!-- node_122&#45;&gt;node_140 -->
<g id="edge50" class="edge">
<title>node_122&#45;&gt;node_140</title>
<path fill="none" stroke="#000000" stroke-dasharray="1,5" d="M969.4869,-449.3713C972.6944,-448.8756 975.8746,-448.4153 979,-448 1266.3662,-409.8146 1613.1729,-398.3413 1751.6047,-395.144"/>
<polygon fill="#000000" stroke="#000000" points="1752.0762,-398.6343 1761.995,-394.9106 1751.9189,-391.6361 1752.0762,-398.6343"/>
</g>
<!-- node_123&#45;&gt;node_118 -->
<g id="edge5" class="edge">
<title>node_123&#45;&gt;node_118</title>
<path fill="none" stroke="#000000" d="M777.0381,-447.8314C792.7705,-438.6221 812.0611,-427.3301 828.9044,-417.4706"/>
<polygon fill="#000000" stroke="#000000" points="831.1098,-420.2352 837.9718,-412.1628 827.5735,-414.1941 831.1098,-420.2352"/>
</g>
<!-- node_124&#45;&gt;node_120 -->
<g id="edge7" class="edge">
<title>node_124&#45;&gt;node_120</title>
<path fill="none" stroke="#000000" d="M451.9318,-591.9707C516.7463,-581.5308 598.397,-568.379 664.8691,-557.6721"/>
<polygon fill="#000000" stroke="#000000" points="665.6657,-561.089 674.9818,-556.0432 664.5524,-554.1781 665.6657,-561.089"/>
</g>
<!-- node_125 -->
<g id="node9" class="node">
<title>node_125</title>
<polygon fill="none" stroke="#000000" points="98,-700 34.3022,-682 98,-664 161.6978,-682 98,-700"/>
<text text-anchor="middle" x="98" y="-677.8" font-family="Times,serif" font-size="14.00" fill="#000000">executor2</text>
</g>
<!-- node_128 -->
<g id="node10" class="node">
<title>node_128</title>
<polygon fill="none" stroke="#000000" points="1290.8561,-124 1197.1439,-124 1197.1439,-88 1290.8561,-88 1290.8561,-124"/>
<text text-anchor="middle" x="1244" y="-101.8" font-family="Times,serif" font-size="14.00" fill="#000000">store service1</text>
</g>
<!-- node_131 -->
<g id="node13" class="node">
<title>node_131</title>
<polygon fill="none" stroke="#000000" points="1179.1485,-52 972.8515,-52 972.8515,-16 1179.1485,-16 1179.1485,-52"/>
<text text-anchor="middle" x="1076" y="-29.8" font-family="Times,serif" font-size="14.00" fill="#000000">FinishNode &amp;finished&amp;executor1</text>
</g>
<!-- node_128&#45;&gt;node_131 -->
<g id="edge11" class="edge">
<title>node_128&#45;&gt;node_131</title>
<path fill="none" stroke="#000000" d="M1201.6065,-87.8314C1179.0376,-78.159 1151.1079,-66.1891 1127.3204,-55.9944"/>
<polygon fill="#000000" stroke="#000000" points="1128.6588,-52.7602 1118.0886,-52.038 1125.9014,-59.1943 1128.6588,-52.7602"/>
</g>
<!-- node_129 -->
<g id="node11" class="node">
<title>node_129</title>
<polygon fill="none" stroke="#000000" points="1507.3176,-268 1236.6824,-268 1236.6824,-232 1507.3176,-232 1507.3176,-268"/>
<text text-anchor="middle" x="1372" y="-245.8" font-family="Times,serif" font-size="14.00" fill="#000000">cast evalOptions1 from jsonlist to builtin.List</text>
</g>
<!-- node_135 -->
<g id="node17" class="node">
<title>node_135</title>
<polygon fill="none" stroke="#000000" points="1663.0919,-196 976.9081,-196 976.9081,-160 1663.0919,-160 1663.0919,-196"/>
<text text-anchor="middle" x="1320" y="-173.8" font-family="Times,serif" font-size="14.00" fill="#000000">service1 = de.upb.sede.services.mls.WekaASWrapper::__construct([searcher1, eval1, searcherOptions1, evalOptions1])</text>
</g>
<!-- node_129&#45;&gt;node_135 -->
<g id="edge14" class="edge">
<title>node_129&#45;&gt;node_135</title>
<path fill="none" stroke="#000000" d="M1358.8782,-231.8314C1352.9501,-223.6232 1345.8271,-213.7606 1339.3067,-204.7323"/>
<polygon fill="#000000" stroke="#000000" points="1341.9908,-202.4708 1333.2985,-196.4133 1336.316,-206.5693 1341.9908,-202.4708"/>
</g>
<!-- node_130 -->
<g id="node12" class="node">
<title>node_130</title>
<polygon fill="none" stroke="#000000" points="1155.3029,-124 996.6971,-124 996.6971,-88 1155.3029,-88 1155.3029,-124"/>
<text text-anchor="middle" x="1076" y="-101.8" font-family="Times,serif" font-size="14.00" fill="#000000">transmit service1&#45;&gt;Client</text>
</g>
<!-- node_130&#45;&gt;node_131 -->
<g id="edge9" class="edge">
<title>node_130&#45;&gt;node_131</title>
<path fill="none" stroke="#000000" d="M1076,-87.8314C1076,-80.131 1076,-70.9743 1076,-62.4166"/>
<polygon fill="#000000" stroke="#000000" points="1079.5001,-62.4132 1076,-52.4133 1072.5001,-62.4133 1079.5001,-62.4132"/>
</g>
<!-- node_141 -->
<g id="node25" class="node">
<title>node_141</title>
<polygon fill="none" stroke="#000000" points="2727.8868,-412 2626.1132,-412 2626.1132,-376 2727.8868,-376 2727.8868,-412"/>
<text text-anchor="middle" x="2677" y="-389.8" font-family="Times,serif" font-size="14.00" fill="#000000">accept service1</text>
</g>
<!-- node_130&#45;&gt;node_141 -->
<g id="edge47" class="edge">
<title>node_130&#45;&gt;node_141</title>
<path fill="none" stroke="#000000" stroke-dasharray="1,5" d="M1027.8288,-124.0855C1007.9811,-132.9956 985.5701,-145.0658 968,-160 937.9235,-185.5642 928.1447,-194.4416 916,-232 894.4203,-298.737 956.5837,-325.4528 1023,-348 1106.8618,-376.4697 2530.3966,-349.4753 2617,-368 2622.0061,-369.0708 2627.1102,-370.5711 2632.1225,-372.3164"/>
<polygon fill="#000000" stroke="#000000" points="2631.0075,-375.6369 2641.5984,-375.926 2633.4994,-369.0954 2631.0075,-375.6369"/>
</g>
<!-- node_137 -->
<g id="node21" class="node">
<title>node_137</title>
<polygon fill="none" stroke="#000000" points="2608.0562,-412 2431.9438,-412 2431.9438,-376 2608.0562,-376 2608.0562,-412"/>
<text text-anchor="middle" x="2520" y="-389.8" font-family="Times,serif" font-size="14.00" fill="#000000">accept &amp;finished&amp;executor1</text>
</g>
<!-- node_131&#45;&gt;node_137 -->
<g id="edge44" class="edge">
<title>node_131&#45;&gt;node_137</title>
<path fill="none" stroke="#000000" stroke-dasharray="1,5" d="M997.3512,-52.0563C935.2495,-71.5198 859,-109.3878 859,-178 859,-250 859,-250 859,-250 859,-301.7792 876.7191,-322.8858 922,-348 958.4651,-368.2246 2381.696,-362.2802 2423,-368 2432.485,-369.3135 2442.3648,-371.2601 2452.0334,-373.5077"/>
<polygon fill="#000000" stroke="#000000" points="2451.4623,-376.971 2462.0073,-375.9449 2453.124,-370.1711 2451.4623,-376.971"/>
</g>
<!-- node_132 -->
<g id="node14" class="node">
<title>node_132</title>
<polygon fill="none" stroke="#000000" points="1218.6282,-268 925.3718,-268 925.3718,-232 1218.6282,-232 1218.6282,-268"/>
<text text-anchor="middle" x="1072" y="-245.8" font-family="Times,serif" font-size="14.00" fill="#000000">cast searcherOptions1 from jsonlist to builtin.List</text>
</g>
<!-- node_132&#45;&gt;node_135 -->
<g id="edge12" class="edge">
<title>node_132&#45;&gt;node_135</title>
<path fill="none" stroke="#000000" d="M1134.2608,-231.9243C1168.7534,-221.9103 1211.803,-209.412 1247.7699,-198.97"/>
<polygon fill="#000000" stroke="#000000" points="1249.086,-202.2325 1257.7136,-196.0831 1247.1343,-195.5101 1249.086,-202.2325"/>
</g>
<!-- node_133 -->
<g id="node15" class="node">
<title>node_133</title>
<polygon fill="none" stroke="#000000" points="1700.9004,-340 1571.0996,-340 1571.0996,-304 1700.9004,-304 1700.9004,-340"/>
<text text-anchor="middle" x="1636" y="-317.8" font-family="Times,serif" font-size="14.00" fill="#000000">accept evalOptions1</text>
</g>
<!-- node_133&#45;&gt;node_129 -->
<g id="edge18" class="edge">
<title>node_133&#45;&gt;node_129</title>
<path fill="none" stroke="#000000" d="M1571.0802,-304.2946C1533.783,-294.1226 1486.7544,-281.2966 1447.7722,-270.6651"/>
<polygon fill="#000000" stroke="#000000" points="1448.6142,-267.267 1438.0456,-268.0124 1446.7723,-274.0204 1448.6142,-267.267"/>
</g>
<!-- node_134 -->
<g id="node16" class="node">
<title>node_134</title>
<polygon fill="none" stroke="#000000" points="1634.3731,-268 1525.6269,-268 1525.6269,-232 1634.3731,-232 1634.3731,-268"/>
<text text-anchor="middle" x="1580" y="-245.8" font-family="Times,serif" font-size="14.00" fill="#000000">accept searcher1</text>
</g>
<!-- node_134&#45;&gt;node_135 -->
<g id="edge10" class="edge">
<title>node_134&#45;&gt;node_135</title>
<path fill="none" stroke="#000000" d="M1525.5382,-234.6614C1522.3114,-233.7592 1519.1134,-232.8667 1516,-232 1476.3723,-220.9685 1432.2045,-208.7897 1395.8431,-198.7944"/>
<polygon fill="#000000" stroke="#000000" points="1396.3746,-195.3108 1385.8046,-196.0359 1394.5198,-202.0606 1396.3746,-195.3108"/>
</g>
<!-- node_135&#45;&gt;node_128 -->
<g id="edge16" class="edge">
<title>node_135&#45;&gt;node_128</title>
<path fill="none" stroke="#000000" d="M1300.822,-159.8314C1291.6412,-151.1337 1280.4994,-140.5783 1270.5224,-131.1265"/>
<polygon fill="#000000" stroke="#000000" points="1272.8385,-128.4995 1263.1719,-124.1628 1268.0243,-133.5811 1272.8385,-128.4995"/>
</g>
<!-- node_135&#45;&gt;node_130 -->
<g id="edge17" class="edge">
<title>node_135&#45;&gt;node_130</title>
<path fill="none" stroke="#000000" d="M1258.7434,-159.9243C1224.8071,-149.9103 1182.4519,-137.412 1147.0651,-126.97"/>
<polygon fill="#000000" stroke="#000000" points="1147.8635,-123.5565 1137.2818,-124.0831 1145.8823,-130.2703 1147.8635,-123.5565"/>
</g>
<!-- node_136 -->
<g id="node18" class="node">
<title>node_136</title>
<polygon fill="none" stroke="#000000" points="1415,-340 1351.3022,-322 1415,-304 1478.6978,-322 1415,-340"/>
<text text-anchor="middle" x="1415" y="-317.8" font-family="Times,serif" font-size="14.00" fill="#000000">executor1</text>
</g>
<!-- node_126 -->
<g id="node19" class="node">
<title>node_126</title>
<polygon fill="none" stroke="#000000" points="1737.5636,-268 1652.4364,-268 1652.4364,-232 1737.5636,-232 1737.5636,-268"/>
<text text-anchor="middle" x="1695" y="-245.8" font-family="Times,serif" font-size="14.00" fill="#000000">accept eval1</text>
</g>
<!-- node_126&#45;&gt;node_135 -->
<g id="edge15" class="edge">
<title>node_126&#45;&gt;node_135</title>
<path fill="none" stroke="#000000" d="M1652.324,-234.5919C1649.1865,-233.655 1646.055,-232.7783 1643,-232 1586.8543,-217.6967 1524.2252,-206.2239 1469.1715,-197.5947"/>
<polygon fill="#000000" stroke="#000000" points="1469.4011,-194.0886 1458.9832,-196.0165 1468.3295,-201.0061 1469.4011,-194.0886"/>
</g>
<!-- node_127 -->
<g id="node20" class="node">
<title>node_127</title>
<polygon fill="none" stroke="#000000" points="1185.7111,-340 1032.2889,-340 1032.2889,-304 1185.7111,-304 1185.7111,-340"/>
<text text-anchor="middle" x="1109" y="-317.8" font-family="Times,serif" font-size="14.00" fill="#000000">accept searcherOptions1</text>
</g>
<!-- node_127&#45;&gt;node_132 -->
<g id="edge13" class="edge">
<title>node_127&#45;&gt;node_132</title>
<path fill="none" stroke="#000000" d="M1099.6633,-303.8314C1095.5757,-295.8771 1090.6896,-286.369 1086.1691,-277.5723"/>
<polygon fill="#000000" stroke="#000000" points="1089.1461,-275.7078 1081.4624,-268.4133 1082.9201,-278.9074 1089.1461,-275.7078"/>
</g>
<!-- node_138 -->
<g id="node22" class="node">
<title>node_138</title>
<polygon fill="none" stroke="#000000" points="2413.5636,-412 2328.4364,-412 2328.4364,-376 2413.5636,-376 2413.5636,-412"/>
<text text-anchor="middle" x="2371" y="-389.8" font-family="Times,serif" font-size="14.00" fill="#000000">accept eval1</text>
</g>
<!-- node_149 -->
<g id="node33" class="node">
<title>node_149</title>
<polygon fill="none" stroke="#000000" points="2604.9518,-340 2441.0482,-340 2441.0482,-304 2604.9518,-304 2604.9518,-340"/>
<text text-anchor="middle" x="2523" y="-317.8" font-family="Times,serif" font-size="14.00" fill="#000000">transmit eval1&#45;&gt;executor1</text>
</g>
<!-- node_138&#45;&gt;node_149 -->
<g id="edge25" class="edge">
<title>node_138&#45;&gt;node_149</title>
<path fill="none" stroke="#000000" d="M2406.73,-375.9441C2412.1664,-373.2522 2417.722,-370.5326 2423,-368 2439.4187,-360.1216 2457.4708,-351.7344 2473.6651,-344.3089"/>
<polygon fill="#000000" stroke="#000000" points="2475.3201,-347.4007 2482.959,-340.0591 2472.4091,-341.0347 2475.3201,-347.4007"/>
</g>
<!-- node_139 -->
<g id="node23" class="node">
<title>node_139</title>
<polygon fill="none" stroke="#000000" points="2310.3731,-412 2201.6269,-412 2201.6269,-376 2310.3731,-376 2310.3731,-412"/>
<text text-anchor="middle" x="2256" y="-389.8" font-family="Times,serif" font-size="14.00" fill="#000000">accept searcher1</text>
</g>
<!-- node_147 -->
<g id="node31" class="node">
<title>node_147</title>
<polygon fill="none" stroke="#000000" points="2423.2619,-340 2236.7381,-340 2236.7381,-304 2423.2619,-304 2423.2619,-340"/>
<text text-anchor="middle" x="2330" y="-317.8" font-family="Times,serif" font-size="14.00" fill="#000000">transmit searcher1&#45;&gt;executor1</text>
</g>
<!-- node_139&#45;&gt;node_147 -->
<g id="edge22" class="edge">
<title>node_139&#45;&gt;node_147</title>
<path fill="none" stroke="#000000" d="M2274.6733,-375.8314C2283.5249,-367.219 2294.2486,-356.7851 2303.8895,-347.4048"/>
<polygon fill="#000000" stroke="#000000" points="2306.6061,-349.645 2311.3326,-340.1628 2301.7246,-344.6279 2306.6061,-349.645"/>
</g>
<!-- node_142 -->
<g id="node26" class="node">
<title>node_142</title>
<polygon fill="none" stroke="#000000" points="2361.5381,-484 2284.4619,-484 2284.4619,-448 2361.5381,-448 2361.5381,-484"/>
<text text-anchor="middle" x="2323" y="-461.8" font-family="Times,serif" font-size="14.00" fill="#000000">send graph</text>
</g>
<!-- node_142&#45;&gt;node_137 -->
<g id="edge33" class="edge">
<title>node_142&#45;&gt;node_137</title>
<path fill="none" stroke="#000000" d="M2361.7053,-451.1057C2364.5099,-450.0483 2367.297,-449.004 2370,-448 2399.3597,-437.0945 2432.0718,-425.2791 2459.4362,-415.4891"/>
<polygon fill="#000000" stroke="#000000" points="2460.6387,-418.7762 2468.878,-412.1155 2458.2834,-412.1843 2460.6387,-418.7762"/>
</g>
<!-- node_142&#45;&gt;node_138 -->
<g id="edge34" class="edge">
<title>node_142&#45;&gt;node_138</title>
<path fill="none" stroke="#000000" d="M2335.1124,-447.8314C2340.5281,-439.7079 2347.0242,-429.9637 2352.9921,-421.0118"/>
<polygon fill="#000000" stroke="#000000" points="2356.0896,-422.6753 2358.7245,-412.4133 2350.2653,-418.7923 2356.0896,-422.6753"/>
</g>
<!-- node_142&#45;&gt;node_139 -->
<g id="edge36" class="edge">
<title>node_142&#45;&gt;node_139</title>
<path fill="none" stroke="#000000" d="M2306.0931,-447.8314C2298.2187,-439.3694 2288.708,-429.1489 2280.0987,-419.8971"/>
<polygon fill="#000000" stroke="#000000" points="2282.5092,-417.3497 2273.1346,-412.4133 2277.3847,-422.1183 2282.5092,-417.3497"/>
</g>
<!-- node_142&#45;&gt;node_140 -->
<g id="edge37" class="edge">
<title>node_142&#45;&gt;node_140</title>
<path fill="none" stroke="#000000" d="M2284.413,-463.6153C2207.7544,-458.3962 2030.8541,-443.9503 1873.7506,-411.9557"/>
<polygon fill="#000000" stroke="#000000" points="1874.4112,-408.5183 1863.9099,-409.9229 1872.995,-415.3736 1874.4112,-408.5183"/>
</g>
<!-- node_142&#45;&gt;node_141 -->
<g id="edge39" class="edge">
<title>node_142&#45;&gt;node_141</title>
<path fill="none" stroke="#000000" d="M2361.7663,-450.3949C2364.5311,-449.5166 2367.2945,-448.7059 2370,-448 2474.1988,-420.8115 2506.7883,-435.103 2615.9717,-412.0269"/>
<polygon fill="#000000" stroke="#000000" points="2617.0417,-415.3762 2626.0709,-409.8333 2615.5558,-408.5357 2617.0417,-415.3762"/>
</g>
<!-- node_143 -->
<g id="node27" class="node">
<title>node_143</title>
<polygon fill="none" stroke="#000000" points="2183.7111,-412 2030.2889,-412 2030.2889,-376 2183.7111,-376 2183.7111,-412"/>
<text text-anchor="middle" x="2107" y="-389.8" font-family="Times,serif" font-size="14.00" fill="#000000">accept searcherOptions1</text>
</g>
<!-- node_142&#45;&gt;node_143 -->
<g id="edge19" class="edge">
<title>node_142&#45;&gt;node_143</title>
<path fill="none" stroke="#000000" d="M2284.3835,-453.1278C2252.8596,-442.6199 2207.6587,-427.5529 2170.7759,-415.2586"/>
<polygon fill="#000000" stroke="#000000" points="2171.6968,-411.8763 2161.1031,-412.0344 2169.4831,-418.5171 2171.6968,-411.8763"/>
</g>
<!-- node_145 -->
<g id="node29" class="node">
<title>node_145</title>
<polygon fill="none" stroke="#000000" points="2011.9004,-412 1882.0996,-412 1882.0996,-376 2011.9004,-376 2011.9004,-412"/>
<text text-anchor="middle" x="1947" y="-389.8" font-family="Times,serif" font-size="14.00" fill="#000000">accept evalOptions1</text>
</g>
<!-- node_142&#45;&gt;node_145 -->
<g id="edge20" class="edge">
<title>node_142&#45;&gt;node_145</title>
<path fill="none" stroke="#000000" d="M2284.2373,-459.8546C2228.4784,-450.8429 2122.2043,-433.0278 2021.9171,-412.1291"/>
<polygon fill="#000000" stroke="#000000" points="2022.4262,-408.6597 2011.9205,-410.0313 2020.9885,-415.5105 2022.4262,-408.6597"/>
</g>
<!-- node_150 -->
<g id="node34" class="node">
<title>node_150</title>
<polygon fill="none" stroke="#000000" points="3089.849,-412 2940.151,-412 2940.151,-376 3089.849,-376 3089.849,-412"/>
<text text-anchor="middle" x="3015" y="-389.8" font-family="Times,serif" font-size="14.00" fill="#000000">accept classifierOptions</text>
</g>
<!-- node_142&#45;&gt;node_150 -->
<g id="edge23" class="edge">
<title>node_142&#45;&gt;node_150</title>
<path fill="none" stroke="#000000" d="M2361.706,-450.1431C2364.4851,-449.3248 2367.2683,-448.5963 2370,-448 2610.8802,-395.4191 2681.6543,-444.9265 2929.944,-412.0084"/>
<polygon fill="#000000" stroke="#000000" points="2930.5529,-415.458 2939.9911,-410.6445 2929.6112,-408.5216 2930.5529,-415.458"/>
</g>
<!-- node_142&#45;&gt;node_151 -->
<g id="edge24" class="edge">
<title>node_142&#45;&gt;node_151</title>
<path fill="none" stroke="#000000" d="M2361.73,-450.2486C2364.5034,-449.4052 2367.2787,-448.6422 2370,-448 2526.2407,-411.1265 2572.8215,-433.989 2735.3985,-412.1375"/>
<polygon fill="#000000" stroke="#000000" points="2736.338,-415.5411 2745.7648,-410.7052 2735.3799,-408.6069 2736.338,-415.5411"/>
</g>
<!-- node_148 -->
<g id="node32" class="node">
<title>node_148</title>
<polygon fill="none" stroke="#000000" points="2218.5996,-340 1987.4004,-340 1987.4004,-304 2218.5996,-304 2218.5996,-340"/>
<text text-anchor="middle" x="2103" y="-317.8" font-family="Times,serif" font-size="14.00" fill="#000000">transmit searcherOptions1&#45;&gt;executor1</text>
</g>
<!-- node_143&#45;&gt;node_148 -->
<g id="edge21" class="edge">
<title>node_143&#45;&gt;node_148</title>
<path fill="none" stroke="#000000" d="M2105.9906,-375.8314C2105.5628,-368.131 2105.0541,-358.9743 2104.5787,-350.4166"/>
<polygon fill="#000000" stroke="#000000" points="2108.0724,-350.2037 2104.023,-340.4133 2101.0831,-350.592 2108.0724,-350.2037"/>
</g>
<!-- node_144 -->
<g id="node28" class="node">
<title>node_144</title>
<polygon fill="none" stroke="#000000" points="1969.7892,-340 1762.2108,-340 1762.2108,-304 1969.7892,-304 1969.7892,-340"/>
<text text-anchor="middle" x="1866" y="-317.8" font-family="Times,serif" font-size="14.00" fill="#000000">transmit evalOptions1&#45;&gt;executor1</text>
</g>
<!-- node_144&#45;&gt;node_133 -->
<g id="edge53" class="edge">
<title>node_144&#45;&gt;node_133</title>
<path fill="none" stroke="#000000" stroke-dasharray="1,5" d="M1761.9945,-322C1745.1952,-322 1728.3959,-322 1711.5966,-322"/>
<polygon fill="#000000" stroke="#000000" points="1711.1368,-318.5001 1701.1367,-322 1711.1367,-325.5001 1711.1368,-318.5001"/>
</g>
<!-- node_145&#45;&gt;node_144 -->
<g id="edge40" class="edge">
<title>node_145&#45;&gt;node_144</title>
<path fill="none" stroke="#000000" d="M1926.5603,-375.8314C1916.6795,-367.0485 1904.6676,-356.3712 1893.955,-346.8489"/>
<polygon fill="#000000" stroke="#000000" points="1896.2326,-344.1906 1886.4332,-340.1628 1891.582,-349.4224 1896.2326,-344.1906"/>
</g>
<!-- node_146 -->
<g id="node30" class="node">
<title>node_146</title>
<polygon fill="none" stroke="#000000" points="3089.7374,-340 2862.2626,-340 2862.2626,-304 3089.7374,-304 3089.7374,-340"/>
<text text-anchor="middle" x="2976" y="-317.8" font-family="Times,serif" font-size="14.00" fill="#000000">transmit classifierOptions&#45;&gt;executor2</text>
</g>
<!-- node_146&#45;&gt;node_119 -->
<g id="edge43" class="edge">
<title>node_146&#45;&gt;node_119</title>
<path fill="none" stroke="#000000" stroke-dasharray="1,5" d="M3070.6865,-340.071C3178.538,-363.4257 3340,-408.0642 3340,-466 3340,-538 3340,-538 3340,-538 3340,-660.5614 1382.5653,-679.0124 947.1432,-681.6006"/>
<polygon fill="#000000" stroke="#000000" points="946.8162,-678.1024 936.8367,-681.6606 946.857,-685.1023 946.8162,-678.1024"/>
</g>
<!-- node_147&#45;&gt;node_134 -->
<g id="edge52" class="edge">
<title>node_147&#45;&gt;node_134</title>
<path fill="none" stroke="#000000" stroke-dasharray="1,5" d="M2267.5613,-303.9682C2254.5827,-300.8186 2240.9221,-297.9359 2228,-296 1973.8432,-257.9241 1901.6707,-308.9306 1644.4747,-268.0152"/>
<polygon fill="#000000" stroke="#000000" points="1644.892,-264.5372 1634.4606,-266.3908 1643.7712,-271.4469 1644.892,-264.5372"/>
</g>
<!-- node_148&#45;&gt;node_127 -->
<g id="edge46" class="edge">
<title>node_148&#45;&gt;node_127</title>
<path fill="none" stroke="#000000" stroke-dasharray="1,5" d="M2049.3056,-340.0059C2025.3348,-347.1372 1996.5581,-354.4692 1970,-358 1901.8221,-367.064 1419.5904,-363.0738 1351,-358 1299.2025,-354.1684 1241.6753,-345.7838 1195.7093,-338.0698"/>
<polygon fill="#000000" stroke="#000000" points="1196.2294,-334.6081 1185.7846,-336.3847 1195.0576,-341.5093 1196.2294,-334.6081"/>
</g>
<!-- node_149&#45;&gt;node_126 -->
<g id="edge45" class="edge">
<title>node_149&#45;&gt;node_126</title>
<path fill="none" stroke="#000000" stroke-dasharray="1,5" d="M2467.1288,-303.9882C2455.6166,-300.8577 2443.4971,-297.9773 2432,-296 2300.2873,-273.3476 1894.2595,-257.0809 1748.108,-251.824"/>
<polygon fill="#000000" stroke="#000000" points="1748.1601,-248.3237 1738.0415,-251.4646 1747.9102,-255.3192 1748.1601,-248.3237"/>
</g>
<!-- node_150&#45;&gt;node_146 -->
<g id="edge35" class="edge">
<title>node_150&#45;&gt;node_146</title>
<path fill="none" stroke="#000000" d="M3005.1587,-375.8314C3000.8043,-367.7925 2995.5902,-358.1666 2990.7831,-349.2918"/>
<polygon fill="#000000" stroke="#000000" points="2993.8143,-347.5392 2985.9739,-340.4133 2987.6592,-350.8732 2993.8143,-347.5392"/>
</g>
<!-- node_152 -->
<g id="node36" class="node">
<title>node_152</title>
<polygon fill="none" stroke="#000000" points="2456.5381,-484 2379.4619,-484 2379.4619,-448 2456.5381,-448 2456.5381,-484"/>
<text text-anchor="middle" x="2418" y="-461.8" font-family="Times,serif" font-size="14.00" fill="#000000">send graph</text>
</g>
<!-- node_152&#45;&gt;node_137 -->
<g id="edge26" class="edge">
<title>node_152&#45;&gt;node_137</title>
<path fill="none" stroke="#000000" d="M2443.7389,-447.8314C2456.5437,-438.7927 2472.1909,-427.7476 2485.9719,-418.0198"/>
<polygon fill="#000000" stroke="#000000" points="2488.118,-420.7891 2494.2693,-412.1628 2484.0812,-415.0703 2488.118,-420.7891"/>
</g>
<!-- node_152&#45;&gt;node_138 -->
<g id="edge27" class="edge">
<title>node_152&#45;&gt;node_138</title>
<path fill="none" stroke="#000000" d="M2406.1399,-447.8314C2400.8371,-439.7079 2394.4763,-429.9637 2388.6327,-421.0118"/>
<polygon fill="#000000" stroke="#000000" points="2391.4169,-418.8739 2383.0198,-412.4133 2385.5552,-422.7003 2391.4169,-418.8739"/>
</g>
<!-- node_152&#45;&gt;node_139 -->
<g id="edge28" class="edge">
<title>node_152&#45;&gt;node_139</title>
<path fill="none" stroke="#000000" d="M2379.197,-448.7542C2357.2156,-438.9847 2329.4822,-426.6588 2305.897,-416.1764"/>
<polygon fill="#000000" stroke="#000000" points="2307.3067,-412.9729 2296.7471,-412.1098 2304.4637,-419.3696 2307.3067,-412.9729"/>
</g>
<!-- node_152&#45;&gt;node_140 -->
<g id="edge29" class="edge">
<title>node_152&#45;&gt;node_140</title>
<path fill="none" stroke="#000000" d="M2379.2884,-450.1684C2376.5106,-449.3441 2373.7293,-448.6073 2371,-448 2157.5603,-400.5048 2093.1359,-450.6124 1874.079,-411.9508"/>
<polygon fill="#000000" stroke="#000000" points="1874.6688,-408.5007 1864.2059,-410.1671 1873.4243,-415.3892 1874.6688,-408.5007"/>
</g>
<!-- node_152&#45;&gt;node_141 -->
<g id="edge30" class="edge">
<title>node_152&#45;&gt;node_141</title>
<path fill="none" stroke="#000000" d="M2456.6052,-455.8484C2494.7206,-445.7536 2554.9065,-429.6214 2616.1319,-412.2149"/>
<polygon fill="#000000" stroke="#000000" points="2617.3071,-415.5193 2625.9639,-409.411 2615.3874,-408.7877 2617.3071,-415.5193"/>
</g>
<!-- node_152&#45;&gt;node_143 -->
<g id="edge31" class="edge">
<title>node_152&#45;&gt;node_143</title>
<path fill="none" stroke="#000000" d="M2379.445,-450.6509C2376.6051,-449.7002 2373.769,-448.8042 2371,-448 2296.5176,-426.3683 2273.8166,-428.0891 2193.9227,-412.1535"/>
<polygon fill="#000000" stroke="#000000" points="2194.3847,-408.6761 2183.8887,-410.1199 2192.9942,-415.5366 2194.3847,-408.6761"/>
</g>
<!-- node_152&#45;&gt;node_145 -->
<g id="edge32" class="edge">
<title>node_152&#45;&gt;node_145</title>
<path fill="none" stroke="#000000" d="M2379.2665,-450.2633C2376.494,-449.4164 2373.7198,-448.6487 2371,-448 2222.0094,-412.4664 2176.9487,-437.4679 2022.1393,-412.0504"/>
<polygon fill="#000000" stroke="#000000" points="2022.7119,-408.5976 2012.2692,-410.3866 2021.5482,-415.5002 2022.7119,-408.5976"/>
</g>
<!-- node_152&#45;&gt;node_150 -->
<g id="edge38" class="edge">
<title>node_152&#45;&gt;node_150</title>
<path fill="none" stroke="#000000" d="M2456.7966,-463.3309C2541.0896,-457.2282 2747.3738,-440.6516 2929.9176,-412.0803"/>
<polygon fill="#000000" stroke="#000000" points="2930.6377,-415.51 2939.9683,-410.4911 2929.5444,-408.5959 2930.6377,-415.51"/>
</g>
<!-- node_152&#45;&gt;node_151 -->
<g id="edge41" class="edge">
<title>node_152&#45;&gt;node_151</title>
<path fill="none" stroke="#000000" d="M2456.8273,-459.6304C2515.1027,-450.0258 2628.9065,-431.0977 2735.7397,-412.2109"/>
<polygon fill="#000000" stroke="#000000" points="2736.4867,-415.6331 2745.7229,-410.4425 2735.2657,-408.7404 2736.4867,-415.6331"/>
</g>
<!-- node_153 -->
<g id="node37" class="node">
<title>node_153</title>
<polygon fill="none" stroke="#000000" points="2039,-484 1994.2728,-466 2039,-448 2083.7272,-466 2039,-484"/>
<text text-anchor="middle" x="2039" y="-461.8" font-family="Times,serif" font-size="14.00" fill="#000000">Client</text>
</g>
<!-- node_154 -->
<g id="node38" class="node">
<title>node_154</title>
<polygon fill="none" stroke="#000000" points="3312.2648,-484 3105.7352,-484 3105.7352,-448 3312.2648,-448 3312.2648,-484"/>
<text text-anchor="middle" x="3209" y="-461.8" font-family="Times,serif" font-size="14.00" fill="#000000">transmit classifierOptions&#45;&gt;Client</text>
</g>
<!-- node_154&#45;&gt;node_150 -->
<g id="edge55" class="edge">
<title>node_154&#45;&gt;node_150</title>
<path fill="none" stroke="#000000" stroke-dasharray="1,5" d="M3160.0456,-447.8314C3133.638,-438.0306 3100.8744,-425.8709 3073.1714,-415.5894"/>
<polygon fill="#000000" stroke="#000000" points="3074.1953,-412.2362 3063.6024,-412.038 3071.7597,-418.7988 3074.1953,-412.2362"/>
</g>
<!-- node_155 -->
<g id="node39" class="node">
<title>node_155</title>
<polygon fill="none" stroke="#000000" points="1174.3165,-484 987.6835,-484 987.6835,-448 1174.3165,-448 1174.3165,-484"/>
<text text-anchor="middle" x="1081" y="-461.8" font-family="Times,serif" font-size="14.00" fill="#000000">transmit evalOptions1&#45;&gt;Client</text>
</g>
<!-- node_155&#45;&gt;node_145 -->
<g id="edge54" class="edge">
<title>node_155&#45;&gt;node_145</title>
<path fill="none" stroke="#000000" stroke-dasharray="1,5" d="M1174.3171,-449.0606C1177.2416,-448.6807 1180.1414,-448.3256 1183,-448 1484.8339,-413.6247 1567.3881,-455.5633 1871.7651,-412.0169"/>
<polygon fill="#000000" stroke="#000000" points="1872.3654,-415.4666 1881.7597,-410.5679 1871.3609,-408.539 1872.3654,-415.4666"/>
</g>
<!-- node_156 -->
<g id="node40" class="node">
<title>node_156</title>
<polygon fill="none" stroke="#000000" points="1402.127,-484 1191.873,-484 1191.873,-448 1402.127,-448 1402.127,-484"/>
<text text-anchor="middle" x="1297" y="-461.8" font-family="Times,serif" font-size="14.00" fill="#000000">transmit searcherOptions1&#45;&gt;Client</text>
</g>
<!-- node_156&#45;&gt;node_143 -->
<g id="edge51" class="edge">
<title>node_156&#45;&gt;node_143</title>
<path fill="none" stroke="#000000" stroke-dasharray="1,5" d="M1402.2326,-449.0011C1405.1845,-448.6474 1408.1115,-448.3125 1411,-448 1677.7111,-419.1434 1750.0445,-447.2137 2020.0994,-411.9939"/>
<polygon fill="#000000" stroke="#000000" points="2020.7473,-415.4388 2030.2026,-410.6589 2019.8303,-408.4991 2020.7473,-415.4388"/>
</g>
<!-- node_157 -->
<g id="node41" class="node">
<title>node_157</title>
<polygon fill="none" stroke="#000000" points="1585.7892,-484 1420.2108,-484 1420.2108,-448 1585.7892,-448 1585.7892,-484"/>
<text text-anchor="middle" x="1503" y="-461.8" font-family="Times,serif" font-size="14.00" fill="#000000">transmit searcher1&#45;&gt;Client</text>
</g>
<!-- node_157&#45;&gt;node_139 -->
<g id="edge49" class="edge">
<title>node_157&#45;&gt;node_139</title>
<path fill="none" stroke="#000000" stroke-dasharray="1,5" d="M1586.1642,-449.2141C1589.1417,-448.7771 1592.094,-448.3701 1595,-448 1855.7725,-414.7902 1928.6995,-455.7738 2191.3072,-412.0767"/>
<polygon fill="#000000" stroke="#000000" points="2192.2554,-415.4662 2201.5323,-410.3487 2191.0889,-408.564 2192.2554,-415.4662"/>
</g>
<!-- node_158 -->
<g id="node42" class="node">
<title>node_158</title>
<polygon fill="none" stroke="#000000" points="1746.4793,-484 1603.5207,-484 1603.5207,-448 1746.4793,-448 1746.4793,-484"/>
<text text-anchor="middle" x="1675" y="-461.8" font-family="Times,serif" font-size="14.00" fill="#000000">transmit eval1&#45;&gt;Client</text>
</g>
<!-- node_158&#45;&gt;node_138 -->
<g id="edge48" class="edge">
<title>node_158&#45;&gt;node_138</title>
<path fill="none" stroke="#000000" stroke-dasharray="1,5" d="M1746.4002,-448.566C1747.6076,-448.3683 1748.8083,-448.1793 1750,-448 1997.2697,-410.7895 2068.6901,-460.553 2318.3049,-411.7748"/>
<polygon fill="#000000" stroke="#000000" points="2319.2801,-415.1495 2328.4056,-409.7666 2317.915,-408.2839 2319.2801,-415.1495"/>
</g>
</g>
</svg>
