<?xml version="1.0" encoding="UTF-8" standalone="no"?>
<!DOCTYPE svg PUBLIC "-//W3C//DTD SVG 1.1//EN"
 "http://www.w3.org/Graphics/SVG/1.1/DTD/svg11.dtd">
<!-- Generated by graphviz version 2.40.1 (20161225.0304)
 -->
<!-- Title: %3 Pages: 1 -->
<svg width="1717pt" height="724pt"
 viewBox="0.00 0.00 1716.62 724.00" xmlns="http://www.w3.org/2000/svg" xmlns:xlink="http://www.w3.org/1999/xlink">
<g id="graph0" class="graph" transform="scale(1 1) rotate(0) translate(4 720)">
<title>%3</title>
<polygon fill="#ffffff" stroke="transparent" points="-4,4 -4,-720 1712.6158,-720 1712.6158,4 -4,4"/>
<g id="clust1" class="cluster">
<title>cluster_392735017</title>
<polygon fill="none" stroke="#000000" points="393.6158,-368 393.6158,-564 1104.6158,-564 1104.6158,-368 393.6158,-368"/>
</g>
<g id="clust2" class="cluster">
<title>cluster_438567943</title>
<polygon fill="none" stroke="#000000" points="912.6158,-8 912.6158,-348 1312.6158,-348 1312.6158,-8 912.6158,-8"/>
</g>
<g id="clust3" class="cluster">
<title>cluster_1461733046</title>
<polygon fill="none" stroke="#000000" points="1320.6158,-296 1320.6158,-708 1700.6158,-708 1700.6158,-296 1320.6158,-296"/>
</g>
<!-- node_177 -->
<g id="node1" class="node">
<title>node_177</title>
<polygon fill="none" stroke="#000000" points="779.3914,-412 599.8403,-412 599.8403,-376 779.3914,-376 779.3914,-412"/>
<text text-anchor="middle" x="689.6158" y="-389.8" font-family="Times,serif" font-size="14.00" fill="#000000">transmit service2&#45;&gt;executor2</text>
</g>
<!-- node_165 -->
<g id="node17" class="node">
<title>node_165</title>
<polygon fill="none" stroke="#000000" points="1168.5026,-340 1066.729,-340 1066.729,-304 1168.5026,-304 1168.5026,-340"/>
<text text-anchor="middle" x="1117.6158" y="-317.8" font-family="Times,serif" font-size="14.00" fill="#000000">accept service2</text>
</g>
<!-- node_177&#45;&gt;node_165 -->
<g id="edge31" class="edge">
<title>node_177&#45;&gt;node_165</title>
<path fill="none" stroke="#000000" stroke-dasharray="1,5" d="M751.2921,-375.9484C763.5702,-372.8812 776.4342,-370.0349 788.6158,-368 906.8629,-348.2471 941.211,-376.6788 1057.6158,-348 1062.2627,-346.8551 1067.0062,-345.3823 1071.6885,-343.7205"/>
<polygon fill="#000000" stroke="#000000" points="1073.0782,-346.9362 1081.1629,-340.0887 1070.5726,-340.4 1073.0782,-346.9362"/>
</g>
<!-- node_178 -->
<g id="node2" class="node">
<title>node_178</title>
<polygon fill="none" stroke="#000000" points="720.1539,-556 643.0777,-556 643.0777,-520 720.1539,-520 720.1539,-556"/>
<text text-anchor="middle" x="681.6158" y="-533.8" font-family="Times,serif" font-size="14.00" fill="#000000">send graph</text>
</g>
<!-- node_179 -->
<g id="node3" class="node">
<title>node_179</title>
<polygon fill="none" stroke="#000000" points="503.5026,-484 401.729,-484 401.729,-448 503.5026,-448 503.5026,-484"/>
<text text-anchor="middle" x="452.6158" y="-461.8" font-family="Times,serif" font-size="14.00" fill="#000000">accept service1</text>
</g>
<!-- node_178&#45;&gt;node_179 -->
<g id="edge1" class="edge">
<title>node_178&#45;&gt;node_179</title>
<path fill="none" stroke="#000000" d="M643.028,-525.8676C607.626,-514.7368 554.6025,-498.0657 513.4921,-485.1401"/>
<polygon fill="#000000" stroke="#000000" points="514.4391,-481.769 503.8497,-482.1085 512.3395,-488.4468 514.4391,-481.769"/>
</g>
<!-- node_182 -->
<g id="node6" class="node">
<title>node_182</title>
<polygon fill="none" stroke="#000000" points="1012.672,-484 836.5596,-484 836.5596,-448 1012.672,-448 1012.672,-484"/>
<text text-anchor="middle" x="924.6158" y="-461.8" font-family="Times,serif" font-size="14.00" fill="#000000">accept &amp;finished&amp;executor1</text>
</g>
<!-- node_178&#45;&gt;node_182 -->
<g id="edge3" class="edge">
<title>node_178&#45;&gt;node_182</title>
<path fill="none" stroke="#000000" d="M720.238,-522.8681C723.0621,-521.8664 725.8763,-520.8996 728.6158,-520 765.7047,-507.8204 807.3306,-496.0855 842.6504,-486.6844"/>
<polygon fill="#000000" stroke="#000000" points="843.6635,-490.0368 852.4362,-484.0962 841.8736,-483.2695 843.6635,-490.0368"/>
</g>
<!-- node_183 -->
<g id="node7" class="node">
<title>node_183</title>
<polygon fill="none" stroke="#000000" points="1096.7507,-484 1030.4809,-484 1030.4809,-448 1096.7507,-448 1096.7507,-484"/>
<text text-anchor="middle" x="1063.6158" y="-461.8" font-family="Times,serif" font-size="14.00" fill="#000000">accept i1</text>
</g>
<!-- node_178&#45;&gt;node_183 -->
<g id="edge4" class="edge">
<title>node_178&#45;&gt;node_183</title>
<path fill="none" stroke="#000000" d="M720.3643,-522.325C723.1333,-521.4634 725.9026,-520.6755 728.6158,-520 852.8227,-489.0773 892.9877,-516.7599 1020.6943,-483.8089"/>
<polygon fill="#000000" stroke="#000000" points="1021.6818,-487.168 1030.449,-481.2193 1019.8857,-480.4024 1021.6818,-487.168"/>
</g>
<!-- node_184 -->
<g id="node8" class="node">
<title>node_184</title>
<polygon fill="none" stroke="#000000" points="817.672,-484 641.5596,-484 641.5596,-448 817.672,-448 817.672,-484"/>
<text text-anchor="middle" x="729.6158" y="-461.8" font-family="Times,serif" font-size="14.00" fill="#000000">accept &amp;finished&amp;executor2</text>
</g>
<!-- node_178&#45;&gt;node_184 -->
<g id="edge5" class="edge">
<title>node_178&#45;&gt;node_184</title>
<path fill="none" stroke="#000000" d="M693.7282,-519.8314C699.1439,-511.7079 705.64,-501.9637 711.608,-493.0118"/>
<polygon fill="#000000" stroke="#000000" points="714.7054,-494.6753 717.3403,-484.4133 708.8811,-490.7923 714.7054,-494.6753"/>
</g>
<!-- node_185 -->
<g id="node9" class="node">
<title>node_185</title>
<polygon fill="none" stroke="#000000" points="623.5026,-484 521.729,-484 521.729,-448 623.5026,-448 623.5026,-484"/>
<text text-anchor="middle" x="572.6158" y="-461.8" font-family="Times,serif" font-size="14.00" fill="#000000">accept service2</text>
</g>
<!-- node_178&#45;&gt;node_185 -->
<g id="edge6" class="edge">
<title>node_178&#45;&gt;node_185</title>
<path fill="none" stroke="#000000" d="M654.1105,-519.8314C640.2978,-510.7074 623.3902,-499.539 608.5629,-489.7449"/>
<polygon fill="#000000" stroke="#000000" points="610.3854,-486.7541 600.1123,-484.1628 606.5272,-492.5949 610.3854,-486.7541"/>
</g>
<!-- node_181 -->
<g id="node5" class="node">
<title>node_181</title>
<polygon fill="none" stroke="#000000" points="581.3914,-412 401.8403,-412 401.8403,-376 581.3914,-376 581.3914,-412"/>
<text text-anchor="middle" x="491.6158" y="-389.8" font-family="Times,serif" font-size="14.00" fill="#000000">transmit service1&#45;&gt;executor1</text>
</g>
<!-- node_179&#45;&gt;node_181 -->
<g id="edge2" class="edge">
<title>node_179&#45;&gt;node_181</title>
<path fill="none" stroke="#000000" d="M462.4572,-447.8314C466.8116,-439.7925 472.0256,-430.1666 476.8328,-421.2918"/>
<polygon fill="#000000" stroke="#000000" points="479.9566,-422.8732 481.642,-412.4133 473.8016,-419.5392 479.9566,-422.8732"/>
</g>
<!-- node_180 -->
<g id="node4" class="node">
<title>node_180</title>
<polygon fill="none" stroke="#000000" points="941.6393,-412 797.5924,-412 797.5924,-376 941.6393,-376 941.6393,-412"/>
<text text-anchor="middle" x="869.6158" y="-389.8" font-family="Times,serif" font-size="14.00" fill="#000000">transmit i1&#45;&gt;executor1</text>
</g>
<!-- node_173 -->
<g id="node27" class="node">
<title>node_173</title>
<polygon fill="none" stroke="#000000" points="1410.7507,-700 1344.4809,-700 1344.4809,-664 1410.7507,-664 1410.7507,-700"/>
<text text-anchor="middle" x="1377.6158" y="-677.8" font-family="Times,serif" font-size="14.00" fill="#000000">accept i1</text>
</g>
<!-- node_180&#45;&gt;node_173 -->
<g id="edge36" class="edge">
<title>node_180&#45;&gt;node_173</title>
<path fill="none" stroke="#000000" stroke-dasharray="1,5" d="M797.2796,-410.556C794.3588,-411.0718 791.4625,-411.5562 788.6158,-412 622.892,-437.8379 172.9081,-415.6241 41.6158,-520 30.8279,-528.5762 -19.3172,-598.9435 8.6158,-628 32.1563,-652.4874 1104.2401,-676.2804 1334.3968,-681.1115"/>
<polygon fill="#000000" stroke="#000000" points="1334.3344,-684.6109 1344.4054,-681.3207 1334.4808,-677.6124 1334.3344,-684.6109"/>
</g>
<!-- node_172 -->
<g id="node26" class="node">
<title>node_172</title>
<polygon fill="none" stroke="#000000" points="1538.5026,-700 1436.729,-700 1436.729,-664 1538.5026,-664 1538.5026,-700"/>
<text text-anchor="middle" x="1487.6158" y="-677.8" font-family="Times,serif" font-size="14.00" fill="#000000">accept service1</text>
</g>
<!-- node_181&#45;&gt;node_172 -->
<g id="edge35" class="edge">
<title>node_181&#45;&gt;node_172</title>
<path fill="none" stroke="#000000" stroke-dasharray="1,5" d="M401.7678,-398.4825C241.3434,-409.5241 -67.7995,-446.3568 41.6158,-564 146.1643,-676.4104 1268.2024,-638.6932 1419.6158,-664 1421.9533,-664.3907 1424.3272,-664.8256 1426.7185,-665.2957"/>
<polygon fill="#000000" stroke="#000000" points="1426.0885,-668.74 1436.5988,-667.4041 1427.5494,-661.8941 1426.0885,-668.74"/>
</g>
<!-- node_183&#45;&gt;node_180 -->
<g id="edge10" class="edge">
<title>node_183&#45;&gt;node_180</title>
<path fill="none" stroke="#000000" d="M1030.2242,-451.4627C1027.3222,-450.2682 1024.423,-449.0989 1021.6158,-448 992.5732,-436.6309 960.0328,-424.9339 932.5345,-415.346"/>
<polygon fill="#000000" stroke="#000000" points="933.627,-412.0204 923.0322,-412.0466 931.3309,-418.6332 933.627,-412.0204"/>
</g>
<!-- node_185&#45;&gt;node_177 -->
<g id="edge7" class="edge">
<title>node_185&#45;&gt;node_177</title>
<path fill="none" stroke="#000000" d="M602.1399,-447.8314C617.1049,-438.6221 635.4544,-427.3301 651.4761,-417.4706"/>
<polygon fill="#000000" stroke="#000000" points="653.419,-420.3847 660.1012,-412.1628 649.7503,-414.423 653.419,-420.3847"/>
</g>
<!-- node_186 -->
<g id="node10" class="node">
<title>node_186</title>
<polygon fill="none" stroke="#000000" points="815.1539,-556 738.0777,-556 738.0777,-520 815.1539,-520 815.1539,-556"/>
<text text-anchor="middle" x="776.6158" y="-533.8" font-family="Times,serif" font-size="14.00" fill="#000000">send graph</text>
</g>
<!-- node_186&#45;&gt;node_179 -->
<g id="edge8" class="edge">
<title>node_186&#45;&gt;node_179</title>
<path fill="none" stroke="#000000" d="M738.0921,-522.5398C735.2448,-521.6152 732.3985,-520.7554 729.6158,-520 638.3083,-495.2134 609.6866,-505.375 513.4087,-484.0059"/>
<polygon fill="#000000" stroke="#000000" points="514.0882,-480.5711 503.5607,-481.7637 512.5342,-487.3964 514.0882,-480.5711"/>
</g>
<!-- node_186&#45;&gt;node_182 -->
<g id="edge9" class="edge">
<title>node_186&#45;&gt;node_182</title>
<path fill="none" stroke="#000000" d="M813.9625,-519.8314C833.4927,-510.3302 857.5799,-498.6121 878.289,-488.5374"/>
<polygon fill="#000000" stroke="#000000" points="880.0765,-491.56 887.5377,-484.038 877.0142,-485.2654 880.0765,-491.56"/>
</g>
<!-- node_186&#45;&gt;node_183 -->
<g id="edge11" class="edge">
<title>node_186&#45;&gt;node_183</title>
<path fill="none" stroke="#000000" d="M815.4022,-531.7763C862.2107,-523.7599 943.2935,-508.2587 1020.4815,-484.0726"/>
<polygon fill="#000000" stroke="#000000" points="1021.8974,-487.2948 1030.361,-480.9216 1019.7703,-480.6258 1021.8974,-487.2948"/>
</g>
<!-- node_186&#45;&gt;node_184 -->
<g id="edge12" class="edge">
<title>node_186&#45;&gt;node_184</title>
<path fill="none" stroke="#000000" d="M764.7557,-519.8314C759.4529,-511.7079 753.0921,-501.9637 747.2485,-493.0118"/>
<polygon fill="#000000" stroke="#000000" points="750.0327,-490.8739 741.6356,-484.4133 744.171,-494.7003 750.0327,-490.8739"/>
</g>
<!-- node_186&#45;&gt;node_185 -->
<g id="edge13" class="edge">
<title>node_186&#45;&gt;node_185</title>
<path fill="none" stroke="#000000" d="M737.9267,-523.0617C735.1183,-522.0146 732.3259,-520.9847 729.6158,-520 697.974,-508.5032 662.5246,-496.2567 633.3282,-486.3377"/>
<polygon fill="#000000" stroke="#000000" points="634.2754,-482.9632 623.6811,-483.0675 632.0281,-489.5927 634.2754,-482.9632"/>
</g>
<!-- node_187 -->
<g id="node11" class="node">
<title>node_187</title>
<polygon fill="none" stroke="#000000" points="538.6158,-556 493.8886,-538 538.6158,-520 583.3431,-538 538.6158,-556"/>
<text text-anchor="middle" x="538.6158" y="-533.8" font-family="Times,serif" font-size="14.00" fill="#000000">Client</text>
</g>
<!-- node_160 -->
<g id="node12" class="node">
<title>node_160</title>
<polygon fill="none" stroke="#000000" points="1010.8613,-268 920.3704,-268 920.3704,-232 1010.8613,-232 1010.8613,-268"/>
<text text-anchor="middle" x="965.6158" y="-245.8" font-family="Times,serif" font-size="14.00" fill="#000000">load service2</text>
</g>
<!-- node_162 -->
<g id="node14" class="node">
<title>node_162</title>
<polygon fill="none" stroke="#000000" points="1096.1578,-196 951.0738,-196 951.0738,-160 1096.1578,-160 1096.1578,-196"/>
<text text-anchor="middle" x="1023.6158" y="-173.8" font-family="Times,serif" font-size="14.00" fill="#000000">service2::train([data1])</text>
</g>
<!-- node_160&#45;&gt;node_162 -->
<g id="edge14" class="edge">
<title>node_160&#45;&gt;node_162</title>
<path fill="none" stroke="#000000" d="M980.2517,-231.8314C986.9319,-223.5386 994.9727,-213.557 1002.3062,-204.4533"/>
<polygon fill="#000000" stroke="#000000" points="1005.2352,-206.3965 1008.7829,-196.4133 999.7839,-202.0052 1005.2352,-206.3965"/>
</g>
<!-- node_161 -->
<g id="node13" class="node">
<title>node_161</title>
<polygon fill="none" stroke="#000000" points="1288.1794,-340 1203.0522,-340 1203.0522,-304 1288.1794,-304 1288.1794,-340"/>
<text text-anchor="middle" x="1245.6158" y="-317.8" font-family="Times,serif" font-size="14.00" fill="#000000">accept data1</text>
</g>
<!-- node_164 -->
<g id="node16" class="node">
<title>node_164</title>
<polygon fill="none" stroke="#000000" points="1304.3894,-268 1028.8422,-268 1028.8422,-232 1304.3894,-232 1304.3894,-268"/>
<text text-anchor="middle" x="1166.6158" y="-245.8" font-family="Times,serif" font-size="14.00" fill="#000000">cast data1 from dataset to weka.core.Instances</text>
</g>
<!-- node_161&#45;&gt;node_164 -->
<g id="edge15" class="edge">
<title>node_161&#45;&gt;node_164</title>
<path fill="none" stroke="#000000" d="M1225.6808,-303.8314C1216.1376,-295.1337 1204.5559,-284.5783 1194.1852,-275.1265"/>
<polygon fill="#000000" stroke="#000000" points="1196.2931,-272.3121 1186.5445,-268.1628 1191.5778,-277.4857 1196.2931,-272.3121"/>
</g>
<!-- node_159 -->
<g id="node19" class="node">
<title>node_159</title>
<polygon fill="none" stroke="#000000" points="1070.472,-124 976.7597,-124 976.7597,-88 1070.472,-88 1070.472,-124"/>
<text text-anchor="middle" x="1023.6158" y="-101.8" font-family="Times,serif" font-size="14.00" fill="#000000">store service2</text>
</g>
<!-- node_162&#45;&gt;node_159 -->
<g id="edge18" class="edge">
<title>node_162&#45;&gt;node_159</title>
<path fill="none" stroke="#000000" d="M1023.6158,-159.8314C1023.6158,-152.131 1023.6158,-142.9743 1023.6158,-134.4166"/>
<polygon fill="#000000" stroke="#000000" points="1027.1159,-134.4132 1023.6158,-124.4133 1020.1159,-134.4133 1027.1159,-134.4132"/>
</g>
<!-- node_163 -->
<g id="node15" class="node">
<title>node_163</title>
<polygon fill="none" stroke="#000000" points="1126.7643,-52 920.4673,-52 920.4673,-16 1126.7643,-16 1126.7643,-52"/>
<text text-anchor="middle" x="1023.6158" y="-29.8" font-family="Times,serif" font-size="14.00" fill="#000000">FinishNode &amp;finished&amp;executor2</text>
</g>
<!-- node_163&#45;&gt;node_184 -->
<g id="edge32" class="edge">
<title>node_163&#45;&gt;node_184</title>
<path fill="none" stroke="#000000" stroke-dasharray="1,5" d="M989.5391,-52.1752C950.7244,-75.6338 892.6158,-120.3759 892.6158,-178 892.6158,-250 892.6158,-250 892.6158,-250 892.6158,-294.3666 884.9702,-312.526 911.6158,-348 923.3149,-363.5753 940.4594,-351.3776 950.6158,-368 960.8118,-384.6872 962.6916,-396.6183 950.6158,-412 942.491,-422.3491 882.9495,-436.5547 827.7179,-447.7982"/>
<polygon fill="#000000" stroke="#000000" points="826.9402,-444.3845 817.828,-449.79 828.3222,-451.2467 826.9402,-444.3845"/>
</g>
<!-- node_164&#45;&gt;node_162 -->
<g id="edge19" class="edge">
<title>node_164&#45;&gt;node_162</title>
<path fill="none" stroke="#000000" d="M1130.5309,-231.8314C1111.8169,-222.4089 1088.7726,-210.8062 1068.8759,-200.7883"/>
<polygon fill="#000000" stroke="#000000" points="1070.195,-197.5339 1059.6892,-196.1628 1067.047,-203.7861 1070.195,-197.5339"/>
</g>
<!-- node_165&#45;&gt;node_160 -->
<g id="edge17" class="edge">
<title>node_165&#45;&gt;node_160</title>
<path fill="none" stroke="#000000" d="M1079.2598,-303.8314C1059.1114,-294.2874 1034.2406,-282.5065 1012.9076,-272.4013"/>
<polygon fill="#000000" stroke="#000000" points="1014.2317,-269.1558 1003.696,-268.038 1011.2351,-275.482 1014.2317,-269.1558"/>
</g>
<!-- node_166 -->
<g id="node18" class="node">
<title>node_166</title>
<polygon fill="none" stroke="#000000" points="984.6158,-340 920.9181,-322 984.6158,-304 1048.3136,-322 984.6158,-340"/>
<text text-anchor="middle" x="984.6158" y="-317.8" font-family="Times,serif" font-size="14.00" fill="#000000">executor2</text>
</g>
<!-- node_159&#45;&gt;node_163 -->
<g id="edge16" class="edge">
<title>node_159&#45;&gt;node_163</title>
<path fill="none" stroke="#000000" d="M1023.6158,-87.8314C1023.6158,-80.131 1023.6158,-70.9743 1023.6158,-62.4166"/>
<polygon fill="#000000" stroke="#000000" points="1027.1159,-62.4132 1023.6158,-52.4133 1020.1159,-62.4133 1027.1159,-62.4132"/>
</g>
<!-- node_176 -->
<g id="node20" class="node">
<title>node_176</title>
<polygon fill="none" stroke="#000000" points="1624.6158,-700 1560.9181,-682 1624.6158,-664 1688.3136,-682 1624.6158,-700"/>
<text text-anchor="middle" x="1624.6158" y="-677.8" font-family="Times,serif" font-size="14.00" fill="#000000">executor1</text>
</g>
<!-- node_167 -->
<g id="node21" class="node">
<title>node_167</title>
<polygon fill="none" stroke="#000000" points="1584.4616,-628 1328.7701,-628 1328.7701,-592 1584.4616,-592 1584.4616,-628"/>
<text text-anchor="middle" x="1456.6158" y="-605.8" font-family="Times,serif" font-size="14.00" fill="#000000">cast i1 from dataset to weka.core.Instances</text>
</g>
<!-- node_168 -->
<g id="node22" class="node">
<title>node_168</title>
<polygon fill="none" stroke="#000000" points="1601.2307,-556 1476.001,-556 1476.001,-520 1601.2307,-520 1601.2307,-556"/>
<text text-anchor="middle" x="1538.6158" y="-533.8" font-family="Times,serif" font-size="14.00" fill="#000000">service1::train([i1])</text>
</g>
<!-- node_167&#45;&gt;node_168 -->
<g id="edge20" class="edge">
<title>node_167&#45;&gt;node_168</title>
<path fill="none" stroke="#000000" d="M1477.3079,-591.8314C1487.3106,-583.0485 1499.4709,-572.3712 1510.3157,-562.8489"/>
<polygon fill="#000000" stroke="#000000" points="1512.7253,-565.3909 1517.9304,-556.1628 1508.1066,-560.1308 1512.7253,-565.3909"/>
</g>
<!-- node_170 -->
<g id="node24" class="node">
<title>node_170</title>
<polygon fill="none" stroke="#000000" points="1600.15,-484 1395.0816,-484 1395.0816,-448 1600.15,-448 1600.15,-484"/>
<text text-anchor="middle" x="1497.6158" y="-461.8" font-family="Times,serif" font-size="14.00" fill="#000000">data1 = service1::preprocess([i1])</text>
</g>
<!-- node_167&#45;&gt;node_170 -->
<g id="edge23" class="edge">
<title>node_167&#45;&gt;node_170</title>
<path fill="none" stroke="#000000" d="M1456.4765,-591.9562C1456.8245,-573.4531 1458.7524,-544.0586 1466.6158,-520 1469.674,-510.6432 1474.479,-501.1104 1479.4011,-492.7107"/>
<polygon fill="#000000" stroke="#000000" points="1482.4397,-494.4513 1484.711,-484.1028 1476.482,-490.7762 1482.4397,-494.4513"/>
</g>
<!-- node_168&#45;&gt;node_170 -->
<g id="edge22" class="edge">
<title>node_168&#45;&gt;node_170</title>
<path fill="none" stroke="#000000" d="M1528.2698,-519.8314C1523.6921,-511.7925 1518.2107,-502.1666 1513.157,-493.2918"/>
<polygon fill="#000000" stroke="#000000" points="1516.091,-491.3712 1508.1012,-484.4133 1510.0081,-494.8351 1516.091,-491.3712"/>
</g>
<!-- node_169 -->
<g id="node23" class="node">
<title>node_169</title>
<polygon fill="none" stroke="#000000" points="1603.472,-412 1509.7597,-412 1509.7597,-376 1603.472,-376 1603.472,-412"/>
<text text-anchor="middle" x="1556.6158" y="-389.8" font-family="Times,serif" font-size="14.00" fill="#000000">store service1</text>
</g>
<!-- node_175 -->
<g id="node29" class="node">
<title>node_175</title>
<polygon fill="none" stroke="#000000" points="1534.7643,-340 1328.4673,-340 1328.4673,-304 1534.7643,-304 1534.7643,-340"/>
<text text-anchor="middle" x="1431.6158" y="-317.8" font-family="Times,serif" font-size="14.00" fill="#000000">FinishNode &amp;finished&amp;executor1</text>
</g>
<!-- node_169&#45;&gt;node_175 -->
<g id="edge25" class="edge">
<title>node_169&#45;&gt;node_175</title>
<path fill="none" stroke="#000000" d="M1525.073,-375.8314C1508.9367,-366.5368 1489.1172,-355.1208 1471.8886,-345.1971"/>
<polygon fill="#000000" stroke="#000000" points="1473.5608,-342.1212 1463.1485,-340.1628 1470.0669,-348.187 1473.5608,-342.1212"/>
</g>
<!-- node_170&#45;&gt;node_169 -->
<g id="edge28" class="edge">
<title>node_170&#45;&gt;node_169</title>
<path fill="none" stroke="#000000" d="M1512.504,-447.8314C1519.3688,-439.454 1527.6459,-429.3531 1535.1669,-420.1749"/>
<polygon fill="#000000" stroke="#000000" points="1537.8961,-422.3665 1541.5272,-412.4133 1532.4817,-417.9297 1537.8961,-422.3665"/>
</g>
<!-- node_174 -->
<g id="node28" class="node">
<title>node_174</title>
<polygon fill="none" stroke="#000000" points="1492.5676,-412 1328.664,-412 1328.664,-376 1492.5676,-376 1492.5676,-412"/>
<text text-anchor="middle" x="1410.6158" y="-389.8" font-family="Times,serif" font-size="14.00" fill="#000000">transmit data1&#45;&gt;executor2</text>
</g>
<!-- node_170&#45;&gt;node_174 -->
<g id="edge24" class="edge">
<title>node_170&#45;&gt;node_174</title>
<path fill="none" stroke="#000000" d="M1475.662,-447.8314C1464.9464,-438.9632 1451.8969,-428.1637 1440.3068,-418.5718"/>
<polygon fill="#000000" stroke="#000000" points="1442.498,-415.8422 1432.5626,-412.1628 1438.035,-421.2349 1442.498,-415.8422"/>
</g>
<!-- node_171 -->
<g id="node25" class="node">
<title>node_171</title>
<polygon fill="none" stroke="#000000" points="1692.8613,-628 1602.3704,-628 1602.3704,-592 1692.8613,-592 1692.8613,-628"/>
<text text-anchor="middle" x="1647.6158" y="-605.8" font-family="Times,serif" font-size="14.00" fill="#000000">load service1</text>
</g>
<!-- node_171&#45;&gt;node_168 -->
<g id="edge27" class="edge">
<title>node_171&#45;&gt;node_168</title>
<path fill="none" stroke="#000000" d="M1620.1105,-591.8314C1606.2978,-582.7074 1589.3902,-571.539 1574.5629,-561.7449"/>
<polygon fill="#000000" stroke="#000000" points="1576.3854,-558.7541 1566.1123,-556.1628 1572.5272,-564.5949 1576.3854,-558.7541"/>
</g>
<!-- node_172&#45;&gt;node_171 -->
<g id="edge29" class="edge">
<title>node_172&#45;&gt;node_171</title>
<path fill="none" stroke="#000000" d="M1527.9906,-663.8314C1549.2945,-654.2446 1575.6141,-642.4008 1598.1369,-632.2655"/>
<polygon fill="#000000" stroke="#000000" points="1599.8485,-635.3334 1607.5314,-628.038 1596.9759,-628.95 1599.8485,-635.3334"/>
</g>
<!-- node_173&#45;&gt;node_167 -->
<g id="edge26" class="edge">
<title>node_173&#45;&gt;node_167</title>
<path fill="none" stroke="#000000" d="M1397.5509,-663.8314C1407.0941,-655.1337 1418.6757,-644.5783 1429.0464,-635.1265"/>
<polygon fill="#000000" stroke="#000000" points="1431.6538,-637.4857 1436.6872,-628.1628 1426.9386,-632.3121 1431.6538,-637.4857"/>
</g>
<!-- node_174&#45;&gt;node_161 -->
<g id="edge30" class="edge">
<title>node_174&#45;&gt;node_161</title>
<path fill="none" stroke="#000000" stroke-dasharray="1,5" d="M1368.9794,-375.8314C1346.9116,-366.2018 1319.6251,-354.295 1296.3301,-344.1299"/>
<polygon fill="#000000" stroke="#000000" points="1297.5181,-340.8296 1286.9529,-340.038 1294.7185,-347.2454 1297.5181,-340.8296"/>
</g>
<!-- node_174&#45;&gt;node_175 -->
<g id="edge21" class="edge">
<title>node_174&#45;&gt;node_175</title>
<path fill="none" stroke="#000000" d="M1415.915,-375.8314C1418.1856,-368.0463 1420.8904,-358.7729 1423.4099,-350.1347"/>
<polygon fill="#000000" stroke="#000000" points="1426.8052,-350.9933 1426.2453,-340.4133 1420.0852,-349.0332 1426.8052,-350.9933"/>
</g>
<!-- node_175&#45;&gt;node_182 -->
<g id="edge34" class="edge">
<title>node_175&#45;&gt;node_182</title>
<path fill="none" stroke="#000000" stroke-dasharray="1,5" d="M1368.1051,-340.0385C1273.8232,-366.8168 1097.2871,-416.9573 997.7409,-445.2308"/>
<polygon fill="#000000" stroke="#000000" points="996.7215,-441.8818 988.0583,-447.9808 998.6341,-448.6154 996.7215,-441.8818"/>
</g>
<!-- node_188 -->
<g id="node30" class="node">
<title>node_188</title>
<polygon fill="none" stroke="#000000" points="1236.1666,-556 1113.065,-556 1113.065,-520 1236.1666,-520 1236.1666,-556"/>
<text text-anchor="middle" x="1174.6158" y="-533.8" font-family="Times,serif" font-size="14.00" fill="#000000">transmit i1&#45;&gt;Client</text>
</g>
<!-- node_188&#45;&gt;node_183 -->
<g id="edge37" class="edge">
<title>node_188&#45;&gt;node_183</title>
<path fill="none" stroke="#000000" stroke-dasharray="1,5" d="M1146.6058,-519.8314C1132.5397,-510.7074 1115.3218,-499.539 1100.2225,-489.7449"/>
<polygon fill="#000000" stroke="#000000" points="1101.9112,-486.6684 1091.6168,-484.1628 1098.1018,-492.5412 1101.9112,-486.6684"/>
</g>
<!-- node_189 -->
<g id="node31" class="node">
<title>node_189</title>
<polygon fill="none" stroke="#000000" points="208.9187,-556 50.313,-556 50.313,-520 208.9187,-520 208.9187,-556"/>
<text text-anchor="middle" x="129.6158" y="-533.8" font-family="Times,serif" font-size="14.00" fill="#000000">transmit service1&#45;&gt;Client</text>
</g>
<!-- node_189&#45;&gt;node_179 -->
<g id="edge33" class="edge">
<title>node_189&#45;&gt;node_179</title>
<path fill="none" stroke="#000000" stroke-dasharray="1,5" d="M209.0442,-520.2946C265.2568,-507.7642 339.5365,-491.2065 391.225,-479.6847"/>
<polygon fill="#000000" stroke="#000000" points="392.2504,-483.042 401.2494,-477.4501 390.7274,-476.2097 392.2504,-483.042"/>
</g>
<!-- node_190 -->
<g id="node32" class="node">
<title>node_190</title>
<polygon fill="none" stroke="#000000" points="385.9187,-556 227.313,-556 227.313,-520 385.9187,-520 385.9187,-556"/>
<text text-anchor="middle" x="306.6158" y="-533.8" font-family="Times,serif" font-size="14.00" fill="#000000">transmit service2&#45;&gt;Client</text>
</g>
<!-- node_190&#45;&gt;node_185 -->
<g id="edge38" class="edge">
<title>node_190&#45;&gt;node_185</title>
<path fill="none" stroke="#000000" stroke-dasharray="1,5" d="M377.8088,-519.9938C415.1579,-510.393 461.8837,-498.1414 511.882,-484.1646"/>
<polygon fill="#000000" stroke="#000000" points="512.9057,-487.5126 521.5882,-481.441 511.0145,-480.773 512.9057,-487.5126"/>
</g>
</g>
</svg>
