<?xml version="1.0" encoding="UTF-8" standalone="no"?>
<!DOCTYPE svg PUBLIC "-//W3C//DTD SVG 1.1//EN"
 "http://www.w3.org/Graphics/SVG/1.1/DTD/svg11.dtd">
<!-- Generated by graphviz version 2.40.1 (20161225.0304)
 -->
<!-- Title: %3 Pages: 1 -->
<svg width="3409pt" height="724pt"
 viewBox="0.00 0.00 3409.14 724.00" xmlns="http://www.w3.org/2000/svg" xmlns:xlink="http://www.w3.org/1999/xlink">
<g id="graph0" class="graph" transform="scale(1 1) rotate(0) translate(4 720)">
<title>%3</title>
<polygon fill="#ffffff" stroke="transparent" points="-4,4 -4,-720 3405.1441,-720 3405.1441,4 -4,4"/>
<g id="clust1" class="cluster">
<title>cluster_203036058</title>
<polygon fill="none" stroke="#000000" points="8,-368 8,-708 980,-708 980,-368 8,-368"/>
</g>
<g id="clust2" class="cluster">
<title>cluster_486325804</title>
<polygon fill="none" stroke="#000000" points="959,-8 959,-348 1787,-348 1787,-8 959,-8"/>
</g>
<g id="clust3" class="cluster">
<title>cluster_19468805</title>
<polygon fill="none" stroke="#000000" points="1795,-296 1795,-492 3139,-492 3139,-296 1795,-296"/>
</g>
<!-- node_0 -->
<g id="node1" class="node">
<title>node_0</title>
<polygon fill="none" stroke="#000000" points="664.126,-628 15.874,-628 15.874,-592 664.126,-592 664.126,-628"/>
<text text-anchor="middle" x="340" y="-605.8" font-family="Times,serif" font-size="14.00" fill="#000000">service2 = de.upb.sede.services.mls.WekaBClassifierWrapper::__construct([weka.classifiers.bayes.NaiveBayes])</text>
</g>
<!-- node_7 -->
<g id="node8" class="node">
<title>node_7</title>
<polygon fill="none" stroke="#000000" points="910.4522,-556 663.5478,-556 663.5478,-520 910.4522,-520 910.4522,-556"/>
<text text-anchor="middle" x="787" y="-533.8" font-family="Times,serif" font-size="14.00" fill="#000000">service2::set_options([classifierOptions])</text>
</g>
<!-- node_0&#45;&gt;node_7 -->
<g id="edge4" class="edge">
<title>node_0&#45;&gt;node_7</title>
<path fill="none" stroke="#000000" d="M451.9318,-591.9707C516.7463,-581.5308 598.397,-568.379 664.8691,-557.6721"/>
<polygon fill="#000000" stroke="#000000" points="665.6657,-561.089 674.9818,-556.0432 664.5524,-554.1781 665.6657,-561.089"/>
</g>
<!-- node_1 -->
<g id="node2" class="node">
<title>node_1</title>
<polygon fill="none" stroke="#000000" points="971.7657,-628 682.2343,-628 682.2343,-592 971.7657,-592 971.7657,-628"/>
<text text-anchor="middle" x="827" y="-605.8" font-family="Times,serif" font-size="14.00" fill="#000000">cast classifierOptions from jsonlist to builtin.List</text>
</g>
<!-- node_1&#45;&gt;node_7 -->
<g id="edge3" class="edge">
<title>node_1&#45;&gt;node_7</title>
<path fill="none" stroke="#000000" d="M816.9063,-591.8314C812.4403,-583.7925 807.0925,-574.1666 802.1621,-565.2918"/>
<polygon fill="#000000" stroke="#000000" points="805.1456,-563.4551 797.2296,-556.4133 799.0265,-566.8546 805.1456,-563.4551"/>
</g>
<!-- node_2 -->
<g id="node3" class="node">
<title>node_2</title>
<polygon fill="none" stroke="#000000" points="936.849,-700 787.151,-700 787.151,-664 936.849,-664 936.849,-700"/>
<text text-anchor="middle" x="862" y="-677.8" font-family="Times,serif" font-size="14.00" fill="#000000">accept classifierOptions</text>
</g>
<!-- node_2&#45;&gt;node_1 -->
<g id="edge8" class="edge">
<title>node_2&#45;&gt;node_1</title>
<path fill="none" stroke="#000000" d="M853.168,-663.8314C849.3014,-655.8771 844.6794,-646.369 840.4032,-637.5723"/>
<polygon fill="#000000" stroke="#000000" points="843.4707,-635.8768 835.9509,-628.4133 837.1751,-638.9371 843.4707,-635.8768"/>
</g>
<!-- node_3 -->
<g id="node4" class="node">
<title>node_3</title>
<polygon fill="none" stroke="#000000" points="482.9251,-700 197.0749,-700 197.0749,-664 482.9251,-664 482.9251,-700"/>
<text text-anchor="middle" x="340" y="-677.8" font-family="Times,serif" font-size="14.00" fill="#000000">parse String: weka.classifiers.bayes.NaiveBayes</text>
</g>
<!-- node_3&#45;&gt;node_0 -->
<g id="edge5" class="edge">
<title>node_3&#45;&gt;node_0</title>
<path fill="none" stroke="#000000" d="M340,-663.8314C340,-656.131 340,-646.9743 340,-638.4166"/>
<polygon fill="#000000" stroke="#000000" points="343.5001,-638.4132 340,-628.4133 336.5001,-638.4133 343.5001,-638.4132"/>
</g>
<!-- node_4 -->
<g id="node5" class="node">
<title>node_4</title>
<polygon fill="none" stroke="#000000" points="970.3029,-484 811.6971,-484 811.6971,-448 970.3029,-448 970.3029,-484"/>
<text text-anchor="middle" x="891" y="-461.8" font-family="Times,serif" font-size="14.00" fill="#000000">transmit service2&#45;&gt;Client</text>
</g>
<!-- node_6 -->
<g id="node7" class="node">
<title>node_6</title>
<polygon fill="none" stroke="#000000" points="972.1485,-412 765.8515,-412 765.8515,-376 972.1485,-376 972.1485,-412"/>
<text text-anchor="middle" x="869" y="-389.8" font-family="Times,serif" font-size="14.00" fill="#000000">FinishNode &amp;finished&amp;executor2</text>
</g>
<!-- node_4&#45;&gt;node_6 -->
<g id="edge2" class="edge">
<title>node_4&#45;&gt;node_6</title>
<path fill="none" stroke="#000000" d="M885.4485,-447.8314C883.0697,-440.0463 880.2362,-430.7729 877.5967,-422.1347"/>
<polygon fill="#000000" stroke="#000000" points="880.8958,-420.954 874.6263,-412.4133 874.2013,-422.9996 880.8958,-420.954"/>
</g>
<!-- node_27 -->
<g id="node38" class="node">
<title>node_27</title>
<polygon fill="none" stroke="#000000" points="1904.8868,-412 1803.1132,-412 1803.1132,-376 1904.8868,-376 1904.8868,-412"/>
<text text-anchor="middle" x="1854" y="-389.8" font-family="Times,serif" font-size="14.00" fill="#000000">accept service2</text>
</g>
<!-- node_4&#45;&gt;node_27 -->
<g id="edge53" class="edge">
<title>node_4&#45;&gt;node_27</title>
<path fill="none" stroke="#000000" stroke-dasharray="1,5" d="M970.5408,-449.2102C973.391,-448.7744 976.2174,-448.3686 979,-448 1282.594,-407.7841 1649.5055,-397.4266 1792.6436,-394.8354"/>
<polygon fill="#000000" stroke="#000000" points="1793.0275,-398.3293 1802.9648,-394.6551 1792.9051,-391.3303 1793.0275,-398.3293"/>
</g>
<!-- node_5 -->
<g id="node6" class="node">
<title>node_5</title>
<polygon fill="none" stroke="#000000" points="793.8561,-484 700.1439,-484 700.1439,-448 793.8561,-448 793.8561,-484"/>
<text text-anchor="middle" x="747" y="-461.8" font-family="Times,serif" font-size="14.00" fill="#000000">store service2</text>
</g>
<!-- node_5&#45;&gt;node_6 -->
<g id="edge1" class="edge">
<title>node_5&#45;&gt;node_6</title>
<path fill="none" stroke="#000000" d="M777.7858,-447.8314C793.3903,-438.6221 812.524,-427.3301 829.2303,-417.4706"/>
<polygon fill="#000000" stroke="#000000" points="831.3909,-420.2596 838.2241,-412.1628 827.8331,-414.2312 831.3909,-420.2596"/>
</g>
<!-- node_20 -->
<g id="node31" class="node">
<title>node_20</title>
<polygon fill="none" stroke="#000000" points="2885.0562,-412 2708.9438,-412 2708.9438,-376 2885.0562,-376 2885.0562,-412"/>
<text text-anchor="middle" x="2797" y="-389.8" font-family="Times,serif" font-size="14.00" fill="#000000">accept &amp;finished&amp;executor2</text>
</g>
<!-- node_6&#45;&gt;node_20 -->
<g id="edge45" class="edge">
<title>node_6&#45;&gt;node_20</title>
<path fill="none" stroke="#000000" stroke-dasharray="1,5" d="M972.2882,-399.2989C1144.0294,-407.8165 1499.1961,-424.1864 1800,-430 1997.7409,-433.8217 2494.8206,-461.9539 2690,-430 2708.0282,-427.0485 2727.1127,-421.474 2744.0945,-415.5778"/>
<polygon fill="#000000" stroke="#000000" points="2745.5956,-418.7578 2753.8263,-412.0864 2743.2317,-412.1689 2745.5956,-418.7578"/>
</g>
<!-- node_7&#45;&gt;node_4 -->
<g id="edge6" class="edge">
<title>node_7&#45;&gt;node_4</title>
<path fill="none" stroke="#000000" d="M813.2436,-519.8314C826.2995,-510.7927 842.2535,-499.7476 856.3047,-490.0198"/>
<polygon fill="#000000" stroke="#000000" points="858.5351,-492.7326 864.7648,-484.1628 854.5506,-486.9773 858.5351,-492.7326"/>
</g>
<!-- node_7&#45;&gt;node_5 -->
<g id="edge7" class="edge">
<title>node_7&#45;&gt;node_5</title>
<path fill="none" stroke="#000000" d="M776.9063,-519.8314C772.4403,-511.7925 767.0925,-502.1666 762.1621,-493.2918"/>
<polygon fill="#000000" stroke="#000000" points="765.1456,-491.4551 757.2296,-484.4133 759.0265,-494.8546 765.1456,-491.4551"/>
</g>
<!-- node_8 -->
<g id="node9" class="node">
<title>node_8</title>
<polygon fill="none" stroke="#000000" points="98,-700 34.3022,-682 98,-664 161.6978,-682 98,-700"/>
<text text-anchor="middle" x="98" y="-677.8" font-family="Times,serif" font-size="14.00" fill="#000000">executor2</text>
</g>
<!-- node_16 -->
<g id="node10" class="node">
<title>node_16</title>
<polygon fill="none" stroke="#000000" points="1741.9004,-340 1612.0996,-340 1612.0996,-304 1741.9004,-304 1741.9004,-340"/>
<text text-anchor="middle" x="1677" y="-317.8" font-family="Times,serif" font-size="14.00" fill="#000000">accept evalOptions1</text>
</g>
<!-- node_17 -->
<g id="node11" class="node">
<title>node_17</title>
<polygon fill="none" stroke="#000000" points="1549.3176,-268 1278.6824,-268 1278.6824,-232 1549.3176,-232 1549.3176,-268"/>
<text text-anchor="middle" x="1414" y="-245.8" font-family="Times,serif" font-size="14.00" fill="#000000">cast evalOptions1 from jsonlist to builtin.List</text>
</g>
<!-- node_16&#45;&gt;node_17 -->
<g id="edge9" class="edge">
<title>node_16&#45;&gt;node_17</title>
<path fill="none" stroke="#000000" d="M1611.9887,-304.2022C1574.9683,-294.0674 1528.407,-281.3206 1489.74,-270.7349"/>
<polygon fill="#000000" stroke="#000000" points="1490.6594,-267.3579 1480.0901,-268.0931 1488.811,-274.1095 1490.6594,-267.3579"/>
</g>
<!-- node_15 -->
<g id="node20" class="node">
<title>node_15</title>
<polygon fill="none" stroke="#000000" points="1705.0919,-196 1018.9081,-196 1018.9081,-160 1705.0919,-160 1705.0919,-196"/>
<text text-anchor="middle" x="1362" y="-173.8" font-family="Times,serif" font-size="14.00" fill="#000000">service1 = de.upb.sede.services.mls.WekaASWrapper::__construct([searcher1, eval1, searcherOptions1, evalOptions1])</text>
</g>
<!-- node_17&#45;&gt;node_15 -->
<g id="edge17" class="edge">
<title>node_17&#45;&gt;node_15</title>
<path fill="none" stroke="#000000" d="M1400.8782,-231.8314C1394.9501,-223.6232 1387.8271,-213.7606 1381.3067,-204.7323"/>
<polygon fill="#000000" stroke="#000000" points="1383.9908,-202.4708 1375.2985,-196.4133 1378.316,-206.5693 1383.9908,-202.4708"/>
</g>
<!-- node_18 -->
<g id="node12" class="node">
<title>node_18</title>
<polygon fill="none" stroke="#000000" points="1221.1485,-52 1014.8515,-52 1014.8515,-16 1221.1485,-16 1221.1485,-52"/>
<text text-anchor="middle" x="1118" y="-29.8" font-family="Times,serif" font-size="14.00" fill="#000000">FinishNode &amp;finished&amp;executor1</text>
</g>
<!-- node_21 -->
<g id="node32" class="node">
<title>node_21</title>
<polygon fill="none" stroke="#000000" points="2690.0562,-412 2513.9438,-412 2513.9438,-376 2690.0562,-376 2690.0562,-412"/>
<text text-anchor="middle" x="2602" y="-389.8" font-family="Times,serif" font-size="14.00" fill="#000000">accept &amp;finished&amp;executor1</text>
</g>
<!-- node_18&#45;&gt;node_21 -->
<g id="edge43" class="edge">
<title>node_18&#45;&gt;node_21</title>
<path fill="none" stroke="#000000" stroke-dasharray="1,5" d="M1039.3512,-52.0563C977.2495,-71.5198 901,-109.3878 901,-178 901,-250 901,-250 901,-250 901,-301.7792 918.7147,-322.8936 964,-348 1001.4402,-368.757 2462.5945,-362.1352 2505,-368 2514.4852,-369.3118 2524.3651,-371.2575 2534.0338,-373.5046"/>
<polygon fill="#000000" stroke="#000000" points="2533.4628,-376.968 2544.0078,-375.9416 2535.1243,-370.168 2533.4628,-376.968"/>
</g>
<!-- node_19 -->
<g id="node13" class="node">
<title>node_19</title>
<polygon fill="none" stroke="#000000" points="1456,-340 1392.3022,-322 1456,-304 1519.6978,-322 1456,-340"/>
<text text-anchor="middle" x="1456" y="-317.8" font-family="Times,serif" font-size="14.00" fill="#000000">executor1</text>
</g>
<!-- node_9 -->
<g id="node14" class="node">
<title>node_9</title>
<polygon fill="none" stroke="#000000" points="1652.5636,-268 1567.4364,-268 1567.4364,-232 1652.5636,-232 1652.5636,-268"/>
<text text-anchor="middle" x="1610" y="-245.8" font-family="Times,serif" font-size="14.00" fill="#000000">accept eval1</text>
</g>
<!-- node_9&#45;&gt;node_15 -->
<g id="edge14" class="edge">
<title>node_9&#45;&gt;node_15</title>
<path fill="none" stroke="#000000" d="M1567.2233,-234.9482C1564.1095,-233.9277 1561.0108,-232.9348 1558,-232 1519.9478,-220.1856 1477.3429,-208.2904 1441.5996,-198.683"/>
<polygon fill="#000000" stroke="#000000" points="1442.2746,-195.2405 1431.7096,-196.0358 1440.4646,-202.0024 1442.2746,-195.2405"/>
</g>
<!-- node_10 -->
<g id="node15" class="node">
<title>node_10</title>
<polygon fill="none" stroke="#000000" points="1227.7111,-340 1074.2889,-340 1074.2889,-304 1227.7111,-304 1227.7111,-340"/>
<text text-anchor="middle" x="1151" y="-317.8" font-family="Times,serif" font-size="14.00" fill="#000000">accept searcherOptions1</text>
</g>
<!-- node_13 -->
<g id="node18" class="node">
<title>node_13</title>
<polygon fill="none" stroke="#000000" points="1260.6282,-268 967.3718,-268 967.3718,-232 1260.6282,-232 1260.6282,-268"/>
<text text-anchor="middle" x="1114" y="-245.8" font-family="Times,serif" font-size="14.00" fill="#000000">cast searcherOptions1 from jsonlist to builtin.List</text>
</g>
<!-- node_10&#45;&gt;node_13 -->
<g id="edge11" class="edge">
<title>node_10&#45;&gt;node_13</title>
<path fill="none" stroke="#000000" d="M1141.6633,-303.8314C1137.5757,-295.8771 1132.6896,-286.369 1128.1691,-277.5723"/>
<polygon fill="#000000" stroke="#000000" points="1131.1461,-275.7078 1123.4624,-268.4133 1124.9201,-278.9074 1131.1461,-275.7078"/>
</g>
<!-- node_11 -->
<g id="node16" class="node">
<title>node_11</title>
<polygon fill="none" stroke="#000000" points="1197.3029,-124 1038.6971,-124 1038.6971,-88 1197.3029,-88 1197.3029,-124"/>
<text text-anchor="middle" x="1118" y="-101.8" font-family="Times,serif" font-size="14.00" fill="#000000">transmit service1&#45;&gt;Client</text>
</g>
<!-- node_11&#45;&gt;node_18 -->
<g id="edge15" class="edge">
<title>node_11&#45;&gt;node_18</title>
<path fill="none" stroke="#000000" d="M1118,-87.8314C1118,-80.131 1118,-70.9743 1118,-62.4166"/>
<polygon fill="#000000" stroke="#000000" points="1121.5001,-62.4132 1118,-52.4133 1114.5001,-62.4133 1121.5001,-62.4132"/>
</g>
<!-- node_30 -->
<g id="node41" class="node">
<title>node_30</title>
<polygon fill="none" stroke="#000000" points="3004.8868,-412 2903.1132,-412 2903.1132,-376 3004.8868,-376 3004.8868,-412"/>
<text text-anchor="middle" x="2954" y="-389.8" font-family="Times,serif" font-size="14.00" fill="#000000">accept service1</text>
</g>
<!-- node_11&#45;&gt;node_30 -->
<g id="edge47" class="edge">
<title>node_11&#45;&gt;node_30</title>
<path fill="none" stroke="#000000" stroke-dasharray="1,5" d="M1069.8288,-124.0855C1049.9811,-132.9956 1027.5701,-145.0658 1010,-160 979.9235,-185.5642 970.1447,-194.4416 958,-232 936.4203,-298.737 998.5655,-325.5063 1065,-348 1161.2498,-380.5887 2794.6136,-346.8247 2894,-368 2899.0069,-369.0668 2904.1116,-370.5645 2909.1243,-372.3081"/>
<polygon fill="#000000" stroke="#000000" points="2908.0096,-375.6288 2918.6006,-375.9159 2910.5003,-369.0869 2908.0096,-375.6288"/>
</g>
<!-- node_12 -->
<g id="node17" class="node">
<title>node_12</title>
<polygon fill="none" stroke="#000000" points="1779.3731,-268 1670.6269,-268 1670.6269,-232 1779.3731,-232 1779.3731,-268"/>
<text text-anchor="middle" x="1725" y="-245.8" font-family="Times,serif" font-size="14.00" fill="#000000">accept searcher1</text>
</g>
<!-- node_12&#45;&gt;node_15 -->
<g id="edge12" class="edge">
<title>node_12&#45;&gt;node_15</title>
<path fill="none" stroke="#000000" d="M1670.4515,-234.0529C1667.5999,-233.3327 1664.7701,-232.6433 1662,-232 1605.1009,-218.7857 1541.4957,-206.9275 1487.5454,-197.7128"/>
<polygon fill="#000000" stroke="#000000" points="1488.0324,-194.2455 1477.5878,-196.0232 1486.8614,-201.1468 1488.0324,-194.2455"/>
</g>
<!-- node_13&#45;&gt;node_15 -->
<g id="edge10" class="edge">
<title>node_13&#45;&gt;node_15</title>
<path fill="none" stroke="#000000" d="M1176.2608,-231.9243C1210.7534,-221.9103 1253.803,-209.412 1289.7699,-198.97"/>
<polygon fill="#000000" stroke="#000000" points="1291.086,-202.2325 1299.7136,-196.0831 1289.1343,-195.5101 1291.086,-202.2325"/>
</g>
<!-- node_14 -->
<g id="node19" class="node">
<title>node_14</title>
<polygon fill="none" stroke="#000000" points="1332.8561,-124 1239.1439,-124 1239.1439,-88 1332.8561,-88 1332.8561,-124"/>
<text text-anchor="middle" x="1286" y="-101.8" font-family="Times,serif" font-size="14.00" fill="#000000">store service1</text>
</g>
<!-- node_14&#45;&gt;node_18 -->
<g id="edge13" class="edge">
<title>node_14&#45;&gt;node_18</title>
<path fill="none" stroke="#000000" d="M1243.6065,-87.8314C1221.0376,-78.159 1193.1079,-66.1891 1169.3204,-55.9944"/>
<polygon fill="#000000" stroke="#000000" points="1170.6588,-52.7602 1160.0886,-52.038 1167.9014,-59.1943 1170.6588,-52.7602"/>
</g>
<!-- node_15&#45;&gt;node_11 -->
<g id="edge16" class="edge">
<title>node_15&#45;&gt;node_11</title>
<path fill="none" stroke="#000000" d="M1300.7434,-159.9243C1266.8071,-149.9103 1224.4519,-137.412 1189.0651,-126.97"/>
<polygon fill="#000000" stroke="#000000" points="1189.8635,-123.5565 1179.2818,-124.0831 1187.8823,-130.2703 1189.8635,-123.5565"/>
</g>
<!-- node_15&#45;&gt;node_14 -->
<g id="edge18" class="edge">
<title>node_15&#45;&gt;node_14</title>
<path fill="none" stroke="#000000" d="M1342.822,-159.8314C1333.6412,-151.1337 1322.4994,-140.5783 1312.5224,-131.1265"/>
<polygon fill="#000000" stroke="#000000" points="1314.8385,-128.4995 1305.1719,-124.1628 1310.0243,-133.5811 1314.8385,-128.4995"/>
</g>
<!-- node_37 -->
<g id="node21" class="node">
<title>node_37</title>
<polygon fill="none" stroke="#000000" points="3312.7892,-484 3147.2108,-484 3147.2108,-448 3312.7892,-448 3312.7892,-484"/>
<text text-anchor="middle" x="3230" y="-461.8" font-family="Times,serif" font-size="14.00" fill="#000000">transmit searcher1&#45;&gt;Client</text>
</g>
<!-- node_34 -->
<g id="node28" class="node">
<title>node_34</title>
<polygon fill="none" stroke="#000000" points="3131.3731,-412 3022.6269,-412 3022.6269,-376 3131.3731,-376 3131.3731,-412"/>
<text text-anchor="middle" x="3077" y="-389.8" font-family="Times,serif" font-size="14.00" fill="#000000">accept searcher1</text>
</g>
<!-- node_37&#45;&gt;node_34 -->
<g id="edge55" class="edge">
<title>node_37&#45;&gt;node_34</title>
<path fill="none" stroke="#000000" stroke-dasharray="1,5" d="M3191.3916,-447.8314C3171.1107,-438.2874 3146.0762,-426.5065 3124.6029,-416.4013"/>
<polygon fill="#000000" stroke="#000000" points="3125.8692,-413.1291 3115.3307,-412.038 3122.8886,-419.4629 3125.8692,-413.1291"/>
</g>
<!-- node_38 -->
<g id="node22" class="node">
<title>node_38</title>
<polygon fill="none" stroke="#000000" points="1787.2648,-484 1580.7352,-484 1580.7352,-448 1787.2648,-448 1787.2648,-484"/>
<text text-anchor="middle" x="1684" y="-461.8" font-family="Times,serif" font-size="14.00" fill="#000000">transmit classifierOptions&#45;&gt;Client</text>
</g>
<!-- node_26 -->
<g id="node37" class="node">
<title>node_26</title>
<polygon fill="none" stroke="#000000" points="2495.849,-412 2346.151,-412 2346.151,-376 2495.849,-376 2495.849,-412"/>
<text text-anchor="middle" x="2421" y="-389.8" font-family="Times,serif" font-size="14.00" fill="#000000">accept classifierOptions</text>
</g>
<!-- node_38&#45;&gt;node_26 -->
<g id="edge51" class="edge">
<title>node_38&#45;&gt;node_26</title>
<path fill="none" stroke="#000000" stroke-dasharray="1,5" d="M1787.331,-448.4387C1788.5604,-448.2883 1789.7838,-448.1419 1791,-448 2029.6858,-420.1413 2094.9582,-445.2059 2335.8679,-412.1942"/>
<polygon fill="#000000" stroke="#000000" points="2336.5652,-415.6311 2345.9881,-410.7877 2335.6015,-408.6977 2336.5652,-415.6311"/>
</g>
<!-- node_39 -->
<g id="node23" class="node">
<title>node_39</title>
<polygon fill="none" stroke="#000000" points="1198.127,-484 987.873,-484 987.873,-448 1198.127,-448 1198.127,-484"/>
<text text-anchor="middle" x="1093" y="-461.8" font-family="Times,serif" font-size="14.00" fill="#000000">transmit searcherOptions1&#45;&gt;Client</text>
</g>
<!-- node_32 -->
<g id="node26" class="node">
<title>node_32</title>
<polygon fill="none" stroke="#000000" points="2076.7111,-412 1923.2889,-412 1923.2889,-376 2076.7111,-376 2076.7111,-412"/>
<text text-anchor="middle" x="2000" y="-389.8" font-family="Times,serif" font-size="14.00" fill="#000000">accept searcherOptions1</text>
</g>
<!-- node_39&#45;&gt;node_32 -->
<g id="edge54" class="edge">
<title>node_39&#45;&gt;node_32</title>
<path fill="none" stroke="#000000" stroke-dasharray="1,5" d="M1198.2293,-448.9699C1201.1822,-448.6254 1204.1103,-448.3009 1207,-448 1516.5762,-415.7693 1600.1797,-451.5644 1912.9365,-412.0056"/>
<polygon fill="#000000" stroke="#000000" points="1913.7325,-415.4323 1923.2067,-410.6901 1912.843,-408.489 1913.7325,-415.4323"/>
</g>
<!-- node_40 -->
<g id="node24" class="node">
<title>node_40</title>
<polygon fill="none" stroke="#000000" points="1402.3165,-484 1215.6835,-484 1215.6835,-448 1402.3165,-448 1402.3165,-484"/>
<text text-anchor="middle" x="1309" y="-461.8" font-family="Times,serif" font-size="14.00" fill="#000000">transmit evalOptions1&#45;&gt;Client</text>
</g>
<!-- node_28 -->
<g id="node39" class="node">
<title>node_28</title>
<polygon fill="none" stroke="#000000" points="2224.9004,-412 2095.0996,-412 2095.0996,-376 2224.9004,-376 2224.9004,-412"/>
<text text-anchor="middle" x="2160" y="-389.8" font-family="Times,serif" font-size="14.00" fill="#000000">accept evalOptions1</text>
</g>
<!-- node_40&#45;&gt;node_28 -->
<g id="edge52" class="edge">
<title>node_40&#45;&gt;node_28</title>
<path fill="none" stroke="#000000" stroke-dasharray="1,5" d="M1402.4029,-449.1751C1405.6373,-448.7527 1408.8436,-448.3588 1412,-448 1706.7157,-414.4991 1787.4031,-454.7147 2084.5496,-412.0495"/>
<polygon fill="#000000" stroke="#000000" points="2085.3675,-415.4674 2094.759,-410.5634 2084.3592,-408.5404 2085.3675,-415.4674"/>
</g>
<!-- node_41 -->
<g id="node25" class="node">
<title>node_41</title>
<polygon fill="none" stroke="#000000" points="1563.4793,-484 1420.5207,-484 1420.5207,-448 1563.4793,-448 1563.4793,-484"/>
<text text-anchor="middle" x="1492" y="-461.8" font-family="Times,serif" font-size="14.00" fill="#000000">transmit eval1&#45;&gt;Client</text>
</g>
<!-- node_23 -->
<g id="node34" class="node">
<title>node_23</title>
<polygon fill="none" stroke="#000000" points="2328.5636,-412 2243.4364,-412 2243.4364,-376 2328.5636,-376 2328.5636,-412"/>
<text text-anchor="middle" x="2286" y="-389.8" font-family="Times,serif" font-size="14.00" fill="#000000">accept eval1</text>
</g>
<!-- node_41&#45;&gt;node_23 -->
<g id="edge46" class="edge">
<title>node_41&#45;&gt;node_23</title>
<path fill="none" stroke="#000000" stroke-dasharray="1,5" d="M1563.4211,-449.3097C1566.3119,-448.8311 1569.1798,-448.3912 1572,-448 1860.5852,-407.9732 1943.0125,-467.3813 2233.4348,-411.7386"/>
<polygon fill="#000000" stroke="#000000" points="2234.2641,-415.1429 2243.4118,-409.7978 2232.9274,-408.2717 2234.2641,-415.1429"/>
</g>
<!-- node_22 -->
<g id="node33" class="node">
<title>node_22</title>
<polygon fill="none" stroke="#000000" points="2034.5996,-340 1803.4004,-340 1803.4004,-304 2034.5996,-304 2034.5996,-340"/>
<text text-anchor="middle" x="1919" y="-317.8" font-family="Times,serif" font-size="14.00" fill="#000000">transmit searcherOptions1&#45;&gt;executor1</text>
</g>
<!-- node_32&#45;&gt;node_22 -->
<g id="edge31" class="edge">
<title>node_32&#45;&gt;node_22</title>
<path fill="none" stroke="#000000" d="M1979.5603,-375.8314C1969.6795,-367.0485 1957.6676,-356.3712 1946.955,-346.8489"/>
<polygon fill="#000000" stroke="#000000" points="1949.2326,-344.1906 1939.4332,-340.1628 1944.582,-349.4224 1949.2326,-344.1906"/>
</g>
<!-- node_33 -->
<g id="node27" class="node">
<title>node_33</title>
<polygon fill="none" stroke="#000000" points="2441.9518,-340 2278.0482,-340 2278.0482,-304 2441.9518,-304 2441.9518,-340"/>
<text text-anchor="middle" x="2360" y="-317.8" font-family="Times,serif" font-size="14.00" fill="#000000">transmit eval1&#45;&gt;executor1</text>
</g>
<!-- node_33&#45;&gt;node_9 -->
<g id="edge44" class="edge">
<title>node_33&#45;&gt;node_9</title>
<path fill="none" stroke="#000000" stroke-dasharray="1,5" d="M2304.6395,-303.9738C2292.9809,-300.8029 2280.6749,-297.9104 2269,-296 2005.7334,-252.9203 1929.0873,-317.3088 1662.5518,-267.7179"/>
<polygon fill="#000000" stroke="#000000" points="1663.0598,-264.2519 1652.5826,-265.8268 1661.7551,-271.1293 1663.0598,-264.2519"/>
</g>
<!-- node_24 -->
<g id="node35" class="node">
<title>node_24</title>
<polygon fill="none" stroke="#000000" points="3071.2619,-340 2884.7381,-340 2884.7381,-304 3071.2619,-304 3071.2619,-340"/>
<text text-anchor="middle" x="2978" y="-317.8" font-family="Times,serif" font-size="14.00" fill="#000000">transmit searcher1&#45;&gt;executor1</text>
</g>
<!-- node_34&#45;&gt;node_24 -->
<g id="edge32" class="edge">
<title>node_34&#45;&gt;node_24</title>
<path fill="none" stroke="#000000" d="M3052.0181,-375.8314C3039.7072,-366.8779 3024.6893,-355.9558 3011.4063,-346.2955"/>
<polygon fill="#000000" stroke="#000000" points="3013.1199,-343.214 3002.9739,-340.1628 3009.0027,-348.8752 3013.1199,-343.214"/>
</g>
<!-- node_35 -->
<g id="node29" class="node">
<title>node_35</title>
<polygon fill="none" stroke="#000000" points="2381.5381,-484 2304.4619,-484 2304.4619,-448 2381.5381,-448 2381.5381,-484"/>
<text text-anchor="middle" x="2343" y="-461.8" font-family="Times,serif" font-size="14.00" fill="#000000">send graph</text>
</g>
<!-- node_35&#45;&gt;node_32 -->
<g id="edge39" class="edge">
<title>node_35&#45;&gt;node_32</title>
<path fill="none" stroke="#000000" d="M2304.3203,-457.8806C2251.8857,-446.874 2156.7707,-426.9081 2086.7873,-412.2177"/>
<polygon fill="#000000" stroke="#000000" points="2087.1581,-408.7194 2076.6523,-410.0903 2085.72,-415.5701 2087.1581,-408.7194"/>
</g>
<!-- node_35&#45;&gt;node_34 -->
<g id="edge41" class="edge">
<title>node_35&#45;&gt;node_34</title>
<path fill="none" stroke="#000000" d="M2381.7016,-450.1228C2384.4818,-449.3093 2387.2664,-448.5875 2390,-448 2658.2781,-390.345 2738.1691,-456.7795 3012.2817,-412.0663"/>
<polygon fill="#000000" stroke="#000000" points="3013.2455,-415.454 3022.5338,-410.3573 3012.0944,-408.5493 3013.2455,-415.454"/>
</g>
<!-- node_35&#45;&gt;node_20 -->
<g id="edge28" class="edge">
<title>node_35&#45;&gt;node_20</title>
<path fill="none" stroke="#000000" d="M2381.7437,-450.3054C2384.5138,-449.4485 2387.2847,-448.667 2390,-448 2524.2709,-415.0186 2562.2659,-432.4997 2699,-412 2699.1016,-411.9848 2699.2032,-411.9695 2699.3049,-411.9542"/>
<polygon fill="#000000" stroke="#000000" points="2699.5525,-415.4578 2708.8968,-410.4643 2698.478,-408.5408 2699.5525,-415.4578"/>
</g>
<!-- node_35&#45;&gt;node_21 -->
<g id="edge29" class="edge">
<title>node_35&#45;&gt;node_21</title>
<path fill="none" stroke="#000000" d="M2381.6026,-450.8074C2384.4313,-449.82 2387.2519,-448.873 2390,-448 2429.6255,-435.4125 2474.1266,-423.7162 2512.0881,-414.4505"/>
<polygon fill="#000000" stroke="#000000" points="2513.2049,-417.7813 2522.1002,-412.0259 2511.5573,-410.978 2513.2049,-417.7813"/>
</g>
<!-- node_35&#45;&gt;node_23 -->
<g id="edge30" class="edge">
<title>node_35&#45;&gt;node_23</title>
<path fill="none" stroke="#000000" d="M2328.6165,-447.8314C2322.0514,-439.5386 2314.1493,-429.557 2306.9422,-420.4533"/>
<polygon fill="#000000" stroke="#000000" points="2309.5284,-418.0813 2300.5772,-412.4133 2304.0401,-422.4262 2309.5284,-418.0813"/>
</g>
<!-- node_35&#45;&gt;node_26 -->
<g id="edge33" class="edge">
<title>node_35&#45;&gt;node_26</title>
<path fill="none" stroke="#000000" d="M2362.6827,-447.8314C2372.1051,-439.1337 2383.5401,-428.5783 2393.7796,-419.1265"/>
<polygon fill="#000000" stroke="#000000" points="2396.3495,-421.5175 2401.3236,-412.1628 2391.6016,-416.3738 2396.3495,-421.5175"/>
</g>
<!-- node_35&#45;&gt;node_27 -->
<g id="edge34" class="edge">
<title>node_35&#45;&gt;node_27</title>
<path fill="none" stroke="#000000" d="M2304.4792,-463.3101C2230.6314,-457.6901 2064.0033,-442.7726 1915.1456,-412.0455"/>
<polygon fill="#000000" stroke="#000000" points="1915.4193,-408.527 1904.9142,-409.9024 1913.9842,-415.3783 1915.4193,-408.527"/>
</g>
<!-- node_35&#45;&gt;node_28 -->
<g id="edge35" class="edge">
<title>node_35&#45;&gt;node_28</title>
<path fill="none" stroke="#000000" d="M2304.1904,-450.7307C2278.3626,-440.5689 2244.0381,-427.0642 2215.3581,-415.7802"/>
<polygon fill="#000000" stroke="#000000" points="2216.4558,-412.451 2205.8687,-412.0467 2213.8929,-418.965 2216.4558,-412.451"/>
</g>
<!-- node_35&#45;&gt;node_30 -->
<g id="edge37" class="edge">
<title>node_35&#45;&gt;node_30</title>
<path fill="none" stroke="#000000" d="M2381.711,-450.1657C2384.4889,-449.342 2387.2704,-448.6062 2390,-448 2606.0185,-400.028 2671.2084,-450.9735 2892.807,-411.9698"/>
<polygon fill="#000000" stroke="#000000" points="2893.5739,-415.388 2902.7947,-410.17 2892.3325,-408.499 2893.5739,-415.388"/>
</g>
<!-- node_36 -->
<g id="node30" class="node">
<title>node_36</title>
<polygon fill="none" stroke="#000000" points="2444,-484 2399.2728,-466 2444,-448 2488.7272,-466 2444,-484"/>
<text text-anchor="middle" x="2444" y="-461.8" font-family="Times,serif" font-size="14.00" fill="#000000">Client</text>
</g>
<!-- node_22&#45;&gt;node_10 -->
<g id="edge49" class="edge">
<title>node_22&#45;&gt;node_10</title>
<path fill="none" stroke="#000000" stroke-dasharray="1,5" d="M1863.6522,-340.0075C1838.9534,-347.1392 1809.3162,-354.4709 1782,-358 1696.0477,-369.1045 1478.4286,-364.4196 1392,-358 1340.5113,-354.1756 1283.3416,-345.8156 1237.6099,-338.1138"/>
<polygon fill="#000000" stroke="#000000" points="1238.1805,-334.6607 1227.7347,-336.4312 1237.0046,-341.5612 1238.1805,-334.6607"/>
</g>
<!-- node_23&#45;&gt;node_33 -->
<g id="edge27" class="edge">
<title>node_23&#45;&gt;node_33</title>
<path fill="none" stroke="#000000" d="M2304.6733,-375.8314C2313.5249,-367.219 2324.2486,-356.7851 2333.8895,-347.4048"/>
<polygon fill="#000000" stroke="#000000" points="2336.6061,-349.645 2341.3326,-340.1628 2331.7246,-344.6279 2336.6061,-349.645"/>
</g>
<!-- node_24&#45;&gt;node_12 -->
<g id="edge50" class="edge">
<title>node_24&#45;&gt;node_12</title>
<path fill="none" stroke="#000000" stroke-dasharray="1,5" d="M2884.4423,-305.0749C2862.0837,-301.56 2838.2475,-298.2465 2816,-296 2615.0778,-275.7112 1992.9768,-257.3331 1789.8688,-251.737"/>
<polygon fill="#000000" stroke="#000000" points="1789.7512,-248.2325 1779.6589,-251.4567 1789.5591,-255.2299 1789.7512,-248.2325"/>
</g>
<!-- node_25 -->
<g id="node36" class="node">
<title>node_25</title>
<polygon fill="none" stroke="#000000" points="2583.5381,-484 2506.4619,-484 2506.4619,-448 2583.5381,-448 2583.5381,-484"/>
<text text-anchor="middle" x="2545" y="-461.8" font-family="Times,serif" font-size="14.00" fill="#000000">send graph</text>
</g>
<!-- node_25&#45;&gt;node_32 -->
<g id="edge25" class="edge">
<title>node_25&#45;&gt;node_32</title>
<path fill="none" stroke="#000000" d="M2506.2777,-450.2154C2503.5025,-449.3799 2500.7247,-448.6278 2498,-448 2322.0325,-407.4563 2269.6677,-437.7681 2086.7577,-411.9887"/>
<polygon fill="#000000" stroke="#000000" points="2087.2107,-408.5179 2076.8127,-410.5503 2086.2086,-415.4458 2087.2107,-408.5179"/>
</g>
<!-- node_25&#45;&gt;node_34 -->
<g id="edge26" class="edge">
<title>node_25&#45;&gt;node_34</title>
<path fill="none" stroke="#000000" d="M2583.6307,-463.6997C2662.5981,-458.5377 2848.2241,-444.0494 3012.2263,-412.1868"/>
<polygon fill="#000000" stroke="#000000" points="3013.3634,-415.5301 3022.4979,-410.1626 3012.0099,-408.6622 3013.3634,-415.5301"/>
</g>
<!-- node_25&#45;&gt;node_20 -->
<g id="edge36" class="edge">
<title>node_25&#45;&gt;node_20</title>
<path fill="none" stroke="#000000" d="M2583.5477,-454.9864C2620.7986,-444.3433 2678.1724,-427.9507 2724.0593,-414.8402"/>
<polygon fill="#000000" stroke="#000000" points="2725.3085,-418.1234 2733.9622,-412.0108 2723.3854,-411.3928 2725.3085,-418.1234"/>
</g>
<!-- node_25&#45;&gt;node_21 -->
<g id="edge38" class="edge">
<title>node_25&#45;&gt;node_21</title>
<path fill="none" stroke="#000000" d="M2559.3835,-447.8314C2565.9486,-439.5386 2573.8507,-429.557 2581.0578,-420.4533"/>
<polygon fill="#000000" stroke="#000000" points="2583.9599,-422.4262 2587.4228,-412.4133 2578.4716,-418.0813 2583.9599,-422.4262"/>
</g>
<!-- node_25&#45;&gt;node_23 -->
<g id="edge40" class="edge">
<title>node_25&#45;&gt;node_23</title>
<path fill="none" stroke="#000000" d="M2506.426,-450.7152C2503.5906,-449.7494 2500.7607,-448.8324 2498,-448 2430.8159,-427.7416 2409.3131,-431.8221 2338.5682,-412.2782"/>
<polygon fill="#000000" stroke="#000000" points="2339.3079,-408.8502 2328.7329,-409.4986 2337.404,-415.5864 2339.3079,-408.8502"/>
</g>
<!-- node_25&#45;&gt;node_26 -->
<g id="edge19" class="edge">
<title>node_25&#45;&gt;node_26</title>
<path fill="none" stroke="#000000" d="M2513.7096,-447.8314C2497.7023,-438.5368 2478.0414,-427.1208 2460.9506,-417.1971"/>
<polygon fill="#000000" stroke="#000000" points="2462.6858,-414.1575 2452.2804,-412.1628 2459.1708,-420.211 2462.6858,-414.1575"/>
</g>
<!-- node_25&#45;&gt;node_27 -->
<g id="edge21" class="edge">
<title>node_25&#45;&gt;node_27</title>
<path fill="none" stroke="#000000" d="M2506.2957,-450.1352C2503.5162,-449.3188 2500.7325,-448.5929 2498,-448 2247.091,-393.5607 2171.912,-456.0374 1915.1931,-411.9575"/>
<polygon fill="#000000" stroke="#000000" points="1915.6537,-408.485 1905.1992,-410.2038 1914.4437,-415.3796 1915.6537,-408.485"/>
</g>
<!-- node_25&#45;&gt;node_28 -->
<g id="edge22" class="edge">
<title>node_25&#45;&gt;node_28</title>
<path fill="none" stroke="#000000" d="M2506.241,-450.3663C2503.4746,-449.4948 2500.7087,-448.6935 2498,-448 2386.4177,-419.4326 2352.2151,-433.2151 2235.3465,-412.1307"/>
<polygon fill="#000000" stroke="#000000" points="2235.7608,-408.6479 2225.2906,-410.2681 2234.4859,-415.5309 2235.7608,-408.6479"/>
</g>
<!-- node_25&#45;&gt;node_30 -->
<g id="edge23" class="edge">
<title>node_25&#45;&gt;node_30</title>
<path fill="none" stroke="#000000" d="M2583.5413,-461.7998C2646.4492,-454.5626 2775.1828,-438.1601 2893.1427,-412.0291"/>
<polygon fill="#000000" stroke="#000000" points="2894.0732,-415.4074 2903.0639,-409.8022 2892.5401,-408.5774 2894.0732,-415.4074"/>
</g>
<!-- node_31 -->
<g id="node42" class="node">
<title>node_31</title>
<polygon fill="none" stroke="#000000" points="2806.7374,-340 2579.2626,-340 2579.2626,-304 2806.7374,-304 2806.7374,-340"/>
<text text-anchor="middle" x="2693" y="-317.8" font-family="Times,serif" font-size="14.00" fill="#000000">transmit classifierOptions&#45;&gt;executor2</text>
</g>
<!-- node_26&#45;&gt;node_31 -->
<g id="edge24" class="edge">
<title>node_26&#45;&gt;node_31</title>
<path fill="none" stroke="#000000" d="M2477.7965,-375.9126C2486.8686,-373.1702 2496.1724,-370.4437 2505,-368 2537.2895,-359.0612 2572.946,-350.1073 2604.4484,-342.506"/>
<polygon fill="#000000" stroke="#000000" points="2605.6146,-345.8256 2614.521,-340.0874 2603.9801,-339.0191 2605.6146,-345.8256"/>
</g>
<!-- node_29 -->
<g id="node40" class="node">
<title>node_29</title>
<polygon fill="none" stroke="#000000" points="2259.7892,-340 2052.2108,-340 2052.2108,-304 2259.7892,-304 2259.7892,-340"/>
<text text-anchor="middle" x="2156" y="-317.8" font-family="Times,serif" font-size="14.00" fill="#000000">transmit evalOptions1&#45;&gt;executor1</text>
</g>
<!-- node_28&#45;&gt;node_29 -->
<g id="edge20" class="edge">
<title>node_28&#45;&gt;node_29</title>
<path fill="none" stroke="#000000" d="M2158.9906,-375.8314C2158.5628,-368.131 2158.0541,-358.9743 2157.5787,-350.4166"/>
<polygon fill="#000000" stroke="#000000" points="2161.0724,-350.2037 2157.023,-340.4133 2154.0831,-350.592 2161.0724,-350.2037"/>
</g>
<!-- node_29&#45;&gt;node_16 -->
<g id="edge48" class="edge">
<title>node_29&#45;&gt;node_16</title>
<path fill="none" stroke="#000000" stroke-dasharray="1,5" d="M2107.2727,-340.0001C2085.4874,-347.1304 2059.2909,-354.4631 2035,-358 1983.3227,-365.5245 1851.6939,-365.4095 1800,-358 1778.801,-354.9614 1756.1556,-349.1188 1736.1481,-343.0102"/>
<polygon fill="#000000" stroke="#000000" points="1737.1451,-339.6549 1726.556,-340.0012 1735.0499,-346.334 1737.1451,-339.6549"/>
</g>
<!-- node_31&#45;&gt;node_2 -->
<g id="edge42" class="edge">
<title>node_31&#45;&gt;node_2</title>
<path fill="none" stroke="#000000" stroke-dasharray="1,5" d="M2807.0696,-339.3835C2829.8675,-342.5255 2853.6689,-345.5704 2876,-348 2992.9792,-360.7272 3025.8408,-339.4727 3140,-368 3566.3548,-474.5421 3341,-409.9167 3341,-466 3341,-538 3341,-538 3341,-538 3341,-660.6107 1382.7754,-679.0234 947.1776,-681.6025"/>
<polygon fill="#000000" stroke="#000000" points="946.8464,-678.1042 936.8669,-681.6622 946.8871,-685.1041 946.8464,-678.1042"/>
</g>
</g>
</svg>
