<?xml version="1.0" encoding="UTF-8" standalone="no"?>
<!DOCTYPE svg PUBLIC "-//W3C//DTD SVG 1.1//EN"
 "http://www.w3.org/Graphics/SVG/1.1/DTD/svg11.dtd">
<!-- Generated by graphviz version 2.40.1 (20161225.0304)
 -->
<!-- Title: %3 Pages: 1 -->
<svg width="3350pt" height="724pt"
 viewBox="0.00 0.00 3350.00 724.00" xmlns="http://www.w3.org/2000/svg" xmlns:xlink="http://www.w3.org/1999/xlink">
<g id="graph0" class="graph" transform="scale(1 1) rotate(0) translate(4 720)">
<title>%3</title>
<polygon fill="#ffffff" stroke="transparent" points="-4,4 -4,-720 3346,-720 3346,4 -4,4"/>
<g id="clust1" class="cluster">
<title>cluster_70714390</title>
<polygon fill="none" stroke="#000000" points="8,-368 8,-708 980,-708 980,-368 8,-368"/>
</g>
<g id="clust2" class="cluster">
<title>cluster_1877629100</title>
<polygon fill="none" stroke="#000000" points="918,-8 918,-348 1747,-348 1747,-8 918,-8"/>
</g>
<g id="clust3" class="cluster">
<title>cluster_518119533</title>
<polygon fill="none" stroke="#000000" points="1755,-296 1755,-492 3100,-492 3100,-296 1755,-296"/>
</g>
<!-- node_0 -->
<g id="node1" class="node">
<title>node_0</title>
<polygon fill="none" stroke="#000000" points="971.7657,-628 682.2343,-628 682.2343,-592 971.7657,-592 971.7657,-628"/>
<text text-anchor="middle" x="827" y="-605.8" font-family="Times,serif" font-size="14.00" fill="#000000">cast classifierOptions from jsonlist to builtin.List</text>
</g>
<!-- node_6 -->
<g id="node7" class="node">
<title>node_6</title>
<polygon fill="none" stroke="#000000" points="910.4522,-556 663.5478,-556 663.5478,-520 910.4522,-520 910.4522,-556"/>
<text text-anchor="middle" x="787" y="-533.8" font-family="Times,serif" font-size="14.00" fill="#000000">service2::set_options([classifierOptions])</text>
</g>
<!-- node_0&#45;&gt;node_6 -->
<g id="edge4" class="edge">
<title>node_0&#45;&gt;node_6</title>
<path fill="none" stroke="#000000" d="M816.9063,-591.8314C812.4403,-583.7925 807.0925,-574.1666 802.1621,-565.2918"/>
<polygon fill="#000000" stroke="#000000" points="805.1456,-563.4551 797.2296,-556.4133 799.0265,-566.8546 805.1456,-563.4551"/>
</g>
<!-- node_1 -->
<g id="node2" class="node">
<title>node_1</title>
<polygon fill="none" stroke="#000000" points="970.3029,-484 811.6971,-484 811.6971,-448 970.3029,-448 970.3029,-484"/>
<text text-anchor="middle" x="891" y="-461.8" font-family="Times,serif" font-size="14.00" fill="#000000">transmit service2&#45;&gt;Client</text>
</g>
<!-- node_4 -->
<g id="node5" class="node">
<title>node_4</title>
<polygon fill="none" stroke="#000000" points="972.1485,-412 765.8515,-412 765.8515,-376 972.1485,-376 972.1485,-412"/>
<text text-anchor="middle" x="869" y="-389.8" font-family="Times,serif" font-size="14.00" fill="#000000">FinishNode &amp;finished&amp;executor2</text>
</g>
<!-- node_1&#45;&gt;node_4 -->
<g id="edge3" class="edge">
<title>node_1&#45;&gt;node_4</title>
<path fill="none" stroke="#000000" d="M885.4485,-447.8314C883.0697,-440.0463 880.2362,-430.7729 877.5967,-422.1347"/>
<polygon fill="#000000" stroke="#000000" points="880.8958,-420.954 874.6263,-412.4133 874.2013,-422.9996 880.8958,-420.954"/>
</g>
<!-- node_27 -->
<g id="node38" class="node">
<title>node_27</title>
<polygon fill="none" stroke="#000000" points="1864.8868,-412 1763.1132,-412 1763.1132,-376 1864.8868,-376 1864.8868,-412"/>
<text text-anchor="middle" x="1814" y="-389.8" font-family="Times,serif" font-size="14.00" fill="#000000">accept service2</text>
</g>
<!-- node_1&#45;&gt;node_27 -->
<g id="edge54" class="edge">
<title>node_1&#45;&gt;node_27</title>
<path fill="none" stroke="#000000" stroke-dasharray="1,5" d="M970.5422,-449.2208C973.392,-448.782 976.2179,-448.3727 979,-448 1266.6685,-409.4627 1613.9148,-398.1867 1752.525,-395.0931"/>
<polygon fill="#000000" stroke="#000000" points="1753.0069,-398.5835 1762.9287,-394.8676 1752.8552,-391.5852 1753.0069,-398.5835"/>
</g>
<!-- node_2 -->
<g id="node3" class="node">
<title>node_2</title>
<polygon fill="none" stroke="#000000" points="936.849,-700 787.151,-700 787.151,-664 936.849,-664 936.849,-700"/>
<text text-anchor="middle" x="862" y="-677.8" font-family="Times,serif" font-size="14.00" fill="#000000">accept classifierOptions</text>
</g>
<!-- node_2&#45;&gt;node_0 -->
<g id="edge7" class="edge">
<title>node_2&#45;&gt;node_0</title>
<path fill="none" stroke="#000000" d="M853.168,-663.8314C849.3014,-655.8771 844.6794,-646.369 840.4032,-637.5723"/>
<polygon fill="#000000" stroke="#000000" points="843.4707,-635.8768 835.9509,-628.4133 837.1751,-638.9371 843.4707,-635.8768"/>
</g>
<!-- node_3 -->
<g id="node4" class="node">
<title>node_3</title>
<polygon fill="none" stroke="#000000" points="793.8561,-484 700.1439,-484 700.1439,-448 793.8561,-448 793.8561,-484"/>
<text text-anchor="middle" x="747" y="-461.8" font-family="Times,serif" font-size="14.00" fill="#000000">store service2</text>
</g>
<!-- node_3&#45;&gt;node_4 -->
<g id="edge1" class="edge">
<title>node_3&#45;&gt;node_4</title>
<path fill="none" stroke="#000000" d="M777.7858,-447.8314C793.3903,-438.6221 812.524,-427.3301 829.2303,-417.4706"/>
<polygon fill="#000000" stroke="#000000" points="831.3909,-420.2596 838.2241,-412.1628 827.8331,-414.2312 831.3909,-420.2596"/>
</g>
<!-- node_23 -->
<g id="node34" class="node">
<title>node_23</title>
<polygon fill="none" stroke="#000000" points="2804.0562,-412 2627.9438,-412 2627.9438,-376 2804.0562,-376 2804.0562,-412"/>
<text text-anchor="middle" x="2716" y="-389.8" font-family="Times,serif" font-size="14.00" fill="#000000">accept &amp;finished&amp;executor2</text>
</g>
<!-- node_4&#45;&gt;node_23 -->
<g id="edge49" class="edge">
<title>node_4&#45;&gt;node_23</title>
<path fill="none" stroke="#000000" stroke-dasharray="1,5" d="M972.1949,-399.5239C1138.14,-408.1017 1474.6204,-424.2371 1760,-430 1948.6282,-433.8091 2422.812,-460.4818 2609,-430 2627.0282,-427.0485 2646.1127,-421.474 2663.0945,-415.5778"/>
<polygon fill="#000000" stroke="#000000" points="2664.5956,-418.7578 2672.8263,-412.0864 2662.2317,-412.1689 2664.5956,-418.7578"/>
</g>
<!-- node_5 -->
<g id="node6" class="node">
<title>node_5</title>
<polygon fill="none" stroke="#000000" points="664.126,-628 15.874,-628 15.874,-592 664.126,-592 664.126,-628"/>
<text text-anchor="middle" x="340" y="-605.8" font-family="Times,serif" font-size="14.00" fill="#000000">service2 = de.upb.sede.services.mls.WekaBClassifierWrapper::__construct([weka.classifiers.bayes.NaiveBayes])</text>
</g>
<!-- node_5&#45;&gt;node_6 -->
<g id="edge2" class="edge">
<title>node_5&#45;&gt;node_6</title>
<path fill="none" stroke="#000000" d="M451.9318,-591.9707C516.7463,-581.5308 598.397,-568.379 664.8691,-557.6721"/>
<polygon fill="#000000" stroke="#000000" points="665.6657,-561.089 674.9818,-556.0432 664.5524,-554.1781 665.6657,-561.089"/>
</g>
<!-- node_6&#45;&gt;node_1 -->
<g id="edge5" class="edge">
<title>node_6&#45;&gt;node_1</title>
<path fill="none" stroke="#000000" d="M813.2436,-519.8314C826.2995,-510.7927 842.2535,-499.7476 856.3047,-490.0198"/>
<polygon fill="#000000" stroke="#000000" points="858.5351,-492.7326 864.7648,-484.1628 854.5506,-486.9773 858.5351,-492.7326"/>
</g>
<!-- node_6&#45;&gt;node_3 -->
<g id="edge6" class="edge">
<title>node_6&#45;&gt;node_3</title>
<path fill="none" stroke="#000000" d="M776.9063,-519.8314C772.4403,-511.7925 767.0925,-502.1666 762.1621,-493.2918"/>
<polygon fill="#000000" stroke="#000000" points="765.1456,-491.4551 757.2296,-484.4133 759.0265,-494.8546 765.1456,-491.4551"/>
</g>
<!-- node_7 -->
<g id="node8" class="node">
<title>node_7</title>
<polygon fill="none" stroke="#000000" points="482.9251,-700 197.0749,-700 197.0749,-664 482.9251,-664 482.9251,-700"/>
<text text-anchor="middle" x="340" y="-677.8" font-family="Times,serif" font-size="14.00" fill="#000000">parse String: weka.classifiers.bayes.NaiveBayes</text>
</g>
<!-- node_7&#45;&gt;node_5 -->
<g id="edge8" class="edge">
<title>node_7&#45;&gt;node_5</title>
<path fill="none" stroke="#000000" d="M340,-663.8314C340,-656.131 340,-646.9743 340,-638.4166"/>
<polygon fill="#000000" stroke="#000000" points="343.5001,-638.4132 340,-628.4133 336.5001,-638.4133 343.5001,-638.4132"/>
</g>
<!-- node_8 -->
<g id="node9" class="node">
<title>node_8</title>
<polygon fill="none" stroke="#000000" points="98,-700 34.3022,-682 98,-664 161.6978,-682 98,-700"/>
<text text-anchor="middle" x="98" y="-677.8" font-family="Times,serif" font-size="14.00" fill="#000000">executor2</text>
</g>
<!-- node_37 -->
<g id="node10" class="node">
<title>node_37</title>
<polygon fill="none" stroke="#000000" points="3314.2648,-484 3107.7352,-484 3107.7352,-448 3314.2648,-448 3314.2648,-484"/>
<text text-anchor="middle" x="3211" y="-461.8" font-family="Times,serif" font-size="14.00" fill="#000000">transmit classifierOptions&#45;&gt;Client</text>
</g>
<!-- node_28 -->
<g id="node39" class="node">
<title>node_28</title>
<polygon fill="none" stroke="#000000" points="3091.849,-412 2942.151,-412 2942.151,-376 3091.849,-376 3091.849,-412"/>
<text text-anchor="middle" x="3017" y="-389.8" font-family="Times,serif" font-size="14.00" fill="#000000">accept classifierOptions</text>
</g>
<!-- node_37&#45;&gt;node_28 -->
<g id="edge52" class="edge">
<title>node_37&#45;&gt;node_28</title>
<path fill="none" stroke="#000000" stroke-dasharray="1,5" d="M3162.0456,-447.8314C3135.638,-438.0306 3102.8744,-425.8709 3075.1714,-415.5894"/>
<polygon fill="#000000" stroke="#000000" points="3076.1953,-412.2362 3065.6024,-412.038 3073.7597,-418.7988 3076.1953,-412.2362"/>
</g>
<!-- node_16 -->
<g id="node11" class="node">
<title>node_16</title>
<polygon fill="none" stroke="#000000" points="1664.0919,-196 977.9081,-196 977.9081,-160 1664.0919,-160 1664.0919,-196"/>
<text text-anchor="middle" x="1321" y="-173.8" font-family="Times,serif" font-size="14.00" fill="#000000">service1 = de.upb.sede.services.mls.WekaASWrapper::__construct([searcher1, eval1, searcherOptions1, evalOptions1])</text>
</g>
<!-- node_10 -->
<g id="node16" class="node">
<title>node_10</title>
<polygon fill="none" stroke="#000000" points="1156.3029,-124 997.6971,-124 997.6971,-88 1156.3029,-88 1156.3029,-124"/>
<text text-anchor="middle" x="1077" y="-101.8" font-family="Times,serif" font-size="14.00" fill="#000000">transmit service1&#45;&gt;Client</text>
</g>
<!-- node_16&#45;&gt;node_10 -->
<g id="edge15" class="edge">
<title>node_16&#45;&gt;node_10</title>
<path fill="none" stroke="#000000" d="M1259.7434,-159.9243C1225.8071,-149.9103 1183.4519,-137.412 1148.0651,-126.97"/>
<polygon fill="#000000" stroke="#000000" points="1148.8635,-123.5565 1138.2818,-124.0831 1146.8823,-130.2703 1148.8635,-123.5565"/>
</g>
<!-- node_12 -->
<g id="node18" class="node">
<title>node_12</title>
<polygon fill="none" stroke="#000000" points="1291.8561,-124 1198.1439,-124 1198.1439,-88 1291.8561,-88 1291.8561,-124"/>
<text text-anchor="middle" x="1245" y="-101.8" font-family="Times,serif" font-size="14.00" fill="#000000">store service1</text>
</g>
<!-- node_16&#45;&gt;node_12 -->
<g id="edge16" class="edge">
<title>node_16&#45;&gt;node_12</title>
<path fill="none" stroke="#000000" d="M1301.822,-159.8314C1292.6412,-151.1337 1281.4994,-140.5783 1271.5224,-131.1265"/>
<polygon fill="#000000" stroke="#000000" points="1273.8385,-128.4995 1264.1719,-124.1628 1269.0243,-133.5811 1273.8385,-128.4995"/>
</g>
<!-- node_17 -->
<g id="node12" class="node">
<title>node_17</title>
<polygon fill="none" stroke="#000000" points="1701.9004,-340 1572.0996,-340 1572.0996,-304 1701.9004,-304 1701.9004,-340"/>
<text text-anchor="middle" x="1637" y="-317.8" font-family="Times,serif" font-size="14.00" fill="#000000">accept evalOptions1</text>
</g>
<!-- node_14 -->
<g id="node20" class="node">
<title>node_14</title>
<polygon fill="none" stroke="#000000" points="1508.3176,-268 1237.6824,-268 1237.6824,-232 1508.3176,-232 1508.3176,-268"/>
<text text-anchor="middle" x="1373" y="-245.8" font-family="Times,serif" font-size="14.00" fill="#000000">cast evalOptions1 from jsonlist to builtin.List</text>
</g>
<!-- node_17&#45;&gt;node_14 -->
<g id="edge17" class="edge">
<title>node_17&#45;&gt;node_14</title>
<path fill="none" stroke="#000000" d="M1572.0802,-304.2946C1534.783,-294.1226 1487.7544,-281.2966 1448.7722,-270.6651"/>
<polygon fill="#000000" stroke="#000000" points="1449.6142,-267.267 1439.0456,-268.0124 1447.7723,-274.0204 1449.6142,-267.267"/>
</g>
<!-- node_18 -->
<g id="node13" class="node">
<title>node_18</title>
<polygon fill="none" stroke="#000000" points="1635.3731,-268 1526.6269,-268 1526.6269,-232 1635.3731,-232 1635.3731,-268"/>
<text text-anchor="middle" x="1581" y="-245.8" font-family="Times,serif" font-size="14.00" fill="#000000">accept searcher1</text>
</g>
<!-- node_18&#45;&gt;node_16 -->
<g id="edge18" class="edge">
<title>node_18&#45;&gt;node_16</title>
<path fill="none" stroke="#000000" d="M1526.5382,-234.6614C1523.3114,-233.7592 1520.1134,-232.8667 1517,-232 1477.3723,-220.9685 1433.2045,-208.7897 1396.8431,-198.7944"/>
<polygon fill="#000000" stroke="#000000" points="1397.3746,-195.3108 1386.8046,-196.0359 1395.5198,-202.0606 1397.3746,-195.3108"/>
</g>
<!-- node_19 -->
<g id="node14" class="node">
<title>node_19</title>
<polygon fill="none" stroke="#000000" points="1416,-340 1352.3022,-322 1416,-304 1479.6978,-322 1416,-340"/>
<text text-anchor="middle" x="1416" y="-317.8" font-family="Times,serif" font-size="14.00" fill="#000000">executor1</text>
</g>
<!-- node_9 -->
<g id="node15" class="node">
<title>node_9</title>
<polygon fill="none" stroke="#000000" points="1738.5636,-268 1653.4364,-268 1653.4364,-232 1738.5636,-232 1738.5636,-268"/>
<text text-anchor="middle" x="1696" y="-245.8" font-family="Times,serif" font-size="14.00" fill="#000000">accept eval1</text>
</g>
<!-- node_9&#45;&gt;node_16 -->
<g id="edge14" class="edge">
<title>node_9&#45;&gt;node_16</title>
<path fill="none" stroke="#000000" d="M1653.324,-234.5919C1650.1865,-233.655 1647.055,-232.7783 1644,-232 1587.8543,-217.6967 1525.2252,-206.2239 1470.1715,-197.5947"/>
<polygon fill="#000000" stroke="#000000" points="1470.4011,-194.0886 1459.9832,-196.0165 1469.3295,-201.0061 1470.4011,-194.0886"/>
</g>
<!-- node_15 -->
<g id="node21" class="node">
<title>node_15</title>
<polygon fill="none" stroke="#000000" points="1180.1485,-52 973.8515,-52 973.8515,-16 1180.1485,-16 1180.1485,-52"/>
<text text-anchor="middle" x="1077" y="-29.8" font-family="Times,serif" font-size="14.00" fill="#000000">FinishNode &amp;finished&amp;executor1</text>
</g>
<!-- node_10&#45;&gt;node_15 -->
<g id="edge13" class="edge">
<title>node_10&#45;&gt;node_15</title>
<path fill="none" stroke="#000000" d="M1077,-87.8314C1077,-80.131 1077,-70.9743 1077,-62.4166"/>
<polygon fill="#000000" stroke="#000000" points="1080.5001,-62.4132 1077,-52.4133 1073.5001,-62.4133 1080.5001,-62.4132"/>
</g>
<!-- node_31 -->
<g id="node42" class="node">
<title>node_31</title>
<polygon fill="none" stroke="#000000" points="2923.8868,-412 2822.1132,-412 2822.1132,-376 2923.8868,-376 2923.8868,-412"/>
<text text-anchor="middle" x="2873" y="-389.8" font-family="Times,serif" font-size="14.00" fill="#000000">accept service1</text>
</g>
<!-- node_10&#45;&gt;node_31 -->
<g id="edge51" class="edge">
<title>node_10&#45;&gt;node_31</title>
<path fill="none" stroke="#000000" stroke-dasharray="1,5" d="M1028.8288,-124.0855C1008.9811,-132.9956 986.5701,-145.0658 969,-160 938.9235,-185.5642 929.1447,-194.4416 917,-232 895.4203,-298.737 957.5683,-325.4982 1024,-348 1118.1412,-379.8876 2715.7894,-347.2759 2813,-368 2818.0068,-369.0674 2823.1114,-370.5655 2828.124,-372.3094"/>
<polygon fill="#000000" stroke="#000000" points="2827.0093,-375.63 2837.6003,-375.9175 2829.5002,-369.0882 2827.0093,-375.63"/>
</g>
<!-- node_11 -->
<g id="node17" class="node">
<title>node_11</title>
<polygon fill="none" stroke="#000000" points="1186.7111,-340 1033.2889,-340 1033.2889,-304 1186.7111,-304 1186.7111,-340"/>
<text text-anchor="middle" x="1110" y="-317.8" font-family="Times,serif" font-size="14.00" fill="#000000">accept searcherOptions1</text>
</g>
<!-- node_13 -->
<g id="node19" class="node">
<title>node_13</title>
<polygon fill="none" stroke="#000000" points="1219.6282,-268 926.3718,-268 926.3718,-232 1219.6282,-232 1219.6282,-268"/>
<text text-anchor="middle" x="1073" y="-245.8" font-family="Times,serif" font-size="14.00" fill="#000000">cast searcherOptions1 from jsonlist to builtin.List</text>
</g>
<!-- node_11&#45;&gt;node_13 -->
<g id="edge9" class="edge">
<title>node_11&#45;&gt;node_13</title>
<path fill="none" stroke="#000000" d="M1100.6633,-303.8314C1096.5757,-295.8771 1091.6896,-286.369 1087.1691,-277.5723"/>
<polygon fill="#000000" stroke="#000000" points="1090.1461,-275.7078 1082.4624,-268.4133 1083.9201,-278.9074 1090.1461,-275.7078"/>
</g>
<!-- node_12&#45;&gt;node_15 -->
<g id="edge11" class="edge">
<title>node_12&#45;&gt;node_15</title>
<path fill="none" stroke="#000000" d="M1202.6065,-87.8314C1180.0376,-78.159 1152.1079,-66.1891 1128.3204,-55.9944"/>
<polygon fill="#000000" stroke="#000000" points="1129.6588,-52.7602 1119.0886,-52.038 1126.9014,-59.1943 1129.6588,-52.7602"/>
</g>
<!-- node_13&#45;&gt;node_16 -->
<g id="edge12" class="edge">
<title>node_13&#45;&gt;node_16</title>
<path fill="none" stroke="#000000" d="M1135.2608,-231.9243C1169.7534,-221.9103 1212.803,-209.412 1248.7699,-198.97"/>
<polygon fill="#000000" stroke="#000000" points="1250.086,-202.2325 1258.7136,-196.0831 1248.1343,-195.5101 1250.086,-202.2325"/>
</g>
<!-- node_14&#45;&gt;node_16 -->
<g id="edge10" class="edge">
<title>node_14&#45;&gt;node_16</title>
<path fill="none" stroke="#000000" d="M1359.8782,-231.8314C1353.9501,-223.6232 1346.8271,-213.7606 1340.3067,-204.7323"/>
<polygon fill="#000000" stroke="#000000" points="1342.9908,-202.4708 1334.2985,-196.4133 1337.316,-206.5693 1342.9908,-202.4708"/>
</g>
<!-- node_22 -->
<g id="node33" class="node">
<title>node_22</title>
<polygon fill="none" stroke="#000000" points="2609.0562,-412 2432.9438,-412 2432.9438,-376 2609.0562,-376 2609.0562,-412"/>
<text text-anchor="middle" x="2521" y="-389.8" font-family="Times,serif" font-size="14.00" fill="#000000">accept &amp;finished&amp;executor1</text>
</g>
<!-- node_15&#45;&gt;node_22 -->
<g id="edge42" class="edge">
<title>node_15&#45;&gt;node_22</title>
<path fill="none" stroke="#000000" stroke-dasharray="1,5" d="M998.3512,-52.0563C936.2495,-71.5198 860,-109.3878 860,-178 860,-250 860,-250 860,-250 860,-301.7792 877.7191,-322.8858 923,-348 959.4651,-368.2246 2382.696,-362.2802 2424,-368 2433.485,-369.3135 2443.3648,-371.2601 2453.0334,-373.5077"/>
<polygon fill="#000000" stroke="#000000" points="2452.4623,-376.971 2463.0073,-375.9449 2454.124,-370.1711 2452.4623,-376.971"/>
</g>
<!-- node_38 -->
<g id="node22" class="node">
<title>node_38</title>
<polygon fill="none" stroke="#000000" points="1153.7892,-484 988.2108,-484 988.2108,-448 1153.7892,-448 1153.7892,-484"/>
<text text-anchor="middle" x="1071" y="-461.8" font-family="Times,serif" font-size="14.00" fill="#000000">transmit searcher1&#45;&gt;Client</text>
</g>
<!-- node_32 -->
<g id="node26" class="node">
<title>node_32</title>
<polygon fill="none" stroke="#000000" points="1991.3731,-412 1882.6269,-412 1882.6269,-376 1991.3731,-376 1991.3731,-412"/>
<text text-anchor="middle" x="1937" y="-389.8" font-family="Times,serif" font-size="14.00" fill="#000000">accept searcher1</text>
</g>
<!-- node_38&#45;&gt;node_32 -->
<g id="edge53" class="edge">
<title>node_38&#45;&gt;node_32</title>
<path fill="none" stroke="#000000" stroke-dasharray="1,5" d="M1154.1597,-449.1781C1157.1385,-448.7513 1160.0922,-448.3562 1163,-448 1473.6832,-409.9388 1560.0152,-462.6416 1872.2847,-412.0657"/>
<polygon fill="#000000" stroke="#000000" points="1873.2375,-415.4562 1882.5378,-410.3814 1872.1027,-408.5488 1873.2375,-415.4562"/>
</g>
<!-- node_39 -->
<g id="node23" class="node">
<title>node_39</title>
<polygon fill="none" stroke="#000000" points="1314.4793,-484 1171.5207,-484 1171.5207,-448 1314.4793,-448 1314.4793,-484"/>
<text text-anchor="middle" x="1243" y="-461.8" font-family="Times,serif" font-size="14.00" fill="#000000">transmit eval1&#45;&gt;Client</text>
</g>
<!-- node_34 -->
<g id="node28" class="node">
<title>node_34</title>
<polygon fill="none" stroke="#000000" points="2094.5636,-412 2009.4364,-412 2009.4364,-376 2094.5636,-376 2094.5636,-412"/>
<text text-anchor="middle" x="2052" y="-389.8" font-family="Times,serif" font-size="14.00" fill="#000000">accept eval1</text>
</g>
<!-- node_39&#45;&gt;node_34 -->
<g id="edge55" class="edge">
<title>node_39&#45;&gt;node_34</title>
<path fill="none" stroke="#000000" stroke-dasharray="1,5" d="M1314.4377,-449.4525C1317.6615,-448.9181 1320.86,-448.4295 1324,-448 1618.7469,-407.6845 1702.8457,-468.3825 1999.2307,-411.7762"/>
<polygon fill="#000000" stroke="#000000" points="2000.2618,-415.1416 2009.4125,-409.8017 1998.9291,-408.2696 2000.2618,-415.1416"/>
</g>
<!-- node_40 -->
<g id="node24" class="node">
<title>node_40</title>
<polygon fill="none" stroke="#000000" points="1519.3165,-484 1332.6835,-484 1332.6835,-448 1519.3165,-448 1519.3165,-484"/>
<text text-anchor="middle" x="1426" y="-461.8" font-family="Times,serif" font-size="14.00" fill="#000000">transmit evalOptions1&#45;&gt;Client</text>
</g>
<!-- node_20 -->
<g id="node31" class="node">
<title>node_20</title>
<polygon fill="none" stroke="#000000" points="2242.9004,-412 2113.0996,-412 2113.0996,-376 2242.9004,-376 2242.9004,-412"/>
<text text-anchor="middle" x="2178" y="-389.8" font-family="Times,serif" font-size="14.00" fill="#000000">accept evalOptions1</text>
</g>
<!-- node_40&#45;&gt;node_20 -->
<g id="edge45" class="edge">
<title>node_40&#45;&gt;node_20</title>
<path fill="none" stroke="#000000" stroke-dasharray="1,5" d="M1519.3216,-449.0993C1522.2448,-448.7083 1525.1431,-448.3403 1528,-448 1779.4658,-418.0494 1848.6513,-449.6386 2102.8555,-412.0167"/>
<polygon fill="#000000" stroke="#000000" points="2103.3846,-415.4766 2112.7542,-410.5308 2102.3454,-408.5541 2103.3846,-415.4766"/>
</g>
<!-- node_41 -->
<g id="node25" class="node">
<title>node_41</title>
<polygon fill="none" stroke="#000000" points="1747.127,-484 1536.873,-484 1536.873,-448 1747.127,-448 1747.127,-484"/>
<text text-anchor="middle" x="1642" y="-461.8" font-family="Times,serif" font-size="14.00" fill="#000000">transmit searcherOptions1&#45;&gt;Client</text>
</g>
<!-- node_21 -->
<g id="node32" class="node">
<title>node_21</title>
<polygon fill="none" stroke="#000000" points="2414.7111,-412 2261.2889,-412 2261.2889,-376 2414.7111,-376 2414.7111,-412"/>
<text text-anchor="middle" x="2338" y="-389.8" font-family="Times,serif" font-size="14.00" fill="#000000">accept searcherOptions1</text>
</g>
<!-- node_41&#45;&gt;node_21 -->
<g id="edge46" class="edge">
<title>node_41&#45;&gt;node_21</title>
<path fill="none" stroke="#000000" stroke-dasharray="1,5" d="M1747.2648,-448.4514C1748.5165,-448.297 1749.7619,-448.1464 1751,-448 1969.4488,-422.1699 2029.1726,-442.3274 2251.1857,-411.9962"/>
<polygon fill="#000000" stroke="#000000" points="2251.7707,-415.4487 2261.1959,-410.6097 2250.8102,-408.5149 2251.7707,-415.4487"/>
</g>
<!-- node_30 -->
<g id="node41" class="node">
<title>node_30</title>
<polygon fill="none" stroke="#000000" points="1949.2619,-340 1762.7381,-340 1762.7381,-304 1949.2619,-304 1949.2619,-340"/>
<text text-anchor="middle" x="1856" y="-317.8" font-family="Times,serif" font-size="14.00" fill="#000000">transmit searcher1&#45;&gt;executor1</text>
</g>
<!-- node_32&#45;&gt;node_30 -->
<g id="edge40" class="edge">
<title>node_32&#45;&gt;node_30</title>
<path fill="none" stroke="#000000" d="M1916.5603,-375.8314C1906.6795,-367.0485 1894.6676,-356.3712 1883.955,-346.8489"/>
<polygon fill="#000000" stroke="#000000" points="1886.2326,-344.1906 1876.4332,-340.1628 1881.582,-349.4224 1886.2326,-344.1906"/>
</g>
<!-- node_33 -->
<g id="node27" class="node">
<title>node_33</title>
<polygon fill="none" stroke="#000000" points="2356.7892,-340 2149.2108,-340 2149.2108,-304 2356.7892,-304 2356.7892,-340"/>
<text text-anchor="middle" x="2253" y="-317.8" font-family="Times,serif" font-size="14.00" fill="#000000">transmit evalOptions1&#45;&gt;executor1</text>
</g>
<!-- node_33&#45;&gt;node_17 -->
<g id="edge47" class="edge">
<title>node_33&#45;&gt;node_17</title>
<path fill="none" stroke="#000000" stroke-dasharray="1,5" d="M2203.8583,-340.0007C2181.8908,-347.131 2155.4793,-354.4637 2131,-358 2049.4026,-369.7877 1841.6104,-369.6976 1760,-358 1738.801,-354.9614 1716.1556,-349.1188 1696.1481,-343.0102"/>
<polygon fill="#000000" stroke="#000000" points="1697.1451,-339.6549 1686.556,-340.0012 1695.0499,-346.334 1697.1451,-339.6549"/>
</g>
<!-- node_24 -->
<g id="node35" class="node">
<title>node_24</title>
<polygon fill="none" stroke="#000000" points="2130.9518,-340 1967.0482,-340 1967.0482,-304 2130.9518,-304 2130.9518,-340"/>
<text text-anchor="middle" x="2049" y="-317.8" font-family="Times,serif" font-size="14.00" fill="#000000">transmit eval1&#45;&gt;executor1</text>
</g>
<!-- node_34&#45;&gt;node_24 -->
<g id="edge29" class="edge">
<title>node_34&#45;&gt;node_24</title>
<path fill="none" stroke="#000000" d="M2051.243,-375.8314C2050.9221,-368.131 2050.5406,-358.9743 2050.184,-350.4166"/>
<polygon fill="#000000" stroke="#000000" points="2053.6806,-350.2589 2049.7672,-340.4133 2046.6867,-350.5503 2053.6806,-350.2589"/>
</g>
<!-- node_35 -->
<g id="node29" class="node">
<title>node_35</title>
<polygon fill="none" stroke="#000000" points="2605.5996,-340 2374.4004,-340 2374.4004,-304 2605.5996,-304 2605.5996,-340"/>
<text text-anchor="middle" x="2490" y="-317.8" font-family="Times,serif" font-size="14.00" fill="#000000">transmit searcherOptions1&#45;&gt;executor1</text>
</g>
<!-- node_35&#45;&gt;node_11 -->
<g id="edge43" class="edge">
<title>node_35&#45;&gt;node_11</title>
<path fill="none" stroke="#000000" stroke-dasharray="1,5" d="M2436.3056,-340.0059C2412.3348,-347.1372 2383.5581,-354.4692 2357,-358 2246.3073,-372.7162 1463.3624,-366.2378 1352,-358 1300.2025,-354.1684 1242.6753,-345.7838 1196.7093,-338.0698"/>
<polygon fill="#000000" stroke="#000000" points="1197.2294,-334.6081 1186.7846,-336.3847 1196.0576,-341.5093 1197.2294,-334.6081"/>
</g>
<!-- node_36 -->
<g id="node30" class="node">
<title>node_36</title>
<polygon fill="none" stroke="#000000" points="2789,-484 2744.2728,-466 2789,-448 2833.7272,-466 2789,-484"/>
<text text-anchor="middle" x="2789" y="-461.8" font-family="Times,serif" font-size="14.00" fill="#000000">Client</text>
</g>
<!-- node_20&#45;&gt;node_33 -->
<g id="edge27" class="edge">
<title>node_20&#45;&gt;node_33</title>
<path fill="none" stroke="#000000" d="M2196.9257,-375.8314C2205.9857,-367.1337 2216.9809,-356.5783 2226.8265,-347.1265"/>
<polygon fill="#000000" stroke="#000000" points="2229.2904,-349.613 2234.0804,-340.1628 2224.4426,-344.5633 2229.2904,-349.613"/>
</g>
<!-- node_21&#45;&gt;node_35 -->
<g id="edge28" class="edge">
<title>node_21&#45;&gt;node_35</title>
<path fill="none" stroke="#000000" d="M2376.356,-375.8314C2396.5044,-366.2874 2421.3752,-354.5065 2442.7083,-344.4013"/>
<polygon fill="#000000" stroke="#000000" points="2444.3807,-347.482 2451.9198,-340.038 2441.3841,-341.1558 2444.3807,-347.482"/>
</g>
<!-- node_24&#45;&gt;node_9 -->
<g id="edge48" class="edge">
<title>node_24&#45;&gt;node_9</title>
<path fill="none" stroke="#000000" stroke-dasharray="1,5" d="M1989.0223,-303.9048C1978.7221,-301.0728 1968.0881,-298.3201 1958,-296 1886.2702,-279.5035 1802.3066,-265.7184 1749.1428,-257.6624"/>
<polygon fill="#000000" stroke="#000000" points="1749.3425,-254.1532 1738.9334,-256.1285 1748.3024,-261.0755 1749.3425,-254.1532"/>
</g>
<!-- node_25 -->
<g id="node36" class="node">
<title>node_25</title>
<polygon fill="none" stroke="#000000" points="2328.5381,-484 2251.4619,-484 2251.4619,-448 2328.5381,-448 2328.5381,-484"/>
<text text-anchor="middle" x="2290" y="-461.8" font-family="Times,serif" font-size="14.00" fill="#000000">send graph</text>
</g>
<!-- node_25&#45;&gt;node_32 -->
<g id="edge25" class="edge">
<title>node_25&#45;&gt;node_32</title>
<path fill="none" stroke="#000000" d="M2251.2925,-459.984C2197.3151,-451.3344 2096.2302,-434.1932 2001.3091,-412.2088"/>
<polygon fill="#000000" stroke="#000000" points="2002.0876,-408.7966 1991.5533,-409.9268 2000.4932,-415.6126 2002.0876,-408.7966"/>
</g>
<!-- node_25&#45;&gt;node_34 -->
<g id="edge26" class="edge">
<title>node_25&#45;&gt;node_34</title>
<path fill="none" stroke="#000000" d="M2251.355,-455.3968C2215.678,-445.471 2161.017,-429.919 2104.5975,-412.1165"/>
<polygon fill="#000000" stroke="#000000" points="2105.3817,-408.6934 2094.7914,-409.0049 2103.2645,-415.3655 2105.3817,-408.6934"/>
</g>
<!-- node_25&#45;&gt;node_20 -->
<g id="edge34" class="edge">
<title>node_25&#45;&gt;node_20</title>
<path fill="none" stroke="#000000" d="M2261.7377,-447.8314C2247.5448,-438.7074 2230.1718,-427.539 2214.9364,-417.7449"/>
<polygon fill="#000000" stroke="#000000" points="2216.5578,-414.6263 2206.2533,-412.1628 2212.7724,-420.5146 2216.5578,-414.6263"/>
</g>
<!-- node_25&#45;&gt;node_21 -->
<g id="edge35" class="edge">
<title>node_25&#45;&gt;node_21</title>
<path fill="none" stroke="#000000" d="M2302.1124,-447.8314C2307.5281,-439.7079 2314.0242,-429.9637 2319.9921,-421.0118"/>
<polygon fill="#000000" stroke="#000000" points="2323.0896,-422.6753 2325.7245,-412.4133 2317.2653,-418.7923 2323.0896,-422.6753"/>
</g>
<!-- node_25&#45;&gt;node_22 -->
<g id="edge36" class="edge">
<title>node_25&#45;&gt;node_22</title>
<path fill="none" stroke="#000000" d="M2328.6394,-450.9199C2331.4595,-449.906 2334.2681,-448.9224 2337,-448 2372.168,-436.1265 2411.6043,-424.3526 2444.9203,-414.8438"/>
<polygon fill="#000000" stroke="#000000" points="2445.9338,-418.1944 2454.5976,-412.0961 2444.0218,-411.4606 2445.9338,-418.1944"/>
</g>
<!-- node_25&#45;&gt;node_23 -->
<g id="edge37" class="edge">
<title>node_25&#45;&gt;node_23</title>
<path fill="none" stroke="#000000" d="M2328.7525,-450.341C2331.5205,-449.4756 2334.2885,-448.6825 2337,-448 2459.1011,-417.2664 2493.5908,-431.38 2618,-412 2618.1015,-411.9842 2618.203,-411.9684 2618.3046,-411.9525"/>
<polygon fill="#000000" stroke="#000000" points="2618.5693,-415.4548 2627.8895,-410.4165 2617.4616,-408.543 2618.5693,-415.4548"/>
</g>
<!-- node_25&#45;&gt;node_27 -->
<g id="edge19" class="edge">
<title>node_25&#45;&gt;node_27</title>
<path fill="none" stroke="#000000" d="M2251.219,-463.0821C2178.8996,-457.1856 2018.5228,-441.9664 1874.7966,-411.9791"/>
<polygon fill="#000000" stroke="#000000" points="1875.425,-408.5347 1864.9171,-409.8886 1873.9759,-415.3831 1875.425,-408.5347"/>
</g>
<!-- node_25&#45;&gt;node_28 -->
<g id="edge21" class="edge">
<title>node_25&#45;&gt;node_28</title>
<path fill="none" stroke="#000000" d="M2328.7035,-450.1313C2331.4832,-449.3158 2334.2672,-448.5912 2337,-448 2593.0796,-392.6046 2668.1672,-446.4994 2931.7316,-412.0325"/>
<polygon fill="#000000" stroke="#000000" points="2932.546,-415.4548 2941.9931,-410.6587 2931.617,-408.5167 2932.546,-415.4548"/>
</g>
<!-- node_25&#45;&gt;node_31 -->
<g id="edge24" class="edge">
<title>node_25&#45;&gt;node_31</title>
<path fill="none" stroke="#000000" d="M2328.7139,-450.1788C2331.4911,-449.352 2334.2717,-448.6119 2337,-448 2540.7829,-402.2982 2602.4783,-449.1952 2811.7157,-411.9914"/>
<polygon fill="#000000" stroke="#000000" points="2812.5814,-415.3914 2821.792,-410.1555 2811.3266,-408.5048 2812.5814,-415.3914"/>
</g>
<!-- node_26 -->
<g id="node37" class="node">
<title>node_26</title>
<polygon fill="none" stroke="#000000" points="3091.7374,-340 2864.2626,-340 2864.2626,-304 3091.7374,-304 3091.7374,-340"/>
<text text-anchor="middle" x="2978" y="-317.8" font-family="Times,serif" font-size="14.00" fill="#000000">transmit classifierOptions&#45;&gt;executor2</text>
</g>
<!-- node_26&#45;&gt;node_2 -->
<g id="edge44" class="edge">
<title>node_26&#45;&gt;node_2</title>
<path fill="none" stroke="#000000" stroke-dasharray="1,5" d="M3072.6865,-340.071C3180.538,-363.4257 3342,-408.0642 3342,-466 3342,-538 3342,-538 3342,-538 3342,-660.66 1382.9854,-679.0344 947.212,-681.6043"/>
<polygon fill="#000000" stroke="#000000" points="946.8767,-678.1061 936.8971,-681.6638 946.9172,-685.106 946.8767,-678.1061"/>
</g>
<!-- node_28&#45;&gt;node_26 -->
<g id="edge38" class="edge">
<title>node_28&#45;&gt;node_26</title>
<path fill="none" stroke="#000000" d="M3007.1587,-375.8314C3002.8043,-367.7925 2997.5902,-358.1666 2992.7831,-349.2918"/>
<polygon fill="#000000" stroke="#000000" points="2995.8143,-347.5392 2987.9739,-340.4133 2989.6592,-350.8732 2995.8143,-347.5392"/>
</g>
<!-- node_29 -->
<g id="node40" class="node">
<title>node_29</title>
<polygon fill="none" stroke="#000000" points="2423.5381,-484 2346.4619,-484 2346.4619,-448 2423.5381,-448 2423.5381,-484"/>
<text text-anchor="middle" x="2385" y="-461.8" font-family="Times,serif" font-size="14.00" fill="#000000">send graph</text>
</g>
<!-- node_29&#45;&gt;node_32 -->
<g id="edge22" class="edge">
<title>node_29&#45;&gt;node_32</title>
<path fill="none" stroke="#000000" d="M2346.2638,-450.2746C2343.4919,-449.425 2340.7186,-448.6536 2338,-448 2194.2689,-413.4463 2150.1781,-439.6771 2001.4465,-412.0879"/>
<polygon fill="#000000" stroke="#000000" points="2001.9748,-408.6257 1991.4964,-410.1916 2000.6643,-415.5019 2001.9748,-408.6257"/>
</g>
<!-- node_29&#45;&gt;node_34 -->
<g id="edge23" class="edge">
<title>node_29&#45;&gt;node_34</title>
<path fill="none" stroke="#000000" d="M2346.2272,-450.4195C2343.464,-449.5354 2340.7027,-448.7166 2338,-448 2239.3704,-421.8471 2208.025,-436.3668 2104.569,-411.8646"/>
<polygon fill="#000000" stroke="#000000" points="2105.2088,-408.4183 2094.6647,-409.4534 2103.5529,-415.2196 2105.2088,-408.4183"/>
</g>
<!-- node_29&#45;&gt;node_20 -->
<g id="edge30" class="edge">
<title>node_29&#45;&gt;node_20</title>
<path fill="none" stroke="#000000" d="M2346.3173,-451.0439C2343.5074,-450.001 2340.7129,-448.9769 2338,-448 2306.8985,-436.8012 2272.1554,-424.9917 2243.0118,-415.282"/>
<polygon fill="#000000" stroke="#000000" points="2243.9499,-411.9056 2233.3564,-412.0736 2241.7425,-418.5485 2243.9499,-411.9056"/>
</g>
<!-- node_29&#45;&gt;node_21 -->
<g id="edge31" class="edge">
<title>node_29&#45;&gt;node_21</title>
<path fill="none" stroke="#000000" d="M2373.1399,-447.8314C2367.8371,-439.7079 2361.4763,-429.9637 2355.6327,-421.0118"/>
<polygon fill="#000000" stroke="#000000" points="2358.4169,-418.8739 2350.0198,-412.4133 2352.5552,-422.7003 2358.4169,-418.8739"/>
</g>
<!-- node_29&#45;&gt;node_22 -->
<g id="edge32" class="edge">
<title>node_29&#45;&gt;node_22</title>
<path fill="none" stroke="#000000" d="M2419.3185,-447.8314C2437.0359,-438.4516 2458.8345,-426.9112 2477.6984,-416.9244"/>
<polygon fill="#000000" stroke="#000000" points="2479.4922,-419.935 2486.6924,-412.1628 2476.2169,-413.7485 2479.4922,-419.935"/>
</g>
<!-- node_29&#45;&gt;node_23 -->
<g id="edge33" class="edge">
<title>node_29&#45;&gt;node_23</title>
<path fill="none" stroke="#000000" d="M2423.6177,-457.5998C2472.1992,-447.0322 2557.2348,-428.535 2623.1187,-414.2038"/>
<polygon fill="#000000" stroke="#000000" points="2624.0786,-417.5769 2633.1062,-412.0313 2622.5907,-410.7369 2624.0786,-417.5769"/>
</g>
<!-- node_29&#45;&gt;node_27 -->
<g id="edge39" class="edge">
<title>node_29&#45;&gt;node_27</title>
<path fill="none" stroke="#000000" d="M2346.2847,-450.1849C2343.5078,-449.3567 2340.7277,-448.6145 2338,-448 2139.4668,-403.2727 2079.2683,-448.4315 1875.3452,-412.0049"/>
<polygon fill="#000000" stroke="#000000" points="1875.6761,-408.5074 1865.2092,-410.1488 1874.4152,-415.3929 1875.6761,-408.5074"/>
</g>
<!-- node_29&#45;&gt;node_28 -->
<g id="edge41" class="edge">
<title>node_29&#45;&gt;node_28</title>
<path fill="none" stroke="#000000" d="M2423.7239,-463.6923C2512.101,-458.1025 2735.555,-442.1419 2932.0448,-412.0521"/>
<polygon fill="#000000" stroke="#000000" points="2932.625,-415.504 2941.9722,-410.5161 2931.5546,-408.5864 2932.625,-415.504"/>
</g>
<!-- node_29&#45;&gt;node_31 -->
<g id="edge20" class="edge">
<title>node_29&#45;&gt;node_31</title>
<path fill="none" stroke="#000000" d="M2423.7231,-463.2792C2497.5473,-457.6273 2663.5402,-442.6864 2811.889,-412.0389"/>
<polygon fill="#000000" stroke="#000000" points="2813.0165,-415.3787 2822.0856,-409.9013 2811.5802,-408.5276 2813.0165,-415.3787"/>
</g>
<!-- node_30&#45;&gt;node_18 -->
<g id="edge50" class="edge">
<title>node_30&#45;&gt;node_18</title>
<path fill="none" stroke="#000000" stroke-dasharray="1,5" d="M1782.7684,-303.9005C1744.3415,-294.2726 1696.2547,-282.0216 1645.4614,-268.3646"/>
<polygon fill="#000000" stroke="#000000" points="1646.1753,-264.9321 1635.6089,-265.7069 1644.3522,-271.6906 1646.1753,-264.9321"/>
</g>
</g>
</svg>
