<?xml version="1.0" encoding="UTF-8" standalone="yes"?><svg xmlns="http://www.w3.org/2000/svg" xmlns:xlink="http://www.w3.org/1999/xlink" height="990px" style="width:533px;height:990px;" version="1.1" viewBox="0 0 533 990" width="533px"><defs><filter height="300%" id="f1" width="300%" x="-1" y="-1"><feGaussianBlur result="blurOut" stdDeviation="2.0"/><feColorMatrix in="blurOut" result="blurOut2" type="matrix" values="0 0 0 0 0 0 0 0 0 0 0 0 0 0 0 0 0 0 .4 0"/><feOffset dx="4.0" dy="4.0" in="blurOut2" result="blurOut3"/><feBlend in="SourceGraphic" in2="blurOut3" mode="normal"/></filter></defs><g><rect fill="#F8F8F8" filter="url(#f1)" height="99.274" style="stroke: #383838; stroke-width: 1.5;" width="152" x="172" y="8"/><ellipse cx="210.3" cy="23" fill="#B1B1B1" rx="10" ry="10" style="stroke: #383838; stroke-width: 1.0;"/><path d="M207.3918,19.6733 L207.3918,18.0229 L213.0349,18.0229 L213.0349,19.6733 L211.1496,19.6733 L211.1496,25.8496 L213.0349,25.8496 L213.0349,27.5 L207.3918,27.5 L207.3918,25.8496 L209.2771,25.8496 L209.2771,19.6733 Z "/><text fill="#000000" font-family="Avenir" font-size="13" font-style="italic" lengthAdjust="spacingAndGlyphs" textLength="68" x="228.7" y="27.121">IQualifiable</text><line style="stroke: #383838; stroke-width: 1.5;" x1="173" x2="323" y1="38" y2="38"/><text fill="#000000" font-family="Avenir" font-size="13" lengthAdjust="spacingAndGlyphs" textLength="91" x="178" y="55">qualifier : String</text><text fill="#000000" font-family="Avenir" font-size="13" lengthAdjust="spacingAndGlyphs" textLength="140" x="178" y="72.758">metaTags : List&lt;String&gt;</text><text fill="#000000" font-family="Avenir" font-size="13" lengthAdjust="spacingAndGlyphs" textLength="118" x="178" y="90.516">simpleName : String</text><line style="stroke: #383838; stroke-width: 1.5;" x1="173" x2="323" y1="99.274" y2="99.274"/><rect fill="#F8F8F8" filter="url(#f1)" height="63.758" style="stroke: #383838; stroke-width: 1.5;" width="155" x="359.5" y="25.5"/><ellipse cx="386.55" cy="40.5" fill="#B1B1B1" rx="10" ry="10" style="stroke: #383838; stroke-width: 1.0;"/><path d="M383.6418,37.1733 L383.6418,35.5229 L389.2849,35.5229 L389.2849,37.1733 L387.3996,37.1733 L387.3996,43.3496 L389.2849,43.3496 L389.2849,45 L383.6418,45 L383.6418,43.3496 L385.5271,43.3496 L385.5271,37.1733 Z "/><text fill="#000000" font-family="Avenir" font-size="13" font-style="italic" lengthAdjust="spacingAndGlyphs" textLength="96" x="402.45" y="44.621">CommentAware</text><line style="stroke: #383838; stroke-width: 1.5;" x1="360.5" x2="513.5" y1="55.5" y2="55.5"/><text fill="#000000" font-family="Avenir" font-size="13" lengthAdjust="spacingAndGlyphs" textLength="143" x="365.5" y="72.5">comments : List&lt;String&gt;</text><line style="stroke: #383838; stroke-width: 1.5;" x1="360.5" x2="513.5" y1="81.258" y2="81.258"/><rect fill="#F8F8F8" filter="url(#f1)" height="63.758" style="stroke: #383838; stroke-width: 1.5;" width="207" x="23.5" y="525"/><ellipse cx="85.5" cy="540" fill="#C2C2C2" rx="10" ry="10" style="stroke: #383838; stroke-width: 1.0;"/><path d="M87.3618,544.2271 Q86.9175,544.4556 86.4287,544.5698 Q85.9399,544.6841 85.4004,544.6841 Q83.4834,544.6841 82.4741,543.4209 Q81.4648,542.1577 81.4648,539.771 Q81.4648,537.3779 82.4741,536.1147 Q83.4834,534.8516 85.4004,534.8516 Q85.9399,534.8516 86.4351,534.9658 Q86.9302,535.0801 87.3618,535.3086 L87.3618,537.3906 Q86.8794,536.9463 86.4255,536.74 Q85.9717,536.5337 85.4893,536.5337 Q84.4609,536.5337 83.9373,537.3494 Q83.4136,538.165 83.4136,539.771 Q83.4136,541.3706 83.9373,542.1863 Q84.4609,543.002 85.4893,543.002 Q85.9717,543.002 86.4255,542.7957 Q86.8794,542.5894 87.3618,542.145 Z "/><text fill="#000000" font-family="Avenir" font-size="13" lengthAdjust="spacingAndGlyphs" textLength="75" x="104.5" y="544.121">MethodDesc</text><line style="stroke: #383838; stroke-width: 1.5;" x1="24.5" x2="229.5" y1="555" y2="555"/><text fill="#000000" font-family="Avenir" font-size="13" lengthAdjust="spacingAndGlyphs" textLength="195" x="29.5" y="572">signatures : List&lt;ISignatureDesc&gt;</text><line style="stroke: #383838; stroke-width: 1.5;" x1="24.5" x2="229.5" y1="580.758" y2="580.758"/><rect fill="#F8F8F8" filter="url(#f1)" height="117.032" style="stroke: #383838; stroke-width: 1.5;" width="163" x="45.5" y="864"/><ellipse cx="59.5" cy="879" fill="#C2C2C2" rx="10" ry="10" style="stroke: #383838; stroke-width: 1.0;"/><path d="M61.3618,883.2271 Q60.9175,883.4556 60.4287,883.5698 Q59.9399,883.6841 59.4004,883.6841 Q57.4834,883.6841 56.4741,882.4209 Q55.4648,881.1577 55.4648,878.771 Q55.4648,876.3779 56.4741,875.1147 Q57.4834,873.8516 59.4004,873.8516 Q59.9399,873.8516 60.4351,873.9658 Q60.9302,874.0801 61.3618,874.3086 L61.3618,876.3906 Q60.8794,875.9463 60.4255,875.74 Q59.9717,875.5337 59.4893,875.5337 Q58.4609,875.5337 57.9373,876.3494 Q57.4136,877.165 57.4136,878.771 Q57.4136,880.3706 57.9373,881.1863 Q58.4609,882.002 59.4893,882.002 Q59.9717,882.002 60.4255,881.7957 Q60.8794,881.5894 61.3618,881.145 Z "/><text fill="#000000" font-family="Avenir" font-size="13" lengthAdjust="spacingAndGlyphs" textLength="133" x="72.5" y="883.121">MethodParameterDesc</text><line style="stroke: #383838; stroke-width: 1.5;" x1="46.5" x2="207.5" y1="894" y2="894"/><text fill="#000000" font-family="Avenir" font-size="13" lengthAdjust="spacingAndGlyphs" textLength="70" x="51.5" y="911">type : String</text><text fill="#000000" font-family="Avenir" font-size="13" lengthAdjust="spacingAndGlyphs" textLength="77" x="51.5" y="928.758">name : String</text><text fill="#000000" font-family="Avenir" font-size="13" lengthAdjust="spacingAndGlyphs" textLength="105" x="51.5" y="946.516">fixedValue : String</text><text fill="#000000" font-family="Avenir" font-size="13" lengthAdjust="spacingAndGlyphs" textLength="125" x="51.5" y="964.274">callByValue : boolean</text><line style="stroke: #383838; stroke-width: 1.5;" x1="46.5" x2="207.5" y1="973.032" y2="973.032"/><rect fill="#F8F8F8" filter="url(#f1)" height="81.516" style="stroke: #383838; stroke-width: 1.5;" width="210" x="222" y="168"/><ellipse cx="259.85" cy="183" fill="#C2C2C2" rx="10" ry="10" style="stroke: #383838; stroke-width: 1.0;"/><path d="M261.7118,187.2271 Q261.2675,187.4556 260.7787,187.5698 Q260.2899,187.6841 259.7504,187.6841 Q257.8334,187.6841 256.8241,186.4209 Q255.8148,185.1577 255.8148,182.771 Q255.8148,180.3779 256.8241,179.1147 Q257.8334,177.8516 259.7504,177.8516 Q260.2899,177.8516 260.7851,177.9658 Q261.2802,178.0801 261.7118,178.3086 L261.7118,180.3906 Q261.2294,179.9463 260.7755,179.74 Q260.3217,179.5337 259.8393,179.5337 Q258.8109,179.5337 258.2873,180.3494 Q257.7636,181.165 257.7636,182.771 Q257.7636,184.3706 258.2873,185.1863 Q258.8109,186.002 259.8393,186.002 Q260.3217,186.002 260.7755,185.7957 Q261.2294,185.5894 261.7118,185.145 Z "/><text fill="#000000" font-family="Avenir" font-size="13" lengthAdjust="spacingAndGlyphs" textLength="127" x="278.15" y="187.121">ServiceCollectionDesc</text><line style="stroke: #383838; stroke-width: 1.5;" x1="223" x2="431" y1="198" y2="198"/><text fill="#000000" font-family="Avenir" font-size="13" lengthAdjust="spacingAndGlyphs" textLength="167" x="228" y="215">services : List&lt;IServiceDesc&gt;</text><text fill="#000000" font-family="Avenir" font-size="13" lengthAdjust="spacingAndGlyphs" textLength="198" x="228" y="232.758">dataTypes : List&lt;IDataTypeDesc&gt;</text><line style="stroke: #383838; stroke-width: 1.5;" x1="223" x2="431" y1="241.516" y2="241.516"/><rect fill="#F8F8F8" filter="url(#f1)" height="117.032" style="stroke: #383838; stroke-width: 1.5;" width="202" x="322" y="329"/><ellipse cx="384.5" cy="344" fill="#C2C2C2" rx="10" ry="10" style="stroke: #383838; stroke-width: 1.0;"/><path d="M386.3618,348.2271 Q385.9175,348.4556 385.4287,348.5698 Q384.9399,348.6841 384.4004,348.6841 Q382.4834,348.6841 381.4741,347.4209 Q380.4648,346.1577 380.4648,343.771 Q380.4648,341.3779 381.4741,340.1147 Q382.4834,338.8516 384.4004,338.8516 Q384.9399,338.8516 385.4351,338.9658 Q385.9302,339.0801 386.3618,339.3086 L386.3618,341.3906 Q385.8794,340.9463 385.4255,340.74 Q384.9717,340.5337 384.4893,340.5337 Q383.4609,340.5337 382.9373,341.3494 Q382.4136,342.165 382.4136,343.771 Q382.4136,345.3706 382.9373,346.1863 Q383.4609,347.002 384.4893,347.002 Q384.9717,347.002 385.4255,346.7957 Q385.8794,346.5894 386.3618,346.145 Z "/><text fill="#000000" font-family="Avenir" font-size="13" lengthAdjust="spacingAndGlyphs" textLength="69" x="403.5" y="348.121">ServiceDesc</text><line style="stroke: #383838; stroke-width: 1.5;" x1="323" x2="523" y1="359" y2="359"/><text fill="#000000" font-family="Avenir" font-size="13" lengthAdjust="spacingAndGlyphs" textLength="179" x="328" y="376">methods : List&lt;IMethodDesc&gt;</text><text fill="#000000" font-family="Avenir" font-size="13" lengthAdjust="spacingAndGlyphs" textLength="138" x="328" y="393.758">interfaces : List&lt;String&gt;</text><text fill="#000000" font-family="Avenir" font-size="13" lengthAdjust="spacingAndGlyphs" textLength="117" x="328" y="411.516">isAbstract : boolean</text><text fill="#000000" font-family="Avenir" font-size="13" lengthAdjust="spacingAndGlyphs" textLength="190" x="328" y="429.274">fieldTypes : Map&lt;String, String&gt;</text><line style="stroke: #383838; stroke-width: 1.5;" x1="323" x2="523" y1="438.032" y2="438.032"/><rect fill="#F8F8F8" filter="url(#f1)" height="117.032" style="stroke: #383838; stroke-width: 1.5;" width="242" x="6" y="668"/><ellipse cx="81.5" cy="683" fill="#C2C2C2" rx="10" ry="10" style="stroke: #383838; stroke-width: 1.0;"/><path d="M83.3618,687.2271 Q82.9175,687.4556 82.4287,687.5698 Q81.9399,687.6841 81.4004,687.6841 Q79.4834,687.6841 78.4741,686.4209 Q77.4648,685.1577 77.4648,682.771 Q77.4648,680.3779 78.4741,679.1147 Q79.4834,677.8516 81.4004,677.8516 Q81.9399,677.8516 82.4351,677.9658 Q82.9302,678.0801 83.3618,678.3086 L83.3618,680.3906 Q82.8794,679.9463 82.4255,679.74 Q81.9717,679.5337 81.4893,679.5337 Q80.4609,679.5337 79.9373,680.3494 Q79.4136,681.165 79.4136,682.771 Q79.4136,684.3706 79.9373,685.1863 Q80.4609,686.002 81.4893,686.002 Q81.9717,686.002 82.4255,685.7957 Q82.8794,685.5894 83.3618,685.145 Z "/><text fill="#000000" font-family="Avenir" font-size="13" lengthAdjust="spacingAndGlyphs" textLength="83" x="100.5" y="687.121">SignatureDesc</text><line style="stroke: #383838; stroke-width: 1.5;" x1="7" x2="247" y1="698" y2="698"/><text fill="#000000" font-family="Avenir" font-size="13" lengthAdjust="spacingAndGlyphs" textLength="221" x="12" y="715">inputs : List&lt;IMethodParameterDesc&gt;</text><text fill="#000000" font-family="Avenir" font-size="13" lengthAdjust="spacingAndGlyphs" textLength="230" x="12" y="732.758">outputs : List&lt;IMethodParameterDesc&gt;</text><text fill="#000000" font-family="Avenir" font-size="13" lengthAdjust="spacingAndGlyphs" textLength="94" x="12" y="750.516">isPure : boolean</text><text fill="#000000" font-family="Avenir" font-size="13" lengthAdjust="spacingAndGlyphs" textLength="139" x="12" y="768.274">isContextFree : boolean</text><line style="stroke: #383838; stroke-width: 1.5;" x1="7" x2="247" y1="777.032" y2="777.032"/><rect fill="#F8F8F8" filter="url(#f1)" height="63.758" style="stroke: #383838; stroke-width: 1.5;" width="136" x="151" y="355.5"/><ellipse cx="174.45" cy="370.5" fill="#C2C2C2" rx="10" ry="10" style="stroke: #383838; stroke-width: 1.0;"/><path d="M176.3118,374.7271 Q175.8675,374.9556 175.3787,375.0698 Q174.8899,375.1841 174.3504,375.1841 Q172.4334,375.1841 171.4241,373.9209 Q170.4148,372.6577 170.4148,370.271 Q170.4148,367.8779 171.4241,366.6147 Q172.4334,365.3516 174.3504,365.3516 Q174.8899,365.3516 175.3851,365.4658 Q175.8802,365.5801 176.3118,365.8086 L176.3118,367.8906 Q175.8294,367.4463 175.3755,367.24 Q174.9217,367.0337 174.4393,367.0337 Q173.4109,367.0337 172.8873,367.8494 Q172.3636,368.665 172.3636,370.271 Q172.3636,371.8706 172.8873,372.6863 Q173.4109,373.502 174.4393,373.502 Q174.9217,373.502 175.3755,373.2957 Q175.8294,373.0894 176.3118,372.645 Z "/><text fill="#000000" font-family="Avenir" font-size="13" lengthAdjust="spacingAndGlyphs" textLength="85" x="189.55" y="374.621">DataTypeDesc</text><line style="stroke: #383838; stroke-width: 1.5;" x1="152" x2="286" y1="385.5" y2="385.5"/><text fill="#000000" font-family="Avenir" font-size="13" lengthAdjust="spacingAndGlyphs" textLength="124" x="157" y="402.5">semanticType : String</text><line style="stroke: #383838; stroke-width: 1.5;" x1="152" x2="286" y1="411.258" y2="411.258"/><path d="M210.86,124.95 C203.76,138.94 196.76,153.77 191,168 C162.44,238.49 147.07,254.26 133,329 C120.02,397.96 122.19,480.77 124.72,524.83 " fill="none" style="stroke: #383838; stroke-width: 1.0;"/><polygon fill="none" points="204.68,121.65,220.14,107.16,217.09,128.13,204.68,121.65" style="stroke: #383838; stroke-width: 1.0;"/><path d="M283.17,125.06 C290.86,139.6 298.76,154.56 305.71,167.7 " fill="none" style="stroke: #383838; stroke-width: 1.0;"/><polygon fill="none" points="276.8,127.99,273.65,107.04,289.18,121.45,276.8,127.99" style="stroke: #383838; stroke-width: 1.0;"/><path d="M342.02,108.13 C393.93,135.75 448.3,165.15 450,168 C478.94,216.61 465.39,282.04 448.81,328.6 " fill="none" style="stroke: #383838; stroke-width: 1.0;"/><polygon fill="none" points="338.61,114.24,324.23,98.68,345.17,101.88,338.61,114.24" style="stroke: #383838; stroke-width: 1.0;"/><path d="M216.31,125.81 C211.2,139.49 206.71,153.99 204,168 C191.26,233.89 203.22,312.79 211.87,355.43 " fill="none" style="stroke: #383838; stroke-width: 1.0;"/><polygon fill="none" points="209.86,123.1,223.81,107.16,222.84,128.32,209.86,123.1" style="stroke: #383838; stroke-width: 1.0;"/><path d="M127,589.11 C127,609.69 127,637.4 127,662.47 " fill="none" style="stroke: #383838; stroke-width: 1.0;"/><polygon fill="#383838" points="127,667.78,131,658.78,127,662.78,123,658.78,127,667.78" style="stroke: #383838; stroke-width: 1.0;"/><text fill="#000000" font-family="Avenir" font-size="13" lengthAdjust="spacingAndGlyphs" textLength="59" x="128" y="633">signatures</text><text fill="#000000" font-family="Avenir" font-size="13" lengthAdjust="spacingAndGlyphs" textLength="6" x="120.6156" y="655.2139">*</text><path d="M302.49,250.05 C283.94,280.37 258.7,321.63 240.84,350.82 " fill="none" style="stroke: #383838; stroke-width: 1.0;"/><polygon fill="#383838" points="238.03,355.39,246.14,349.8017,240.6401,351.1254,239.3165,345.6255,238.03,355.39" style="stroke: #383838; stroke-width: 1.0;"/><text fill="#000000" font-family="Avenir" font-size="13" lengthAdjust="spacingAndGlyphs" textLength="60" x="283" y="294">dataTypes</text><text fill="#000000" font-family="Avenir" font-size="13" lengthAdjust="spacingAndGlyphs" textLength="6" x="235.5366" y="342.6159">*</text><path d="M348.78,250.05 C360.71,271.98 375.75,299.63 389.17,324.3 " fill="none" style="stroke: #383838; stroke-width: 1.0;"/><polygon fill="#383838" points="391.65,328.87,390.8631,319.0526,389.2608,324.4778,383.8356,322.8754,391.65,328.87" style="stroke: #383838; stroke-width: 1.0;"/><text fill="#000000" font-family="Avenir" font-size="13" lengthAdjust="spacingAndGlyphs" textLength="45" x="376" y="294">services</text><text fill="#000000" font-family="Avenir" font-size="13" lengthAdjust="spacingAndGlyphs" textLength="6" x="381.2489" y="316.3155">*</text><path d="M321.96,445.68 C276.9,471.18 225.36,500.34 186.59,522.28 " fill="none" style="stroke: #383838; stroke-width: 1.0;"/><polygon fill="#383838" points="181.93,524.92,191.7342,523.9833,186.2852,522.4639,187.8045,517.0149,181.93,524.92" style="stroke: #383838; stroke-width: 1.0;"/><text fill="#000000" font-family="Avenir" font-size="13" lengthAdjust="spacingAndGlyphs" textLength="51" x="267" y="490">methods</text><text fill="#000000" font-family="Avenir" font-size="13" lengthAdjust="spacingAndGlyphs" textLength="6" x="187.2897" y="512.1525">*</text><path d="M127,785.18 C127,808.23 127,834.85 127,858.42 " fill="none" style="stroke: #383838; stroke-width: 1.0;"/><polygon fill="#383838" points="127,863.71,131,854.71,127,858.71,123,854.71,127,863.71" style="stroke: #383838; stroke-width: 1.0;"/><text fill="#000000" font-family="Avenir" font-size="13" lengthAdjust="spacingAndGlyphs" textLength="84" x="128" y="829">inputs/outputs</text><text fill="#000000" font-family="Avenir" font-size="13" lengthAdjust="spacingAndGlyphs" textLength="6" x="120.6531" y="805.9897">*</text><text fill="#000000" font-family="Avenir" font-size="13" lengthAdjust="spacingAndGlyphs" textLength="6" x="120.6156" y="851.135">*</text></g></svg>