<?xml version="1.0" encoding="UTF-8" standalone="yes"?><svg xmlns="http://www.w3.org/2000/svg" xmlns:xlink="http://www.w3.org/1999/xlink" height="1473px" style="width:718px;height:1473px;" version="1.1" viewBox="0 0 718 1473" width="718px"><defs><filter height="300%" id="f1" width="300%" x="-1" y="-1"><feGaussianBlur result="blurOut" stdDeviation="2.0"/><feColorMatrix in="blurOut" result="blurOut2" type="matrix" values="0 0 0 0 0 0 0 0 0 0 0 0 0 0 0 0 0 0 .4 0"/><feOffset dx="4.0" dy="4.0" in="blurOut2" result="blurOut3"/><feBlend in="SourceGraphic" in2="blurOut3" mode="normal"/></filter></defs><g><rect fill="#FEFECE" filter="url(#f1)" height="48" style="stroke: #A80036; stroke-width: 1.5;" width="119" x="201.5" y="320"/><ellipse cx="216.5" cy="336" fill="#B4A7E5" rx="11" ry="11" style="stroke: #A80036; stroke-width: 1.0;"/><path d="M212.9277,332.2651 L212.9277,330.1069 L220.3071,330.1069 L220.3071,332.2651 L217.8418,332.2651 L217.8418,340.3418 L220.3071,340.3418 L220.3071,342.5 L212.9277,342.5 L212.9277,340.3418 L215.3931,340.3418 L215.3931,332.2651 Z "/><text fill="#000000" font-family="sans-serif" font-size="12" font-style="italic" lengthAdjust="spacingAndGlyphs" textLength="87" x="230.5" y="340.5352">IDataTypeDesc</text><line style="stroke: #A80036; stroke-width: 1.5;" x1="202.5" x2="319.5" y1="352" y2="352"/><line style="stroke: #A80036; stroke-width: 1.5;" x1="202.5" x2="319.5" y1="360" y2="360"/><rect fill="#FEFECE" filter="url(#f1)" height="48" style="stroke: #A80036; stroke-width: 1.5;" width="106" x="414" y="658"/><ellipse cx="429" cy="674" fill="#B4A7E5" rx="11" ry="11" style="stroke: #A80036; stroke-width: 1.0;"/><path d="M425.4277,670.2651 L425.4277,668.1069 L432.8071,668.1069 L432.8071,670.2651 L430.3418,670.2651 L430.3418,678.3418 L432.8071,678.3418 L432.8071,680.5 L425.4277,680.5 L425.4277,678.3418 L427.8931,678.3418 L427.8931,670.2651 Z "/><text fill="#000000" font-family="sans-serif" font-size="12" font-style="italic" lengthAdjust="spacingAndGlyphs" textLength="74" x="443" y="678.5352">IMethodDesc</text><line style="stroke: #A80036; stroke-width: 1.5;" x1="415" x2="519" y1="690" y2="690"/><line style="stroke: #A80036; stroke-width: 1.5;" x1="415" x2="519" y1="698" y2="698"/><rect fill="#FEFECE" filter="url(#f1)" height="48" style="stroke: #A80036; stroke-width: 1.5;" width="166" x="515" y="1256"/><ellipse cx="530" cy="1272" fill="#B4A7E5" rx="11" ry="11" style="stroke: #A80036; stroke-width: 1.0;"/><path d="M526.4277,1268.2651 L526.4277,1266.1069 L533.8071,1266.1069 L533.8071,1268.2651 L531.3418,1268.2651 L531.3418,1276.3418 L533.8071,1276.3418 L533.8071,1278.5 L526.4277,1278.5 L526.4277,1276.3418 L528.8931,1276.3418 L528.8931,1268.2651 Z "/><text fill="#000000" font-family="sans-serif" font-size="12" font-style="italic" lengthAdjust="spacingAndGlyphs" textLength="134" x="544" y="1276.5352">IMethodParameterDesc</text><line style="stroke: #A80036; stroke-width: 1.5;" x1="516" x2="680" y1="1288" y2="1288"/><line style="stroke: #A80036; stroke-width: 1.5;" x1="516" x2="680" y1="1296" y2="1296"/><rect fill="#FEFECE" filter="url(#f1)" height="48" style="stroke: #A80036; stroke-width: 1.5;" width="96" x="65" y="8"/><ellipse cx="80" cy="24" fill="#B4A7E5" rx="11" ry="11" style="stroke: #A80036; stroke-width: 1.0;"/><path d="M76.4277,20.2651 L76.4277,18.1069 L83.8071,18.1069 L83.8071,20.2651 L81.3418,20.2651 L81.3418,28.3418 L83.8071,28.3418 L83.8071,30.5 L76.4277,30.5 L76.4277,28.3418 L78.8931,28.3418 L78.8931,20.2651 Z "/><text fill="#000000" font-family="sans-serif" font-size="12" font-style="italic" lengthAdjust="spacingAndGlyphs" textLength="64" x="94" y="28.5352">IQualifiable</text><line style="stroke: #A80036; stroke-width: 1.5;" x1="66" x2="160" y1="40" y2="40"/><line style="stroke: #A80036; stroke-width: 1.5;" x1="66" x2="160" y1="48" y2="48"/><rect fill="#FEFECE" filter="url(#f1)" height="48" style="stroke: #A80036; stroke-width: 1.5;" width="158" x="251" y="8"/><ellipse cx="266" cy="24" fill="#B4A7E5" rx="11" ry="11" style="stroke: #A80036; stroke-width: 1.0;"/><path d="M262.4277,20.2651 L262.4277,18.1069 L269.8071,18.1069 L269.8071,20.2651 L267.3418,20.2651 L267.3418,28.3418 L269.8071,28.3418 L269.8071,30.5 L262.4277,30.5 L262.4277,28.3418 L264.8931,28.3418 L264.8931,20.2651 Z "/><text fill="#000000" font-family="sans-serif" font-size="12" font-style="italic" lengthAdjust="spacingAndGlyphs" textLength="126" x="280" y="28.5352">IServiceCollectionDesc</text><line style="stroke: #A80036; stroke-width: 1.5;" x1="252" x2="408" y1="40" y2="40"/><line style="stroke: #A80036; stroke-width: 1.5;" x1="252" x2="408" y1="48" y2="48"/><rect fill="#FEFECE" filter="url(#f1)" height="48" style="stroke: #A80036; stroke-width: 1.5;" width="103" x="355.5" y="320"/><ellipse cx="370.5" cy="336" fill="#B4A7E5" rx="11" ry="11" style="stroke: #A80036; stroke-width: 1.0;"/><path d="M366.9277,332.2651 L366.9277,330.1069 L374.3071,330.1069 L374.3071,332.2651 L371.8418,332.2651 L371.8418,340.3418 L374.3071,340.3418 L374.3071,342.5 L366.9277,342.5 L366.9277,340.3418 L369.3931,340.3418 L369.3931,332.2651 Z "/><text fill="#000000" font-family="sans-serif" font-size="12" font-style="italic" lengthAdjust="spacingAndGlyphs" textLength="71" x="384.5" y="340.5352">IServiceDesc</text><line style="stroke: #A80036; stroke-width: 1.5;" x1="356.5" x2="457.5" y1="352" y2="352"/><line style="stroke: #A80036; stroke-width: 1.5;" x1="356.5" x2="457.5" y1="360" y2="360"/><rect fill="#FEFECE" filter="url(#f1)" height="48" style="stroke: #A80036; stroke-width: 1.5;" width="116" x="475" y="957"/><ellipse cx="490" cy="973" fill="#B4A7E5" rx="11" ry="11" style="stroke: #A80036; stroke-width: 1.0;"/><path d="M486.4277,969.2651 L486.4277,967.1069 L493.8071,967.1069 L493.8071,969.2651 L491.3418,969.2651 L491.3418,977.3418 L493.8071,977.3418 L493.8071,979.5 L486.4277,979.5 L486.4277,977.3418 L488.8931,977.3418 L488.8931,969.2651 Z "/><text fill="#000000" font-family="sans-serif" font-size="12" font-style="italic" lengthAdjust="spacingAndGlyphs" textLength="84" x="504" y="977.5352">ISignatureDesc</text><line style="stroke: #A80036; stroke-width: 1.5;" x1="476" x2="590" y1="989" y2="989"/><line style="stroke: #A80036; stroke-width: 1.5;" x1="476" x2="590" y1="997" y2="997"/><rect fill="#FEFECE" filter="url(#f1)" height="48" style="stroke: #A80036; stroke-width: 1.5;" width="123" x="486.5" y="8"/><ellipse cx="501.5" cy="24" fill="#B4A7E5" rx="11" ry="11" style="stroke: #A80036; stroke-width: 1.0;"/><path d="M497.9277,20.2651 L497.9277,18.1069 L505.3071,18.1069 L505.3071,20.2651 L502.8418,20.2651 L502.8418,28.3418 L505.3071,28.3418 L505.3071,30.5 L497.9277,30.5 L497.9277,28.3418 L500.3931,28.3418 L500.3931,20.2651 Z "/><text fill="#000000" font-family="sans-serif" font-size="12" font-style="italic" lengthAdjust="spacingAndGlyphs" textLength="91" x="515.5" y="28.5352">CommentAware</text><line style="stroke: #A80036; stroke-width: 1.5;" x1="487.5" x2="608.5" y1="40" y2="40"/><line style="stroke: #A80036; stroke-width: 1.5;" x1="487.5" x2="608.5" y1="48" y2="48"/><rect fill="#FEFECE" filter="url(#f1)" height="112.7754" style="stroke: #A80036; stroke-width: 1.5;" width="195" x="375.5" y="767"/><ellipse cx="433.25" cy="783" fill="#ADD1B2" rx="11" ry="11" style="stroke: #A80036; stroke-width: 1.0;"/><path d="M435.7231,789.1431 Q435.1421,789.4419 434.5029,789.5913 Q433.8638,789.7407 433.1582,789.7407 Q430.6514,789.7407 429.3315,788.0889 Q428.0117,786.437 428.0117,783.3159 Q428.0117,780.1865 429.3315,778.5347 Q430.6514,776.8828 433.1582,776.8828 Q433.8638,776.8828 434.5112,777.0322 Q435.1587,777.1816 435.7231,777.4805 L435.7231,780.2031 Q435.0923,779.6221 434.4988,779.3523 Q433.9053,779.0825 433.2744,779.0825 Q431.9297,779.0825 431.2449,780.1492 Q430.5601,781.2158 430.5601,783.3159 Q430.5601,785.4077 431.2449,786.4744 Q431.9297,787.541 433.2744,787.541 Q433.9053,787.541 434.4988,787.2712 Q435.0923,787.0015 435.7231,786.4204 Z "/><text fill="#000000" font-family="sans-serif" font-size="12" lengthAdjust="spacingAndGlyphs" textLength="71" x="453.75" y="787.5352">MethodDesc</text><line style="stroke: #A80036; stroke-width: 1.5;" x1="376.5" x2="569.5" y1="799" y2="799"/><text fill="#000000" font-family="sans-serif" font-size="11" lengthAdjust="spacingAndGlyphs" textLength="183" x="381.5" y="813.6348">signatures : List&lt;ISignatureDesc&gt;</text><text fill="#000000" font-family="sans-serif" font-size="11" lengthAdjust="spacingAndGlyphs" textLength="85" x="381.5" y="826.5898">qualifier : String</text><text fill="#000000" font-family="sans-serif" font-size="11" lengthAdjust="spacingAndGlyphs" textLength="130" x="381.5" y="839.5449">metaTags : List&lt;String&gt;</text><text fill="#000000" font-family="sans-serif" font-size="11" lengthAdjust="spacingAndGlyphs" textLength="106" x="381.5" y="852.5">simpleName : String</text><text fill="#000000" font-family="sans-serif" font-size="11" lengthAdjust="spacingAndGlyphs" textLength="134" x="381.5" y="865.4551">comments : List&lt;String&gt;</text><line style="stroke: #A80036; stroke-width: 1.5;" x1="376.5" x2="569.5" y1="871.7754" y2="871.7754"/><rect fill="#FEFECE" filter="url(#f1)" height="99.8203" style="stroke: #A80036; stroke-width: 1.5;" width="163" x="516.5" y="1365"/><ellipse cx="531.5" cy="1381" fill="#ADD1B2" rx="11" ry="11" style="stroke: #A80036; stroke-width: 1.0;"/><path d="M533.9731,1387.1431 Q533.3921,1387.4419 532.7529,1387.5913 Q532.1138,1387.7407 531.4082,1387.7407 Q528.9014,1387.7407 527.5815,1386.0889 Q526.2617,1384.437 526.2617,1381.3159 Q526.2617,1378.1865 527.5815,1376.5347 Q528.9014,1374.8828 531.4082,1374.8828 Q532.1138,1374.8828 532.7612,1375.0322 Q533.4087,1375.1816 533.9731,1375.4805 L533.9731,1378.2031 Q533.3423,1377.6221 532.7488,1377.3523 Q532.1553,1377.0825 531.5244,1377.0825 Q530.1797,1377.0825 529.4949,1378.1492 Q528.8101,1379.2158 528.8101,1381.3159 Q528.8101,1383.4077 529.4949,1384.4744 Q530.1797,1385.541 531.5244,1385.541 Q532.1553,1385.541 532.7488,1385.2712 Q533.3423,1385.0015 533.9731,1384.4204 Z "/><text fill="#000000" font-family="sans-serif" font-size="12" lengthAdjust="spacingAndGlyphs" textLength="131" x="545.5" y="1385.5352">MethodParameterDesc</text><line style="stroke: #A80036; stroke-width: 1.5;" x1="517.5" x2="678.5" y1="1397" y2="1397"/><text fill="#000000" font-family="sans-serif" font-size="11" lengthAdjust="spacingAndGlyphs" textLength="64" x="522.5" y="1411.6348">type : String</text><text fill="#000000" font-family="sans-serif" font-size="11" lengthAdjust="spacingAndGlyphs" textLength="70" x="522.5" y="1424.5898">name : String</text><text fill="#000000" font-family="sans-serif" font-size="11" lengthAdjust="spacingAndGlyphs" textLength="97" x="522.5" y="1437.5449">fixedValue : String</text><text fill="#000000" font-family="sans-serif" font-size="11" lengthAdjust="spacingAndGlyphs" textLength="111" x="522.5" y="1450.5">callByValue : boolean</text><line style="stroke: #A80036; stroke-width: 1.5;" x1="517.5" x2="678.5" y1="1456.8203" y2="1456.8203"/><rect fill="#FEFECE" filter="url(#f1)" height="125.7305" style="stroke: #A80036; stroke-width: 1.5;" width="192" x="234" y="117"/><ellipse cx="265.65" cy="133" fill="#ADD1B2" rx="11" ry="11" style="stroke: #A80036; stroke-width: 1.0;"/><path d="M268.1231,139.1431 Q267.5421,139.4419 266.9029,139.5913 Q266.2638,139.7407 265.5582,139.7407 Q263.0514,139.7407 261.7315,138.0889 Q260.4117,136.437 260.4117,133.3159 Q260.4117,130.1865 261.7315,128.5347 Q263.0514,126.8828 265.5582,126.8828 Q266.2638,126.8828 266.9112,127.0322 Q267.5587,127.1816 268.1231,127.4805 L268.1231,130.2031 Q267.4923,129.6221 266.8988,129.3523 Q266.3053,129.0825 265.6744,129.0825 Q264.3297,129.0825 263.6449,130.1492 Q262.9601,131.2158 262.9601,133.3159 Q262.9601,135.4077 263.6449,136.4744 Q264.3297,137.541 265.6744,137.541 Q266.3053,137.541 266.8988,137.2712 Q267.4923,137.0015 268.1231,136.4204 Z "/><text fill="#000000" font-family="sans-serif" font-size="12" lengthAdjust="spacingAndGlyphs" textLength="123" x="283.35" y="137.5352">ServiceCollectionDesc</text><line style="stroke: #A80036; stroke-width: 1.5;" x1="235" x2="425" y1="149" y2="149"/><text fill="#000000" font-family="sans-serif" font-size="11" lengthAdjust="spacingAndGlyphs" textLength="157" x="240" y="163.6348">services : List&lt;IServiceDesc&gt;</text><text fill="#000000" font-family="sans-serif" font-size="11" lengthAdjust="spacingAndGlyphs" textLength="180" x="240" y="176.5898">dataTypes : List&lt;IDataTypeDesc&gt;</text><text fill="#000000" font-family="sans-serif" font-size="11" lengthAdjust="spacingAndGlyphs" textLength="134" x="240" y="189.5449">comments : List&lt;String&gt;</text><text fill="#000000" font-family="sans-serif" font-size="11" lengthAdjust="spacingAndGlyphs" textLength="85" x="240" y="202.5">qualifier : String</text><text fill="#000000" font-family="sans-serif" font-size="11" lengthAdjust="spacingAndGlyphs" textLength="130" x="240" y="215.4551">metaTags : List&lt;String&gt;</text><text fill="#000000" font-family="sans-serif" font-size="11" lengthAdjust="spacingAndGlyphs" textLength="106" x="240" y="228.4102">simpleName : String</text><line style="stroke: #A80036; stroke-width: 1.5;" x1="235" x2="425" y1="234.7305" y2="234.7305"/><rect fill="#FEFECE" filter="url(#f1)" height="151.6406" style="stroke: #A80036; stroke-width: 1.5;" width="186" x="331" y="429"/><ellipse cx="385.75" cy="445" fill="#ADD1B2" rx="11" ry="11" style="stroke: #A80036; stroke-width: 1.0;"/><path d="M388.2231,451.1431 Q387.6421,451.4419 387.0029,451.5913 Q386.3638,451.7407 385.6582,451.7407 Q383.1514,451.7407 381.8315,450.0889 Q380.5117,448.437 380.5117,445.3159 Q380.5117,442.1865 381.8315,440.5347 Q383.1514,438.8828 385.6582,438.8828 Q386.3638,438.8828 387.0112,439.0322 Q387.6587,439.1816 388.2231,439.4805 L388.2231,442.2031 Q387.5923,441.6221 386.9988,441.3523 Q386.4053,441.0825 385.7744,441.0825 Q384.4297,441.0825 383.7449,442.1492 Q383.0601,443.2158 383.0601,445.3159 Q383.0601,447.4077 383.7449,448.4744 Q384.4297,449.541 385.7744,449.541 Q386.4053,449.541 386.9988,449.2712 Q387.5923,449.0015 388.2231,448.4204 Z "/><text fill="#000000" font-family="sans-serif" font-size="12" lengthAdjust="spacingAndGlyphs" textLength="68" x="406.25" y="449.5352">ServiceDesc</text><line style="stroke: #A80036; stroke-width: 1.5;" x1="332" x2="516" y1="461" y2="461"/><text fill="#000000" font-family="sans-serif" font-size="11" lengthAdjust="spacingAndGlyphs" textLength="162" x="337" y="475.6348">methods : List&lt;IMethodDesc&gt;</text><text fill="#000000" font-family="sans-serif" font-size="11" lengthAdjust="spacingAndGlyphs" textLength="131" x="337" y="488.5898">interfaces : List&lt;String&gt;</text><text fill="#000000" font-family="sans-serif" font-size="11" lengthAdjust="spacingAndGlyphs" textLength="107" x="337" y="501.5449">isAbstract : boolean</text><text fill="#000000" font-family="sans-serif" font-size="11" lengthAdjust="spacingAndGlyphs" textLength="174" x="337" y="514.5">fieldTypes : Map&lt;String, String&gt;</text><text fill="#000000" font-family="sans-serif" font-size="11" lengthAdjust="spacingAndGlyphs" textLength="85" x="337" y="527.4551">qualifier : String</text><text fill="#000000" font-family="sans-serif" font-size="11" lengthAdjust="spacingAndGlyphs" textLength="130" x="337" y="540.4102">metaTags : List&lt;String&gt;</text><text fill="#000000" font-family="sans-serif" font-size="11" lengthAdjust="spacingAndGlyphs" textLength="106" x="337" y="553.3652">simpleName : String</text><text fill="#000000" font-family="sans-serif" font-size="11" lengthAdjust="spacingAndGlyphs" textLength="134" x="337" y="566.3203">comments : List&lt;String&gt;</text><line style="stroke: #A80036; stroke-width: 1.5;" x1="332" x2="516" y1="572.6406" y2="572.6406"/><rect fill="#FEFECE" filter="url(#f1)" height="112.7754" style="stroke: #A80036; stroke-width: 1.5;" width="223" x="486.5" y="1066"/><ellipse cx="553.25" cy="1082" fill="#ADD1B2" rx="11" ry="11" style="stroke: #A80036; stroke-width: 1.0;"/><path d="M555.7231,1088.1431 Q555.1421,1088.4419 554.5029,1088.5913 Q553.8638,1088.7407 553.1582,1088.7407 Q550.6514,1088.7407 549.3315,1087.0889 Q548.0117,1085.437 548.0117,1082.3159 Q548.0117,1079.1865 549.3315,1077.5347 Q550.6514,1075.8828 553.1582,1075.8828 Q553.8638,1075.8828 554.5112,1076.0322 Q555.1587,1076.1816 555.7231,1076.4805 L555.7231,1079.2031 Q555.0923,1078.6221 554.4988,1078.3523 Q553.9053,1078.0825 553.2744,1078.0825 Q551.9297,1078.0825 551.2449,1079.1492 Q550.5601,1080.2158 550.5601,1082.3159 Q550.5601,1084.4077 551.2449,1085.4744 Q551.9297,1086.541 553.2744,1086.541 Q553.9053,1086.541 554.4988,1086.2712 Q555.0923,1086.0015 555.7231,1085.4204 Z "/><text fill="#000000" font-family="sans-serif" font-size="12" lengthAdjust="spacingAndGlyphs" textLength="81" x="573.75" y="1086.5352">SignatureDesc</text><line style="stroke: #A80036; stroke-width: 1.5;" x1="487.5" x2="708.5" y1="1098" y2="1098"/><text fill="#000000" font-family="sans-serif" font-size="11" lengthAdjust="spacingAndGlyphs" textLength="203" x="492.5" y="1112.6348">inputs : List&lt;IMethodParameterDesc&gt;</text><text fill="#000000" font-family="sans-serif" font-size="11" lengthAdjust="spacingAndGlyphs" textLength="211" x="492.5" y="1125.5898">outputs : List&lt;IMethodParameterDesc&gt;</text><text fill="#000000" font-family="sans-serif" font-size="11" lengthAdjust="spacingAndGlyphs" textLength="85" x="492.5" y="1138.5449">isPure : boolean</text><text fill="#000000" font-family="sans-serif" font-size="11" lengthAdjust="spacingAndGlyphs" textLength="127" x="492.5" y="1151.5">isContextFree : boolean</text><text fill="#000000" font-family="sans-serif" font-size="11" lengthAdjust="spacingAndGlyphs" textLength="134" x="492.5" y="1164.4551">comments : List&lt;String&gt;</text><line style="stroke: #A80036; stroke-width: 1.5;" x1="487.5" x2="708.5" y1="1170.7754" y2="1170.7754"/><rect fill="#FEFECE" filter="url(#f1)" height="125.7305" style="stroke: #A80036; stroke-width: 1.5;" width="202" x="85" y="442"/><ellipse cx="139.75" cy="458" fill="#ADD1B2" rx="11" ry="11" style="stroke: #A80036; stroke-width: 1.0;"/><path d="M142.2231,464.1431 Q141.6421,464.4419 141.0029,464.5913 Q140.3638,464.7407 139.6582,464.7407 Q137.1514,464.7407 135.8315,463.0889 Q134.5117,461.437 134.5117,458.3159 Q134.5117,455.1865 135.8315,453.5347 Q137.1514,451.8828 139.6582,451.8828 Q140.3638,451.8828 141.0112,452.0322 Q141.6587,452.1816 142.2231,452.4805 L142.2231,455.2031 Q141.5923,454.6221 140.9988,454.3523 Q140.4053,454.0825 139.7744,454.0825 Q138.4297,454.0825 137.7449,455.1492 Q137.0601,456.2158 137.0601,458.3159 Q137.0601,460.4077 137.7449,461.4744 Q138.4297,462.541 139.7744,462.541 Q140.4053,462.541 140.9988,462.2712 Q141.5923,462.0015 142.2231,461.4204 Z "/><text fill="#000000" font-family="sans-serif" font-size="12" lengthAdjust="spacingAndGlyphs" textLength="84" x="160.25" y="462.5352">DataTypeDesc</text><line style="stroke: #A80036; stroke-width: 1.5;" x1="86" x2="286" y1="474" y2="474"/><text fill="#000000" font-family="sans-serif" font-size="11" lengthAdjust="spacingAndGlyphs" textLength="115" x="91" y="488.6348">semanticType : String</text><text fill="#000000" font-family="sans-serif" font-size="11" lengthAdjust="spacingAndGlyphs" textLength="150" x="91" y="501.5898">javaTypeAux : IJavaTypeAux</text><text fill="#000000" font-family="sans-serif" font-size="11" lengthAdjust="spacingAndGlyphs" textLength="85" x="91" y="514.5449">qualifier : String</text><text fill="#000000" font-family="sans-serif" font-size="11" lengthAdjust="spacingAndGlyphs" textLength="186" x="91" y="527.5">metaTags : ImmutableList&lt;String&gt;</text><text fill="#000000" font-family="sans-serif" font-size="11" lengthAdjust="spacingAndGlyphs" textLength="106" x="91" y="540.4551">simpleName : String</text><text fill="#000000" font-family="sans-serif" font-size="11" lengthAdjust="spacingAndGlyphs" textLength="190" x="91" y="553.4102">comments : ImmutableList&lt;String&gt;</text><line style="stroke: #A80036; stroke-width: 1.5;" x1="86" x2="286" y1="559.7305" y2="559.7305"/><path d="M563.62,75.04 C572.95,103.87 583,143.24 583,179 C583,179 583,179 583,683 C583,714.92 565.02,743.83 543.6,766.95 " fill="none" style="stroke: #A80036; stroke-width: 1.0;"/><polygon fill="none" points="556.99,77.3,557.1,56.11,570.23,72.74,556.99,77.3" style="stroke: #A80036; stroke-width: 1.0;"/><path d="M496.78,67.3 C474.67,82.11 448.08,99.92 422.7,116.91 " fill="none" style="stroke: #A80036; stroke-width: 1.0;"/><polygon fill="none" points="492.94,61.45,513.46,56.13,500.73,73.08,492.94,61.45" style="stroke: #A80036; stroke-width: 1.0;"/><path d="M540.91,76.16 C529.86,140.47 506.58,264.95 476,368 C470.07,387.99 462.56,409.22 455.1,428.82 " fill="none" style="stroke: #A80036; stroke-width: 1.0;"/><polygon fill="none" points="534.07,74.61,544.3,56.05,547.88,76.94,534.07,74.61" style="stroke: #A80036; stroke-width: 1.0;"/><path d="M594.57,69.69 C623.03,96.51 654,135.66 654,179 C654,179 654,179 654,982 C654,1010.97 643.47,1041.04 631.55,1065.82 " fill="none" style="stroke: #A80036; stroke-width: 1.0;"/><polygon fill="none" points="589.56,74.61,579.23,56.11,598.85,64.13,589.56,74.61" style="stroke: #A80036; stroke-width: 1.0;"/><path d="M468.85,726.02 C469.41,738.94 470.02,753.29 470.61,766.9 " fill="none" style="stroke: #A80036; stroke-width: 1.0;"/><polygon fill="none" points="461.86,726.32,467.99,706.04,475.84,725.72,461.86,726.32" style="stroke: #A80036; stroke-width: 1.0;"/><path d="M598,1324.32 C598,1337.3 598,1351.62 598,1364.94 " fill="none" style="stroke: #A80036; stroke-width: 1.0;"/><polygon fill="none" points="591,1324.17,598,1304.17,605,1324.17,591,1324.17" style="stroke: #A80036; stroke-width: 1.0;"/><path d="M66.39,69.23 C37.55,96.02 6,135.31 6,179 C6,179 6,179 6,683 C6,759.42 238.48,797.45 375.39,813.22 " fill="none" style="stroke: #A80036; stroke-width: 1.0;"/><polygon fill="none" points="61.81,63.94,81.48,56.05,71.02,74.48,61.81,63.94" style="stroke: #A80036; stroke-width: 1.0;"/><path d="M163.98,67.3 C186,82.11 212.46,99.92 237.72,116.91 " fill="none" style="stroke: #A80036; stroke-width: 1.0;"/><polygon fill="none" points="160.07,73.11,147.38,56.13,167.89,61.49,160.07,73.11" style="stroke: #A80036; stroke-width: 1.0;"/><path d="M123.61,75.65 C124.43,79.15 125.24,82.63 126,86 C154.13,210.83 106.39,266.27 184,368 C220.29,415.57 251.92,399.56 304,429 C312.77,433.96 321.81,439.25 330.8,444.64 " fill="none" style="stroke: #A80036; stroke-width: 1.0;"/><polygon fill="none" points="116.8,77.26,118.88,56.17,130.4,73.96,116.8,77.26" style="stroke: #A80036; stroke-width: 1.0;"/><path d="M330,76.42 C330,89.13 330,103.28 330,116.91 " fill="none" style="stroke: #A80036; stroke-width: 1.0;"/><polygon fill="none" points="323,76.13,330,56.13,337,76.13,323,76.13" style="stroke: #A80036; stroke-width: 1.0;"/><path d="M411.61,388.1 C412.95,400.67 414.46,414.78 415.95,428.73 " fill="none" style="stroke: #A80036; stroke-width: 1.0;"/><polygon fill="none" points="404.64,388.75,409.47,368.12,418.56,387.26,404.64,388.75" style="stroke: #A80036; stroke-width: 1.0;"/><path d="M552.39,1023.61 C558.57,1036.89 565.52,1051.79 572.09,1065.9 " fill="none" style="stroke: #A80036; stroke-width: 1.0;"/><polygon fill="none" points="545.84,1026.12,543.73,1005.04,558.53,1020.21,545.84,1026.12" style="stroke: #A80036; stroke-width: 1.0;"/><path d="M494.49,880.2 C503.85,904.46 514.42,931.85 522.11,951.79 " fill="none" style="stroke: #A80036; stroke-width: 1.0;"/><polygon fill="#A80036" points="524,956.69,524.4965,946.8537,522.2022,952.0244,517.0315,949.7301,524,956.69" style="stroke: #A80036; stroke-width: 1.0;"/><text fill="#000000" font-family="sans-serif" font-size="13" lengthAdjust="spacingAndGlyphs" textLength="66" x="512" y="923.5684">signatures</text><text fill="#000000" font-family="sans-serif" font-size="13" lengthAdjust="spacingAndGlyphs" textLength="6" x="514.925" y="946.1468">*</text><path d="M291.82,243.21 C286.72,252.97 281.91,263.1 278,273 C272.73,286.35 268.76,301.8 266,314.78 " fill="none" style="stroke: #A80036; stroke-width: 1.0;"/><polygon fill="#A80036" points="264.96,319.81,270.7059,311.811,265.9763,314.9144,262.8729,310.1848,264.96,319.81" style="stroke: #A80036; stroke-width: 1.0;"/><text fill="#000000" font-family="sans-serif" font-size="13" lengthAdjust="spacingAndGlyphs" textLength="64" x="279" y="286.5684">dataTypes</text><text fill="#000000" font-family="sans-serif" font-size="13" lengthAdjust="spacingAndGlyphs" textLength="6" x="259.206" y="309.2976">*</text><path d="M359.55,243.17 C371.41,268.12 384.46,295.59 393.87,315.39 " fill="none" style="stroke: #A80036; stroke-width: 1.0;"/><polygon fill="#A80036" points="396.06,319.99,395.8141,310.1442,393.9159,315.4731,388.587,313.5748,396.06,319.99" style="stroke: #A80036; stroke-width: 1.0;"/><text fill="#000000" font-family="sans-serif" font-size="13" lengthAdjust="spacingAndGlyphs" textLength="51" x="380" y="286.5684">services</text><text fill="#000000" font-family="sans-serif" font-size="13" lengthAdjust="spacingAndGlyphs" textLength="6" x="386.3136" y="309.1318">*</text><path d="M442.49,581.23 C448.69,606.47 455.23,633.09 459.99,652.48 " fill="none" style="stroke: #A80036; stroke-width: 1.0;"/><polygon fill="#A80036" points="461.29,657.75,463.0415,648.0581,460.1042,652.8926,455.2697,649.9554,461.29,657.75" style="stroke: #A80036; stroke-width: 1.0;"/><text fill="#000000" font-family="sans-serif" font-size="13" lengthAdjust="spacingAndGlyphs" textLength="55" x="454" y="624.5684">methods</text><text fill="#000000" font-family="sans-serif" font-size="13" lengthAdjust="spacingAndGlyphs" textLength="6" x="453.0581" y="647.2222">*</text><path d="M598,1179.2 C598,1203.36 598,1230.62 598,1250.53 " fill="none" style="stroke: #A80036; stroke-width: 1.0;"/><polygon fill="#A80036" points="598,1255.69,602,1246.69,598,1250.69,594,1246.69,598,1255.69" style="stroke: #A80036; stroke-width: 1.0;"/><text fill="#000000" font-family="sans-serif" font-size="13" lengthAdjust="spacingAndGlyphs" textLength="96" x="599" y="1222.5684">inputs/outputs</text><text fill="#000000" font-family="sans-serif" font-size="13" lengthAdjust="spacingAndGlyphs" textLength="6" x="591.6531" y="1199.2224">*</text><text fill="#000000" font-family="sans-serif" font-size="13" lengthAdjust="spacingAndGlyphs" textLength="6" x="591.2313" y="1245.1468">*</text><path d="M241.52,386.3 C233.55,403.2 224.16,423.11 215.39,441.7 " fill="none" style="stroke: #A80036; stroke-width: 1.0;"/><polygon fill="none" points="235.23,383.22,250.09,368.12,247.89,389.19,235.23,383.22" style="stroke: #A80036; stroke-width: 1.0;"/><path d="M106.98,76.34 C98.85,146 88.91,286.48 122,399 C126.31,413.64 133.2,428.3 140.9,441.82 " fill="none" style="stroke: #A80036; stroke-width: 1.0;"/><polygon fill="none" points="100.05,75.31,109.49,56.34,113.94,77.05,100.05,75.31" style="stroke: #A80036; stroke-width: 1.0;"/></g></svg>