<?xml version="1.0" encoding="UTF-8" standalone="yes"?><svg xmlns="http://www.w3.org/2000/svg" xmlns:xlink="http://www.w3.org/1999/xlink" height="925px" style="width:309px;height:925px;" version="1.1" viewBox="0 0 309 925" width="309px"><defs/><g><ellipse cx="159.5" cy="18" fill="#000000" rx="10" ry="10" style="stroke: none; stroke-width: 1.0;"/><rect fill="#F8F8F8" height="34.1328" rx="12.5" ry="12.5" style="stroke: #383838; stroke-width: 1.5;" width="182" x="68.5" y="68"/><text fill="#000000" font-family="sans-serif" font-size="12" lengthAdjust="spacingAndGlyphs" textLength="162" x="78.5" y="89.6016">Instantiate requested Blocks</text><rect fill="#F8F8F8" height="34.1328" rx="12.5" ry="12.5" style="stroke: #383838; stroke-width: 1.5;" width="214" x="52.5" y="142"/><text fill="#000000" font-family="sans-serif" font-size="12" lengthAdjust="spacingAndGlyphs" textLength="194" x="62.5" y="163.6016">Read block dependency requests</text><rect fill="#F8F8F8" height="34.1328" rx="12.5" ry="12.5" style="stroke: #383838; stroke-width: 1.5;" width="184" x="67.5" y="216"/><text fill="#000000" font-family="sans-serif" font-size="12" lengthAdjust="spacingAndGlyphs" textLength="164" x="77.5" y="237.6016">Resolve Block Dependencies</text><rect fill="#F8F8F8" height="34.1328" rx="12.5" ry="12.5" style="stroke: #383838; stroke-width: 1.5;" width="155" x="82" y="290"/><text fill="#000000" font-family="sans-serif" font-size="12" lengthAdjust="spacingAndGlyphs" textLength="135" x="92" y="311.6016">Inject requested blocks</text><rect fill="#F8F8F8" height="34.1328" rx="12.5" ry="12.5" style="stroke: #383838; stroke-width: 1.5;" width="158" x="80.5" y="364"/><text fill="#000000" font-family="sans-serif" font-size="12" lengthAdjust="spacingAndGlyphs" textLength="138" x="90.5" y="385.6016">Sort blocks topologically</text><rect fill="#F8F8F8" height="34.1328" rx="12.5" ry="12.5" style="stroke: #383838; stroke-width: 1.5;" width="118" x="100.5" y="438"/><text fill="#000000" font-family="sans-serif" font-size="12" lengthAdjust="spacingAndGlyphs" textLength="98" x="110.5" y="459.6016">Initiate event bus</text><rect fill="#F8F8F8" height="34.1328" rx="12.5" ry="12.5" style="stroke: #383838; stroke-width: 1.5;" width="179" x="70" y="512"/><text fill="#000000" font-family="sans-serif" font-size="12" lengthAdjust="spacingAndGlyphs" textLength="159" x="80" y="533.6016">Offer subscription to blocks</text><rect fill="#000000" height="8" style="stroke: none; stroke-width: 1.0;" width="80" x="119.5" y="586"/><rect fill="#F8F8F8" height="34.1328" rx="12.5" ry="12.5" style="stroke: #383838; stroke-width: 1.5;" width="115" x="58" y="634"/><text fill="#000000" font-family="sans-serif" font-size="12" lengthAdjust="spacingAndGlyphs" textLength="95" x="68" y="655.6016">Retrieve sources</text><rect fill="#F8F8F8" height="34.1328" rx="12.5" ry="12.5" style="stroke: #383838; stroke-width: 1.5;" width="147" x="6" y="708"/><text fill="#000000" font-family="sans-serif" font-size="12" lengthAdjust="spacingAndGlyphs" textLength="127" x="16" y="729.6016">Build/Extract software</text><rect fill="#F8F8F8" height="34.1328" rx="12.5" ry="12.5" style="stroke: #383838; stroke-width: 1.5;" width="96" x="72.5" y="782"/><text fill="#000000" font-family="sans-serif" font-size="12" lengthAdjust="spacingAndGlyphs" textLength="76" x="82.5" y="803.6016">Cache output</text><rect fill="#000000" height="8" style="stroke: none; stroke-width: 1.0;" width="80" x="119.5" y="856"/><rect fill="#F8F8F8" height="34.1328" rx="12.5" ry="12.5" style="stroke: #383838; stroke-width: 1.5;" width="135" x="173" y="708"/><text fill="#000000" font-family="sans-serif" font-size="12" lengthAdjust="spacingAndGlyphs" textLength="115" x="183" y="729.6016">Publish build events</text><ellipse cx="159.5" cy="914" fill="none" rx="10" ry="10" style="stroke: #000000; stroke-width: 1.0;"/><ellipse cx="160" cy="914.5" fill="#000000" rx="6" ry="6" style="stroke: none; stroke-width: 1.0;"/><path d="M159.5,28.04 C159.5,36.93 159.5,50.84 159.5,62.57 " fill="none" style="stroke: #383838; stroke-width: 1.0;"/><polygon fill="#383838" points="159.5,67.78,163.5,58.78,159.5,62.78,155.5,58.78,159.5,67.78" style="stroke: #383838; stroke-width: 1.0;"/><path d="M159.5,102.34 C159.5,112.46 159.5,125.58 159.5,136.54 " fill="none" style="stroke: #383838; stroke-width: 1.0;"/><polygon fill="#383838" points="159.5,141.73,163.5,132.73,159.5,136.73,155.5,132.73,159.5,141.73" style="stroke: #383838; stroke-width: 1.0;"/><path d="M159.5,176.34 C159.5,186.46 159.5,199.58 159.5,210.54 " fill="none" style="stroke: #383838; stroke-width: 1.0;"/><polygon fill="#383838" points="159.5,215.73,163.5,206.73,159.5,210.73,155.5,206.73,159.5,215.73" style="stroke: #383838; stroke-width: 1.0;"/><path d="M159.5,250.34 C159.5,260.46 159.5,273.58 159.5,284.54 " fill="none" style="stroke: #383838; stroke-width: 1.0;"/><polygon fill="#383838" points="159.5,289.73,163.5,280.73,159.5,284.73,155.5,280.73,159.5,289.73" style="stroke: #383838; stroke-width: 1.0;"/><path d="M159.5,324.34 C159.5,334.46 159.5,347.58 159.5,358.54 " fill="none" style="stroke: #383838; stroke-width: 1.0;"/><polygon fill="#383838" points="159.5,363.73,163.5,354.73,159.5,358.73,155.5,354.73,159.5,363.73" style="stroke: #383838; stroke-width: 1.0;"/><path d="M159.5,398.34 C159.5,408.46 159.5,421.58 159.5,432.54 " fill="none" style="stroke: #383838; stroke-width: 1.0;"/><polygon fill="#383838" points="159.5,437.73,163.5,428.73,159.5,432.73,155.5,428.73,159.5,437.73" style="stroke: #383838; stroke-width: 1.0;"/><path d="M159.5,472.34 C159.5,482.46 159.5,495.58 159.5,506.54 " fill="none" style="stroke: #383838; stroke-width: 1.0;"/><polygon fill="#383838" points="159.5,511.73,163.5,502.73,159.5,506.73,155.5,502.73,159.5,511.73" style="stroke: #383838; stroke-width: 1.0;"/><path d="M159.5,546.12 C159.5,557.21 159.5,571.5 159.5,580.46 " fill="none" style="stroke: #383838; stroke-width: 1.0;"/><polygon fill="#383838" points="159.5,585.7,163.5,576.7,159.5,580.7,155.5,576.7,159.5,585.7" style="stroke: #383838; stroke-width: 1.0;"/><path d="M157.13,594.17 C152.19,600.8 140.43,616.57 130.67,629.66 " fill="none" style="stroke: #383838; stroke-width: 1.0;"/><polygon fill="#383838" points="127.44,633.99,136.0207,629.1557,130.424,629.978,129.6016,624.3813,127.44,633.99" style="stroke: #383838; stroke-width: 1.0;"/><path d="M107.33,668.34 C102.18,678.65 95.47,692.06 89.93,703.14 " fill="none" style="stroke: #383838; stroke-width: 1.0;"/><polygon fill="#383838" points="87.64,707.73,95.2506,701.4787,89.8818,703.2607,88.0998,697.8919,87.64,707.73" style="stroke: #383838; stroke-width: 1.0;"/><path d="M88.8,742.34 C94.67,752.65 102.31,766.06 108.62,777.14 " fill="none" style="stroke: #383838; stroke-width: 1.0;"/><polygon fill="#383838" points="111.23,781.73,110.2551,771.9295,108.757,777.3844,103.3021,775.8863,111.23,781.73" style="stroke: #383838; stroke-width: 1.0;"/><path d="M131.16,816.12 C138.77,827.64 148.66,842.6 154.52,851.47 " fill="none" style="stroke: #383838; stroke-width: 1.0;"/><polygon fill="#383838" points="157.32,855.7,155.6944,845.9862,154.563,851.5288,149.0204,850.3974,157.32,855.7" style="stroke: #383838; stroke-width: 1.0;"/><path d="M161.5,594.29 C170.51,609.08 207.72,670.18 227.69,702.97 " fill="none" style="stroke: #383838; stroke-width: 1.0;"/><polygon fill="#383838" points="230.51,707.59,229.2473,697.8224,227.9103,703.319,222.4137,701.982,230.51,707.59" style="stroke: #383838; stroke-width: 1.0;"/><path d="M230.73,742.04 C213.2,770.83 177.02,830.23 164.16,851.34 " fill="none" style="stroke: #383838; stroke-width: 1.0;"/><polygon fill="#383838" points="161.42,855.84,169.5163,850.232,164.0197,851.569,162.6827,846.0724,161.42,855.84" style="stroke: #383838; stroke-width: 1.0;"/><path d="M159.5,864.1 C159.5,870.77 159.5,886.87 159.5,898.78 " fill="none" style="stroke: #383838; stroke-width: 1.0;"/><polygon fill="#383838" points="159.5,903.91,163.5,894.91,159.5,898.91,155.5,894.91,159.5,903.91" style="stroke: #383838; stroke-width: 1.0;"/></g></svg>