<?xml version="1.0" encoding="UTF-8" standalone="no"?>
<!DOCTYPE svg PUBLIC "-//W3C//DTD SVG 1.1//EN"
 "http://www.w3.org/Graphics/SVG/1.1/DTD/svg11.dtd">
<!-- Generated by graphviz version 2.40.1 (20161225.0304)
 -->
<!-- Title: %3 Pages: 1 -->
<svg width="1403pt" height="780pt"
 viewBox="0.00 0.00 1402.75 780.00" xmlns="http://www.w3.org/2000/svg" xmlns:xlink="http://www.w3.org/1999/xlink">
<g id="graph0" class="graph" transform="scale(1 1) rotate(0) translate(4 776)">
<title>%3</title>
<polygon fill="#ffffff" stroke="transparent" points="-4,4 -4,-776 1398.7476,-776 1398.7476,4 -4,4"/>
<g id="clust1" class="cluster">
<title>cluster_Core_Client_Services</title>
<polygon fill="none" stroke="#000000" points="219.8462,-8 219.8462,-708 1380.8462,-708 1380.8462,-8 219.8462,-8"/>
</g>
<!-- 733943822 -->
<g id="node1" class="node">
<title>733943822</title>
<polygon fill="none" stroke="#000000" points="1322.0918,-700 1259.6006,-700 1259.6006,-664 1322.0918,-664 1322.0918,-700"/>
<text text-anchor="middle" x="1290.8462" y="-677.8" font-family="Times,serif" font-size="14.00" fill="#000000">accept b</text>
</g>
<!-- 1383524016 -->
<g id="node11" class="node">
<title>1383524016</title>
<polygon fill="none" stroke="#000000" points="1372.9976,-628 1108.6948,-628 1108.6948,-592 1372.9976,-592 1372.9976,-628"/>
<text text-anchor="middle" x="1240.8462" y="-605.8" font-family="Times,serif" font-size="14.00" fill="#000000">g1 = demo.math.Gerade::__construct([b, 1])</text>
</g>
<!-- 733943822&#45;&gt;1383524016 -->
<g id="edge20" class="edge">
<title>733943822&#45;&gt;1383524016</title>
<path fill="none" stroke="#000000" d="M1278.2291,-663.8314C1272.529,-655.6232 1265.6799,-645.7606 1259.4103,-636.7323"/>
<polygon fill="#000000" stroke="#000000" points="1262.212,-634.6306 1253.6332,-628.4133 1256.4624,-638.6234 1262.212,-634.6306"/>
</g>
<!-- 436532993 -->
<g id="node2" class="node">
<title>436532993</title>
<polygon fill="none" stroke="#000000" points="601.8069,-700 539.8855,-700 539.8855,-664 601.8069,-664 601.8069,-700"/>
<text text-anchor="middle" x="570.8462" y="-677.8" font-family="Times,serif" font-size="14.00" fill="#000000">accept a</text>
</g>
<!-- 22671767 -->
<g id="node16" class="node">
<title>22671767</title>
<polygon fill="none" stroke="#000000" points="757.8735,-628 489.8188,-628 489.8188,-592 757.8735,-592 757.8735,-628"/>
<text text-anchor="middle" x="623.8462" y="-605.8" font-family="Times,serif" font-size="14.00" fill="#000000">g2 = demo.math.Gerade::__construct([a, &#45;1])</text>
</g>
<!-- 436532993&#45;&gt;22671767 -->
<g id="edge3" class="edge">
<title>436532993&#45;&gt;22671767</title>
<path fill="none" stroke="#000000" d="M584.2203,-663.8314C590.2624,-655.6232 597.5225,-645.7606 604.1682,-636.7323"/>
<polygon fill="#000000" stroke="#000000" points="607.1825,-638.5415 610.292,-628.4133 601.5451,-634.3918 607.1825,-638.5415"/>
</g>
<!-- 1100767002 -->
<g id="node3" class="node">
<title>1100767002</title>
<polygon fill="none" stroke="#000000" points="342.9811,-484 276.7113,-484 276.7113,-448 342.9811,-448 342.9811,-484"/>
<text text-anchor="middle" x="309.8462" y="-461.8" font-family="Times,serif" font-size="14.00" fill="#000000">accept l1</text>
</g>
<!-- 1448247698 -->
<g id="node9" class="node">
<title>1448247698</title>
<polygon fill="none" stroke="#000000" points="489.9742,-412 227.7182,-412 227.7182,-376 489.9742,-376 489.9742,-412"/>
<text text-anchor="middle" x="358.8462" y="-389.8" font-family="Times,serif" font-size="14.00" fill="#000000">cast l1 from Arr to demo.types.NummerList</text>
</g>
<!-- 1100767002&#45;&gt;1448247698 -->
<g id="edge4" class="edge">
<title>1100767002&#45;&gt;1448247698</title>
<path fill="none" stroke="#000000" d="M322.211,-447.8314C327.797,-439.6232 334.5091,-429.7606 340.6534,-420.7323"/>
<polygon fill="#000000" stroke="#000000" points="343.5822,-422.6496 346.3149,-412.4133 337.7952,-418.7112 343.5822,-422.6496"/>
</g>
<!-- 373182087 -->
<g id="node4" class="node">
<title>373182087</title>
<polygon fill="none" stroke="#000000" points="1394.649,-772 1187.0434,-772 1187.0434,-736 1394.649,-736 1394.649,-772"/>
<text text-anchor="middle" x="1290.8462" y="-749.8" font-family="Times,serif" font-size="14.00" fill="#000000">transmit b&#45;&gt;Core_Client_Services</text>
</g>
<!-- 373182087&#45;&gt;733943822 -->
<g id="edge30" class="edge">
<title>373182087&#45;&gt;733943822</title>
<path fill="none" stroke="#000000" stroke-dasharray="1,5" d="M1290.8462,-735.8314C1290.8462,-728.131 1290.8462,-718.9743 1290.8462,-710.4166"/>
<polygon fill="#000000" stroke="#000000" points="1294.3463,-710.4132 1290.8462,-700.4133 1287.3463,-710.4133 1294.3463,-710.4132"/>
</g>
<!-- 1318180415 -->
<g id="node5" class="node">
<title>1318180415</title>
<polygon fill="none" stroke="#000000" points="674.3628,-772 467.3296,-772 467.3296,-736 674.3628,-736 674.3628,-772"/>
<text text-anchor="middle" x="570.8462" y="-749.8" font-family="Times,serif" font-size="14.00" fill="#000000">transmit a&#45;&gt;Core_Client_Services</text>
</g>
<!-- 1318180415&#45;&gt;436532993 -->
<g id="edge31" class="edge">
<title>1318180415&#45;&gt;436532993</title>
<path fill="none" stroke="#000000" stroke-dasharray="1,5" d="M570.8462,-735.8314C570.8462,-728.131 570.8462,-718.9743 570.8462,-710.4166"/>
<polygon fill="#000000" stroke="#000000" points="574.3463,-710.4132 570.8462,-700.4133 567.3463,-710.4133 574.3463,-710.4132"/>
</g>
<!-- 313540687 -->
<g id="node6" class="node">
<title>313540687</title>
<polygon fill="none" stroke="#000000" points="211.5388,-556 .1536,-556 .1536,-520 211.5388,-520 211.5388,-556"/>
<text text-anchor="middle" x="105.8462" y="-533.8" font-family="Times,serif" font-size="14.00" fill="#000000">transmit l1&#45;&gt;Core_Client_Services</text>
</g>
<!-- 313540687&#45;&gt;1100767002 -->
<g id="edge32" class="edge">
<title>313540687&#45;&gt;1100767002</title>
<path fill="none" stroke="#000000" stroke-dasharray="1,5" d="M157.0607,-519.9243C190.967,-507.9574 234.9252,-492.4427 266.9805,-481.1291"/>
<polygon fill="#000000" stroke="#000000" points="268.2572,-484.3901 276.5222,-477.7614 265.9274,-477.7892 268.2572,-484.3901"/>
</g>
<!-- Core_Client_Services -->
<g id="node7" class="node">
<title>Core_Client_Services</title>
<polygon fill="none" stroke="#ffa500" stroke-width="2" points="1085.1921,-687.5623 976.8462,-700 868.5002,-687.5623 868.6014,-667.4377 1085.091,-667.4377 1085.1921,-687.5623"/>
<text text-anchor="middle" x="976.8462" y="-677.8" font-family="Times,serif" font-size="14.00" fill="#000000">Core_Client_Services</text>
</g>
<!-- 317071334 -->
<g id="node8" class="node">
<title>317071334</title>
<polygon fill="none" stroke="#000000" points="1278.6503,-484 1169.0421,-484 1169.0421,-448 1278.6503,-448 1278.6503,-484"/>
<text text-anchor="middle" x="1223.8462" y="-461.8" font-family="Times,serif" font-size="14.00" fill="#000000">parse Number: 5</text>
</g>
<!-- 1374026904 -->
<g id="node30" class="node">
<title>1374026904</title>
<polygon fill="none" stroke="#000000" points="1353.0495,-412 1094.6429,-412 1094.6429,-376 1353.0495,-376 1353.0495,-412"/>
<text text-anchor="middle" x="1223.8462" y="-389.8" font-family="Times,serif" font-size="14.00" fill="#000000">a1 = demo.math.Addierer::__construct([5])</text>
</g>
<!-- 317071334&#45;&gt;1374026904 -->
<g id="edge1" class="edge">
<title>317071334&#45;&gt;1374026904</title>
<path fill="none" stroke="#000000" d="M1223.8462,-447.8314C1223.8462,-440.131 1223.8462,-430.9743 1223.8462,-422.4166"/>
<polygon fill="#000000" stroke="#000000" points="1227.3463,-422.4132 1223.8462,-412.4133 1220.3463,-422.4133 1227.3463,-422.4132"/>
</g>
<!-- 1237550792 -->
<g id="node14" class="node">
<title>1237550792</title>
<polygon fill="none" stroke="#000000" points="858.6355,-340 703.0569,-340 703.0569,-304 858.6355,-304 858.6355,-340"/>
<text text-anchor="middle" x="780.8462" y="-317.8" font-family="Times,serif" font-size="14.00" fill="#000000">l3 = a1::addierListe([l1])</text>
</g>
<!-- 1448247698&#45;&gt;1237550792 -->
<g id="edge2" class="edge">
<title>1448247698&#45;&gt;1237550792</title>
<path fill="none" stroke="#000000" d="M464.5179,-375.9707C534.9961,-363.946 626.5608,-348.3236 693.0284,-336.9831"/>
<polygon fill="#000000" stroke="#000000" points="693.7912,-340.4037 703.0601,-335.2716 692.6138,-333.5034 693.7912,-340.4037"/>
</g>
<!-- 550668305 -->
<g id="node10" class="node">
<title>550668305</title>
<polygon fill="none" stroke="#000000" points="832.6286,-52 649.0637,-52 649.0637,-16 832.6286,-16 832.6286,-52"/>
<text text-anchor="middle" x="740.8462" y="-29.8" font-family="Times,serif" font-size="14.00" fill="#000000">b1 = g2::liagtAufGerade([l4])</text>
</g>
<!-- 1472465 -->
<g id="node12" class="node">
<title>1472465</title>
<polygon fill="none" stroke="#000000" points="1166.9941,-556 1030.6983,-556 1030.6983,-520 1166.9941,-520 1166.9941,-556"/>
<text text-anchor="middle" x="1098.8462" y="-533.8" font-family="Times,serif" font-size="14.00" fill="#000000">n1 = g1::nullstelle([])</text>
</g>
<!-- 1383524016&#45;&gt;1472465 -->
<g id="edge5" class="edge">
<title>1383524016&#45;&gt;1472465</title>
<path fill="none" stroke="#000000" d="M1205.0136,-591.8314C1186.4305,-582.4089 1163.5473,-570.8062 1143.7897,-560.7883"/>
<polygon fill="#000000" stroke="#000000" points="1145.1692,-557.5635 1134.6673,-556.1628 1142.0035,-563.8069 1145.1692,-557.5635"/>
</g>
<!-- 524241174 -->
<g id="node19" class="node">
<title>524241174</title>
<polygon fill="none" stroke="#000000" points="1305.2334,-52 1150.459,-52 1150.459,-16 1305.2334,-16 1305.2334,-52"/>
<text text-anchor="middle" x="1227.8462" y="-29.8" font-family="Times,serif" font-size="14.00" fill="#000000">g1::liagtAufGerade([l4])</text>
</g>
<!-- 1383524016&#45;&gt;524241174 -->
<g id="edge6" class="edge">
<title>1383524016&#45;&gt;524241174</title>
<path fill="none" stroke="#000000" d="M1253.387,-591.8139C1281.6225,-550.5215 1348.7418,-450.3077 1361.8462,-412 1374.8726,-373.9203 1371.8462,-362.2462 1371.8462,-322 1371.8462,-322 1371.8462,-322 1371.8462,-178 1371.8462,-122.4987 1317.6986,-80.9176 1275.811,-57.0545"/>
<polygon fill="#000000" stroke="#000000" points="1277.261,-53.8572 1266.8147,-52.0893 1273.8785,-59.9857 1277.261,-53.8572"/>
</g>
<!-- 1624820151 -->
<g id="node24" class="node">
<title>1624820151</title>
<polygon fill="none" stroke="#000000" points="1373.0607,-556 1312.6317,-556 1312.6317,-520 1373.0607,-520 1373.0607,-556"/>
<text text-anchor="middle" x="1342.8462" y="-533.8" font-family="Times,serif" font-size="14.00" fill="#000000">store g1</text>
</g>
<!-- 1383524016&#45;&gt;1624820151 -->
<g id="edge7" class="edge">
<title>1383524016&#45;&gt;1624820151</title>
<path fill="none" stroke="#000000" d="M1266.5851,-591.8314C1279.3899,-582.7927 1295.0371,-571.7476 1308.8181,-562.0198"/>
<polygon fill="#000000" stroke="#000000" points="1310.9642,-564.7891 1317.1155,-556.1628 1306.9274,-559.0703 1310.9642,-564.7891"/>
</g>
<!-- 1966250569 -->
<g id="node29" class="node">
<title>1966250569</title>
<polygon fill="none" stroke="#000000" points="1104.2156,-484 877.4767,-484 877.4767,-448 1104.2156,-448 1104.2156,-484"/>
<text text-anchor="middle" x="990.8462" y="-461.8" font-family="Times,serif" font-size="14.00" fill="#000000">cast n1 from demo.types.Punkt to Arr</text>
</g>
<!-- 1472465&#45;&gt;1966250569 -->
<g id="edge8" class="edge">
<title>1472465&#45;&gt;1966250569</title>
<path fill="none" stroke="#000000" d="M1071.5932,-519.8314C1057.9073,-510.7074 1041.1547,-499.539 1026.4635,-489.7449"/>
<polygon fill="#000000" stroke="#000000" points="1028.3524,-486.7977 1018.0904,-484.1628 1024.4695,-492.6221 1028.3524,-486.7977"/>
</g>
<!-- 2035070981 -->
<g id="node13" class="node">
<title>2035070981</title>
<polygon fill="none" stroke="#000000" points="1103.9742,-196 841.7182,-196 841.7182,-160 1103.9742,-160 1103.9742,-196"/>
<text text-anchor="middle" x="972.8462" y="-173.8" font-family="Times,serif" font-size="14.00" fill="#000000">cast l4 from demo.types.NummerList to Arr</text>
</g>
<!-- 1506809545 -->
<g id="node18" class="node">
<title>1506809545</title>
<polygon fill="none" stroke="#000000" points="1084.6051,-124 861.0873,-124 861.0873,-88 1084.6051,-88 1084.6051,-124"/>
<text text-anchor="middle" x="972.8462" y="-101.8" font-family="Times,serif" font-size="14.00" fill="#000000">cast l4 from Arr to demo.types.Punkt</text>
</g>
<!-- 2035070981&#45;&gt;1506809545 -->
<g id="edge9" class="edge">
<title>2035070981&#45;&gt;1506809545</title>
<path fill="none" stroke="#000000" d="M972.8462,-159.8314C972.8462,-152.131 972.8462,-142.9743 972.8462,-134.4166"/>
<polygon fill="#000000" stroke="#000000" points="976.3463,-134.4132 972.8462,-124.4133 969.3463,-134.4133 976.3463,-134.4132"/>
</g>
<!-- 1556995360 -->
<g id="node21" class="node">
<title>1556995360</title>
<polygon fill="none" stroke="#000000" points="1066.5387,-268 879.1537,-268 879.1537,-232 1066.5387,-232 1066.5387,-268"/>
<text text-anchor="middle" x="972.8462" y="-245.8" font-family="Times,serif" font-size="14.00" fill="#000000">l4 = a1::summierListe([l3, l2])</text>
</g>
<!-- 1237550792&#45;&gt;1556995360 -->
<g id="edge10" class="edge">
<title>1237550792&#45;&gt;1556995360</title>
<path fill="none" stroke="#000000" d="M829.2959,-303.8314C855.4313,-294.0306 887.8571,-281.8709 915.2745,-271.5894"/>
<polygon fill="#000000" stroke="#000000" points="916.6105,-274.8264 924.7449,-268.038 914.1526,-268.2721 916.6105,-274.8264"/>
</g>
<!-- 2081191879 -->
<g id="node15" class="node">
<title>2081191879</title>
<polygon fill="none" stroke="#000000" points="1253.774,-340 1193.9184,-340 1193.9184,-304 1253.774,-304 1253.774,-340"/>
<text text-anchor="middle" x="1223.8462" y="-317.8" font-family="Times,serif" font-size="14.00" fill="#000000">store a1</text>
</g>
<!-- 22671767&#45;&gt;550668305 -->
<g id="edge11" class="edge">
<title>22671767&#45;&gt;550668305</title>
<path fill="none" stroke="#000000" d="M589.8497,-591.9544C575.0895,-582.7732 558.541,-570.481 546.8462,-556 519.5661,-522.2208 508.8462,-509.4193 508.8462,-466 508.8462,-466 508.8462,-466 508.8462,-178 508.8462,-111.6036 578.2905,-74.756 641.1918,-54.9988"/>
<polygon fill="#000000" stroke="#000000" points="642.2573,-58.3332 650.8169,-52.0895 640.2319,-51.6326 642.2573,-58.3332"/>
</g>
<!-- 1791045777 -->
<g id="node17" class="node">
<title>1791045777</title>
<polygon fill="none" stroke="#000000" points="691.9941,-556 555.6983,-556 555.6983,-520 691.9941,-520 691.9941,-556"/>
<text text-anchor="middle" x="623.8462" y="-533.8" font-family="Times,serif" font-size="14.00" fill="#000000">n2 = g2::nullstelle([])</text>
</g>
<!-- 22671767&#45;&gt;1791045777 -->
<g id="edge12" class="edge">
<title>22671767&#45;&gt;1791045777</title>
<path fill="none" stroke="#000000" d="M623.8462,-591.8314C623.8462,-584.131 623.8462,-574.9743 623.8462,-566.4166"/>
<polygon fill="#000000" stroke="#000000" points="627.3463,-566.4132 623.8462,-556.4133 620.3463,-566.4133 627.3463,-566.4132"/>
</g>
<!-- 1219161283 -->
<g id="node20" class="node">
<title>1219161283</title>
<polygon fill="none" stroke="#000000" points="771.0607,-556 710.6317,-556 710.6317,-520 771.0607,-520 771.0607,-556"/>
<text text-anchor="middle" x="740.8462" y="-533.8" font-family="Times,serif" font-size="14.00" fill="#000000">store g2</text>
</g>
<!-- 22671767&#45;&gt;1219161283 -->
<g id="edge13" class="edge">
<title>22671767&#45;&gt;1219161283</title>
<path fill="none" stroke="#000000" d="M653.3702,-591.8314C668.3353,-582.6221 686.6848,-571.3301 702.7064,-561.4706"/>
<polygon fill="#000000" stroke="#000000" points="704.6494,-564.3847 711.3316,-556.1628 700.9806,-558.423 704.6494,-564.3847"/>
</g>
<!-- 511717113 -->
<g id="node28" class="node">
<title>511717113</title>
<polygon fill="none" stroke="#000000" points="764.2156,-484 537.4767,-484 537.4767,-448 764.2156,-448 764.2156,-484"/>
<text text-anchor="middle" x="650.8462" y="-461.8" font-family="Times,serif" font-size="14.00" fill="#000000">cast n2 from demo.types.Punkt to Arr</text>
</g>
<!-- 1791045777&#45;&gt;511717113 -->
<g id="edge14" class="edge">
<title>1791045777&#45;&gt;511717113</title>
<path fill="none" stroke="#000000" d="M630.6594,-519.8314C633.6105,-511.9617 637.132,-502.5712 640.4012,-493.8533"/>
<polygon fill="#000000" stroke="#000000" points="643.7071,-495.0055 643.9412,-484.4133 637.1528,-492.5476 643.7071,-495.0055"/>
</g>
<!-- 1506809545&#45;&gt;550668305 -->
<g id="edge15" class="edge">
<title>1506809545&#45;&gt;550668305</title>
<path fill="none" stroke="#000000" d="M914.6023,-87.9243C882.4728,-77.9531 842.4068,-65.5188 808.848,-55.104"/>
<polygon fill="#000000" stroke="#000000" points="809.7022,-51.7045 799.1141,-52.0831 807.6273,-58.3899 809.7022,-51.7045"/>
</g>
<!-- 1506809545&#45;&gt;524241174 -->
<g id="edge16" class="edge">
<title>1506809545&#45;&gt;524241174</title>
<path fill="none" stroke="#000000" d="M1036.8643,-87.9243C1072.4821,-77.8675 1116.9737,-65.3052 1154.0511,-54.8363"/>
<polygon fill="#000000" stroke="#000000" points="1155.1291,-58.1688 1163.8017,-52.0831 1153.2269,-51.4322 1155.1291,-58.1688"/>
</g>
<!-- 1556995360&#45;&gt;2035070981 -->
<g id="edge17" class="edge">
<title>1556995360&#45;&gt;2035070981</title>
<path fill="none" stroke="#000000" d="M972.8462,-231.8314C972.8462,-224.131 972.8462,-214.9743 972.8462,-206.4166"/>
<polygon fill="#000000" stroke="#000000" points="976.3463,-206.4132 972.8462,-196.4133 969.3463,-206.4133 976.3463,-206.4132"/>
</g>
<!-- 1125381564 -->
<g id="node22" class="node">
<title>1125381564</title>
<polygon fill="none" stroke="#000000" points="1076.5846,-412 811.1078,-412 811.1078,-376 1076.5846,-376 1076.5846,-412"/>
<text text-anchor="middle" x="943.8462" y="-389.8" font-family="Times,serif" font-size="14.00" fill="#000000">cast n1 from Arr to demo.types.NummerList</text>
</g>
<!-- 1831477404 -->
<g id="node25" class="node">
<title>1831477404</title>
<polygon fill="none" stroke="#000000" points="1069.7597,-340 875.9327,-340 875.9327,-304 1069.7597,-304 1069.7597,-340"/>
<text text-anchor="middle" x="972.8462" y="-317.8" font-family="Times,serif" font-size="14.00" fill="#000000">l2 = a1::summierListe([n1, n2])</text>
</g>
<!-- 1125381564&#45;&gt;1831477404 -->
<g id="edge18" class="edge">
<title>1125381564&#45;&gt;1831477404</title>
<path fill="none" stroke="#000000" d="M951.1641,-375.8314C954.3338,-367.9617 958.1161,-358.5712 961.6275,-349.8533"/>
<polygon fill="#000000" stroke="#000000" points="964.9401,-350.9968 965.4297,-340.4133 958.447,-348.3815 964.9401,-350.9968"/>
</g>
<!-- 2005733474 -->
<g id="node23" class="node">
<title>2005733474</title>
<polygon fill="none" stroke="#000000" points="793.5846,-412 528.1078,-412 528.1078,-376 793.5846,-376 793.5846,-412"/>
<text text-anchor="middle" x="660.8462" y="-389.8" font-family="Times,serif" font-size="14.00" fill="#000000">cast n2 from Arr to demo.types.NummerList</text>
</g>
<!-- 2005733474&#45;&gt;1831477404 -->
<g id="edge19" class="edge">
<title>2005733474&#45;&gt;1831477404</title>
<path fill="none" stroke="#000000" d="M739.1742,-375.9243C783.4868,-365.6983 839.0251,-352.8818 884.8375,-342.3097"/>
<polygon fill="#000000" stroke="#000000" points="885.7997,-345.6797 894.7566,-340.0207 884.2256,-338.859 885.7997,-345.6797"/>
</g>
<!-- 1831477404&#45;&gt;1556995360 -->
<g id="edge21" class="edge">
<title>1831477404&#45;&gt;1556995360</title>
<path fill="none" stroke="#000000" d="M972.8462,-303.8314C972.8462,-296.131 972.8462,-286.9743 972.8462,-278.4166"/>
<polygon fill="#000000" stroke="#000000" points="976.3463,-278.4132 972.8462,-268.4133 969.3463,-278.4133 976.3463,-278.4132"/>
</g>
<!-- 1637061418 -->
<g id="node26" class="node">
<title>1637061418</title>
<polygon fill="none" stroke="#000000" points="1241.6503,-700 1132.0421,-700 1132.0421,-664 1241.6503,-664 1241.6503,-700"/>
<text text-anchor="middle" x="1186.8462" y="-677.8" font-family="Times,serif" font-size="14.00" fill="#000000">parse Number: 1</text>
</g>
<!-- 1637061418&#45;&gt;1383524016 -->
<g id="edge22" class="edge">
<title>1637061418&#45;&gt;1383524016</title>
<path fill="none" stroke="#000000" d="M1200.4727,-663.8314C1206.6922,-655.5386 1214.1784,-645.557 1221.0062,-636.4533"/>
<polygon fill="#000000" stroke="#000000" points="1223.8362,-638.5133 1227.0362,-628.4133 1218.2362,-634.3133 1223.8362,-638.5133"/>
</g>
<!-- 98394724 -->
<g id="node27" class="node">
<title>98394724</title>
<polygon fill="none" stroke="#000000" points="733.812,-700 619.8804,-700 619.8804,-664 733.812,-664 733.812,-700"/>
<text text-anchor="middle" x="676.8462" y="-677.8" font-family="Times,serif" font-size="14.00" fill="#000000">parse Number: &#45;1</text>
</g>
<!-- 98394724&#45;&gt;22671767 -->
<g id="edge23" class="edge">
<title>98394724&#45;&gt;22671767</title>
<path fill="none" stroke="#000000" d="M663.4721,-663.8314C657.43,-655.6232 650.1699,-645.7606 643.5241,-636.7323"/>
<polygon fill="#000000" stroke="#000000" points="646.1473,-634.3918 637.4004,-628.4133 640.5099,-638.5415 646.1473,-634.3918"/>
</g>
<!-- 511717113&#45;&gt;2005733474 -->
<g id="edge24" class="edge">
<title>511717113&#45;&gt;2005733474</title>
<path fill="none" stroke="#000000" d="M653.3696,-447.8314C654.4391,-440.131 655.7109,-430.9743 656.8994,-422.4166"/>
<polygon fill="#000000" stroke="#000000" points="660.3797,-422.7997 658.2888,-412.4133 653.4463,-421.8367 660.3797,-422.7997"/>
</g>
<!-- 1966250569&#45;&gt;1125381564 -->
<g id="edge25" class="edge">
<title>1966250569&#45;&gt;1125381564</title>
<path fill="none" stroke="#000000" d="M978.9861,-447.8314C973.6833,-439.7079 967.3225,-429.9637 961.4789,-421.0118"/>
<polygon fill="#000000" stroke="#000000" points="964.2631,-418.8739 955.866,-412.4133 958.4014,-422.7003 964.2631,-418.8739"/>
</g>
<!-- 1374026904&#45;&gt;1237550792 -->
<g id="edge26" class="edge">
<title>1374026904&#45;&gt;1237550792</title>
<path fill="none" stroke="#000000" d="M1094.2502,-376.1865C1029.1539,-366.8054 948.8521,-354.5807 868.8816,-340.3238"/>
<polygon fill="#000000" stroke="#000000" points="869.0846,-336.8044 858.6237,-338.4834 867.8484,-343.6944 869.0846,-336.8044"/>
</g>
<!-- 1374026904&#45;&gt;2081191879 -->
<g id="edge27" class="edge">
<title>1374026904&#45;&gt;2081191879</title>
<path fill="none" stroke="#000000" d="M1223.8462,-375.8314C1223.8462,-368.131 1223.8462,-358.9743 1223.8462,-350.4166"/>
<polygon fill="#000000" stroke="#000000" points="1227.3463,-350.4132 1223.8462,-340.4133 1220.3463,-350.4133 1227.3463,-350.4132"/>
</g>
<!-- 1374026904&#45;&gt;1556995360 -->
<g id="edge28" class="edge">
<title>1374026904&#45;&gt;1556995360</title>
<path fill="none" stroke="#000000" d="M1196.198,-375.8686C1167.3275,-357.1669 1120.5291,-327.4983 1078.8462,-304 1059.7614,-293.2412 1038.2926,-282.1267 1019.6924,-272.7987"/>
<polygon fill="#000000" stroke="#000000" points="1021.047,-269.5632 1010.5358,-268.2341 1017.9239,-275.8279 1021.047,-269.5632"/>
</g>
<!-- 1374026904&#45;&gt;1831477404 -->
<g id="edge29" class="edge">
<title>1374026904&#45;&gt;1831477404</title>
<path fill="none" stroke="#000000" d="M1160.8323,-375.9243C1125.9224,-365.9103 1082.352,-353.412 1045.95,-342.97"/>
<polygon fill="#000000" stroke="#000000" points="1046.4635,-339.4762 1035.886,-340.0831 1044.5333,-346.2049 1046.4635,-339.4762"/>
</g>
</g>
</svg>
