<?xml version="1.0" encoding="UTF-8" standalone="no"?>
<!DOCTYPE svg PUBLIC "-//W3C//DTD SVG 1.1//EN"
 "http://www.w3.org/Graphics/SVG/1.1/DTD/svg11.dtd">
<!-- Generated by graphviz version 2.40.1 (20161225.0304)
 -->
<!-- Title: %3 Pages: 1 -->
<svg width="1397pt" height="780pt"
 viewBox="0.00 0.00 1396.85 780.00" xmlns="http://www.w3.org/2000/svg" xmlns:xlink="http://www.w3.org/1999/xlink">
<g id="graph0" class="graph" transform="scale(1 1) rotate(0) translate(4 776)">
<title>%3</title>
<polygon fill="#ffffff" stroke="transparent" points="-4,4 -4,-776 1392.8462,-776 1392.8462,4 -4,4"/>
<g id="clust1" class="cluster">
<title>cluster_Core_Client_Services</title>
<polygon fill="none" stroke="#000000" points="219.8462,-8 219.8462,-708 1380.8462,-708 1380.8462,-8 219.8462,-8"/>
</g>
<!-- 1016925085 -->
<g id="node1" class="node">
<title>1016925085</title>
<polygon fill="none" stroke="#000000" points="211.5388,-556 .1536,-556 .1536,-520 211.5388,-520 211.5388,-556"/>
<text text-anchor="middle" x="105.8462" y="-533.8" font-family="Times,serif" font-size="14.00" fill="#000000">transmit l1&#45;&gt;Core_Client_Services</text>
</g>
<!-- 1840976765 -->
<g id="node5" class="node">
<title>1840976765</title>
<polygon fill="none" stroke="#000000" points="342.9811,-484 276.7113,-484 276.7113,-448 342.9811,-448 342.9811,-484"/>
<text text-anchor="middle" x="309.8462" y="-461.8" font-family="Times,serif" font-size="14.00" fill="#000000">accept l1</text>
</g>
<!-- 1016925085&#45;&gt;1840976765 -->
<g id="edge30" class="edge">
<title>1016925085&#45;&gt;1840976765</title>
<path fill="none" stroke="#000000" stroke-dasharray="1,5" d="M157.0607,-519.9243C190.967,-507.9574 234.9252,-492.4427 266.9805,-481.1291"/>
<polygon fill="#000000" stroke="#000000" points="268.2572,-484.3901 276.5222,-477.7614 265.9274,-477.7892 268.2572,-484.3901"/>
</g>
<!-- 1422222071 -->
<g id="node2" class="node">
<title>1422222071</title>
<polygon fill="none" stroke="#000000" points="755.649,-772 548.0434,-772 548.0434,-736 755.649,-736 755.649,-772"/>
<text text-anchor="middle" x="651.8462" y="-749.8" font-family="Times,serif" font-size="14.00" fill="#000000">transmit b&#45;&gt;Core_Client_Services</text>
</g>
<!-- 1671846437 -->
<g id="node3" class="node">
<title>1671846437</title>
<polygon fill="none" stroke="#000000" points="683.0918,-700 620.6006,-700 620.6006,-664 683.0918,-664 683.0918,-700"/>
<text text-anchor="middle" x="651.8462" y="-677.8" font-family="Times,serif" font-size="14.00" fill="#000000">accept b</text>
</g>
<!-- 1422222071&#45;&gt;1671846437 -->
<g id="edge31" class="edge">
<title>1422222071&#45;&gt;1671846437</title>
<path fill="none" stroke="#000000" stroke-dasharray="1,5" d="M651.8462,-735.8314C651.8462,-728.131 651.8462,-718.9743 651.8462,-710.4166"/>
<polygon fill="#000000" stroke="#000000" points="655.3463,-710.4132 651.8462,-700.4133 648.3463,-710.4133 655.3463,-710.4132"/>
</g>
<!-- 789653861 -->
<g id="node24" class="node">
<title>789653861</title>
<polygon fill="none" stroke="#000000" points="746.9976,-628 482.6948,-628 482.6948,-592 746.9976,-592 746.9976,-628"/>
<text text-anchor="middle" x="614.8462" y="-605.8" font-family="Times,serif" font-size="14.00" fill="#000000">g1 = demo.math.Gerade::__construct([b, 1])</text>
</g>
<!-- 1671846437&#45;&gt;789653861 -->
<g id="edge2" class="edge">
<title>1671846437&#45;&gt;789653861</title>
<path fill="none" stroke="#000000" d="M642.5095,-663.8314C638.4219,-655.8771 633.5358,-646.369 629.0153,-637.5723"/>
<polygon fill="#000000" stroke="#000000" points="631.9923,-635.7078 624.3086,-628.4133 625.7663,-638.9074 631.9923,-635.7078"/>
</g>
<!-- 634540230 -->
<g id="node4" class="node">
<title>634540230</title>
<polygon fill="none" stroke="#000000" points="1221.8069,-700 1159.8855,-700 1159.8855,-664 1221.8069,-664 1221.8069,-700"/>
<text text-anchor="middle" x="1190.8462" y="-677.8" font-family="Times,serif" font-size="14.00" fill="#000000">accept a</text>
</g>
<!-- 733943822 -->
<g id="node23" class="node">
<title>733943822</title>
<polygon fill="none" stroke="#000000" points="1367.8735,-628 1099.8188,-628 1099.8188,-592 1367.8735,-592 1367.8735,-628"/>
<text text-anchor="middle" x="1233.8462" y="-605.8" font-family="Times,serif" font-size="14.00" fill="#000000">g2 = demo.math.Gerade::__construct([a, &#45;1])</text>
</g>
<!-- 634540230&#45;&gt;733943822 -->
<g id="edge10" class="edge">
<title>634540230&#45;&gt;733943822</title>
<path fill="none" stroke="#000000" d="M1201.6969,-663.8314C1206.5484,-655.7079 1212.3679,-645.9637 1217.7142,-637.0118"/>
<polygon fill="#000000" stroke="#000000" points="1220.7268,-638.7933 1222.8494,-628.4133 1214.717,-635.2041 1220.7268,-638.7933"/>
</g>
<!-- 1966250569 -->
<g id="node28" class="node">
<title>1966250569</title>
<polygon fill="none" stroke="#000000" points="489.9742,-412 227.7182,-412 227.7182,-376 489.9742,-376 489.9742,-412"/>
<text text-anchor="middle" x="358.8462" y="-389.8" font-family="Times,serif" font-size="14.00" fill="#000000">cast l1 from Arr to demo.types.NummerList</text>
</g>
<!-- 1840976765&#45;&gt;1966250569 -->
<g id="edge4" class="edge">
<title>1840976765&#45;&gt;1966250569</title>
<path fill="none" stroke="#000000" d="M322.211,-447.8314C327.797,-439.6232 334.5091,-429.7606 340.6534,-420.7323"/>
<polygon fill="#000000" stroke="#000000" points="343.5822,-422.6496 346.3149,-412.4133 337.7952,-418.7112 343.5822,-422.6496"/>
</g>
<!-- 1307904972 -->
<g id="node6" class="node">
<title>1307904972</title>
<polygon fill="none" stroke="#000000" points="1294.3628,-772 1087.3296,-772 1087.3296,-736 1294.3628,-736 1294.3628,-772"/>
<text text-anchor="middle" x="1190.8462" y="-749.8" font-family="Times,serif" font-size="14.00" fill="#000000">transmit a&#45;&gt;Core_Client_Services</text>
</g>
<!-- 1307904972&#45;&gt;634540230 -->
<g id="edge32" class="edge">
<title>1307904972&#45;&gt;634540230</title>
<path fill="none" stroke="#000000" stroke-dasharray="1,5" d="M1190.8462,-735.8314C1190.8462,-728.131 1190.8462,-718.9743 1190.8462,-710.4166"/>
<polygon fill="#000000" stroke="#000000" points="1194.3463,-710.4132 1190.8462,-700.4133 1187.3463,-710.4133 1194.3463,-710.4132"/>
</g>
<!-- Core_Client_Services -->
<g id="node7" class="node">
<title>Core_Client_Services</title>
<polygon fill="none" stroke="#ffa500" stroke-width="2" points="1067.1921,-687.5623 958.8462,-700 850.5002,-687.5623 850.6014,-667.4377 1067.091,-667.4377 1067.1921,-687.5623"/>
<text text-anchor="middle" x="958.8462" y="-677.8" font-family="Times,serif" font-size="14.00" fill="#000000">Core_Client_Services</text>
</g>
<!-- 1448247698 -->
<g id="node8" class="node">
<title>1448247698</title>
<polygon fill="none" stroke="#000000" points="1177.6286,-52 994.0637,-52 994.0637,-16 1177.6286,-16 1177.6286,-52"/>
<text text-anchor="middle" x="1085.8462" y="-29.8" font-family="Times,serif" font-size="14.00" fill="#000000">b1 = g2::liagtAufGerade([l4])</text>
</g>
<!-- 2129221032 -->
<g id="node9" class="node">
<title>2129221032</title>
<polygon fill="none" stroke="#000000" points="1342.2156,-484 1115.4767,-484 1115.4767,-448 1342.2156,-448 1342.2156,-484"/>
<text text-anchor="middle" x="1228.8462" y="-461.8" font-family="Times,serif" font-size="14.00" fill="#000000">cast n2 from demo.types.Punkt to Arr</text>
</g>
<!-- 1224347463 -->
<g id="node29" class="node">
<title>1224347463</title>
<polygon fill="none" stroke="#000000" points="1352.5846,-412 1087.1078,-412 1087.1078,-376 1352.5846,-376 1352.5846,-412"/>
<text text-anchor="middle" x="1219.8462" y="-389.8" font-family="Times,serif" font-size="14.00" fill="#000000">cast n2 from Arr to demo.types.NummerList</text>
</g>
<!-- 2129221032&#45;&gt;1224347463 -->
<g id="edge1" class="edge">
<title>2129221032&#45;&gt;1224347463</title>
<path fill="none" stroke="#000000" d="M1226.5751,-447.8314C1225.6126,-440.131 1224.468,-430.9743 1223.3983,-422.4166"/>
<polygon fill="#000000" stroke="#000000" points="1226.8613,-421.9019 1222.1478,-412.4133 1219.9153,-422.7702 1226.8613,-421.9019"/>
</g>
<!-- 2130772866 -->
<g id="node10" class="node">
<title>2130772866</title>
<polygon fill="none" stroke="#000000" points="796.5387,-268 609.1537,-268 609.1537,-232 796.5387,-232 796.5387,-268"/>
<text text-anchor="middle" x="702.8462" y="-245.8" font-family="Times,serif" font-size="14.00" fill="#000000">l4 = a1::summierListe([l3, l2])</text>
</g>
<!-- 2005733474 -->
<g id="node22" class="node">
<title>2005733474</title>
<polygon fill="none" stroke="#000000" points="833.9742,-196 571.7182,-196 571.7182,-160 833.9742,-160 833.9742,-196"/>
<text text-anchor="middle" x="702.8462" y="-173.8" font-family="Times,serif" font-size="14.00" fill="#000000">cast l4 from demo.types.NummerList to Arr</text>
</g>
<!-- 2130772866&#45;&gt;2005733474 -->
<g id="edge3" class="edge">
<title>2130772866&#45;&gt;2005733474</title>
<path fill="none" stroke="#000000" d="M702.8462,-231.8314C702.8462,-224.131 702.8462,-214.9743 702.8462,-206.4166"/>
<polygon fill="#000000" stroke="#000000" points="706.3463,-206.4132 702.8462,-196.4133 699.3463,-206.4133 706.3463,-206.4132"/>
</g>
<!-- 1383524016 -->
<g id="node11" class="node">
<title>1383524016</title>
<polygon fill="none" stroke="#000000" points="711.6503,-484 602.0421,-484 602.0421,-448 711.6503,-448 711.6503,-484"/>
<text text-anchor="middle" x="656.8462" y="-461.8" font-family="Times,serif" font-size="14.00" fill="#000000">parse Number: 5</text>
</g>
<!-- 313540687 -->
<g id="node30" class="node">
<title>313540687</title>
<polygon fill="none" stroke="#000000" points="786.0495,-412 527.6429,-412 527.6429,-376 786.0495,-376 786.0495,-412"/>
<text text-anchor="middle" x="656.8462" y="-389.8" font-family="Times,serif" font-size="14.00" fill="#000000">a1 = demo.math.Addierer::__construct([5])</text>
</g>
<!-- 1383524016&#45;&gt;313540687 -->
<g id="edge5" class="edge">
<title>1383524016&#45;&gt;313540687</title>
<path fill="none" stroke="#000000" d="M656.8462,-447.8314C656.8462,-440.131 656.8462,-430.9743 656.8462,-422.4166"/>
<polygon fill="#000000" stroke="#000000" points="660.3463,-422.4132 656.8462,-412.4133 653.3463,-422.4133 660.3463,-422.4132"/>
</g>
<!-- 536765369 -->
<g id="node12" class="node">
<title>536765369</title>
<polygon fill="none" stroke="#000000" points="1003.2156,-484 776.4767,-484 776.4767,-448 1003.2156,-448 1003.2156,-484"/>
<text text-anchor="middle" x="889.8462" y="-461.8" font-family="Times,serif" font-size="14.00" fill="#000000">cast n1 from demo.types.Punkt to Arr</text>
</g>
<!-- 2085002312 -->
<g id="node15" class="node">
<title>2085002312</title>
<polygon fill="none" stroke="#000000" points="1069.5846,-412 804.1078,-412 804.1078,-376 1069.5846,-376 1069.5846,-412"/>
<text text-anchor="middle" x="936.8462" y="-389.8" font-family="Times,serif" font-size="14.00" fill="#000000">cast n1 from Arr to demo.types.NummerList</text>
</g>
<!-- 536765369&#45;&gt;2085002312 -->
<g id="edge6" class="edge">
<title>536765369&#45;&gt;2085002312</title>
<path fill="none" stroke="#000000" d="M901.7063,-447.8314C907.0091,-439.7079 913.3699,-429.9637 919.2135,-421.0118"/>
<polygon fill="#000000" stroke="#000000" points="922.291,-422.7003 924.8264,-412.4133 916.4293,-418.8739 922.291,-422.7003"/>
</g>
<!-- 728739494 -->
<g id="node13" class="node">
<title>728739494</title>
<polygon fill="none" stroke="#000000" points="683.2334,-52 528.459,-52 528.459,-16 683.2334,-16 683.2334,-52"/>
<text text-anchor="middle" x="605.8462" y="-29.8" font-family="Times,serif" font-size="14.00" fill="#000000">g1::liagtAufGerade([l4])</text>
</g>
<!-- 22671767 -->
<g id="node14" class="node">
<title>22671767</title>
<polygon fill="none" stroke="#000000" points="1301.9941,-556 1165.6983,-556 1165.6983,-520 1301.9941,-520 1301.9941,-556"/>
<text text-anchor="middle" x="1233.8462" y="-533.8" font-family="Times,serif" font-size="14.00" fill="#000000">n2 = g2::nullstelle([])</text>
</g>
<!-- 22671767&#45;&gt;2129221032 -->
<g id="edge7" class="edge">
<title>22671767&#45;&gt;2129221032</title>
<path fill="none" stroke="#000000" d="M1232.5845,-519.8314C1232.0497,-512.131 1231.4139,-502.9743 1230.8196,-494.4166"/>
<polygon fill="#000000" stroke="#000000" points="1234.3094,-494.1467 1230.1249,-484.4133 1227.3262,-494.6317 1234.3094,-494.1467"/>
</g>
<!-- 98394724 -->
<g id="node27" class="node">
<title>98394724</title>
<polygon fill="none" stroke="#000000" points="1013.7597,-340 819.9327,-340 819.9327,-304 1013.7597,-304 1013.7597,-340"/>
<text text-anchor="middle" x="916.8462" y="-317.8" font-family="Times,serif" font-size="14.00" fill="#000000">l2 = a1::summierListe([n1, n2])</text>
</g>
<!-- 2085002312&#45;&gt;98394724 -->
<g id="edge8" class="edge">
<title>2085002312&#45;&gt;98394724</title>
<path fill="none" stroke="#000000" d="M931.7993,-375.8314C929.6368,-368.0463 927.0609,-358.7729 924.6614,-350.1347"/>
<polygon fill="#000000" stroke="#000000" points="928.0098,-349.1117 921.961,-340.4133 921.2652,-350.9852 928.0098,-349.1117"/>
</g>
<!-- 1457410641 -->
<g id="node16" class="node">
<title>1457410641</title>
<polygon fill="none" stroke="#000000" points="1353.812,-700 1239.8804,-700 1239.8804,-664 1353.812,-664 1353.812,-700"/>
<text text-anchor="middle" x="1296.8462" y="-677.8" font-family="Times,serif" font-size="14.00" fill="#000000">parse Number: &#45;1</text>
</g>
<!-- 1457410641&#45;&gt;733943822 -->
<g id="edge9" class="edge">
<title>1457410641&#45;&gt;733943822</title>
<path fill="none" stroke="#000000" d="M1280.9486,-663.8314C1273.6184,-655.454 1264.7802,-645.3531 1256.7493,-636.1749"/>
<polygon fill="#000000" stroke="#000000" points="1259.1769,-633.6343 1249.9578,-628.4133 1253.9089,-638.2438 1259.1769,-633.6343"/>
</g>
<!-- 521081105 -->
<g id="node17" class="node">
<title>521081105</title>
<polygon fill="none" stroke="#000000" points="814.6051,-124 591.0873,-124 591.0873,-88 814.6051,-88 814.6051,-124"/>
<text text-anchor="middle" x="702.8462" y="-101.8" font-family="Times,serif" font-size="14.00" fill="#000000">cast l4 from Arr to demo.types.Punkt</text>
</g>
<!-- 521081105&#45;&gt;1448247698 -->
<g id="edge11" class="edge">
<title>521081105&#45;&gt;1448247698</title>
<path fill="none" stroke="#000000" d="M798.9989,-87.9243C855.3339,-77.3339 926.4488,-63.965 983.7753,-53.1883"/>
<polygon fill="#000000" stroke="#000000" points="984.7647,-56.5636 993.9459,-51.2763 983.4714,-49.6842 984.7647,-56.5636"/>
</g>
<!-- 521081105&#45;&gt;728739494 -->
<g id="edge12" class="edge">
<title>521081105&#45;&gt;728739494</title>
<path fill="none" stroke="#000000" d="M678.369,-87.8314C666.3067,-78.8779 651.5922,-67.9558 638.5776,-58.2955"/>
<polygon fill="#000000" stroke="#000000" points="640.4314,-55.3127 630.3156,-52.1628 636.2592,-60.9335 640.4314,-55.3127"/>
</g>
<!-- 517052730 -->
<g id="node18" class="node">
<title>517052730</title>
<polygon fill="none" stroke="#000000" points="781.774,-340 721.9184,-340 721.9184,-304 781.774,-304 781.774,-340"/>
<text text-anchor="middle" x="751.8462" y="-317.8" font-family="Times,serif" font-size="14.00" fill="#000000">store a1</text>
</g>
<!-- 1556995360 -->
<g id="node19" class="node">
<title>1556995360</title>
<polygon fill="none" stroke="#000000" points="1147.0607,-556 1086.6317,-556 1086.6317,-520 1147.0607,-520 1147.0607,-556"/>
<text text-anchor="middle" x="1116.8462" y="-533.8" font-family="Times,serif" font-size="14.00" fill="#000000">store g2</text>
</g>
<!-- 1318180415 -->
<g id="node20" class="node">
<title>1318180415</title>
<polygon fill="none" stroke="#000000" points="602.6503,-700 493.0421,-700 493.0421,-664 602.6503,-664 602.6503,-700"/>
<text text-anchor="middle" x="547.8462" y="-677.8" font-family="Times,serif" font-size="14.00" fill="#000000">parse Number: 1</text>
</g>
<!-- 1318180415&#45;&gt;789653861 -->
<g id="edge13" class="edge">
<title>1318180415&#45;&gt;789653861</title>
<path fill="none" stroke="#000000" d="M564.7531,-663.8314C572.6275,-655.3694 582.1382,-645.1489 590.7475,-635.8971"/>
<polygon fill="#000000" stroke="#000000" points="593.4615,-638.1183 597.7116,-628.4133 588.337,-633.3497 593.4615,-638.1183"/>
</g>
<!-- 158199555 -->
<g id="node21" class="node">
<title>158199555</title>
<polygon fill="none" stroke="#000000" points="762.0607,-556 701.6317,-556 701.6317,-520 762.0607,-520 762.0607,-556"/>
<text text-anchor="middle" x="731.8462" y="-533.8" font-family="Times,serif" font-size="14.00" fill="#000000">store g1</text>
</g>
<!-- 2005733474&#45;&gt;521081105 -->
<g id="edge14" class="edge">
<title>2005733474&#45;&gt;521081105</title>
<path fill="none" stroke="#000000" d="M702.8462,-159.8314C702.8462,-152.131 702.8462,-142.9743 702.8462,-134.4166"/>
<polygon fill="#000000" stroke="#000000" points="706.3463,-134.4132 702.8462,-124.4133 699.3463,-134.4133 706.3463,-134.4132"/>
</g>
<!-- 733943822&#45;&gt;1448247698 -->
<g id="edge15" class="edge">
<title>733943822&#45;&gt;1448247698</title>
<path fill="none" stroke="#000000" d="M1270.4654,-591.8913C1311.3485,-568.791 1371.8462,-524.6921 1371.8462,-466 1371.8462,-466 1371.8462,-466 1371.8462,-178 1371.8462,-92.9289 1269.6499,-58.1084 1187.4372,-43.8602"/>
<polygon fill="#000000" stroke="#000000" points="1187.9551,-40.3984 1177.5185,-42.2226 1186.8148,-47.3049 1187.9551,-40.3984"/>
</g>
<!-- 733943822&#45;&gt;22671767 -->
<g id="edge16" class="edge">
<title>733943822&#45;&gt;22671767</title>
<path fill="none" stroke="#000000" d="M1233.8462,-591.8314C1233.8462,-584.131 1233.8462,-574.9743 1233.8462,-566.4166"/>
<polygon fill="#000000" stroke="#000000" points="1237.3463,-566.4132 1233.8462,-556.4133 1230.3463,-566.4133 1237.3463,-566.4132"/>
</g>
<!-- 733943822&#45;&gt;1556995360 -->
<g id="edge17" class="edge">
<title>733943822&#45;&gt;1556995360</title>
<path fill="none" stroke="#000000" d="M1204.3222,-591.8314C1189.3571,-582.6221 1171.0076,-571.3301 1154.9859,-561.4706"/>
<polygon fill="#000000" stroke="#000000" points="1156.7117,-558.423 1146.3608,-556.1628 1153.043,-564.3847 1156.7117,-558.423"/>
</g>
<!-- 789653861&#45;&gt;728739494 -->
<g id="edge18" class="edge">
<title>789653861&#45;&gt;728739494</title>
<path fill="none" stroke="#000000" d="M579.4681,-591.9339C564.7955,-582.8931 548.7004,-570.7174 537.8462,-556 512.9022,-522.1781 508.8462,-508.0253 508.8462,-466 508.8462,-466 508.8462,-466 508.8462,-178 508.8462,-129.7831 546.7183,-85.6001 575.134,-59.2353"/>
<polygon fill="#000000" stroke="#000000" points="577.7671,-61.5744 582.8585,-52.2831 573.0842,-56.3713 577.7671,-61.5744"/>
</g>
<!-- 789653861&#45;&gt;158199555 -->
<g id="edge19" class="edge">
<title>789653861&#45;&gt;158199555</title>
<path fill="none" stroke="#000000" d="M644.3702,-591.8314C659.3353,-582.6221 677.6848,-571.3301 693.7064,-561.4706"/>
<polygon fill="#000000" stroke="#000000" points="695.6494,-564.3847 702.3316,-556.1628 691.9806,-558.423 695.6494,-564.3847"/>
</g>
<!-- 1637061418 -->
<g id="node26" class="node">
<title>1637061418</title>
<polygon fill="none" stroke="#000000" points="682.9941,-556 546.6983,-556 546.6983,-520 682.9941,-520 682.9941,-556"/>
<text text-anchor="middle" x="614.8462" y="-533.8" font-family="Times,serif" font-size="14.00" fill="#000000">n1 = g1::nullstelle([])</text>
</g>
<!-- 789653861&#45;&gt;1637061418 -->
<g id="edge20" class="edge">
<title>789653861&#45;&gt;1637061418</title>
<path fill="none" stroke="#000000" d="M614.8462,-591.8314C614.8462,-584.131 614.8462,-574.9743 614.8462,-566.4166"/>
<polygon fill="#000000" stroke="#000000" points="618.3463,-566.4132 614.8462,-556.4133 611.3463,-566.4133 618.3463,-566.4132"/>
</g>
<!-- 1831477404 -->
<g id="node25" class="node">
<title>1831477404</title>
<polygon fill="none" stroke="#000000" points="683.6355,-340 528.0569,-340 528.0569,-304 683.6355,-304 683.6355,-340"/>
<text text-anchor="middle" x="605.8462" y="-317.8" font-family="Times,serif" font-size="14.00" fill="#000000">l3 = a1::addierListe([l1])</text>
</g>
<!-- 1831477404&#45;&gt;2130772866 -->
<g id="edge21" class="edge">
<title>1831477404&#45;&gt;2130772866</title>
<path fill="none" stroke="#000000" d="M630.3234,-303.8314C642.3856,-294.8779 657.1001,-283.9558 670.1148,-274.2955"/>
<polygon fill="#000000" stroke="#000000" points="672.4332,-276.9335 678.3768,-268.1628 668.261,-271.3127 672.4332,-276.9335"/>
</g>
<!-- 1637061418&#45;&gt;536765369 -->
<g id="edge22" class="edge">
<title>1637061418&#45;&gt;536765369</title>
<path fill="none" stroke="#000000" d="M683.1771,-520.1097C721.9732,-509.9522 770.7033,-497.1938 811.1001,-486.6172"/>
<polygon fill="#000000" stroke="#000000" points="812.1249,-489.9669 820.9123,-484.0481 810.3519,-483.1952 812.1249,-489.9669"/>
</g>
<!-- 98394724&#45;&gt;2130772866 -->
<g id="edge23" class="edge">
<title>98394724&#45;&gt;2130772866</title>
<path fill="none" stroke="#000000" d="M863.1212,-303.9243C833.7389,-294.0387 797.161,-281.7321 766.3704,-271.3726"/>
<polygon fill="#000000" stroke="#000000" points="767.1874,-267.9548 756.5933,-268.0831 764.9551,-274.5893 767.1874,-267.9548"/>
</g>
<!-- 1966250569&#45;&gt;1831477404 -->
<g id="edge24" class="edge">
<title>1966250569&#45;&gt;1831477404</title>
<path fill="none" stroke="#000000" d="M420.8559,-375.9243C455.2095,-365.9103 498.0855,-353.412 533.9074,-342.97"/>
<polygon fill="#000000" stroke="#000000" points="535.19,-346.2419 543.811,-340.0831 533.231,-339.5216 535.19,-346.2419"/>
</g>
<!-- 1224347463&#45;&gt;98394724 -->
<g id="edge25" class="edge">
<title>1224347463&#45;&gt;98394724</title>
<path fill="none" stroke="#000000" d="M1143.7776,-375.9243C1100.8335,-365.7198 1047.0331,-352.9355 1002.5961,-342.3762"/>
<polygon fill="#000000" stroke="#000000" points="1003.2215,-338.9274 992.6832,-340.0207 1001.6031,-345.7378 1003.2215,-338.9274"/>
</g>
<!-- 313540687&#45;&gt;2130772866 -->
<g id="edge26" class="edge">
<title>313540687&#45;&gt;2130772866</title>
<path fill="none" stroke="#000000" d="M672.2437,-375.7193C679.7447,-365.7854 688.1413,-352.9159 692.8462,-340 700.0542,-320.2124 702.4569,-296.4903 703.1095,-278.3693"/>
<polygon fill="#000000" stroke="#000000" points="706.613,-278.2267 703.316,-268.158 699.6145,-278.0852 706.613,-278.2267"/>
</g>
<!-- 313540687&#45;&gt;517052730 -->
<g id="edge27" class="edge">
<title>313540687&#45;&gt;517052730</title>
<path fill="none" stroke="#000000" d="M680.8187,-375.8314C692.6323,-366.8779 707.0434,-355.9558 719.7897,-346.2955"/>
<polygon fill="#000000" stroke="#000000" points="722.0257,-348.9925 727.8813,-340.1628 717.7976,-343.4137 722.0257,-348.9925"/>
</g>
<!-- 313540687&#45;&gt;1831477404 -->
<g id="edge28" class="edge">
<title>313540687&#45;&gt;1831477404</title>
<path fill="none" stroke="#000000" d="M643.9767,-375.8314C638.1626,-367.6232 631.1766,-357.7606 624.7816,-348.7323"/>
<polygon fill="#000000" stroke="#000000" points="627.5252,-346.5505 618.8889,-340.4133 621.813,-350.5966 627.5252,-346.5505"/>
</g>
<!-- 313540687&#45;&gt;98394724 -->
<g id="edge29" class="edge">
<title>313540687&#45;&gt;98394724</title>
<path fill="none" stroke="#000000" d="M722.1196,-375.9243C758.4358,-365.8675 803.7998,-353.3052 841.6041,-342.8363"/>
<polygon fill="#000000" stroke="#000000" points="842.8428,-346.1251 851.546,-340.0831 840.9746,-339.3789 842.8428,-346.1251"/>
</g>
</g>
</svg>
