<?xml version="1.0" encoding="UTF-8" standalone="no"?>
<!DOCTYPE svg PUBLIC "-//W3C//DTD SVG 1.1//EN"
 "http://www.w3.org/Graphics/SVG/1.1/DTD/svg11.dtd">
<!-- Generated by graphviz version 2.40.1 (20161225.0304)
 -->
<!-- Title: %3 Pages: 1 -->
<svg width="1340pt" height="780pt"
 viewBox="0.00 0.00 1339.88 780.00" xmlns="http://www.w3.org/2000/svg" xmlns:xlink="http://www.w3.org/1999/xlink">
<g id="graph0" class="graph" transform="scale(1 1) rotate(0) translate(4 776)">
<title>%3</title>
<polygon fill="#ffffff" stroke="transparent" points="-4,4 -4,-776 1335.8823,-776 1335.8823,4 -4,4"/>
<g id="clust1" class="cluster">
<title>cluster_Core Client</title>
<polygon fill="none" stroke="#000000" points="8,-8 8,-708 1170,-708 1170,-8 8,-8"/>
</g>
<!-- 1978869058 -->
<g id="node1" class="node">
<title>1978869058</title>
<polygon fill="none" stroke="#000000" points="871.5889,-772 722.4111,-772 722.4111,-736 871.5889,-736 871.5889,-772"/>
<text text-anchor="middle" x="797" y="-749.8" font-family="Times,serif" font-size="14.00" fill="#000000">transmit a&#45;&gt;Core Client</text>
</g>
<!-- 1989335500 -->
<g id="node5" class="node">
<title>1989335500</title>
<polygon fill="none" stroke="#000000" points="827.9607,-700 766.0393,-700 766.0393,-664 827.9607,-664 827.9607,-700"/>
<text text-anchor="middle" x="797" y="-677.8" font-family="Times,serif" font-size="14.00" fill="#000000">accept a</text>
</g>
<!-- 1978869058&#45;&gt;1989335500 -->
<g id="edge30" class="edge">
<title>1978869058&#45;&gt;1989335500</title>
<path fill="none" stroke="#000000" stroke-dasharray="1,5" d="M797,-735.8314C797,-728.131 797,-718.9743 797,-710.4166"/>
<polygon fill="#000000" stroke="#000000" points="800.5001,-710.4132 797,-700.4133 793.5001,-710.4133 800.5001,-710.4132"/>
</g>
<!-- 407697359 -->
<g id="node2" class="node">
<title>407697359</title>
<polygon fill="none" stroke="#000000" points="1331.7648,-556 1178.2352,-556 1178.2352,-520 1331.7648,-520 1331.7648,-556"/>
<text text-anchor="middle" x="1255" y="-533.8" font-family="Times,serif" font-size="14.00" fill="#000000">transmit l1&#45;&gt;Core Client</text>
</g>
<!-- 671467883 -->
<g id="node6" class="node">
<title>671467883</title>
<polygon fill="none" stroke="#000000" points="1113.1349,-484 1046.8651,-484 1046.8651,-448 1113.1349,-448 1113.1349,-484"/>
<text text-anchor="middle" x="1080" y="-461.8" font-family="Times,serif" font-size="14.00" fill="#000000">accept l1</text>
</g>
<!-- 407697359&#45;&gt;671467883 -->
<g id="edge31" class="edge">
<title>407697359&#45;&gt;671467883</title>
<path fill="none" stroke="#000000" stroke-dasharray="1,5" d="M1210.8401,-519.8314C1183.7862,-508.7006 1149.337,-494.5272 1122.5786,-483.5181"/>
<polygon fill="#000000" stroke="#000000" points="1123.6758,-480.1848 1113.0962,-479.6167 1121.0123,-486.6584 1123.6758,-480.1848"/>
</g>
<!-- 1139700454 -->
<g id="node3" class="node">
<title>1139700454</title>
<polygon fill="none" stroke="#000000" points="333.2456,-700 270.7544,-700 270.7544,-664 333.2456,-664 333.2456,-700"/>
<text text-anchor="middle" x="302" y="-677.8" font-family="Times,serif" font-size="14.00" fill="#000000">accept b</text>
</g>
<!-- 1543148593 -->
<g id="node12" class="node">
<title>1543148593</title>
<polygon fill="none" stroke="#000000" points="384.1514,-628 119.8486,-628 119.8486,-592 384.1514,-592 384.1514,-628"/>
<text text-anchor="middle" x="252" y="-605.8" font-family="Times,serif" font-size="14.00" fill="#000000">g1 = demo.math.Gerade::__construct([b, 1])</text>
</g>
<!-- 1139700454&#45;&gt;1543148593 -->
<g id="edge2" class="edge">
<title>1139700454&#45;&gt;1543148593</title>
<path fill="none" stroke="#000000" d="M289.3829,-663.8314C283.6828,-655.6232 276.8337,-645.7606 270.5641,-636.7323"/>
<polygon fill="#000000" stroke="#000000" points="273.3658,-634.6306 264.787,-628.4133 267.6162,-638.6234 273.3658,-634.6306"/>
</g>
<!-- 592617454 -->
<g id="node4" class="node">
<title>592617454</title>
<polygon fill="none" stroke="#000000" points="376.8751,-772 227.1249,-772 227.1249,-736 376.8751,-736 376.8751,-772"/>
<text text-anchor="middle" x="302" y="-749.8" font-family="Times,serif" font-size="14.00" fill="#000000">transmit b&#45;&gt;Core Client</text>
</g>
<!-- 592617454&#45;&gt;1139700454 -->
<g id="edge32" class="edge">
<title>592617454&#45;&gt;1139700454</title>
<path fill="none" stroke="#000000" stroke-dasharray="1,5" d="M302,-735.8314C302,-728.131 302,-718.9743 302,-710.4166"/>
<polygon fill="#000000" stroke="#000000" points="305.5001,-710.4132 302,-700.4133 298.5001,-710.4133 305.5001,-710.4132"/>
</g>
<!-- 932285561 -->
<g id="node22" class="node">
<title>932285561</title>
<polygon fill="none" stroke="#000000" points="878.0273,-628 609.9727,-628 609.9727,-592 878.0273,-592 878.0273,-628"/>
<text text-anchor="middle" x="744" y="-605.8" font-family="Times,serif" font-size="14.00" fill="#000000">g2 = demo.math.Gerade::__construct([a, &#45;1])</text>
</g>
<!-- 1989335500&#45;&gt;932285561 -->
<g id="edge13" class="edge">
<title>1989335500&#45;&gt;932285561</title>
<path fill="none" stroke="#000000" d="M783.6259,-663.8314C777.5838,-655.6232 770.3237,-645.7606 763.6779,-636.7323"/>
<polygon fill="#000000" stroke="#000000" points="766.3011,-634.3918 757.5542,-628.4133 760.6637,-638.5415 766.3011,-634.3918"/>
</g>
<!-- 690521419 -->
<g id="node21" class="node">
<title>690521419</title>
<polygon fill="none" stroke="#000000" points="1162.128,-412 899.872,-412 899.872,-376 1162.128,-376 1162.128,-412"/>
<text text-anchor="middle" x="1031" y="-389.8" font-family="Times,serif" font-size="14.00" fill="#000000">cast l1 from Arr to demo.types.NummerList</text>
</g>
<!-- 671467883&#45;&gt;690521419 -->
<g id="edge20" class="edge">
<title>671467883&#45;&gt;690521419</title>
<path fill="none" stroke="#000000" d="M1067.6352,-447.8314C1062.0491,-439.6232 1055.337,-429.7606 1049.1928,-420.7323"/>
<polygon fill="#000000" stroke="#000000" points="1052.051,-418.7112 1043.5313,-412.4133 1046.264,-422.6496 1052.051,-418.7112"/>
</g>
<!-- Core Client -->
<g id="node7" class="node">
<title>Core Client</title>
<polygon fill="none" stroke="#ffa500" stroke-width="2" points="570.3872,-687.5623 507,-700 443.6128,-687.5623 443.672,-667.4377 570.328,-667.4377 570.3872,-687.5623"/>
<text text-anchor="middle" x="507" y="-677.8" font-family="Times,serif" font-size="14.00" fill="#000000">Core Client</text>
</g>
<!-- 2045766957 -->
<g id="node8" class="node">
<title>2045766957</title>
<polygon fill="none" stroke="#000000" points="861.7893,-340 706.2107,-340 706.2107,-304 861.7893,-304 861.7893,-340"/>
<text text-anchor="middle" x="784" y="-317.8" font-family="Times,serif" font-size="14.00" fill="#000000">l3 = a1::addierListe([l1])</text>
</g>
<!-- 790067787 -->
<g id="node18" class="node">
<title>790067787</title>
<polygon fill="none" stroke="#000000" points="702.6925,-268 515.3075,-268 515.3075,-232 702.6925,-232 702.6925,-268"/>
<text text-anchor="middle" x="609" y="-245.8" font-family="Times,serif" font-size="14.00" fill="#000000">l4 = a1::summierListe([l3, l2])</text>
</g>
<!-- 2045766957&#45;&gt;790067787 -->
<g id="edge1" class="edge">
<title>2045766957&#45;&gt;790067787</title>
<path fill="none" stroke="#000000" d="M739.8401,-303.8314C716.2268,-294.1162 686.9798,-282.0831 662.13,-271.8592"/>
<polygon fill="#000000" stroke="#000000" points="663.4219,-268.6061 652.8423,-268.038 660.7585,-275.0797 663.4219,-268.6061"/>
</g>
<!-- 1826699684 -->
<g id="node9" class="node">
<title>1826699684</title>
<polygon fill="none" stroke="#000000" points="853.7824,-52 670.2176,-52 670.2176,-16 853.7824,-16 853.7824,-52"/>
<text text-anchor="middle" x="762" y="-29.8" font-family="Times,serif" font-size="14.00" fill="#000000">b1 = g2::liagtAufGerade([l4])</text>
</g>
<!-- 1196695891 -->
<g id="node10" class="node">
<title>1196695891</title>
<polygon fill="none" stroke="#000000" points="687.9278,-340 628.0722,-340 628.0722,-304 687.9278,-304 687.9278,-340"/>
<text text-anchor="middle" x="658" y="-317.8" font-family="Times,serif" font-size="14.00" fill="#000000">store a1</text>
</g>
<!-- 591391158 -->
<g id="node11" class="node">
<title>591391158</title>
<polygon fill="none" stroke="#000000" points="747.9658,-700 634.0342,-700 634.0342,-664 747.9658,-664 747.9658,-700"/>
<text text-anchor="middle" x="691" y="-677.8" font-family="Times,serif" font-size="14.00" fill="#000000">parse Number: &#45;1</text>
</g>
<!-- 591391158&#45;&gt;932285561 -->
<g id="edge3" class="edge">
<title>591391158&#45;&gt;932285561</title>
<path fill="none" stroke="#000000" d="M704.3741,-663.8314C710.4162,-655.6232 717.6763,-645.7606 724.3221,-636.7323"/>
<polygon fill="#000000" stroke="#000000" points="727.3363,-638.5415 730.4458,-628.4133 721.6989,-634.3918 727.3363,-638.5415"/>
</g>
<!-- 769429195 -->
<g id="node16" class="node">
<title>769429195</title>
<polygon fill="none" stroke="#000000" points="282.2145,-556 221.7855,-556 221.7855,-520 282.2145,-520 282.2145,-556"/>
<text text-anchor="middle" x="252" y="-533.8" font-family="Times,serif" font-size="14.00" fill="#000000">store g1</text>
</g>
<!-- 1543148593&#45;&gt;769429195 -->
<g id="edge4" class="edge">
<title>1543148593&#45;&gt;769429195</title>
<path fill="none" stroke="#000000" d="M252,-591.8314C252,-584.131 252,-574.9743 252,-566.4166"/>
<polygon fill="#000000" stroke="#000000" points="255.5001,-566.4132 252,-556.4133 248.5001,-566.4133 255.5001,-566.4132"/>
</g>
<!-- 384294141 -->
<g id="node17" class="node">
<title>384294141</title>
<polygon fill="none" stroke="#000000" points="203.1479,-556 66.8521,-556 66.8521,-520 203.1479,-520 203.1479,-556"/>
<text text-anchor="middle" x="135" y="-533.8" font-family="Times,serif" font-size="14.00" fill="#000000">n1 = g1::nullstelle([])</text>
</g>
<!-- 1543148593&#45;&gt;384294141 -->
<g id="edge5" class="edge">
<title>1543148593&#45;&gt;384294141</title>
<path fill="none" stroke="#000000" d="M222.476,-591.8314C207.5109,-582.6221 189.1614,-571.3301 173.1397,-561.4706"/>
<polygon fill="#000000" stroke="#000000" points="174.8655,-558.423 164.5146,-556.1628 171.1968,-564.3847 174.8655,-558.423"/>
</g>
<!-- 343856911 -->
<g id="node25" class="node">
<title>343856911</title>
<polygon fill="none" stroke="#000000" points="532.3872,-52 377.6128,-52 377.6128,-16 532.3872,-16 532.3872,-52"/>
<text text-anchor="middle" x="455" y="-29.8" font-family="Times,serif" font-size="14.00" fill="#000000">g1::liagtAufGerade([l4])</text>
</g>
<!-- 1543148593&#45;&gt;343856911 -->
<g id="edge6" class="edge">
<title>1543148593&#45;&gt;343856911</title>
<path fill="none" stroke="#000000" d="M268.6974,-591.9229C276.8282,-582.0447 285.9235,-569.1636 291,-556 305.4812,-518.4494 301,-506.2462 301,-466 301,-466 301,-466 301,-178 301,-120.9832 358.0165,-80.0384 402.6637,-56.7167"/>
<polygon fill="#000000" stroke="#000000" points="404.3501,-59.7859 411.6926,-52.148 401.1896,-53.54 404.3501,-59.7859"/>
</g>
<!-- 990355670 -->
<g id="node13" class="node">
<title>990355670</title>
<polygon fill="none" stroke="#000000" points="812.1479,-556 675.8521,-556 675.8521,-520 812.1479,-520 812.1479,-556"/>
<text text-anchor="middle" x="744" y="-533.8" font-family="Times,serif" font-size="14.00" fill="#000000">n2 = g2::nullstelle([])</text>
</g>
<!-- 1914301543 -->
<g id="node30" class="node">
<title>1914301543</title>
<polygon fill="none" stroke="#000000" points="613.3694,-484 386.6306,-484 386.6306,-448 613.3694,-448 613.3694,-484"/>
<text text-anchor="middle" x="500" y="-461.8" font-family="Times,serif" font-size="14.00" fill="#000000">cast n2 from demo.types.Punkt to Arr</text>
</g>
<!-- 990355670&#45;&gt;1914301543 -->
<g id="edge7" class="edge">
<title>990355670&#45;&gt;1914301543</title>
<path fill="none" stroke="#000000" d="M682.7434,-519.9243C648.8071,-509.9103 606.4519,-497.412 571.0651,-486.97"/>
<polygon fill="#000000" stroke="#000000" points="571.8635,-483.5565 561.2818,-484.0831 569.8823,-490.2703 571.8635,-483.5565"/>
</g>
<!-- 363988129 -->
<g id="node14" class="node">
<title>363988129</title>
<polygon fill="none" stroke="#000000" points="720.7589,-124 497.2411,-124 497.2411,-88 720.7589,-88 720.7589,-124"/>
<text text-anchor="middle" x="609" y="-101.8" font-family="Times,serif" font-size="14.00" fill="#000000">cast l4 from Arr to demo.types.Punkt</text>
</g>
<!-- 363988129&#45;&gt;1826699684 -->
<g id="edge8" class="edge">
<title>363988129&#45;&gt;1826699684</title>
<path fill="none" stroke="#000000" d="M647.6084,-87.8314C667.8893,-78.2874 692.9238,-66.5065 714.3971,-56.4013"/>
<polygon fill="#000000" stroke="#000000" points="716.1114,-59.4629 723.6693,-52.038 713.1308,-53.1291 716.1114,-59.4629"/>
</g>
<!-- 363988129&#45;&gt;343856911 -->
<g id="edge9" class="edge">
<title>363988129&#45;&gt;343856911</title>
<path fill="none" stroke="#000000" d="M570.1393,-87.8314C549.7258,-78.2874 524.5277,-66.5065 502.914,-56.4013"/>
<polygon fill="#000000" stroke="#000000" points="504.1225,-53.1027 493.5813,-52.038 501.1577,-59.4439 504.1225,-53.1027"/>
</g>
<!-- 1277009227 -->
<g id="node15" class="node">
<title>1277009227</title>
<polygon fill="none" stroke="#000000" points="281.7384,-412 16.2616,-412 16.2616,-376 281.7384,-376 281.7384,-412"/>
<text text-anchor="middle" x="149" y="-389.8" font-family="Times,serif" font-size="14.00" fill="#000000">cast n1 from Arr to demo.types.NummerList</text>
</g>
<!-- 956420404 -->
<g id="node26" class="node">
<title>956420404</title>
<polygon fill="none" stroke="#000000" points="569.9135,-340 376.0865,-340 376.0865,-304 569.9135,-304 569.9135,-340"/>
<text text-anchor="middle" x="473" y="-317.8" font-family="Times,serif" font-size="14.00" fill="#000000">l2 = a1::summierListe([n1, n2])</text>
</g>
<!-- 1277009227&#45;&gt;956420404 -->
<g id="edge10" class="edge">
<title>1277009227&#45;&gt;956420404</title>
<path fill="none" stroke="#000000" d="M230.3407,-375.9243C276.4541,-365.6769 334.2739,-352.828 381.9054,-342.2432"/>
<polygon fill="#000000" stroke="#000000" points="382.9043,-345.6067 391.9069,-340.0207 381.3858,-338.7734 382.9043,-345.6067"/>
</g>
<!-- 349420578 -->
<g id="node24" class="node">
<title>349420578</title>
<polygon fill="none" stroke="#000000" points="255.3694,-484 28.6306,-484 28.6306,-448 255.3694,-448 255.3694,-484"/>
<text text-anchor="middle" x="142" y="-461.8" font-family="Times,serif" font-size="14.00" fill="#000000">cast n1 from demo.types.Punkt to Arr</text>
</g>
<!-- 384294141&#45;&gt;349420578 -->
<g id="edge11" class="edge">
<title>384294141&#45;&gt;349420578</title>
<path fill="none" stroke="#000000" d="M136.7664,-519.8314C137.515,-512.131 138.4053,-502.9743 139.2373,-494.4166"/>
<polygon fill="#000000" stroke="#000000" points="142.7256,-494.7051 140.2098,-484.4133 135.7585,-494.0276 142.7256,-494.7051"/>
</g>
<!-- 102617125 -->
<g id="node27" class="node">
<title>102617125</title>
<polygon fill="none" stroke="#000000" points="740.128,-196 477.872,-196 477.872,-160 740.128,-160 740.128,-196"/>
<text text-anchor="middle" x="609" y="-173.8" font-family="Times,serif" font-size="14.00" fill="#000000">cast l4 from demo.types.NummerList to Arr</text>
</g>
<!-- 790067787&#45;&gt;102617125 -->
<g id="edge12" class="edge">
<title>790067787&#45;&gt;102617125</title>
<path fill="none" stroke="#000000" d="M609,-231.8314C609,-224.131 609,-214.9743 609,-206.4166"/>
<polygon fill="#000000" stroke="#000000" points="612.5001,-206.4132 609,-196.4133 605.5001,-206.4133 612.5001,-206.4132"/>
</g>
<!-- 580718781 -->
<g id="node19" class="node">
<title>580718781</title>
<polygon fill="none" stroke="#000000" points="657.2145,-556 596.7855,-556 596.7855,-520 657.2145,-520 657.2145,-556"/>
<text text-anchor="middle" x="627" y="-533.8" font-family="Times,serif" font-size="14.00" fill="#000000">store g2</text>
</g>
<!-- 1625082366 -->
<g id="node20" class="node">
<title>1625082366</title>
<polygon fill="none" stroke="#000000" points="787.8041,-484 678.1959,-484 678.1959,-448 787.8041,-448 787.8041,-484"/>
<text text-anchor="middle" x="733" y="-461.8" font-family="Times,serif" font-size="14.00" fill="#000000">parse Number: 5</text>
</g>
<!-- 247944893 -->
<g id="node28" class="node">
<title>247944893</title>
<polygon fill="none" stroke="#000000" points="862.2033,-412 603.7967,-412 603.7967,-376 862.2033,-376 862.2033,-412"/>
<text text-anchor="middle" x="733" y="-389.8" font-family="Times,serif" font-size="14.00" fill="#000000">a1 = demo.math.Addierer::__construct([5])</text>
</g>
<!-- 1625082366&#45;&gt;247944893 -->
<g id="edge14" class="edge">
<title>1625082366&#45;&gt;247944893</title>
<path fill="none" stroke="#000000" d="M733,-447.8314C733,-440.131 733,-430.9743 733,-422.4166"/>
<polygon fill="#000000" stroke="#000000" points="736.5001,-422.4132 733,-412.4133 729.5001,-422.4133 736.5001,-422.4132"/>
</g>
<!-- 690521419&#45;&gt;2045766957 -->
<g id="edge15" class="edge">
<title>690521419&#45;&gt;2045766957</title>
<path fill="none" stroke="#000000" d="M968.9903,-375.9243C934.6367,-365.9103 891.7607,-353.412 855.9388,-342.97"/>
<polygon fill="#000000" stroke="#000000" points="856.6152,-339.5216 846.0352,-340.0831 854.6562,-346.2419 856.6152,-339.5216"/>
</g>
<!-- 932285561&#45;&gt;1826699684 -->
<g id="edge16" class="edge">
<title>932285561&#45;&gt;1826699684</title>
<path fill="none" stroke="#000000" d="M780.3538,-591.8217C820.9407,-568.6537 881,-524.4889 881,-466 881,-466 881,-466 881,-178 881,-126.4258 835.0813,-83.3604 800.292,-58.1337"/>
<polygon fill="#000000" stroke="#000000" points="801.9157,-54.997 791.7218,-52.1102 797.8906,-60.724 801.9157,-54.997"/>
</g>
<!-- 932285561&#45;&gt;990355670 -->
<g id="edge17" class="edge">
<title>932285561&#45;&gt;990355670</title>
<path fill="none" stroke="#000000" d="M744,-591.8314C744,-584.131 744,-574.9743 744,-566.4166"/>
<polygon fill="#000000" stroke="#000000" points="747.5001,-566.4132 744,-556.4133 740.5001,-566.4133 747.5001,-566.4132"/>
</g>
<!-- 932285561&#45;&gt;580718781 -->
<g id="edge18" class="edge">
<title>932285561&#45;&gt;580718781</title>
<path fill="none" stroke="#000000" d="M714.476,-591.8314C699.5109,-582.6221 681.1614,-571.3301 665.1397,-561.4706"/>
<polygon fill="#000000" stroke="#000000" points="666.8655,-558.423 656.5146,-556.1628 663.1968,-564.3847 666.8655,-558.423"/>
</g>
<!-- 1708570683 -->
<g id="node23" class="node">
<title>1708570683</title>
<polygon fill="none" stroke="#000000" points="585.7384,-412 320.2616,-412 320.2616,-376 585.7384,-376 585.7384,-412"/>
<text text-anchor="middle" x="453" y="-389.8" font-family="Times,serif" font-size="14.00" fill="#000000">cast n2 from Arr to demo.types.NummerList</text>
</g>
<!-- 1708570683&#45;&gt;956420404 -->
<g id="edge19" class="edge">
<title>1708570683&#45;&gt;956420404</title>
<path fill="none" stroke="#000000" d="M458.0468,-375.8314C460.2094,-368.0463 462.7853,-358.7729 465.1848,-350.1347"/>
<polygon fill="#000000" stroke="#000000" points="468.581,-350.9852 467.8852,-340.4133 461.8364,-349.1117 468.581,-350.9852"/>
</g>
<!-- 349420578&#45;&gt;1277009227 -->
<g id="edge21" class="edge">
<title>349420578&#45;&gt;1277009227</title>
<path fill="none" stroke="#000000" d="M143.7664,-447.8314C144.515,-440.131 145.4053,-430.9743 146.2373,-422.4166"/>
<polygon fill="#000000" stroke="#000000" points="149.7256,-422.7051 147.2098,-412.4133 142.7585,-422.0276 149.7256,-422.7051"/>
</g>
<!-- 956420404&#45;&gt;790067787 -->
<g id="edge22" class="edge">
<title>956420404&#45;&gt;790067787</title>
<path fill="none" stroke="#000000" d="M507.3185,-303.8314C525.0359,-294.4516 546.8345,-282.9112 565.6984,-272.9244"/>
<polygon fill="#000000" stroke="#000000" points="567.4922,-275.935 574.6924,-268.1628 564.2169,-269.7485 567.4922,-275.935"/>
</g>
<!-- 102617125&#45;&gt;363988129 -->
<g id="edge23" class="edge">
<title>102617125&#45;&gt;363988129</title>
<path fill="none" stroke="#000000" d="M609,-159.8314C609,-152.131 609,-142.9743 609,-134.4166"/>
<polygon fill="#000000" stroke="#000000" points="612.5001,-134.4132 609,-124.4133 605.5001,-134.4133 612.5001,-134.4132"/>
</g>
<!-- 247944893&#45;&gt;2045766957 -->
<g id="edge24" class="edge">
<title>247944893&#45;&gt;2045766957</title>
<path fill="none" stroke="#000000" d="M745.8695,-375.8314C751.6835,-367.6232 758.6696,-357.7606 765.0646,-348.7323"/>
<polygon fill="#000000" stroke="#000000" points="768.0331,-350.5966 770.9573,-340.4133 762.321,-346.5505 768.0331,-350.5966"/>
</g>
<!-- 247944893&#45;&gt;1196695891 -->
<g id="edge25" class="edge">
<title>247944893&#45;&gt;1196695891</title>
<path fill="none" stroke="#000000" d="M714.0743,-375.8314C705.0143,-367.1337 694.0191,-356.5783 684.1735,-347.1265"/>
<polygon fill="#000000" stroke="#000000" points="686.5574,-344.5633 676.9196,-340.1628 681.7096,-349.613 686.5574,-344.5633"/>
</g>
<!-- 247944893&#45;&gt;790067787 -->
<g id="edge26" class="edge">
<title>247944893&#45;&gt;790067787</title>
<path fill="none" stroke="#000000" d="M666.693,-375.9728C648.5169,-367.8647 630.6355,-356.3141 619,-340 606.35,-322.2635 604.465,-297.3576 605.3971,-278.2411"/>
<polygon fill="#000000" stroke="#000000" points="608.9056,-278.2651 606.1827,-268.0261 601.9262,-277.7283 608.9056,-278.2651"/>
</g>
<!-- 247944893&#45;&gt;956420404 -->
<g id="edge27" class="edge">
<title>247944893&#45;&gt;956420404</title>
<path fill="none" stroke="#000000" d="M667.7266,-375.9243C631.4104,-365.8675 586.0464,-353.3052 548.2421,-342.8363"/>
<polygon fill="#000000" stroke="#000000" points="548.8716,-339.3789 538.3002,-340.0831 547.0034,-346.1251 548.8716,-339.3789"/>
</g>
<!-- 574568002 -->
<g id="node29" class="node">
<title>574568002</title>
<polygon fill="none" stroke="#000000" points="252.8041,-700 143.1959,-700 143.1959,-664 252.8041,-664 252.8041,-700"/>
<text text-anchor="middle" x="198" y="-677.8" font-family="Times,serif" font-size="14.00" fill="#000000">parse Number: 1</text>
</g>
<!-- 574568002&#45;&gt;1543148593 -->
<g id="edge28" class="edge">
<title>574568002&#45;&gt;1543148593</title>
<path fill="none" stroke="#000000" d="M211.6265,-663.8314C217.846,-655.5386 225.3322,-645.557 232.16,-636.4533"/>
<polygon fill="#000000" stroke="#000000" points="234.99,-638.5133 238.19,-628.4133 229.39,-634.3133 234.99,-638.5133"/>
</g>
<!-- 1914301543&#45;&gt;1708570683 -->
<g id="edge29" class="edge">
<title>1914301543&#45;&gt;1708570683</title>
<path fill="none" stroke="#000000" d="M488.1399,-447.8314C482.8371,-439.7079 476.4763,-429.9637 470.6327,-421.0118"/>
<polygon fill="#000000" stroke="#000000" points="473.4169,-418.8739 465.0198,-412.4133 467.5552,-422.7003 473.4169,-418.8739"/>
</g>
</g>
</svg>
