<?xml version="1.0" encoding="UTF-8" standalone="no"?>
<!DOCTYPE svg PUBLIC "-//W3C//DTD SVG 1.1//EN"
 "http://www.w3.org/Graphics/SVG/1.1/DTD/svg11.dtd">
<!-- Generated by graphviz version 2.40.1 (20161225.0304)
 -->
<!-- Title: %3 Pages: 1 -->
<svg width="1435pt" height="692pt"
 viewBox="0.00 0.00 1435.09 692.00" xmlns="http://www.w3.org/2000/svg" xmlns:xlink="http://www.w3.org/1999/xlink">
<g id="graph0" class="graph" transform="scale(1 1) rotate(0) translate(4 688)">
<title>%3</title>
<polygon fill="#ffffff" stroke="transparent" points="-4,4 -4,-688 1431.0894,-688 1431.0894,4 -4,4"/>
<!-- 2045766957 -->
<g id="node1" class="node">
<title>2045766957</title>
<polygon fill="none" stroke="#000000" points="1039.865,-324 884.2864,-324 884.2864,-288 1039.865,-288 1039.865,-324"/>
<text text-anchor="middle" x="962.0757" y="-301.8" font-family="Times,serif" font-size="14.00" fill="#000000">l3 = a1::addierListe([l1])</text>
</g>
<!-- 790067787 -->
<g id="node12" class="node">
<title>790067787</title>
<polygon fill="none" stroke="#000000" points="949.7682,-252 762.3832,-252 762.3832,-216 949.7682,-216 949.7682,-252"/>
<text text-anchor="middle" x="856.0757" y="-229.8" font-family="Times,serif" font-size="14.00" fill="#000000">l4 = a1::summierListe([l3, l2])</text>
</g>
<!-- 2045766957&#45;&gt;790067787 -->
<g id="edge1" class="edge">
<title>2045766957&#45;&gt;790067787</title>
<path fill="none" stroke="#000000" d="M935.3274,-287.8314C922.0204,-278.7927 905.7597,-267.7476 891.4382,-258.0198"/>
<polygon fill="#000000" stroke="#000000" points="893.0542,-254.8864 882.8154,-252.1628 889.121,-260.677 893.0542,-254.8864"/>
</g>
<!-- 1826699684 -->
<g id="node2" class="node">
<title>1826699684</title>
<polygon fill="none" stroke="#000000" points="1040.8581,-36 857.2932,-36 857.2932,0 1040.8581,0 1040.8581,-36"/>
<text text-anchor="middle" x="949.0757" y="-13.8" font-family="Times,serif" font-size="14.00" fill="#000000">b1 = g2::liagtAufGerade([l4])</text>
</g>
<!-- 1196695891 -->
<g id="node3" class="node">
<title>1196695891</title>
<polygon fill="none" stroke="#000000" points="828.0035,-324 768.1479,-324 768.1479,-288 828.0035,-288 828.0035,-324"/>
<text text-anchor="middle" x="798.0757" y="-301.8" font-family="Times,serif" font-size="14.00" fill="#000000">store a1</text>
</g>
<!-- 1139700454 -->
<g id="node4" class="node">
<title>1139700454</title>
<polygon fill="none" stroke="#000000" points="111.3213,-684 48.8301,-684 48.8301,-648 111.3213,-648 111.3213,-684"/>
<text text-anchor="middle" x="80.0757" y="-661.8" font-family="Times,serif" font-size="14.00" fill="#000000">accept b</text>
</g>
<!-- 1543148593 -->
<g id="node6" class="node">
<title>1543148593</title>
<polygon fill="none" stroke="#000000" points="264.2271,-612 -.0757,-612 -.0757,-576 264.2271,-576 264.2271,-612"/>
<text text-anchor="middle" x="132.0757" y="-589.8" font-family="Times,serif" font-size="14.00" fill="#000000">g1 = demo.math.Gerade::__construct([b, 1])</text>
</g>
<!-- 1139700454&#45;&gt;1543148593 -->
<g id="edge2" class="edge">
<title>1139700454&#45;&gt;1543148593</title>
<path fill="none" stroke="#000000" d="M93.1975,-647.8314C99.1256,-639.6232 106.2486,-629.7606 112.769,-620.7323"/>
<polygon fill="#000000" stroke="#000000" points="115.7597,-622.5693 118.7772,-612.4133 110.0849,-618.4708 115.7597,-622.5693"/>
</g>
<!-- 591391158 -->
<g id="node5" class="node">
<title>591391158</title>
<polygon fill="none" stroke="#000000" points="1297.0415,-684 1183.1099,-684 1183.1099,-648 1297.0415,-648 1297.0415,-684"/>
<text text-anchor="middle" x="1240.0757" y="-661.8" font-family="Times,serif" font-size="14.00" fill="#000000">parse Number: &#45;1</text>
</g>
<!-- 932285561 -->
<g id="node17" class="node">
<title>932285561</title>
<polygon fill="none" stroke="#000000" points="1427.103,-612 1159.0483,-612 1159.0483,-576 1427.103,-576 1427.103,-612"/>
<text text-anchor="middle" x="1293.0757" y="-589.8" font-family="Times,serif" font-size="14.00" fill="#000000">g2 = demo.math.Gerade::__construct([a, &#45;1])</text>
</g>
<!-- 591391158&#45;&gt;932285561 -->
<g id="edge3" class="edge">
<title>591391158&#45;&gt;932285561</title>
<path fill="none" stroke="#000000" d="M1253.4498,-647.8314C1259.4919,-639.6232 1266.7519,-629.7606 1273.3977,-620.7323"/>
<polygon fill="#000000" stroke="#000000" points="1276.4119,-622.5415 1279.5215,-612.4133 1270.7746,-618.3918 1276.4119,-622.5415"/>
</g>
<!-- 769429195 -->
<g id="node10" class="node">
<title>769429195</title>
<polygon fill="none" stroke="#000000" points="104.2902,-540 43.8611,-540 43.8611,-504 104.2902,-504 104.2902,-540"/>
<text text-anchor="middle" x="74.0757" y="-517.8" font-family="Times,serif" font-size="14.00" fill="#000000">store g1</text>
</g>
<!-- 1543148593&#45;&gt;769429195 -->
<g id="edge4" class="edge">
<title>1543148593&#45;&gt;769429195</title>
<path fill="none" stroke="#000000" d="M117.4398,-575.8314C110.7596,-567.5386 102.7188,-557.557 95.3853,-548.4533"/>
<polygon fill="#000000" stroke="#000000" points="97.9076,-546.0052 88.9086,-540.4133 92.4563,-550.3965 97.9076,-546.0052"/>
</g>
<!-- 384294141 -->
<g id="node11" class="node">
<title>384294141</title>
<polygon fill="none" stroke="#000000" points="324.2236,-540 187.9278,-540 187.9278,-504 324.2236,-504 324.2236,-540"/>
<text text-anchor="middle" x="256.0757" y="-517.8" font-family="Times,serif" font-size="14.00" fill="#000000">n1 = g1::nullstelle([])</text>
</g>
<!-- 1543148593&#45;&gt;384294141 -->
<g id="edge5" class="edge">
<title>1543148593&#45;&gt;384294141</title>
<path fill="none" stroke="#000000" d="M163.3661,-575.8314C179.3733,-566.5368 199.0343,-555.1208 216.1251,-545.1971"/>
<polygon fill="#000000" stroke="#000000" points="217.9048,-548.211 224.7953,-540.1628 214.3899,-542.1575 217.9048,-548.211"/>
</g>
<!-- 343856911 -->
<g id="node21" class="node">
<title>343856911</title>
<polygon fill="none" stroke="#000000" points="524.4629,-36 369.6885,-36 369.6885,0 524.4629,0 524.4629,-36"/>
<text text-anchor="middle" x="447.0757" y="-13.8" font-family="Times,serif" font-size="14.00" fill="#000000">g1::liagtAufGerade([l4])</text>
</g>
<!-- 1543148593&#45;&gt;343856911 -->
<g id="edge6" class="edge">
<title>1543148593&#45;&gt;343856911</title>
<path fill="none" stroke="#000000" d="M132.0757,-575.8146C132.0757,-548.4983 132.0757,-495.25 132.0757,-450 132.0757,-450 132.0757,-450 132.0757,-162 132.0757,-110.966 270.5643,-64.3 363.8894,-38.6464"/>
<polygon fill="#000000" stroke="#000000" points="364.8874,-42.0022 373.6197,-36.0025 363.0519,-35.2471 364.8874,-42.0022"/>
</g>
<!-- 990355670 -->
<g id="node7" class="node">
<title>990355670</title>
<polygon fill="none" stroke="#000000" points="1002.2236,-540 865.9278,-540 865.9278,-504 1002.2236,-504 1002.2236,-540"/>
<text text-anchor="middle" x="934.0757" y="-517.8" font-family="Times,serif" font-size="14.00" fill="#000000">n2 = g2::nullstelle([])</text>
</g>
<!-- 1914301543 -->
<g id="node26" class="node">
<title>1914301543</title>
<polygon fill="none" stroke="#000000" points="736.4451,-468 509.7062,-468 509.7062,-432 736.4451,-432 736.4451,-468"/>
<text text-anchor="middle" x="623.0757" y="-445.8" font-family="Times,serif" font-size="14.00" fill="#000000">cast n2 from demo.types.Punkt to Arr</text>
</g>
<!-- 990355670&#45;&gt;1914301543 -->
<g id="edge7" class="edge">
<title>990355670&#45;&gt;1914301543</title>
<path fill="none" stroke="#000000" d="M865.8254,-506.1993C820.3252,-495.6655 760.0895,-481.7202 711.0049,-470.3566"/>
<polygon fill="#000000" stroke="#000000" points="711.5591,-466.8924 701.0274,-468.0467 709.9803,-473.712 711.5591,-466.8924"/>
</g>
<!-- 363988129 -->
<g id="node8" class="node">
<title>363988129</title>
<polygon fill="none" stroke="#000000" points="967.8346,-108 744.3167,-108 744.3167,-72 967.8346,-72 967.8346,-108"/>
<text text-anchor="middle" x="856.0757" y="-85.8" font-family="Times,serif" font-size="14.00" fill="#000000">cast l4 from Arr to demo.types.Punkt</text>
</g>
<!-- 363988129&#45;&gt;1826699684 -->
<g id="edge8" class="edge">
<title>363988129&#45;&gt;1826699684</title>
<path fill="none" stroke="#000000" d="M879.5435,-71.8314C891.1084,-62.8779 905.2161,-51.9558 917.694,-42.2955"/>
<polygon fill="#000000" stroke="#000000" points="919.8507,-45.0521 925.6154,-36.1628 915.5655,-39.5171 919.8507,-45.0521"/>
</g>
<!-- 363988129&#45;&gt;343856911 -->
<g id="edge9" class="edge">
<title>363988129&#45;&gt;343856911</title>
<path fill="none" stroke="#000000" d="M753.6593,-71.9707C686.1663,-60.0893 598.7205,-44.6954 534.5017,-33.3904"/>
<polygon fill="#000000" stroke="#000000" points="534.8564,-29.8991 524.401,-31.6123 533.6427,-36.7931 534.8564,-29.8991"/>
</g>
<!-- 1277009227 -->
<g id="node9" class="node">
<title>1277009227</title>
<polygon fill="none" stroke="#000000" points="425.8141,-396 160.3373,-396 160.3373,-360 425.8141,-360 425.8141,-396"/>
<text text-anchor="middle" x="293.0757" y="-373.8" font-family="Times,serif" font-size="14.00" fill="#000000">cast n1 from Arr to demo.types.NummerList</text>
</g>
<!-- 956420404 -->
<g id="node22" class="node">
<title>956420404</title>
<polygon fill="none" stroke="#000000" points="711.9892,-324 518.1622,-324 518.1622,-288 711.9892,-288 711.9892,-324"/>
<text text-anchor="middle" x="615.0757" y="-301.8" font-family="Times,serif" font-size="14.00" fill="#000000">l2 = a1::summierListe([n1, n2])</text>
</g>
<!-- 1277009227&#45;&gt;956420404 -->
<g id="edge10" class="edge">
<title>1277009227&#45;&gt;956420404</title>
<path fill="none" stroke="#000000" d="M373.9143,-359.9243C419.743,-349.6769 477.2059,-336.828 524.5434,-326.2432"/>
<polygon fill="#000000" stroke="#000000" points="525.4879,-329.6186 534.4832,-324.0207 523.9604,-322.7872 525.4879,-329.6186"/>
</g>
<!-- 349420578 -->
<g id="node20" class="node">
<title>349420578</title>
<polygon fill="none" stroke="#000000" points="396.4451,-468 169.7062,-468 169.7062,-432 396.4451,-432 396.4451,-468"/>
<text text-anchor="middle" x="283.0757" y="-445.8" font-family="Times,serif" font-size="14.00" fill="#000000">cast n1 from demo.types.Punkt to Arr</text>
</g>
<!-- 384294141&#45;&gt;349420578 -->
<g id="edge11" class="edge">
<title>384294141&#45;&gt;349420578</title>
<path fill="none" stroke="#000000" d="M262.8889,-503.8314C265.84,-495.9617 269.3615,-486.5712 272.6307,-477.8533"/>
<polygon fill="#000000" stroke="#000000" points="275.9366,-479.0055 276.1707,-468.4133 269.3823,-476.5476 275.9366,-479.0055"/>
</g>
<!-- 102617125 -->
<g id="node23" class="node">
<title>102617125</title>
<polygon fill="none" stroke="#000000" points="987.2036,-180 724.9477,-180 724.9477,-144 987.2036,-144 987.2036,-180"/>
<text text-anchor="middle" x="856.0757" y="-157.8" font-family="Times,serif" font-size="14.00" fill="#000000">cast l4 from demo.types.NummerList to Arr</text>
</g>
<!-- 790067787&#45;&gt;102617125 -->
<g id="edge12" class="edge">
<title>790067787&#45;&gt;102617125</title>
<path fill="none" stroke="#000000" d="M856.0757,-215.8314C856.0757,-208.131 856.0757,-198.9743 856.0757,-190.4166"/>
<polygon fill="#000000" stroke="#000000" points="859.5758,-190.4132 856.0757,-180.4133 852.5758,-190.4133 859.5758,-190.4132"/>
</g>
<!-- 1989335500 -->
<g id="node13" class="node">
<title>1989335500</title>
<polygon fill="none" stroke="#000000" points="1377.0364,-684 1315.115,-684 1315.115,-648 1377.0364,-648 1377.0364,-684"/>
<text text-anchor="middle" x="1346.0757" y="-661.8" font-family="Times,serif" font-size="14.00" fill="#000000">accept a</text>
</g>
<!-- 1989335500&#45;&gt;932285561 -->
<g id="edge13" class="edge">
<title>1989335500&#45;&gt;932285561</title>
<path fill="none" stroke="#000000" d="M1332.7015,-647.8314C1326.6595,-639.6232 1319.3994,-629.7606 1312.7536,-620.7323"/>
<polygon fill="#000000" stroke="#000000" points="1315.3768,-618.3918 1306.6299,-612.4133 1309.7394,-622.5415 1315.3768,-618.3918"/>
</g>
<!-- 580718781 -->
<g id="node14" class="node">
<title>580718781</title>
<polygon fill="none" stroke="#000000" points="1381.2902,-540 1320.8611,-540 1320.8611,-504 1381.2902,-504 1381.2902,-540"/>
<text text-anchor="middle" x="1351.0757" y="-517.8" font-family="Times,serif" font-size="14.00" fill="#000000">store g2</text>
</g>
<!-- 1625082366 -->
<g id="node15" class="node">
<title>1625082366</title>
<polygon fill="none" stroke="#000000" points="910.8798,-468 801.2715,-468 801.2715,-432 910.8798,-432 910.8798,-468"/>
<text text-anchor="middle" x="856.0757" y="-445.8" font-family="Times,serif" font-size="14.00" fill="#000000">parse Number: 5</text>
</g>
<!-- 247944893 -->
<g id="node24" class="node">
<title>247944893</title>
<polygon fill="none" stroke="#000000" points="985.279,-396 726.8724,-396 726.8724,-360 985.279,-360 985.279,-396"/>
<text text-anchor="middle" x="856.0757" y="-373.8" font-family="Times,serif" font-size="14.00" fill="#000000">a1 = demo.math.Addierer::__construct([5])</text>
</g>
<!-- 1625082366&#45;&gt;247944893 -->
<g id="edge14" class="edge">
<title>1625082366&#45;&gt;247944893</title>
<path fill="none" stroke="#000000" d="M856.0757,-431.8314C856.0757,-424.131 856.0757,-414.9743 856.0757,-406.4166"/>
<polygon fill="#000000" stroke="#000000" points="859.5758,-406.4132 856.0757,-396.4133 852.5758,-406.4133 859.5758,-406.4132"/>
</g>
<!-- 690521419 -->
<g id="node16" class="node">
<title>690521419</title>
<polygon fill="none" stroke="#000000" points="1265.2036,-396 1002.9477,-396 1002.9477,-360 1265.2036,-360 1265.2036,-396"/>
<text text-anchor="middle" x="1134.0757" y="-373.8" font-family="Times,serif" font-size="14.00" fill="#000000">cast l1 from Arr to demo.types.NummerList</text>
</g>
<!-- 690521419&#45;&gt;2045766957 -->
<g id="edge15" class="edge">
<title>690521419&#45;&gt;2045766957</title>
<path fill="none" stroke="#000000" d="M1090.6728,-359.8314C1067.5666,-350.159 1038.9718,-338.1891 1014.6179,-327.9944"/>
<polygon fill="#000000" stroke="#000000" points="1015.7424,-324.6709 1005.1664,-324.038 1013.0394,-331.128 1015.7424,-324.6709"/>
</g>
<!-- 932285561&#45;&gt;1826699684 -->
<g id="edge16" class="edge">
<title>932285561&#45;&gt;1826699684</title>
<path fill="none" stroke="#000000" d="M1293.0757,-575.8146C1293.0757,-548.4983 1293.0757,-495.25 1293.0757,-450 1293.0757,-450 1293.0757,-450 1293.0757,-162 1293.0757,-107.8798 1146.3649,-63.0331 1044.5647,-38.429"/>
<polygon fill="#000000" stroke="#000000" points="1045.0908,-34.9563 1034.5514,-36.0388 1043.4655,-41.765 1045.0908,-34.9563"/>
</g>
<!-- 932285561&#45;&gt;990355670 -->
<g id="edge17" class="edge">
<title>932285561&#45;&gt;990355670</title>
<path fill="none" stroke="#000000" d="M1202.9482,-575.9243C1144.2653,-564.155 1068.4726,-548.9542 1012.3232,-537.6931"/>
<polygon fill="#000000" stroke="#000000" points="1012.9228,-534.2437 1002.4297,-535.7089 1011.5462,-541.107 1012.9228,-534.2437"/>
</g>
<!-- 932285561&#45;&gt;580718781 -->
<g id="edge18" class="edge">
<title>932285561&#45;&gt;580718781</title>
<path fill="none" stroke="#000000" d="M1307.7115,-575.8314C1314.3918,-567.5386 1322.4325,-557.557 1329.766,-548.4533"/>
<polygon fill="#000000" stroke="#000000" points="1332.6951,-550.3965 1336.2428,-540.4133 1327.2438,-546.0052 1332.6951,-550.3965"/>
</g>
<!-- 1708570683 -->
<g id="node18" class="node">
<title>1708570683</title>
<polygon fill="none" stroke="#000000" points="708.8141,-396 443.3373,-396 443.3373,-360 708.8141,-360 708.8141,-396"/>
<text text-anchor="middle" x="576.0757" y="-373.8" font-family="Times,serif" font-size="14.00" fill="#000000">cast n2 from Arr to demo.types.NummerList</text>
</g>
<!-- 1708570683&#45;&gt;956420404 -->
<g id="edge19" class="edge">
<title>1708570683&#45;&gt;956420404</title>
<path fill="none" stroke="#000000" d="M585.917,-359.8314C590.2714,-351.7925 595.4855,-342.1666 600.2926,-333.2918"/>
<polygon fill="#000000" stroke="#000000" points="603.4165,-334.8732 605.1018,-324.4133 597.2614,-331.5392 603.4165,-334.8732"/>
</g>
<!-- 671467883 -->
<g id="node19" class="node">
<title>671467883</title>
<polygon fill="none" stroke="#000000" points="1167.2106,-468 1100.9408,-468 1100.9408,-432 1167.2106,-432 1167.2106,-468"/>
<text text-anchor="middle" x="1134.0757" y="-445.8" font-family="Times,serif" font-size="14.00" fill="#000000">accept l1</text>
</g>
<!-- 671467883&#45;&gt;690521419 -->
<g id="edge20" class="edge">
<title>671467883&#45;&gt;690521419</title>
<path fill="none" stroke="#000000" d="M1134.0757,-431.8314C1134.0757,-424.131 1134.0757,-414.9743 1134.0757,-406.4166"/>
<polygon fill="#000000" stroke="#000000" points="1137.5758,-406.4132 1134.0757,-396.4133 1130.5758,-406.4133 1137.5758,-406.4132"/>
</g>
<!-- 349420578&#45;&gt;1277009227 -->
<g id="edge21" class="edge">
<title>349420578&#45;&gt;1277009227</title>
<path fill="none" stroke="#000000" d="M285.5991,-431.8314C286.6686,-424.131 287.9404,-414.9743 289.1289,-406.4166"/>
<polygon fill="#000000" stroke="#000000" points="292.6092,-406.7997 290.5183,-396.4133 285.6758,-405.8367 292.6092,-406.7997"/>
</g>
<!-- 956420404&#45;&gt;790067787 -->
<g id="edge22" class="edge">
<title>956420404&#45;&gt;790067787</title>
<path fill="none" stroke="#000000" d="M675.5791,-287.9243C709.0982,-277.9103 750.9326,-265.412 785.8844,-254.97"/>
<polygon fill="#000000" stroke="#000000" points="786.9678,-258.2993 795.5474,-252.0831 784.9639,-251.5922 786.9678,-258.2993"/>
</g>
<!-- 102617125&#45;&gt;363988129 -->
<g id="edge23" class="edge">
<title>102617125&#45;&gt;363988129</title>
<path fill="none" stroke="#000000" d="M856.0757,-143.8314C856.0757,-136.131 856.0757,-126.9743 856.0757,-118.4166"/>
<polygon fill="#000000" stroke="#000000" points="859.5758,-118.4132 856.0757,-108.4133 852.5758,-118.4133 859.5758,-118.4132"/>
</g>
<!-- 247944893&#45;&gt;2045766957 -->
<g id="edge24" class="edge">
<title>247944893&#45;&gt;2045766957</title>
<path fill="none" stroke="#000000" d="M882.824,-359.8314C896.1309,-350.7927 912.3917,-339.7476 926.7132,-330.0198"/>
<polygon fill="#000000" stroke="#000000" points="929.0304,-332.677 935.336,-324.1628 925.0972,-326.8864 929.0304,-332.677"/>
</g>
<!-- 247944893&#45;&gt;1196695891 -->
<g id="edge25" class="edge">
<title>247944893&#45;&gt;1196695891</title>
<path fill="none" stroke="#000000" d="M841.4398,-359.8314C834.7596,-351.5386 826.7188,-341.557 819.3853,-332.4533"/>
<polygon fill="#000000" stroke="#000000" points="821.9076,-330.0052 812.9086,-324.4133 816.4563,-334.3965 821.9076,-330.0052"/>
</g>
<!-- 247944893&#45;&gt;790067787 -->
<g id="edge26" class="edge">
<title>247944893&#45;&gt;790067787</title>
<path fill="none" stroke="#000000" d="M856.0757,-359.7623C856.0757,-335.201 856.0757,-291.2474 856.0757,-262.3541"/>
<polygon fill="#000000" stroke="#000000" points="859.5758,-262.0896 856.0757,-252.0896 852.5758,-262.0897 859.5758,-262.0896"/>
</g>
<!-- 247944893&#45;&gt;956420404 -->
<g id="edge27" class="edge">
<title>247944893&#45;&gt;956420404</title>
<path fill="none" stroke="#000000" d="M795.5723,-359.9243C762.0532,-349.9103 720.2187,-337.412 685.267,-326.97"/>
<polygon fill="#000000" stroke="#000000" points="686.1874,-323.5922 675.604,-324.0831 684.1836,-330.2993 686.1874,-323.5922"/>
</g>
<!-- 574568002 -->
<g id="node25" class="node">
<title>574568002</title>
<polygon fill="none" stroke="#000000" points="238.8798,-684 129.2715,-684 129.2715,-648 238.8798,-648 238.8798,-684"/>
<text text-anchor="middle" x="184.0757" y="-661.8" font-family="Times,serif" font-size="14.00" fill="#000000">parse Number: 1</text>
</g>
<!-- 574568002&#45;&gt;1543148593 -->
<g id="edge28" class="edge">
<title>574568002&#45;&gt;1543148593</title>
<path fill="none" stroke="#000000" d="M170.9539,-647.8314C165.0258,-639.6232 157.9027,-629.7606 151.3823,-620.7323"/>
<polygon fill="#000000" stroke="#000000" points="154.0665,-618.4708 145.3742,-612.4133 148.3917,-622.5693 154.0665,-618.4708"/>
</g>
<!-- 1914301543&#45;&gt;1708570683 -->
<g id="edge29" class="edge">
<title>1914301543&#45;&gt;1708570683</title>
<path fill="none" stroke="#000000" d="M611.2156,-431.8314C605.9128,-423.7079 599.552,-413.9637 593.7084,-405.0118"/>
<polygon fill="#000000" stroke="#000000" points="596.4926,-402.8739 588.0955,-396.4133 590.6309,-406.7003 596.4926,-402.8739"/>
</g>
</g>
</svg>
