<?xml version="1.0" encoding="UTF-8" standalone="no"?>
<!DOCTYPE svg PUBLIC "-//W3C//DTD SVG 1.1//EN"
 "http://www.w3.org/Graphics/SVG/1.1/DTD/svg11.dtd">
<!-- Generated by graphviz version 2.40.1 (20161225.0304)
 -->
<!-- Title: %3 Pages: 1 -->
<svg width="1694pt" height="116pt"
 viewBox="0.00 0.00 1694.25 116.00" xmlns="http://www.w3.org/2000/svg" xmlns:xlink="http://www.w3.org/1999/xlink">
<g id="graph0" class="graph" transform="scale(1 1) rotate(0) translate(4 112)">
<title>%3</title>
<polygon fill="#ffffff" stroke="transparent" points="-4,4 -4,-112 1690.2451,-112 1690.2451,4 -4,4"/>
<!-- 1297978429 -->
<g id="node1" class="node">
<title>1297978429</title>
<polygon fill="none" stroke="#000000" points="69.3681,-108 -.123,-108 -.123,-72 69.3681,-72 69.3681,-108"/>
<text text-anchor="middle" x="34.6226" y="-85.8" font-family="Times,serif" font-size="14.00" fill="#000000">accept b1</text>
</g>
<!-- 846254484 -->
<g id="node2" class="node">
<title>846254484</title>
<polygon fill="none" stroke="#000000" points="164.1607,-108 87.0845,-108 87.0845,-72 164.1607,-72 164.1607,-108"/>
<text text-anchor="middle" x="125.6226" y="-85.8" font-family="Times,serif" font-size="14.00" fill="#000000">send graph</text>
</g>
<!-- 1470344997 -->
<g id="node3" class="node">
<title>1470344997</title>
<polygon fill="none" stroke="#000000" points="286.8084,-36 138.4367,-36 138.4367,0 286.8084,0 286.8084,-36"/>
<text text-anchor="middle" x="212.6226" y="-13.8" font-family="Times,serif" font-size="14.00" fill="#000000">transmit a&#45;&gt;Executor_2</text>
</g>
<!-- 1448061896 -->
<g id="node4" class="node">
<title>1448061896</title>
<polygon fill="none" stroke="#000000" points="410.8682,-108 348.377,-108 348.377,-72 410.8682,-72 410.8682,-108"/>
<text text-anchor="middle" x="379.6226" y="-85.8" font-family="Times,serif" font-size="14.00" fill="#000000">accept b</text>
</g>
<!-- 1962826816 -->
<g id="node19" class="node">
<title>1962826816</title>
<polygon fill="none" stroke="#000000" points="454.595,-36 304.6501,-36 304.6501,0 454.595,0 454.595,-36"/>
<text text-anchor="middle" x="379.6226" y="-13.8" font-family="Times,serif" font-size="14.00" fill="#000000">transmit b&#45;&gt;Executor_2</text>
</g>
<!-- 1448061896&#45;&gt;1962826816 -->
<g id="edge1" class="edge">
<title>1448061896&#45;&gt;1962826816</title>
<path fill="none" stroke="#000000" d="M379.6226,-71.8314C379.6226,-64.131 379.6226,-54.9743 379.6226,-46.4166"/>
<polygon fill="#000000" stroke="#000000" points="383.1227,-46.4132 379.6226,-36.4133 376.1227,-46.4133 383.1227,-46.4132"/>
</g>
<!-- 1278677872 -->
<g id="node5" class="node">
<title>1278677872</title>
<polygon fill="none" stroke="#000000" points="494.7575,-108 428.4877,-108 428.4877,-72 494.7575,-72 494.7575,-108"/>
<text text-anchor="middle" x="461.6226" y="-85.8" font-family="Times,serif" font-size="14.00" fill="#000000">accept l2</text>
</g>
<!-- 68377659 -->
<g id="node6" class="node">
<title>68377659</title>
<polygon fill="none" stroke="#000000" points="578.7575,-108 512.4877,-108 512.4877,-72 578.7575,-72 578.7575,-108"/>
<text text-anchor="middle" x="545.6226" y="-85.8" font-family="Times,serif" font-size="14.00" fill="#000000">accept l4</text>
</g>
<!-- 311239812 -->
<g id="node7" class="node">
<title>311239812</title>
<polygon fill="none" stroke="#000000" points="666.3681,-108 596.877,-108 596.877,-72 666.3681,-72 666.3681,-108"/>
<text text-anchor="middle" x="631.6226" y="-85.8" font-family="Times,serif" font-size="14.00" fill="#000000">accept g2</text>
</g>
<!-- 1223867739 -->
<g id="node8" class="node">
<title>1223867739</title>
<polygon fill="none" stroke="#000000" points="753.0831,-108 684.162,-108 684.162,-72 753.0831,-72 753.0831,-108"/>
<text text-anchor="middle" x="718.6226" y="-85.8" font-family="Times,serif" font-size="14.00" fill="#000000">accept a1</text>
</g>
<!-- 1827725498 -->
<g id="node9" class="node">
<title>1827725498</title>
<polygon fill="none" stroke="#000000" points="880.4843,-36 726.7608,-36 726.7608,0 880.4843,0 880.4843,-36"/>
<text text-anchor="middle" x="803.6226" y="-13.8" font-family="Times,serif" font-size="14.00" fill="#000000">transmit l1&#45;&gt;Executor_1</text>
</g>
<!-- 1754662105 -->
<g id="node10" class="node">
<title>1754662105</title>
<polygon fill="none" stroke="#000000" points="924.3681,-108 854.877,-108 854.877,-72 924.3681,-72 924.3681,-108"/>
<text text-anchor="middle" x="889.6226" y="-85.8" font-family="Times,serif" font-size="14.00" fill="#000000">accept n2</text>
</g>
<!-- 825936265 -->
<g id="node11" class="node">
<title>825936265</title>
<polygon fill="none" stroke="#000000" points="1008.7575,-108 942.4877,-108 942.4877,-72 1008.7575,-72 1008.7575,-108"/>
<text text-anchor="middle" x="975.6226" y="-85.8" font-family="Times,serif" font-size="14.00" fill="#000000">accept l3</text>
</g>
<!-- 489349054 -->
<g id="node12" class="node">
<title>489349054</title>
<polygon fill="none" stroke="#000000" points="836.7575,-108 770.4877,-108 770.4877,-72 836.7575,-72 836.7575,-108"/>
<text text-anchor="middle" x="803.6226" y="-85.8" font-family="Times,serif" font-size="14.00" fill="#000000">accept l1</text>
</g>
<!-- 489349054&#45;&gt;1827725498 -->
<g id="edge2" class="edge">
<title>489349054&#45;&gt;1827725498</title>
<path fill="none" stroke="#000000" d="M803.6226,-71.8314C803.6226,-64.131 803.6226,-54.9743 803.6226,-46.4166"/>
<polygon fill="#000000" stroke="#000000" points="807.1227,-46.4132 803.6226,-36.4133 800.1227,-46.4133 807.1227,-46.4132"/>
</g>
<!-- 709865851 -->
<g id="node13" class="node">
<title>709865851</title>
<polygon fill="none" stroke="#000000" points="1096.3681,-108 1026.877,-108 1026.877,-72 1096.3681,-72 1096.3681,-108"/>
<text text-anchor="middle" x="1061.6226" y="-85.8" font-family="Times,serif" font-size="14.00" fill="#000000">accept g1</text>
</g>
<!-- 2114444063 -->
<g id="node14" class="node">
<title>2114444063</title>
<polygon fill="none" stroke="#000000" points="243.5833,-108 181.6618,-108 181.6618,-72 243.5833,-72 243.5833,-108"/>
<text text-anchor="middle" x="212.6226" y="-85.8" font-family="Times,serif" font-size="14.00" fill="#000000">accept a</text>
</g>
<!-- 2114444063&#45;&gt;1470344997 -->
<g id="edge3" class="edge">
<title>2114444063&#45;&gt;1470344997</title>
<path fill="none" stroke="#000000" d="M212.6226,-71.8314C212.6226,-64.131 212.6226,-54.9743 212.6226,-46.4166"/>
<polygon fill="#000000" stroke="#000000" points="216.1227,-46.4132 212.6226,-36.4133 209.1227,-46.4133 216.1227,-46.4132"/>
</g>
<!-- 1206569586 -->
<g id="node15" class="node">
<title>1206569586</title>
<polygon fill="none" stroke="#000000" points="1300.5161,-108 1114.729,-108 1114.729,-72 1300.5161,-72 1300.5161,-108"/>
<text text-anchor="middle" x="1207.6226" y="-85.8" font-family="Times,serif" font-size="14.00" fill="#000000">accept &amp;finished&amp;Executor_2</text>
</g>
<!-- 1427646530 -->
<g id="node16" class="node">
<title>1427646530</title>
<polygon fill="none" stroke="#000000" points="1504.5161,-108 1318.729,-108 1318.729,-72 1504.5161,-72 1504.5161,-108"/>
<text text-anchor="middle" x="1411.6226" y="-85.8" font-family="Times,serif" font-size="14.00" fill="#000000">accept &amp;finished&amp;Executor_1</text>
</g>
<!-- 1108924067 -->
<g id="node17" class="node">
<title>1108924067</title>
<polygon fill="none" stroke="#000000" points="1599.1607,-108 1522.0845,-108 1522.0845,-72 1599.1607,-72 1599.1607,-108"/>
<text text-anchor="middle" x="1560.6226" y="-85.8" font-family="Times,serif" font-size="14.00" fill="#000000">send graph</text>
</g>
<!-- 708533063 -->
<g id="node18" class="node">
<title>708533063</title>
<polygon fill="none" stroke="#000000" points="1686.3681,-108 1616.877,-108 1616.877,-72 1686.3681,-72 1686.3681,-108"/>
<text text-anchor="middle" x="1651.6226" y="-85.8" font-family="Times,serif" font-size="14.00" fill="#000000">accept n1</text>
</g>
</g>
</svg>
