<?xml version="1.0" encoding="UTF-8" standalone="no"?>
<!DOCTYPE svg PUBLIC "-//W3C//DTD SVG 1.1//EN"
 "http://www.w3.org/Graphics/SVG/1.1/DTD/svg11.dtd">
<!-- Generated by graphviz version 2.40.1 (20161225.0304)
 -->
<!-- Title: %3 Pages: 1 -->
<svg width="1250pt" height="692pt"
 viewBox="0.00 0.00 1250.08 692.00" xmlns="http://www.w3.org/2000/svg" xmlns:xlink="http://www.w3.org/1999/xlink">
<g id="graph0" class="graph" transform="scale(1 1) rotate(0) translate(4 688)">
<title>%3</title>
<polygon fill="#ffffff" stroke="transparent" points="-4,4 -4,-688 1246.0757,-688 1246.0757,4 -4,4"/>
<!-- 1448247698 -->
<g id="node1" class="node">
<title>1448247698</title>
<polygon fill="none" stroke="#000000" points="415.7824,-36 232.2176,-36 232.2176,0 415.7824,0 415.7824,-36"/>
<text text-anchor="middle" x="324" y="-13.8" font-family="Times,serif" font-size="14.00" fill="#000000">b1 = g2::liagtAufGerade([l4])</text>
</g>
<!-- 2129221032 -->
<g id="node2" class="node">
<title>2129221032</title>
<polygon fill="none" stroke="#000000" points="783.3694,-468 556.6306,-468 556.6306,-432 783.3694,-432 783.3694,-468"/>
<text text-anchor="middle" x="670" y="-445.8" font-family="Times,serif" font-size="14.00" fill="#000000">cast n2 from demo.types.Punkt to Arr</text>
</g>
<!-- 1224347463 -->
<g id="node25" class="node">
<title>1224347463</title>
<polygon fill="none" stroke="#000000" points="849.7384,-396 584.2616,-396 584.2616,-360 849.7384,-360 849.7384,-396"/>
<text text-anchor="middle" x="717" y="-373.8" font-family="Times,serif" font-size="14.00" fill="#000000">cast n2 from Arr to demo.types.NummerList</text>
</g>
<!-- 2129221032&#45;&gt;1224347463 -->
<g id="edge1" class="edge">
<title>2129221032&#45;&gt;1224347463</title>
<path fill="none" stroke="#000000" d="M681.8601,-431.8314C687.1629,-423.7079 693.5237,-413.9637 699.3673,-405.0118"/>
<polygon fill="#000000" stroke="#000000" points="702.4448,-406.7003 704.9802,-396.4133 696.5831,-402.8739 702.4448,-406.7003"/>
</g>
<!-- 1671846437 -->
<g id="node3" class="node">
<title>1671846437</title>
<polygon fill="none" stroke="#000000" points="1089.2456,-684 1026.7544,-684 1026.7544,-648 1089.2456,-648 1089.2456,-684"/>
<text text-anchor="middle" x="1058" y="-661.8" font-family="Times,serif" font-size="14.00" fill="#000000">accept b</text>
</g>
<!-- 789653861 -->
<g id="node20" class="node">
<title>789653861</title>
<polygon fill="none" stroke="#000000" points="1242.1514,-612 977.8486,-612 977.8486,-576 1242.1514,-576 1242.1514,-612"/>
<text text-anchor="middle" x="1110" y="-589.8" font-family="Times,serif" font-size="14.00" fill="#000000">g1 = demo.math.Gerade::__construct([b, 1])</text>
</g>
<!-- 1671846437&#45;&gt;789653861 -->
<g id="edge2" class="edge">
<title>1671846437&#45;&gt;789653861</title>
<path fill="none" stroke="#000000" d="M1071.1218,-647.8314C1077.0499,-639.6232 1084.1729,-629.7606 1090.6933,-620.7323"/>
<polygon fill="#000000" stroke="#000000" points="1093.684,-622.5693 1096.7015,-612.4133 1088.0092,-618.4708 1093.684,-622.5693"/>
</g>
<!-- 2130772866 -->
<g id="node4" class="node">
<title>2130772866</title>
<polygon fill="none" stroke="#000000" points="588.6925,-252 401.3075,-252 401.3075,-216 588.6925,-216 588.6925,-252"/>
<text text-anchor="middle" x="495" y="-229.8" font-family="Times,serif" font-size="14.00" fill="#000000">l4 = a1::summierListe([l3, l2])</text>
</g>
<!-- 2005733474 -->
<g id="node18" class="node">
<title>2005733474</title>
<polygon fill="none" stroke="#000000" points="626.128,-180 363.872,-180 363.872,-144 626.128,-144 626.128,-180"/>
<text text-anchor="middle" x="495" y="-157.8" font-family="Times,serif" font-size="14.00" fill="#000000">cast l4 from demo.types.NummerList to Arr</text>
</g>
<!-- 2130772866&#45;&gt;2005733474 -->
<g id="edge3" class="edge">
<title>2130772866&#45;&gt;2005733474</title>
<path fill="none" stroke="#000000" d="M495,-215.8314C495,-208.131 495,-198.9743 495,-190.4166"/>
<polygon fill="#000000" stroke="#000000" points="498.5001,-190.4132 495,-180.4133 491.5001,-190.4133 498.5001,-190.4132"/>
</g>
<!-- 1840976765 -->
<g id="node5" class="node">
<title>1840976765</title>
<polygon fill="none" stroke="#000000" points="192.1349,-468 125.8651,-468 125.8651,-432 192.1349,-432 192.1349,-468"/>
<text text-anchor="middle" x="159" y="-445.8" font-family="Times,serif" font-size="14.00" fill="#000000">accept l1</text>
</g>
<!-- 1966250569 -->
<g id="node24" class="node">
<title>1966250569</title>
<polygon fill="none" stroke="#000000" points="290.128,-396 27.872,-396 27.872,-360 290.128,-360 290.128,-396"/>
<text text-anchor="middle" x="159" y="-373.8" font-family="Times,serif" font-size="14.00" fill="#000000">cast l1 from Arr to demo.types.NummerList</text>
</g>
<!-- 1840976765&#45;&gt;1966250569 -->
<g id="edge4" class="edge">
<title>1840976765&#45;&gt;1966250569</title>
<path fill="none" stroke="#000000" d="M159,-431.8314C159,-424.131 159,-414.9743 159,-406.4166"/>
<polygon fill="#000000" stroke="#000000" points="162.5001,-406.4132 159,-396.4133 155.5001,-406.4133 162.5001,-406.4132"/>
</g>
<!-- 1383524016 -->
<g id="node6" class="node">
<title>1383524016</title>
<polygon fill="none" stroke="#000000" points="491.8041,-468 382.1959,-468 382.1959,-432 491.8041,-432 491.8041,-468"/>
<text text-anchor="middle" x="437" y="-445.8" font-family="Times,serif" font-size="14.00" fill="#000000">parse Number: 5</text>
</g>
<!-- 313540687 -->
<g id="node26" class="node">
<title>313540687</title>
<polygon fill="none" stroke="#000000" points="566.2033,-396 307.7967,-396 307.7967,-360 566.2033,-360 566.2033,-396"/>
<text text-anchor="middle" x="437" y="-373.8" font-family="Times,serif" font-size="14.00" fill="#000000">a1 = demo.math.Addierer::__construct([5])</text>
</g>
<!-- 1383524016&#45;&gt;313540687 -->
<g id="edge5" class="edge">
<title>1383524016&#45;&gt;313540687</title>
<path fill="none" stroke="#000000" d="M437,-431.8314C437,-424.131 437,-414.9743 437,-406.4166"/>
<polygon fill="#000000" stroke="#000000" points="440.5001,-406.4132 437,-396.4133 433.5001,-406.4133 440.5001,-406.4132"/>
</g>
<!-- 536765369 -->
<g id="node7" class="node">
<title>536765369</title>
<polygon fill="none" stroke="#000000" points="1110.3694,-468 883.6306,-468 883.6306,-432 1110.3694,-432 1110.3694,-468"/>
<text text-anchor="middle" x="997" y="-445.8" font-family="Times,serif" font-size="14.00" fill="#000000">cast n1 from demo.types.Punkt to Arr</text>
</g>
<!-- 2085002312 -->
<g id="node10" class="node">
<title>2085002312</title>
<polygon fill="none" stroke="#000000" points="1132.7384,-396 867.2616,-396 867.2616,-360 1132.7384,-360 1132.7384,-396"/>
<text text-anchor="middle" x="1000" y="-373.8" font-family="Times,serif" font-size="14.00" fill="#000000">cast n1 from Arr to demo.types.NummerList</text>
</g>
<!-- 536765369&#45;&gt;2085002312 -->
<g id="edge6" class="edge">
<title>536765369&#45;&gt;2085002312</title>
<path fill="none" stroke="#000000" d="M997.757,-431.8314C998.0779,-424.131 998.4594,-414.9743 998.816,-406.4166"/>
<polygon fill="#000000" stroke="#000000" points="1002.3133,-406.5503 999.2328,-396.4133 995.3194,-406.2589 1002.3133,-406.5503"/>
</g>
<!-- 728739494 -->
<g id="node8" class="node">
<title>728739494</title>
<polygon fill="none" stroke="#000000" points="742.3872,-36 587.6128,-36 587.6128,0 742.3872,0 742.3872,-36"/>
<text text-anchor="middle" x="665" y="-13.8" font-family="Times,serif" font-size="14.00" fill="#000000">g1::liagtAufGerade([l4])</text>
</g>
<!-- 22671767 -->
<g id="node9" class="node">
<title>22671767</title>
<polygon fill="none" stroke="#000000" points="491.1479,-540 354.8521,-540 354.8521,-504 491.1479,-504 491.1479,-540"/>
<text text-anchor="middle" x="423" y="-517.8" font-family="Times,serif" font-size="14.00" fill="#000000">n2 = g2::nullstelle([])</text>
</g>
<!-- 22671767&#45;&gt;2129221032 -->
<g id="edge7" class="edge">
<title>22671767&#45;&gt;2129221032</title>
<path fill="none" stroke="#000000" d="M485.0097,-503.9243C519.3633,-493.9103 562.2393,-481.412 598.0612,-470.97"/>
<polygon fill="#000000" stroke="#000000" points="599.3438,-474.2419 607.9648,-468.0831 597.3848,-467.5216 599.3438,-474.2419"/>
</g>
<!-- 98394724 -->
<g id="node23" class="node">
<title>98394724</title>
<polygon fill="none" stroke="#000000" points="765.9135,-324 572.0865,-324 572.0865,-288 765.9135,-288 765.9135,-324"/>
<text text-anchor="middle" x="669" y="-301.8" font-family="Times,serif" font-size="14.00" fill="#000000">l2 = a1::summierListe([n1, n2])</text>
</g>
<!-- 2085002312&#45;&gt;98394724 -->
<g id="edge8" class="edge">
<title>2085002312&#45;&gt;98394724</title>
<path fill="none" stroke="#000000" d="M916.902,-359.9243C869.6938,-349.6554 810.4761,-336.7743 761.7574,-326.1768"/>
<polygon fill="#000000" stroke="#000000" points="762.3605,-322.7263 751.8451,-324.0207 760.8726,-329.5663 762.3605,-322.7263"/>
</g>
<!-- 1457410641 -->
<g id="node11" class="node">
<title>1457410641</title>
<polygon fill="none" stroke="#000000" points="185.9658,-684 72.0342,-684 72.0342,-648 185.9658,-648 185.9658,-684"/>
<text text-anchor="middle" x="129" y="-661.8" font-family="Times,serif" font-size="14.00" fill="#000000">parse Number: &#45;1</text>
</g>
<!-- 733943822 -->
<g id="node19" class="node">
<title>733943822</title>
<polygon fill="none" stroke="#000000" points="316.0273,-612 47.9727,-612 47.9727,-576 316.0273,-576 316.0273,-612"/>
<text text-anchor="middle" x="182" y="-589.8" font-family="Times,serif" font-size="14.00" fill="#000000">g2 = demo.math.Gerade::__construct([a, &#45;1])</text>
</g>
<!-- 1457410641&#45;&gt;733943822 -->
<g id="edge9" class="edge">
<title>1457410641&#45;&gt;733943822</title>
<path fill="none" stroke="#000000" d="M142.3741,-647.8314C148.4162,-639.6232 155.6763,-629.7606 162.3221,-620.7323"/>
<polygon fill="#000000" stroke="#000000" points="165.3363,-622.5415 168.4458,-612.4133 159.6989,-618.3918 165.3363,-622.5415"/>
</g>
<!-- 634540230 -->
<g id="node12" class="node">
<title>634540230</title>
<polygon fill="none" stroke="#000000" points="265.9607,-684 204.0393,-684 204.0393,-648 265.9607,-648 265.9607,-684"/>
<text text-anchor="middle" x="235" y="-661.8" font-family="Times,serif" font-size="14.00" fill="#000000">accept a</text>
</g>
<!-- 634540230&#45;&gt;733943822 -->
<g id="edge10" class="edge">
<title>634540230&#45;&gt;733943822</title>
<path fill="none" stroke="#000000" d="M221.6259,-647.8314C215.5838,-639.6232 208.3237,-629.7606 201.6779,-620.7323"/>
<polygon fill="#000000" stroke="#000000" points="204.3011,-618.3918 195.5542,-612.4133 198.6637,-622.5415 204.3011,-618.3918"/>
</g>
<!-- 521081105 -->
<g id="node13" class="node">
<title>521081105</title>
<polygon fill="none" stroke="#000000" points="606.7589,-108 383.2411,-108 383.2411,-72 606.7589,-72 606.7589,-108"/>
<text text-anchor="middle" x="495" y="-85.8" font-family="Times,serif" font-size="14.00" fill="#000000">cast l4 from Arr to demo.types.Punkt</text>
</g>
<!-- 521081105&#45;&gt;1448247698 -->
<g id="edge11" class="edge">
<title>521081105&#45;&gt;1448247698</title>
<path fill="none" stroke="#000000" d="M451.8495,-71.8314C428.8776,-62.159 400.4491,-50.1891 376.2368,-39.9944"/>
<polygon fill="#000000" stroke="#000000" points="377.4148,-36.6929 366.8402,-36.038 374.6984,-43.1443 377.4148,-36.6929"/>
</g>
<!-- 521081105&#45;&gt;728739494 -->
<g id="edge12" class="edge">
<title>521081105&#45;&gt;728739494</title>
<path fill="none" stroke="#000000" d="M537.8982,-71.8314C560.7357,-62.159 588.998,-50.1891 613.0687,-39.9944"/>
<polygon fill="#000000" stroke="#000000" points="614.5671,-43.1608 622.4103,-36.038 611.8371,-36.7151 614.5671,-43.1608"/>
</g>
<!-- 517052730 -->
<g id="node14" class="node">
<title>517052730</title>
<polygon fill="none" stroke="#000000" points="466.9278,-324 407.0722,-324 407.0722,-288 466.9278,-288 466.9278,-324"/>
<text text-anchor="middle" x="437" y="-301.8" font-family="Times,serif" font-size="14.00" fill="#000000">store a1</text>
</g>
<!-- 1556995360 -->
<g id="node15" class="node">
<title>1556995360</title>
<polygon fill="none" stroke="#000000" points="212.2145,-540 151.7855,-540 151.7855,-504 212.2145,-504 212.2145,-540"/>
<text text-anchor="middle" x="182" y="-517.8" font-family="Times,serif" font-size="14.00" fill="#000000">store g2</text>
</g>
<!-- 1318180415 -->
<g id="node16" class="node">
<title>1318180415</title>
<polygon fill="none" stroke="#000000" points="1216.8041,-684 1107.1959,-684 1107.1959,-648 1216.8041,-648 1216.8041,-684"/>
<text text-anchor="middle" x="1162" y="-661.8" font-family="Times,serif" font-size="14.00" fill="#000000">parse Number: 1</text>
</g>
<!-- 1318180415&#45;&gt;789653861 -->
<g id="edge13" class="edge">
<title>1318180415&#45;&gt;789653861</title>
<path fill="none" stroke="#000000" d="M1148.8782,-647.8314C1142.9501,-639.6232 1135.8271,-629.7606 1129.3067,-620.7323"/>
<polygon fill="#000000" stroke="#000000" points="1131.9908,-618.4708 1123.2985,-612.4133 1126.316,-622.5693 1131.9908,-618.4708"/>
</g>
<!-- 158199555 -->
<g id="node17" class="node">
<title>158199555</title>
<polygon fill="none" stroke="#000000" points="1140.2145,-540 1079.7855,-540 1079.7855,-504 1140.2145,-504 1140.2145,-540"/>
<text text-anchor="middle" x="1110" y="-517.8" font-family="Times,serif" font-size="14.00" fill="#000000">store g1</text>
</g>
<!-- 2005733474&#45;&gt;521081105 -->
<g id="edge14" class="edge">
<title>2005733474&#45;&gt;521081105</title>
<path fill="none" stroke="#000000" d="M495,-143.8314C495,-136.131 495,-126.9743 495,-118.4166"/>
<polygon fill="#000000" stroke="#000000" points="498.5001,-118.4132 495,-108.4133 491.5001,-118.4133 498.5001,-118.4132"/>
</g>
<!-- 733943822&#45;&gt;1448247698 -->
<g id="edge15" class="edge">
<title>733943822&#45;&gt;1448247698</title>
<path fill="none" stroke="#000000" d="M124.9134,-575.8307C71.5388,-554.8501 0,-514.6674 0,-450 0,-450 0,-450 0,-162 0,-110.0018 141.1139,-63.9189 237.0849,-38.5909"/>
<polygon fill="#000000" stroke="#000000" points="238.0127,-41.9661 246.8056,-36.0554 236.2459,-35.1927 238.0127,-41.9661"/>
</g>
<!-- 733943822&#45;&gt;22671767 -->
<g id="edge16" class="edge">
<title>733943822&#45;&gt;22671767</title>
<path fill="none" stroke="#000000" d="M242.5034,-575.9243C276.0225,-565.9103 317.8569,-553.412 352.8087,-542.97"/>
<polygon fill="#000000" stroke="#000000" points="353.8921,-546.2993 362.4717,-540.0831 351.8883,-539.5922 353.8921,-546.2993"/>
</g>
<!-- 733943822&#45;&gt;1556995360 -->
<g id="edge17" class="edge">
<title>733943822&#45;&gt;1556995360</title>
<path fill="none" stroke="#000000" d="M182,-575.8314C182,-568.131 182,-558.9743 182,-550.4166"/>
<polygon fill="#000000" stroke="#000000" points="185.5001,-550.4132 182,-540.4133 178.5001,-550.4133 185.5001,-550.4132"/>
</g>
<!-- 789653861&#45;&gt;728739494 -->
<g id="edge18" class="edge">
<title>789653861&#45;&gt;728739494</title>
<path fill="none" stroke="#000000" d="M1126.1756,-575.707C1134.1637,-565.7696 1143.2887,-552.9009 1149,-540 1165.5493,-502.6178 1168,-490.8816 1168,-450 1168,-450 1168,-450 1168,-162 1168,-76.5655 896.4102,-38.9352 752.3623,-24.985"/>
<polygon fill="#000000" stroke="#000000" points="752.503,-21.4827 742.2167,-24.0212 751.8409,-28.4513 752.503,-21.4827"/>
</g>
<!-- 789653861&#45;&gt;158199555 -->
<g id="edge19" class="edge">
<title>789653861&#45;&gt;158199555</title>
<path fill="none" stroke="#000000" d="M1110,-575.8314C1110,-568.131 1110,-558.9743 1110,-550.4166"/>
<polygon fill="#000000" stroke="#000000" points="1113.5001,-550.4132 1110,-540.4133 1106.5001,-550.4133 1113.5001,-550.4132"/>
</g>
<!-- 1637061418 -->
<g id="node22" class="node">
<title>1637061418</title>
<polygon fill="none" stroke="#000000" points="1061.1479,-540 924.8521,-540 924.8521,-504 1061.1479,-504 1061.1479,-540"/>
<text text-anchor="middle" x="993" y="-517.8" font-family="Times,serif" font-size="14.00" fill="#000000">n1 = g1::nullstelle([])</text>
</g>
<!-- 789653861&#45;&gt;1637061418 -->
<g id="edge20" class="edge">
<title>789653861&#45;&gt;1637061418</title>
<path fill="none" stroke="#000000" d="M1080.476,-575.8314C1065.5109,-566.6221 1047.1614,-555.3301 1031.1397,-545.4706"/>
<polygon fill="#000000" stroke="#000000" points="1032.8655,-542.423 1022.5146,-540.1628 1029.1968,-548.3847 1032.8655,-542.423"/>
</g>
<!-- 1831477404 -->
<g id="node21" class="node">
<title>1831477404</title>
<polygon fill="none" stroke="#000000" points="388.7893,-324 233.2107,-324 233.2107,-288 388.7893,-288 388.7893,-324"/>
<text text-anchor="middle" x="311" y="-301.8" font-family="Times,serif" font-size="14.00" fill="#000000">l3 = a1::addierListe([l1])</text>
</g>
<!-- 1831477404&#45;&gt;2130772866 -->
<g id="edge21" class="edge">
<title>1831477404&#45;&gt;2130772866</title>
<path fill="none" stroke="#000000" d="M357.431,-287.8314C382.368,-278.0734 413.2809,-265.977 439.4826,-255.7242"/>
<polygon fill="#000000" stroke="#000000" points="440.8659,-258.9414 448.9029,-252.038 438.3151,-252.4227 440.8659,-258.9414"/>
</g>
<!-- 1637061418&#45;&gt;536765369 -->
<g id="edge22" class="edge">
<title>1637061418&#45;&gt;536765369</title>
<path fill="none" stroke="#000000" d="M994.0094,-503.8314C994.4372,-496.131 994.9459,-486.9743 995.4213,-478.4166"/>
<polygon fill="#000000" stroke="#000000" points="998.9169,-478.592 995.977,-468.4133 991.9276,-478.2037 998.9169,-478.592"/>
</g>
<!-- 98394724&#45;&gt;2130772866 -->
<g id="edge23" class="edge">
<title>98394724&#45;&gt;2130772866</title>
<path fill="none" stroke="#000000" d="M625.0925,-287.8314C601.7176,-278.159 572.7903,-266.1891 548.1532,-255.9944"/>
<polygon fill="#000000" stroke="#000000" points="549.1702,-252.6275 538.5918,-252.038 546.4937,-259.0956 549.1702,-252.6275"/>
</g>
<!-- 1966250569&#45;&gt;1831477404 -->
<g id="edge24" class="edge">
<title>1966250569&#45;&gt;1831477404</title>
<path fill="none" stroke="#000000" d="M197.356,-359.8314C217.5044,-350.2874 242.3752,-338.5065 263.7083,-328.4013"/>
<polygon fill="#000000" stroke="#000000" points="265.3807,-331.482 272.9198,-324.038 262.3841,-325.1558 265.3807,-331.482"/>
</g>
<!-- 1224347463&#45;&gt;98394724 -->
<g id="edge25" class="edge">
<title>1224347463&#45;&gt;98394724</title>
<path fill="none" stroke="#000000" d="M704.8876,-359.8314C699.4719,-351.7079 692.9758,-341.9637 687.0079,-333.0118"/>
<polygon fill="#000000" stroke="#000000" points="689.7347,-330.7923 681.2755,-324.4133 683.9104,-334.6753 689.7347,-330.7923"/>
</g>
<!-- 313540687&#45;&gt;2130772866 -->
<g id="edge26" class="edge">
<title>313540687&#45;&gt;2130772866</title>
<path fill="none" stroke="#000000" d="M453.1756,-359.707C461.1637,-349.7696 470.2887,-336.9009 476,-324 484.7004,-304.3472 489.5041,-280.4834 492.1036,-262.2682"/>
<polygon fill="#000000" stroke="#000000" points="495.5851,-262.6359 493.3923,-252.2705 488.6425,-261.741 495.5851,-262.6359"/>
</g>
<!-- 313540687&#45;&gt;517052730 -->
<g id="edge27" class="edge">
<title>313540687&#45;&gt;517052730</title>
<path fill="none" stroke="#000000" d="M437,-359.8314C437,-352.131 437,-342.9743 437,-334.4166"/>
<polygon fill="#000000" stroke="#000000" points="440.5001,-334.4132 437,-324.4133 433.5001,-334.4133 440.5001,-334.4132"/>
</g>
<!-- 313540687&#45;&gt;1831477404 -->
<g id="edge28" class="edge">
<title>313540687&#45;&gt;1831477404</title>
<path fill="none" stroke="#000000" d="M405.2049,-359.8314C388.9395,-350.5368 368.9614,-339.1208 351.5949,-329.1971"/>
<polygon fill="#000000" stroke="#000000" points="353.2039,-326.0854 342.7849,-324.1628 349.7309,-332.1631 353.2039,-326.0854"/>
</g>
<!-- 313540687&#45;&gt;98394724 -->
<g id="edge29" class="edge">
<title>313540687&#45;&gt;98394724</title>
<path fill="none" stroke="#000000" d="M495.2439,-359.9243C527.3734,-349.9531 567.4394,-337.5188 600.9982,-327.104"/>
<polygon fill="#000000" stroke="#000000" points="602.2189,-330.3899 610.7321,-324.0831 600.144,-323.7045 602.2189,-330.3899"/>
</g>
</g>
</svg>
