<?xml version="1.0" encoding="UTF-8" standalone="no"?>
<!DOCTYPE svg PUBLIC "-//W3C//DTD SVG 1.1//EN"
 "http://www.w3.org/Graphics/SVG/1.1/DTD/svg11.dtd">
<!-- Generated by graphviz version 2.40.1 (20161225.0304)
 -->
<!-- Title: %3 Pages: 1 -->
<svg width="1435pt" height="692pt"
 viewBox="0.00 0.00 1435.09 692.00" xmlns="http://www.w3.org/2000/svg" xmlns:xlink="http://www.w3.org/1999/xlink">
<g id="graph0" class="graph" transform="scale(1 1) rotate(0) translate(4 688)">
<title>%3</title>
<polygon fill="#ffffff" stroke="transparent" points="-4,4 -4,-688 1431.0894,-688 1431.0894,4 -4,4"/>
<!-- 317071334 -->
<g id="node1" class="node">
<title>317071334</title>
<polygon fill="none" stroke="#000000" points="625.8178,-468 516.2095,-468 516.2095,-432 625.8178,-432 625.8178,-468"/>
<text text-anchor="middle" x="571.0137" y="-445.8" font-family="Times,serif" font-size="14.00" fill="#000000">parse Number: 5</text>
</g>
<!-- 1374026904 -->
<g id="node26" class="node">
<title>1374026904</title>
<polygon fill="none" stroke="#000000" points="700.217,-396 441.8104,-396 441.8104,-360 700.217,-360 700.217,-396"/>
<text text-anchor="middle" x="571.0137" y="-373.8" font-family="Times,serif" font-size="14.00" fill="#000000">a1 = demo.math.Addierer::__construct([5])</text>
</g>
<!-- 317071334&#45;&gt;1374026904 -->
<g id="edge1" class="edge">
<title>317071334&#45;&gt;1374026904</title>
<path fill="none" stroke="#000000" d="M571.0137,-431.8314C571.0137,-424.131 571.0137,-414.9743 571.0137,-406.4166"/>
<polygon fill="#000000" stroke="#000000" points="574.5138,-406.4132 571.0137,-396.4133 567.5138,-406.4133 574.5138,-406.4132"/>
</g>
<!-- 1448247698 -->
<g id="node2" class="node">
<title>1448247698</title>
<polygon fill="none" stroke="#000000" points="424.1416,-396 161.8857,-396 161.8857,-360 424.1416,-360 424.1416,-396"/>
<text text-anchor="middle" x="293.0137" y="-373.8" font-family="Times,serif" font-size="14.00" fill="#000000">cast l1 from Arr to demo.types.NummerList</text>
</g>
<!-- 1237550792 -->
<g id="node9" class="node">
<title>1237550792</title>
<polygon fill="none" stroke="#000000" points="542.803,-324 387.2243,-324 387.2243,-288 542.803,-288 542.803,-324"/>
<text text-anchor="middle" x="465.0137" y="-301.8" font-family="Times,serif" font-size="14.00" fill="#000000">l3 = a1::addierListe([l1])</text>
</g>
<!-- 1448247698&#45;&gt;1237550792 -->
<g id="edge2" class="edge">
<title>1448247698&#45;&gt;1237550792</title>
<path fill="none" stroke="#000000" d="M336.4165,-359.8314C359.5228,-350.159 388.1175,-338.1891 412.4714,-327.9944"/>
<polygon fill="#000000" stroke="#000000" points="414.05,-331.128 421.9229,-324.038 411.347,-324.6709 414.05,-331.128"/>
</g>
<!-- 550668305 -->
<g id="node3" class="node">
<title>550668305</title>
<polygon fill="none" stroke="#000000" points="506.7961,-36 323.2312,-36 323.2312,0 506.7961,0 506.7961,-36"/>
<text text-anchor="middle" x="415.0137" y="-13.8" font-family="Times,serif" font-size="14.00" fill="#000000">b1 = g2::liagtAufGerade([l4])</text>
</g>
<!-- 436532993 -->
<g id="node4" class="node">
<title>436532993</title>
<polygon fill="none" stroke="#000000" points="111.9744,-684 50.053,-684 50.053,-648 111.9744,-648 111.9744,-684"/>
<text text-anchor="middle" x="81.0137" y="-661.8" font-family="Times,serif" font-size="14.00" fill="#000000">accept a</text>
</g>
<!-- 22671767 -->
<g id="node11" class="node">
<title>22671767</title>
<polygon fill="none" stroke="#000000" points="268.041,-612 -.0137,-612 -.0137,-576 268.041,-576 268.041,-612"/>
<text text-anchor="middle" x="134.0137" y="-589.8" font-family="Times,serif" font-size="14.00" fill="#000000">g2 = demo.math.Gerade::__construct([a, &#45;1])</text>
</g>
<!-- 436532993&#45;&gt;22671767 -->
<g id="edge3" class="edge">
<title>436532993&#45;&gt;22671767</title>
<path fill="none" stroke="#000000" d="M94.3878,-647.8314C100.4299,-639.6232 107.6899,-629.7606 114.3357,-620.7323"/>
<polygon fill="#000000" stroke="#000000" points="117.3499,-622.5415 120.4595,-612.4133 111.7126,-618.3918 117.3499,-622.5415"/>
</g>
<!-- 1100767002 -->
<g id="node5" class="node">
<title>1100767002</title>
<polygon fill="none" stroke="#000000" points="326.1486,-468 259.8788,-468 259.8788,-432 326.1486,-432 326.1486,-468"/>
<text text-anchor="middle" x="293.0137" y="-445.8" font-family="Times,serif" font-size="14.00" fill="#000000">accept l1</text>
</g>
<!-- 1100767002&#45;&gt;1448247698 -->
<g id="edge4" class="edge">
<title>1100767002&#45;&gt;1448247698</title>
<path fill="none" stroke="#000000" d="M293.0137,-431.8314C293.0137,-424.131 293.0137,-414.9743 293.0137,-406.4166"/>
<polygon fill="#000000" stroke="#000000" points="296.5138,-406.4132 293.0137,-396.4133 289.5138,-406.4133 296.5138,-406.4132"/>
</g>
<!-- 1383524016 -->
<g id="node6" class="node">
<title>1383524016</title>
<polygon fill="none" stroke="#000000" points="1427.1651,-612 1162.8623,-612 1162.8623,-576 1427.1651,-576 1427.1651,-612"/>
<text text-anchor="middle" x="1295.0137" y="-589.8" font-family="Times,serif" font-size="14.00" fill="#000000">g1 = demo.math.Gerade::__construct([b, 1])</text>
</g>
<!-- 1472465 -->
<g id="node7" class="node">
<title>1472465</title>
<polygon fill="none" stroke="#000000" points="1245.1616,-540 1108.8658,-540 1108.8658,-504 1245.1616,-504 1245.1616,-540"/>
<text text-anchor="middle" x="1177.0137" y="-517.8" font-family="Times,serif" font-size="14.00" fill="#000000">n1 = g1::nullstelle([])</text>
</g>
<!-- 1383524016&#45;&gt;1472465 -->
<g id="edge5" class="edge">
<title>1383524016&#45;&gt;1472465</title>
<path fill="none" stroke="#000000" d="M1265.2373,-575.8314C1250.1444,-566.6221 1231.638,-555.3301 1215.4794,-545.4706"/>
<polygon fill="#000000" stroke="#000000" points="1217.14,-542.3838 1206.7805,-540.1628 1213.4939,-548.3593 1217.14,-542.3838"/>
</g>
<!-- 524241174 -->
<g id="node14" class="node">
<title>524241174</title>
<polygon fill="none" stroke="#000000" points="804.4009,-36 649.6265,-36 649.6265,0 804.4009,0 804.4009,-36"/>
<text text-anchor="middle" x="727.0137" y="-13.8" font-family="Times,serif" font-size="14.00" fill="#000000">g1::liagtAufGerade([l4])</text>
</g>
<!-- 1383524016&#45;&gt;524241174 -->
<g id="edge6" class="edge">
<title>1383524016&#45;&gt;524241174</title>
<path fill="none" stroke="#000000" d="M1295.0137,-575.8146C1295.0137,-548.4983 1295.0137,-495.25 1295.0137,-450 1295.0137,-450 1295.0137,-450 1295.0137,-162 1295.0137,-64.0725 973.7709,-31.9945 814.4619,-22.1074"/>
<polygon fill="#000000" stroke="#000000" points="814.4007,-18.5974 804.2078,-21.4878 813.9785,-25.5847 814.4007,-18.5974"/>
</g>
<!-- 1624820151 -->
<g id="node19" class="node">
<title>1624820151</title>
<polygon fill="none" stroke="#000000" points="1383.2282,-540 1322.7991,-540 1322.7991,-504 1383.2282,-504 1383.2282,-540"/>
<text text-anchor="middle" x="1353.0137" y="-517.8" font-family="Times,serif" font-size="14.00" fill="#000000">store g1</text>
</g>
<!-- 1383524016&#45;&gt;1624820151 -->
<g id="edge7" class="edge">
<title>1383524016&#45;&gt;1624820151</title>
<path fill="none" stroke="#000000" d="M1309.6495,-575.8314C1316.3298,-567.5386 1324.3705,-557.557 1331.704,-548.4533"/>
<polygon fill="#000000" stroke="#000000" points="1334.6331,-550.3965 1338.1808,-540.4133 1329.1818,-546.0052 1334.6331,-550.3965"/>
</g>
<!-- 1966250569 -->
<g id="node25" class="node">
<title>1966250569</title>
<polygon fill="none" stroke="#000000" points="1257.3831,-468 1030.6442,-468 1030.6442,-432 1257.3831,-432 1257.3831,-468"/>
<text text-anchor="middle" x="1144.0137" y="-445.8" font-family="Times,serif" font-size="14.00" fill="#000000">cast n1 from demo.types.Punkt to Arr</text>
</g>
<!-- 1472465&#45;&gt;1966250569 -->
<g id="edge8" class="edge">
<title>1472465&#45;&gt;1966250569</title>
<path fill="none" stroke="#000000" d="M1168.6864,-503.8314C1165.0407,-495.8771 1160.6828,-486.369 1156.651,-477.5723"/>
<polygon fill="#000000" stroke="#000000" points="1159.8014,-476.0456 1152.4531,-468.4133 1153.438,-478.9622 1159.8014,-476.0456"/>
</g>
<!-- 2035070981 -->
<g id="node8" class="node">
<title>2035070981</title>
<polygon fill="none" stroke="#000000" points="702.1416,-180 439.8857,-180 439.8857,-144 702.1416,-144 702.1416,-180"/>
<text text-anchor="middle" x="571.0137" y="-157.8" font-family="Times,serif" font-size="14.00" fill="#000000">cast l4 from demo.types.NummerList to Arr</text>
</g>
<!-- 1506809545 -->
<g id="node13" class="node">
<title>1506809545</title>
<polygon fill="none" stroke="#000000" points="682.7726,-108 459.2547,-108 459.2547,-72 682.7726,-72 682.7726,-108"/>
<text text-anchor="middle" x="571.0137" y="-85.8" font-family="Times,serif" font-size="14.00" fill="#000000">cast l4 from Arr to demo.types.Punkt</text>
</g>
<!-- 2035070981&#45;&gt;1506809545 -->
<g id="edge9" class="edge">
<title>2035070981&#45;&gt;1506809545</title>
<path fill="none" stroke="#000000" d="M571.0137,-143.8314C571.0137,-136.131 571.0137,-126.9743 571.0137,-118.4166"/>
<polygon fill="#000000" stroke="#000000" points="574.5138,-118.4132 571.0137,-108.4133 567.5138,-118.4133 574.5138,-118.4132"/>
</g>
<!-- 1556995360 -->
<g id="node16" class="node">
<title>1556995360</title>
<polygon fill="none" stroke="#000000" points="664.7062,-252 477.3212,-252 477.3212,-216 664.7062,-216 664.7062,-252"/>
<text text-anchor="middle" x="571.0137" y="-229.8" font-family="Times,serif" font-size="14.00" fill="#000000">l4 = a1::summierListe([l3, l2])</text>
</g>
<!-- 1237550792&#45;&gt;1556995360 -->
<g id="edge10" class="edge">
<title>1237550792&#45;&gt;1556995360</title>
<path fill="none" stroke="#000000" d="M491.7619,-287.8314C505.0689,-278.7927 521.3297,-267.7476 535.6512,-258.0198"/>
<polygon fill="#000000" stroke="#000000" points="537.9684,-260.677 544.274,-252.1628 534.0352,-254.8864 537.9684,-260.677"/>
</g>
<!-- 2081191879 -->
<g id="node10" class="node">
<title>2081191879</title>
<polygon fill="none" stroke="#000000" points="658.9414,-324 599.0859,-324 599.0859,-288 658.9414,-288 658.9414,-324"/>
<text text-anchor="middle" x="629.0137" y="-301.8" font-family="Times,serif" font-size="14.00" fill="#000000">store a1</text>
</g>
<!-- 22671767&#45;&gt;550668305 -->
<g id="edge11" class="edge">
<title>22671767&#45;&gt;550668305</title>
<path fill="none" stroke="#000000" d="M134.0137,-575.8146C134.0137,-548.4983 134.0137,-495.25 134.0137,-450 134.0137,-450 134.0137,-450 134.0137,-162 134.0137,-78.9409 232.4519,-43.7575 312.8024,-28.8739"/>
<polygon fill="#000000" stroke="#000000" points="313.7643,-32.2583 323.0038,-27.0734 312.5476,-25.3648 313.7643,-32.2583"/>
</g>
<!-- 1791045777 -->
<g id="node12" class="node">
<title>1791045777</title>
<polygon fill="none" stroke="#000000" points="562.1616,-540 425.8658,-540 425.8658,-504 562.1616,-504 562.1616,-540"/>
<text text-anchor="middle" x="494.0137" y="-517.8" font-family="Times,serif" font-size="14.00" fill="#000000">n2 = g2::nullstelle([])</text>
</g>
<!-- 22671767&#45;&gt;1791045777 -->
<g id="edge12" class="edge">
<title>22671767&#45;&gt;1791045777</title>
<path fill="none" stroke="#000000" d="M224.3922,-575.9243C283.3368,-564.1354 359.4963,-548.9035 415.83,-537.6367"/>
<polygon fill="#000000" stroke="#000000" points="416.6353,-541.0451 425.7547,-535.6518 415.2624,-534.181 416.6353,-541.0451"/>
</g>
<!-- 1219161283 -->
<g id="node15" class="node">
<title>1219161283</title>
<polygon fill="none" stroke="#000000" points="106.2282,-540 45.7991,-540 45.7991,-504 106.2282,-504 106.2282,-540"/>
<text text-anchor="middle" x="76.0137" y="-517.8" font-family="Times,serif" font-size="14.00" fill="#000000">store g2</text>
</g>
<!-- 22671767&#45;&gt;1219161283 -->
<g id="edge13" class="edge">
<title>22671767&#45;&gt;1219161283</title>
<path fill="none" stroke="#000000" d="M119.3778,-575.8314C112.6976,-567.5386 104.6568,-557.557 97.3233,-548.4533"/>
<polygon fill="#000000" stroke="#000000" points="99.8456,-546.0052 90.8466,-540.4133 94.3943,-550.3965 99.8456,-546.0052"/>
</g>
<!-- 511717113 -->
<g id="node24" class="node">
<title>511717113</title>
<polygon fill="none" stroke="#000000" points="917.3831,-468 690.6442,-468 690.6442,-432 917.3831,-432 917.3831,-468"/>
<text text-anchor="middle" x="804.0137" y="-445.8" font-family="Times,serif" font-size="14.00" fill="#000000">cast n2 from demo.types.Punkt to Arr</text>
</g>
<!-- 1791045777&#45;&gt;511717113 -->
<g id="edge14" class="edge">
<title>1791045777&#45;&gt;511717113</title>
<path fill="none" stroke="#000000" d="M562.4283,-506.1102C607.8011,-495.572 667.7485,-481.6487 716.5751,-470.3083"/>
<polygon fill="#000000" stroke="#000000" points="717.551,-473.6749 726.4999,-468.0032 715.9673,-466.8564 717.551,-473.6749"/>
</g>
<!-- 1506809545&#45;&gt;550668305 -->
<g id="edge15" class="edge">
<title>1506809545&#45;&gt;550668305</title>
<path fill="none" stroke="#000000" d="M531.6483,-71.8314C510.8769,-62.2446 485.2153,-50.4008 463.2556,-40.2655"/>
<polygon fill="#000000" stroke="#000000" points="464.6423,-37.0508 454.096,-36.038 461.7089,-43.4065 464.6423,-37.0508"/>
</g>
<!-- 1506809545&#45;&gt;524241174 -->
<g id="edge16" class="edge">
<title>1506809545&#45;&gt;524241174</title>
<path fill="none" stroke="#000000" d="M610.3791,-71.8314C631.1504,-62.2446 656.812,-50.4008 678.7717,-40.2655"/>
<polygon fill="#000000" stroke="#000000" points="680.3185,-43.4065 687.9314,-36.038 677.385,-37.0508 680.3185,-43.4065"/>
</g>
<!-- 1556995360&#45;&gt;2035070981 -->
<g id="edge17" class="edge">
<title>1556995360&#45;&gt;2035070981</title>
<path fill="none" stroke="#000000" d="M571.0137,-215.8314C571.0137,-208.131 571.0137,-198.9743 571.0137,-190.4166"/>
<polygon fill="#000000" stroke="#000000" points="574.5138,-190.4132 571.0137,-180.4133 567.5138,-190.4133 574.5138,-190.4132"/>
</g>
<!-- 1125381564 -->
<g id="node17" class="node">
<title>1125381564</title>
<polygon fill="none" stroke="#000000" points="1266.7521,-396 1001.2753,-396 1001.2753,-360 1266.7521,-360 1266.7521,-396"/>
<text text-anchor="middle" x="1134.0137" y="-373.8" font-family="Times,serif" font-size="14.00" fill="#000000">cast n1 from Arr to demo.types.NummerList</text>
</g>
<!-- 1831477404 -->
<g id="node21" class="node">
<title>1831477404</title>
<polygon fill="none" stroke="#000000" points="909.9272,-324 716.1001,-324 716.1001,-288 909.9272,-288 909.9272,-324"/>
<text text-anchor="middle" x="813.0137" y="-301.8" font-family="Times,serif" font-size="14.00" fill="#000000">l2 = a1::summierListe([n1, n2])</text>
</g>
<!-- 1125381564&#45;&gt;1831477404 -->
<g id="edge18" class="edge">
<title>1125381564&#45;&gt;1831477404</title>
<path fill="none" stroke="#000000" d="M1053.4262,-359.9243C1007.7397,-349.6769 950.4553,-336.828 903.2648,-326.2432"/>
<polygon fill="#000000" stroke="#000000" points="903.8795,-322.7942 893.3559,-324.0207 902.3474,-329.6245 903.8795,-322.7942"/>
</g>
<!-- 2005733474 -->
<g id="node18" class="node">
<title>2005733474</title>
<polygon fill="none" stroke="#000000" points="983.7521,-396 718.2753,-396 718.2753,-360 983.7521,-360 983.7521,-396"/>
<text text-anchor="middle" x="851.0137" y="-373.8" font-family="Times,serif" font-size="14.00" fill="#000000">cast n2 from Arr to demo.types.NummerList</text>
</g>
<!-- 2005733474&#45;&gt;1831477404 -->
<g id="edge19" class="edge">
<title>2005733474&#45;&gt;1831477404</title>
<path fill="none" stroke="#000000" d="M841.4247,-359.8314C837.1819,-351.7925 832.1016,-342.1666 827.4177,-333.2918"/>
<polygon fill="#000000" stroke="#000000" points="830.4948,-331.6235 822.7318,-324.4133 824.3041,-334.8908 830.4948,-331.6235"/>
</g>
<!-- 733943822 -->
<g id="node20" class="node">
<title>733943822</title>
<polygon fill="none" stroke="#000000" points="1274.2593,-684 1211.7681,-684 1211.7681,-648 1274.2593,-648 1274.2593,-684"/>
<text text-anchor="middle" x="1243.0137" y="-661.8" font-family="Times,serif" font-size="14.00" fill="#000000">accept b</text>
</g>
<!-- 733943822&#45;&gt;1383524016 -->
<g id="edge20" class="edge">
<title>733943822&#45;&gt;1383524016</title>
<path fill="none" stroke="#000000" d="M1256.1355,-647.8314C1262.0636,-639.6232 1269.1866,-629.7606 1275.707,-620.7323"/>
<polygon fill="#000000" stroke="#000000" points="1278.6976,-622.5693 1281.7152,-612.4133 1273.0229,-618.4708 1278.6976,-622.5693"/>
</g>
<!-- 1831477404&#45;&gt;1556995360 -->
<g id="edge21" class="edge">
<title>1831477404&#45;&gt;1556995360</title>
<path fill="none" stroke="#000000" d="M752.2592,-287.9243C718.6011,-277.9103 676.593,-265.412 641.4963,-254.97"/>
<polygon fill="#000000" stroke="#000000" points="642.376,-251.5802 631.7931,-252.0831 640.3798,-258.2896 642.376,-251.5802"/>
</g>
<!-- 1637061418 -->
<g id="node22" class="node">
<title>1637061418</title>
<polygon fill="none" stroke="#000000" points="1401.8178,-684 1292.2095,-684 1292.2095,-648 1401.8178,-648 1401.8178,-684"/>
<text text-anchor="middle" x="1347.0137" y="-661.8" font-family="Times,serif" font-size="14.00" fill="#000000">parse Number: 1</text>
</g>
<!-- 1637061418&#45;&gt;1383524016 -->
<g id="edge22" class="edge">
<title>1637061418&#45;&gt;1383524016</title>
<path fill="none" stroke="#000000" d="M1333.8919,-647.8314C1327.9638,-639.6232 1320.8407,-629.7606 1314.3203,-620.7323"/>
<polygon fill="#000000" stroke="#000000" points="1317.0045,-618.4708 1308.3121,-612.4133 1311.3297,-622.5693 1317.0045,-618.4708"/>
</g>
<!-- 98394724 -->
<g id="node23" class="node">
<title>98394724</title>
<polygon fill="none" stroke="#000000" points="243.9795,-684 130.0478,-684 130.0478,-648 243.9795,-648 243.9795,-684"/>
<text text-anchor="middle" x="187.0137" y="-661.8" font-family="Times,serif" font-size="14.00" fill="#000000">parse Number: &#45;1</text>
</g>
<!-- 98394724&#45;&gt;22671767 -->
<g id="edge23" class="edge">
<title>98394724&#45;&gt;22671767</title>
<path fill="none" stroke="#000000" d="M173.6395,-647.8314C167.5974,-639.6232 160.3374,-629.7606 153.6916,-620.7323"/>
<polygon fill="#000000" stroke="#000000" points="156.3148,-618.3918 147.5679,-612.4133 150.6774,-622.5415 156.3148,-618.3918"/>
</g>
<!-- 511717113&#45;&gt;2005733474 -->
<g id="edge24" class="edge">
<title>511717113&#45;&gt;2005733474</title>
<path fill="none" stroke="#000000" d="M815.8738,-431.8314C821.1766,-423.7079 827.5373,-413.9637 833.381,-405.0118"/>
<polygon fill="#000000" stroke="#000000" points="836.4585,-406.7003 838.9939,-396.4133 830.5968,-402.8739 836.4585,-406.7003"/>
</g>
<!-- 1966250569&#45;&gt;1125381564 -->
<g id="edge25" class="edge">
<title>1966250569&#45;&gt;1125381564</title>
<path fill="none" stroke="#000000" d="M1141.4902,-431.8314C1140.4207,-424.131 1139.149,-414.9743 1137.9604,-406.4166"/>
<polygon fill="#000000" stroke="#000000" points="1141.4136,-405.8367 1136.5711,-396.4133 1134.4801,-406.7997 1141.4136,-405.8367"/>
</g>
<!-- 1374026904&#45;&gt;1237550792 -->
<g id="edge26" class="edge">
<title>1374026904&#45;&gt;1237550792</title>
<path fill="none" stroke="#000000" d="M544.2654,-359.8314C530.9584,-350.7927 514.6977,-339.7476 500.3762,-330.0198"/>
<polygon fill="#000000" stroke="#000000" points="501.9922,-326.8864 491.7534,-324.1628 498.059,-332.677 501.9922,-326.8864"/>
</g>
<!-- 1374026904&#45;&gt;2081191879 -->
<g id="edge27" class="edge">
<title>1374026904&#45;&gt;2081191879</title>
<path fill="none" stroke="#000000" d="M585.6495,-359.8314C592.3298,-351.5386 600.3705,-341.557 607.704,-332.4533"/>
<polygon fill="#000000" stroke="#000000" points="610.6331,-334.3965 614.1808,-324.4133 605.1818,-330.0052 610.6331,-334.3965"/>
</g>
<!-- 1374026904&#45;&gt;1556995360 -->
<g id="edge28" class="edge">
<title>1374026904&#45;&gt;1556995360</title>
<path fill="none" stroke="#000000" d="M571.0137,-359.7623C571.0137,-335.201 571.0137,-291.2474 571.0137,-262.3541"/>
<polygon fill="#000000" stroke="#000000" points="574.5138,-262.0896 571.0137,-252.0896 567.5138,-262.0897 574.5138,-262.0896"/>
</g>
<!-- 1374026904&#45;&gt;1831477404 -->
<g id="edge29" class="edge">
<title>1374026904&#45;&gt;1831477404</title>
<path fill="none" stroke="#000000" d="M631.7681,-359.9243C665.4263,-349.9103 707.4343,-337.412 742.5311,-326.97"/>
<polygon fill="#000000" stroke="#000000" points="743.6475,-330.2896 752.2342,-324.0831 741.6513,-323.5802 743.6475,-330.2896"/>
</g>
</g>
</svg>
