<?xml version="1.0" encoding="UTF-8" standalone="no"?>
<!DOCTYPE svg PUBLIC "-//W3C//DTD SVG 1.1//EN"
 "http://www.w3.org/Graphics/SVG/1.1/DTD/svg11.dtd">
<!-- Generated by graphviz version 2.40.1 (20161225.0304)
 -->
<!-- Title: %3 Pages: 1 -->
<svg width="1313pt" height="332pt"
 viewBox="0.00 0.00 1313.38 332.00" xmlns="http://www.w3.org/2000/svg" xmlns:xlink="http://www.w3.org/1999/xlink">
<g id="graph0" class="graph" transform="scale(1 1) rotate(0) translate(4 328)">
<title>%3</title>
<polygon fill="#ffffff" stroke="transparent" points="-4,4 -4,-328 1309.375,-328 1309.375,4 -4,4"/>
<!-- 2134607032 -->
<g id="node1" class="node">
<title>2134607032</title>
<polygon fill="none" stroke="#000000" points="268.1482,-324 206.2268,-324 206.2268,-288 268.1482,-288 268.1482,-324"/>
<text text-anchor="middle" x="237.1875" y="-301.8" font-family="Times,serif" font-size="14.00" fill="#000000">accept a</text>
</g>
<!-- 2005169944 -->
<g id="node22" class="node">
<title>2005169944</title>
<polygon fill="none" stroke="#000000" points="424.2148,-252 156.1602,-252 156.1602,-216 424.2148,-216 424.2148,-252"/>
<text text-anchor="middle" x="290.1875" y="-229.8" font-family="Times,serif" font-size="14.00" fill="#000000">g2 = demo.math.Gerade::__construct([a, &#45;1])</text>
</g>
<!-- 2134607032&#45;&gt;2005169944 -->
<g id="edge1" class="edge">
<title>2134607032&#45;&gt;2005169944</title>
<path fill="none" stroke="#000000" d="M250.5616,-287.8314C256.6037,-279.6232 263.8638,-269.7606 270.5096,-260.7323"/>
<polygon fill="#000000" stroke="#000000" points="273.5238,-262.5415 276.6333,-252.4133 267.8864,-258.3918 273.5238,-262.5415"/>
</g>
<!-- 258931371 -->
<g id="node2" class="node">
<title>258931371</title>
<polygon fill="none" stroke="#000000" points="645.3224,-324 579.0526,-324 579.0526,-288 645.3224,-288 645.3224,-324"/>
<text text-anchor="middle" x="612.1875" y="-301.8" font-family="Times,serif" font-size="14.00" fill="#000000">accept l4</text>
</g>
<!-- 1083962448 -->
<g id="node6" class="node">
<title>1083962448</title>
<polygon fill="none" stroke="#000000" points="723.9464,-252 500.4286,-252 500.4286,-216 723.9464,-216 723.9464,-252"/>
<text text-anchor="middle" x="612.1875" y="-229.8" font-family="Times,serif" font-size="14.00" fill="#000000">cast l4 from Arr to demo.types.Punkt</text>
</g>
<!-- 258931371&#45;&gt;1083962448 -->
<g id="edge2" class="edge">
<title>258931371&#45;&gt;1083962448</title>
<path fill="none" stroke="#000000" d="M612.1875,-287.8314C612.1875,-280.131 612.1875,-270.9743 612.1875,-262.4166"/>
<polygon fill="#000000" stroke="#000000" points="615.6876,-262.4132 612.1875,-252.4133 608.6876,-262.4133 615.6876,-262.4132"/>
</g>
<!-- 150268540 -->
<g id="node3" class="node">
<title>150268540</title>
<polygon fill="none" stroke="#000000" points="1201.3389,-252 937.0361,-252 937.0361,-216 1201.3389,-216 1201.3389,-252"/>
<text text-anchor="middle" x="1069.1875" y="-229.8" font-family="Times,serif" font-size="14.00" fill="#000000">g1 = demo.math.Gerade::__construct([b, 1])</text>
</g>
<!-- 883151184 -->
<g id="node12" class="node">
<title>883151184</title>
<polygon fill="none" stroke="#000000" points="1197.402,-108 1136.973,-108 1136.973,-72 1197.402,-72 1197.402,-108"/>
<text text-anchor="middle" x="1167.1875" y="-85.8" font-family="Times,serif" font-size="14.00" fill="#000000">store g1</text>
</g>
<!-- 150268540&#45;&gt;883151184 -->
<g id="edge3" class="edge">
<title>150268540&#45;&gt;883151184</title>
<path fill="none" stroke="#000000" d="M1081.5993,-215.7623C1098.6827,-190.66 1129.5516,-145.3017 1149.1752,-116.4671"/>
<polygon fill="#000000" stroke="#000000" points="1152.1437,-118.326 1154.8765,-108.0896 1146.3567,-114.3876 1152.1437,-118.326"/>
</g>
<!-- 1550207152 -->
<g id="node13" class="node">
<title>1550207152</title>
<polygon fill="none" stroke="#000000" points="1305.5629,-180 1144.8121,-180 1144.8121,-144 1305.5629,-144 1305.5629,-180"/>
<text text-anchor="middle" x="1225.1875" y="-157.8" font-family="Times,serif" font-size="14.00" fill="#000000">transmit g1&#45;&gt;Core_Client</text>
</g>
<!-- 150268540&#45;&gt;1550207152 -->
<g id="edge4" class="edge">
<title>150268540&#45;&gt;1550207152</title>
<path fill="none" stroke="#000000" d="M1108.5529,-215.8314C1129.3242,-206.2446 1154.9858,-194.4008 1176.9456,-184.2655"/>
<polygon fill="#000000" stroke="#000000" points="1178.4923,-187.4065 1186.1052,-180.038 1175.5589,-181.0508 1178.4923,-187.4065"/>
</g>
<!-- 573673894 -->
<g id="node15" class="node">
<title>573673894</title>
<polygon fill="none" stroke="#000000" points="1089.3354,-180 953.0396,-180 953.0396,-144 1089.3354,-144 1089.3354,-180"/>
<text text-anchor="middle" x="1021.1875" y="-157.8" font-family="Times,serif" font-size="14.00" fill="#000000">n1 = g1::nullstelle([])</text>
</g>
<!-- 150268540&#45;&gt;573673894 -->
<g id="edge5" class="edge">
<title>150268540&#45;&gt;573673894</title>
<path fill="none" stroke="#000000" d="M1057.0751,-215.8314C1051.6594,-207.7079 1045.1633,-197.9637 1039.1954,-189.0118"/>
<polygon fill="#000000" stroke="#000000" points="1041.9222,-186.7923 1033.463,-180.4133 1036.0979,-190.6753 1041.9222,-186.7923"/>
</g>
<!-- 1961945640 -->
<g id="node16" class="node">
<title>1961945640</title>
<polygon fill="none" stroke="#000000" points="862.5747,-180 707.8003,-180 707.8003,-144 862.5747,-144 862.5747,-180"/>
<text text-anchor="middle" x="785.1875" y="-157.8" font-family="Times,serif" font-size="14.00" fill="#000000">g1::liagtAufGerade([l4])</text>
</g>
<!-- 150268540&#45;&gt;1961945640 -->
<g id="edge6" class="edge">
<title>150268540&#45;&gt;1961945640</title>
<path fill="none" stroke="#000000" d="M997.8889,-215.9243C957.8828,-205.7819 907.8248,-193.0912 866.3225,-182.5694"/>
<polygon fill="#000000" stroke="#000000" points="867.0689,-179.148 856.5154,-180.0831 865.3487,-185.9334 867.0689,-179.148"/>
</g>
<!-- 403147759 -->
<g id="node4" class="node">
<title>403147759</title>
<polygon fill="none" stroke="#000000" points="376.5629,-108 215.8121,-108 215.8121,-72 376.5629,-72 376.5629,-108"/>
<text text-anchor="middle" x="296.1875" y="-85.8" font-family="Times,serif" font-size="14.00" fill="#000000">transmit n2&#45;&gt;Core_Client</text>
</g>
<!-- 447718425 -->
<g id="node14" class="node">
<title>447718425</title>
<polygon fill="none" stroke="#000000" points="810.1744,-36 594.2006,-36 594.2006,0 810.1744,0 810.1744,-36"/>
<text text-anchor="middle" x="702.1875" y="-13.8" font-family="Times,serif" font-size="14.00" fill="#000000">FinishNode &amp;finished&amp;Executor_2</text>
</g>
<!-- 403147759&#45;&gt;447718425 -->
<g id="edge7" class="edge">
<title>403147759&#45;&gt;447718425</title>
<path fill="none" stroke="#000000" d="M376.6961,-73.6017C379.5606,-73.0551 382.3979,-72.5196 385.1875,-72 450.8185,-59.7761 524.3037,-47.1895 583.9849,-37.2462"/>
<polygon fill="#000000" stroke="#000000" points="584.9095,-40.6406 594.2,-35.5477 583.7613,-33.7354 584.9095,-40.6406"/>
</g>
<!-- 320304382 -->
<g id="node5" class="node">
<title>320304382</title>
<polygon fill="none" stroke="#000000" points="1071.9916,-324 962.3834,-324 962.3834,-288 1071.9916,-288 1071.9916,-324"/>
<text text-anchor="middle" x="1017.1875" y="-301.8" font-family="Times,serif" font-size="14.00" fill="#000000">parse Number: 1</text>
</g>
<!-- 320304382&#45;&gt;150268540 -->
<g id="edge8" class="edge">
<title>320304382&#45;&gt;150268540</title>
<path fill="none" stroke="#000000" d="M1030.3093,-287.8314C1036.2374,-279.6232 1043.3604,-269.7606 1049.8808,-260.7323"/>
<polygon fill="#000000" stroke="#000000" points="1052.8715,-262.5693 1055.889,-252.4133 1047.1967,-258.4708 1052.8715,-262.5693"/>
</g>
<!-- 1239759990 -->
<g id="node11" class="node">
<title>1239759990</title>
<polygon fill="none" stroke="#000000" points="689.9699,-180 506.4051,-180 506.4051,-144 689.9699,-144 689.9699,-180"/>
<text text-anchor="middle" x="598.1875" y="-157.8" font-family="Times,serif" font-size="14.00" fill="#000000">b1 = g2::liagtAufGerade([l4])</text>
</g>
<!-- 1083962448&#45;&gt;1239759990 -->
<g id="edge9" class="edge">
<title>1083962448&#45;&gt;1239759990</title>
<path fill="none" stroke="#000000" d="M608.6547,-215.8314C607.1574,-208.131 605.377,-198.9743 603.713,-190.4166"/>
<polygon fill="#000000" stroke="#000000" points="607.1123,-189.5614 601.7679,-180.4133 600.241,-190.8975 607.1123,-189.5614"/>
</g>
<!-- 1083962448&#45;&gt;1961945640 -->
<g id="edge10" class="edge">
<title>1083962448&#45;&gt;1961945640</title>
<path fill="none" stroke="#000000" d="M655.8427,-215.8314C679.0833,-206.159 707.8443,-194.1891 732.3398,-183.9944"/>
<polygon fill="#000000" stroke="#000000" points="733.9587,-187.1117 741.8462,-180.038 731.269,-180.6491 733.9587,-187.1117"/>
</g>
<!-- 1536031937 -->
<g id="node7" class="node">
<title>1536031937</title>
<polygon fill="none" stroke="#000000" points="550.6599,-108 393.7151,-108 393.7151,-72 550.6599,-72 550.6599,-108"/>
<text text-anchor="middle" x="472.1875" y="-85.8" font-family="Times,serif" font-size="14.00" fill="#000000">transmit n2&#45;&gt;Executor_1</text>
</g>
<!-- 1536031937&#45;&gt;447718425 -->
<g id="edge11" class="edge">
<title>1536031937&#45;&gt;447718425</title>
<path fill="none" stroke="#000000" d="M529.9293,-71.9243C561.7818,-61.9531 601.5024,-49.5188 634.7719,-39.104"/>
<polygon fill="#000000" stroke="#000000" points="635.9242,-42.4109 644.4219,-36.0831 633.8329,-35.7305 635.9242,-42.4109"/>
</g>
<!-- 1499867659 -->
<g id="node8" class="node">
<title>1499867659</title>
<polygon fill="none" stroke="#000000" points="940.6599,-108 783.7151,-108 783.7151,-72 940.6599,-72 940.6599,-108"/>
<text text-anchor="middle" x="862.1875" y="-85.8" font-family="Times,serif" font-size="14.00" fill="#000000">transmit n1&#45;&gt;Executor_1</text>
</g>
<!-- 1499867659&#45;&gt;447718425 -->
<g id="edge12" class="edge">
<title>1499867659&#45;&gt;447718425</title>
<path fill="none" stroke="#000000" d="M821.8127,-71.8314C800.5088,-62.2446 774.1892,-50.4008 751.6664,-40.2655"/>
<polygon fill="#000000" stroke="#000000" points="752.8274,-36.95 742.2719,-36.038 749.9549,-43.3334 752.8274,-36.95"/>
</g>
<!-- 2093010349 -->
<g id="node9" class="node">
<title>2093010349</title>
<polygon fill="none" stroke="#000000" points="160.5629,-108 -.1879,-108 -.1879,-72 160.5629,-72 160.5629,-108"/>
<text text-anchor="middle" x="80.1875" y="-85.8" font-family="Times,serif" font-size="14.00" fill="#000000">transmit g2&#45;&gt;Core_Client</text>
</g>
<!-- 2093010349&#45;&gt;447718425 -->
<g id="edge13" class="edge">
<title>2093010349&#45;&gt;447718425</title>
<path fill="none" stroke="#000000" d="M160.6154,-74.1205C165.2005,-73.3644 169.7486,-72.6507 174.1875,-72 314.508,-51.4296 476.9523,-36.075 584.1986,-27.0998"/>
<polygon fill="#000000" stroke="#000000" points="584.7269,-30.568 594.4024,-26.2512 584.1467,-23.5921 584.7269,-30.568"/>
</g>
<!-- 156856360 -->
<g id="node10" class="node">
<title>156856360</title>
<polygon fill="none" stroke="#000000" points="373.3354,-180 237.0396,-180 237.0396,-144 373.3354,-144 373.3354,-180"/>
<text text-anchor="middle" x="305.1875" y="-157.8" font-family="Times,serif" font-size="14.00" fill="#000000">n2 = g2::nullstelle([])</text>
</g>
<!-- 156856360&#45;&gt;403147759 -->
<g id="edge14" class="edge">
<title>156856360&#45;&gt;403147759</title>
<path fill="none" stroke="#000000" d="M302.9164,-143.8314C301.9539,-136.131 300.8093,-126.9743 299.7396,-118.4166"/>
<polygon fill="#000000" stroke="#000000" points="303.2026,-117.9019 298.4892,-108.4133 296.2566,-118.7702 303.2026,-117.9019"/>
</g>
<!-- 156856360&#45;&gt;1536031937 -->
<g id="edge15" class="edge">
<title>156856360&#45;&gt;1536031937</title>
<path fill="none" stroke="#000000" d="M347.3287,-143.8314C369.6639,-134.2018 397.2811,-122.295 420.8585,-112.1299"/>
<polygon fill="#000000" stroke="#000000" points="422.5522,-115.2112 430.3494,-108.038 419.7808,-108.7831 422.5522,-115.2112"/>
</g>
<!-- 915349526 -->
<g id="node18" class="node">
<title>915349526</title>
<polygon fill="none" stroke="#000000" points="728.5629,-108 567.8121,-108 567.8121,-72 728.5629,-72 728.5629,-108"/>
<text text-anchor="middle" x="648.1875" y="-85.8" font-family="Times,serif" font-size="14.00" fill="#000000">transmit b1&#45;&gt;Core_Client</text>
</g>
<!-- 1239759990&#45;&gt;915349526 -->
<g id="edge16" class="edge">
<title>1239759990&#45;&gt;915349526</title>
<path fill="none" stroke="#000000" d="M610.8046,-143.8314C616.5047,-135.6232 623.3538,-125.7606 629.6234,-116.7323"/>
<polygon fill="#000000" stroke="#000000" points="632.5713,-118.6234 635.4005,-108.4133 626.8217,-114.6306 632.5713,-118.6234"/>
</g>
<!-- 883151184&#45;&gt;447718425 -->
<g id="edge17" class="edge">
<title>883151184&#45;&gt;447718425</title>
<path fill="none" stroke="#000000" d="M1136.9615,-75.2818C1133.7108,-74.0367 1130.4126,-72.9086 1127.1875,-72 1025.7848,-43.4312 906.4876,-29.9451 820.1397,-23.5972"/>
<polygon fill="#000000" stroke="#000000" points="820.2651,-20.0973 810.0412,-22.8762 819.7666,-27.0795 820.2651,-20.0973"/>
</g>
<!-- 1550207152&#45;&gt;447718425 -->
<g id="edge18" class="edge">
<title>1550207152&#45;&gt;447718425</title>
<path fill="none" stroke="#000000" d="M1227.0525,-143.7829C1228.0562,-123.1249 1226.0945,-89.9857 1206.1875,-72 1178.1184,-46.6399 960.382,-30.9855 820.4283,-23.4397"/>
<polygon fill="#000000" stroke="#000000" points="820.2435,-19.925 810.0715,-22.8884 819.8713,-26.9151 820.2435,-19.925"/>
</g>
<!-- 573673894&#45;&gt;1499867659 -->
<g id="edge19" class="edge">
<title>573673894&#45;&gt;1499867659</title>
<path fill="none" stroke="#000000" d="M981.0651,-143.8314C959.8943,-134.2446 933.7392,-122.4008 911.3572,-112.2655"/>
<polygon fill="#000000" stroke="#000000" points="912.5747,-108.9748 902.0214,-108.038 909.6872,-115.3515 912.5747,-108.9748"/>
</g>
<!-- 1438030319 -->
<g id="node17" class="node">
<title>1438030319</title>
<polygon fill="none" stroke="#000000" points="1118.5629,-108 957.8121,-108 957.8121,-72 1118.5629,-72 1118.5629,-108"/>
<text text-anchor="middle" x="1038.1875" y="-85.8" font-family="Times,serif" font-size="14.00" fill="#000000">transmit n1&#45;&gt;Core_Client</text>
</g>
<!-- 573673894&#45;&gt;1438030319 -->
<g id="edge20" class="edge">
<title>573673894&#45;&gt;1438030319</title>
<path fill="none" stroke="#000000" d="M1025.4773,-143.8314C1027.2955,-136.131 1029.4574,-126.9743 1031.478,-118.4166"/>
<polygon fill="#000000" stroke="#000000" points="1034.9483,-118.95 1033.8399,-108.4133 1028.1356,-117.3414 1034.9483,-118.95"/>
</g>
<!-- 1961945640&#45;&gt;447718425 -->
<g id="edge21" class="edge">
<title>1961945640&#45;&gt;447718425</title>
<path fill="none" stroke="#000000" d="M776.0686,-143.8214C766.7262,-125.4638 751.5724,-96.4101 737.1875,-72 731.8833,-62.9991 725.7838,-53.3684 720.178,-44.769"/>
<polygon fill="#000000" stroke="#000000" points="722.9916,-42.6777 714.5687,-36.2506 717.1452,-46.5275 722.9916,-42.6777"/>
</g>
<!-- 1438030319&#45;&gt;447718425 -->
<g id="edge22" class="edge">
<title>1438030319&#45;&gt;447718425</title>
<path fill="none" stroke="#000000" d="M957.7071,-72.7542C909.201,-62.36 847.1901,-49.072 796.4046,-38.1894"/>
<polygon fill="#000000" stroke="#000000" points="796.916,-34.7196 786.4045,-36.0465 795.4492,-41.5642 796.916,-34.7196"/>
</g>
<!-- 915349526&#45;&gt;447718425 -->
<g id="edge23" class="edge">
<title>915349526&#45;&gt;447718425</title>
<path fill="none" stroke="#000000" d="M661.814,-71.8314C668.0335,-63.5386 675.5197,-53.557 682.3475,-44.4533"/>
<polygon fill="#000000" stroke="#000000" points="685.1775,-46.5133 688.3775,-36.4133 679.5775,-42.3133 685.1775,-46.5133"/>
</g>
<!-- 1546908073 -->
<g id="node19" class="node">
<title>1546908073</title>
<polygon fill="none" stroke="#000000" points="400.1533,-324 286.2217,-324 286.2217,-288 400.1533,-288 400.1533,-324"/>
<text text-anchor="middle" x="343.1875" y="-301.8" font-family="Times,serif" font-size="14.00" fill="#000000">parse Number: &#45;1</text>
</g>
<!-- 1546908073&#45;&gt;2005169944 -->
<g id="edge24" class="edge">
<title>1546908073&#45;&gt;2005169944</title>
<path fill="none" stroke="#000000" d="M329.8134,-287.8314C323.7713,-279.6232 316.5112,-269.7606 309.8654,-260.7323"/>
<polygon fill="#000000" stroke="#000000" points="312.4886,-258.3918 303.7417,-252.4133 306.8512,-262.5415 312.4886,-258.3918"/>
</g>
<!-- 1130894323 -->
<g id="node20" class="node">
<title>1130894323</title>
<polygon fill="none" stroke="#000000" points="1152.4331,-324 1089.9419,-324 1089.9419,-288 1152.4331,-288 1152.4331,-324"/>
<text text-anchor="middle" x="1121.1875" y="-301.8" font-family="Times,serif" font-size="14.00" fill="#000000">accept b</text>
</g>
<!-- 1130894323&#45;&gt;150268540 -->
<g id="edge25" class="edge">
<title>1130894323&#45;&gt;150268540</title>
<path fill="none" stroke="#000000" d="M1108.0657,-287.8314C1102.1376,-279.6232 1095.0146,-269.7606 1088.4942,-260.7323"/>
<polygon fill="#000000" stroke="#000000" points="1091.1783,-258.4708 1082.486,-252.4133 1085.5035,-262.5693 1091.1783,-258.4708"/>
</g>
<!-- 1168019749 -->
<g id="node21" class="node">
<title>1168019749</title>
<polygon fill="none" stroke="#000000" points="218.402,-180 157.973,-180 157.973,-144 218.402,-144 218.402,-180"/>
<text text-anchor="middle" x="188.1875" y="-157.8" font-family="Times,serif" font-size="14.00" fill="#000000">store g2</text>
</g>
<!-- 1168019749&#45;&gt;447718425 -->
<g id="edge26" class="edge">
<title>1168019749&#45;&gt;447718425</title>
<path fill="none" stroke="#000000" d="M186.3286,-143.7897C185.3307,-123.1381 187.2978,-90.0048 207.1875,-72 234.6004,-47.1849 446.4729,-31.4191 583.9994,-23.6909"/>
<polygon fill="#000000" stroke="#000000" points="584.3898,-27.1748 594.1805,-23.1258 584.0018,-20.1855 584.3898,-27.1748"/>
</g>
<!-- 2005169944&#45;&gt;2093010349 -->
<g id="edge27" class="edge">
<title>2005169944&#45;&gt;2093010349</title>
<path fill="none" stroke="#000000" d="M220.6848,-215.8756C196.5647,-207.4665 170.2986,-195.7585 149.1875,-180 126.4751,-163.0461 107.488,-136.7011 95.2183,-116.8874"/>
<polygon fill="#000000" stroke="#000000" points="98.2116,-115.0734 90.0643,-108.3006 92.2097,-118.6759 98.2116,-115.0734"/>
</g>
<!-- 2005169944&#45;&gt;156856360 -->
<g id="edge28" class="edge">
<title>2005169944&#45;&gt;156856360</title>
<path fill="none" stroke="#000000" d="M293.9726,-215.8314C295.5769,-208.131 297.4845,-198.9743 299.2674,-190.4166"/>
<polygon fill="#000000" stroke="#000000" points="302.7382,-190.9169 301.3514,-180.4133 295.8854,-189.4892 302.7382,-190.9169"/>
</g>
<!-- 2005169944&#45;&gt;1239759990 -->
<g id="edge29" class="edge">
<title>2005169944&#45;&gt;1239759990</title>
<path fill="none" stroke="#000000" d="M367.5113,-215.9243C411.2558,-205.6983 466.0821,-192.8818 511.3071,-182.3097"/>
<polygon fill="#000000" stroke="#000000" points="512.1583,-185.7052 521.099,-180.0207 510.5648,-178.8889 512.1583,-185.7052"/>
</g>
<!-- 2005169944&#45;&gt;1168019749 -->
<g id="edge30" class="edge">
<title>2005169944&#45;&gt;1168019749</title>
<path fill="none" stroke="#000000" d="M264.4486,-215.8314C251.6438,-206.7927 235.9966,-195.7476 222.2156,-186.0198"/>
<polygon fill="#000000" stroke="#000000" points="224.1063,-183.0703 213.9182,-180.1628 220.0695,-188.7891 224.1063,-183.0703"/>
</g>
</g>
</svg>
