<?xml version="1.0" encoding="UTF-8" standalone="no"?>
<!DOCTYPE svg PUBLIC "-//W3C//DTD SVG 1.1//EN"
 "http://www.w3.org/Graphics/SVG/1.1/DTD/svg11.dtd">
<!-- Generated by graphviz version 2.40.1 (20161225.0304)
 -->
<!-- Title: %3 Pages: 1 -->
<svg width="1113pt" height="404pt"
 viewBox="0.00 0.00 1112.68 404.00" xmlns="http://www.w3.org/2000/svg" xmlns:xlink="http://www.w3.org/1999/xlink">
<g id="graph0" class="graph" transform="scale(1 1) rotate(0) translate(4 400)">
<title>%3</title>
<polygon fill="#ffffff" stroke="transparent" points="-4,4 -4,-400 1108.6831,-400 1108.6831,4 -4,4"/>
<!-- 210506412 -->
<g id="node1" class="node">
<title>210506412</title>
<polygon fill="none" stroke="#000000" points="538.2673,-324 279.8607,-324 279.8607,-288 538.2673,-288 538.2673,-324"/>
<text text-anchor="middle" x="409.064" y="-301.8" font-family="Times,serif" font-size="14.00" fill="#000000">a1 = demo.math.Addierer::__construct([5])</text>
</g>
<!-- 1325124186 -->
<g id="node3" class="node">
<title>1325124186</title>
<polygon fill="none" stroke="#000000" points="785.9775,-252 592.1504,-252 592.1504,-216 785.9775,-216 785.9775,-252"/>
<text text-anchor="middle" x="689.064" y="-229.8" font-family="Times,serif" font-size="14.00" fill="#000000">l2 = a1::summierListe([n1, n2])</text>
</g>
<!-- 210506412&#45;&gt;1325124186 -->
<g id="edge1" class="edge">
<title>210506412&#45;&gt;1325124186</title>
<path fill="none" stroke="#000000" d="M479.3584,-287.9243C518.7178,-277.8033 567.9457,-265.1447 608.8126,-254.6361"/>
<polygon fill="#000000" stroke="#000000" points="609.9274,-257.9634 618.7406,-252.0831 608.184,-251.1839 609.9274,-257.9634"/>
</g>
<!-- 1793799654 -->
<g id="node7" class="node">
<title>1793799654</title>
<polygon fill="none" stroke="#000000" points="610.7564,-180 423.3715,-180 423.3715,-144 610.7564,-144 610.7564,-180"/>
<text text-anchor="middle" x="517.064" y="-157.8" font-family="Times,serif" font-size="14.00" fill="#000000">l4 = a1::summierListe([l3, l2])</text>
</g>
<!-- 210506412&#45;&gt;1793799654 -->
<g id="edge2" class="edge">
<title>210506412&#45;&gt;1793799654</title>
<path fill="none" stroke="#000000" d="M453.973,-287.9588C470.1436,-279.3465 487.0881,-267.4806 498.064,-252 510.7857,-234.057 515.3182,-209.3692 516.7908,-190.3883"/>
<polygon fill="#000000" stroke="#000000" points="520.2945,-190.4115 517.3351,-180.2384 513.3046,-190.0366 520.2945,-190.4115"/>
</g>
<!-- 1764696127 -->
<g id="node10" class="node">
<title>1764696127</title>
<polygon fill="none" stroke="#000000" points="321.9917,-180 262.1362,-180 262.1362,-144 321.9917,-144 321.9917,-180"/>
<text text-anchor="middle" x="292.064" y="-157.8" font-family="Times,serif" font-size="14.00" fill="#000000">store a1</text>
</g>
<!-- 210506412&#45;&gt;1764696127 -->
<g id="edge3" class="edge">
<title>210506412&#45;&gt;1764696127</title>
<path fill="none" stroke="#000000" d="M365.8153,-287.8982C349.4765,-279.1683 331.9743,-267.2351 320.064,-252 306.118,-234.1611 299.0676,-209.3117 295.5329,-190.2426"/>
<polygon fill="#000000" stroke="#000000" points="298.979,-189.6278 293.9094,-180.3245 292.0709,-190.7586 298.979,-189.6278"/>
</g>
<!-- 129153987 -->
<g id="node12" class="node">
<title>129153987</title>
<polygon fill="none" stroke="#000000" points="488.6534,-252 329.4746,-252 329.4746,-216 488.6534,-216 488.6534,-252"/>
<text text-anchor="middle" x="409.064" y="-229.8" font-family="Times,serif" font-size="14.00" fill="#000000">transmit a1&#45;&gt;Core_Client</text>
</g>
<!-- 210506412&#45;&gt;129153987 -->
<g id="edge4" class="edge">
<title>210506412&#45;&gt;129153987</title>
<path fill="none" stroke="#000000" d="M409.064,-287.8314C409.064,-280.131 409.064,-270.9743 409.064,-262.4166"/>
<polygon fill="#000000" stroke="#000000" points="412.5641,-262.4132 409.064,-252.4133 405.5641,-262.4133 412.5641,-262.4132"/>
</g>
<!-- 1427651360 -->
<g id="node15" class="node">
<title>1427651360</title>
<polygon fill="none" stroke="#000000" points="272.8533,-252 117.2746,-252 117.2746,-216 272.8533,-216 272.8533,-252"/>
<text text-anchor="middle" x="195.064" y="-229.8" font-family="Times,serif" font-size="14.00" fill="#000000">l3 = a1::addierListe([l1])</text>
</g>
<!-- 210506412&#45;&gt;1427651360 -->
<g id="edge5" class="edge">
<title>210506412&#45;&gt;1427651360</title>
<path fill="none" stroke="#000000" d="M355.339,-287.9243C325.9567,-278.0387 289.3788,-265.7321 258.5882,-255.3726"/>
<polygon fill="#000000" stroke="#000000" points="259.4051,-251.9548 248.8111,-252.0831 257.1729,-258.5893 259.4051,-251.9548"/>
</g>
<!-- 461160828 -->
<g id="node2" class="node">
<title>461160828</title>
<polygon fill="none" stroke="#000000" points="1006.8095,-396 937.3184,-396 937.3184,-360 1006.8095,-360 1006.8095,-396"/>
<text text-anchor="middle" x="972.064" y="-373.8" font-family="Times,serif" font-size="14.00" fill="#000000">accept n1</text>
</g>
<!-- 1740797075 -->
<g id="node11" class="node">
<title>1740797075</title>
<polygon fill="none" stroke="#000000" points="1104.8024,-324 839.3256,-324 839.3256,-288 1104.8024,-288 1104.8024,-324"/>
<text text-anchor="middle" x="972.064" y="-301.8" font-family="Times,serif" font-size="14.00" fill="#000000">cast n1 from Arr to demo.types.NummerList</text>
</g>
<!-- 461160828&#45;&gt;1740797075 -->
<g id="edge6" class="edge">
<title>461160828&#45;&gt;1740797075</title>
<path fill="none" stroke="#000000" d="M972.064,-359.8314C972.064,-352.131 972.064,-342.9743 972.064,-334.4166"/>
<polygon fill="#000000" stroke="#000000" points="975.5641,-334.4132 972.064,-324.4133 968.5641,-334.4133 975.5641,-334.4132"/>
</g>
<!-- 1325124186&#45;&gt;1793799654 -->
<g id="edge7" class="edge">
<title>1325124186&#45;&gt;1793799654</title>
<path fill="none" stroke="#000000" d="M645.6611,-215.8314C622.5549,-206.159 593.9601,-194.1891 569.6062,-183.9944"/>
<polygon fill="#000000" stroke="#000000" points="570.7306,-180.6709 560.1547,-180.038 568.0276,-187.128 570.7306,-180.6709"/>
</g>
<!-- 341796579 -->
<g id="node18" class="node">
<title>341796579</title>
<polygon fill="none" stroke="#000000" points="799.8288,-180 642.2991,-180 642.2991,-144 799.8288,-144 799.8288,-180"/>
<text text-anchor="middle" x="721.064" y="-157.8" font-family="Times,serif" font-size="14.00" fill="#000000">transmit l2&#45;&gt;Core_Client</text>
</g>
<!-- 1325124186&#45;&gt;341796579 -->
<g id="edge8" class="edge">
<title>1325124186&#45;&gt;341796579</title>
<path fill="none" stroke="#000000" d="M697.1389,-215.8314C700.6741,-207.8771 704.9,-198.369 708.8096,-189.5723"/>
<polygon fill="#000000" stroke="#000000" points="712.0172,-190.9729 712.8803,-180.4133 705.6205,-188.1299 712.0172,-190.9729"/>
</g>
<!-- 1162918744 -->
<g id="node4" class="node">
<title>1162918744</title>
<polygon fill="none" stroke="#000000" points="463.8681,-396 354.2598,-396 354.2598,-360 463.8681,-360 463.8681,-396"/>
<text text-anchor="middle" x="409.064" y="-373.8" font-family="Times,serif" font-size="14.00" fill="#000000">parse Number: 5</text>
</g>
<!-- 1162918744&#45;&gt;210506412 -->
<g id="edge9" class="edge">
<title>1162918744&#45;&gt;210506412</title>
<path fill="none" stroke="#000000" d="M409.064,-359.8314C409.064,-352.131 409.064,-342.9743 409.064,-334.4166"/>
<polygon fill="#000000" stroke="#000000" points="412.5641,-334.4132 409.064,-324.4133 405.5641,-334.4133 412.5641,-334.4132"/>
</g>
<!-- 1954406292 -->
<g id="node5" class="node">
<title>1954406292</title>
<polygon fill="none" stroke="#000000" points="821.8024,-324 556.3256,-324 556.3256,-288 821.8024,-288 821.8024,-324"/>
<text text-anchor="middle" x="689.064" y="-301.8" font-family="Times,serif" font-size="14.00" fill="#000000">cast n2 from Arr to demo.types.NummerList</text>
</g>
<!-- 1954406292&#45;&gt;1325124186 -->
<g id="edge10" class="edge">
<title>1954406292&#45;&gt;1325124186</title>
<path fill="none" stroke="#000000" d="M689.064,-287.8314C689.064,-280.131 689.064,-270.9743 689.064,-262.4166"/>
<polygon fill="#000000" stroke="#000000" points="692.5641,-262.4132 689.064,-252.4133 685.5641,-262.4133 692.5641,-262.4132"/>
</g>
<!-- 1334042472 -->
<g id="node6" class="node">
<title>1334042472</title>
<polygon fill="none" stroke="#000000" points="164.1989,-396 97.9291,-396 97.9291,-360 164.1989,-360 164.1989,-396"/>
<text text-anchor="middle" x="131.064" y="-373.8" font-family="Times,serif" font-size="14.00" fill="#000000">accept l1</text>
</g>
<!-- 319644606 -->
<g id="node13" class="node">
<title>319644606</title>
<polygon fill="none" stroke="#000000" points="262.1919,-324 -.064,-324 -.064,-288 262.1919,-288 262.1919,-324"/>
<text text-anchor="middle" x="131.064" y="-301.8" font-family="Times,serif" font-size="14.00" fill="#000000">cast l1 from Arr to demo.types.NummerList</text>
</g>
<!-- 1334042472&#45;&gt;319644606 -->
<g id="edge11" class="edge">
<title>1334042472&#45;&gt;319644606</title>
<path fill="none" stroke="#000000" d="M131.064,-359.8314C131.064,-352.131 131.064,-342.9743 131.064,-334.4166"/>
<polygon fill="#000000" stroke="#000000" points="134.5641,-334.4132 131.064,-324.4133 127.5641,-334.4133 134.5641,-334.4132"/>
</g>
<!-- 1661123505 -->
<g id="node14" class="node">
<title>1661123505</title>
<polygon fill="none" stroke="#000000" points="535.8288,-108 378.2991,-108 378.2991,-72 535.8288,-72 535.8288,-108"/>
<text text-anchor="middle" x="457.064" y="-85.8" font-family="Times,serif" font-size="14.00" fill="#000000">transmit l4&#45;&gt;Core_Client</text>
</g>
<!-- 1793799654&#45;&gt;1661123505 -->
<g id="edge12" class="edge">
<title>1793799654&#45;&gt;1661123505</title>
<path fill="none" stroke="#000000" d="M501.9234,-143.8314C494.9423,-135.454 486.5249,-125.3531 478.8764,-116.1749"/>
<polygon fill="#000000" stroke="#000000" points="481.499,-113.8548 472.4084,-108.4133 476.1215,-118.3362 481.499,-113.8548"/>
</g>
<!-- 1008315045 -->
<g id="node17" class="node">
<title>1008315045</title>
<polygon fill="none" stroke="#000000" points="706.9257,-108 553.2022,-108 553.2022,-72 706.9257,-72 706.9257,-108"/>
<text text-anchor="middle" x="630.064" y="-85.8" font-family="Times,serif" font-size="14.00" fill="#000000">transmit l4&#45;&gt;Executor_2</text>
</g>
<!-- 1793799654&#45;&gt;1008315045 -->
<g id="edge13" class="edge">
<title>1793799654&#45;&gt;1008315045</title>
<path fill="none" stroke="#000000" d="M545.5786,-143.8314C559.8982,-134.7074 577.4263,-123.539 592.7977,-113.7449"/>
<polygon fill="#000000" stroke="#000000" points="595.0056,-116.4882 601.5584,-108.1628 591.2441,-110.5847 595.0056,-116.4882"/>
</g>
<!-- 1164107853 -->
<g id="node8" class="node">
<title>1164107853</title>
<polygon fill="none" stroke="#000000" points="280.8288,-108 123.2991,-108 123.2991,-72 280.8288,-72 280.8288,-108"/>
<text text-anchor="middle" x="202.064" y="-85.8" font-family="Times,serif" font-size="14.00" fill="#000000">transmit l3&#45;&gt;Core_Client</text>
</g>
<!-- 1427381743 -->
<g id="node16" class="node">
<title>1427381743</title>
<polygon fill="none" stroke="#000000" points="511.0508,-36 295.0771,-36 295.0771,0 511.0508,0 511.0508,-36"/>
<text text-anchor="middle" x="403.064" y="-13.8" font-family="Times,serif" font-size="14.00" fill="#000000">FinishNode &amp;finished&amp;Executor_1</text>
</g>
<!-- 1164107853&#45;&gt;1427381743 -->
<g id="edge14" class="edge">
<title>1164107853&#45;&gt;1427381743</title>
<path fill="none" stroke="#000000" d="M252.5253,-71.9243C280.0032,-62.0815 314.1812,-49.8386 343.0228,-39.5073"/>
<polygon fill="#000000" stroke="#000000" points="344.3479,-42.7505 352.5819,-36.0831 341.9873,-36.1605 344.3479,-42.7505"/>
</g>
<!-- 1922464006 -->
<g id="node9" class="node">
<title>1922464006</title>
<polygon fill="none" stroke="#000000" points="723.8095,-396 654.3184,-396 654.3184,-360 723.8095,-360 723.8095,-396"/>
<text text-anchor="middle" x="689.064" y="-373.8" font-family="Times,serif" font-size="14.00" fill="#000000">accept n2</text>
</g>
<!-- 1922464006&#45;&gt;1954406292 -->
<g id="edge15" class="edge">
<title>1922464006&#45;&gt;1954406292</title>
<path fill="none" stroke="#000000" d="M689.064,-359.8314C689.064,-352.131 689.064,-342.9743 689.064,-334.4166"/>
<polygon fill="#000000" stroke="#000000" points="692.5641,-334.4132 689.064,-324.4133 685.5641,-334.4133 692.5641,-334.4132"/>
</g>
<!-- 1764696127&#45;&gt;1427381743 -->
<g id="edge16" class="edge">
<title>1764696127&#45;&gt;1427381743</title>
<path fill="none" stroke="#000000" d="M298.264,-143.7698C305.3774,-124.5861 318.38,-94.1579 336.064,-72 344.8268,-61.0202 356.1917,-50.8208 367.0649,-42.31"/>
<polygon fill="#000000" stroke="#000000" points="369.359,-44.9636 375.2325,-36.1459 365.1422,-39.3762 369.359,-44.9636"/>
</g>
<!-- 1740797075&#45;&gt;1325124186 -->
<g id="edge17" class="edge">
<title>1740797075&#45;&gt;1325124186</title>
<path fill="none" stroke="#000000" d="M901.0164,-287.9243C861.1512,-277.7819 811.2695,-265.0912 769.9133,-254.5694"/>
<polygon fill="#000000" stroke="#000000" points="770.695,-251.1569 760.1408,-252.0831 768.969,-257.9408 770.695,-251.1569"/>
</g>
<!-- 129153987&#45;&gt;1427381743 -->
<g id="edge18" class="edge">
<title>129153987&#45;&gt;1427381743</title>
<path fill="none" stroke="#000000" d="M398.3761,-215.8991C382.009,-185.8308 354.1232,-123.7708 369.064,-72 371.8161,-62.4635 376.8063,-52.9881 382.131,-44.6989"/>
<polygon fill="#000000" stroke="#000000" points="385.1754,-46.4483 387.9499,-36.2232 379.4045,-42.4863 385.1754,-46.4483"/>
</g>
<!-- 319644606&#45;&gt;1427651360 -->
<g id="edge19" class="edge">
<title>319644606&#45;&gt;1427651360</title>
<path fill="none" stroke="#000000" d="M147.2139,-287.8314C154.7356,-279.3694 163.8205,-269.1489 172.0443,-259.8971"/>
<polygon fill="#000000" stroke="#000000" points="174.6689,-262.2127 178.6966,-252.4133 169.437,-257.5621 174.6689,-262.2127"/>
</g>
<!-- 1661123505&#45;&gt;1427381743 -->
<g id="edge20" class="edge">
<title>1661123505&#45;&gt;1427381743</title>
<path fill="none" stroke="#000000" d="M443.4375,-71.8314C437.2179,-63.5386 429.7317,-53.557 422.904,-44.4533"/>
<polygon fill="#000000" stroke="#000000" points="425.674,-42.3133 416.8739,-36.4133 420.0739,-46.5133 425.674,-42.3133"/>
</g>
<!-- 1427651360&#45;&gt;1793799654 -->
<g id="edge21" class="edge">
<title>1427651360&#45;&gt;1793799654</title>
<path fill="none" stroke="#000000" d="M273.0112,-216.5708C319.3298,-206.2139 378.2776,-193.033 426.6356,-182.22"/>
<polygon fill="#000000" stroke="#000000" points="427.4766,-185.6185 436.4719,-180.0206 425.9491,-178.7872 427.4766,-185.6185"/>
</g>
<!-- 1427651360&#45;&gt;1164107853 -->
<g id="edge22" class="edge">
<title>1427651360&#45;&gt;1164107853</title>
<path fill="none" stroke="#000000" d="M195.9505,-215.7623C197.1445,-191.201 199.2811,-147.2474 200.6856,-118.3541"/>
<polygon fill="#000000" stroke="#000000" points="204.1949,-118.2478 201.1846,-108.0896 197.2031,-117.9079 204.1949,-118.2478"/>
</g>
<!-- 1008315045&#45;&gt;1427381743 -->
<g id="edge23" class="edge">
<title>1008315045&#45;&gt;1427381743</title>
<path fill="none" stroke="#000000" d="M573.0753,-71.9243C541.7732,-61.9959 502.7721,-49.6255 470.0233,-39.2382"/>
<polygon fill="#000000" stroke="#000000" points="470.6663,-35.7704 460.0761,-36.0831 468.5499,-42.4428 470.6663,-35.7704"/>
</g>
<!-- 341796579&#45;&gt;1427381743 -->
<g id="edge24" class="edge">
<title>341796579&#45;&gt;1427381743</title>
<path fill="none" stroke="#000000" d="M726.0516,-143.6426C730.316,-123.481 733.3435,-91.3971 716.064,-72 690.3506,-43.1355 598.9183,-29.6905 521.4652,-23.4332"/>
<polygon fill="#000000" stroke="#000000" points="521.3648,-19.915 511.1245,-22.6331 520.8247,-26.8942 521.3648,-19.915"/>
</g>
</g>
</svg>
