<?xml version="1.0" encoding="UTF-8" standalone="no"?>
<!DOCTYPE svg PUBLIC "-//W3C//DTD SVG 1.1//EN"
 "http://www.w3.org/Graphics/SVG/1.1/DTD/svg11.dtd">
<!-- Generated by graphviz version 2.40.1 (20161225.0304)
 -->
<!-- Title: %3 Pages: 1 -->
<svg width="516pt" height="292pt"
 viewBox="0.00 0.00 516.00 292.00" xmlns="http://www.w3.org/2000/svg" xmlns:xlink="http://www.w3.org/1999/xlink">
<g id="graph0" class="graph" transform="scale(1 1) rotate(0) translate(4 288)">
<title>%3</title>
<polygon fill="#ffffff" stroke="transparent" points="-4,4 -4,-288 512,-288 512,4 -4,4"/>
<g id="clust1" class="cluster">
<title>cluster_Core_Client_Services</title>
<polygon fill="none" stroke="#000000" points="8,-8 8,-276 500,-276 500,-8 8,-8"/>
</g>
<!-- Core_Client_Services -->
<g id="node1" class="node">
<title>Core_Client_Services</title>
<polygon fill="none" stroke="#ffa500" stroke-width="2" points="492.346,-255.5623 384,-268 275.654,-255.5623 275.7552,-235.4377 492.2448,-235.4377 492.346,-255.5623"/>
<text text-anchor="middle" x="384" y="-245.8" font-family="Times,serif" font-size="14.00" fill="#000000">Core_Client_Services</text>
</g>
<!-- 1202683709 -->
<g id="node2" class="node">
<title>1202683709</title>
<polygon fill="none" stroke="#000000" points="257.9658,-268 144.0342,-268 144.0342,-232 257.9658,-232 257.9658,-268"/>
<text text-anchor="middle" x="201" y="-245.8" font-family="Times,serif" font-size="14.00" fill="#000000">parse Number: &#45;1</text>
</g>
<!-- 1021436681 -->
<g id="node6" class="node">
<title>1021436681</title>
<polygon fill="none" stroke="#000000" points="442.6172,-196 143.3828,-196 143.3828,-160 442.6172,-160 442.6172,-196"/>
<text text-anchor="middle" x="293" y="-173.8" font-family="Times,serif" font-size="14.00" fill="#000000">gerade1 = demo.math.Gerade::__construct([2, &#45;1])</text>
</g>
<!-- 1202683709&#45;&gt;1021436681 -->
<g id="edge1" class="edge">
<title>1202683709&#45;&gt;1021436681</title>
<path fill="none" stroke="#000000" d="M224.2155,-231.8314C235.547,-222.9632 249.3464,-212.1637 261.6027,-202.5718"/>
<polygon fill="#000000" stroke="#000000" points="264.074,-205.0822 269.7919,-196.1628 259.7598,-199.5697 264.074,-205.0822"/>
</g>
<!-- 22600334 -->
<g id="node3" class="node">
<title>22600334</title>
<polygon fill="none" stroke="#000000" points="125.8041,-268 16.1959,-268 16.1959,-232 125.8041,-232 125.8041,-268"/>
<text text-anchor="middle" x="71" y="-245.8" font-family="Times,serif" font-size="14.00" fill="#000000">parse Number: 2</text>
</g>
<!-- 22600334&#45;&gt;1021436681 -->
<g id="edge2" class="edge">
<title>22600334&#45;&gt;1021436681</title>
<path fill="none" stroke="#000000" d="M125.8764,-232.2022C156.596,-222.2391 195.0983,-209.7519 227.4021,-199.275"/>
<polygon fill="#000000" stroke="#000000" points="228.7804,-202.5075 237.2129,-196.0931 226.6209,-195.849 228.7804,-202.5075"/>
</g>
<!-- 1002021887 -->
<g id="node4" class="node">
<title>1002021887</title>
<polygon fill="none" stroke="#000000" points="258.1583,-124 119.8417,-124 119.8417,-88 258.1583,-88 258.1583,-124"/>
<text text-anchor="middle" x="189" y="-101.8" font-family="Times,serif" font-size="14.00" fill="#000000">p = gerade1::calc([1])</text>
</g>
<!-- 1766505436 -->
<g id="node5" class="node">
<title>1766505436</title>
<polygon fill="none" stroke="#000000" points="234.5176,-52 143.4824,-52 143.4824,-16 234.5176,-16 234.5176,-52"/>
<text text-anchor="middle" x="189" y="-29.8" font-family="Times,serif" font-size="14.00" fill="#000000">store gerade1</text>
</g>
<!-- 1002021887&#45;&gt;1766505436 -->
<g id="edge3" class="edge">
<title>1002021887&#45;&gt;1766505436</title>
<path fill="none" stroke="#000000" d="M189,-87.8314C189,-80.131 189,-70.9743 189,-62.4166"/>
<polygon fill="#000000" stroke="#000000" points="192.5001,-62.4132 189,-52.4133 185.5001,-62.4133 192.5001,-62.4132"/>
</g>
<!-- 1021436681&#45;&gt;1002021887 -->
<g id="edge4" class="edge">
<title>1021436681&#45;&gt;1002021887</title>
<path fill="none" stroke="#000000" d="M266.7564,-159.8314C253.7005,-150.7927 237.7465,-139.7476 223.6953,-130.0198"/>
<polygon fill="#000000" stroke="#000000" points="225.4494,-126.9773 215.2352,-124.1628 221.4649,-132.7326 225.4494,-126.9773"/>
</g>
<!-- 1525919705 -->
<g id="node7" class="node">
<title>1525919705</title>
<polygon fill="none" stroke="#000000" points="125.8041,-196 16.1959,-196 16.1959,-160 125.8041,-160 125.8041,-196"/>
<text text-anchor="middle" x="71" y="-173.8" font-family="Times,serif" font-size="14.00" fill="#000000">parse Number: 1</text>
</g>
<!-- 1525919705&#45;&gt;1002021887 -->
<g id="edge5" class="edge">
<title>1525919705&#45;&gt;1002021887</title>
<path fill="none" stroke="#000000" d="M100.7764,-159.8314C115.8693,-150.6221 134.3757,-139.3301 150.5343,-129.4706"/>
<polygon fill="#000000" stroke="#000000" points="152.5198,-132.3593 159.2331,-124.1628 148.8737,-126.3838 152.5198,-132.3593"/>
</g>
</g>
</svg>
