<?xml version="1.0" encoding="UTF-8" standalone="no"?>
<!DOCTYPE svg PUBLIC "-//W3C//DTD SVG 1.1//EN"
 "http://www.w3.org/Graphics/SVG/1.1/DTD/svg11.dtd">
<!-- Generated by graphviz version 2.40.1 (20161225.0304)
 -->
<!-- Title: %3 Pages: 1 -->
<svg width="467pt" height="292pt"
 viewBox="0.00 0.00 467.00 292.00" xmlns="http://www.w3.org/2000/svg" xmlns:xlink="http://www.w3.org/1999/xlink">
<g id="graph0" class="graph" transform="scale(1 1) rotate(0) translate(4 288)">
<title>%3</title>
<polygon fill="#ffffff" stroke="transparent" points="-4,4 -4,-288 463,-288 463,4 -4,4"/>
<g id="clust1" class="cluster">
<title>cluster_Core Client</title>
<polygon fill="none" stroke="#000000" points="8,-8 8,-276 451,-276 451,-8 8,-8"/>
</g>
<!-- Core Client -->
<g id="node1" class="node">
<title>Core Client</title>
<polygon fill="none" stroke="#ffa500" stroke-width="2" points="443.3872,-255.5623 380,-268 316.6128,-255.5623 316.672,-235.4377 443.328,-235.4377 443.3872,-255.5623"/>
<text text-anchor="middle" x="380" y="-245.8" font-family="Times,serif" font-size="14.00" fill="#000000">Core Client</text>
</g>
<!-- 1754894440 -->
<g id="node2" class="node">
<title>1754894440</title>
<polygon fill="none" stroke="#000000" points="298.9658,-268 185.0342,-268 185.0342,-232 298.9658,-232 298.9658,-268"/>
<text text-anchor="middle" x="242" y="-245.8" font-family="Times,serif" font-size="14.00" fill="#000000">parse Number: &#45;1</text>
</g>
<!-- 318857719 -->
<g id="node5" class="node">
<title>318857719</title>
<polygon fill="none" stroke="#000000" points="442.6172,-196 143.3828,-196 143.3828,-160 442.6172,-160 442.6172,-196"/>
<text text-anchor="middle" x="293" y="-173.8" font-family="Times,serif" font-size="14.00" fill="#000000">gerade1 = demo.math.Gerade::__construct([2, &#45;1])</text>
</g>
<!-- 1754894440&#45;&gt;318857719 -->
<g id="edge1" class="edge">
<title>1754894440&#45;&gt;318857719</title>
<path fill="none" stroke="#000000" d="M254.8695,-231.8314C260.6835,-223.6232 267.6696,-213.7606 274.0646,-204.7323"/>
<polygon fill="#000000" stroke="#000000" points="277.0331,-206.5966 279.9573,-196.4133 271.321,-202.5505 277.0331,-206.5966"/>
</g>
<!-- 1637290981 -->
<g id="node3" class="node">
<title>1637290981</title>
<polygon fill="none" stroke="#000000" points="166.8041,-268 57.1959,-268 57.1959,-232 166.8041,-232 166.8041,-268"/>
<text text-anchor="middle" x="112" y="-245.8" font-family="Times,serif" font-size="14.00" fill="#000000">parse Number: 2</text>
</g>
<!-- 1637290981&#45;&gt;318857719 -->
<g id="edge2" class="edge">
<title>1637290981&#45;&gt;318857719</title>
<path fill="none" stroke="#000000" d="M157.6739,-231.8314C182.0968,-222.1162 212.3466,-210.0831 238.0484,-199.8592"/>
<polygon fill="#000000" stroke="#000000" points="239.6563,-202.9864 247.6545,-196.038 237.069,-196.4821 239.6563,-202.9864"/>
</g>
<!-- 384587033 -->
<g id="node4" class="node">
<title>384587033</title>
<polygon fill="none" stroke="#000000" points="234.5176,-52 143.4824,-52 143.4824,-16 234.5176,-16 234.5176,-52"/>
<text text-anchor="middle" x="189" y="-29.8" font-family="Times,serif" font-size="14.00" fill="#000000">store gerade1</text>
</g>
<!-- 787738361 -->
<g id="node6" class="node">
<title>787738361</title>
<polygon fill="none" stroke="#000000" points="258.1583,-124 119.8417,-124 119.8417,-88 258.1583,-88 258.1583,-124"/>
<text text-anchor="middle" x="189" y="-101.8" font-family="Times,serif" font-size="14.00" fill="#000000">p = gerade1::calc([1])</text>
</g>
<!-- 318857719&#45;&gt;787738361 -->
<g id="edge3" class="edge">
<title>318857719&#45;&gt;787738361</title>
<path fill="none" stroke="#000000" d="M266.7564,-159.8314C253.7005,-150.7927 237.7465,-139.7476 223.6953,-130.0198"/>
<polygon fill="#000000" stroke="#000000" points="225.4494,-126.9773 215.2352,-124.1628 221.4649,-132.7326 225.4494,-126.9773"/>
</g>
<!-- 787738361&#45;&gt;384587033 -->
<g id="edge4" class="edge">
<title>787738361&#45;&gt;384587033</title>
<path fill="none" stroke="#000000" d="M189,-87.8314C189,-80.131 189,-70.9743 189,-62.4166"/>
<polygon fill="#000000" stroke="#000000" points="192.5001,-62.4132 189,-52.4133 185.5001,-62.4133 192.5001,-62.4132"/>
</g>
<!-- 168366 -->
<g id="node7" class="node">
<title>168366</title>
<polygon fill="none" stroke="#000000" points="125.8041,-196 16.1959,-196 16.1959,-160 125.8041,-160 125.8041,-196"/>
<text text-anchor="middle" x="71" y="-173.8" font-family="Times,serif" font-size="14.00" fill="#000000">parse Number: 1</text>
</g>
<!-- 168366&#45;&gt;787738361 -->
<g id="edge5" class="edge">
<title>168366&#45;&gt;787738361</title>
<path fill="none" stroke="#000000" d="M100.7764,-159.8314C115.8693,-150.6221 134.3757,-139.3301 150.5343,-129.4706"/>
<polygon fill="#000000" stroke="#000000" points="152.5198,-132.3593 159.2331,-124.1628 148.8737,-126.3838 152.5198,-132.3593"/>
</g>
</g>
</svg>
