<?xml version="1.0" encoding="UTF-8" standalone="no"?>
<!DOCTYPE svg PUBLIC "-//W3C//DTD SVG 1.1//EN"
 "http://www.w3.org/Graphics/SVG/1.1/DTD/svg11.dtd">
<!-- Generated by graphviz version 2.40.1 (20161225.0304)
 -->
<!-- Title: %3 Pages: 1 -->
<svg width="467pt" height="220pt"
 viewBox="0.00 0.00 467.00 220.00" xmlns="http://www.w3.org/2000/svg" xmlns:xlink="http://www.w3.org/1999/xlink">
<g id="graph0" class="graph" transform="scale(1 1) rotate(0) translate(4 216)">
<title>%3</title>
<polygon fill="#ffffff" stroke="transparent" points="-4,4 -4,-216 463,-216 463,4 -4,4"/>
<g id="clust1" class="cluster">
<title>cluster_Core Client</title>
<polygon fill="none" stroke="#000000" points="8,-8 8,-204 451,-204 451,-8 8,-8"/>
</g>
<!-- Core Client -->
<g id="node1" class="node">
<title>Core Client</title>
<polygon fill="none" stroke="#ffa500" stroke-width="2" points="432.3872,-183.5623 369,-196 305.6128,-183.5623 305.672,-163.4377 432.328,-163.4377 432.3872,-183.5623"/>
<text text-anchor="middle" x="369" y="-173.8" font-family="Times,serif" font-size="14.00" fill="#000000">Core Client</text>
</g>
<!-- 802600647 -->
<g id="node2" class="node">
<title>802600647</title>
<polygon fill="none" stroke="#000000" points="442.8041,-124 333.1959,-124 333.1959,-88 442.8041,-88 442.8041,-124"/>
<text text-anchor="middle" x="388" y="-101.8" font-family="Times,serif" font-size="14.00" fill="#000000">parse Number: 1</text>
</g>
<!-- 671467883 -->
<g id="node7" class="node">
<title>671467883</title>
<polygon fill="none" stroke="#000000" points="405.1583,-52 266.8417,-52 266.8417,-16 405.1583,-16 405.1583,-52"/>
<text text-anchor="middle" x="336" y="-29.8" font-family="Times,serif" font-size="14.00" fill="#000000">p = gerade1::calc([1])</text>
</g>
<!-- 802600647&#45;&gt;671467883 -->
<g id="edge1" class="edge">
<title>802600647&#45;&gt;671467883</title>
<path fill="none" stroke="#000000" d="M374.8782,-87.8314C368.9501,-79.6232 361.8271,-69.7606 355.3067,-60.7323"/>
<polygon fill="#000000" stroke="#000000" points="357.9908,-58.4708 349.2985,-52.4133 352.316,-62.5693 357.9908,-58.4708"/>
</g>
<!-- 2131952342 -->
<g id="node3" class="node">
<title>2131952342</title>
<polygon fill="none" stroke="#000000" points="277.8041,-196 168.1959,-196 168.1959,-160 277.8041,-160 277.8041,-196"/>
<text text-anchor="middle" x="223" y="-173.8" font-family="Times,serif" font-size="14.00" fill="#000000">parse Number: 2</text>
</g>
<!-- 1989335500 -->
<g id="node6" class="node">
<title>1989335500</title>
<polygon fill="none" stroke="#000000" points="315.6172,-124 16.3828,-124 16.3828,-88 315.6172,-88 315.6172,-124"/>
<text text-anchor="middle" x="166" y="-101.8" font-family="Times,serif" font-size="14.00" fill="#000000">gerade1 = demo.math.Gerade::__construct([2, &#45;2])</text>
</g>
<!-- 2131952342&#45;&gt;1989335500 -->
<g id="edge2" class="edge">
<title>2131952342&#45;&gt;1989335500</title>
<path fill="none" stroke="#000000" d="M208.6165,-159.8314C202.0514,-151.5386 194.1493,-141.557 186.9422,-132.4533"/>
<polygon fill="#000000" stroke="#000000" points="189.5284,-130.0813 180.5772,-124.4133 184.0401,-134.4262 189.5284,-130.0813"/>
</g>
<!-- 1571967156 -->
<g id="node4" class="node">
<title>1571967156</title>
<polygon fill="none" stroke="#000000" points="211.5176,-52 120.4824,-52 120.4824,-16 211.5176,-16 211.5176,-52"/>
<text text-anchor="middle" x="166" y="-29.8" font-family="Times,serif" font-size="14.00" fill="#000000">store gerade1</text>
</g>
<!-- 592617454 -->
<g id="node5" class="node">
<title>592617454</title>
<polygon fill="none" stroke="#000000" points="149.9658,-196 36.0342,-196 36.0342,-160 149.9658,-160 149.9658,-196"/>
<text text-anchor="middle" x="93" y="-173.8" font-family="Times,serif" font-size="14.00" fill="#000000">parse Number: &#45;2</text>
</g>
<!-- 592617454&#45;&gt;1989335500 -->
<g id="edge3" class="edge">
<title>592617454&#45;&gt;1989335500</title>
<path fill="none" stroke="#000000" d="M111.421,-159.8314C120.1529,-151.219 130.7317,-140.7851 140.2423,-131.4048"/>
<polygon fill="#000000" stroke="#000000" points="142.923,-133.6769 147.5849,-124.1628 138.0075,-128.6931 142.923,-133.6769"/>
</g>
<!-- 1989335500&#45;&gt;1571967156 -->
<g id="edge4" class="edge">
<title>1989335500&#45;&gt;1571967156</title>
<path fill="none" stroke="#000000" d="M166,-87.8314C166,-80.131 166,-70.9743 166,-62.4166"/>
<polygon fill="#000000" stroke="#000000" points="169.5001,-62.4132 166,-52.4133 162.5001,-62.4133 169.5001,-62.4132"/>
</g>
<!-- 1989335500&#45;&gt;671467883 -->
<g id="edge5" class="edge">
<title>1989335500&#45;&gt;671467883</title>
<path fill="none" stroke="#000000" d="M208.8982,-87.8314C231.7357,-78.159 259.998,-66.1891 284.0687,-55.9944"/>
<polygon fill="#000000" stroke="#000000" points="285.5671,-59.1608 293.4103,-52.038 282.8371,-52.7151 285.5671,-59.1608"/>
</g>
</g>
</svg>
