<?xml version="1.0" encoding="UTF-8" standalone="no"?>
<!DOCTYPE svg PUBLIC "-//W3C//DTD SVG 1.1//EN"
 "http://www.w3.org/Graphics/SVG/1.1/DTD/svg11.dtd">
<!-- Generated by graphviz version 2.40.1 (20161225.0304)
 -->
<!-- Title: %3 Pages: 1 -->
<svg width="434pt" height="260pt"
 viewBox="0.00 0.00 434.21 260.00" xmlns="http://www.w3.org/2000/svg" xmlns:xlink="http://www.w3.org/1999/xlink">
<g id="graph0" class="graph" transform="scale(1 1) rotate(0) translate(4 256)">
<title>%3</title>
<polygon fill="#ffffff" stroke="transparent" points="-4,4 -4,-256 430.2104,-256 430.2104,4 -4,4"/>
<!-- 1202683709 -->
<g id="node1" class="node">
<title>1202683709</title>
<polygon fill="none" stroke="#000000" points="141.5244,-252 27.5928,-252 27.5928,-216 141.5244,-216 141.5244,-252"/>
<text text-anchor="middle" x="84.5586" y="-229.8" font-family="Times,serif" font-size="14.00" fill="#000000">parse Number: &#45;1</text>
</g>
<!-- 1021436681 -->
<g id="node5" class="node">
<title>1021436681</title>
<polygon fill="none" stroke="#000000" points="299.1758,-180 -.0586,-180 -.0586,-144 299.1758,-144 299.1758,-180"/>
<text text-anchor="middle" x="149.5586" y="-157.8" font-family="Times,serif" font-size="14.00" fill="#000000">gerade1 = demo.math.Gerade::__construct([2, &#45;1])</text>
</g>
<!-- 1202683709&#45;&gt;1021436681 -->
<g id="edge1" class="edge">
<title>1202683709&#45;&gt;1021436681</title>
<path fill="none" stroke="#000000" d="M100.9608,-215.8314C108.6001,-207.3694 117.8269,-197.1489 126.1793,-187.8971"/>
<polygon fill="#000000" stroke="#000000" points="128.8324,-190.1813 132.9355,-180.4133 123.6365,-185.4906 128.8324,-190.1813"/>
</g>
<!-- 22600334 -->
<g id="node2" class="node">
<title>22600334</title>
<polygon fill="none" stroke="#000000" points="269.3627,-252 159.7545,-252 159.7545,-216 269.3627,-216 269.3627,-252"/>
<text text-anchor="middle" x="214.5586" y="-229.8" font-family="Times,serif" font-size="14.00" fill="#000000">parse Number: 2</text>
</g>
<!-- 22600334&#45;&gt;1021436681 -->
<g id="edge2" class="edge">
<title>22600334&#45;&gt;1021436681</title>
<path fill="none" stroke="#000000" d="M198.1563,-215.8314C190.5171,-207.3694 181.2902,-197.1489 172.9379,-187.8971"/>
<polygon fill="#000000" stroke="#000000" points="175.4807,-185.4906 166.1817,-180.4133 170.2848,-190.1813 175.4807,-185.4906"/>
</g>
<!-- 1002021887 -->
<g id="node3" class="node">
<title>1002021887</title>
<polygon fill="none" stroke="#000000" points="329.7169,-108 191.4003,-108 191.4003,-72 329.7169,-72 329.7169,-108"/>
<text text-anchor="middle" x="260.5586" y="-85.8" font-family="Times,serif" font-size="14.00" fill="#000000">p = gerade1::calc([1])</text>
</g>
<!-- 1766505436 -->
<g id="node4" class="node">
<title>1766505436</title>
<polygon fill="none" stroke="#000000" points="306.0762,-36 215.041,-36 215.041,0 306.0762,0 306.0762,-36"/>
<text text-anchor="middle" x="260.5586" y="-13.8" font-family="Times,serif" font-size="14.00" fill="#000000">store gerade1</text>
</g>
<!-- 1002021887&#45;&gt;1766505436 -->
<g id="edge3" class="edge">
<title>1002021887&#45;&gt;1766505436</title>
<path fill="none" stroke="#000000" d="M260.5586,-71.8314C260.5586,-64.131 260.5586,-54.9743 260.5586,-46.4166"/>
<polygon fill="#000000" stroke="#000000" points="264.0587,-46.4132 260.5586,-36.4133 257.0587,-46.4133 264.0587,-46.4132"/>
</g>
<!-- 1021436681&#45;&gt;1002021887 -->
<g id="edge4" class="edge">
<title>1021436681&#45;&gt;1002021887</title>
<path fill="none" stroke="#000000" d="M177.5686,-143.8314C191.6347,-134.7074 208.8526,-123.539 223.9519,-113.7449"/>
<polygon fill="#000000" stroke="#000000" points="226.0726,-116.5412 232.5576,-108.1628 222.2633,-110.6684 226.0726,-116.5412"/>
</g>
<!-- 1525919705 -->
<g id="node6" class="node">
<title>1525919705</title>
<polygon fill="none" stroke="#000000" points="426.3627,-180 316.7545,-180 316.7545,-144 426.3627,-144 426.3627,-180"/>
<text text-anchor="middle" x="371.5586" y="-157.8" font-family="Times,serif" font-size="14.00" fill="#000000">parse Number: 1</text>
</g>
<!-- 1525919705&#45;&gt;1002021887 -->
<g id="edge5" class="edge">
<title>1525919705&#45;&gt;1002021887</title>
<path fill="none" stroke="#000000" d="M343.5486,-143.8314C329.4825,-134.7074 312.2646,-123.539 297.1652,-113.7449"/>
<polygon fill="#000000" stroke="#000000" points="298.8539,-110.6684 288.5596,-108.1628 295.0446,-116.5412 298.8539,-110.6684"/>
</g>
</g>
</svg>
