<?xml version="1.0" encoding="UTF-8" standalone="no"?>
<!DOCTYPE svg PUBLIC "-//W3C//DTD SVG 1.1//EN"
 "http://www.w3.org/Graphics/SVG/1.1/DTD/svg11.dtd">
<!-- Generated by graphviz version 2.40.1 (20161225.0304)
 -->
<!-- Title: %3 Pages: 1 -->
<svg width="487pt" height="44pt"
 viewBox="0.00 0.00 486.72 44.00" xmlns="http://www.w3.org/2000/svg" xmlns:xlink="http://www.w3.org/1999/xlink">
<g id="graph0" class="graph" transform="scale(1 1) rotate(0) translate(4 40)">
<title>%3</title>
<polygon fill="#ffffff" stroke="transparent" points="-4,4 -4,-40 482.7212,-40 482.7212,4 -4,4"/>
<!-- 1534745514 -->
<g id="node1" class="node">
<title>1534745514</title>
<polygon fill="none" stroke="#000000" points="185.8404,-36 .0532,-36 .0532,0 185.8404,0 185.8404,-36"/>
<text text-anchor="middle" x="92.9468" y="-13.8" font-family="Times,serif" font-size="14.00" fill="#000000">accept &amp;finished&amp;Executor_2</text>
</g>
<!-- 922511709 -->
<g id="node2" class="node">
<title>922511709</title>
<polygon fill="none" stroke="#000000" points="266.1924,-36 203.7012,-36 203.7012,0 266.1924,0 266.1924,-36"/>
<text text-anchor="middle" x="234.9468" y="-13.8" font-family="Times,serif" font-size="14.00" fill="#000000">accept p</text>
</g>
<!-- 2003496028 -->
<g id="node3" class="node">
<title>2003496028</title>
<polygon fill="none" stroke="#000000" points="361.4849,-36 284.4087,-36 284.4087,0 361.4849,0 361.4849,-36"/>
<text text-anchor="middle" x="322.9468" y="-13.8" font-family="Times,serif" font-size="14.00" fill="#000000">send graph</text>
</g>
<!-- 1647809929 -->
<g id="node4" class="node">
<title>1647809929</title>
<polygon fill="none" stroke="#000000" points="478.4966,-36 379.3969,-36 379.3969,0 478.4966,0 478.4966,-36"/>
<text text-anchor="middle" x="428.9468" y="-13.8" font-family="Times,serif" font-size="14.00" fill="#000000">accept gerade1</text>
</g>
</g>
</svg>
