<?xml version="1.0" encoding="UTF-8" standalone="no"?>
<!DOCTYPE svg PUBLIC "-//W3C//DTD SVG 1.1//EN"
 "http://www.w3.org/Graphics/SVG/1.1/DTD/svg11.dtd">
<!-- Generated by graphviz version 2.40.1 (20161225.0304)
 -->
<!-- Title: %3 Pages: 1 -->
<svg width="434pt" height="188pt"
 viewBox="0.00 0.00 434.21 188.00" xmlns="http://www.w3.org/2000/svg" xmlns:xlink="http://www.w3.org/1999/xlink">
<g id="graph0" class="graph" transform="scale(1 1) rotate(0) translate(4 184)">
<title>%3</title>
<polygon fill="#ffffff" stroke="transparent" points="-4,4 -4,-184 430.2104,-184 430.2104,4 -4,4"/>
<!-- 802600647 -->
<g id="node1" class="node">
<title>802600647</title>
<polygon fill="none" stroke="#000000" points="109.456,-108 -.1523,-108 -.1523,-72 109.456,-72 109.456,-108"/>
<text text-anchor="middle" x="54.6519" y="-85.8" font-family="Times,serif" font-size="14.00" fill="#000000">parse Number: 1</text>
</g>
<!-- 671467883 -->
<g id="node6" class="node">
<title>671467883</title>
<polygon fill="none" stroke="#000000" points="168.8101,-36 30.4936,-36 30.4936,0 168.8101,0 168.8101,-36"/>
<text text-anchor="middle" x="99.6519" y="-13.8" font-family="Times,serif" font-size="14.00" fill="#000000">p = gerade1::calc([1])</text>
</g>
<!-- 802600647&#45;&gt;671467883 -->
<g id="edge1" class="edge">
<title>802600647&#45;&gt;671467883</title>
<path fill="none" stroke="#000000" d="M66.0073,-71.8314C71.0844,-63.7079 77.1745,-53.9637 82.7695,-45.0118"/>
<polygon fill="#000000" stroke="#000000" points="85.8115,-46.7483 88.1436,-36.4133 79.8755,-43.0383 85.8115,-46.7483"/>
</g>
<!-- 2131952342 -->
<g id="node2" class="node">
<title>2131952342</title>
<polygon fill="none" stroke="#000000" points="266.456,-180 156.8477,-180 156.8477,-144 266.456,-144 266.456,-180"/>
<text text-anchor="middle" x="211.6519" y="-157.8" font-family="Times,serif" font-size="14.00" fill="#000000">parse Number: 2</text>
</g>
<!-- 1989335500 -->
<g id="node5" class="node">
<title>1989335500</title>
<polygon fill="none" stroke="#000000" points="426.2691,-108 127.0346,-108 127.0346,-72 426.2691,-72 426.2691,-108"/>
<text text-anchor="middle" x="276.6519" y="-85.8" font-family="Times,serif" font-size="14.00" fill="#000000">gerade1 = demo.math.Gerade::__construct([2, &#45;2])</text>
</g>
<!-- 2131952342&#45;&gt;1989335500 -->
<g id="edge2" class="edge">
<title>2131952342&#45;&gt;1989335500</title>
<path fill="none" stroke="#000000" d="M228.0541,-143.8314C235.6934,-135.3694 244.9202,-125.1489 253.2725,-115.8971"/>
<polygon fill="#000000" stroke="#000000" points="255.9257,-118.1813 260.0288,-108.4133 250.7298,-113.4906 255.9257,-118.1813"/>
</g>
<!-- 1571967156 -->
<g id="node3" class="node">
<title>1571967156</title>
<polygon fill="none" stroke="#000000" points="322.1694,-36 231.1343,-36 231.1343,0 322.1694,0 322.1694,-36"/>
<text text-anchor="middle" x="276.6519" y="-13.8" font-family="Times,serif" font-size="14.00" fill="#000000">store gerade1</text>
</g>
<!-- 592617454 -->
<g id="node4" class="node">
<title>592617454</title>
<polygon fill="none" stroke="#000000" points="398.6177,-180 284.686,-180 284.686,-144 398.6177,-144 398.6177,-180"/>
<text text-anchor="middle" x="341.6519" y="-157.8" font-family="Times,serif" font-size="14.00" fill="#000000">parse Number: &#45;2</text>
</g>
<!-- 592617454&#45;&gt;1989335500 -->
<g id="edge3" class="edge">
<title>592617454&#45;&gt;1989335500</title>
<path fill="none" stroke="#000000" d="M325.2496,-143.8314C317.6103,-135.3694 308.3835,-125.1489 300.0312,-115.8971"/>
<polygon fill="#000000" stroke="#000000" points="302.574,-113.4906 293.2749,-108.4133 297.3781,-118.1813 302.574,-113.4906"/>
</g>
<!-- 1989335500&#45;&gt;1571967156 -->
<g id="edge4" class="edge">
<title>1989335500&#45;&gt;1571967156</title>
<path fill="none" stroke="#000000" d="M276.6519,-71.8314C276.6519,-64.131 276.6519,-54.9743 276.6519,-46.4166"/>
<polygon fill="#000000" stroke="#000000" points="280.152,-46.4132 276.6519,-36.4133 273.152,-46.4133 280.152,-46.4132"/>
</g>
<!-- 1989335500&#45;&gt;671467883 -->
<g id="edge5" class="edge">
<title>1989335500&#45;&gt;671467883</title>
<path fill="none" stroke="#000000" d="M231.9873,-71.8314C208.1042,-62.1162 178.5228,-50.0831 153.3891,-39.8592"/>
<polygon fill="#000000" stroke="#000000" points="154.577,-36.564 143.9952,-36.038 151.9394,-43.0481 154.577,-36.564"/>
</g>
</g>
</svg>
