<?xml version="1.0" encoding="UTF-8" standalone="no"?>
<!DOCTYPE svg PUBLIC "-//W3C//DTD SVG 1.1//EN"
 "http://www.w3.org/Graphics/SVG/1.1/DTD/svg11.dtd">
<!-- Generated by graphviz version 2.40.1 (20161225.0304)
 -->
<!-- Title: %3 Pages: 1 -->
<svg width="535pt" height="332pt"
 viewBox="0.00 0.00 535.25 332.00" xmlns="http://www.w3.org/2000/svg" xmlns:xlink="http://www.w3.org/1999/xlink">
<g id="graph0" class="graph" transform="scale(1 1) rotate(0) translate(4 328)">
<title>%3</title>
<polygon fill="#ffffff" stroke="transparent" points="-4,4 -4,-328 531.2461,-328 531.2461,4 -4,4"/>
<!-- 1735507635 -->
<g id="node1" class="node">
<title>1735507635</title>
<polygon fill="none" stroke="#000000" points="335.8458,-180 197.5292,-180 197.5292,-144 335.8458,-144 335.8458,-180"/>
<text text-anchor="middle" x="266.6875" y="-157.8" font-family="Times,serif" font-size="14.00" fill="#000000">p = gerade1::calc([1])</text>
</g>
<!-- 678433396 -->
<g id="node2" class="node">
<title>678433396</title>
<polygon fill="none" stroke="#000000" points="153.563,-108 -.188,-108 -.188,-72 153.563,-72 153.563,-108"/>
<text text-anchor="middle" x="76.6875" y="-85.8" font-family="Times,serif" font-size="14.00" fill="#000000">transmit p&#45;&gt;Core_Client</text>
</g>
<!-- 1735507635&#45;&gt;678433396 -->
<g id="edge1" class="edge">
<title>1735507635&#45;&gt;678433396</title>
<path fill="none" stroke="#000000" d="M218.7425,-143.8314C192.8793,-134.0306 160.7913,-121.8709 133.6595,-111.5894"/>
<polygon fill="#000000" stroke="#000000" points="134.8791,-108.3087 124.2878,-108.038 132.3986,-114.8545 134.8791,-108.3087"/>
</g>
<!-- 1258084361 -->
<g id="node3" class="node">
<title>1258084361</title>
<polygon fill="none" stroke="#000000" points="361.8665,-108 171.5085,-108 171.5085,-72 361.8665,-72 361.8665,-108"/>
<text text-anchor="middle" x="266.6875" y="-85.8" font-family="Times,serif" font-size="14.00" fill="#000000">transmit gerade1&#45;&gt;Core_Client</text>
</g>
<!-- 1735507635&#45;&gt;1258084361 -->
<g id="edge2" class="edge">
<title>1735507635&#45;&gt;1258084361</title>
<path fill="none" stroke="#000000" d="M266.6875,-143.8314C266.6875,-136.131 266.6875,-126.9743 266.6875,-118.4166"/>
<polygon fill="#000000" stroke="#000000" points="270.1876,-118.4132 266.6875,-108.4133 263.1876,-118.4133 270.1876,-118.4132"/>
</g>
<!-- 928294079 -->
<g id="node9" class="node">
<title>928294079</title>
<polygon fill="none" stroke="#000000" points="471.2051,-108 380.1699,-108 380.1699,-72 471.2051,-72 471.2051,-108"/>
<text text-anchor="middle" x="425.6875" y="-85.8" font-family="Times,serif" font-size="14.00" fill="#000000">store gerade1</text>
</g>
<!-- 1735507635&#45;&gt;928294079 -->
<g id="edge3" class="edge">
<title>1735507635&#45;&gt;928294079</title>
<path fill="none" stroke="#000000" d="M306.8099,-143.8314C327.9807,-134.2446 354.1358,-122.4008 376.5178,-112.2655"/>
<polygon fill="#000000" stroke="#000000" points="378.1878,-115.3515 385.8536,-108.038 375.3003,-108.9748 378.1878,-115.3515"/>
</g>
<!-- 96406857 -->
<g id="node5" class="node">
<title>96406857</title>
<polygon fill="none" stroke="#000000" points="374.6744,-36 158.7006,-36 158.7006,0 374.6744,0 374.6744,-36"/>
<text text-anchor="middle" x="266.6875" y="-13.8" font-family="Times,serif" font-size="14.00" fill="#000000">FinishNode &amp;finished&amp;Executor_2</text>
</g>
<!-- 678433396&#45;&gt;96406857 -->
<g id="edge4" class="edge">
<title>678433396&#45;&gt;96406857</title>
<path fill="none" stroke="#000000" d="M124.6325,-71.8314C150.4957,-62.0306 182.5837,-49.8709 209.7155,-39.5894"/>
<polygon fill="#000000" stroke="#000000" points="210.9764,-42.8545 219.0872,-36.038 208.4959,-36.3087 210.9764,-42.8545"/>
</g>
<!-- 1258084361&#45;&gt;96406857 -->
<g id="edge5" class="edge">
<title>1258084361&#45;&gt;96406857</title>
<path fill="none" stroke="#000000" d="M266.6875,-71.8314C266.6875,-64.131 266.6875,-54.9743 266.6875,-46.4166"/>
<polygon fill="#000000" stroke="#000000" points="270.1876,-46.4132 266.6875,-36.4133 263.1876,-46.4133 270.1876,-46.4132"/>
</g>
<!-- 1636506029 -->
<g id="node4" class="node">
<title>1636506029</title>
<polygon fill="none" stroke="#000000" points="367.4916,-324 257.8834,-324 257.8834,-288 367.4916,-288 367.4916,-324"/>
<text text-anchor="middle" x="312.6875" y="-301.8" font-family="Times,serif" font-size="14.00" fill="#000000">parse Number: 2</text>
</g>
<!-- 1985836631 -->
<g id="node7" class="node">
<title>1985836631</title>
<polygon fill="none" stroke="#000000" points="527.3047,-252 228.0703,-252 228.0703,-216 527.3047,-216 527.3047,-252"/>
<text text-anchor="middle" x="377.6875" y="-229.8" font-family="Times,serif" font-size="14.00" fill="#000000">gerade1 = demo.math.Gerade::__construct([2, &#45;1])</text>
</g>
<!-- 1636506029&#45;&gt;1985836631 -->
<g id="edge6" class="edge">
<title>1636506029&#45;&gt;1985836631</title>
<path fill="none" stroke="#000000" d="M329.0897,-287.8314C336.729,-279.3694 345.9558,-269.1489 354.3082,-259.8971"/>
<polygon fill="#000000" stroke="#000000" points="356.9613,-262.1813 361.0644,-252.4133 351.7654,-257.4906 356.9613,-262.1813"/>
</g>
<!-- 1798219673 -->
<g id="node6" class="node">
<title>1798219673</title>
<polygon fill="none" stroke="#000000" points="210.4916,-252 100.8834,-252 100.8834,-216 210.4916,-216 210.4916,-252"/>
<text text-anchor="middle" x="155.6875" y="-229.8" font-family="Times,serif" font-size="14.00" fill="#000000">parse Number: 1</text>
</g>
<!-- 1798219673&#45;&gt;1735507635 -->
<g id="edge7" class="edge">
<title>1798219673&#45;&gt;1735507635</title>
<path fill="none" stroke="#000000" d="M183.6975,-215.8314C197.7636,-206.7074 214.9815,-195.539 230.0808,-185.7449"/>
<polygon fill="#000000" stroke="#000000" points="232.2015,-188.5412 238.6865,-180.1628 228.3922,-182.6684 232.2015,-188.5412"/>
</g>
<!-- 1985836631&#45;&gt;1735507635 -->
<g id="edge8" class="edge">
<title>1985836631&#45;&gt;1735507635</title>
<path fill="none" stroke="#000000" d="M349.6775,-215.8314C335.6114,-206.7074 318.3935,-195.539 303.2942,-185.7449"/>
<polygon fill="#000000" stroke="#000000" points="304.9828,-182.6684 294.6885,-180.1628 301.1735,-188.5412 304.9828,-182.6684"/>
</g>
<!-- 817978763 -->
<g id="node8" class="node">
<title>817978763</title>
<polygon fill="none" stroke="#000000" points="499.6533,-324 385.7217,-324 385.7217,-288 499.6533,-288 499.6533,-324"/>
<text text-anchor="middle" x="442.6875" y="-301.8" font-family="Times,serif" font-size="14.00" fill="#000000">parse Number: &#45;1</text>
</g>
<!-- 817978763&#45;&gt;1985836631 -->
<g id="edge9" class="edge">
<title>817978763&#45;&gt;1985836631</title>
<path fill="none" stroke="#000000" d="M426.2853,-287.8314C418.646,-279.3694 409.4192,-269.1489 401.0668,-259.8971"/>
<polygon fill="#000000" stroke="#000000" points="403.6096,-257.4906 394.3106,-252.4133 398.4137,-262.1813 403.6096,-257.4906"/>
</g>
<!-- 928294079&#45;&gt;96406857 -->
<g id="edge10" class="edge">
<title>928294079&#45;&gt;96406857</title>
<path fill="none" stroke="#000000" d="M385.5651,-71.8314C364.3943,-62.2446 338.2392,-50.4008 315.8572,-40.2655"/>
<polygon fill="#000000" stroke="#000000" points="317.0747,-36.9748 306.5214,-36.038 314.1872,-43.3515 317.0747,-36.9748"/>
</g>
</g>
</svg>
