<?xml version="1.0" encoding="UTF-8" standalone="no"?>
<!DOCTYPE svg PUBLIC "-//W3C//DTD SVG 1.1//EN"
 "http://www.w3.org/Graphics/SVG/1.1/DTD/svg11.dtd">
<!-- Generated by graphviz version 2.40.1 (20161225.0304)
 -->
<!-- Title: %3 Pages: 1 -->
<svg width="551pt" height="204pt"
 viewBox="0.00 0.00 551.21 204.00" xmlns="http://www.w3.org/2000/svg" xmlns:xlink="http://www.w3.org/1999/xlink">
<g id="graph0" class="graph" transform="scale(1 1) rotate(0) translate(4 200)">
<title>%3</title>
<polygon fill="#ffffff" stroke="transparent" points="-4,4 -4,-200 547.208,-200 547.208,4 -4,4"/>
<g id="clust1" class="cluster">
<title>cluster_2066850451</title>
<polygon fill="none" stroke="#000000" points="8,-8 8,-132 499,-132 499,-8 8,-8"/>
</g>
<!-- node_64 -->
<g id="node1" class="node">
<title>node_64</title>
<polygon fill="none" stroke="#000000" points="490.6354,-124 393.3646,-124 393.3646,-88 490.6354,-88 490.6354,-124"/>
<text text-anchor="middle" x="442" y="-101.8" font-family="Times,serif" font-size="14.00" fill="#000000">accept l1 &#160;as is</text>
</g>
<!-- node_65 -->
<g id="node2" class="node">
<title>node_65</title>
<polygon fill="none" stroke="#000000" points="394.5999,-52 111.4001,-52 111.4001,-16 394.5999,-16 394.5999,-52"/>
<text text-anchor="middle" x="253" y="-29.8" font-family="Times,serif" font-size="14.00" fill="#000000">l2 = demo.math.Addierer::addierBuiltIn([l1, 2])</text>
</g>
<!-- node_64&#45;&gt;node_65 -->
<g id="edge1" class="edge">
<title>node_64&#45;&gt;node_65</title>
<path fill="none" stroke="#000000" d="M394.3073,-87.8314C368.6927,-78.0734 336.9398,-65.977 310.026,-55.7242"/>
<polygon fill="#000000" stroke="#000000" points="310.9406,-52.3273 300.3497,-52.038 308.4486,-58.8687 310.9406,-52.3273"/>
</g>
<!-- node_66 -->
<g id="node3" class="node">
<title>node_66</title>
<polygon fill="none" stroke="#000000" points="259,-124 143.4748,-106 259,-88 374.5252,-106 259,-124"/>
<text text-anchor="middle" x="259" y="-101.8" font-family="Times,serif" font-size="14.00" fill="#000000">JAVA_EXECUTOR</text>
</g>
<!-- node_63 -->
<g id="node4" class="node">
<title>node_63</title>
<polygon fill="none" stroke="#000000" points="125.8041,-124 16.1959,-124 16.1959,-88 125.8041,-88 125.8041,-124"/>
<text text-anchor="middle" x="71" y="-101.8" font-family="Times,serif" font-size="14.00" fill="#000000">parse Number: 2</text>
</g>
<!-- node_63&#45;&gt;node_65 -->
<g id="edge2" class="edge">
<title>node_63&#45;&gt;node_65</title>
<path fill="none" stroke="#000000" d="M116.9263,-87.8314C141.5923,-78.0734 172.1691,-65.977 198.086,-55.7242"/>
<polygon fill="#000000" stroke="#000000" points="199.3927,-58.9713 207.404,-52.038 196.8176,-52.4621 199.3927,-58.9713"/>
</g>
<!-- node_67 -->
<g id="node5" class="node">
<title>node_67</title>
<polygon fill="none" stroke="#000000" points="543.4164,-196 340.5836,-196 340.5836,-160 543.4164,-160 543.4164,-196"/>
<text text-anchor="middle" x="442" y="-173.8" font-family="Times,serif" font-size="14.00" fill="#000000">transmit l1&#45;&gt;JAVA_EXECUTOR</text>
</g>
<!-- node_67&#45;&gt;node_64 -->
<g id="edge3" class="edge">
<title>node_67&#45;&gt;node_64</title>
<path fill="none" stroke="#000000" stroke-dasharray="1,5" d="M442,-159.8314C442,-152.131 442,-142.9743 442,-134.4166"/>
<polygon fill="#000000" stroke="#000000" points="445.5001,-134.4132 442,-124.4133 438.5001,-134.4133 445.5001,-134.4132"/>
</g>
</g>
</svg>
