<?xml version="1.0" encoding="UTF-8" standalone="no"?>
<!DOCTYPE svg PUBLIC "-//W3C//DTD SVG 1.1//EN"
 "http://www.w3.org/Graphics/SVG/1.1/DTD/svg11.dtd">
<!-- Generated by graphviz version 2.40.1 (20161225.0304)
 -->
<!-- Title: %3 Pages: 1 -->
<svg width="484pt" height="204pt"
 viewBox="0.00 0.00 484.00 204.00" xmlns="http://www.w3.org/2000/svg" xmlns:xlink="http://www.w3.org/1999/xlink">
<g id="graph0" class="graph" transform="scale(1 1) rotate(0) translate(4 200)">
<title>%3</title>
<polygon fill="#ffffff" stroke="transparent" points="-4,4 -4,-200 480,-200 480,4 -4,4"/>
<g id="clust1" class="cluster">
<title>cluster_1574898980</title>
<polygon fill="none" stroke="#000000" points="8,-8 8,-132 468,-132 468,-8 8,-8"/>
</g>
<!-- node_4 -->
<g id="node1" class="node">
<title>node_4</title>
<polygon fill="none" stroke="#000000" points="400.4164,-196 197.5836,-196 197.5836,-160 400.4164,-160 400.4164,-196"/>
<text text-anchor="middle" x="299" y="-173.8" font-family="Times,serif" font-size="14.00" fill="#000000">transmit l1&#45;&gt;JAVA_EXECUTOR</text>
</g>
<!-- node_1 -->
<g id="node3" class="node">
<title>node_1</title>
<polygon fill="none" stroke="#000000" points="332.1349,-124 265.8651,-124 265.8651,-88 332.1349,-88 332.1349,-124"/>
<text text-anchor="middle" x="299" y="-101.8" font-family="Times,serif" font-size="14.00" fill="#000000">accept l1</text>
</g>
<!-- node_4&#45;&gt;node_1 -->
<g id="edge3" class="edge">
<title>node_4&#45;&gt;node_1</title>
<path fill="none" stroke="#000000" stroke-dasharray="1,5" d="M299,-159.8314C299,-152.131 299,-142.9743 299,-134.4166"/>
<polygon fill="#000000" stroke="#000000" points="302.5001,-134.4132 299,-124.4133 295.5001,-134.4133 302.5001,-134.4132"/>
</g>
<!-- node_0 -->
<g id="node2" class="node">
<title>node_0</title>
<polygon fill="none" stroke="#000000" points="459.8041,-124 350.1959,-124 350.1959,-88 459.8041,-88 459.8041,-124"/>
<text text-anchor="middle" x="405" y="-101.8" font-family="Times,serif" font-size="14.00" fill="#000000">parse Number: 2</text>
</g>
<!-- node_2 -->
<g id="node4" class="node">
<title>node_2</title>
<polygon fill="none" stroke="#000000" points="449.5999,-52 166.4001,-52 166.4001,-16 449.5999,-16 449.5999,-52"/>
<text text-anchor="middle" x="308" y="-29.8" font-family="Times,serif" font-size="14.00" fill="#000000">l2 = demo.math.Addierer::addierBuiltIn([l1, 2])</text>
</g>
<!-- node_0&#45;&gt;node_2 -->
<g id="edge2" class="edge">
<title>node_0&#45;&gt;node_2</title>
<path fill="none" stroke="#000000" d="M380.5228,-87.8314C368.4605,-78.8779 353.746,-67.9558 340.7314,-58.2955"/>
<polygon fill="#000000" stroke="#000000" points="342.5852,-55.3127 332.4694,-52.1628 338.413,-60.9335 342.5852,-55.3127"/>
</g>
<!-- node_1&#45;&gt;node_2 -->
<g id="edge1" class="edge">
<title>node_1&#45;&gt;node_2</title>
<path fill="none" stroke="#000000" d="M301.2711,-87.8314C302.2336,-80.131 303.3782,-70.9743 304.4479,-62.4166"/>
<polygon fill="#000000" stroke="#000000" points="307.9309,-62.7702 305.6983,-52.4133 300.9849,-61.9019 307.9309,-62.7702"/>
</g>
<!-- node_3 -->
<g id="node5" class="node">
<title>node_3</title>
<polygon fill="none" stroke="#000000" points="132,-124 16.4748,-106 132,-88 247.5252,-106 132,-124"/>
<text text-anchor="middle" x="132" y="-101.8" font-family="Times,serif" font-size="14.00" fill="#000000">JAVA_EXECUTOR</text>
</g>
</g>
</svg>
