<?xml version="1.0" encoding="UTF-8" standalone="no"?>
<!DOCTYPE svg PUBLIC "-//W3C//DTD SVG 1.1//EN"
 "http://www.w3.org/Graphics/SVG/1.1/DTD/svg11.dtd">
<!-- Generated by graphviz version 2.40.1 (20161225.0304)
 -->
<!-- Title: %3 Pages: 1 -->
<svg width="491pt" height="292pt"
 viewBox="0.00 0.00 491.00 292.00" xmlns="http://www.w3.org/2000/svg" xmlns:xlink="http://www.w3.org/1999/xlink">
<g id="graph0" class="graph" transform="scale(1 1) rotate(0) translate(4 288)">
<title>%3</title>
<polygon fill="#ffffff" stroke="transparent" points="-4,4 -4,-288 487,-288 487,4 -4,4"/>
<g id="clust1" class="cluster">
<title>cluster_1616974404</title>
<polygon fill="none" stroke="#000000" points="8,-8 8,-276 475,-276 475,-8 8,-8"/>
</g>
<!-- node_0 -->
<g id="node1" class="node">
<title>node_0</title>
<polygon fill="none" stroke="#000000" points="443.6065,-196 170.3935,-196 170.3935,-160 443.6065,-160 443.6065,-196"/>
<text text-anchor="middle" x="307" y="-173.8" font-family="Times,serif" font-size="14.00" fill="#000000">b = plainlib.package1.b.B::__construct([0, 1])</text>
</g>
<!-- node_2 -->
<g id="node3" class="node">
<title>node_2</title>
<polygon fill="none" stroke="#000000" points="257.9854,-124 146.0146,-124 146.0146,-88 257.9854,-88 257.9854,-124"/>
<text text-anchor="middle" x="202" y="-101.8" font-family="Times,serif" font-size="14.00" fill="#000000">erg = b::calc([3])</text>
</g>
<!-- node_0&#45;&gt;node_2 -->
<g id="edge1" class="edge">
<title>node_0&#45;&gt;node_2</title>
<path fill="none" stroke="#000000" d="M280.5041,-159.8314C267.3226,-150.7927 251.2153,-139.7476 237.0289,-130.0198"/>
<polygon fill="#000000" stroke="#000000" points="238.7141,-126.9316 228.4875,-124.1628 234.7554,-132.7047 238.7141,-126.9316"/>
</g>
<!-- node_1 -->
<g id="node2" class="node">
<title>node_1</title>
<polygon fill="none" stroke="#000000" points="466.8041,-268 357.1959,-268 357.1959,-232 466.8041,-232 466.8041,-268"/>
<text text-anchor="middle" x="412" y="-245.8" font-family="Times,serif" font-size="14.00" fill="#000000">parse Number: 1</text>
</g>
<!-- node_1&#45;&gt;node_0 -->
<g id="edge5" class="edge">
<title>node_1&#45;&gt;node_0</title>
<path fill="none" stroke="#000000" d="M385.5041,-231.8314C372.3226,-222.7927 356.2153,-211.7476 342.0289,-202.0198"/>
<polygon fill="#000000" stroke="#000000" points="343.7141,-198.9316 333.4875,-196.1628 339.7554,-204.7047 343.7141,-198.9316"/>
</g>
<!-- node_4 -->
<g id="node5" class="node">
<title>node_4</title>
<polygon fill="none" stroke="#000000" points="229,-52 175,-52 175,-16 229,-16 229,-52"/>
<text text-anchor="middle" x="202" y="-29.8" font-family="Times,serif" font-size="14.00" fill="#000000">store b</text>
</g>
<!-- node_2&#45;&gt;node_4 -->
<g id="edge2" class="edge">
<title>node_2&#45;&gt;node_4</title>
<path fill="none" stroke="#000000" d="M202,-87.8314C202,-80.131 202,-70.9743 202,-62.4166"/>
<polygon fill="#000000" stroke="#000000" points="205.5001,-62.4132 202,-52.4133 198.5001,-62.4133 205.5001,-62.4132"/>
</g>
<!-- node_3 -->
<g id="node4" class="node">
<title>node_3</title>
<polygon fill="none" stroke="#000000" points="339.8041,-268 230.1959,-268 230.1959,-232 339.8041,-232 339.8041,-268"/>
<text text-anchor="middle" x="285" y="-245.8" font-family="Times,serif" font-size="14.00" fill="#000000">parse Number: 0</text>
</g>
<!-- node_3&#45;&gt;node_0 -->
<g id="edge3" class="edge">
<title>node_3&#45;&gt;node_0</title>
<path fill="none" stroke="#000000" d="M290.5515,-231.8314C292.9303,-224.0463 295.7638,-214.7729 298.4033,-206.1347"/>
<polygon fill="#000000" stroke="#000000" points="301.7987,-206.9996 301.3737,-196.4133 295.1042,-204.954 301.7987,-206.9996"/>
</g>
<!-- node_5 -->
<g id="node6" class="node">
<title>node_5</title>
<polygon fill="none" stroke="#000000" points="152.8041,-196 43.1959,-196 43.1959,-160 152.8041,-160 152.8041,-196"/>
<text text-anchor="middle" x="98" y="-173.8" font-family="Times,serif" font-size="14.00" fill="#000000">parse Number: 3</text>
</g>
<!-- node_5&#45;&gt;node_2 -->
<g id="edge4" class="edge">
<title>node_5&#45;&gt;node_2</title>
<path fill="none" stroke="#000000" d="M124.2436,-159.8314C137.2995,-150.7927 153.2535,-139.7476 167.3047,-130.0198"/>
<polygon fill="#000000" stroke="#000000" points="169.5351,-132.7326 175.7648,-124.1628 165.5506,-126.9773 169.5351,-132.7326"/>
</g>
<!-- node_6 -->
<g id="node7" class="node">
<title>node_6</title>
<polygon fill="none" stroke="#000000" points="114,-268 15.8199,-250 114,-232 212.1801,-250 114,-268"/>
<text text-anchor="middle" x="114" y="-245.8" font-family="Times,serif" font-size="14.00" fill="#000000">python_executor</text>
</g>
</g>
</svg>
