<?xml version="1.0" encoding="UTF-8" standalone="no"?>
<!DOCTYPE svg PUBLIC "-//W3C//DTD SVG 1.1//EN"
 "http://www.w3.org/Graphics/SVG/1.1/DTD/svg11.dtd">
<!-- Generated by graphviz version 2.40.1 (20161225.0304)
 -->
<!-- Title: %3 Pages: 1 -->
<svg width="491pt" height="292pt"
 viewBox="0.00 0.00 491.00 292.00" xmlns="http://www.w3.org/2000/svg" xmlns:xlink="http://www.w3.org/1999/xlink">
<g id="graph0" class="graph" transform="scale(1 1) rotate(0) translate(4 288)">
<title>%3</title>
<polygon fill="#ffffff" stroke="transparent" points="-4,4 -4,-288 487,-288 487,4 -4,4"/>
<g id="clust1" class="cluster">
<title>cluster_1341357914</title>
<polygon fill="none" stroke="#000000" points="8,-8 8,-276 475,-276 475,-8 8,-8"/>
</g>
<!-- node_20 -->
<g id="node1" class="node">
<title>node_20</title>
<polygon fill="none" stroke="#000000" points="362.9854,-124 251.0146,-124 251.0146,-88 362.9854,-88 362.9854,-124"/>
<text text-anchor="middle" x="307" y="-101.8" font-family="Times,serif" font-size="14.00" fill="#000000">erg = b::calc([3])</text>
</g>
<!-- node_21 -->
<g id="node2" class="node">
<title>node_21</title>
<polygon fill="none" stroke="#000000" points="334,-52 280,-52 280,-16 334,-16 334,-52"/>
<text text-anchor="middle" x="307" y="-29.8" font-family="Times,serif" font-size="14.00" fill="#000000">store b</text>
</g>
<!-- node_20&#45;&gt;node_21 -->
<g id="edge1" class="edge">
<title>node_20&#45;&gt;node_21</title>
<path fill="none" stroke="#000000" d="M307,-87.8314C307,-80.131 307,-70.9743 307,-62.4166"/>
<polygon fill="#000000" stroke="#000000" points="310.5001,-62.4132 307,-52.4133 303.5001,-62.4133 310.5001,-62.4132"/>
</g>
<!-- node_22 -->
<g id="node3" class="node">
<title>node_22</title>
<polygon fill="none" stroke="#000000" points="466.8041,-268 357.1959,-268 357.1959,-232 466.8041,-232 466.8041,-268"/>
<text text-anchor="middle" x="412" y="-245.8" font-family="Times,serif" font-size="14.00" fill="#000000">parse Number: 1</text>
</g>
<!-- node_23 -->
<g id="node4" class="node">
<title>node_23</title>
<polygon fill="none" stroke="#000000" points="339.6065,-196 66.3935,-196 66.3935,-160 339.6065,-160 339.6065,-196"/>
<text text-anchor="middle" x="203" y="-173.8" font-family="Times,serif" font-size="14.00" fill="#000000">b = plainlib.package1.b.B::__construct([0, 1])</text>
</g>
<!-- node_22&#45;&gt;node_23 -->
<g id="edge2" class="edge">
<title>node_22&#45;&gt;node_23</title>
<path fill="none" stroke="#000000" d="M359.5302,-231.9243C330.8345,-222.0387 295.1112,-209.7321 265.04,-199.3726"/>
<polygon fill="#000000" stroke="#000000" points="266.0861,-196.0312 255.4913,-196.0831 263.806,-202.6495 266.0861,-196.0312"/>
</g>
<!-- node_23&#45;&gt;node_20 -->
<g id="edge4" class="edge">
<title>node_23&#45;&gt;node_20</title>
<path fill="none" stroke="#000000" d="M229.2436,-159.8314C242.2995,-150.7927 258.2535,-139.7476 272.3047,-130.0198"/>
<polygon fill="#000000" stroke="#000000" points="274.5351,-132.7326 280.7648,-124.1628 270.5506,-126.9773 274.5351,-132.7326"/>
</g>
<!-- node_24 -->
<g id="node5" class="node">
<title>node_24</title>
<polygon fill="none" stroke="#000000" points="466.8041,-196 357.1959,-196 357.1959,-160 466.8041,-160 466.8041,-196"/>
<text text-anchor="middle" x="412" y="-173.8" font-family="Times,serif" font-size="14.00" fill="#000000">parse Number: 3</text>
</g>
<!-- node_24&#45;&gt;node_20 -->
<g id="edge3" class="edge">
<title>node_24&#45;&gt;node_20</title>
<path fill="none" stroke="#000000" d="M385.5041,-159.8314C372.3226,-150.7927 356.2153,-139.7476 342.0289,-130.0198"/>
<polygon fill="#000000" stroke="#000000" points="343.7141,-126.9316 333.4875,-124.1628 339.7554,-132.7047 343.7141,-126.9316"/>
</g>
<!-- node_25 -->
<g id="node6" class="node">
<title>node_25</title>
<polygon fill="none" stroke="#000000" points="339.8041,-268 230.1959,-268 230.1959,-232 339.8041,-232 339.8041,-268"/>
<text text-anchor="middle" x="285" y="-245.8" font-family="Times,serif" font-size="14.00" fill="#000000">parse Number: 0</text>
</g>
<!-- node_25&#45;&gt;node_23 -->
<g id="edge5" class="edge">
<title>node_25&#45;&gt;node_23</title>
<path fill="none" stroke="#000000" d="M264.3079,-231.8314C254.3052,-223.0485 242.145,-212.3712 231.3001,-202.8489"/>
<polygon fill="#000000" stroke="#000000" points="233.5092,-200.1308 223.6854,-196.1628 228.8906,-205.3909 233.5092,-200.1308"/>
</g>
<!-- node_26 -->
<g id="node7" class="node">
<title>node_26</title>
<polygon fill="none" stroke="#000000" points="114,-268 15.8199,-250 114,-232 212.1801,-250 114,-268"/>
<text text-anchor="middle" x="114" y="-245.8" font-family="Times,serif" font-size="14.00" fill="#000000">python_executor</text>
</g>
</g>
</svg>
