<?xml version="1.0" encoding="UTF-8" standalone="no"?>
<!DOCTYPE svg PUBLIC "-//W3C//DTD SVG 1.1//EN"
 "http://www.w3.org/Graphics/SVG/1.1/DTD/svg11.dtd">
<!-- Generated by graphviz version 2.40.1 (20161225.0304)
 -->
<!-- Title: %3 Pages: 1 -->
<svg width="359pt" height="420pt"
 viewBox="0.00 0.00 358.51 420.00" xmlns="http://www.w3.org/2000/svg" xmlns:xlink="http://www.w3.org/1999/xlink">
<g id="graph0" class="graph" transform="scale(1 1) rotate(0) translate(4 416)">
<title>%3</title>
<polygon fill="#ffffff" stroke="transparent" points="-4,4 -4,-416 354.5117,-416 354.5117,4 -4,4"/>
<g id="clust1" class="cluster">
<title>cluster_396989024</title>
<polygon fill="none" stroke="#000000" points="50.5117,-8 50.5117,-348 342.5117,-348 342.5117,-8 50.5117,-8"/>
</g>
<!-- node_34 -->
<g id="node1" class="node">
<title>node_34</title>
<polygon fill="none" stroke="#000000" points="179.0352,-412 -.0117,-412 -.0117,-376 179.0352,-376 179.0352,-412"/>
<text text-anchor="middle" x="89.5117" y="-389.8" font-family="Times,serif" font-size="14.00" fill="#000000">transmit b&#45;&gt;python_executor</text>
</g>
<!-- node_29 -->
<g id="node6" class="node">
<title>node_29</title>
<polygon fill="none" stroke="#000000" points="120.7573,-340 58.2661,-340 58.2661,-304 120.7573,-304 120.7573,-340"/>
<text text-anchor="middle" x="89.5117" y="-317.8" font-family="Times,serif" font-size="14.00" fill="#000000">accept b</text>
</g>
<!-- node_34&#45;&gt;node_29 -->
<g id="edge6" class="edge">
<title>node_34&#45;&gt;node_29</title>
<path fill="none" stroke="#000000" stroke-dasharray="1,5" d="M89.5117,-375.8314C89.5117,-368.131 89.5117,-358.9743 89.5117,-350.4166"/>
<polygon fill="#000000" stroke="#000000" points="93.0118,-350.4132 89.5117,-340.4133 86.0118,-350.4133 93.0118,-350.4132"/>
</g>
<!-- node_32 -->
<g id="node2" class="node">
<title>node_32</title>
<polygon fill="none" stroke="#000000" points="135.5117,-268 81.5117,-268 81.5117,-232 135.5117,-232 135.5117,-268"/>
<text text-anchor="middle" x="108.5117" y="-245.8" font-family="Times,serif" font-size="14.00" fill="#000000">load b</text>
</g>
<!-- node_30 -->
<g id="node7" class="node">
<title>node_30</title>
<polygon fill="none" stroke="#000000" points="196.9902,-196 58.0332,-196 58.0332,-160 196.9902,-160 196.9902,-196"/>
<text text-anchor="middle" x="127.5117" y="-173.8" font-family="Times,serif" font-size="14.00" fill="#000000">state1 = b::__str__([])</text>
</g>
<!-- node_32&#45;&gt;node_30 -->
<g id="edge4" class="edge">
<title>node_32&#45;&gt;node_30</title>
<path fill="none" stroke="#000000" d="M113.3062,-231.8314C115.3606,-224.0463 117.8078,-214.7729 120.0873,-206.1347"/>
<polygon fill="#000000" stroke="#000000" points="123.4852,-206.9753 122.6527,-196.4133 116.7169,-205.1892 123.4852,-206.9753"/>
</g>
<!-- node_33 -->
<g id="node3" class="node">
<title>node_33</title>
<polygon fill="none" stroke="#000000" points="236.5117,-340 138.3317,-322 236.5117,-304 334.6918,-322 236.5117,-340"/>
<text text-anchor="middle" x="236.5117" y="-317.8" font-family="Times,serif" font-size="14.00" fill="#000000">python_executor</text>
</g>
<!-- node_27 -->
<g id="node4" class="node">
<title>node_27</title>
<polygon fill="none" stroke="#000000" points="241.654,-124 151.3694,-124 151.3694,-88 241.654,-88 241.654,-124"/>
<text text-anchor="middle" x="196.5117" y="-101.8" font-family="Times,serif" font-size="14.00" fill="#000000">b::set_b([&#45;1])</text>
</g>
<!-- node_31 -->
<g id="node8" class="node">
<title>node_31</title>
<polygon fill="none" stroke="#000000" points="265.9902,-52 127.0332,-52 127.0332,-16 265.9902,-16 265.9902,-52"/>
<text text-anchor="middle" x="196.5117" y="-29.8" font-family="Times,serif" font-size="14.00" fill="#000000">state2 = b::__str__([])</text>
</g>
<!-- node_27&#45;&gt;node_31 -->
<g id="edge2" class="edge">
<title>node_27&#45;&gt;node_31</title>
<path fill="none" stroke="#000000" d="M196.5117,-87.8314C196.5117,-80.131 196.5117,-70.9743 196.5117,-62.4166"/>
<polygon fill="#000000" stroke="#000000" points="200.0118,-62.4132 196.5117,-52.4133 193.0118,-62.4133 200.0118,-62.4132"/>
</g>
<!-- node_28 -->
<g id="node5" class="node">
<title>node_28</title>
<polygon fill="none" stroke="#000000" points="328.4775,-196 214.5459,-196 214.5459,-160 328.4775,-160 328.4775,-196"/>
<text text-anchor="middle" x="271.5117" y="-173.8" font-family="Times,serif" font-size="14.00" fill="#000000">parse Number: &#45;1</text>
</g>
<!-- node_28&#45;&gt;node_27 -->
<g id="edge5" class="edge">
<title>node_28&#45;&gt;node_27</title>
<path fill="none" stroke="#000000" d="M252.5861,-159.8314C243.526,-151.1337 232.5308,-140.5783 222.6852,-131.1265"/>
<polygon fill="#000000" stroke="#000000" points="225.0691,-128.5633 215.4313,-124.1628 220.2214,-133.613 225.0691,-128.5633"/>
</g>
<!-- node_29&#45;&gt;node_32 -->
<g id="edge1" class="edge">
<title>node_29&#45;&gt;node_32</title>
<path fill="none" stroke="#000000" d="M94.3062,-303.8314C96.3606,-296.0463 98.8078,-286.7729 101.0873,-278.1347"/>
<polygon fill="#000000" stroke="#000000" points="104.4852,-278.9753 103.6527,-268.4133 97.7169,-277.1892 104.4852,-278.9753"/>
</g>
<!-- node_30&#45;&gt;node_27 -->
<g id="edge3" class="edge">
<title>node_30&#45;&gt;node_27</title>
<path fill="none" stroke="#000000" d="M144.9233,-159.8314C153.0327,-151.3694 162.8274,-141.1489 171.6937,-131.8971"/>
<polygon fill="#000000" stroke="#000000" points="174.4736,-134.0549 178.8657,-124.4133 169.4196,-129.2115 174.4736,-134.0549"/>
</g>
</g>
</svg>
