<?xml version="1.0" encoding="UTF-8" standalone="no"?>
<!DOCTYPE svg PUBLIC "-//W3C//DTD SVG 1.1//EN"
 "http://www.w3.org/Graphics/SVG/1.1/DTD/svg11.dtd">
<!-- Generated by graphviz version 2.40.1 (20161225.0304)
 -->
<!-- Title: %3 Pages: 1 -->
<svg width="375pt" height="492pt"
 viewBox="0.00 0.00 374.51 492.00" xmlns="http://www.w3.org/2000/svg" xmlns:xlink="http://www.w3.org/1999/xlink">
<g id="graph0" class="graph" transform="scale(1 1) rotate(0) translate(4 488)">
<title>%3</title>
<polygon fill="#ffffff" stroke="transparent" points="-4,4 -4,-488 370.5117,-488 370.5117,4 -4,4"/>
<g id="clust1" class="cluster">
<title>cluster_1302623724</title>
<polygon fill="none" stroke="#000000" points="34.5117,-8 34.5117,-420 358.5117,-420 358.5117,-8 34.5117,-8"/>
</g>
<!-- node_35 -->
<g id="node1" class="node">
<title>node_35</title>
<polygon fill="none" stroke="#000000" points="179.0352,-484 -.0117,-484 -.0117,-448 179.0352,-448 179.0352,-484"/>
<text text-anchor="middle" x="89.5117" y="-461.8" font-family="Times,serif" font-size="14.00" fill="#000000">transmit b&#45;&gt;python_executor</text>
</g>
<!-- node_28 -->
<g id="node6" class="node">
<title>node_28</title>
<polygon fill="none" stroke="#000000" points="136.2572,-412 42.7663,-412 42.7663,-376 136.2572,-376 136.2572,-412"/>
<text text-anchor="middle" x="89.5117" y="-389.8" font-family="Times,serif" font-size="14.00" fill="#000000">accept b &#160;as is</text>
</g>
<!-- node_35&#45;&gt;node_28 -->
<g id="edge7" class="edge">
<title>node_35&#45;&gt;node_28</title>
<path fill="none" stroke="#000000" stroke-dasharray="1,5" d="M89.5117,-447.8314C89.5117,-440.131 89.5117,-430.9743 89.5117,-422.4166"/>
<polygon fill="#000000" stroke="#000000" points="93.0118,-422.4132 89.5117,-412.4133 86.0118,-422.4133 93.0118,-422.4132"/>
</g>
<!-- node_32 -->
<g id="node2" class="node">
<title>node_32</title>
<polygon fill="none" stroke="#000000" points="210.5117,-52 156.5117,-52 156.5117,-16 210.5117,-16 210.5117,-52"/>
<text text-anchor="middle" x="183.5117" y="-29.8" font-family="Times,serif" font-size="14.00" fill="#000000">store b</text>
</g>
<!-- node_33 -->
<g id="node3" class="node">
<title>node_33</title>
<polygon fill="none" stroke="#000000" points="252.9902,-124 114.0332,-124 114.0332,-88 252.9902,-88 252.9902,-124"/>
<text text-anchor="middle" x="183.5117" y="-101.8" font-family="Times,serif" font-size="14.00" fill="#000000">state2 = b::__str__([])</text>
</g>
<!-- node_33&#45;&gt;node_32 -->
<g id="edge6" class="edge">
<title>node_33&#45;&gt;node_32</title>
<path fill="none" stroke="#000000" d="M183.5117,-87.8314C183.5117,-80.131 183.5117,-70.9743 183.5117,-62.4166"/>
<polygon fill="#000000" stroke="#000000" points="187.0118,-62.4132 183.5117,-52.4133 180.0118,-62.4133 187.0118,-62.4132"/>
</g>
<!-- node_34 -->
<g id="node4" class="node">
<title>node_34</title>
<polygon fill="none" stroke="#000000" points="252.5117,-412 154.3317,-394 252.5117,-376 350.6918,-394 252.5117,-412"/>
<text text-anchor="middle" x="252.5117" y="-389.8" font-family="Times,serif" font-size="14.00" fill="#000000">python_executor</text>
</g>
<!-- node_27 -->
<g id="node5" class="node">
<title>node_27</title>
<polygon fill="none" stroke="#000000" points="312.4775,-268 198.5459,-268 198.5459,-232 312.4775,-232 312.4775,-268"/>
<text text-anchor="middle" x="255.5117" y="-245.8" font-family="Times,serif" font-size="14.00" fill="#000000">parse Number: &#45;1</text>
</g>
<!-- node_30 -->
<g id="node8" class="node">
<title>node_30</title>
<polygon fill="none" stroke="#000000" points="228.654,-196 138.3694,-196 138.3694,-160 228.654,-160 228.654,-196"/>
<text text-anchor="middle" x="183.5117" y="-173.8" font-family="Times,serif" font-size="14.00" fill="#000000">b::set_b([&#45;1])</text>
</g>
<!-- node_27&#45;&gt;node_30 -->
<g id="edge2" class="edge">
<title>node_27&#45;&gt;node_30</title>
<path fill="none" stroke="#000000" d="M237.3431,-231.8314C228.7965,-223.2848 218.456,-212.9443 209.1316,-203.6198"/>
<polygon fill="#000000" stroke="#000000" points="211.471,-201.0095 201.925,-196.4133 206.5212,-205.9592 211.471,-201.0095"/>
</g>
<!-- node_31 -->
<g id="node9" class="node">
<title>node_31</title>
<polygon fill="none" stroke="#000000" points="127.5117,-340 73.5117,-340 73.5117,-304 127.5117,-304 127.5117,-340"/>
<text text-anchor="middle" x="100.5117" y="-317.8" font-family="Times,serif" font-size="14.00" fill="#000000">load b</text>
</g>
<!-- node_28&#45;&gt;node_31 -->
<g id="edge3" class="edge">
<title>node_28&#45;&gt;node_31</title>
<path fill="none" stroke="#000000" d="M92.2875,-375.8314C93.4639,-368.131 94.8629,-358.9743 96.1703,-350.4166"/>
<polygon fill="#000000" stroke="#000000" points="99.6481,-350.8272 97.6986,-340.4133 92.7284,-349.7699 99.6481,-350.8272"/>
</g>
<!-- node_29 -->
<g id="node7" class="node">
<title>node_29</title>
<polygon fill="none" stroke="#000000" points="180.9902,-268 42.0332,-268 42.0332,-232 180.9902,-232 180.9902,-268"/>
<text text-anchor="middle" x="111.5117" y="-245.8" font-family="Times,serif" font-size="14.00" fill="#000000">state1 = b::__str__([])</text>
</g>
<!-- node_29&#45;&gt;node_30 -->
<g id="edge1" class="edge">
<title>node_29&#45;&gt;node_30</title>
<path fill="none" stroke="#000000" d="M129.6804,-231.8314C138.227,-223.2848 148.5674,-212.9443 157.8919,-203.6198"/>
<polygon fill="#000000" stroke="#000000" points="160.5022,-205.9592 165.0985,-196.4133 155.5525,-201.0095 160.5022,-205.9592"/>
</g>
<!-- node_30&#45;&gt;node_33 -->
<g id="edge4" class="edge">
<title>node_30&#45;&gt;node_33</title>
<path fill="none" stroke="#000000" d="M183.5117,-159.8314C183.5117,-152.131 183.5117,-142.9743 183.5117,-134.4166"/>
<polygon fill="#000000" stroke="#000000" points="187.0118,-134.4132 183.5117,-124.4133 180.0118,-134.4133 187.0118,-134.4132"/>
</g>
<!-- node_31&#45;&gt;node_29 -->
<g id="edge5" class="edge">
<title>node_31&#45;&gt;node_29</title>
<path fill="none" stroke="#000000" d="M103.2875,-303.8314C104.4639,-296.131 105.8629,-286.9743 107.1703,-278.4166"/>
<polygon fill="#000000" stroke="#000000" points="110.6481,-278.8272 108.6986,-268.4133 103.7284,-277.7699 110.6481,-278.8272"/>
</g>
</g>
</svg>
