<?xml version="1.0" encoding="UTF-8" standalone="no"?>
<!DOCTYPE svg PUBLIC "-//W3C//DTD SVG 1.1//EN"
 "http://www.w3.org/Graphics/SVG/1.1/DTD/svg11.dtd">
<!-- Generated by graphviz version 2.40.1 (20161225.0304)
 -->
<!-- Title: %3 Pages: 1 -->
<svg width="393pt" height="492pt"
 viewBox="0.00 0.00 392.51 492.00" xmlns="http://www.w3.org/2000/svg" xmlns:xlink="http://www.w3.org/1999/xlink">
<g id="graph0" class="graph" transform="scale(1 1) rotate(0) translate(4 488)">
<title>%3</title>
<polygon fill="#ffffff" stroke="transparent" points="-4,4 -4,-488 388.5117,-488 388.5117,4 -4,4"/>
<g id="clust1" class="cluster">
<title>cluster_26728049</title>
<polygon fill="none" stroke="#000000" points="8,-8 8,-420 368,-420 368,-8 8,-8"/>
</g>
<!-- node_7 -->
<g id="node1" class="node">
<title>node_7</title>
<polygon fill="none" stroke="#000000" points="228.4785,-268 89.5215,-268 89.5215,-232 228.4785,-232 228.4785,-268"/>
<text text-anchor="middle" x="159" y="-245.8" font-family="Times,serif" font-size="14.00" fill="#000000">state1 = b::__str__([])</text>
</g>
<!-- node_9 -->
<g id="node3" class="node">
<title>node_9</title>
<polygon fill="none" stroke="#000000" points="270.1423,-196 179.8577,-196 179.8577,-160 270.1423,-160 270.1423,-196"/>
<text text-anchor="middle" x="225" y="-173.8" font-family="Times,serif" font-size="14.00" fill="#000000">b::set_b([&#45;1])</text>
</g>
<!-- node_7&#45;&gt;node_9 -->
<g id="edge2" class="edge">
<title>node_7&#45;&gt;node_9</title>
<path fill="none" stroke="#000000" d="M175.6546,-231.8314C183.4114,-223.3694 192.7802,-213.1489 201.261,-203.8971"/>
<polygon fill="#000000" stroke="#000000" points="203.9439,-206.1499 208.1212,-196.4133 198.7838,-201.4198 203.9439,-206.1499"/>
</g>
<!-- node_8 -->
<g id="node2" class="node">
<title>node_8</title>
<polygon fill="none" stroke="#000000" points="252,-52 198,-52 198,-16 252,-16 252,-52"/>
<text text-anchor="middle" x="225" y="-29.8" font-family="Times,serif" font-size="14.00" fill="#000000">store b</text>
</g>
<!-- node_13 -->
<g id="node7" class="node">
<title>node_13</title>
<polygon fill="none" stroke="#000000" points="294.4785,-124 155.5215,-124 155.5215,-88 294.4785,-88 294.4785,-124"/>
<text text-anchor="middle" x="225" y="-101.8" font-family="Times,serif" font-size="14.00" fill="#000000">state2 = b::__str__([])</text>
</g>
<!-- node_9&#45;&gt;node_13 -->
<g id="edge3" class="edge">
<title>node_9&#45;&gt;node_13</title>
<path fill="none" stroke="#000000" d="M225,-159.8314C225,-152.131 225,-142.9743 225,-134.4166"/>
<polygon fill="#000000" stroke="#000000" points="228.5001,-134.4132 225,-124.4133 221.5001,-134.4133 228.5001,-134.4132"/>
</g>
<!-- node_10 -->
<g id="node4" class="node">
<title>node_10</title>
<polygon fill="none" stroke="#000000" points="359.9658,-268 246.0342,-268 246.0342,-232 359.9658,-232 359.9658,-268"/>
<text text-anchor="middle" x="303" y="-245.8" font-family="Times,serif" font-size="14.00" fill="#000000">parse Number: &#45;1</text>
</g>
<!-- node_10&#45;&gt;node_9 -->
<g id="edge6" class="edge">
<title>node_10&#45;&gt;node_9</title>
<path fill="none" stroke="#000000" d="M283.3173,-231.8314C273.8949,-223.1337 262.4599,-212.5783 252.2204,-203.1265"/>
<polygon fill="#000000" stroke="#000000" points="254.3984,-200.3738 244.6764,-196.1628 249.6505,-205.5175 254.3984,-200.3738"/>
</g>
<!-- node_11 -->
<g id="node5" class="node">
<title>node_11</title>
<polygon fill="none" stroke="#000000" points="359.5117,-412 230.4883,-412 230.4883,-376 359.5117,-376 359.5117,-412"/>
<text text-anchor="middle" x="295" y="-389.8" font-family="Times,serif" font-size="14.00" fill="#000000">accept b &#160;store bytes</text>
</g>
<!-- node_12 -->
<g id="node6" class="node">
<title>node_12</title>
<polygon fill="none" stroke="#000000" points="254,-340 200,-340 200,-304 254,-304 254,-340"/>
<text text-anchor="middle" x="227" y="-317.8" font-family="Times,serif" font-size="14.00" fill="#000000">load b</text>
</g>
<!-- node_11&#45;&gt;node_12 -->
<g id="edge1" class="edge">
<title>node_11&#45;&gt;node_12</title>
<path fill="none" stroke="#000000" d="M277.8407,-375.8314C269.8489,-367.3694 260.1962,-357.1489 251.4584,-347.8971"/>
<polygon fill="#000000" stroke="#000000" points="253.8011,-345.2802 244.3903,-340.4133 248.712,-350.0866 253.8011,-345.2802"/>
</g>
<!-- node_12&#45;&gt;node_7 -->
<g id="edge4" class="edge">
<title>node_12&#45;&gt;node_7</title>
<path fill="none" stroke="#000000" d="M209.8407,-303.8314C201.8489,-295.3694 192.1962,-285.1489 183.4584,-275.8971"/>
<polygon fill="#000000" stroke="#000000" points="185.8011,-273.2802 176.3903,-268.4133 180.712,-278.0866 185.8011,-273.2802"/>
</g>
<!-- node_13&#45;&gt;node_8 -->
<g id="edge5" class="edge">
<title>node_13&#45;&gt;node_8</title>
<path fill="none" stroke="#000000" d="M225,-87.8314C225,-80.131 225,-70.9743 225,-62.4166"/>
<polygon fill="#000000" stroke="#000000" points="228.5001,-62.4132 225,-52.4133 221.5001,-62.4133 228.5001,-62.4132"/>
</g>
<!-- node_14 -->
<g id="node8" class="node">
<title>node_14</title>
<polygon fill="none" stroke="#000000" points="114,-412 15.8199,-394 114,-376 212.1801,-394 114,-412"/>
<text text-anchor="middle" x="114" y="-389.8" font-family="Times,serif" font-size="14.00" fill="#000000">python_executor</text>
</g>
<!-- node_15 -->
<g id="node9" class="node">
<title>node_15</title>
<polygon fill="none" stroke="#000000" points="384.5234,-484 205.4766,-484 205.4766,-448 384.5234,-448 384.5234,-484"/>
<text text-anchor="middle" x="295" y="-461.8" font-family="Times,serif" font-size="14.00" fill="#000000">transmit b&#45;&gt;python_executor</text>
</g>
<!-- node_15&#45;&gt;node_11 -->
<g id="edge7" class="edge">
<title>node_15&#45;&gt;node_11</title>
<path fill="none" stroke="#000000" stroke-dasharray="1,5" d="M295,-447.8314C295,-440.131 295,-430.9743 295,-422.4166"/>
<polygon fill="#000000" stroke="#000000" points="298.5001,-422.4132 295,-412.4133 291.5001,-422.4133 298.5001,-422.4132"/>
</g>
</g>
</svg>
