<?xml version="1.0" encoding="UTF-8" standalone="no"?>
<!DOCTYPE svg PUBLIC "-//W3C//DTD SVG 1.1//EN"
 "http://www.w3.org/Graphics/SVG/1.1/DTD/svg11.dtd">
<!-- Generated by graphviz version 2.40.1 (20161225.0304)
 -->
<!-- Title: %3 Pages: 1 -->
<svg width="359pt" height="420pt"
 viewBox="0.00 0.00 358.51 420.00" xmlns="http://www.w3.org/2000/svg" xmlns:xlink="http://www.w3.org/1999/xlink">
<g id="graph0" class="graph" transform="scale(1 1) rotate(0) translate(4 416)">
<title>%3</title>
<polygon fill="#ffffff" stroke="transparent" points="-4,4 -4,-416 354.5117,-416 354.5117,4 -4,4"/>
<g id="clust1" class="cluster">
<title>cluster_688726285</title>
<polygon fill="none" stroke="#000000" points="8,-8 8,-348 300,-348 300,-8 8,-8"/>
</g>
<!-- node_7 -->
<g id="node1" class="node">
<title>node_7</title>
<polygon fill="none" stroke="#000000" points="223.4785,-52 84.5215,-52 84.5215,-16 223.4785,-16 223.4785,-52"/>
<text text-anchor="middle" x="154" y="-29.8" font-family="Times,serif" font-size="14.00" fill="#000000">state2 = b::__str__([])</text>
</g>
<!-- node_8 -->
<g id="node2" class="node">
<title>node_8</title>
<polygon fill="none" stroke="#000000" points="292.4785,-196 153.5215,-196 153.5215,-160 292.4785,-160 292.4785,-196"/>
<text text-anchor="middle" x="223" y="-173.8" font-family="Times,serif" font-size="14.00" fill="#000000">state1 = b::__str__([])</text>
</g>
<!-- node_9 -->
<g id="node3" class="node">
<title>node_9</title>
<polygon fill="none" stroke="#000000" points="199.1423,-124 108.8577,-124 108.8577,-88 199.1423,-88 199.1423,-124"/>
<text text-anchor="middle" x="154" y="-101.8" font-family="Times,serif" font-size="14.00" fill="#000000">b::set_b([&#45;1])</text>
</g>
<!-- node_8&#45;&gt;node_9 -->
<g id="edge1" class="edge">
<title>node_8&#45;&gt;node_9</title>
<path fill="none" stroke="#000000" d="M205.5884,-159.8314C197.479,-151.3694 187.6844,-141.1489 178.818,-131.8971"/>
<polygon fill="#000000" stroke="#000000" points="181.0921,-129.2115 171.646,-124.4133 176.0382,-134.0549 181.0921,-129.2115"/>
</g>
<!-- node_9&#45;&gt;node_7 -->
<g id="edge5" class="edge">
<title>node_9&#45;&gt;node_7</title>
<path fill="none" stroke="#000000" d="M154,-87.8314C154,-80.131 154,-70.9743 154,-62.4166"/>
<polygon fill="#000000" stroke="#000000" points="157.5001,-62.4132 154,-52.4133 150.5001,-62.4133 157.5001,-62.4132"/>
</g>
<!-- node_10 -->
<g id="node4" class="node">
<title>node_10</title>
<polygon fill="none" stroke="#000000" points="292.2456,-340 229.7544,-340 229.7544,-304 292.2456,-304 292.2456,-340"/>
<text text-anchor="middle" x="261" y="-317.8" font-family="Times,serif" font-size="14.00" fill="#000000">accept b</text>
</g>
<!-- node_11 -->
<g id="node5" class="node">
<title>node_11</title>
<polygon fill="none" stroke="#000000" points="269,-268 215,-268 215,-232 269,-232 269,-268"/>
<text text-anchor="middle" x="242" y="-245.8" font-family="Times,serif" font-size="14.00" fill="#000000">load b</text>
</g>
<!-- node_10&#45;&gt;node_11 -->
<g id="edge2" class="edge">
<title>node_10&#45;&gt;node_11</title>
<path fill="none" stroke="#000000" d="M256.2055,-303.8314C254.1511,-296.0463 251.704,-286.7729 249.4244,-278.1347"/>
<polygon fill="#000000" stroke="#000000" points="252.7948,-277.1892 246.8591,-268.4133 246.0265,-278.9753 252.7948,-277.1892"/>
</g>
<!-- node_11&#45;&gt;node_8 -->
<g id="edge3" class="edge">
<title>node_11&#45;&gt;node_8</title>
<path fill="none" stroke="#000000" d="M237.2055,-231.8314C235.1511,-224.0463 232.704,-214.7729 230.4244,-206.1347"/>
<polygon fill="#000000" stroke="#000000" points="233.7948,-205.1892 227.8591,-196.4133 227.0265,-206.9753 233.7948,-205.1892"/>
</g>
<!-- node_12 -->
<g id="node6" class="node">
<title>node_12</title>
<polygon fill="none" stroke="#000000" points="135.9658,-196 22.0342,-196 22.0342,-160 135.9658,-160 135.9658,-196"/>
<text text-anchor="middle" x="79" y="-173.8" font-family="Times,serif" font-size="14.00" fill="#000000">parse Number: &#45;1</text>
</g>
<!-- node_12&#45;&gt;node_9 -->
<g id="edge4" class="edge">
<title>node_12&#45;&gt;node_9</title>
<path fill="none" stroke="#000000" d="M97.9257,-159.8314C106.9857,-151.1337 117.9809,-140.5783 127.8265,-131.1265"/>
<polygon fill="#000000" stroke="#000000" points="130.2904,-133.613 135.0804,-124.1628 125.4426,-128.5633 130.2904,-133.613"/>
</g>
<!-- node_13 -->
<g id="node7" class="node">
<title>node_13</title>
<polygon fill="none" stroke="#000000" points="114,-340 15.8199,-322 114,-304 212.1801,-322 114,-340"/>
<text text-anchor="middle" x="114" y="-317.8" font-family="Times,serif" font-size="14.00" fill="#000000">python_executor</text>
</g>
<!-- node_14 -->
<g id="node8" class="node">
<title>node_14</title>
<polygon fill="none" stroke="#000000" points="350.5234,-412 171.4766,-412 171.4766,-376 350.5234,-376 350.5234,-412"/>
<text text-anchor="middle" x="261" y="-389.8" font-family="Times,serif" font-size="14.00" fill="#000000">transmit b&#45;&gt;python_executor</text>
</g>
<!-- node_14&#45;&gt;node_10 -->
<g id="edge6" class="edge">
<title>node_14&#45;&gt;node_10</title>
<path fill="none" stroke="#000000" stroke-dasharray="1,5" d="M261,-375.8314C261,-368.131 261,-358.9743 261,-350.4166"/>
<polygon fill="#000000" stroke="#000000" points="264.5001,-350.4132 261,-340.4133 257.5001,-350.4133 264.5001,-350.4132"/>
</g>
</g>
</svg>
