<?xml version="1.0" encoding="UTF-8" standalone="no"?>
<!DOCTYPE svg PUBLIC "-//W3C//DTD SVG 1.1//EN"
 "http://www.w3.org/Graphics/SVG/1.1/DTD/svg11.dtd">
<!-- Generated by graphviz version 2.40.1 (20161225.0304)
 -->
<!-- Title: %3 Pages: 1 -->
<svg width="845pt" height="436pt"
 viewBox="0.00 0.00 845.00 436.00" xmlns="http://www.w3.org/2000/svg" xmlns:xlink="http://www.w3.org/1999/xlink">
<g id="graph0" class="graph" transform="scale(1 1) rotate(0) translate(4 432)">
<title>%3</title>
<polygon fill="#ffffff" stroke="transparent" points="-4,4 -4,-432 841,-432 841,4 -4,4"/>
<g id="clust1" class="cluster">
<title>cluster_1738674023</title>
<polygon fill="none" stroke="#000000" points="8,-8 8,-60 760,-60 760,-8 8,-8"/>
</g>
<g id="clust2" class="cluster">
<title>cluster_1472682156</title>
<polygon fill="none" stroke="#000000" points="315,-80 315,-420 829,-420 829,-80 315,-80"/>
</g>
<!-- node_53 -->
<g id="node1" class="node">
<title>node_53</title>
<polygon fill="none" stroke="#000000" points="581.175,-52 360.825,-52 360.825,-16 581.175,-16 581.175,-52"/>
<text text-anchor="middle" x="471" y="-29.8" font-family="Times,serif" font-size="14.00" fill="#000000">accept &amp;finished&amp;PY_EXECUTOR</text>
</g>
<!-- node_54 -->
<g id="node2" class="node">
<title>node_54</title>
<polygon fill="none" stroke="#000000" points="661.2456,-52 598.7544,-52 598.7544,-16 661.2456,-16 661.2456,-52"/>
<text text-anchor="middle" x="630" y="-29.8" font-family="Times,serif" font-size="14.00" fill="#000000">accept b</text>
</g>
<!-- node_55 -->
<g id="node3" class="node">
<title>node_55</title>
<polygon fill="none" stroke="#000000" points="752.3751,-52 679.6249,-52 679.6249,-16 752.3751,-16 752.3751,-52"/>
<text text-anchor="middle" x="716" y="-29.8" font-family="Times,serif" font-size="14.00" fill="#000000">accept erg</text>
</g>
<!-- node_56 -->
<g id="node4" class="node">
<title>node_56</title>
<polygon fill="none" stroke="#000000" points="342.5381,-52 265.4619,-52 265.4619,-16 342.5381,-16 342.5381,-52"/>
<text text-anchor="middle" x="304" y="-29.8" font-family="Times,serif" font-size="14.00" fill="#000000">send graph</text>
</g>
<!-- node_57 -->
<g id="node5" class="node">
<title>node_57</title>
<polygon fill="none" stroke="#000000" points="132,-52 16.4748,-34 132,-16 247.5252,-34 132,-52"/>
<text text-anchor="middle" x="132" y="-29.8" font-family="Times,serif" font-size="14.00" fill="#000000">JAVA_EXECUTOR</text>
</g>
<!-- node_64 -->
<g id="node6" class="node">
<title>node_64</title>
<polygon fill="none" stroke="#000000" points="593.0269,-196 394.9731,-196 394.9731,-160 593.0269,-160 593.0269,-196"/>
<text text-anchor="middle" x="494" y="-173.8" font-family="Times,serif" font-size="14.00" fill="#000000">transmit b&#45;&gt;JAVA_EXECUTOR</text>
</g>
<!-- node_64&#45;&gt;node_54 -->
<g id="edge11" class="edge">
<title>node_64&#45;&gt;node_54</title>
<path fill="none" stroke="#000000" stroke-dasharray="1,5" d="M554.7928,-159.9275C573.5413,-151.6749 592.7231,-140.0516 606,-124 620.349,-106.6522 626.1892,-81.5557 628.5315,-62.2689"/>
<polygon fill="#000000" stroke="#000000" points="632.0226,-62.5291 629.5048,-52.2378 625.0554,-61.8531 632.0226,-62.5291"/>
</g>
<!-- node_60 -->
<g id="node12" class="node">
<title>node_60</title>
<polygon fill="none" stroke="#000000" points="597.2677,-124 346.7323,-124 346.7323,-88 597.2677,-88 597.2677,-124"/>
<text text-anchor="middle" x="472" y="-101.8" font-family="Times,serif" font-size="14.00" fill="#000000">FinishNode &amp;finished&amp;PY_EXECUTOR</text>
</g>
<!-- node_64&#45;&gt;node_60 -->
<g id="edge7" class="edge">
<title>node_64&#45;&gt;node_60</title>
<path fill="none" stroke="#000000" d="M488.4485,-159.8314C486.0697,-152.0463 483.2362,-142.7729 480.5967,-134.1347"/>
<polygon fill="#000000" stroke="#000000" points="483.8958,-132.954 477.6263,-124.4133 477.2013,-134.9996 483.8958,-132.954"/>
</g>
<!-- node_65 -->
<g id="node7" class="node">
<title>node_65</title>
<polygon fill="none" stroke="#000000" points="613.6065,-340 340.3935,-340 340.3935,-304 613.6065,-304 613.6065,-340"/>
<text text-anchor="middle" x="477" y="-317.8" font-family="Times,serif" font-size="14.00" fill="#000000">b = plainlib.package1.b.B::__construct([0, 1])</text>
</g>
<!-- node_62 -->
<g id="node14" class="node">
<title>node_62</title>
<polygon fill="none" stroke="#000000" points="549.9854,-268 438.0146,-268 438.0146,-232 549.9854,-232 549.9854,-268"/>
<text text-anchor="middle" x="494" y="-245.8" font-family="Times,serif" font-size="14.00" fill="#000000">erg = b::calc([3])</text>
</g>
<!-- node_65&#45;&gt;node_62 -->
<g id="edge9" class="edge">
<title>node_65&#45;&gt;node_62</title>
<path fill="none" stroke="#000000" d="M481.2898,-303.8314C483.108,-296.131 485.2699,-286.9743 487.2905,-278.4166"/>
<polygon fill="#000000" stroke="#000000" points="490.7608,-278.95 489.6524,-268.4133 483.9481,-277.3414 490.7608,-278.95"/>
</g>
<!-- node_66 -->
<g id="node8" class="node">
<title>node_66</title>
<polygon fill="none" stroke="#000000" points="802.8041,-412 693.1959,-412 693.1959,-376 802.8041,-376 802.8041,-412"/>
<text text-anchor="middle" x="748" y="-389.8" font-family="Times,serif" font-size="14.00" fill="#000000">parse Number: 0</text>
</g>
<!-- node_66&#45;&gt;node_65 -->
<g id="edge10" class="edge">
<title>node_66&#45;&gt;node_65</title>
<path fill="none" stroke="#000000" d="M693.2062,-378.5155C690.0932,-377.6587 687.0079,-376.8152 684,-376 642.3735,-364.7178 595.9191,-352.56 557.5817,-342.6424"/>
<polygon fill="#000000" stroke="#000000" points="558.0654,-339.1525 547.5077,-340.0395 556.3142,-345.9299 558.0654,-339.1525"/>
</g>
<!-- node_67 -->
<g id="node9" class="node">
<title>node_67</title>
<polygon fill="none" stroke="#000000" points="572,-412 468.9769,-394 572,-376 675.0231,-394 572,-412"/>
<text text-anchor="middle" x="572" y="-389.8" font-family="Times,serif" font-size="14.00" fill="#000000">PY_EXECUTOR</text>
</g>
<!-- node_58 -->
<g id="node10" class="node">
<title>node_58</title>
<polygon fill="none" stroke="#000000" points="377,-196 323,-196 323,-160 377,-160 377,-196"/>
<text text-anchor="middle" x="350" y="-173.8" font-family="Times,serif" font-size="14.00" fill="#000000">store b</text>
</g>
<!-- node_58&#45;&gt;node_60 -->
<g id="edge3" class="edge">
<title>node_58&#45;&gt;node_60</title>
<path fill="none" stroke="#000000" d="M377.0758,-162.0209C393.3643,-152.408 414.3846,-140.0025 432.5027,-129.3099"/>
<polygon fill="#000000" stroke="#000000" points="434.2973,-132.3149 441.1305,-124.2181 430.7395,-126.2864 434.2973,-132.3149"/>
</g>
<!-- node_59 -->
<g id="node11" class="node">
<title>node_59</title>
<polygon fill="none" stroke="#000000" points="820.6563,-196 611.3437,-196 611.3437,-160 820.6563,-160 820.6563,-196"/>
<text text-anchor="middle" x="716" y="-173.8" font-family="Times,serif" font-size="14.00" fill="#000000">transmit erg&#45;&gt;JAVA_EXECUTOR</text>
</g>
<!-- node_59&#45;&gt;node_55 -->
<g id="edge13" class="edge">
<title>node_59&#45;&gt;node_55</title>
<path fill="none" stroke="#000000" stroke-dasharray="1,5" d="M716,-159.7623C716,-135.201 716,-91.2474 716,-62.3541"/>
<polygon fill="#000000" stroke="#000000" points="719.5001,-62.0896 716,-52.0896 712.5001,-62.0897 719.5001,-62.0896"/>
</g>
<!-- node_59&#45;&gt;node_60 -->
<g id="edge1" class="edge">
<title>node_59&#45;&gt;node_60</title>
<path fill="none" stroke="#000000" d="M654.7434,-159.9243C620.8071,-149.9103 578.4519,-137.412 543.0651,-126.97"/>
<polygon fill="#000000" stroke="#000000" points="543.8635,-123.5565 533.2818,-124.0831 541.8823,-130.2703 543.8635,-123.5565"/>
</g>
<!-- node_60&#45;&gt;node_53 -->
<g id="edge12" class="edge">
<title>node_60&#45;&gt;node_53</title>
<path fill="none" stroke="#000000" stroke-dasharray="1,5" d="M471.7477,-87.8314C471.6407,-80.131 471.5135,-70.9743 471.3947,-62.4166"/>
<polygon fill="#000000" stroke="#000000" points="474.8944,-62.3637 471.2557,-52.4133 467.8951,-62.4609 474.8944,-62.3637"/>
</g>
<!-- node_61 -->
<g id="node13" class="node">
<title>node_61</title>
<polygon fill="none" stroke="#000000" points="740.8041,-340 631.1959,-340 631.1959,-304 740.8041,-304 740.8041,-340"/>
<text text-anchor="middle" x="686" y="-317.8" font-family="Times,serif" font-size="14.00" fill="#000000">parse Number: 3</text>
</g>
<!-- node_61&#45;&gt;node_62 -->
<g id="edge2" class="edge">
<title>node_61&#45;&gt;node_62</title>
<path fill="none" stroke="#000000" d="M637.5503,-303.8314C611.4149,-294.0306 578.9891,-281.8709 551.5717,-271.5894"/>
<polygon fill="#000000" stroke="#000000" points="552.6936,-268.2721 542.1013,-268.038 550.2357,-274.8264 552.6936,-268.2721"/>
</g>
<!-- node_62&#45;&gt;node_64 -->
<g id="edge4" class="edge">
<title>node_62&#45;&gt;node_64</title>
<path fill="none" stroke="#000000" d="M494,-231.8314C494,-224.131 494,-214.9743 494,-206.4166"/>
<polygon fill="#000000" stroke="#000000" points="497.5001,-206.4132 494,-196.4133 490.5001,-206.4133 497.5001,-206.4132"/>
</g>
<!-- node_62&#45;&gt;node_58 -->
<g id="edge6" class="edge">
<title>node_62&#45;&gt;node_58</title>
<path fill="none" stroke="#000000" d="M457.6627,-231.8314C435.7917,-220.8959 408.0472,-207.0236 386.2008,-196.1004"/>
<polygon fill="#000000" stroke="#000000" points="387.743,-192.9584 377.2334,-191.6167 384.6124,-199.2194 387.743,-192.9584"/>
</g>
<!-- node_62&#45;&gt;node_59 -->
<g id="edge8" class="edge">
<title>node_62&#45;&gt;node_59</title>
<path fill="none" stroke="#000000" d="M549.7334,-231.9243C580.346,-221.9959 618.4881,-209.6255 650.5155,-199.2382"/>
<polygon fill="#000000" stroke="#000000" points="651.8112,-202.4975 660.2436,-196.0831 649.6516,-195.839 651.8112,-202.4975"/>
</g>
<!-- node_63 -->
<g id="node15" class="node">
<title>node_63</title>
<polygon fill="none" stroke="#000000" points="450.8041,-412 341.1959,-412 341.1959,-376 450.8041,-376 450.8041,-412"/>
<text text-anchor="middle" x="396" y="-389.8" font-family="Times,serif" font-size="14.00" fill="#000000">parse Number: 1</text>
</g>
<!-- node_63&#45;&gt;node_65 -->
<g id="edge5" class="edge">
<title>node_63&#45;&gt;node_65</title>
<path fill="none" stroke="#000000" d="M416.4397,-375.8314C426.3205,-367.0485 438.3324,-356.3712 449.045,-346.8489"/>
<polygon fill="#000000" stroke="#000000" points="451.418,-349.4224 456.5668,-340.1628 446.7674,-344.1906 451.418,-349.4224"/>
</g>
</g>
</svg>
