<?xml version="1.0" encoding="UTF-8" standalone="no"?>
<!DOCTYPE svg PUBLIC "-//W3C//DTD SVG 1.1//EN"
 "http://www.w3.org/Graphics/SVG/1.1/DTD/svg11.dtd">
<!-- Generated by graphviz version 2.40.1 (20161225.0304)
 -->
<!-- Title: %3 Pages: 1 -->
<svg width="1048pt" height="436pt"
 viewBox="0.00 0.00 1048.00 436.00" xmlns="http://www.w3.org/2000/svg" xmlns:xlink="http://www.w3.org/1999/xlink">
<g id="graph0" class="graph" transform="scale(1 1) rotate(0) translate(4 432)">
<title>%3</title>
<polygon fill="#ffffff" stroke="transparent" points="-4,4 -4,-432 1044,-432 1044,4 -4,4"/>
<g id="clust1" class="cluster">
<title>cluster_1202975848</title>
<polygon fill="none" stroke="#000000" points="518,-80 518,-420 1032,-420 1032,-80 518,-80"/>
</g>
<g id="clust2" class="cluster">
<title>cluster_1466045485</title>
<polygon fill="none" stroke="#000000" points="8,-8 8,-132 510,-132 510,-8 8,-8"/>
</g>
<!-- node_53 -->
<g id="node1" class="node">
<title>node_53</title>
<polygon fill="none" stroke="#000000" points="991.6065,-340 718.3935,-340 718.3935,-304 991.6065,-304 991.6065,-340"/>
<text text-anchor="middle" x="855" y="-317.8" font-family="Times,serif" font-size="14.00" fill="#000000">b = plainlib.package1.b.B::__construct([0, 1])</text>
</g>
<!-- node_59 -->
<g id="node7" class="node">
<title>node_59</title>
<polygon fill="none" stroke="#000000" points="752.9854,-268 641.0146,-268 641.0146,-232 752.9854,-232 752.9854,-268"/>
<text text-anchor="middle" x="697" y="-245.8" font-family="Times,serif" font-size="14.00" fill="#000000">erg = b::calc([3])</text>
</g>
<!-- node_53&#45;&gt;node_59 -->
<g id="edge5" class="edge">
<title>node_53&#45;&gt;node_59</title>
<path fill="none" stroke="#000000" d="M815.1299,-303.8314C794.0923,-294.2446 768.1017,-282.4008 745.8604,-272.2655"/>
<polygon fill="#000000" stroke="#000000" points="747.1345,-268.9999 736.5834,-268.038 744.2317,-275.3697 747.1345,-268.9999"/>
</g>
<!-- node_54 -->
<g id="node2" class="node">
<title>node_54</title>
<polygon fill="none" stroke="#000000" points="1005.8041,-412 896.1959,-412 896.1959,-376 1005.8041,-376 1005.8041,-412"/>
<text text-anchor="middle" x="951" y="-389.8" font-family="Times,serif" font-size="14.00" fill="#000000">parse Number: 1</text>
</g>
<!-- node_54&#45;&gt;node_53 -->
<g id="edge10" class="edge">
<title>node_54&#45;&gt;node_53</title>
<path fill="none" stroke="#000000" d="M926.7751,-375.8314C914.8372,-366.8779 900.2744,-355.9558 887.394,-346.2955"/>
<polygon fill="#000000" stroke="#000000" points="889.3171,-343.3629 879.2171,-340.1628 885.1171,-348.9629 889.3171,-343.3629"/>
</g>
<!-- node_55 -->
<g id="node3" class="node">
<title>node_55</title>
<polygon fill="none" stroke="#000000" points="878.8041,-412 769.1959,-412 769.1959,-376 878.8041,-376 878.8041,-412"/>
<text text-anchor="middle" x="824" y="-389.8" font-family="Times,serif" font-size="14.00" fill="#000000">parse Number: 0</text>
</g>
<!-- node_55&#45;&gt;node_53 -->
<g id="edge7" class="edge">
<title>node_55&#45;&gt;node_53</title>
<path fill="none" stroke="#000000" d="M831.8226,-375.8314C835.2109,-367.9617 839.2541,-358.5712 843.0076,-349.8533"/>
<polygon fill="#000000" stroke="#000000" points="846.3321,-350.9822 847.0721,-340.4133 839.9027,-348.214 846.3321,-350.9822"/>
</g>
<!-- node_56 -->
<g id="node4" class="node">
<title>node_56</title>
<polygon fill="none" stroke="#000000" points="700.8041,-340 591.1959,-340 591.1959,-304 700.8041,-304 700.8041,-340"/>
<text text-anchor="middle" x="646" y="-317.8" font-family="Times,serif" font-size="14.00" fill="#000000">parse Number: 3</text>
</g>
<!-- node_56&#45;&gt;node_59 -->
<g id="edge4" class="edge">
<title>node_56&#45;&gt;node_59</title>
<path fill="none" stroke="#000000" d="M658.8695,-303.8314C664.6835,-295.6232 671.6696,-285.7606 678.0646,-276.7323"/>
<polygon fill="#000000" stroke="#000000" points="681.0331,-278.5966 683.9573,-268.4133 675.321,-274.5505 681.0331,-278.5966"/>
</g>
<!-- node_57 -->
<g id="node5" class="node">
<title>node_57</title>
<polygon fill="none" stroke="#000000" points="580,-196 526,-196 526,-160 580,-160 580,-196"/>
<text text-anchor="middle" x="553" y="-173.8" font-family="Times,serif" font-size="14.00" fill="#000000">store b</text>
</g>
<!-- node_58 -->
<g id="node6" class="node">
<title>node_58</title>
<polygon fill="none" stroke="#000000" points="776.2677,-124 525.7323,-124 525.7323,-88 776.2677,-88 776.2677,-124"/>
<text text-anchor="middle" x="651" y="-101.8" font-family="Times,serif" font-size="14.00" fill="#000000">FinishNode &amp;finished&amp;PY_EXECUTOR</text>
</g>
<!-- node_57&#45;&gt;node_58 -->
<g id="edge1" class="edge">
<title>node_57&#45;&gt;node_58</title>
<path fill="none" stroke="#000000" d="M577.7295,-159.8314C589.9162,-150.8779 604.7823,-139.9558 617.9312,-130.2955"/>
<polygon fill="#000000" stroke="#000000" points="620.2918,-132.9042 626.2784,-124.1628 616.1473,-127.263 620.2918,-132.9042"/>
</g>
<!-- node_51 -->
<g id="node14" class="node">
<title>node_51</title>
<polygon fill="none" stroke="#000000" points="268.1749,-52 15.8251,-52 15.8251,-16 268.1749,-16 268.1749,-52"/>
<text text-anchor="middle" x="142" y="-29.8" font-family="Times,serif" font-size="14.00" fill="#000000">accept &amp;finished&amp;PY_EXECUTOR &#160;as is</text>
</g>
<!-- node_58&#45;&gt;node_51 -->
<g id="edge16" class="edge">
<title>node_58&#45;&gt;node_51</title>
<path fill="none" stroke="#000000" stroke-dasharray="1,5" d="M560.8801,-87.9688C545.28,-85.1135 529.1943,-82.3364 514,-80 412.3399,-64.3678 383.9392,-65.1658 278.2367,-52.1363"/>
<polygon fill="#000000" stroke="#000000" points="278.4623,-48.6375 268.1064,-50.8747 277.5972,-55.5838 278.4623,-48.6375"/>
</g>
<!-- node_59&#45;&gt;node_57 -->
<g id="edge8" class="edge">
<title>node_59&#45;&gt;node_57</title>
<path fill="none" stroke="#000000" d="M660.6627,-231.8314C638.7917,-220.8959 611.0472,-207.0236 589.2008,-196.1004"/>
<polygon fill="#000000" stroke="#000000" points="590.743,-192.9584 580.2334,-191.6167 587.6124,-199.2194 590.743,-192.9584"/>
</g>
<!-- node_60 -->
<g id="node8" class="node">
<title>node_60</title>
<polygon fill="none" stroke="#000000" points="796.0269,-196 597.9731,-196 597.9731,-160 796.0269,-160 796.0269,-196"/>
<text text-anchor="middle" x="697" y="-173.8" font-family="Times,serif" font-size="14.00" fill="#000000">transmit b&#45;&gt;JAVA_EXECUTOR</text>
</g>
<!-- node_59&#45;&gt;node_60 -->
<g id="edge2" class="edge">
<title>node_59&#45;&gt;node_60</title>
<path fill="none" stroke="#000000" d="M697,-231.8314C697,-224.131 697,-214.9743 697,-206.4166"/>
<polygon fill="#000000" stroke="#000000" points="700.5001,-206.4132 697,-196.4133 693.5001,-206.4133 700.5001,-206.4132"/>
</g>
<!-- node_61 -->
<g id="node9" class="node">
<title>node_61</title>
<polygon fill="none" stroke="#000000" points="1023.6563,-196 814.3437,-196 814.3437,-160 1023.6563,-160 1023.6563,-196"/>
<text text-anchor="middle" x="919" y="-173.8" font-family="Times,serif" font-size="14.00" fill="#000000">transmit erg&#45;&gt;JAVA_EXECUTOR</text>
</g>
<!-- node_59&#45;&gt;node_61 -->
<g id="edge3" class="edge">
<title>node_59&#45;&gt;node_61</title>
<path fill="none" stroke="#000000" d="M752.7334,-231.9243C783.346,-221.9959 821.4881,-209.6255 853.5155,-199.2382"/>
<polygon fill="#000000" stroke="#000000" points="854.8112,-202.4975 863.2436,-196.0831 852.6516,-195.839 854.8112,-202.4975"/>
</g>
<!-- node_60&#45;&gt;node_58 -->
<g id="edge9" class="edge">
<title>node_60&#45;&gt;node_58</title>
<path fill="none" stroke="#000000" d="M685.3923,-159.8314C680.2022,-151.7079 673.9768,-141.9637 668.2575,-133.0118"/>
<polygon fill="#000000" stroke="#000000" points="671.0974,-130.9559 662.764,-124.4133 665.1985,-134.7246 671.0974,-130.9559"/>
</g>
<!-- node_48 -->
<g id="node11" class="node">
<title>node_48</title>
<polygon fill="none" stroke="#000000" points="379.7455,-52 286.2545,-52 286.2545,-16 379.7455,-16 379.7455,-52"/>
<text text-anchor="middle" x="333" y="-29.8" font-family="Times,serif" font-size="14.00" fill="#000000">accept b &#160;as is</text>
</g>
<!-- node_60&#45;&gt;node_48 -->
<g id="edge14" class="edge">
<title>node_60&#45;&gt;node_48</title>
<path fill="none" stroke="#000000" stroke-dasharray="1,5" d="M753.5483,-159.893C766.0163,-153.1563 777.6768,-144.0913 785,-132 796.9726,-112.2319 800.7552,-96.9085 785,-80 756.4567,-49.3672 464.3211,-59.1973 389.8497,-51.374"/>
<polygon fill="#000000" stroke="#000000" points="390.2318,-47.8933 379.8401,-49.958 389.2512,-54.8243 390.2318,-47.8933"/>
</g>
<!-- node_61&#45;&gt;node_58 -->
<g id="edge6" class="edge">
<title>node_61&#45;&gt;node_58</title>
<path fill="none" stroke="#000000" d="M851.7182,-159.9243C814.1253,-149.8247 767.1267,-137.1982 728.0602,-126.7027"/>
<polygon fill="#000000" stroke="#000000" points="728.8751,-123.2976 718.3095,-124.0831 727.0589,-130.0579 728.8751,-123.2976"/>
</g>
<!-- node_50 -->
<g id="node13" class="node">
<title>node_50</title>
<polygon fill="none" stroke="#000000" points="502.3757,-52 397.6243,-52 397.6243,-16 502.3757,-16 502.3757,-52"/>
<text text-anchor="middle" x="450" y="-29.8" font-family="Times,serif" font-size="14.00" fill="#000000">accept erg &#160;as is</text>
</g>
<!-- node_61&#45;&gt;node_50 -->
<g id="edge15" class="edge">
<title>node_61&#45;&gt;node_50</title>
<path fill="none" stroke="#000000" stroke-dasharray="1,5" d="M904.0039,-159.9732C883.8555,-137.1293 845.7224,-98.5065 804,-80 753.184,-57.4599 599.747,-43.9211 512.471,-37.8368"/>
<polygon fill="#000000" stroke="#000000" points="512.6416,-34.3404 502.4259,-37.1491 512.1634,-41.324 512.6416,-34.3404"/>
</g>
<!-- node_62 -->
<g id="node10" class="node">
<title>node_62</title>
<polygon fill="none" stroke="#000000" points="639,-412 535.9769,-394 639,-376 742.0231,-394 639,-412"/>
<text text-anchor="middle" x="639" y="-389.8" font-family="Times,serif" font-size="14.00" fill="#000000">PY_EXECUTOR</text>
</g>
<!-- node_49 -->
<g id="node12" class="node">
<title>node_49</title>
<polygon fill="none" stroke="#000000" points="371.5381,-124 294.4619,-124 294.4619,-88 371.5381,-88 371.5381,-124"/>
<text text-anchor="middle" x="333" y="-101.8" font-family="Times,serif" font-size="14.00" fill="#000000">send graph</text>
</g>
<!-- node_49&#45;&gt;node_48 -->
<g id="edge13" class="edge">
<title>node_49&#45;&gt;node_48</title>
<path fill="none" stroke="#000000" d="M333,-87.8314C333,-80.131 333,-70.9743 333,-62.4166"/>
<polygon fill="#000000" stroke="#000000" points="336.5001,-62.4132 333,-52.4133 329.5001,-62.4133 336.5001,-62.4132"/>
</g>
<!-- node_49&#45;&gt;node_50 -->
<g id="edge11" class="edge">
<title>node_49&#45;&gt;node_50</title>
<path fill="none" stroke="#000000" d="M362.524,-87.8314C377.4891,-78.6221 395.8386,-67.3301 411.8603,-57.4706"/>
<polygon fill="#000000" stroke="#000000" points="413.8032,-60.3847 420.4854,-52.1628 410.1345,-54.423 413.8032,-60.3847"/>
</g>
<!-- node_49&#45;&gt;node_51 -->
<g id="edge12" class="edge">
<title>node_49&#45;&gt;node_51</title>
<path fill="none" stroke="#000000" d="M294.4269,-89.1266C287.0173,-86.0084 279.2942,-82.8418 272,-80 250.3338,-71.559 226.3955,-62.9016 205.0277,-55.4072"/>
<polygon fill="#000000" stroke="#000000" points="206.0032,-52.0406 195.4083,-52.0505 203.6969,-58.6498 206.0032,-52.0406"/>
</g>
<!-- node_52 -->
<g id="node15" class="node">
<title>node_52</title>
<polygon fill="none" stroke="#000000" points="147,-124 31.4748,-106 147,-88 262.5252,-106 147,-124"/>
<text text-anchor="middle" x="147" y="-101.8" font-family="Times,serif" font-size="14.00" fill="#000000">JAVA_EXECUTOR</text>
</g>
</g>
</svg>
