<?xml version="1.0" encoding="UTF-8" standalone="no"?>
<!DOCTYPE svg PUBLIC "-//W3C//DTD SVG 1.1//EN"
 "http://www.w3.org/Graphics/SVG/1.1/DTD/svg11.dtd">
<!-- Generated by graphviz version 2.40.1 (20161225.0304)
 -->
<!-- Title: %3 Pages: 1 -->
<svg width="954pt" height="436pt"
 viewBox="0.00 0.00 954.00 436.00" xmlns="http://www.w3.org/2000/svg" xmlns:xlink="http://www.w3.org/1999/xlink">
<g id="graph0" class="graph" transform="scale(1 1) rotate(0) translate(4 432)">
<title>%3</title>
<polygon fill="#ffffff" stroke="transparent" points="-4,4 -4,-432 950,-432 950,4 -4,4"/>
<g id="clust1" class="cluster">
<title>cluster_782378927</title>
<polygon fill="none" stroke="#000000" points="8,-8 8,-132 416,-132 416,-8 8,-8"/>
</g>
<g id="clust2" class="cluster">
<title>cluster_70807318</title>
<polygon fill="none" stroke="#000000" points="424,-80 424,-420 938,-420 938,-80 424,-80"/>
</g>
<!-- node_16 -->
<g id="node1" class="node">
<title>node_16</title>
<polygon fill="none" stroke="#000000" points="342.5381,-124 265.4619,-124 265.4619,-88 342.5381,-88 342.5381,-124"/>
<text text-anchor="middle" x="304" y="-101.8" font-family="Times,serif" font-size="14.00" fill="#000000">send graph</text>
</g>
<!-- node_17 -->
<g id="node2" class="node">
<title>node_17</title>
<polygon fill="none" stroke="#000000" points="327.3751,-52 254.6249,-52 254.6249,-16 327.3751,-16 327.3751,-52"/>
<text text-anchor="middle" x="291" y="-29.8" font-family="Times,serif" font-size="14.00" fill="#000000">accept erg</text>
</g>
<!-- node_16&#45;&gt;node_17 -->
<g id="edge1" class="edge">
<title>node_16&#45;&gt;node_17</title>
<path fill="none" stroke="#000000" d="M300.7196,-87.8314C299.3292,-80.131 297.6759,-70.9743 296.1308,-62.4166"/>
<polygon fill="#000000" stroke="#000000" points="299.5458,-61.6322 294.3246,-52.4133 292.6572,-62.8761 299.5458,-61.6322"/>
</g>
<!-- node_18 -->
<g id="node3" class="node">
<title>node_18</title>
<polygon fill="none" stroke="#000000" points="236.175,-52 15.825,-52 15.825,-16 236.175,-16 236.175,-52"/>
<text text-anchor="middle" x="126" y="-29.8" font-family="Times,serif" font-size="14.00" fill="#000000">accept &amp;finished&amp;PY_EXECUTOR</text>
</g>
<!-- node_16&#45;&gt;node_18 -->
<g id="edge2" class="edge">
<title>node_16&#45;&gt;node_18</title>
<path fill="none" stroke="#000000" d="M273.0239,-87.9115C267.7525,-85.11 262.2755,-82.3654 257,-80 236.873,-70.9758 214.3968,-62.5255 193.8224,-55.3919"/>
<polygon fill="#000000" stroke="#000000" points="194.8018,-52.0279 184.2072,-52.1047 192.5373,-58.6515 194.8018,-52.0279"/>
</g>
<!-- node_15 -->
<g id="node5" class="node">
<title>node_15</title>
<polygon fill="none" stroke="#000000" points="408.2456,-52 345.7544,-52 345.7544,-16 408.2456,-16 408.2456,-52"/>
<text text-anchor="middle" x="377" y="-29.8" font-family="Times,serif" font-size="14.00" fill="#000000">accept b</text>
</g>
<!-- node_16&#45;&gt;node_15 -->
<g id="edge3" class="edge">
<title>node_16&#45;&gt;node_15</title>
<path fill="none" stroke="#000000" d="M322.421,-87.8314C331.1529,-79.219 341.7317,-68.7851 351.2423,-59.4048"/>
<polygon fill="#000000" stroke="#000000" points="353.923,-61.6769 358.5849,-52.1628 349.0075,-56.6931 353.923,-61.6769"/>
</g>
<!-- node_19 -->
<g id="node4" class="node">
<title>node_19</title>
<polygon fill="none" stroke="#000000" points="132,-124 16.4748,-106 132,-88 247.5252,-106 132,-124"/>
<text text-anchor="middle" x="132" y="-101.8" font-family="Times,serif" font-size="14.00" fill="#000000">JAVA_EXECUTOR</text>
</g>
<!-- node_20 -->
<g id="node6" class="node">
<title>node_20</title>
<polygon fill="none" stroke="#000000" points="713.6563,-196 504.3437,-196 504.3437,-160 713.6563,-160 713.6563,-196"/>
<text text-anchor="middle" x="609" y="-173.8" font-family="Times,serif" font-size="14.00" fill="#000000">transmit erg&#45;&gt;JAVA_EXECUTOR</text>
</g>
<!-- node_20&#45;&gt;node_17 -->
<g id="edge16" class="edge">
<title>node_20&#45;&gt;node_17</title>
<path fill="none" stroke="#000000" stroke-dasharray="1,5" d="M660.4977,-159.8721C672.593,-153.066 683.9885,-143.9727 691,-132 702.6791,-112.057 706.6845,-96.9741 691,-80 665.6872,-52.606 406.2538,-59.882 337.5351,-51.1128"/>
<polygon fill="#000000" stroke="#000000" points="338.0518,-47.6504 327.6058,-49.4199 336.8753,-54.5509 338.0518,-47.6504"/>
</g>
<!-- node_25 -->
<g id="node11" class="node">
<title>node_25</title>
<polygon fill="none" stroke="#000000" points="682.2677,-124 431.7323,-124 431.7323,-88 682.2677,-88 682.2677,-124"/>
<text text-anchor="middle" x="557" y="-101.8" font-family="Times,serif" font-size="14.00" fill="#000000">FinishNode &amp;finished&amp;PY_EXECUTOR</text>
</g>
<!-- node_20&#45;&gt;node_25 -->
<g id="edge9" class="edge">
<title>node_20&#45;&gt;node_25</title>
<path fill="none" stroke="#000000" d="M595.8782,-159.8314C589.9501,-151.6232 582.8271,-141.7606 576.3067,-132.7323"/>
<polygon fill="#000000" stroke="#000000" points="578.9908,-130.4708 570.2985,-124.4133 573.316,-134.5693 578.9908,-130.4708"/>
</g>
<!-- node_21 -->
<g id="node7" class="node">
<title>node_21</title>
<polygon fill="none" stroke="#000000" points="911.8041,-412 802.1959,-412 802.1959,-376 911.8041,-376 911.8041,-412"/>
<text text-anchor="middle" x="857" y="-389.8" font-family="Times,serif" font-size="14.00" fill="#000000">parse Number: 0</text>
</g>
<!-- node_26 -->
<g id="node12" class="node">
<title>node_26</title>
<polygon fill="none" stroke="#000000" points="897.6065,-340 624.3935,-340 624.3935,-304 897.6065,-304 897.6065,-340"/>
<text text-anchor="middle" x="761" y="-317.8" font-family="Times,serif" font-size="14.00" fill="#000000">b = plainlib.package1.b.B::__construct([0, 1])</text>
</g>
<!-- node_21&#45;&gt;node_26 -->
<g id="edge10" class="edge">
<title>node_21&#45;&gt;node_26</title>
<path fill="none" stroke="#000000" d="M832.7751,-375.8314C820.8372,-366.8779 806.2744,-355.9558 793.394,-346.2955"/>
<polygon fill="#000000" stroke="#000000" points="795.3171,-343.3629 785.2171,-340.1628 791.1171,-348.9629 795.3171,-343.3629"/>
</g>
<!-- node_22 -->
<g id="node8" class="node">
<title>node_22</title>
<polygon fill="none" stroke="#000000" points="784.8041,-412 675.1959,-412 675.1959,-376 784.8041,-376 784.8041,-412"/>
<text text-anchor="middle" x="730" y="-389.8" font-family="Times,serif" font-size="14.00" fill="#000000">parse Number: 1</text>
</g>
<!-- node_22&#45;&gt;node_26 -->
<g id="edge7" class="edge">
<title>node_22&#45;&gt;node_26</title>
<path fill="none" stroke="#000000" d="M737.8226,-375.8314C741.2109,-367.9617 745.2541,-358.5712 749.0076,-349.8533"/>
<polygon fill="#000000" stroke="#000000" points="752.3321,-350.9822 753.0721,-340.4133 745.9027,-348.214 752.3321,-350.9822"/>
</g>
<!-- node_23 -->
<g id="node9" class="node">
<title>node_23</title>
<polygon fill="none" stroke="#000000" points="606.8041,-340 497.1959,-340 497.1959,-304 606.8041,-304 606.8041,-340"/>
<text text-anchor="middle" x="552" y="-317.8" font-family="Times,serif" font-size="14.00" fill="#000000">parse Number: 3</text>
</g>
<!-- node_27 -->
<g id="node13" class="node">
<title>node_27</title>
<polygon fill="none" stroke="#000000" points="664.9854,-268 553.0146,-268 553.0146,-232 664.9854,-232 664.9854,-268"/>
<text text-anchor="middle" x="609" y="-245.8" font-family="Times,serif" font-size="14.00" fill="#000000">erg = b::calc([3])</text>
</g>
<!-- node_23&#45;&gt;node_27 -->
<g id="edge8" class="edge">
<title>node_23&#45;&gt;node_27</title>
<path fill="none" stroke="#000000" d="M566.3835,-303.8314C572.9486,-295.5386 580.8507,-285.557 588.0578,-276.4533"/>
<polygon fill="#000000" stroke="#000000" points="590.9599,-278.4262 594.4228,-268.4133 585.4716,-274.0813 590.9599,-278.4262"/>
</g>
<!-- node_24 -->
<g id="node10" class="node">
<title>node_24</title>
<polygon fill="none" stroke="#000000" points="486,-196 432,-196 432,-160 486,-160 486,-196"/>
<text text-anchor="middle" x="459" y="-173.8" font-family="Times,serif" font-size="14.00" fill="#000000">store b</text>
</g>
<!-- node_24&#45;&gt;node_25 -->
<g id="edge4" class="edge">
<title>node_24&#45;&gt;node_25</title>
<path fill="none" stroke="#000000" d="M483.7295,-159.8314C495.9162,-150.8779 510.7823,-139.9558 523.9312,-130.2955"/>
<polygon fill="#000000" stroke="#000000" points="526.2918,-132.9042 532.2784,-124.1628 522.1473,-127.263 526.2918,-132.9042"/>
</g>
<!-- node_25&#45;&gt;node_18 -->
<g id="edge15" class="edge">
<title>node_25&#45;&gt;node_18</title>
<path fill="none" stroke="#000000" stroke-dasharray="1,5" d="M464.2189,-87.9714C449.4421,-85.2214 434.3128,-82.4772 420,-80 387.0743,-74.3014 312.3545,-62.6163 246.4858,-52.4499"/>
<polygon fill="#000000" stroke="#000000" points="246.8352,-48.9625 236.4186,-50.8973 245.7682,-55.8807 246.8352,-48.9625"/>
</g>
<!-- node_26&#45;&gt;node_27 -->
<g id="edge5" class="edge">
<title>node_26&#45;&gt;node_27</title>
<path fill="none" stroke="#000000" d="M722.644,-303.8314C702.4956,-294.2874 677.6248,-282.5065 656.2917,-272.4013"/>
<polygon fill="#000000" stroke="#000000" points="657.6159,-269.1558 647.0802,-268.038 654.6193,-275.482 657.6159,-269.1558"/>
</g>
<!-- node_27&#45;&gt;node_20 -->
<g id="edge11" class="edge">
<title>node_27&#45;&gt;node_20</title>
<path fill="none" stroke="#000000" d="M609,-231.8314C609,-224.131 609,-214.9743 609,-206.4166"/>
<polygon fill="#000000" stroke="#000000" points="612.5001,-206.4132 609,-196.4133 605.5001,-206.4133 612.5001,-206.4132"/>
</g>
<!-- node_27&#45;&gt;node_24 -->
<g id="edge12" class="edge">
<title>node_27&#45;&gt;node_24</title>
<path fill="none" stroke="#000000" d="M570.3818,-231.9565C550.2467,-222.4922 525.0344,-210.5539 495.099,-196.0089"/>
<polygon fill="#000000" stroke="#000000" points="496.6193,-192.8564 486.0963,-191.6253 493.5548,-199.15 496.6193,-192.8564"/>
</g>
<!-- node_28 -->
<g id="node14" class="node">
<title>node_28</title>
<polygon fill="none" stroke="#000000" points="930.0269,-196 731.9731,-196 731.9731,-160 930.0269,-160 930.0269,-196"/>
<text text-anchor="middle" x="831" y="-173.8" font-family="Times,serif" font-size="14.00" fill="#000000">transmit b&#45;&gt;JAVA_EXECUTOR</text>
</g>
<!-- node_27&#45;&gt;node_28 -->
<g id="edge6" class="edge">
<title>node_27&#45;&gt;node_28</title>
<path fill="none" stroke="#000000" d="M664.7334,-231.9243C695.346,-221.9959 733.4881,-209.6255 765.5155,-199.2382"/>
<polygon fill="#000000" stroke="#000000" points="766.8112,-202.4975 775.2436,-196.0831 764.6516,-195.839 766.8112,-202.4975"/>
</g>
<!-- node_28&#45;&gt;node_15 -->
<g id="edge14" class="edge">
<title>node_28&#45;&gt;node_15</title>
<path fill="none" stroke="#000000" stroke-dasharray="1,5" d="M814.6213,-159.6406C793.082,-136.8151 752.9089,-98.5993 710,-80 658.4105,-57.638 495.8268,-42.8785 418.563,-36.9458"/>
<polygon fill="#000000" stroke="#000000" points="418.4825,-33.4298 408.2475,-36.1674 417.9557,-40.41 418.4825,-33.4298"/>
</g>
<!-- node_28&#45;&gt;node_25 -->
<g id="edge13" class="edge">
<title>node_28&#45;&gt;node_25</title>
<path fill="none" stroke="#000000" d="M762.2119,-159.9243C723.6959,-149.8033 675.5229,-137.1447 635.5316,-126.6361"/>
<polygon fill="#000000" stroke="#000000" points="636.3776,-123.2396 625.8164,-124.0831 634.5985,-130.0098 636.3776,-123.2396"/>
</g>
<!-- node_29 -->
<g id="node15" class="node">
<title>node_29</title>
<polygon fill="none" stroke="#000000" points="545,-412 441.9769,-394 545,-376 648.0231,-394 545,-412"/>
<text text-anchor="middle" x="545" y="-389.8" font-family="Times,serif" font-size="14.00" fill="#000000">PY_EXECUTOR</text>
</g>
</g>
</svg>
