<?xml version="1.0" encoding="UTF-8" standalone="no"?>
<!DOCTYPE svg PUBLIC "-//W3C//DTD SVG 1.1//EN"
 "http://www.w3.org/Graphics/SVG/1.1/DTD/svg11.dtd">
<!-- Generated by graphviz version 2.40.1 (20161225.0304)
 -->
<!-- Title: %3 Pages: 1 -->
<svg width="1730pt" height="652pt"
 viewBox="0.00 0.00 1730.00 652.00" xmlns="http://www.w3.org/2000/svg" xmlns:xlink="http://www.w3.org/1999/xlink">
<g id="graph0" class="graph" transform="scale(1 1) rotate(0) translate(4 648)">
<title>%3</title>
<polygon fill="#ffffff" stroke="transparent" points="-4,4 -4,-648 1726,-648 1726,4 -4,4"/>
<g id="clust1" class="cluster">
<title>cluster_2128029086</title>
<polygon fill="none" stroke="#000000" points="8,-80 8,-636 546,-636 546,-80 8,-80"/>
</g>
<g id="clust2" class="cluster">
<title>cluster_1028780142</title>
<polygon fill="none" stroke="#000000" points="554,-8 554,-132 1664,-132 1664,-8 554,-8"/>
</g>
<!-- node_78 -->
<g id="node1" class="node">
<title>node_78</title>
<polygon fill="none" stroke="#000000" points="313.5502,-196 64.4498,-196 64.4498,-160 313.5502,-160 313.5502,-196"/>
<text text-anchor="middle" x="189" y="-173.8" font-family="Times,serif" font-size="14.00" fill="#000000">transmit state_after&#45;&gt;JAVA_EXECUTOR</text>
</g>
<!-- node_87 -->
<g id="node10" class="node">
<title>node_87</title>
<polygon fill="none" stroke="#000000" points="426.2677,-124 175.7323,-124 175.7323,-88 426.2677,-88 426.2677,-124"/>
<text text-anchor="middle" x="301" y="-101.8" font-family="Times,serif" font-size="14.00" fill="#000000">FinishNode &amp;finished&amp;PY_EXECUTOR</text>
</g>
<!-- node_78&#45;&gt;node_87 -->
<g id="edge6" class="edge">
<title>node_78&#45;&gt;node_87</title>
<path fill="none" stroke="#000000" d="M217.2623,-159.8314C231.4552,-150.7074 248.8282,-139.539 264.0636,-129.7449"/>
<polygon fill="#000000" stroke="#000000" points="266.2276,-132.5146 272.7467,-124.1628 262.4422,-126.6263 266.2276,-132.5146"/>
</g>
<!-- node_76 -->
<g id="node25" class="node">
<title>node_76</title>
<polygon fill="none" stroke="#000000" points="925.5429,-124 812.4571,-124 812.4571,-88 925.5429,-88 925.5429,-124"/>
<text text-anchor="middle" x="869" y="-101.8" font-family="Times,serif" font-size="14.00" fill="#000000">accept state_after</text>
</g>
<!-- node_78&#45;&gt;node_76 -->
<g id="edge22" class="edge">
<title>node_78&#45;&gt;node_76</title>
<path fill="none" stroke="#000000" stroke-dasharray="1,5" d="M313.7881,-160.9243C316.888,-160.6011 319.9626,-160.2922 323,-160 535.7141,-139.5383 594.305,-177.9608 803,-132 808.4122,-130.8081 813.9611,-129.2318 819.4312,-127.4431"/>
<polygon fill="#000000" stroke="#000000" points="820.8708,-130.6472 829.1461,-124.0313 818.5513,-124.0427 820.8708,-130.6472"/>
</g>
<!-- node_79 -->
<g id="node2" class="node">
<title>node_79</title>
<polygon fill="none" stroke="#000000" points="537.7033,-268 314.2967,-268 314.2967,-232 537.7033,-232 537.7033,-268"/>
<text text-anchor="middle" x="426" y="-245.8" font-family="Times,serif" font-size="14.00" fill="#000000">n2 = b::calc_append_inplace([n1, 2])</text>
</g>
<!-- node_85 -->
<g id="node8" class="node">
<title>node_85</title>
<polygon fill="none" stroke="#000000" points="537.5269,-196 332.4731,-196 332.4731,-160 537.5269,-160 537.5269,-196"/>
<text text-anchor="middle" x="435" y="-173.8" font-family="Times,serif" font-size="14.00" fill="#000000">transmit n2&#45;&gt;JAVA_EXECUTOR</text>
</g>
<!-- node_79&#45;&gt;node_85 -->
<g id="edge5" class="edge">
<title>node_79&#45;&gt;node_85</title>
<path fill="none" stroke="#000000" d="M428.2711,-231.8314C429.2336,-224.131 430.3782,-214.9743 431.4479,-206.4166"/>
<polygon fill="#000000" stroke="#000000" points="434.9309,-206.7702 432.6983,-196.4133 427.9849,-205.9019 434.9309,-206.7702"/>
</g>
<!-- node_80 -->
<g id="node3" class="node">
<title>node_80</title>
<polygon fill="none" stroke="#000000" points="190.2307,-484 15.7693,-484 15.7693,-448 190.2307,-448 190.2307,-484"/>
<text text-anchor="middle" x="103" y="-461.8" font-family="Times,serif" font-size="14.00" fill="#000000">state_before = b::__str__([])</text>
</g>
<!-- node_84 -->
<g id="node7" class="node">
<title>node_84</title>
<polygon fill="none" stroke="#000000" points="170.9795,-412 85.0205,-412 85.0205,-376 170.9795,-376 170.9795,-412"/>
<text text-anchor="middle" x="128" y="-389.8" font-family="Times,serif" font-size="14.00" fill="#000000">b::set_b([2])</text>
</g>
<!-- node_80&#45;&gt;node_84 -->
<g id="edge3" class="edge">
<title>node_80&#45;&gt;node_84</title>
<path fill="none" stroke="#000000" d="M109.3086,-447.8314C112.0117,-440.0463 115.2316,-430.7729 118.231,-422.1347"/>
<polygon fill="#000000" stroke="#000000" points="121.6327,-423.0081 121.6065,-412.4133 115.02,-420.7119 121.6327,-423.0081"/>
</g>
<!-- node_89 -->
<g id="node12" class="node">
<title>node_89</title>
<polygon fill="none" stroke="#000000" points="275.9336,-268 16.0664,-268 16.0664,-232 275.9336,-232 275.9336,-268"/>
<text text-anchor="middle" x="146" y="-245.8" font-family="Times,serif" font-size="14.00" fill="#000000">transmit state_before&#45;&gt;JAVA_EXECUTOR</text>
</g>
<!-- node_80&#45;&gt;node_89 -->
<g id="edge7" class="edge">
<title>node_80&#45;&gt;node_89</title>
<path fill="none" stroke="#000000" d="M84.9031,-447.803C56.3368,-416.7963 6.9744,-352.3834 37,-304 45.3126,-290.605 58.0454,-280.4304 71.9138,-272.7369"/>
<polygon fill="#000000" stroke="#000000" points="73.8332,-275.6872 81.1563,-268.0306 70.6569,-269.4494 73.8332,-275.6872"/>
</g>
<!-- node_81 -->
<g id="node4" class="node">
<title>node_81</title>
<polygon fill="none" stroke="#000000" points="302,-556 248,-556 248,-520 302,-520 302,-556"/>
<text text-anchor="middle" x="275" y="-533.8" font-family="Times,serif" font-size="14.00" fill="#000000">load b</text>
</g>
<!-- node_81&#45;&gt;node_80 -->
<g id="edge15" class="edge">
<title>node_81&#45;&gt;node_80</title>
<path fill="none" stroke="#000000" d="M247.7461,-526.5914C223.1294,-516.2867 186.2117,-500.8328 155.8221,-488.1116"/>
<polygon fill="#000000" stroke="#000000" points="156.7845,-484.7202 146.2086,-484.0873 154.0815,-491.1773 156.7845,-484.7202"/>
</g>
<!-- node_82 -->
<g id="node5" class="node">
<title>node_82</title>
<polygon fill="none" stroke="#000000" points="317.8041,-484 208.1959,-484 208.1959,-448 317.8041,-448 317.8041,-484"/>
<text text-anchor="middle" x="263" y="-461.8" font-family="Times,serif" font-size="14.00" fill="#000000">parse Number: 2</text>
</g>
<!-- node_82&#45;&gt;node_79 -->
<g id="edge12" class="edge">
<title>node_82&#45;&gt;node_79</title>
<path fill="none" stroke="#000000" d="M252.5623,-447.8578C235.4778,-415.4977 206.5299,-347.1733 239,-304 249.2137,-290.4196 280.2637,-279.1752 314.2022,-270.5275"/>
<polygon fill="#000000" stroke="#000000" points="315.4432,-273.8268 324.3198,-268.0427 313.7736,-267.0288 315.4432,-273.8268"/>
</g>
<!-- node_82&#45;&gt;node_84 -->
<g id="edge1" class="edge">
<title>node_82&#45;&gt;node_84</title>
<path fill="none" stroke="#000000" d="M228.9338,-447.8314C211.3467,-438.4516 189.7084,-426.9112 170.9832,-416.9244"/>
<polygon fill="#000000" stroke="#000000" points="172.5259,-413.7805 162.0553,-412.1628 169.2318,-419.957 172.5259,-413.7805"/>
</g>
<!-- node_83 -->
<g id="node6" class="node">
<title>node_83</title>
<polygon fill="none" stroke="#000000" points="479.2456,-628 416.7544,-628 416.7544,-592 479.2456,-592 479.2456,-628"/>
<text text-anchor="middle" x="448" y="-605.8" font-family="Times,serif" font-size="14.00" fill="#000000">accept b</text>
</g>
<!-- node_83&#45;&gt;node_81 -->
<g id="edge13" class="edge">
<title>node_83&#45;&gt;node_81</title>
<path fill="none" stroke="#000000" d="M416.671,-596.9613C387.1494,-584.6749 342.9131,-566.2644 311.741,-553.291"/>
<polygon fill="#000000" stroke="#000000" points="312.6917,-549.8957 302.1145,-549.2846 310.002,-556.3584 312.6917,-549.8957"/>
</g>
<!-- node_88 -->
<g id="node11" class="node">
<title>node_88</title>
<polygon fill="none" stroke="#000000" points="210.1206,-340 45.8794,-340 45.8794,-304 210.1206,-304 210.1206,-340"/>
<text text-anchor="middle" x="128" y="-317.8" font-family="Times,serif" font-size="14.00" fill="#000000">state_after = b::__str__([])</text>
</g>
<!-- node_84&#45;&gt;node_88 -->
<g id="edge4" class="edge">
<title>node_84&#45;&gt;node_88</title>
<path fill="none" stroke="#000000" d="M128,-375.8314C128,-368.131 128,-358.9743 128,-350.4166"/>
<polygon fill="#000000" stroke="#000000" points="131.5001,-350.4132 128,-340.4133 124.5001,-350.4133 131.5001,-350.4132"/>
</g>
<!-- node_85&#45;&gt;node_87 -->
<g id="edge2" class="edge">
<title>node_85&#45;&gt;node_87</title>
<path fill="none" stroke="#000000" d="M401.1861,-159.8314C383.7293,-150.4516 362.2513,-138.9112 343.6648,-128.9244"/>
<polygon fill="#000000" stroke="#000000" points="345.2686,-125.8129 334.803,-124.1628 341.9554,-131.9792 345.2686,-125.8129"/>
</g>
<!-- node_73 -->
<g id="node22" class="node">
<title>node_73</title>
<polygon fill="none" stroke="#000000" points="1251.7456,-124 1182.2544,-124 1182.2544,-88 1251.7456,-88 1251.7456,-124"/>
<text text-anchor="middle" x="1217" y="-101.8" font-family="Times,serif" font-size="14.00" fill="#000000">accept n2</text>
</g>
<!-- node_85&#45;&gt;node_73 -->
<g id="edge19" class="edge">
<title>node_85&#45;&gt;node_73</title>
<path fill="none" stroke="#000000" stroke-dasharray="1,5" d="M537.7943,-174.2612C726.4121,-167.008 1113.9427,-150.1379 1173,-132 1175.958,-131.0915 1178.9267,-129.948 1181.8482,-128.6504"/>
<polygon fill="#000000" stroke="#000000" points="1183.5828,-131.696 1190.9482,-124.0802 1180.4411,-125.4406 1183.5828,-131.696"/>
</g>
<!-- node_86 -->
<g id="node9" class="node">
<title>node_86</title>
<polygon fill="none" stroke="#000000" points="538.4906,-340 247.5094,-340 247.5094,-304 538.4906,-304 538.4906,-340"/>
<text text-anchor="middle" x="393" y="-317.8" font-family="Times,serif" font-size="14.00" fill="#000000">cast n1 from Arr to plainlib.package1.b.Numbers</text>
</g>
<!-- node_86&#45;&gt;node_79 -->
<g id="edge10" class="edge">
<title>node_86&#45;&gt;node_79</title>
<path fill="none" stroke="#000000" d="M401.3273,-303.8314C404.973,-295.8771 409.3309,-286.369 413.3627,-277.5723"/>
<polygon fill="#000000" stroke="#000000" points="416.5757,-278.9622 417.5606,-268.4133 410.2123,-276.0456 416.5757,-278.9622"/>
</g>
<!-- node_70 -->
<g id="node19" class="node">
<title>node_70</title>
<polygon fill="none" stroke="#000000" points="1164.175,-124 943.825,-124 943.825,-88 1164.175,-88 1164.175,-124"/>
<text text-anchor="middle" x="1054" y="-101.8" font-family="Times,serif" font-size="14.00" fill="#000000">accept &amp;finished&amp;PY_EXECUTOR</text>
</g>
<!-- node_87&#45;&gt;node_70 -->
<g id="edge25" class="edge">
<title>node_87&#45;&gt;node_70</title>
<path fill="none" stroke="#000000" stroke-dasharray="1,5" d="M392.0998,-124.0094C514.2694,-145.3897 737.6334,-174.7468 926,-146 950.2589,-142.2978 976.2402,-134.8634 998.4133,-127.3977"/>
<polygon fill="#000000" stroke="#000000" points="999.6776,-130.664 1007.9888,-124.0933 997.394,-124.047 999.6776,-130.664"/>
</g>
<!-- node_88&#45;&gt;node_78 -->
<g id="edge8" class="edge">
<title>node_88&#45;&gt;node_78</title>
<path fill="none" stroke="#000000" d="M207.0693,-303.9106C240.9936,-294.3979 275.1221,-281.8434 285,-268 294.2935,-254.9757 293.0775,-245.8114 285,-232 277.3915,-218.9907 265.369,-208.8734 252.3714,-201.1006"/>
<polygon fill="#000000" stroke="#000000" points="253.7082,-197.8413 243.2595,-196.0872 250.3337,-203.9743 253.7082,-197.8413"/>
</g>
<!-- node_88&#45;&gt;node_79 -->
<g id="edge9" class="edge">
<title>node_88&#45;&gt;node_79</title>
<path fill="none" stroke="#000000" d="M202.8133,-303.9243C245.0488,-293.7198 297.9614,-280.9355 341.6651,-270.3762"/>
<polygon fill="#000000" stroke="#000000" points="342.5161,-273.7714 351.4144,-268.0207 340.8721,-266.9672 342.5161,-273.7714"/>
</g>
<!-- node_89&#45;&gt;node_87 -->
<g id="edge14" class="edge">
<title>node_89&#45;&gt;node_87</title>
<path fill="none" stroke="#000000" d="M95.4559,-231.8142C79.6473,-223.4611 63.9992,-211.8046 55,-196 47.083,-182.096 44.9722,-172.4677 55,-160 69.934,-141.4322 116.7419,-128.8867 165.5763,-120.6012"/>
<polygon fill="#000000" stroke="#000000" points="166.3838,-124.0157 175.6885,-118.9488 165.2549,-117.1073 166.3838,-124.0157"/>
</g>
<!-- node_74 -->
<g id="node23" class="node">
<title>node_74</title>
<polygon fill="none" stroke="#000000" points="1392.6528,-124 1269.3472,-124 1269.3472,-88 1392.6528,-88 1392.6528,-124"/>
<text text-anchor="middle" x="1331" y="-101.8" font-family="Times,serif" font-size="14.00" fill="#000000">accept state_before</text>
</g>
<!-- node_89&#45;&gt;node_74 -->
<g id="edge18" class="edge">
<title>node_89&#45;&gt;node_74</title>
<path fill="none" stroke="#000000" stroke-dasharray="1,5" d="M276.1472,-235.1752C285.9099,-234.091 295.6102,-233.0226 305,-232 729.6961,-185.7493 845.036,-229.3644 1261,-132 1266.4436,-130.7258 1272.0396,-129.1431 1277.5822,-127.392"/>
<polygon fill="#000000" stroke="#000000" points="1279.0839,-130.5803 1287.4568,-124.0883 1276.8629,-123.942 1279.0839,-130.5803"/>
</g>
<!-- node_90 -->
<g id="node13" class="node">
<title>node_90</title>
<polygon fill="none" stroke="#000000" points="482.7456,-412 413.2544,-412 413.2544,-376 482.7456,-376 482.7456,-412"/>
<text text-anchor="middle" x="448" y="-389.8" font-family="Times,serif" font-size="14.00" fill="#000000">accept n1</text>
</g>
<!-- node_90&#45;&gt;node_86 -->
<g id="edge11" class="edge">
<title>node_90&#45;&gt;node_86</title>
<path fill="none" stroke="#000000" d="M434.1212,-375.8314C427.7864,-367.5386 420.1616,-357.557 413.2074,-348.4533"/>
<polygon fill="#000000" stroke="#000000" points="415.9175,-346.2353 407.0657,-340.4133 410.3548,-350.4847 415.9175,-346.2353"/>
</g>
<!-- node_91 -->
<g id="node14" class="node">
<title>node_91</title>
<polygon fill="none" stroke="#000000" points="178,-628 74.9769,-610 178,-592 281.0231,-610 178,-628"/>
<text text-anchor="middle" x="178" y="-605.8" font-family="Times,serif" font-size="14.00" fill="#000000">PY_EXECUTOR</text>
</g>
<!-- node_92 -->
<g id="node15" class="node">
<title>node_92</title>
<polygon fill="none" stroke="#000000" points="1425.5269,-196 1220.4731,-196 1220.4731,-160 1425.5269,-160 1425.5269,-196"/>
<text text-anchor="middle" x="1323" y="-173.8" font-family="Times,serif" font-size="14.00" fill="#000000">transmit n1&#45;&gt;JAVA_EXECUTOR</text>
</g>
<!-- node_72 -->
<g id="node21" class="node">
<title>node_72</title>
<polygon fill="none" stroke="#000000" points="1479.7456,-124 1410.2544,-124 1410.2544,-88 1479.7456,-88 1479.7456,-124"/>
<text text-anchor="middle" x="1445" y="-101.8" font-family="Times,serif" font-size="14.00" fill="#000000">accept n1</text>
</g>
<!-- node_92&#45;&gt;node_72 -->
<g id="edge21" class="edge">
<title>node_92&#45;&gt;node_72</title>
<path fill="none" stroke="#000000" stroke-dasharray="1,5" d="M1354.2122,-159.9848C1368.7678,-151.5429 1386.3039,-141.3142 1402,-132 1403.3129,-131.2209 1404.6473,-130.4268 1405.994,-129.6235"/>
<polygon fill="#000000" stroke="#000000" points="1408.1871,-132.3896 1414.9655,-124.2469 1404.5887,-126.3853 1408.1871,-132.3896"/>
</g>
<!-- node_93 -->
<g id="node16" class="node">
<title>node_93</title>
<polygon fill="none" stroke="#000000" points="1642.0269,-196 1443.9731,-196 1443.9731,-160 1642.0269,-160 1642.0269,-196"/>
<text text-anchor="middle" x="1543" y="-173.8" font-family="Times,serif" font-size="14.00" fill="#000000">transmit b&#45;&gt;JAVA_EXECUTOR</text>
</g>
<!-- node_71 -->
<g id="node20" class="node">
<title>node_71</title>
<polygon fill="none" stroke="#000000" points="1560.2456,-124 1497.7544,-124 1497.7544,-88 1560.2456,-88 1560.2456,-124"/>
<text text-anchor="middle" x="1529" y="-101.8" font-family="Times,serif" font-size="14.00" fill="#000000">accept b</text>
</g>
<!-- node_93&#45;&gt;node_71 -->
<g id="edge20" class="edge">
<title>node_93&#45;&gt;node_71</title>
<path fill="none" stroke="#000000" stroke-dasharray="1,5" d="M1539.4672,-159.8314C1537.9699,-152.131 1536.1895,-142.9743 1534.5255,-134.4166"/>
<polygon fill="#000000" stroke="#000000" points="1537.9248,-133.5614 1532.5804,-124.4133 1531.0535,-134.8975 1537.9248,-133.5614"/>
</g>
<!-- node_68 -->
<g id="node17" class="node">
<title>node_68</title>
<polygon fill="none" stroke="#000000" points="1655.5381,-124 1578.4619,-124 1578.4619,-88 1655.5381,-88 1655.5381,-124"/>
<text text-anchor="middle" x="1617" y="-101.8" font-family="Times,serif" font-size="14.00" fill="#000000">send graph</text>
</g>
<!-- node_69 -->
<g id="node18" class="node">
<title>node_69</title>
<polygon fill="none" stroke="#000000" points="1656.2531,-52 1471.7469,-52 1471.7469,-16 1656.2531,-16 1656.2531,-52"/>
<text text-anchor="middle" x="1564" y="-29.8" font-family="Times,serif" font-size="14.00" fill="#000000">transmit b&#45;&gt;PY_EXECUTOR</text>
</g>
<!-- node_69&#45;&gt;node_83 -->
<g id="edge23" class="edge">
<title>node_69&#45;&gt;node_83</title>
<path fill="none" stroke="#000000" stroke-dasharray="1,5" d="M1645.6142,-52.0908C1661.5916,-58.7142 1677.0695,-67.733 1689,-80 1721.0427,-112.9464 1722,-132.0413 1722,-178 1722,-466 1722,-466 1722,-466 1722,-593.0898 708.0337,-608.0274 489.276,-609.7712"/>
<polygon fill="#000000" stroke="#000000" points="489.1495,-606.2719 479.1759,-609.8467 489.2019,-613.2717 489.1495,-606.2719"/>
</g>
<!-- node_71&#45;&gt;node_69 -->
<g id="edge17" class="edge">
<title>node_71&#45;&gt;node_69</title>
<path fill="none" stroke="#000000" d="M1537.832,-87.8314C1541.6986,-79.8771 1546.3206,-70.369 1550.5968,-61.5723"/>
<polygon fill="#000000" stroke="#000000" points="1553.8249,-62.9371 1555.0491,-52.4133 1547.5293,-59.8768 1553.8249,-62.9371"/>
</g>
<!-- node_75 -->
<g id="node24" class="node">
<title>node_75</title>
<polygon fill="none" stroke="#000000" points="1453.7531,-52 1262.2469,-52 1262.2469,-16 1453.7531,-16 1453.7531,-52"/>
<text text-anchor="middle" x="1358" y="-29.8" font-family="Times,serif" font-size="14.00" fill="#000000">transmit n1&#45;&gt;PY_EXECUTOR</text>
</g>
<!-- node_72&#45;&gt;node_75 -->
<g id="edge16" class="edge">
<title>node_72&#45;&gt;node_75</title>
<path fill="none" stroke="#000000" d="M1423.0462,-87.8314C1412.3305,-78.9632 1399.2811,-68.1637 1387.691,-58.5718"/>
<polygon fill="#000000" stroke="#000000" points="1389.8822,-55.8422 1379.9467,-52.1628 1385.4192,-61.2349 1389.8822,-55.8422"/>
</g>
<!-- node_75&#45;&gt;node_90 -->
<g id="edge24" class="edge">
<title>node_75&#45;&gt;node_90</title>
<path fill="none" stroke="#000000" stroke-dasharray="1,5" d="M1453.8292,-50.5581C1456.9212,-51.0507 1459.9843,-51.5326 1463,-52 1507.7834,-58.9406 1632.1055,-48.8282 1665,-80 1697.2038,-110.5173 1684,-133.6334 1684,-178 1684,-250 1684,-250 1684,-250 1684,-372.4177 715.0543,-390.9445 492.9758,-393.5831"/>
<polygon fill="#000000" stroke="#000000" points="492.6327,-390.0867 482.6732,-393.7004 492.7124,-397.0863 492.6327,-390.0867"/>
</g>
<!-- node_77 -->
<g id="node26" class="node">
<title>node_77</title>
<polygon fill="none" stroke="#000000" points="678,-124 562.4748,-106 678,-88 793.5252,-106 678,-124"/>
<text text-anchor="middle" x="678" y="-101.8" font-family="Times,serif" font-size="14.00" fill="#000000">JAVA_EXECUTOR</text>
</g>
</g>
</svg>
