<?xml version="1.0" encoding="UTF-8" standalone="no"?>
<!DOCTYPE svg PUBLIC "-//W3C//DTD SVG 1.1//EN"
 "http://www.w3.org/Graphics/SVG/1.1/DTD/svg11.dtd">
<!-- Generated by graphviz version 2.40.1 (20161225.0304)
 -->
<!-- Title: %3 Pages: 1 -->
<svg width="821pt" height="364pt"
 viewBox="0.00 0.00 821.00 364.00" xmlns="http://www.w3.org/2000/svg" xmlns:xlink="http://www.w3.org/1999/xlink">
<g id="graph0" class="graph" transform="scale(1 1) rotate(0) translate(4 360)">
<title>%3</title>
<polygon fill="#ffffff" stroke="transparent" points="-4,4 -4,-360 817,-360 817,4 -4,4"/>
<g id="clust1" class="cluster">
<title>cluster_550402284</title>
<polygon fill="none" stroke="#000000" points="24,-80 24,-348 590,-348 590,-80 24,-80"/>
</g>
<g id="clust2" class="cluster">
<title>cluster_1997859171</title>
<polygon fill="none" stroke="#000000" points="8,-8 8,-60 805,-60 805,-8 8,-8"/>
</g>
<!-- node_99 -->
<g id="node1" class="node">
<title>node_99</title>
<polygon fill="none" stroke="#000000" points="581.0551,-268 344.9449,-268 344.9449,-232 581.0551,-232 581.0551,-268"/>
<text text-anchor="middle" x="463" y="-245.8" font-family="Times,serif" font-size="14.00" fill="#000000">b2 = plainlib.package1.b.B::random([])</text>
</g>
<!-- node_101 -->
<g id="node3" class="node">
<title>node_101</title>
<polygon fill="none" stroke="#000000" points="358.2145,-196 297.7855,-196 297.7855,-160 358.2145,-160 358.2145,-196"/>
<text text-anchor="middle" x="328" y="-173.8" font-family="Times,serif" font-size="14.00" fill="#000000">store b2</text>
</g>
<!-- node_99&#45;&gt;node_101 -->
<g id="edge2" class="edge">
<title>node_99&#45;&gt;node_101</title>
<path fill="none" stroke="#000000" d="M428.9338,-231.8314C410.1879,-221.8335 386.8393,-209.3809 367.3216,-198.9715"/>
<polygon fill="#000000" stroke="#000000" points="368.8409,-195.8152 358.3702,-194.1975 365.5467,-201.9916 368.8409,-195.8152"/>
</g>
<!-- node_104 -->
<g id="node6" class="node">
<title>node_104</title>
<polygon fill="none" stroke="#000000" points="581.5269,-196 376.4731,-196 376.4731,-160 581.5269,-160 581.5269,-196"/>
<text text-anchor="middle" x="479" y="-173.8" font-family="Times,serif" font-size="14.00" fill="#000000">transmit b2&#45;&gt;JAVA_EXECUTOR</text>
</g>
<!-- node_99&#45;&gt;node_104 -->
<g id="edge4" class="edge">
<title>node_99&#45;&gt;node_104</title>
<path fill="none" stroke="#000000" d="M467.0375,-231.8314C468.7487,-224.131 470.7835,-214.9743 472.6852,-206.4166"/>
<polygon fill="#000000" stroke="#000000" points="476.1554,-206.9344 474.9082,-196.4133 469.3221,-205.4159 476.1554,-206.9344"/>
</g>
<!-- node_100 -->
<g id="node2" class="node">
<title>node_100</title>
<polygon fill="none" stroke="#000000" points="279.7325,-196 32.2675,-196 32.2675,-160 279.7325,-160 279.7325,-196"/>
<text text-anchor="middle" x="156" y="-173.8" font-family="Times,serif" font-size="14.00" fill="#000000">transmit textUpper&#45;&gt;JAVA_EXECUTOR</text>
</g>
<!-- node_105 -->
<g id="node7" class="node">
<title>node_105</title>
<polygon fill="none" stroke="#000000" points="282.2677,-124 31.7323,-124 31.7323,-88 282.2677,-88 282.2677,-124"/>
<text text-anchor="middle" x="157" y="-101.8" font-family="Times,serif" font-size="14.00" fill="#000000">FinishNode &amp;finished&amp;PY_EXECUTOR</text>
</g>
<!-- node_100&#45;&gt;node_105 -->
<g id="edge5" class="edge">
<title>node_100&#45;&gt;node_105</title>
<path fill="none" stroke="#000000" d="M156.2523,-159.8314C156.3593,-152.131 156.4865,-142.9743 156.6053,-134.4166"/>
<polygon fill="#000000" stroke="#000000" points="160.1049,-134.4609 156.7443,-124.4133 153.1056,-134.3637 160.1049,-134.4609"/>
</g>
<!-- node_96 -->
<g id="node9" class="node">
<title>node_96</title>
<polygon fill="none" stroke="#000000" points="365.7248,-52 254.2752,-52 254.2752,-16 365.7248,-16 365.7248,-52"/>
<text text-anchor="middle" x="310" y="-29.8" font-family="Times,serif" font-size="14.00" fill="#000000">accept textUpper</text>
</g>
<!-- node_100&#45;&gt;node_96 -->
<g id="edge10" class="edge">
<title>node_100&#45;&gt;node_96</title>
<path fill="none" stroke="#000000" stroke-dasharray="1,5" d="M237.75,-159.8883C257.6689,-151.8923 277.1909,-140.4223 291,-124 305.3951,-106.8808 309.726,-81.5535 310.6963,-62.1242"/>
<polygon fill="#000000" stroke="#000000" points="314.1976,-62.1056 310.9322,-52.0265 307.1995,-61.9421 314.1976,-62.1056"/>
</g>
<!-- node_101&#45;&gt;node_105 -->
<g id="edge3" class="edge">
<title>node_101&#45;&gt;node_105</title>
<path fill="none" stroke="#000000" d="M297.4006,-163.7226C294.5678,-162.4476 291.7352,-161.19 289,-160 263.8566,-149.061 235.7653,-137.4811 211.9816,-127.8617"/>
<polygon fill="#000000" stroke="#000000" points="212.9986,-124.498 202.4153,-124.0042 210.3807,-130.9901 212.9986,-124.498"/>
</g>
<!-- node_102 -->
<g id="node4" class="node">
<title>node_102</title>
<polygon fill="none" stroke="#000000" points="327.0723,-268 32.9277,-268 32.9277,-232 327.0723,-232 327.0723,-268"/>
<text text-anchor="middle" x="180" y="-245.8" font-family="Times,serif" font-size="14.00" fill="#000000">textUpper = plainlib.package1.b.B::upper([abcd])</text>
</g>
<!-- node_102&#45;&gt;node_100 -->
<g id="edge6" class="edge">
<title>node_102&#45;&gt;node_100</title>
<path fill="none" stroke="#000000" d="M173.9438,-231.8314C171.3488,-224.0463 168.2576,-214.7729 165.3782,-206.1347"/>
<polygon fill="#000000" stroke="#000000" points="168.6205,-204.7933 162.1378,-196.4133 161.9797,-207.0069 168.6205,-204.7933"/>
</g>
<!-- node_103 -->
<g id="node5" class="node">
<title>node_103</title>
<polygon fill="none" stroke="#000000" points="373.583,-340 256.417,-340 256.417,-304 373.583,-304 373.583,-340"/>
<text text-anchor="middle" x="315" y="-317.8" font-family="Times,serif" font-size="14.00" fill="#000000">parse String: abcd</text>
</g>
<!-- node_103&#45;&gt;node_102 -->
<g id="edge7" class="edge">
<title>node_103&#45;&gt;node_102</title>
<path fill="none" stroke="#000000" d="M280.9338,-303.8314C263.3467,-294.4516 241.7084,-282.9112 222.9832,-272.9244"/>
<polygon fill="#000000" stroke="#000000" points="224.5259,-269.7805 214.0553,-268.1628 221.2318,-275.957 224.5259,-269.7805"/>
</g>
<!-- node_104&#45;&gt;node_105 -->
<g id="edge1" class="edge">
<title>node_104&#45;&gt;node_105</title>
<path fill="none" stroke="#000000" d="M398.1614,-159.9243C352.3327,-149.6769 294.8698,-136.828 247.5323,-126.2432"/>
<polygon fill="#000000" stroke="#000000" points="248.1153,-122.7872 237.5925,-124.0207 246.5877,-129.6186 248.1153,-122.7872"/>
</g>
<!-- node_95 -->
<g id="node13" class="node">
<title>node_95</title>
<polygon fill="none" stroke="#000000" points="796.7456,-52 727.2544,-52 727.2544,-16 796.7456,-16 796.7456,-52"/>
<text text-anchor="middle" x="762" y="-29.8" font-family="Times,serif" font-size="14.00" fill="#000000">accept b2</text>
</g>
<!-- node_104&#45;&gt;node_95 -->
<g id="edge9" class="edge">
<title>node_104&#45;&gt;node_95</title>
<path fill="none" stroke="#000000" stroke-dasharray="1,5" d="M518.6103,-159.818C566.6348,-137.479 649.7458,-97.8693 719,-60 720.5261,-59.1655 722.0752,-58.3033 723.6347,-57.4228"/>
<polygon fill="#000000" stroke="#000000" points="725.6843,-60.2806 732.5886,-52.2444 722.1798,-54.221 725.6843,-60.2806"/>
</g>
<!-- node_94 -->
<g id="node12" class="node">
<title>node_94</title>
<polygon fill="none" stroke="#000000" points="236.175,-52 15.825,-52 15.825,-16 236.175,-16 236.175,-52"/>
<text text-anchor="middle" x="126" y="-29.8" font-family="Times,serif" font-size="14.00" fill="#000000">accept &amp;finished&amp;PY_EXECUTOR</text>
</g>
<!-- node_105&#45;&gt;node_94 -->
<g id="edge8" class="edge">
<title>node_105&#45;&gt;node_94</title>
<path fill="none" stroke="#000000" stroke-dasharray="1,5" d="M149.1774,-87.8314C145.7891,-79.9617 141.7459,-70.5712 137.9924,-61.8533"/>
<polygon fill="#000000" stroke="#000000" points="141.0973,-60.214 133.9279,-52.4133 134.6679,-62.9822 141.0973,-60.214"/>
</g>
<!-- node_106 -->
<g id="node8" class="node">
<title>node_106</title>
<polygon fill="none" stroke="#000000" points="135,-340 31.9769,-322 135,-304 238.0231,-322 135,-340"/>
<text text-anchor="middle" x="135" y="-317.8" font-family="Times,serif" font-size="14.00" fill="#000000">PY_EXECUTOR</text>
</g>
<!-- node_97 -->
<g id="node10" class="node">
<title>node_97</title>
<polygon fill="none" stroke="#000000" points="709.5381,-52 632.4619,-52 632.4619,-16 709.5381,-16 709.5381,-52"/>
<text text-anchor="middle" x="671" y="-29.8" font-family="Times,serif" font-size="14.00" fill="#000000">send graph</text>
</g>
<!-- node_98 -->
<g id="node11" class="node">
<title>node_98</title>
<polygon fill="none" stroke="#000000" points="499,-52 383.4748,-34 499,-16 614.5252,-34 499,-52"/>
<text text-anchor="middle" x="499" y="-29.8" font-family="Times,serif" font-size="14.00" fill="#000000">JAVA_EXECUTOR</text>
</g>
</g>
</svg>
