<?xml version="1.0" encoding="UTF-8" standalone="no"?>
<!DOCTYPE svg PUBLIC "-//W3C//DTD SVG 1.1//EN"
 "http://www.w3.org/Graphics/SVG/1.1/DTD/svg11.dtd">
<!-- Generated by graphviz version 2.40.1 (20161225.0304)
 -->
<!-- Title: %3 Pages: 1 -->
<svg width="700pt" height="220pt"
 viewBox="0.00 0.00 700.02 220.00" xmlns="http://www.w3.org/2000/svg" xmlns:xlink="http://www.w3.org/1999/xlink">
<g id="graph0" class="graph" transform="scale(1 1) rotate(0) translate(4 216)">
<title>%3</title>
<polygon fill="#ffffff" stroke="transparent" points="-4,4 -4,-216 696.0151,-216 696.0151,4 -4,4"/>
<g id="clust1" class="cluster">
<title>cluster_5637607</title>
<polygon fill="none" stroke="#000000" points="166.0151,-8 166.0151,-204 684.0151,-204 684.0151,-8 166.0151,-8"/>
</g>
<!-- node_16 -->
<g id="node1" class="node">
<title>node_16</title>
<polygon fill="none" stroke="#000000" points="158.0454,-196 -.0151,-196 -.0151,-160 158.0454,-160 158.0454,-196"/>
<text text-anchor="middle" x="79.0151" y="-173.8" font-family="Times,serif" font-size="14.00" fill="#000000">transmit imageIn&#45;&gt;Client</text>
</g>
<!-- node_11 -->
<g id="node3" class="node">
<title>node_11</title>
<polygon fill="none" stroke="#000000" points="275.6295,-124 174.4008,-124 174.4008,-88 275.6295,-88 275.6295,-124"/>
<text text-anchor="middle" x="225.0151" y="-101.8" font-family="Times,serif" font-size="14.00" fill="#000000">accept imageIn</text>
</g>
<!-- node_16&#45;&gt;node_11 -->
<g id="edge5" class="edge">
<title>node_16&#45;&gt;node_11</title>
<path fill="none" stroke="#000000" stroke-dasharray="1,5" d="M115.8571,-159.8314C135.1234,-150.3302 158.8851,-138.6121 179.3143,-128.5374"/>
<polygon fill="#000000" stroke="#000000" points="181.0174,-131.6 188.4381,-124.038 177.9213,-125.3219 181.0174,-131.6"/>
</g>
<!-- node_10 -->
<g id="node2" class="node">
<title>node_10</title>
<polygon fill="none" stroke="#000000" points="676.2974,-124 293.7328,-124 293.7328,-88 676.2974,-88 676.2974,-124"/>
<text text-anchor="middle" x="485.0151" y="-101.8" font-family="Times,serif" font-size="14.00" fill="#000000">s1 = Catalano.Imaging.Filters.Crop::__construct([0, 0, 100, 100])</text>
</g>
<!-- node_13 -->
<g id="node5" class="node">
<title>node_13</title>
<polygon fill="none" stroke="#000000" points="514.8423,-52 267.1879,-52 267.1879,-16 514.8423,-16 514.8423,-52"/>
<text text-anchor="middle" x="391.0151" y="-29.8" font-family="Times,serif" font-size="14.00" fill="#000000">imageOut = s1::ApplyInPlace([imageIn])</text>
</g>
<!-- node_10&#45;&gt;node_13 -->
<g id="edge2" class="edge">
<title>node_10&#45;&gt;node_13</title>
<path fill="none" stroke="#000000" d="M461.295,-87.8314C449.6058,-78.8779 435.3464,-67.9558 422.7342,-58.2955"/>
<polygon fill="#000000" stroke="#000000" points="424.7948,-55.4651 414.7277,-52.1628 420.5382,-61.0222 424.7948,-55.4651"/>
</g>
<!-- node_11&#45;&gt;node_13 -->
<g id="edge1" class="edge">
<title>node_11&#45;&gt;node_13</title>
<path fill="none" stroke="#000000" d="M266.9039,-87.8314C289.1055,-78.2018 316.5573,-66.295 339.9935,-56.1299"/>
<polygon fill="#000000" stroke="#000000" points="341.6461,-59.2282 349.4275,-52.038 338.8606,-52.8062 341.6461,-59.2282"/>
</g>
<!-- node_12 -->
<g id="node4" class="node">
<title>node_12</title>
<polygon fill="none" stroke="#000000" points="610.8192,-196 487.2111,-196 487.2111,-160 610.8192,-160 610.8192,-196"/>
<text text-anchor="middle" x="549.0151" y="-173.8" font-family="Times,serif" font-size="14.00" fill="#000000">parse Number: 100</text>
</g>
<!-- node_12&#45;&gt;node_10 -->
<g id="edge4" class="edge">
<title>node_12&#45;&gt;node_10</title>
<path fill="none" stroke="#000000" d="M532.8652,-159.8314C525.3435,-151.3694 516.2586,-141.1489 508.0348,-131.8971"/>
<polygon fill="#000000" stroke="#000000" points="510.6421,-129.5621 501.3825,-124.4133 505.4102,-134.2127 510.6421,-129.5621"/>
</g>
<!-- node_14 -->
<g id="node6" class="node">
<title>node_14</title>
<polygon fill="none" stroke="#000000" points="469.8193,-196 360.211,-196 360.211,-160 469.8193,-160 469.8193,-196"/>
<text text-anchor="middle" x="415.0151" y="-173.8" font-family="Times,serif" font-size="14.00" fill="#000000">parse Number: 0</text>
</g>
<!-- node_14&#45;&gt;node_10 -->
<g id="edge3" class="edge">
<title>node_14&#45;&gt;node_10</title>
<path fill="none" stroke="#000000" d="M432.6791,-159.8314C440.9883,-151.2848 451.0415,-140.9443 460.107,-131.6198"/>
<polygon fill="#000000" stroke="#000000" points="462.652,-134.023 467.1133,-124.4133 457.633,-129.1435 462.652,-134.023"/>
</g>
<!-- node_15 -->
<g id="node7" class="node">
<title>node_15</title>
<polygon fill="none" stroke="#000000" points="291.0151,-196 246.2879,-178 291.0151,-160 335.7424,-178 291.0151,-196"/>
<text text-anchor="middle" x="291.0151" y="-173.8" font-family="Times,serif" font-size="14.00" fill="#000000">Client</text>
</g>
</g>
</svg>
