<?xml version="1.0" encoding="UTF-8" standalone="no"?>
<!DOCTYPE svg PUBLIC "-//W3C//DTD SVG 1.1//EN"
 "http://www.w3.org/Graphics/SVG/1.1/DTD/svg11.dtd">
<!-- Generated by graphviz version 2.40.1 (20161225.0304)
 -->
<!-- Title: %3 Pages: 1 -->
<svg width="1719pt" height="508pt"
 viewBox="0.00 0.00 1719.00 508.00" xmlns="http://www.w3.org/2000/svg" xmlns:xlink="http://www.w3.org/1999/xlink">
<g id="graph0" class="graph" transform="scale(1 1) rotate(0) translate(4 504)">
<title>%3</title>
<polygon fill="#ffffff" stroke="transparent" points="-4,4 -4,-504 1715,-504 1715,4 -4,4"/>
<g id="clust1" class="cluster">
<title>cluster_779792411</title>
<polygon fill="none" stroke="#000000" points="8,-80 8,-492 981,-492 981,-80 8,-80"/>
</g>
<g id="clust2" class="cluster">
<title>cluster_1782929281</title>
<polygon fill="none" stroke="#000000" points="989,-8 989,-204 1517,-204 1517,-8 989,-8"/>
</g>
<!-- node_0 -->
<g id="node1" class="node">
<title>node_0</title>
<polygon fill="none" stroke="#000000" points="748.9307,-268 505.0693,-268 505.0693,-232 748.9307,-232 748.9307,-268"/>
<text text-anchor="middle" x="627" y="-245.8" font-family="Times,serif" font-size="14.00" fill="#000000">imageOut = s2::applyInPlace([imageIn])</text>
</g>
<!-- node_3 -->
<g id="node4" class="node">
<title>node_3</title>
<polygon fill="none" stroke="#000000" points="956.8686,-196 789.1314,-196 789.1314,-160 956.8686,-160 956.8686,-196"/>
<text text-anchor="middle" x="873" y="-173.8" font-family="Times,serif" font-size="14.00" fill="#000000">transmit imageOut&#45;&gt;Client</text>
</g>
<!-- node_0&#45;&gt;node_3 -->
<g id="edge2" class="edge">
<title>node_0&#45;&gt;node_3</title>
<path fill="none" stroke="#000000" d="M688.7587,-231.9243C722.9732,-221.9103 765.6756,-209.412 801.3524,-198.97"/>
<polygon fill="#000000" stroke="#000000" points="802.6017,-202.2513 811.2159,-196.0831 800.6354,-195.5331 802.6017,-202.2513"/>
</g>
<!-- node_1 -->
<g id="node2" class="node">
<title>node_1</title>
<polygon fill="none" stroke="#000000" points="139.8041,-412 16.1959,-412 16.1959,-376 139.8041,-376 139.8041,-412"/>
<text text-anchor="middle" x="78" y="-389.8" font-family="Times,serif" font-size="14.00" fill="#000000">parse Number: 200</text>
</g>
<!-- node_6 -->
<g id="node7" class="node">
<title>node_6</title>
<polygon fill="none" stroke="#000000" points="450.0996,-340 85.9004,-340 85.9004,-304 450.0996,-304 450.0996,-340"/>
<text text-anchor="middle" x="268" y="-317.8" font-family="Times,serif" font-size="14.00" fill="#000000">s2 = Catalano.Imaging.Filters.Resize::__construct([200, 200])</text>
</g>
<!-- node_1&#45;&gt;node_6 -->
<g id="edge6" class="edge">
<title>node_1&#45;&gt;node_6</title>
<path fill="none" stroke="#000000" d="M125.945,-375.8314C151.8082,-366.0306 183.8962,-353.8709 211.028,-343.5894"/>
<polygon fill="#000000" stroke="#000000" points="212.2889,-346.8545 220.3997,-340.038 209.8084,-340.3087 212.2889,-346.8545"/>
</g>
<!-- node_2 -->
<g id="node3" class="node">
<title>node_2</title>
<polygon fill="none" stroke="#000000" points="336.8041,-484 227.1959,-484 227.1959,-448 336.8041,-448 336.8041,-484"/>
<text text-anchor="middle" x="282" y="-461.8" font-family="Times,serif" font-size="14.00" fill="#000000">parse Number: 5</text>
</g>
<!-- node_8 -->
<g id="node9" class="node">
<title>node_8</title>
<polygon fill="none" stroke="#000000" points="540.2823,-412 157.7177,-412 157.7177,-376 540.2823,-376 540.2823,-412"/>
<text text-anchor="middle" x="349" y="-389.8" font-family="Times,serif" font-size="14.00" fill="#000000">s1 = Catalano.Imaging.Filters.Crop::__construct([5, 5, 300, 300])</text>
</g>
<!-- node_2&#45;&gt;node_8 -->
<g id="edge7" class="edge">
<title>node_2&#45;&gt;node_8</title>
<path fill="none" stroke="#000000" d="M298.9069,-447.8314C306.7813,-439.3694 316.292,-429.1489 324.9013,-419.8971"/>
<polygon fill="#000000" stroke="#000000" points="327.6153,-422.1183 331.8654,-412.4133 322.4908,-417.3497 327.6153,-422.1183"/>
</g>
<!-- node_7 -->
<g id="node8" class="node">
<title>node_7</title>
<polygon fill="none" stroke="#000000" points="972.6485,-124 773.3515,-124 773.3515,-88 972.6485,-88 972.6485,-124"/>
<text text-anchor="middle" x="873" y="-101.8" font-family="Times,serif" font-size="14.00" fill="#000000">FinishNode &amp;finished&amp;executor</text>
</g>
<!-- node_3&#45;&gt;node_7 -->
<g id="edge3" class="edge">
<title>node_3&#45;&gt;node_7</title>
<path fill="none" stroke="#000000" d="M873,-159.8314C873,-152.131 873,-142.9743 873,-134.4166"/>
<polygon fill="#000000" stroke="#000000" points="876.5001,-134.4132 873,-124.4133 869.5001,-134.4133 876.5001,-134.4132"/>
</g>
<!-- node_12 -->
<g id="node15" class="node">
<title>node_12</title>
<polygon fill="none" stroke="#000000" points="1138.9522,-124 997.0478,-124 997.0478,-88 1138.9522,-88 1138.9522,-124"/>
<text text-anchor="middle" x="1068" y="-101.8" font-family="Times,serif" font-size="14.00" fill="#000000">accept imageOut &#160;as is</text>
</g>
<!-- node_3&#45;&gt;node_12 -->
<g id="edge15" class="edge">
<title>node_3&#45;&gt;node_12</title>
<path fill="none" stroke="#000000" stroke-dasharray="1,5" d="M921.955,-159.9243C948.4968,-150.1243 981.4823,-137.945 1009.3858,-127.6422"/>
<polygon fill="#000000" stroke="#000000" points="1010.8562,-130.8303 1019.0248,-124.0831 1008.4315,-124.2636 1010.8562,-130.8303"/>
</g>
<!-- node_4 -->
<g id="node5" class="node">
<title>node_4</title>
<polygon fill="none" stroke="#000000" points="477.8041,-484 354.1959,-484 354.1959,-448 477.8041,-448 477.8041,-484"/>
<text text-anchor="middle" x="416" y="-461.8" font-family="Times,serif" font-size="14.00" fill="#000000">parse Number: 300</text>
</g>
<!-- node_4&#45;&gt;node_8 -->
<g id="edge4" class="edge">
<title>node_4&#45;&gt;node_8</title>
<path fill="none" stroke="#000000" d="M399.0931,-447.8314C391.2187,-439.3694 381.708,-429.1489 373.0987,-419.8971"/>
<polygon fill="#000000" stroke="#000000" points="375.5092,-417.3497 366.1346,-412.4133 370.3847,-422.1183 375.5092,-417.3497"/>
</g>
<!-- node_5 -->
<g id="node6" class="node">
<title>node_5</title>
<polygon fill="none" stroke="#000000" points="973.4944,-412 558.5056,-412 558.5056,-376 973.4944,-376 973.4944,-412"/>
<text text-anchor="middle" x="766" y="-389.8" font-family="Times,serif" font-size="14.00" fill="#000000">accept imageIn cast imageIn from Arr to Catalano.Imaging.FastBitmap</text>
</g>
<!-- node_9 -->
<g id="node10" class="node">
<title>node_9</title>
<polygon fill="none" stroke="#000000" points="715.7248,-340 538.2752,-340 538.2752,-304 715.7248,-304 715.7248,-340"/>
<text text-anchor="middle" x="627" y="-317.8" font-family="Times,serif" font-size="14.00" fill="#000000">s1::ApplyInPlace([imageIn])</text>
</g>
<!-- node_5&#45;&gt;node_9 -->
<g id="edge5" class="edge">
<title>node_5&#45;&gt;node_9</title>
<path fill="none" stroke="#000000" d="M730.9244,-375.8314C712.7339,-366.4089 690.3342,-354.8062 670.994,-344.7883"/>
<polygon fill="#000000" stroke="#000000" points="672.5537,-341.6545 662.0643,-340.1628 669.334,-347.8701 672.5537,-341.6545"/>
</g>
<!-- node_6&#45;&gt;node_0 -->
<g id="edge9" class="edge">
<title>node_6&#45;&gt;node_0</title>
<path fill="none" stroke="#000000" d="M358.1275,-303.9243C409.5429,-293.6126 474.0927,-280.6666 527.0573,-270.0442"/>
<polygon fill="#000000" stroke="#000000" points="528.0304,-273.4188 537.1469,-268.0207 526.6538,-266.5555 528.0304,-273.4188"/>
</g>
<!-- node_14 -->
<g id="node17" class="node">
<title>node_14</title>
<polygon fill="none" stroke="#000000" points="1358.5557,-124 1157.4443,-124 1157.4443,-88 1358.5557,-88 1358.5557,-124"/>
<text text-anchor="middle" x="1258" y="-101.8" font-family="Times,serif" font-size="14.00" fill="#000000">accept &amp;finished&amp;executor &#160;as is</text>
</g>
<!-- node_7&#45;&gt;node_14 -->
<g id="edge14" class="edge">
<title>node_7&#45;&gt;node_14</title>
<path fill="none" stroke="#000000" stroke-dasharray="1,5" d="M921.7273,-124.0001C943.5126,-131.1304 969.7091,-138.4631 994,-142 1057.772,-151.2856 1075.2495,-151.4319 1139,-142 1159.2735,-139.0005 1180.8784,-133.2738 1200.0381,-127.2554"/>
<polygon fill="#000000" stroke="#000000" points="1201.3763,-130.5012 1209.8145,-124.0945 1199.2227,-123.8407 1201.3763,-130.5012"/>
</g>
<!-- node_8&#45;&gt;node_9 -->
<g id="edge1" class="edge">
<title>node_8&#45;&gt;node_9</title>
<path fill="none" stroke="#000000" d="M418.7923,-375.9243C457.8706,-365.8033 506.7469,-353.1447 547.3219,-342.6361"/>
<polygon fill="#000000" stroke="#000000" points="548.3759,-345.9786 557.179,-340.0831 546.6208,-339.2022 548.3759,-345.9786"/>
</g>
<!-- node_9&#45;&gt;node_0 -->
<g id="edge8" class="edge">
<title>node_9&#45;&gt;node_0</title>
<path fill="none" stroke="#000000" d="M627,-303.8314C627,-296.131 627,-286.9743 627,-278.4166"/>
<polygon fill="#000000" stroke="#000000" points="630.5001,-278.4132 627,-268.4133 623.5001,-278.4133 630.5001,-278.4132"/>
</g>
<!-- node_10 -->
<g id="node11" class="node">
<title>node_10</title>
<polygon fill="none" stroke="#000000" points="146,-484 88.8085,-466 146,-448 203.1915,-466 146,-484"/>
<text text-anchor="middle" x="146" y="-461.8" font-family="Times,serif" font-size="14.00" fill="#000000">executor</text>
</g>
<!-- node_17 -->
<g id="node12" class="node">
<title>node_17</title>
<polygon fill="none" stroke="#000000" points="1683.0303,-196 1524.9697,-196 1524.9697,-160 1683.0303,-160 1683.0303,-196"/>
<text text-anchor="middle" x="1604" y="-173.8" font-family="Times,serif" font-size="14.00" fill="#000000">transmit imageIn&#45;&gt;Client</text>
</g>
<!-- node_15 -->
<g id="node18" class="node">
<title>node_15</title>
<polygon fill="none" stroke="#000000" points="1509.1148,-124 1376.8852,-124 1376.8852,-88 1509.1148,-88 1509.1148,-124"/>
<text text-anchor="middle" x="1443" y="-101.8" font-family="Times,serif" font-size="14.00" fill="#000000">accept imageIn &#160;as is</text>
</g>
<!-- node_17&#45;&gt;node_15 -->
<g id="edge17" class="edge">
<title>node_17&#45;&gt;node_15</title>
<path fill="none" stroke="#000000" stroke-dasharray="1,5" d="M1563.3729,-159.8314C1541.8401,-150.2018 1515.2151,-138.295 1492.4848,-128.1299"/>
<polygon fill="#000000" stroke="#000000" points="1493.8926,-124.9254 1483.335,-124.038 1491.0348,-131.3155 1493.8926,-124.9254"/>
</g>
<!-- node_16 -->
<g id="node13" class="node">
<title>node_16</title>
<polygon fill="none" stroke="#000000" points="1410,-196 1365.2728,-178 1410,-160 1454.7272,-178 1410,-196"/>
<text text-anchor="middle" x="1410" y="-173.8" font-family="Times,serif" font-size="14.00" fill="#000000">Client</text>
</g>
<!-- node_11 -->
<g id="node14" class="node">
<title>node_11</title>
<polygon fill="none" stroke="#000000" points="1509.0029,-52 1336.9971,-52 1336.9971,-16 1509.0029,-16 1509.0029,-52"/>
<text text-anchor="middle" x="1423" y="-29.8" font-family="Times,serif" font-size="14.00" fill="#000000">transmit imageIn&#45;&gt;executor</text>
</g>
<!-- node_11&#45;&gt;node_5 -->
<g id="edge16" class="edge">
<title>node_11&#45;&gt;node_5</title>
<path fill="none" stroke="#000000" stroke-dasharray="1,5" d="M1509.0194,-41.0722C1593.8833,-53.3141 1711,-86.7405 1711,-178 1711,-250 1711,-250 1711,-250 1711,-323.154 1262.7088,-363.8488 983.6512,-382.0943"/>
<polygon fill="#000000" stroke="#000000" points="983.1366,-378.6202 973.3843,-382.7604 983.5899,-385.6055 983.1366,-378.6202"/>
</g>
<!-- node_13 -->
<g id="node16" class="node">
<title>node_13</title>
<polygon fill="none" stroke="#000000" points="1296.5381,-196 1219.4619,-196 1219.4619,-160 1296.5381,-160 1296.5381,-196"/>
<text text-anchor="middle" x="1258" y="-173.8" font-family="Times,serif" font-size="14.00" fill="#000000">send graph</text>
</g>
<!-- node_13&#45;&gt;node_12 -->
<g id="edge13" class="edge">
<title>node_13&#45;&gt;node_12</title>
<path fill="none" stroke="#000000" d="M1219.0922,-163.256C1192.0536,-153.0098 1155.5702,-139.1845 1125.2277,-127.6863"/>
<polygon fill="#000000" stroke="#000000" points="1126.2031,-124.3131 1115.6117,-124.0423 1123.7226,-130.8589 1126.2031,-124.3131"/>
</g>
<!-- node_13&#45;&gt;node_14 -->
<g id="edge10" class="edge">
<title>node_13&#45;&gt;node_14</title>
<path fill="none" stroke="#000000" d="M1258,-159.8314C1258,-152.131 1258,-142.9743 1258,-134.4166"/>
<polygon fill="#000000" stroke="#000000" points="1261.5001,-134.4132 1258,-124.4133 1254.5001,-134.4133 1261.5001,-134.4132"/>
</g>
<!-- node_13&#45;&gt;node_15 -->
<g id="edge11" class="edge">
<title>node_13&#45;&gt;node_15</title>
<path fill="none" stroke="#000000" d="M1296.7821,-162.9064C1322.9599,-152.7183 1357.9218,-139.1115 1387.0943,-127.7579"/>
<polygon fill="#000000" stroke="#000000" points="1388.6949,-130.8908 1396.7446,-124.0021 1386.156,-124.3674 1388.6949,-130.8908"/>
</g>
<!-- node_15&#45;&gt;node_11 -->
<g id="edge12" class="edge">
<title>node_15&#45;&gt;node_11</title>
<path fill="none" stroke="#000000" d="M1437.9532,-87.8314C1435.7906,-80.0463 1433.2147,-70.7729 1430.8152,-62.1347"/>
<polygon fill="#000000" stroke="#000000" points="1434.1636,-61.1117 1428.1148,-52.4133 1427.419,-62.9852 1434.1636,-61.1117"/>
</g>
</g>
</svg>
