<?xml version="1.0" encoding="UTF-8" standalone="no"?>
<!DOCTYPE svg PUBLIC "-//W3C//DTD SVG 1.1//EN"
 "http://www.w3.org/Graphics/SVG/1.1/DTD/svg11.dtd">
<!-- Generated by graphviz version 2.40.1 (20161225.0304)
 -->
<!-- Title: %3 Pages: 1 -->
<svg width="842pt" height="292pt"
 viewBox="0.00 0.00 842.02 292.00" xmlns="http://www.w3.org/2000/svg" xmlns:xlink="http://www.w3.org/1999/xlink">
<g id="graph0" class="graph" transform="scale(1 1) rotate(0) translate(4 288)">
<title>%3</title>
<polygon fill="#ffffff" stroke="transparent" points="-4,4 -4,-288 838.0151,-288 838.0151,4 -4,4"/>
<g id="clust1" class="cluster">
<title>cluster_346942038</title>
<polygon fill="none" stroke="#000000" points="166.0151,-8 166.0151,-276 826.0151,-276 826.0151,-8 166.0151,-8"/>
</g>
<!-- node_9 -->
<g id="node1" class="node">
<title>node_9</title>
<polygon fill="none" stroke="#000000" points="158.0454,-268 -.0151,-268 -.0151,-232 158.0454,-232 158.0454,-268"/>
<text text-anchor="middle" x="79.0151" y="-245.8" font-family="Times,serif" font-size="14.00" fill="#000000">transmit imageIn&#45;&gt;Client</text>
</g>
<!-- node_1 -->
<g id="node3" class="node">
<title>node_1</title>
<polygon fill="none" stroke="#000000" points="275.6295,-196 174.4008,-196 174.4008,-160 275.6295,-160 275.6295,-196"/>
<text text-anchor="middle" x="225.0151" y="-173.8" font-family="Times,serif" font-size="14.00" fill="#000000">accept imageIn</text>
</g>
<!-- node_9&#45;&gt;node_1 -->
<g id="edge8" class="edge">
<title>node_9&#45;&gt;node_1</title>
<path fill="none" stroke="#000000" stroke-dasharray="1,5" d="M115.8571,-231.8314C135.1234,-222.3302 158.8851,-210.6121 179.3143,-200.5374"/>
<polygon fill="#000000" stroke="#000000" points="181.0174,-203.6 188.4381,-196.038 177.9213,-197.3219 181.0174,-203.6"/>
</g>
<!-- node_0 -->
<g id="node2" class="node">
<title>node_0</title>
<polygon fill="none" stroke="#000000" points="612.9458,-52 369.0845,-52 369.0845,-16 612.9458,-16 612.9458,-52"/>
<text text-anchor="middle" x="491.0151" y="-29.8" font-family="Times,serif" font-size="14.00" fill="#000000">imageOut = s2::applyInPlace([imageIn])</text>
</g>
<!-- node_2 -->
<g id="node4" class="node">
<title>node_2</title>
<polygon fill="none" stroke="#000000" points="435.74,-124 258.2903,-124 258.2903,-88 435.74,-88 435.74,-124"/>
<text text-anchor="middle" x="347.0151" y="-101.8" font-family="Times,serif" font-size="14.00" fill="#000000">s1::ApplyInPlace([imageIn])</text>
</g>
<!-- node_1&#45;&gt;node_2 -->
<g id="edge1" class="edge">
<title>node_1&#45;&gt;node_2</title>
<path fill="none" stroke="#000000" d="M255.8009,-159.8314C271.4054,-150.6221 290.5391,-139.3301 307.2455,-129.4706"/>
<polygon fill="#000000" stroke="#000000" points="309.4061,-132.2596 316.2392,-124.1628 305.8482,-126.2312 309.4061,-132.2596"/>
</g>
<!-- node_2&#45;&gt;node_0 -->
<g id="edge7" class="edge">
<title>node_2&#45;&gt;node_0</title>
<path fill="none" stroke="#000000" d="M383.3524,-87.8314C402.3548,-78.3302 425.791,-66.6121 445.9404,-56.5374"/>
<polygon fill="#000000" stroke="#000000" points="447.5601,-59.6407 454.9392,-52.038 444.4296,-53.3797 447.5601,-59.6407"/>
</g>
<!-- node_3 -->
<g id="node5" class="node">
<title>node_3</title>
<polygon fill="none" stroke="#000000" points="817.8192,-196 694.2111,-196 694.2111,-160 817.8192,-160 817.8192,-196"/>
<text text-anchor="middle" x="756.0151" y="-173.8" font-family="Times,serif" font-size="14.00" fill="#000000">parse Number: 200</text>
</g>
<!-- node_7 -->
<g id="node9" class="node">
<title>node_7</title>
<polygon fill="none" stroke="#000000" points="818.1148,-124 453.9155,-124 453.9155,-88 818.1148,-88 818.1148,-124"/>
<text text-anchor="middle" x="636.0151" y="-101.8" font-family="Times,serif" font-size="14.00" fill="#000000">s2 = Catalano.Imaging.Filters.Resize::__construct([200, 200])</text>
</g>
<!-- node_3&#45;&gt;node_7 -->
<g id="edge4" class="edge">
<title>node_3&#45;&gt;node_7</title>
<path fill="none" stroke="#000000" d="M725.7341,-159.8314C710.3853,-150.6221 691.5653,-139.3301 675.1328,-129.4706"/>
<polygon fill="#000000" stroke="#000000" points="676.6622,-126.3066 666.2865,-124.1628 673.0607,-132.3091 676.6622,-126.3066"/>
</g>
<!-- node_4 -->
<g id="node6" class="node">
<title>node_4</title>
<polygon fill="none" stroke="#000000" points="606.8193,-268 497.211,-268 497.211,-232 606.8193,-232 606.8193,-268"/>
<text text-anchor="middle" x="552.0151" y="-245.8" font-family="Times,serif" font-size="14.00" fill="#000000">parse Number: 5</text>
</g>
<!-- node_6 -->
<g id="node8" class="node">
<title>node_6</title>
<polygon fill="none" stroke="#000000" points="676.2974,-196 293.7328,-196 293.7328,-160 676.2974,-160 676.2974,-196"/>
<text text-anchor="middle" x="485.0151" y="-173.8" font-family="Times,serif" font-size="14.00" fill="#000000">s1 = Catalano.Imaging.Filters.Crop::__construct([5, 5, 300, 300])</text>
</g>
<!-- node_4&#45;&gt;node_6 -->
<g id="edge3" class="edge">
<title>node_4&#45;&gt;node_6</title>
<path fill="none" stroke="#000000" d="M535.1082,-231.8314C527.2339,-223.3694 517.7231,-213.1489 509.1138,-203.8971"/>
<polygon fill="#000000" stroke="#000000" points="511.5243,-201.3497 502.1497,-196.4133 506.3998,-206.1183 511.5243,-201.3497"/>
</g>
<!-- node_5 -->
<g id="node7" class="node">
<title>node_5</title>
<polygon fill="none" stroke="#000000" points="479.8192,-268 356.2111,-268 356.2111,-232 479.8192,-232 479.8192,-268"/>
<text text-anchor="middle" x="418.0151" y="-245.8" font-family="Times,serif" font-size="14.00" fill="#000000">parse Number: 300</text>
</g>
<!-- node_5&#45;&gt;node_6 -->
<g id="edge2" class="edge">
<title>node_5&#45;&gt;node_6</title>
<path fill="none" stroke="#000000" d="M434.9221,-231.8314C442.7964,-223.3694 452.3071,-213.1489 460.9165,-203.8971"/>
<polygon fill="#000000" stroke="#000000" points="463.6305,-206.1183 467.8806,-196.4133 458.506,-201.3497 463.6305,-206.1183"/>
</g>
<!-- node_6&#45;&gt;node_2 -->
<g id="edge6" class="edge">
<title>node_6&#45;&gt;node_2</title>
<path fill="none" stroke="#000000" d="M450.1919,-159.8314C432.214,-150.4516 410.0949,-138.9112 390.9535,-128.9244"/>
<polygon fill="#000000" stroke="#000000" points="392.3121,-125.6855 381.8272,-124.1628 389.0741,-131.8916 392.3121,-125.6855"/>
</g>
<!-- node_7&#45;&gt;node_0 -->
<g id="edge5" class="edge">
<title>node_7&#45;&gt;node_0</title>
<path fill="none" stroke="#000000" d="M599.4255,-87.8314C580.2912,-78.3302 556.6922,-66.6121 536.4029,-56.5374"/>
<polygon fill="#000000" stroke="#000000" points="537.8549,-53.3506 527.3416,-52.038 534.7416,-59.6203 537.8549,-53.3506"/>
</g>
<!-- node_8 -->
<g id="node10" class="node">
<title>node_8</title>
<polygon fill="none" stroke="#000000" points="291.0151,-268 246.2879,-250 291.0151,-232 335.7424,-250 291.0151,-268"/>
<text text-anchor="middle" x="291.0151" y="-245.8" font-family="Times,serif" font-size="14.00" fill="#000000">Client</text>
</g>
</g>
</svg>
