<?xml version="1.0" encoding="UTF-8" standalone="no"?>
<!DOCTYPE svg PUBLIC "-//W3C//DTD SVG 1.1//EN"
 "http://www.w3.org/Graphics/SVG/1.1/DTD/svg11.dtd">
<!-- Generated by graphviz version 2.40.1 (20161225.0304)
 -->
<!-- Title: %3 Pages: 1 -->
<svg width="841pt" height="292pt"
 viewBox="0.00 0.00 841.02 292.00" xmlns="http://www.w3.org/2000/svg" xmlns:xlink="http://www.w3.org/1999/xlink">
<g id="graph0" class="graph" transform="scale(1 1) rotate(0) translate(4 288)">
<title>%3</title>
<polygon fill="#ffffff" stroke="transparent" points="-4,4 -4,-288 837.0151,-288 837.0151,4 -4,4"/>
<g id="clust1" class="cluster">
<title>cluster_327034676</title>
<polygon fill="none" stroke="#000000" points="166.0151,-8 166.0151,-276 825.0151,-276 825.0151,-8 166.0151,-8"/>
</g>
<!-- node_9 -->
<g id="node1" class="node">
<title>node_9</title>
<polygon fill="none" stroke="#000000" points="158.0454,-268 -.0151,-268 -.0151,-232 158.0454,-232 158.0454,-268"/>
<text text-anchor="middle" x="79.0151" y="-245.8" font-family="Times,serif" font-size="14.00" fill="#000000">transmit imageIn&#45;&gt;Client</text>
</g>
<!-- node_0 -->
<g id="node2" class="node">
<title>node_0</title>
<polygon fill="none" stroke="#000000" points="416.6295,-196 315.4008,-196 315.4008,-160 416.6295,-160 416.6295,-196"/>
<text text-anchor="middle" x="366.0151" y="-173.8" font-family="Times,serif" font-size="14.00" fill="#000000">accept imageIn</text>
</g>
<!-- node_9&#45;&gt;node_0 -->
<g id="edge8" class="edge">
<title>node_9&#45;&gt;node_0</title>
<path fill="none" stroke="#000000" stroke-dasharray="1,5" d="M158.2015,-232.5473C199.7093,-223.0914 251.5702,-210.798 305.4924,-196.3455"/>
<polygon fill="#000000" stroke="#000000" points="306.4828,-199.7035 315.2256,-193.7191 304.6591,-192.9453 306.4828,-199.7035"/>
</g>
<!-- node_6 -->
<g id="node8" class="node">
<title>node_6</title>
<polygon fill="none" stroke="#000000" points="733.74,-124 556.2903,-124 556.2903,-88 733.74,-88 733.74,-124"/>
<text text-anchor="middle" x="645.0151" y="-101.8" font-family="Times,serif" font-size="14.00" fill="#000000">s1::ApplyInPlace([imageIn])</text>
</g>
<!-- node_0&#45;&gt;node_6 -->
<g id="edge3" class="edge">
<title>node_0&#45;&gt;node_6</title>
<path fill="none" stroke="#000000" d="M416.7032,-162.6006C419.8496,-161.7045 422.9727,-160.8309 426.0151,-160 469.3767,-148.1577 517.8823,-136.0786 558.2013,-126.356"/>
<polygon fill="#000000" stroke="#000000" points="559.095,-129.7409 568,-124.0005 557.4589,-122.9348 559.095,-129.7409"/>
</g>
<!-- node_1 -->
<g id="node3" class="node">
<title>node_1</title>
<polygon fill="none" stroke="#000000" points="747.8193,-268 638.211,-268 638.211,-232 747.8193,-232 747.8193,-268"/>
<text text-anchor="middle" x="693.0151" y="-245.8" font-family="Times,serif" font-size="14.00" fill="#000000">parse Number: 5</text>
</g>
<!-- node_7 -->
<g id="node9" class="node">
<title>node_7</title>
<polygon fill="none" stroke="#000000" points="817.2974,-196 434.7328,-196 434.7328,-160 817.2974,-160 817.2974,-196"/>
<text text-anchor="middle" x="626.0151" y="-173.8" font-family="Times,serif" font-size="14.00" fill="#000000">s1 = Catalano.Imaging.Filters.Crop::__construct([5, 5, 300, 300])</text>
</g>
<!-- node_1&#45;&gt;node_7 -->
<g id="edge4" class="edge">
<title>node_1&#45;&gt;node_7</title>
<path fill="none" stroke="#000000" d="M676.1082,-231.8314C668.2339,-223.3694 658.7231,-213.1489 650.1138,-203.8971"/>
<polygon fill="#000000" stroke="#000000" points="652.5243,-201.3497 643.1497,-196.4133 647.3998,-206.1183 652.5243,-201.3497"/>
</g>
<!-- node_2 -->
<g id="node4" class="node">
<title>node_2</title>
<polygon fill="none" stroke="#000000" points="538.1148,-124 173.9155,-124 173.9155,-88 538.1148,-88 538.1148,-124"/>
<text text-anchor="middle" x="356.0151" y="-101.8" font-family="Times,serif" font-size="14.00" fill="#000000">s2 = Catalano.Imaging.Filters.Resize::__construct([200, 200])</text>
</g>
<!-- node_4 -->
<g id="node6" class="node">
<title>node_4</title>
<polygon fill="none" stroke="#000000" points="621.9458,-52 378.0845,-52 378.0845,-16 621.9458,-16 621.9458,-52"/>
<text text-anchor="middle" x="500.0151" y="-29.8" font-family="Times,serif" font-size="14.00" fill="#000000">imageOut = s2::applyInPlace([imageIn])</text>
</g>
<!-- node_2&#45;&gt;node_4 -->
<g id="edge1" class="edge">
<title>node_2&#45;&gt;node_4</title>
<path fill="none" stroke="#000000" d="M392.3524,-87.8314C411.3548,-78.3302 434.791,-66.6121 454.9404,-56.5374"/>
<polygon fill="#000000" stroke="#000000" points="456.5601,-59.6407 463.9392,-52.038 453.4296,-53.3797 456.5601,-59.6407"/>
</g>
<!-- node_3 -->
<g id="node5" class="node">
<title>node_3</title>
<polygon fill="none" stroke="#000000" points="620.8192,-268 497.2111,-268 497.2111,-232 620.8192,-232 620.8192,-268"/>
<text text-anchor="middle" x="559.0151" y="-245.8" font-family="Times,serif" font-size="14.00" fill="#000000">parse Number: 300</text>
</g>
<!-- node_3&#45;&gt;node_7 -->
<g id="edge2" class="edge">
<title>node_3&#45;&gt;node_7</title>
<path fill="none" stroke="#000000" d="M575.9221,-231.8314C583.7964,-223.3694 593.3071,-213.1489 601.9165,-203.8971"/>
<polygon fill="#000000" stroke="#000000" points="604.6305,-206.1183 608.8806,-196.4133 599.506,-201.3497 604.6305,-206.1183"/>
</g>
<!-- node_5 -->
<g id="node7" class="node">
<title>node_5</title>
<polygon fill="none" stroke="#000000" points="297.8192,-196 174.2111,-196 174.2111,-160 297.8192,-160 297.8192,-196"/>
<text text-anchor="middle" x="236.0151" y="-173.8" font-family="Times,serif" font-size="14.00" fill="#000000">parse Number: 200</text>
</g>
<!-- node_5&#45;&gt;node_2 -->
<g id="edge5" class="edge">
<title>node_5&#45;&gt;node_2</title>
<path fill="none" stroke="#000000" d="M266.2962,-159.8314C281.6449,-150.6221 300.465,-139.3301 316.8974,-129.4706"/>
<polygon fill="#000000" stroke="#000000" points="318.9696,-132.3091 325.7438,-124.1628 315.3681,-126.3066 318.9696,-132.3091"/>
</g>
<!-- node_6&#45;&gt;node_4 -->
<g id="edge6" class="edge">
<title>node_6&#45;&gt;node_4</title>
<path fill="none" stroke="#000000" d="M608.4255,-87.8314C589.2912,-78.3302 565.6922,-66.6121 545.4029,-56.5374"/>
<polygon fill="#000000" stroke="#000000" points="546.8549,-53.3506 536.3416,-52.038 543.7416,-59.6203 546.8549,-53.3506"/>
</g>
<!-- node_7&#45;&gt;node_6 -->
<g id="edge7" class="edge">
<title>node_7&#45;&gt;node_6</title>
<path fill="none" stroke="#000000" d="M630.8096,-159.8314C632.864,-152.0463 635.3112,-142.7729 637.5907,-134.1347"/>
<polygon fill="#000000" stroke="#000000" points="640.9886,-134.9753 640.1561,-124.4133 634.2203,-133.1892 640.9886,-134.9753"/>
</g>
<!-- node_8 -->
<g id="node10" class="node">
<title>node_8</title>
<polygon fill="none" stroke="#000000" points="361.0151,-268 316.2879,-250 361.0151,-232 405.7424,-250 361.0151,-268"/>
<text text-anchor="middle" x="361.0151" y="-245.8" font-family="Times,serif" font-size="14.00" fill="#000000">Client</text>
</g>
</g>
</svg>
