<?xml version="1.0" encoding="UTF-8" standalone="no"?>
<!DOCTYPE svg PUBLIC "-//W3C//DTD SVG 1.1//EN"
 "http://www.w3.org/Graphics/SVG/1.1/DTD/svg11.dtd">
<!-- Generated by graphviz version 2.40.1 (20161225.0304)
 -->
<!-- Title: %3 Pages: 1 -->
<svg width="1549pt" height="436pt"
 viewBox="0.00 0.00 1549.02 436.00" xmlns="http://www.w3.org/2000/svg" xmlns:xlink="http://www.w3.org/1999/xlink">
<g id="graph0" class="graph" transform="scale(1 1) rotate(0) translate(4 432)">
<title>%3</title>
<polygon fill="#ffffff" stroke="transparent" points="-4,4 -4,-432 1545.0151,-432 1545.0151,4 -4,4"/>
<g id="clust1" class="cluster">
<title>cluster_480543139</title>
<polygon fill="none" stroke="#000000" points="166.0151,-8 166.0151,-204 694.0151,-204 694.0151,-8 166.0151,-8"/>
</g>
<g id="clust2" class="cluster">
<title>cluster_791280278</title>
<polygon fill="none" stroke="#000000" points="702.0151,-80 702.0151,-420 1533.0151,-420 1533.0151,-80 702.0151,-80"/>
</g>
<!-- node_32 -->
<g id="node1" class="node">
<title>node_32</title>
<polygon fill="none" stroke="#000000" points="158.0454,-196 -.0151,-196 -.0151,-160 158.0454,-160 158.0454,-196"/>
<text text-anchor="middle" x="79.0151" y="-173.8" font-family="Times,serif" font-size="14.00" fill="#000000">transmit imageIn&#45;&gt;Client</text>
</g>
<!-- node_27 -->
<g id="node3" class="node">
<title>node_27</title>
<polygon fill="none" stroke="#000000" points="306.13,-124 173.9003,-124 173.9003,-88 306.13,-88 306.13,-124"/>
<text text-anchor="middle" x="240.0151" y="-101.8" font-family="Times,serif" font-size="14.00" fill="#000000">accept imageIn &#160;as is</text>
</g>
<!-- node_32&#45;&gt;node_27 -->
<g id="edge14" class="edge">
<title>node_32&#45;&gt;node_27</title>
<path fill="none" stroke="#000000" stroke-dasharray="1,5" d="M119.6422,-159.8314C141.175,-150.2018 167.8,-138.295 190.5303,-128.1299"/>
<polygon fill="#000000" stroke="#000000" points="191.9803,-131.3155 199.6802,-124.038 189.1226,-124.9254 191.9803,-131.3155"/>
</g>
<!-- node_26 -->
<g id="node2" class="node">
<title>node_26</title>
<polygon fill="none" stroke="#000000" points="525.5708,-124 324.4595,-124 324.4595,-88 525.5708,-88 525.5708,-124"/>
<text text-anchor="middle" x="425.0151" y="-101.8" font-family="Times,serif" font-size="14.00" fill="#000000">accept &amp;finished&amp;executor &#160;as is</text>
</g>
<!-- node_28 -->
<g id="node4" class="node">
<title>node_28</title>
<polygon fill="none" stroke="#000000" points="516.0181,-52 344.0122,-52 344.0122,-16 516.0181,-16 516.0181,-52"/>
<text text-anchor="middle" x="430.0151" y="-29.8" font-family="Times,serif" font-size="14.00" fill="#000000">transmit imageIn&#45;&gt;executor</text>
</g>
<!-- node_27&#45;&gt;node_28 -->
<g id="edge1" class="edge">
<title>node_27&#45;&gt;node_28</title>
<path fill="none" stroke="#000000" d="M287.9602,-87.8314C313.8233,-78.0306 345.9114,-65.8709 373.0431,-55.5894"/>
<polygon fill="#000000" stroke="#000000" points="374.3041,-58.8545 382.4149,-52.038 371.8235,-52.3087 374.3041,-58.8545"/>
</g>
<!-- node_22 -->
<g id="node12" class="node">
<title>node_22</title>
<polygon fill="none" stroke="#000000" points="1525.5096,-340 1110.5207,-340 1110.5207,-304 1525.5096,-304 1525.5096,-340"/>
<text text-anchor="middle" x="1318.0151" y="-317.8" font-family="Times,serif" font-size="14.00" fill="#000000">accept imageIn cast imageIn from Arr to Catalano.Imaging.FastBitmap</text>
</g>
<!-- node_28&#45;&gt;node_22 -->
<g id="edge13" class="edge">
<title>node_28&#45;&gt;node_22</title>
<path fill="none" stroke="#000000" stroke-dasharray="1,5" d="M516.2049,-37.4638C636.0598,-43.0726 846.5094,-56.013 919.0151,-80 1070.6543,-130.1667 1225.3708,-246.5887 1288.4921,-297.4658"/>
<polygon fill="#000000" stroke="#000000" points="1286.4617,-300.3255 1296.4316,-303.9103 1290.8732,-294.8906 1286.4617,-300.3255"/>
</g>
<!-- node_29 -->
<g id="node5" class="node">
<title>node_29</title>
<polygon fill="none" stroke="#000000" points="463.5532,-196 386.477,-196 386.477,-160 463.5532,-160 463.5532,-196"/>
<text text-anchor="middle" x="425.0151" y="-173.8" font-family="Times,serif" font-size="14.00" fill="#000000">send graph</text>
</g>
<!-- node_29&#45;&gt;node_26 -->
<g id="edge3" class="edge">
<title>node_29&#45;&gt;node_26</title>
<path fill="none" stroke="#000000" d="M425.0151,-159.8314C425.0151,-152.131 425.0151,-142.9743 425.0151,-134.4166"/>
<polygon fill="#000000" stroke="#000000" points="428.5152,-134.4132 425.0151,-124.4133 421.5152,-134.4133 428.5152,-134.4132"/>
</g>
<!-- node_29&#45;&gt;node_27 -->
<g id="edge4" class="edge">
<title>node_29&#45;&gt;node_27</title>
<path fill="none" stroke="#000000" d="M386.2331,-162.9064C360.0552,-152.7183 325.0933,-139.1115 295.9208,-127.7579"/>
<polygon fill="#000000" stroke="#000000" points="296.8591,-124.3674 286.2706,-124.0021 294.3202,-130.8908 296.8591,-124.3674"/>
</g>
<!-- node_30 -->
<g id="node6" class="node">
<title>node_30</title>
<polygon fill="none" stroke="#000000" points="685.9673,-124 544.063,-124 544.063,-88 685.9673,-88 685.9673,-124"/>
<text text-anchor="middle" x="615.0151" y="-101.8" font-family="Times,serif" font-size="14.00" fill="#000000">accept imageOut &#160;as is</text>
</g>
<!-- node_29&#45;&gt;node_30 -->
<g id="edge2" class="edge">
<title>node_29&#45;&gt;node_30</title>
<path fill="none" stroke="#000000" d="M463.923,-163.256C490.9616,-153.0098 527.445,-139.1845 557.7875,-127.6863"/>
<polygon fill="#000000" stroke="#000000" points="559.2926,-130.8589 567.4034,-124.0423 556.812,-124.3131 559.2926,-130.8589"/>
</g>
<!-- node_31 -->
<g id="node7" class="node">
<title>node_31</title>
<polygon fill="none" stroke="#000000" points="273.0151,-196 228.2879,-178 273.0151,-160 317.7424,-178 273.0151,-196"/>
<text text-anchor="middle" x="273.0151" y="-173.8" font-family="Times,serif" font-size="14.00" fill="#000000">Client</text>
</g>
<!-- node_18 -->
<g id="node8" class="node">
<title>node_18</title>
<polygon fill="none" stroke="#000000" points="1092.2974,-340 709.7328,-340 709.7328,-304 1092.2974,-304 1092.2974,-340"/>
<text text-anchor="middle" x="901.0151" y="-317.8" font-family="Times,serif" font-size="14.00" fill="#000000">s1 = Catalano.Imaging.Filters.Crop::__construct([0, 0, 100, 100])</text>
</g>
<!-- node_19 -->
<g id="node9" class="node">
<title>node_19</title>
<polygon fill="none" stroke="#000000" points="1024.8423,-268 777.1879,-268 777.1879,-232 1024.8423,-232 1024.8423,-268"/>
<text text-anchor="middle" x="901.0151" y="-245.8" font-family="Times,serif" font-size="14.00" fill="#000000">imageOut = s1::ApplyInPlace([imageIn])</text>
</g>
<!-- node_18&#45;&gt;node_19 -->
<g id="edge5" class="edge">
<title>node_18&#45;&gt;node_19</title>
<path fill="none" stroke="#000000" d="M901.0151,-303.8314C901.0151,-296.131 901.0151,-286.9743 901.0151,-278.4166"/>
<polygon fill="#000000" stroke="#000000" points="904.5152,-278.4132 901.0151,-268.4133 897.5152,-278.4133 904.5152,-278.4132"/>
</g>
<!-- node_23 -->
<g id="node13" class="node">
<title>node_23</title>
<polygon fill="none" stroke="#000000" points="893.8837,-196 726.1466,-196 726.1466,-160 893.8837,-160 893.8837,-196"/>
<text text-anchor="middle" x="810.0151" y="-173.8" font-family="Times,serif" font-size="14.00" fill="#000000">transmit imageOut&#45;&gt;Client</text>
</g>
<!-- node_19&#45;&gt;node_23 -->
<g id="edge7" class="edge">
<title>node_19&#45;&gt;node_23</title>
<path fill="none" stroke="#000000" d="M878.052,-231.8314C866.8436,-222.9632 853.1942,-212.1637 841.0712,-202.5718"/>
<polygon fill="#000000" stroke="#000000" points="842.9849,-199.6229 832.9709,-196.1628 838.6415,-205.1125 842.9849,-199.6229"/>
</g>
<!-- node_20 -->
<g id="node10" class="node">
<title>node_20</title>
<polygon fill="none" stroke="#000000" points="1092.8193,-412 983.211,-412 983.211,-376 1092.8193,-376 1092.8193,-412"/>
<text text-anchor="middle" x="1038.0151" y="-389.8" font-family="Times,serif" font-size="14.00" fill="#000000">parse Number: 0</text>
</g>
<!-- node_20&#45;&gt;node_18 -->
<g id="edge10" class="edge">
<title>node_20&#45;&gt;node_18</title>
<path fill="none" stroke="#000000" d="M1003.4443,-375.8314C985.5966,-366.4516 963.6378,-354.9112 944.6351,-344.9244"/>
<polygon fill="#000000" stroke="#000000" points="946.0552,-341.7168 935.575,-340.1628 942.7987,-347.9132 946.0552,-341.7168"/>
</g>
<!-- node_21 -->
<g id="node11" class="node">
<title>node_21</title>
<polygon fill="none" stroke="#000000" points="965.8192,-412 842.2111,-412 842.2111,-376 965.8192,-376 965.8192,-412"/>
<text text-anchor="middle" x="904.0151" y="-389.8" font-family="Times,serif" font-size="14.00" fill="#000000">parse Number: 100</text>
</g>
<!-- node_21&#45;&gt;node_18 -->
<g id="edge8" class="edge">
<title>node_21&#45;&gt;node_18</title>
<path fill="none" stroke="#000000" d="M903.2581,-375.8314C902.9373,-368.131 902.5557,-358.9743 902.1992,-350.4166"/>
<polygon fill="#000000" stroke="#000000" points="905.6957,-350.2589 901.7824,-340.4133 898.7018,-350.5503 905.6957,-350.2589"/>
</g>
<!-- node_22&#45;&gt;node_19 -->
<g id="edge9" class="edge">
<title>node_22&#45;&gt;node_19</title>
<path fill="none" stroke="#000000" d="M1213.5955,-303.9707C1153.3793,-293.5737 1077.5856,-280.487 1015.714,-269.8041"/>
<polygon fill="#000000" stroke="#000000" points="1015.9651,-266.2958 1005.5153,-268.0432 1014.774,-273.1937 1015.9651,-266.2958"/>
</g>
<!-- node_23&#45;&gt;node_30 -->
<g id="edge12" class="edge">
<title>node_23&#45;&gt;node_30</title>
<path fill="none" stroke="#000000" stroke-dasharray="1,5" d="M761.0601,-159.9243C734.5184,-150.1243 701.5329,-137.945 673.6293,-127.6422"/>
<polygon fill="#000000" stroke="#000000" points="674.5836,-124.2636 663.9903,-124.0831 672.159,-130.8303 674.5836,-124.2636"/>
</g>
<!-- node_24 -->
<g id="node14" class="node">
<title>node_24</title>
<polygon fill="none" stroke="#000000" points="909.6636,-124 710.3666,-124 710.3666,-88 909.6636,-88 909.6636,-124"/>
<text text-anchor="middle" x="810.0151" y="-101.8" font-family="Times,serif" font-size="14.00" fill="#000000">FinishNode &amp;finished&amp;executor</text>
</g>
<!-- node_23&#45;&gt;node_24 -->
<g id="edge6" class="edge">
<title>node_23&#45;&gt;node_24</title>
<path fill="none" stroke="#000000" d="M810.0151,-159.8314C810.0151,-152.131 810.0151,-142.9743 810.0151,-134.4166"/>
<polygon fill="#000000" stroke="#000000" points="813.5152,-134.4132 810.0151,-124.4133 806.5152,-134.4133 813.5152,-134.4132"/>
</g>
<!-- node_24&#45;&gt;node_26 -->
<g id="edge11" class="edge">
<title>node_24&#45;&gt;node_26</title>
<path fill="none" stroke="#000000" stroke-dasharray="1,5" d="M761.2878,-124.0001C739.5025,-131.1304 713.306,-138.4631 689.0151,-142 625.2432,-151.2856 607.7656,-151.4319 544.0151,-142 523.7416,-139.0005 502.1367,-133.2738 482.977,-127.2554"/>
<polygon fill="#000000" stroke="#000000" points="483.7924,-123.8407 473.2006,-124.0945 481.6389,-130.5012 483.7924,-123.8407"/>
</g>
<!-- node_25 -->
<g id="node15" class="node">
<title>node_25</title>
<polygon fill="none" stroke="#000000" points="767.0151,-412 709.8237,-394 767.0151,-376 824.2066,-394 767.0151,-412"/>
<text text-anchor="middle" x="767.0151" y="-389.8" font-family="Times,serif" font-size="14.00" fill="#000000">executor</text>
</g>
</g>
</svg>
