<?xml version="1.0" encoding="UTF-8" standalone="no"?>
<!DOCTYPE svg PUBLIC "-//W3C//DTD SVG 1.1//EN"
 "http://www.w3.org/Graphics/SVG/1.1/DTD/svg11.dtd">
<!-- Generated by graphviz version 2.40.1 (20161225.0304)
 -->
<!-- Title: %3 Pages: 1 -->
<svg width="786pt" height="292pt"
 viewBox="0.00 0.00 786.41 292.00" xmlns="http://www.w3.org/2000/svg" xmlns:xlink="http://www.w3.org/1999/xlink">
<g id="graph0" class="graph" transform="scale(1 1) rotate(0) translate(4 288)">
<title>%3</title>
<polygon fill="#ffffff" stroke="transparent" points="-4,4 -4,-288 782.4116,-288 782.4116,4 -4,4"/>
<g id="clust1" class="cluster">
<title>cluster_1017319538</title>
<polygon fill="none" stroke="#000000" points="8,-8 8,-276 640,-276 640,-8 8,-8"/>
</g>
<!-- node_0 -->
<g id="node1" class="node">
<title>node_0</title>
<polygon fill="none" stroke="#000000" points="394.1788,-52 213.8212,-52 213.8212,-16 394.1788,-16 394.1788,-52"/>
<text text-anchor="middle" x="304" y="-29.8" font-family="Times,serif" font-size="14.00" fill="#000000">fb3 = s2::applyInPlace([fb2])</text>
</g>
<!-- node_1 -->
<g id="node2" class="node">
<title>node_1</title>
<polygon fill="none" stroke="#000000" points="398.2823,-196 15.7177,-196 15.7177,-160 398.2823,-160 398.2823,-196"/>
<text text-anchor="middle" x="207" y="-173.8" font-family="Times,serif" font-size="14.00" fill="#000000">s1 = Catalano.Imaging.Filters.Crop::__construct([5, 5, 300, 300])</text>
</g>
<!-- node_7 -->
<g id="node8" class="node">
<title>node_7</title>
<polygon fill="none" stroke="#000000" points="250.0752,-124 65.9248,-124 65.9248,-88 250.0752,-88 250.0752,-124"/>
<text text-anchor="middle" x="158" y="-101.8" font-family="Times,serif" font-size="14.00" fill="#000000">fb2 = s1::ApplyInPlace([fb1])</text>
</g>
<!-- node_1&#45;&gt;node_7 -->
<g id="edge2" class="edge">
<title>node_1&#45;&gt;node_7</title>
<path fill="none" stroke="#000000" d="M194.6352,-159.8314C189.0491,-151.6232 182.337,-141.7606 176.1928,-132.7323"/>
<polygon fill="#000000" stroke="#000000" points="179.051,-130.7112 170.5313,-124.4133 173.264,-134.6496 179.051,-130.7112"/>
</g>
<!-- node_2 -->
<g id="node3" class="node">
<title>node_2</title>
<polygon fill="none" stroke="#000000" points="632.0996,-124 267.9004,-124 267.9004,-88 632.0996,-88 632.0996,-124"/>
<text text-anchor="middle" x="450" y="-101.8" font-family="Times,serif" font-size="14.00" fill="#000000">s2 = Catalano.Imaging.Filters.Resize::__construct([200, 200])</text>
</g>
<!-- node_2&#45;&gt;node_0 -->
<g id="edge6" class="edge">
<title>node_2&#45;&gt;node_0</title>
<path fill="none" stroke="#000000" d="M413.158,-87.8314C393.8918,-78.3302 370.1301,-66.6121 349.7008,-56.5374"/>
<polygon fill="#000000" stroke="#000000" points="351.0938,-53.3219 340.577,-52.038 347.9977,-59.6 351.0938,-53.3219"/>
</g>
<!-- node_3 -->
<g id="node4" class="node">
<title>node_3</title>
<polygon fill="none" stroke="#000000" points="389.8041,-268 280.1959,-268 280.1959,-232 389.8041,-232 389.8041,-268"/>
<text text-anchor="middle" x="335" y="-245.8" font-family="Times,serif" font-size="14.00" fill="#000000">parse Number: 5</text>
</g>
<!-- node_3&#45;&gt;node_1 -->
<g id="edge7" class="edge">
<title>node_3&#45;&gt;node_1</title>
<path fill="none" stroke="#000000" d="M302.7002,-231.8314C286.1766,-222.5368 265.8814,-211.1208 248.2393,-201.1971"/>
<polygon fill="#000000" stroke="#000000" points="249.7212,-198.015 239.2895,-196.1628 246.2893,-204.116 249.7212,-198.015"/>
</g>
<!-- node_4 -->
<g id="node5" class="node">
<title>node_4</title>
<polygon fill="none" stroke="#000000" points="262.8041,-268 139.1959,-268 139.1959,-232 262.8041,-232 262.8041,-268"/>
<text text-anchor="middle" x="201" y="-245.8" font-family="Times,serif" font-size="14.00" fill="#000000">parse Number: 300</text>
</g>
<!-- node_4&#45;&gt;node_1 -->
<g id="edge4" class="edge">
<title>node_4&#45;&gt;node_1</title>
<path fill="none" stroke="#000000" d="M202.5141,-231.8314C203.1558,-224.131 203.9188,-214.9743 204.6319,-206.4166"/>
<polygon fill="#000000" stroke="#000000" points="208.1229,-206.6694 205.4656,-196.4133 201.1471,-206.088 208.1229,-206.6694"/>
</g>
<!-- node_5 -->
<g id="node6" class="node">
<title>node_5</title>
<polygon fill="none" stroke="#000000" points="631.8041,-196 508.1959,-196 508.1959,-160 631.8041,-160 631.8041,-196"/>
<text text-anchor="middle" x="570" y="-173.8" font-family="Times,serif" font-size="14.00" fill="#000000">parse Number: 200</text>
</g>
<!-- node_5&#45;&gt;node_2 -->
<g id="edge5" class="edge">
<title>node_5&#45;&gt;node_2</title>
<path fill="none" stroke="#000000" d="M539.7189,-159.8314C524.3702,-150.6221 505.5502,-139.3301 489.1177,-129.4706"/>
<polygon fill="#000000" stroke="#000000" points="490.6471,-126.3066 480.2714,-124.1628 487.0456,-132.3091 490.6471,-126.3066"/>
</g>
<!-- node_6 -->
<g id="node7" class="node">
<title>node_6</title>
<polygon fill="none" stroke="#000000" points="489.9073,-196 416.0927,-196 416.0927,-160 489.9073,-160 489.9073,-196"/>
<text text-anchor="middle" x="453" y="-173.8" font-family="Times,serif" font-size="14.00" fill="#000000">accept fb1</text>
</g>
<!-- node_6&#45;&gt;node_7 -->
<g id="edge1" class="edge">
<title>node_6&#45;&gt;node_7</title>
<path fill="none" stroke="#000000" d="M416.0212,-162.9451C412.9894,-161.8899 409.9555,-160.8925 407,-160 359.3633,-145.6146 305.5103,-133.4445 260.1031,-124.3206"/>
<polygon fill="#000000" stroke="#000000" points="260.7406,-120.8789 250.25,-122.3617 259.3756,-127.7446 260.7406,-120.8789"/>
</g>
<!-- node_7&#45;&gt;node_0 -->
<g id="edge3" class="edge">
<title>node_7&#45;&gt;node_0</title>
<path fill="none" stroke="#000000" d="M194.842,-87.8314C214.1082,-78.3302 237.8699,-66.6121 258.2992,-56.5374"/>
<polygon fill="#000000" stroke="#000000" points="260.0023,-59.6 267.423,-52.038 256.9062,-53.3219 260.0023,-59.6"/>
</g>
<!-- node_8 -->
<g id="node9" class="node">
<title>node_8</title>
<polygon fill="none" stroke="#000000" points="71,-268 26.2728,-250 71,-232 115.7272,-250 71,-268"/>
<text text-anchor="middle" x="71" y="-245.8" font-family="Times,serif" font-size="14.00" fill="#000000">Client</text>
</g>
<!-- node_9 -->
<g id="node10" class="node">
<title>node_9</title>
<polygon fill="none" stroke="#000000" points="778.3234,-268 647.6766,-268 647.6766,-232 778.3234,-232 778.3234,-268"/>
<text text-anchor="middle" x="713" y="-245.8" font-family="Times,serif" font-size="14.00" fill="#000000">transmit fb1&#45;&gt;Client</text>
</g>
<!-- node_9&#45;&gt;node_6 -->
<g id="edge8" class="edge">
<title>node_9&#45;&gt;node_6</title>
<path fill="none" stroke="#000000" stroke-dasharray="1,5" d="M647.6312,-232.9263C646.411,-232.6144 645.1997,-232.3054 644,-232 582.6676,-216.387 564.0052,-216.1288 499.8198,-196.0656"/>
<polygon fill="#000000" stroke="#000000" points="500.5991,-192.6411 490.009,-192.9575 498.485,-199.3142 500.5991,-192.6411"/>
</g>
</g>
</svg>
