<?xml version="1.0" encoding="UTF-8" standalone="no"?>
<!DOCTYPE svg PUBLIC "-//W3C//DTD SVG 1.1//EN"
 "http://www.w3.org/Graphics/SVG/1.1/DTD/svg11.dtd">
<!-- Generated by graphviz version 2.40.1 (20161225.0304)
 -->
<!-- Title: %3 Pages: 1 -->
<svg width="1557pt" height="436pt"
 viewBox="0.00 0.00 1557.00 436.00" xmlns="http://www.w3.org/2000/svg" xmlns:xlink="http://www.w3.org/1999/xlink">
<g id="graph0" class="graph" transform="scale(1 1) rotate(0) translate(4 432)">
<title>%3</title>
<polygon fill="#ffffff" stroke="transparent" points="-4,4 -4,-432 1553,-432 1553,4 -4,4"/>
<g id="clust1" class="cluster">
<title>cluster_2004165189</title>
<polygon fill="none" stroke="#000000" points="8,-8 8,-204 536,-204 536,-8 8,-8"/>
</g>
<g id="clust2" class="cluster">
<title>cluster_1530563582</title>
<polygon fill="none" stroke="#000000" points="710,-80 710,-420 1541,-420 1541,-80 710,-80"/>
</g>
<!-- node_26 -->
<g id="node1" class="node">
<title>node_26</title>
<polygon fill="none" stroke="#000000" points="340.5381,-196 263.4619,-196 263.4619,-160 340.5381,-160 340.5381,-196"/>
<text text-anchor="middle" x="302" y="-173.8" font-family="Times,serif" font-size="14.00" fill="#000000">send graph</text>
</g>
<!-- node_27 -->
<g id="node2" class="node">
<title>node_27</title>
<polygon fill="none" stroke="#000000" points="527.9522,-124 386.0478,-124 386.0478,-88 527.9522,-88 527.9522,-124"/>
<text text-anchor="middle" x="457" y="-101.8" font-family="Times,serif" font-size="14.00" fill="#000000">accept imageOut &#160;as is</text>
</g>
<!-- node_26&#45;&gt;node_27 -->
<g id="edge1" class="edge">
<title>node_26&#45;&gt;node_27</title>
<path fill="none" stroke="#000000" d="M340.7132,-160.0171C361.4265,-150.3954 387.1201,-138.4603 409.0839,-128.2578"/>
<polygon fill="#000000" stroke="#000000" points="410.6483,-131.3903 418.2431,-124.0032 407.6993,-125.0418 410.6483,-131.3903"/>
</g>
<!-- node_29 -->
<g id="node4" class="node">
<title>node_29</title>
<polygon fill="none" stroke="#000000" points="368.1148,-124 235.8852,-124 235.8852,-88 368.1148,-88 368.1148,-124"/>
<text text-anchor="middle" x="302" y="-101.8" font-family="Times,serif" font-size="14.00" fill="#000000">accept imageIn &#160;as is</text>
</g>
<!-- node_26&#45;&gt;node_29 -->
<g id="edge2" class="edge">
<title>node_26&#45;&gt;node_29</title>
<path fill="none" stroke="#000000" d="M302,-159.8314C302,-152.131 302,-142.9743 302,-134.4166"/>
<polygon fill="#000000" stroke="#000000" points="305.5001,-134.4132 302,-124.4133 298.5001,-134.4133 305.5001,-134.4132"/>
</g>
<!-- node_30 -->
<g id="node5" class="node">
<title>node_30</title>
<polygon fill="none" stroke="#000000" points="217.5557,-124 16.4443,-124 16.4443,-88 217.5557,-88 217.5557,-124"/>
<text text-anchor="middle" x="117" y="-101.8" font-family="Times,serif" font-size="14.00" fill="#000000">accept &amp;finished&amp;executor &#160;as is</text>
</g>
<!-- node_26&#45;&gt;node_30 -->
<g id="edge3" class="edge">
<title>node_26&#45;&gt;node_30</title>
<path fill="none" stroke="#000000" d="M263.2179,-162.9064C237.0401,-152.7183 202.0782,-139.1115 172.9057,-127.7579"/>
<polygon fill="#000000" stroke="#000000" points="173.844,-124.3674 163.2554,-124.0021 171.3051,-130.8908 173.844,-124.3674"/>
</g>
<!-- node_28 -->
<g id="node3" class="node">
<title>node_28</title>
<polygon fill="none" stroke="#000000" points="458.0029,-52 285.9971,-52 285.9971,-16 458.0029,-16 458.0029,-52"/>
<text text-anchor="middle" x="372" y="-29.8" font-family="Times,serif" font-size="14.00" fill="#000000">transmit imageIn&#45;&gt;executor</text>
</g>
<!-- node_18 -->
<g id="node8" class="node">
<title>node_18</title>
<polygon fill="none" stroke="#000000" points="1533.4944,-340 1118.5056,-340 1118.5056,-304 1533.4944,-304 1533.4944,-340"/>
<text text-anchor="middle" x="1326" y="-317.8" font-family="Times,serif" font-size="14.00" fill="#000000">accept imageIn cast imageIn from Arr to Catalano.Imaging.FastBitmap</text>
</g>
<!-- node_28&#45;&gt;node_18 -->
<g id="edge12" class="edge">
<title>node_28&#45;&gt;node_18</title>
<path fill="none" stroke="#000000" stroke-dasharray="1,5" d="M458.1167,-36.3237C591.6789,-40.7373 842.2254,-52.4751 927,-80 1078.9153,-129.3244 1233.4826,-246.2014 1296.5207,-297.3322"/>
<polygon fill="#000000" stroke="#000000" points="1294.4909,-300.1934 1304.4495,-303.8095 1298.9195,-294.7724 1294.4909,-300.1934"/>
</g>
<!-- node_29&#45;&gt;node_28 -->
<g id="edge4" class="edge">
<title>node_29&#45;&gt;node_28</title>
<path fill="none" stroke="#000000" d="M319.664,-87.8314C327.9732,-79.2848 338.0264,-68.9443 347.0918,-59.6198"/>
<polygon fill="#000000" stroke="#000000" points="349.6369,-62.023 354.0982,-52.4133 344.6179,-57.1435 349.6369,-62.023"/>
</g>
<!-- node_31 -->
<g id="node6" class="node">
<title>node_31</title>
<polygon fill="none" stroke="#000000" points="131,-196 86.2728,-178 131,-160 175.7272,-178 131,-196"/>
<text text-anchor="middle" x="131" y="-173.8" font-family="Times,serif" font-size="14.00" fill="#000000">Client</text>
</g>
<!-- node_32 -->
<g id="node7" class="node">
<title>node_32</title>
<polygon fill="none" stroke="#000000" points="702.0303,-196 543.9697,-196 543.9697,-160 702.0303,-160 702.0303,-196"/>
<text text-anchor="middle" x="623" y="-173.8" font-family="Times,serif" font-size="14.00" fill="#000000">transmit imageIn&#45;&gt;Client</text>
</g>
<!-- node_32&#45;&gt;node_29 -->
<g id="edge14" class="edge">
<title>node_32&#45;&gt;node_29</title>
<path fill="none" stroke="#000000" stroke-dasharray="1,5" d="M543.9173,-160.815C489.0496,-148.8616 419.7882,-133.7047 377.9919,-124.2012"/>
<polygon fill="#000000" stroke="#000000" points="378.7655,-120.7879 368.2369,-121.9707 377.2052,-127.6118 378.7655,-120.7879"/>
</g>
<!-- node_22 -->
<g id="node12" class="node">
<title>node_22</title>
<polygon fill="none" stroke="#000000" points="1032.8272,-268 785.1728,-268 785.1728,-232 1032.8272,-232 1032.8272,-268"/>
<text text-anchor="middle" x="909" y="-245.8" font-family="Times,serif" font-size="14.00" fill="#000000">imageOut = s1::ApplyInPlace([imageIn])</text>
</g>
<!-- node_18&#45;&gt;node_22 -->
<g id="edge6" class="edge">
<title>node_18&#45;&gt;node_22</title>
<path fill="none" stroke="#000000" d="M1221.5804,-303.9707C1161.3642,-293.5737 1085.5705,-280.487 1023.6989,-269.8041"/>
<polygon fill="#000000" stroke="#000000" points="1023.9499,-266.2958 1013.5002,-268.0432 1022.7589,-273.1937 1023.9499,-266.2958"/>
</g>
<!-- node_19 -->
<g id="node9" class="node">
<title>node_19</title>
<polygon fill="none" stroke="#000000" points="1100.8041,-412 991.1959,-412 991.1959,-376 1100.8041,-376 1100.8041,-412"/>
<text text-anchor="middle" x="1046" y="-389.8" font-family="Times,serif" font-size="14.00" fill="#000000">parse Number: 0</text>
</g>
<!-- node_24 -->
<g id="node14" class="node">
<title>node_24</title>
<polygon fill="none" stroke="#000000" points="1100.2823,-340 717.7177,-340 717.7177,-304 1100.2823,-304 1100.2823,-340"/>
<text text-anchor="middle" x="909" y="-317.8" font-family="Times,serif" font-size="14.00" fill="#000000">s1 = Catalano.Imaging.Filters.Crop::__construct([0, 0, 100, 100])</text>
</g>
<!-- node_19&#45;&gt;node_24 -->
<g id="edge8" class="edge">
<title>node_19&#45;&gt;node_24</title>
<path fill="none" stroke="#000000" d="M1011.4291,-375.8314C993.5815,-366.4516 971.6226,-354.9112 952.62,-344.9244"/>
<polygon fill="#000000" stroke="#000000" points="954.0401,-341.7168 943.5598,-340.1628 950.7836,-347.9132 954.0401,-341.7168"/>
</g>
<!-- node_20 -->
<g id="node10" class="node">
<title>node_20</title>
<polygon fill="none" stroke="#000000" points="973.8041,-412 850.1959,-412 850.1959,-376 973.8041,-376 973.8041,-412"/>
<text text-anchor="middle" x="912" y="-389.8" font-family="Times,serif" font-size="14.00" fill="#000000">parse Number: 100</text>
</g>
<!-- node_20&#45;&gt;node_24 -->
<g id="edge7" class="edge">
<title>node_20&#45;&gt;node_24</title>
<path fill="none" stroke="#000000" d="M911.243,-375.8314C910.9221,-368.131 910.5406,-358.9743 910.184,-350.4166"/>
<polygon fill="#000000" stroke="#000000" points="913.6806,-350.2589 909.7672,-340.4133 906.6867,-350.5503 913.6806,-350.2589"/>
</g>
<!-- node_21 -->
<g id="node11" class="node">
<title>node_21</title>
<polygon fill="none" stroke="#000000" points="917.6485,-124 718.3515,-124 718.3515,-88 917.6485,-88 917.6485,-124"/>
<text text-anchor="middle" x="818" y="-101.8" font-family="Times,serif" font-size="14.00" fill="#000000">FinishNode &amp;finished&amp;executor</text>
</g>
<!-- node_21&#45;&gt;node_30 -->
<g id="edge13" class="edge">
<title>node_21&#45;&gt;node_30</title>
<path fill="none" stroke="#000000" stroke-dasharray="1,5" d="M722.4698,-124.0283C606.7385,-143.0833 406.1208,-167.1693 236,-142 215.7265,-139.0005 194.1216,-133.2738 174.9619,-127.2554"/>
<polygon fill="#000000" stroke="#000000" points="175.7773,-123.8407 165.1855,-124.0945 173.6237,-130.5012 175.7773,-123.8407"/>
</g>
<!-- node_23 -->
<g id="node13" class="node">
<title>node_23</title>
<polygon fill="none" stroke="#000000" points="901.8686,-196 734.1314,-196 734.1314,-160 901.8686,-160 901.8686,-196"/>
<text text-anchor="middle" x="818" y="-173.8" font-family="Times,serif" font-size="14.00" fill="#000000">transmit imageOut&#45;&gt;Client</text>
</g>
<!-- node_22&#45;&gt;node_23 -->
<g id="edge5" class="edge">
<title>node_22&#45;&gt;node_23</title>
<path fill="none" stroke="#000000" d="M886.0369,-231.8314C874.8285,-222.9632 861.1791,-212.1637 849.0561,-202.5718"/>
<polygon fill="#000000" stroke="#000000" points="850.9697,-199.6229 840.9558,-196.1628 846.6263,-205.1125 850.9697,-199.6229"/>
</g>
<!-- node_23&#45;&gt;node_27 -->
<g id="edge11" class="edge">
<title>node_23&#45;&gt;node_27</title>
<path fill="none" stroke="#000000" stroke-dasharray="1,5" d="M734.272,-161.3008C675.203,-149.5197 596.5033,-133.8234 538.0418,-122.1635"/>
<polygon fill="#000000" stroke="#000000" points="538.598,-118.7055 528.1065,-120.1819 537.2288,-125.5703 538.598,-118.7055"/>
</g>
<!-- node_23&#45;&gt;node_21 -->
<g id="edge9" class="edge">
<title>node_23&#45;&gt;node_21</title>
<path fill="none" stroke="#000000" d="M818,-159.8314C818,-152.131 818,-142.9743 818,-134.4166"/>
<polygon fill="#000000" stroke="#000000" points="821.5001,-134.4132 818,-124.4133 814.5001,-134.4133 821.5001,-134.4132"/>
</g>
<!-- node_24&#45;&gt;node_22 -->
<g id="edge10" class="edge">
<title>node_24&#45;&gt;node_22</title>
<path fill="none" stroke="#000000" d="M909,-303.8314C909,-296.131 909,-286.9743 909,-278.4166"/>
<polygon fill="#000000" stroke="#000000" points="912.5001,-278.4132 909,-268.4133 905.5001,-278.4133 912.5001,-278.4132"/>
</g>
<!-- node_25 -->
<g id="node15" class="node">
<title>node_25</title>
<polygon fill="none" stroke="#000000" points="775,-412 717.8085,-394 775,-376 832.1915,-394 775,-412"/>
<text text-anchor="middle" x="775" y="-389.8" font-family="Times,serif" font-size="14.00" fill="#000000">executor</text>
</g>
</g>
</svg>
