<?xml version="1.0" encoding="UTF-8" standalone="no"?>
<!DOCTYPE svg PUBLIC "-//W3C//DTD SVG 1.1//EN"
 "http://www.w3.org/Graphics/SVG/1.1/DTD/svg11.dtd">
<!-- Generated by graphviz version 2.40.1 (20161225.0304)
 -->
<!-- Title: %3 Pages: 1 -->
<svg width="700pt" height="220pt"
 viewBox="0.00 0.00 700.02 220.00" xmlns="http://www.w3.org/2000/svg" xmlns:xlink="http://www.w3.org/1999/xlink">
<g id="graph0" class="graph" transform="scale(1 1) rotate(0) translate(4 216)">
<title>%3</title>
<polygon fill="#ffffff" stroke="transparent" points="-4,4 -4,-216 696.0151,-216 696.0151,4 -4,4"/>
<g id="clust1" class="cluster">
<title>cluster_1662343047</title>
<polygon fill="none" stroke="#000000" points="8,-8 8,-204 526,-204 526,-8 8,-8"/>
</g>
<!-- node_0 -->
<g id="node1" class="node">
<title>node_0</title>
<polygon fill="none" stroke="#000000" points="517.6143,-124 416.3857,-124 416.3857,-88 517.6143,-88 517.6143,-124"/>
<text text-anchor="middle" x="467" y="-101.8" font-family="Times,serif" font-size="14.00" fill="#000000">accept imageIn</text>
</g>
<!-- node_1 -->
<g id="node2" class="node">
<title>node_1</title>
<polygon fill="none" stroke="#000000" points="423.8272,-52 176.1728,-52 176.1728,-16 423.8272,-16 423.8272,-52"/>
<text text-anchor="middle" x="300" y="-29.8" font-family="Times,serif" font-size="14.00" fill="#000000">imageOut = s1::ApplyInPlace([imageIn])</text>
</g>
<!-- node_0&#45;&gt;node_1 -->
<g id="edge1" class="edge">
<title>node_0&#45;&gt;node_1</title>
<path fill="none" stroke="#000000" d="M424.8588,-87.8314C402.5236,-78.2018 374.9064,-66.295 351.329,-56.1299"/>
<polygon fill="#000000" stroke="#000000" points="352.4067,-52.7831 341.8381,-52.038 349.6353,-59.2112 352.4067,-52.7831"/>
</g>
<!-- node_2 -->
<g id="node3" class="node">
<title>node_2</title>
<polygon fill="none" stroke="#000000" points="389.8041,-196 280.1959,-196 280.1959,-160 389.8041,-160 389.8041,-196"/>
<text text-anchor="middle" x="335" y="-173.8" font-family="Times,serif" font-size="14.00" fill="#000000">parse Number: 0</text>
</g>
<!-- node_4 -->
<g id="node5" class="node">
<title>node_4</title>
<polygon fill="none" stroke="#000000" points="398.2823,-124 15.7177,-124 15.7177,-88 398.2823,-88 398.2823,-124"/>
<text text-anchor="middle" x="207" y="-101.8" font-family="Times,serif" font-size="14.00" fill="#000000">s1 = Catalano.Imaging.Filters.Crop::__construct([0, 0, 100, 100])</text>
</g>
<!-- node_2&#45;&gt;node_4 -->
<g id="edge3" class="edge">
<title>node_2&#45;&gt;node_4</title>
<path fill="none" stroke="#000000" d="M302.7002,-159.8314C286.1766,-150.5368 265.8814,-139.1208 248.2393,-129.1971"/>
<polygon fill="#000000" stroke="#000000" points="249.7212,-126.015 239.2895,-124.1628 246.2893,-132.116 249.7212,-126.015"/>
</g>
<!-- node_3 -->
<g id="node4" class="node">
<title>node_3</title>
<polygon fill="none" stroke="#000000" points="262.8041,-196 139.1959,-196 139.1959,-160 262.8041,-160 262.8041,-196"/>
<text text-anchor="middle" x="201" y="-173.8" font-family="Times,serif" font-size="14.00" fill="#000000">parse Number: 100</text>
</g>
<!-- node_3&#45;&gt;node_4 -->
<g id="edge2" class="edge">
<title>node_3&#45;&gt;node_4</title>
<path fill="none" stroke="#000000" d="M202.5141,-159.8314C203.1558,-152.131 203.9188,-142.9743 204.6319,-134.4166"/>
<polygon fill="#000000" stroke="#000000" points="208.1229,-134.6694 205.4656,-124.4133 201.1471,-134.088 208.1229,-134.6694"/>
</g>
<!-- node_4&#45;&gt;node_1 -->
<g id="edge4" class="edge">
<title>node_4&#45;&gt;node_1</title>
<path fill="none" stroke="#000000" d="M230.4678,-87.8314C242.0327,-78.8779 256.1404,-67.9558 268.6183,-58.2955"/>
<polygon fill="#000000" stroke="#000000" points="270.775,-61.0521 276.5397,-52.1628 266.4898,-55.5171 270.775,-61.0521"/>
</g>
<!-- node_5 -->
<g id="node6" class="node">
<title>node_5</title>
<polygon fill="none" stroke="#000000" points="71,-196 26.2728,-178 71,-160 115.7272,-178 71,-196"/>
<text text-anchor="middle" x="71" y="-173.8" font-family="Times,serif" font-size="14.00" fill="#000000">Client</text>
</g>
<!-- node_6 -->
<g id="node7" class="node">
<title>node_6</title>
<polygon fill="none" stroke="#000000" points="692.0303,-196 533.9697,-196 533.9697,-160 692.0303,-160 692.0303,-196"/>
<text text-anchor="middle" x="613" y="-173.8" font-family="Times,serif" font-size="14.00" fill="#000000">transmit imageIn&#45;&gt;Client</text>
</g>
<!-- node_6&#45;&gt;node_0 -->
<g id="edge5" class="edge">
<title>node_6&#45;&gt;node_0</title>
<path fill="none" stroke="#000000" stroke-dasharray="1,5" d="M576.158,-159.8314C556.8918,-150.3302 533.1301,-138.6121 512.7008,-128.5374"/>
<polygon fill="#000000" stroke="#000000" points="514.0938,-125.3219 503.577,-124.038 510.9977,-131.6 514.0938,-125.3219"/>
</g>
</g>
</svg>
