<?xml version="1.0" encoding="UTF-8" standalone="no"?>
<!DOCTYPE svg PUBLIC "-//W3C//DTD SVG 1.1//EN"
 "http://www.w3.org/Graphics/SVG/1.1/DTD/svg11.dtd">
<!-- Generated by graphviz version 2.40.1 (20161225.0304)
 -->
<!-- Title: %3 Pages: 1 -->
<svg width="786pt" height="292pt"
 viewBox="0.00 0.00 786.41 292.00" xmlns="http://www.w3.org/2000/svg" xmlns:xlink="http://www.w3.org/1999/xlink">
<g id="graph0" class="graph" transform="scale(1 1) rotate(0) translate(4 288)">
<title>%3</title>
<polygon fill="#ffffff" stroke="transparent" points="-4,4 -4,-288 782.4116,-288 782.4116,4 -4,4"/>
<g id="clust1" class="cluster">
<title>cluster_1711630537</title>
<polygon fill="none" stroke="#000000" points="138.4116,-8 138.4116,-276 770.4116,-276 770.4116,-8 138.4116,-8"/>
</g>
<!-- node_9 -->
<g id="node1" class="node">
<title>node_9</title>
<polygon fill="none" stroke="#000000" points="130.735,-268 .0883,-268 .0883,-232 130.735,-232 130.735,-268"/>
<text text-anchor="middle" x="65.4116" y="-245.8" font-family="Times,serif" font-size="14.00" fill="#000000">transmit fb1&#45;&gt;Client</text>
</g>
<!-- node_2 -->
<g id="node4" class="node">
<title>node_2</title>
<polygon fill="none" stroke="#000000" points="362.3189,-196 288.5043,-196 288.5043,-160 362.3189,-160 362.3189,-196"/>
<text text-anchor="middle" x="325.4116" y="-173.8" font-family="Times,serif" font-size="14.00" fill="#000000">accept fb1</text>
</g>
<!-- node_9&#45;&gt;node_2 -->
<g id="edge8" class="edge">
<title>node_9&#45;&gt;node_2</title>
<path fill="none" stroke="#000000" stroke-dasharray="1,5" d="M130.7805,-232.9263C132.0006,-232.6144 133.2119,-232.3054 134.4116,-232 195.744,-216.387 214.4064,-216.1288 278.5918,-196.0656"/>
<polygon fill="#000000" stroke="#000000" points="279.9266,-199.3142 288.4026,-192.9575 277.8125,-192.6411 279.9266,-199.3142"/>
</g>
<!-- node_0 -->
<g id="node2" class="node">
<title>node_0</title>
<polygon fill="none" stroke="#000000" points="693.2158,-268 583.6075,-268 583.6075,-232 693.2158,-232 693.2158,-268"/>
<text text-anchor="middle" x="638.4116" y="-245.8" font-family="Times,serif" font-size="14.00" fill="#000000">parse Number: 5</text>
</g>
<!-- node_3 -->
<g id="node5" class="node">
<title>node_3</title>
<polygon fill="none" stroke="#000000" points="762.6939,-196 380.1293,-196 380.1293,-160 762.6939,-160 762.6939,-196"/>
<text text-anchor="middle" x="571.4116" y="-173.8" font-family="Times,serif" font-size="14.00" fill="#000000">s1 = Catalano.Imaging.Filters.Crop::__construct([5, 5, 300, 300])</text>
</g>
<!-- node_0&#45;&gt;node_3 -->
<g id="edge4" class="edge">
<title>node_0&#45;&gt;node_3</title>
<path fill="none" stroke="#000000" d="M621.5047,-231.8314C613.6303,-223.3694 604.1196,-213.1489 595.5103,-203.8971"/>
<polygon fill="#000000" stroke="#000000" points="597.9208,-201.3497 588.5462,-196.4133 592.7963,-206.1183 597.9208,-201.3497"/>
</g>
<!-- node_1 -->
<g id="node3" class="node">
<title>node_1</title>
<polygon fill="none" stroke="#000000" points="564.5904,-52 384.2328,-52 384.2328,-16 564.5904,-16 564.5904,-52"/>
<text text-anchor="middle" x="474.4116" y="-29.8" font-family="Times,serif" font-size="14.00" fill="#000000">fb3 = s2::applyInPlace([fb2])</text>
</g>
<!-- node_4 -->
<g id="node6" class="node">
<title>node_4</title>
<polygon fill="none" stroke="#000000" points="712.4868,-124 528.3364,-124 528.3364,-88 712.4868,-88 712.4868,-124"/>
<text text-anchor="middle" x="620.4116" y="-101.8" font-family="Times,serif" font-size="14.00" fill="#000000">fb2 = s1::ApplyInPlace([fb1])</text>
</g>
<!-- node_2&#45;&gt;node_4 -->
<g id="edge3" class="edge">
<title>node_2&#45;&gt;node_4</title>
<path fill="none" stroke="#000000" d="M362.3904,-162.9451C365.4223,-161.8899 368.4562,-160.8925 371.4116,-160 419.0483,-145.6146 472.9013,-133.4445 518.3085,-124.3206"/>
<polygon fill="#000000" stroke="#000000" points="519.036,-127.7446 528.1616,-122.3617 517.671,-120.8789 519.036,-127.7446"/>
</g>
<!-- node_3&#45;&gt;node_4 -->
<g id="edge1" class="edge">
<title>node_3&#45;&gt;node_4</title>
<path fill="none" stroke="#000000" d="M583.7764,-159.8314C589.3625,-151.6232 596.0746,-141.7606 602.2188,-132.7323"/>
<polygon fill="#000000" stroke="#000000" points="605.1476,-134.6496 607.8804,-124.4133 599.3606,-130.7112 605.1476,-134.6496"/>
</g>
<!-- node_4&#45;&gt;node_1 -->
<g id="edge6" class="edge">
<title>node_4&#45;&gt;node_1</title>
<path fill="none" stroke="#000000" d="M583.5697,-87.8314C564.3034,-78.3302 540.5417,-66.6121 520.1124,-56.5374"/>
<polygon fill="#000000" stroke="#000000" points="521.5054,-53.3219 510.9887,-52.038 518.4093,-59.6 521.5054,-53.3219"/>
</g>
<!-- node_5 -->
<g id="node7" class="node">
<title>node_5</title>
<polygon fill="none" stroke="#000000" points="566.2157,-268 442.6075,-268 442.6075,-232 566.2157,-232 566.2157,-268"/>
<text text-anchor="middle" x="504.4116" y="-245.8" font-family="Times,serif" font-size="14.00" fill="#000000">parse Number: 300</text>
</g>
<!-- node_5&#45;&gt;node_3 -->
<g id="edge7" class="edge">
<title>node_5&#45;&gt;node_3</title>
<path fill="none" stroke="#000000" d="M521.3186,-231.8314C529.1929,-223.3694 538.7036,-213.1489 547.3129,-203.8971"/>
<polygon fill="#000000" stroke="#000000" points="550.027,-206.1183 554.2771,-196.4133 544.9025,-201.3497 550.027,-206.1183"/>
</g>
<!-- node_6 -->
<g id="node8" class="node">
<title>node_6</title>
<polygon fill="none" stroke="#000000" points="270.2157,-196 146.6075,-196 146.6075,-160 270.2157,-160 270.2157,-196"/>
<text text-anchor="middle" x="208.4116" y="-173.8" font-family="Times,serif" font-size="14.00" fill="#000000">parse Number: 200</text>
</g>
<!-- node_7 -->
<g id="node9" class="node">
<title>node_7</title>
<polygon fill="none" stroke="#000000" points="510.5112,-124 146.312,-124 146.312,-88 510.5112,-88 510.5112,-124"/>
<text text-anchor="middle" x="328.4116" y="-101.8" font-family="Times,serif" font-size="14.00" fill="#000000">s2 = Catalano.Imaging.Filters.Resize::__construct([200, 200])</text>
</g>
<!-- node_6&#45;&gt;node_7 -->
<g id="edge2" class="edge">
<title>node_6&#45;&gt;node_7</title>
<path fill="none" stroke="#000000" d="M238.6927,-159.8314C254.0414,-150.6221 272.8615,-139.3301 289.2939,-129.4706"/>
<polygon fill="#000000" stroke="#000000" points="291.3661,-132.3091 298.1402,-124.1628 287.7645,-126.3066 291.3661,-132.3091"/>
</g>
<!-- node_7&#45;&gt;node_1 -->
<g id="edge5" class="edge">
<title>node_7&#45;&gt;node_1</title>
<path fill="none" stroke="#000000" d="M365.2536,-87.8314C384.5199,-78.3302 408.2816,-66.6121 428.7108,-56.5374"/>
<polygon fill="#000000" stroke="#000000" points="430.4139,-59.6 437.8346,-52.038 427.3178,-53.3219 430.4139,-59.6"/>
</g>
<!-- node_8 -->
<g id="node10" class="node">
<title>node_8</title>
<polygon fill="none" stroke="#000000" points="320.4116,-268 275.6844,-250 320.4116,-232 365.1389,-250 320.4116,-268"/>
<text text-anchor="middle" x="320.4116" y="-245.8" font-family="Times,serif" font-size="14.00" fill="#000000">Client</text>
</g>
</g>
</svg>
