<?xml version="1.0" encoding="UTF-8" standalone="no"?>
<!DOCTYPE svg PUBLIC "-//W3C//DTD SVG 1.1//EN"
 "http://www.w3.org/Graphics/SVG/1.1/DTD/svg11.dtd">
<!-- Generated by graphviz version 2.40.1 (20161225.0304)
 -->
<!-- Title: %3 Pages: 1 -->
<svg width="2943pt" height="580pt"
 viewBox="0.00 0.00 2942.51 580.00" xmlns="http://www.w3.org/2000/svg" xmlns:xlink="http://www.w3.org/1999/xlink">
<g id="graph0" class="graph" transform="scale(1 1) rotate(0) translate(4 576)">
<title>%3</title>
<polygon fill="#ffffff" stroke="transparent" points="-4,4 -4,-576 2938.5135,-576 2938.5135,4 -4,4"/>
<g id="clust1" class="cluster">
<title>cluster_471526589</title>
<polygon fill="none" stroke="#000000" points="1528.2358,-80 1528.2358,-564 2912.2358,-564 2912.2358,-80 1528.2358,-80"/>
</g>
<g id="clust2" class="cluster">
<title>cluster_1533970313</title>
<polygon fill="none" stroke="#000000" points="192.2358,-8 192.2358,-204 1334.2358,-204 1334.2358,-8 192.2358,-8"/>
</g>
<!-- node_53 -->
<g id="node1" class="node">
<title>node_53</title>
<polygon fill="none" stroke="#000000" points="184.7081,-196 -.2364,-196 -.2364,-160 184.7081,-160 184.7081,-196"/>
<text text-anchor="middle" x="92.2358" y="-173.8" font-family="Times,serif" font-size="14.00" fill="#000000">transmit indices_train&#45;&gt;Client</text>
</g>
<!-- node_48 -->
<g id="node22" class="node">
<title>node_48</title>
<polygon fill="none" stroke="#000000" points="359.7915,-124 200.6802,-124 200.6802,-88 359.7915,-88 359.7915,-124"/>
<text text-anchor="middle" x="280.2358" y="-101.8" font-family="Times,serif" font-size="14.00" fill="#000000">accept indices_train &#160;as is</text>
</g>
<!-- node_53&#45;&gt;node_48 -->
<g id="edge39" class="edge">
<title>node_53&#45;&gt;node_48</title>
<path fill="none" stroke="#000000" stroke-dasharray="1,5" d="M139.6762,-159.8314C165.1553,-150.0734 196.7402,-137.977 223.5115,-127.7242"/>
<polygon fill="#000000" stroke="#000000" points="225.0499,-130.883 233.1366,-124.038 222.5463,-124.346 225.0499,-130.883"/>
</g>
<!-- node_54 -->
<g id="node2" class="node">
<title>node_54</title>
<polygon fill="none" stroke="#000000" points="1520.4938,-196 1341.9778,-196 1341.9778,-160 1520.4938,-160 1520.4938,-196"/>
<text text-anchor="middle" x="1431.2358" y="-173.8" font-family="Times,serif" font-size="14.00" fill="#000000">transmit indices_test&#45;&gt;Client</text>
</g>
<!-- node_43 -->
<g id="node28" class="node">
<title>node_43</title>
<polygon fill="none" stroke="#000000" points="1042.5777,-124 889.894,-124 889.894,-88 1042.5777,-88 1042.5777,-124"/>
<text text-anchor="middle" x="966.2358" y="-101.8" font-family="Times,serif" font-size="14.00" fill="#000000">accept indices_test &#160;as is</text>
</g>
<!-- node_54&#45;&gt;node_43 -->
<g id="edge34" class="edge">
<title>node_54&#45;&gt;node_43</title>
<path fill="none" stroke="#000000" stroke-dasharray="1,5" d="M1341.6672,-160.5537C1340.5169,-160.3658 1339.3727,-160.1811 1338.2358,-160 1214.5051,-140.2882 1179.7583,-145.0694 1052.7513,-124.1801"/>
<polygon fill="#000000" stroke="#000000" points="1053.0731,-120.6855 1042.6338,-122.4943 1051.9225,-127.5903 1053.0731,-120.6855"/>
</g>
<!-- node_32 -->
<g id="node3" class="node">
<title>node_32</title>
<polygon fill="none" stroke="#000000" points="2495.8325,-412 2154.6391,-412 2154.6391,-376 2495.8325,-376 2495.8325,-412"/>
<text text-anchor="middle" x="2325.2358" y="-389.8" font-family="Times,serif" font-size="14.00" fill="#000000">trainset = dataset::fromIndicesLabeled([indices_train, &#45;1])</text>
</g>
<!-- node_37 -->
<g id="node8" class="node">
<title>node_37</title>
<polygon fill="none" stroke="#000000" points="2489.405,-340 2161.0667,-340 2161.0667,-304 2489.405,-304 2489.405,-340"/>
<text text-anchor="middle" x="2325.2358" y="-317.8" font-family="Times,serif" font-size="14.00" fill="#000000">testset = dataset::fromIndicesLabeled([indices_test, &#45;1])</text>
</g>
<!-- node_32&#45;&gt;node_37 -->
<g id="edge6" class="edge">
<title>node_32&#45;&gt;node_37</title>
<path fill="none" stroke="#000000" d="M2325.2358,-375.8314C2325.2358,-368.131 2325.2358,-358.9743 2325.2358,-350.4166"/>
<polygon fill="#000000" stroke="#000000" points="2328.7359,-350.4132 2325.2358,-340.4133 2321.7359,-350.4133 2328.7359,-350.4132"/>
</g>
<!-- node_38 -->
<g id="node9" class="node">
<title>node_38</title>
<polygon fill="none" stroke="#000000" points="1735.1044,-268 1581.3672,-268 1581.3672,-232 1735.1044,-232 1735.1044,-268"/>
<text text-anchor="middle" x="1658.2358" y="-245.8" font-family="Times,serif" font-size="14.00" fill="#000000">transmit trainset&#45;&gt;Client</text>
</g>
<!-- node_32&#45;&gt;node_38 -->
<g id="edge7" class="edge">
<title>node_32&#45;&gt;node_38</title>
<path fill="none" stroke="#000000" d="M2154.2232,-376.851C2151.2041,-376.5638 2148.2062,-376.2799 2145.2358,-376 2054.8387,-367.4825 1819.3442,-380.8121 1738.2358,-340 1710.4573,-326.0224 1687.9505,-297.9021 1673.9678,-276.7936"/>
<polygon fill="#000000" stroke="#000000" points="1676.8374,-274.784 1668.5066,-268.2381 1670.937,-278.5504 1676.8374,-274.784"/>
</g>
<!-- node_30 -->
<g id="node20" class="node">
<title>node_30</title>
<polygon fill="none" stroke="#000000" points="2012.9744,-340 1891.4973,-340 1891.4973,-304 2012.9744,-304 2012.9744,-340"/>
<text text-anchor="middle" x="1952.2358" y="-317.8" font-family="Times,serif" font-size="14.00" fill="#000000">s1::train([trainset])</text>
</g>
<!-- node_32&#45;&gt;node_30 -->
<g id="edge22" class="edge">
<title>node_32&#45;&gt;node_30</title>
<path fill="none" stroke="#000000" d="M2231.5936,-375.9243C2166.926,-363.4415 2082.2607,-347.0986 2023.1584,-335.6901"/>
<polygon fill="#000000" stroke="#000000" points="2023.6486,-332.2202 2013.1665,-333.7614 2022.3218,-339.0934 2023.6486,-332.2202"/>
</g>
<!-- node_33 -->
<g id="node4" class="node">
<title>node_33</title>
<polygon fill="none" stroke="#000000" points="1923.3843,-124 1717.0873,-124 1717.0873,-88 1923.3843,-88 1923.3843,-124"/>
<text text-anchor="middle" x="1820.2358" y="-101.8" font-family="Times,serif" font-size="14.00" fill="#000000">FinishNode &amp;finished&amp;executor1</text>
</g>
<!-- node_44 -->
<g id="node29" class="node">
<title>node_44</title>
<polygon fill="none" stroke="#000000" points="586.2915,-124 378.1802,-124 378.1802,-88 586.2915,-88 586.2915,-124"/>
<text text-anchor="middle" x="482.2358" y="-101.8" font-family="Times,serif" font-size="14.00" fill="#000000">accept &amp;finished&amp;executor1 &#160;as is</text>
</g>
<!-- node_33&#45;&gt;node_44 -->
<g id="edge40" class="edge">
<title>node_33&#45;&gt;node_44</title>
<path fill="none" stroke="#000000" stroke-dasharray="1,5" d="M1716.9049,-115.7848C1617.6265,-124.6627 1463.3368,-137.0905 1329.2358,-142 1168.2326,-147.8944 763.6917,-165.0353 604.2358,-142 583.2945,-138.9748 560.9392,-133.1713 541.1617,-127.0929"/>
<polygon fill="#000000" stroke="#000000" points="541.9674,-123.677 531.3775,-124.0007 539.8579,-130.3516 541.9674,-123.677"/>
</g>
<!-- node_34 -->
<g id="node5" class="node">
<title>node_34</title>
<polygon fill="none" stroke="#000000" points="2904.3366,-412 2534.135,-412 2534.135,-376 2904.3366,-376 2904.3366,-412"/>
<text text-anchor="middle" x="2719.2358" y="-389.8" font-family="Times,serif" font-size="14.00" fill="#000000">accept indices_test cast indices_test from jsonlist to builtin.List</text>
</g>
<!-- node_34&#45;&gt;node_37 -->
<g id="edge4" class="edge">
<title>node_34&#45;&gt;node_37</title>
<path fill="none" stroke="#000000" d="M2620.5756,-375.9707C2563.7979,-365.5951 2492.3627,-352.5409 2433.9702,-341.8702"/>
<polygon fill="#000000" stroke="#000000" points="2434.4386,-338.3979 2423.9723,-340.0432 2433.1801,-345.2839 2434.4386,-338.3979"/>
</g>
<!-- node_35 -->
<g id="node6" class="node">
<title>node_35</title>
<polygon fill="none" stroke="#000000" points="1662.3458,-196 1538.1259,-196 1538.1259,-160 1662.3458,-160 1662.3458,-196"/>
<text text-anchor="middle" x="1600.2358" y="-173.8" font-family="Times,serif" font-size="14.00" fill="#000000">transmit s1&#45;&gt;Client</text>
</g>
<!-- node_35&#45;&gt;node_33 -->
<g id="edge23" class="edge">
<title>node_35&#45;&gt;node_33</title>
<path fill="none" stroke="#000000" d="M1655.4672,-159.9243C1685.804,-149.9959 1723.6024,-137.6255 1755.3413,-127.2382"/>
<polygon fill="#000000" stroke="#000000" points="1756.5665,-130.52 1764.9818,-124.0831 1754.3892,-123.8672 1756.5665,-130.52"/>
</g>
<!-- node_46 -->
<g id="node31" class="node">
<title>node_46</title>
<polygon fill="none" stroke="#000000" points="1159.9294,-124 1060.5423,-124 1060.5423,-88 1159.9294,-88 1159.9294,-124"/>
<text text-anchor="middle" x="1110.2358" y="-101.8" font-family="Times,serif" font-size="14.00" fill="#000000">accept s1 &#160;as is</text>
</g>
<!-- node_35&#45;&gt;node_46 -->
<g id="edge41" class="edge">
<title>node_35&#45;&gt;node_46</title>
<path fill="none" stroke="#000000" stroke-dasharray="1,5" d="M1538.0109,-161.668C1535.0525,-161.0669 1532.1164,-160.5063 1529.2358,-160 1374.1131,-132.7362 1328.7471,-154.6732 1170.0711,-123.921"/>
<polygon fill="#000000" stroke="#000000" points="1170.4425,-120.4267 1159.9533,-121.9191 1169.0838,-127.2935 1170.4425,-120.4267"/>
</g>
<!-- node_36 -->
<g id="node7" class="node">
<title>node_36</title>
<polygon fill="none" stroke="#000000" points="2221.8837,-556 2064.588,-556 2064.588,-520 2221.8837,-520 2221.8837,-556"/>
<text text-anchor="middle" x="2143.2358" y="-533.8" font-family="Times,serif" font-size="14.00" fill="#000000">parse String: weather.arff</text>
</g>
<!-- node_27 -->
<g id="node17" class="node">
<title>node_27</title>
<polygon fill="none" stroke="#000000" points="2371.442,-484 1915.0297,-484 1915.0297,-448 2371.442,-448 2371.442,-484"/>
<text text-anchor="middle" x="2143.2358" y="-461.8" font-family="Times,serif" font-size="14.00" fill="#000000">dataset = de.upb.sede.services.mls.DataSetService::__construct([weather.arff])</text>
</g>
<!-- node_36&#45;&gt;node_27 -->
<g id="edge14" class="edge">
<title>node_36&#45;&gt;node_27</title>
<path fill="none" stroke="#000000" d="M2143.2358,-519.8314C2143.2358,-512.131 2143.2358,-502.9743 2143.2358,-494.4166"/>
<polygon fill="#000000" stroke="#000000" points="2146.7359,-494.4132 2143.2358,-484.4133 2139.7359,-494.4133 2146.7359,-494.4132"/>
</g>
<!-- node_25 -->
<g id="node15" class="node">
<title>node_25</title>
<polygon fill="none" stroke="#000000" points="2007.3309,-268 1753.1408,-268 1753.1408,-232 2007.3309,-232 2007.3309,-268"/>
<text text-anchor="middle" x="1880.2358" y="-245.8" font-family="Times,serif" font-size="14.00" fill="#000000">predictions = s1::predict([FALSE, testset])</text>
</g>
<!-- node_37&#45;&gt;node_25 -->
<g id="edge12" class="edge">
<title>node_37&#45;&gt;node_25</title>
<path fill="none" stroke="#000000" d="M2213.8048,-303.9707C2149.2803,-293.5308 2067.995,-280.379 2001.8203,-269.6721"/>
<polygon fill="#000000" stroke="#000000" points="2002.1835,-266.1854 1991.7529,-268.0432 2001.0654,-273.0956 2002.1835,-266.1854"/>
</g>
<!-- node_31 -->
<g id="node21" class="node">
<title>node_31</title>
<polygon fill="none" stroke="#000000" points="2172.8902,-268 2025.5815,-268 2025.5815,-232 2172.8902,-232 2172.8902,-268"/>
<text text-anchor="middle" x="2099.2358" y="-245.8" font-family="Times,serif" font-size="14.00" fill="#000000">transmit testset&#45;&gt;Client</text>
</g>
<!-- node_37&#45;&gt;node_31 -->
<g id="edge16" class="edge">
<title>node_37&#45;&gt;node_31</title>
<path fill="none" stroke="#000000" d="M2268.4982,-303.9243C2237.334,-293.9959 2198.5048,-281.6255 2165.9002,-271.2382"/>
<polygon fill="#000000" stroke="#000000" points="2166.5874,-267.7839 2155.9968,-268.0831 2164.4625,-274.4536 2166.5874,-267.7839"/>
</g>
<!-- node_38&#45;&gt;node_33 -->
<g id="edge18" class="edge">
<title>node_38&#45;&gt;node_33</title>
<path fill="none" stroke="#000000" d="M1735.2032,-233.8763C1792.4785,-221.6982 1861.1203,-206.6429 1863.2358,-204 1880.5323,-182.3923 1863.1383,-152.7474 1845.5702,-131.736"/>
<polygon fill="#000000" stroke="#000000" points="1848.1289,-129.3453 1838.9006,-124.1406 1842.869,-133.9642 1848.1289,-129.3453"/>
</g>
<!-- node_45 -->
<g id="node30" class="node">
<title>node_45</title>
<polygon fill="none" stroke="#000000" points="732.188,-124 604.2837,-124 604.2837,-88 732.188,-88 732.188,-124"/>
<text text-anchor="middle" x="668.2358" y="-101.8" font-family="Times,serif" font-size="14.00" fill="#000000">accept trainset &#160;as is</text>
</g>
<!-- node_38&#45;&gt;node_45 -->
<g id="edge36" class="edge">
<title>node_38&#45;&gt;node_45</title>
<path fill="none" stroke="#000000" stroke-dasharray="1,5" d="M1581.4553,-243.9991C1490.3146,-236.4808 1333.8393,-222.3278 1200.2358,-204 998.2874,-176.2966 945.5214,-166.8849 742.0755,-124.1176"/>
<polygon fill="#000000" stroke="#000000" points="742.7788,-120.689 732.2725,-122.0557 741.3379,-127.5391 742.7788,-120.689"/>
</g>
<!-- node_39 -->
<g id="node10" class="node">
<title>node_39</title>
<polygon fill="none" stroke="#000000" points="1897.4469,-484 1625.0248,-484 1625.0248,-448 1897.4469,-448 1897.4469,-484"/>
<text text-anchor="middle" x="1761.2358" y="-461.8" font-family="Times,serif" font-size="14.00" fill="#000000">parse String: weka.classifiers.bayes.BayesNet</text>
</g>
<!-- node_29 -->
<g id="node19" class="node">
<title>node_29</title>
<polygon fill="none" stroke="#000000" points="2136.4547,-412 1536.017,-412 1536.017,-376 2136.4547,-376 2136.4547,-412"/>
<text text-anchor="middle" x="1836.2358" y="-389.8" font-family="Times,serif" font-size="14.00" fill="#000000">s1 = de.upb.sede.services.mls.WekaBClassifierWrapper::__construct([weka.classifiers.bayes.BayesNet])</text>
</g>
<!-- node_39&#45;&gt;node_29 -->
<g id="edge13" class="edge">
<title>node_39&#45;&gt;node_29</title>
<path fill="none" stroke="#000000" d="M1780.1615,-447.8314C1789.2215,-439.1337 1800.2167,-428.5783 1810.0624,-419.1265"/>
<polygon fill="#000000" stroke="#000000" points="1812.5262,-421.613 1817.3162,-412.1628 1807.6785,-416.5633 1812.5262,-421.613"/>
</g>
<!-- node_40 -->
<g id="node11" class="node">
<title>node_40</title>
<polygon fill="none" stroke="#000000" points="2503.2017,-484 2389.27,-484 2389.27,-448 2503.2017,-448 2503.2017,-484"/>
<text text-anchor="middle" x="2446.2358" y="-461.8" font-family="Times,serif" font-size="14.00" fill="#000000">parse Number: &#45;1</text>
</g>
<!-- node_40&#45;&gt;node_32 -->
<g id="edge15" class="edge">
<title>node_40&#45;&gt;node_32</title>
<path fill="none" stroke="#000000" d="M2415.7024,-447.8314C2400.2258,-438.6221 2381.2489,-427.3301 2364.6795,-417.4706"/>
<polygon fill="#000000" stroke="#000000" points="2366.1429,-414.2687 2355.7595,-412.1628 2362.5634,-420.2843 2366.1429,-414.2687"/>
</g>
<!-- node_40&#45;&gt;node_37 -->
<g id="edge20" class="edge">
<title>node_40&#45;&gt;node_37</title>
<path fill="none" stroke="#000000" d="M2471.9984,-447.9868C2495.2264,-429.5082 2523.1915,-400.1329 2505.2358,-376 2495.2651,-362.5991 2464.4746,-351.2794 2431.114,-342.5199"/>
<polygon fill="#000000" stroke="#000000" points="2431.7305,-339.0655 2421.1771,-340.0011 2430.0105,-345.8509 2431.7305,-339.0655"/>
</g>
<!-- node_41 -->
<g id="node12" class="node">
<title>node_41</title>
<polygon fill="none" stroke="#000000" points="1792.2358,-556 1728.5381,-538 1792.2358,-520 1855.9336,-538 1792.2358,-556"/>
<text text-anchor="middle" x="1792.2358" y="-533.8" font-family="Times,serif" font-size="14.00" fill="#000000">executor1</text>
</g>
<!-- node_23 -->
<g id="node13" class="node">
<title>node_23</title>
<polygon fill="none" stroke="#000000" points="1854.6044,-196 1679.8673,-196 1679.8673,-160 1854.6044,-160 1854.6044,-196"/>
<text text-anchor="middle" x="1767.2358" y="-173.8" font-family="Times,serif" font-size="14.00" fill="#000000">transmit predictions&#45;&gt;Client</text>
</g>
<!-- node_23&#45;&gt;node_33 -->
<g id="edge10" class="edge">
<title>node_23&#45;&gt;node_33</title>
<path fill="none" stroke="#000000" d="M1780.61,-159.8314C1786.6521,-151.6232 1793.9121,-141.7606 1800.5579,-132.7323"/>
<polygon fill="#000000" stroke="#000000" points="1803.5721,-134.5415 1806.6816,-124.4133 1797.9347,-130.3918 1803.5721,-134.5415"/>
</g>
<!-- node_47 -->
<g id="node32" class="node">
<title>node_47</title>
<polygon fill="none" stroke="#000000" points="1326.688,-124 1177.7837,-124 1177.7837,-88 1326.688,-88 1326.688,-124"/>
<text text-anchor="middle" x="1252.2358" y="-101.8" font-family="Times,serif" font-size="14.00" fill="#000000">accept predictions &#160;as is</text>
</g>
<!-- node_23&#45;&gt;node_47 -->
<g id="edge38" class="edge">
<title>node_23&#45;&gt;node_47</title>
<path fill="none" stroke="#000000" stroke-dasharray="1,5" d="M1679.8949,-161.4044C1676.9757,-160.9197 1674.0832,-160.45 1671.2358,-160 1555.8482,-141.7622 1421.8492,-125.3153 1337.0636,-115.4905"/>
<polygon fill="#000000" stroke="#000000" points="1337.3078,-111.9956 1326.9724,-114.3256 1336.505,-118.9494 1337.3078,-111.9956"/>
</g>
<!-- node_24 -->
<g id="node14" class="node">
<title>node_24</title>
<polygon fill="none" stroke="#000000" points="2903.7642,-484 2520.7075,-484 2520.7075,-448 2903.7642,-448 2903.7642,-484"/>
<text text-anchor="middle" x="2712.2358" y="-461.8" font-family="Times,serif" font-size="14.00" fill="#000000">accept indices_train cast indices_train from jsonlist to builtin.List</text>
</g>
<!-- node_24&#45;&gt;node_32 -->
<g id="edge9" class="edge">
<title>node_24&#45;&gt;node_32</title>
<path fill="none" stroke="#000000" d="M2615.0789,-447.9243C2559.4229,-437.5697 2489.4902,-424.5589 2432.262,-413.9118"/>
<polygon fill="#000000" stroke="#000000" points="2432.5685,-410.4089 2422.097,-412.0207 2431.2881,-417.2908 2432.5685,-410.4089"/>
</g>
<!-- node_25&#45;&gt;node_35 -->
<g id="edge11" class="edge">
<title>node_25&#45;&gt;node_35</title>
<path fill="none" stroke="#000000" d="M1785.6594,-231.9962C1749.578,-224.395 1708.24,-214.7946 1671.2358,-204 1666.398,-202.5887 1661.4144,-201.016 1656.4376,-199.3621"/>
<polygon fill="#000000" stroke="#000000" points="1657.51,-196.0298 1646.9154,-196.1022 1655.2428,-202.6525 1657.51,-196.0298"/>
</g>
<!-- node_25&#45;&gt;node_23 -->
<g id="edge21" class="edge">
<title>node_25&#45;&gt;node_23</title>
<path fill="none" stroke="#000000" d="M1851.7212,-231.8314C1837.4016,-222.7074 1819.8735,-211.539 1804.5021,-201.7449"/>
<polygon fill="#000000" stroke="#000000" points="1806.0557,-198.5847 1795.7414,-196.1628 1802.2942,-204.4882 1806.0557,-198.5847"/>
</g>
<!-- node_26 -->
<g id="node16" class="node">
<title>node_26</title>
<polygon fill="none" stroke="#000000" points="1951.8982,-196 1892.5735,-196 1892.5735,-160 1951.8982,-160 1951.8982,-196"/>
<text text-anchor="middle" x="1922.2358" y="-173.8" font-family="Times,serif" font-size="14.00" fill="#000000">store s1</text>
</g>
<!-- node_25&#45;&gt;node_26 -->
<g id="edge1" class="edge">
<title>node_25&#45;&gt;node_26</title>
<path fill="none" stroke="#000000" d="M1890.8342,-231.8314C1895.5236,-223.7925 1901.1387,-214.1666 1906.3156,-205.2918"/>
<polygon fill="#000000" stroke="#000000" points="1909.4792,-206.8146 1911.4948,-196.4133 1903.4328,-203.2875 1909.4792,-206.8146"/>
</g>
<!-- node_26&#45;&gt;node_33 -->
<g id="edge8" class="edge">
<title>node_26&#45;&gt;node_33</title>
<path fill="none" stroke="#000000" d="M1896.4969,-159.8314C1883.6921,-150.7927 1868.045,-139.7476 1854.2639,-130.0198"/>
<polygon fill="#000000" stroke="#000000" points="1856.1546,-127.0703 1845.9665,-124.1628 1852.1178,-132.7891 1856.1546,-127.0703"/>
</g>
<!-- node_27&#45;&gt;node_32 -->
<g id="edge5" class="edge">
<title>node_27&#45;&gt;node_32</title>
<path fill="none" stroke="#000000" d="M2189.1621,-447.8314C2213.8281,-438.0734 2244.405,-425.977 2270.3219,-415.7242"/>
<polygon fill="#000000" stroke="#000000" points="2271.6286,-418.9713 2279.6398,-412.038 2269.0535,-412.4621 2271.6286,-418.9713"/>
</g>
<!-- node_28 -->
<g id="node18" class="node">
<title>node_28</title>
<polygon fill="none" stroke="#000000" points="1873.1457,-340 1747.326,-340 1747.326,-304 1873.1457,-304 1873.1457,-340"/>
<text text-anchor="middle" x="1810.2358" y="-317.8" font-family="Times,serif" font-size="14.00" fill="#000000">parse Bool: FALSE</text>
</g>
<!-- node_28&#45;&gt;node_25 -->
<g id="edge19" class="edge">
<title>node_28&#45;&gt;node_25</title>
<path fill="none" stroke="#000000" d="M1827.8998,-303.8314C1836.209,-295.2848 1846.2622,-284.9443 1855.3277,-275.6198"/>
<polygon fill="#000000" stroke="#000000" points="1857.8727,-278.023 1862.3341,-268.4133 1852.8537,-273.1435 1857.8727,-278.023"/>
</g>
<!-- node_29&#45;&gt;node_30 -->
<g id="edge2" class="edge">
<title>node_29&#45;&gt;node_30</title>
<path fill="none" stroke="#000000" d="M1865.5075,-375.8314C1880.3447,-366.6221 1898.5373,-355.3301 1914.4221,-345.4706"/>
<polygon fill="#000000" stroke="#000000" points="1916.3229,-348.4102 1922.9735,-340.1628 1912.6313,-342.4628 1916.3229,-348.4102"/>
</g>
<!-- node_30&#45;&gt;node_25 -->
<g id="edge17" class="edge">
<title>node_30&#45;&gt;node_25</title>
<path fill="none" stroke="#000000" d="M1934.0672,-303.8314C1925.5206,-295.2848 1915.1802,-284.9443 1905.8557,-275.6198"/>
<polygon fill="#000000" stroke="#000000" points="1908.1951,-273.0095 1898.6491,-268.4133 1903.2453,-277.9592 1908.1951,-273.0095"/>
</g>
<!-- node_31&#45;&gt;node_33 -->
<g id="edge3" class="edge">
<title>node_31&#45;&gt;node_33</title>
<path fill="none" stroke="#000000" d="M2074.7669,-231.7446C2047.9033,-212.2604 2003.0198,-181.3208 1961.2358,-160 1937.0159,-147.6414 1909.2736,-136.4322 1884.84,-127.47"/>
<polygon fill="#000000" stroke="#000000" points="1885.895,-124.1297 1875.3007,-124.0223 1883.5156,-130.713 1885.895,-124.1297"/>
</g>
<!-- node_49 -->
<g id="node23" class="node">
<title>node_49</title>
<polygon fill="none" stroke="#000000" points="871.9744,-124 750.4973,-124 750.4973,-88 871.9744,-88 871.9744,-124"/>
<text text-anchor="middle" x="811.2358" y="-101.8" font-family="Times,serif" font-size="14.00" fill="#000000">accept testset &#160;as is</text>
</g>
<!-- node_31&#45;&gt;node_49 -->
<g id="edge33" class="edge">
<title>node_31&#45;&gt;node_49</title>
<path fill="none" stroke="#000000" stroke-dasharray="1,5" d="M2025.5841,-233.337C2022.4331,-232.8427 2019.3072,-232.393 2016.2358,-232 1714.8824,-193.4394 1635.2738,-236.7704 1333.2358,-204 1309.4183,-201.4158 953.4252,-137.8486 882.2923,-124.0098"/>
<polygon fill="#000000" stroke="#000000" points="882.7487,-120.5314 872.2538,-121.9834 881.3635,-127.393 882.7487,-120.5314"/>
</g>
<!-- node_51 -->
<g id="node25" class="node">
<title>node_51</title>
<polygon fill="none" stroke="#000000" points="758.1807,-52 552.291,-52 552.291,-16 758.1807,-16 758.1807,-52"/>
<text text-anchor="middle" x="655.2358" y="-29.8" font-family="Times,serif" font-size="14.00" fill="#000000">transmit indices_train&#45;&gt;executor1</text>
</g>
<!-- node_48&#45;&gt;node_51 -->
<g id="edge24" class="edge">
<title>node_48&#45;&gt;node_51</title>
<path fill="none" stroke="#000000" d="M338.3707,-87.8878C348.5987,-85.0253 359.1861,-82.2668 369.2358,-80 425.8089,-67.2393 489.4477,-56.6409 542.3071,-48.846"/>
<polygon fill="#000000" stroke="#000000" points="542.9988,-52.2822 552.3882,-47.374 541.9874,-45.3557 542.9988,-52.2822"/>
</g>
<!-- node_50 -->
<g id="node24" class="node">
<title>node_50</title>
<polygon fill="none" stroke="#000000" points="849.7739,-196 772.6977,-196 772.6977,-160 849.7739,-160 849.7739,-196"/>
<text text-anchor="middle" x="811.2358" y="-173.8" font-family="Times,serif" font-size="14.00" fill="#000000">send graph</text>
</g>
<!-- node_50&#45;&gt;node_48 -->
<g id="edge30" class="edge">
<title>node_50&#45;&gt;node_48</title>
<path fill="none" stroke="#000000" d="M772.6636,-174.31C697.346,-166.8841 525.2663,-148.8364 370.4096,-124.1234"/>
<polygon fill="#000000" stroke="#000000" points="370.6647,-120.6195 360.2356,-122.486 369.5524,-127.5306 370.6647,-120.6195"/>
</g>
<!-- node_50&#45;&gt;node_49 -->
<g id="edge32" class="edge">
<title>node_50&#45;&gt;node_49</title>
<path fill="none" stroke="#000000" d="M811.2358,-159.8314C811.2358,-152.131 811.2358,-142.9743 811.2358,-134.4166"/>
<polygon fill="#000000" stroke="#000000" points="814.7359,-134.4132 811.2358,-124.4133 807.7359,-134.4133 814.7359,-134.4132"/>
</g>
<!-- node_50&#45;&gt;node_43 -->
<g id="edge25" class="edge">
<title>node_50&#45;&gt;node_43</title>
<path fill="none" stroke="#000000" d="M849.9491,-160.0171C870.6623,-150.3954 896.356,-138.4603 918.3197,-128.2578"/>
<polygon fill="#000000" stroke="#000000" points="919.8842,-131.3903 927.479,-124.0032 916.9351,-125.0418 919.8842,-131.3903"/>
</g>
<!-- node_50&#45;&gt;node_44 -->
<g id="edge26" class="edge">
<title>node_50&#45;&gt;node_44</title>
<path fill="none" stroke="#000000" d="M772.5279,-169.529C724.2196,-158.9569 640.0103,-140.5281 574.6892,-126.2329"/>
<polygon fill="#000000" stroke="#000000" points="575.3033,-122.7846 564.7862,-124.0657 573.8067,-129.6227 575.3033,-122.7846"/>
</g>
<!-- node_50&#45;&gt;node_45 -->
<g id="edge27" class="edge">
<title>node_50&#45;&gt;node_45</title>
<path fill="none" stroke="#000000" d="M775.1509,-159.8314C756.4369,-150.4089 733.3926,-138.8062 713.4959,-128.7883"/>
<polygon fill="#000000" stroke="#000000" points="714.815,-125.5339 704.3092,-124.1628 711.667,-131.7861 714.815,-125.5339"/>
</g>
<!-- node_50&#45;&gt;node_46 -->
<g id="edge28" class="edge">
<title>node_50&#45;&gt;node_46</title>
<path fill="none" stroke="#000000" d="M850.11,-170.1872C895.802,-160.7987 974.0856,-144.0736 1050.6109,-124.0696"/>
<polygon fill="#000000" stroke="#000000" points="1051.6396,-127.4181 1060.4175,-121.4852 1049.8557,-120.6492 1051.6396,-127.4181"/>
</g>
<!-- node_50&#45;&gt;node_47 -->
<g id="edge29" class="edge">
<title>node_50&#45;&gt;node_47</title>
<path fill="none" stroke="#000000" d="M849.7798,-173.0082C913.7914,-164.5393 1046.2499,-146.258 1167.7766,-124.2151"/>
<polygon fill="#000000" stroke="#000000" points="1168.4161,-127.6563 1177.6243,-122.4161 1167.1581,-120.7702 1168.4161,-127.6563"/>
</g>
<!-- node_51&#45;&gt;node_24 -->
<g id="edge35" class="edge">
<title>node_51&#45;&gt;node_24</title>
<path fill="none" stroke="#000000" stroke-dasharray="1,5" d="M758.0229,-40.2248C823.5905,-44.0341 910.3867,-48.7787 987.2358,-52 1095.4229,-56.5349 2932.2358,-69.7179 2932.2358,-178 2932.2358,-322 2932.2358,-322 2932.2358,-322 2932.2358,-362.8816 2941.3466,-382.3168 2913.2358,-412 2900.4351,-425.5168 2865.3746,-436.901 2828.0478,-445.6796"/>
<polygon fill="#000000" stroke="#000000" points="2826.9727,-442.3348 2818.001,-447.9702 2828.5288,-449.1596 2826.9727,-442.3348"/>
</g>
<!-- node_52 -->
<g id="node26" class="node">
<title>node_52</title>
<polygon fill="none" stroke="#000000" points="479.2358,-196 434.5086,-178 479.2358,-160 523.9631,-178 479.2358,-196"/>
<text text-anchor="middle" x="479.2358" y="-173.8" font-family="Times,serif" font-size="14.00" fill="#000000">Client</text>
</g>
<!-- node_42 -->
<g id="node27" class="node">
<title>node_42</title>
<polygon fill="none" stroke="#000000" points="1195.9664,-52 996.5052,-52 996.5052,-16 1195.9664,-16 1195.9664,-52"/>
<text text-anchor="middle" x="1096.2358" y="-29.8" font-family="Times,serif" font-size="14.00" fill="#000000">transmit indices_test&#45;&gt;executor1</text>
</g>
<!-- node_42&#45;&gt;node_34 -->
<g id="edge37" class="edge">
<title>node_42&#45;&gt;node_34</title>
<path fill="none" stroke="#000000" stroke-dasharray="1,5" d="M1196.0985,-38.1995C1534.7026,-53.0899 2618.2358,-106.3376 2618.2358,-178 2618.2358,-250 2618.2358,-250 2618.2358,-250 2618.2358,-299.0549 2658.0075,-343.2483 2687.6359,-369.3647"/>
<polygon fill="#000000" stroke="#000000" points="2685.4268,-372.0809 2695.3002,-375.9237 2689.9782,-366.7625 2685.4268,-372.0809"/>
</g>
<!-- node_43&#45;&gt;node_42 -->
<g id="edge31" class="edge">
<title>node_43&#45;&gt;node_42</title>
<path fill="none" stroke="#000000" d="M999.0403,-87.8314C1015.8221,-78.5368 1036.4344,-67.1208 1054.3522,-57.1971"/>
<polygon fill="#000000" stroke="#000000" points="1056.3897,-60.0696 1063.4418,-52.1628 1052.9982,-53.9461 1056.3897,-60.0696"/>
</g>
</g>
</svg>
