<?xml version="1.0" encoding="UTF-8" standalone="no"?>
<!DOCTYPE svg PUBLIC "-//W3C//DTD SVG 1.1//EN"
 "http://www.w3.org/Graphics/SVG/1.1/DTD/svg11.dtd">
<!-- Generated by graphviz version 2.40.1 (20161225.0304)
 -->
<!-- Title: %3 Pages: 1 -->
<svg width="2719pt" height="580pt"
 viewBox="0.00 0.00 2719.00 580.00" xmlns="http://www.w3.org/2000/svg" xmlns:xlink="http://www.w3.org/1999/xlink">
<g id="graph0" class="graph" transform="scale(1 1) rotate(0) translate(4 576)">
<title>%3</title>
<polygon fill="#ffffff" stroke="transparent" points="-4,4 -4,-576 2715,-576 2715,4 -4,4"/>
<g id="clust1" class="cluster">
<title>cluster_1434808647</title>
<polygon fill="none" stroke="#000000" points="8,-80 8,-564 1328,-564 1328,-80 8,-80"/>
</g>
<g id="clust2" class="cluster">
<title>cluster_1897423585</title>
<polygon fill="none" stroke="#000000" points="1336,-8 1336,-204 2257,-204 2257,-8 1336,-8"/>
</g>
<!-- node_32 -->
<g id="node1" class="node">
<title>node_32</title>
<polygon fill="none" stroke="#000000" points="1154.8686,-268 1001.1314,-268 1001.1314,-232 1154.8686,-232 1154.8686,-268"/>
<text text-anchor="middle" x="1078" y="-245.8" font-family="Times,serif" font-size="14.00" fill="#000000">transmit trainset&#45;&gt;Client</text>
</g>
<!-- node_42 -->
<g id="node11" class="node">
<title>node_42</title>
<polygon fill="none" stroke="#000000" points="1290.1485,-124 1083.8515,-124 1083.8515,-88 1290.1485,-88 1290.1485,-124"/>
<text text-anchor="middle" x="1187" y="-101.8" font-family="Times,serif" font-size="14.00" fill="#000000">FinishNode &amp;finished&amp;executor1</text>
</g>
<!-- node_32&#45;&gt;node_42 -->
<g id="edge8" class="edge">
<title>node_32&#45;&gt;node_42</title>
<path fill="none" stroke="#000000" d="M1154.8068,-234.0805C1184.4297,-226.2487 1213.2932,-215.9216 1222,-204 1237.7333,-182.4575 1223.6735,-153.1632 1208.9548,-132.2261"/>
<polygon fill="#000000" stroke="#000000" points="1211.6832,-130.0296 1202.9097,-124.0901 1206.0643,-134.2044 1211.6832,-130.0296"/>
</g>
<!-- node_53 -->
<g id="node27" class="node">
<title>node_53</title>
<polygon fill="none" stroke="#000000" points="1662.4532,-124 1565.5468,-124 1565.5468,-88 1662.4532,-88 1662.4532,-124"/>
<text text-anchor="middle" x="1614" y="-101.8" font-family="Times,serif" font-size="14.00" fill="#000000">accept trainset</text>
</g>
<!-- node_32&#45;&gt;node_53 -->
<g id="edge39" class="edge">
<title>node_32&#45;&gt;node_53</title>
<path fill="none" stroke="#000000" stroke-dasharray="1,5" d="M1150.9314,-231.9902C1243.0762,-208.9728 1406.6721,-167.2339 1555.7417,-124.3089"/>
<polygon fill="#000000" stroke="#000000" points="1556.9023,-127.6168 1565.5388,-121.4799 1554.9603,-120.8916 1556.9023,-127.6168"/>
</g>
<!-- node_33 -->
<g id="node2" class="node">
<title>node_33</title>
<polygon fill="none" stroke="#000000" points="612.6479,-556 455.3521,-556 455.3521,-520 612.6479,-520 612.6479,-556"/>
<text text-anchor="middle" x="534" y="-533.8" font-family="Times,serif" font-size="14.00" fill="#000000">parse String: weather.arff</text>
</g>
<!-- node_40 -->
<g id="node9" class="node">
<title>node_40</title>
<polygon fill="none" stroke="#000000" points="762.2061,-484 305.7939,-484 305.7939,-448 762.2061,-448 762.2061,-484"/>
<text text-anchor="middle" x="534" y="-461.8" font-family="Times,serif" font-size="14.00" fill="#000000">dataset = de.upb.sede.services.mls.DataSetService::__construct([weather.arff])</text>
</g>
<!-- node_33&#45;&gt;node_40 -->
<g id="edge19" class="edge">
<title>node_33&#45;&gt;node_40</title>
<path fill="none" stroke="#000000" d="M534,-519.8314C534,-512.131 534,-502.9743 534,-494.4166"/>
<polygon fill="#000000" stroke="#000000" points="537.5001,-494.4132 534,-484.4133 530.5001,-494.4133 537.5001,-494.4132"/>
</g>
<!-- node_34 -->
<g id="node3" class="node">
<title>node_34</title>
<polygon fill="none" stroke="#000000" points="1047.9727,-484 780.0273,-484 780.0273,-448 1047.9727,-448 1047.9727,-484"/>
<text text-anchor="middle" x="914" y="-461.8" font-family="Times,serif" font-size="14.00" fill="#000000">cast indices_train from jsonlist to builtin.List</text>
</g>
<!-- node_43 -->
<g id="node12" class="node">
<title>node_43</title>
<polygon fill="none" stroke="#000000" points="1019.5967,-412 678.4033,-412 678.4033,-376 1019.5967,-376 1019.5967,-412"/>
<text text-anchor="middle" x="849" y="-389.8" font-family="Times,serif" font-size="14.00" fill="#000000">trainset = dataset::fromIndicesLabeled([indices_train, &#45;1])</text>
</g>
<!-- node_34&#45;&gt;node_43 -->
<g id="edge6" class="edge">
<title>node_34&#45;&gt;node_43</title>
<path fill="none" stroke="#000000" d="M897.5978,-447.8314C889.9585,-439.3694 880.7317,-429.1489 872.3793,-419.8971"/>
<polygon fill="#000000" stroke="#000000" points="874.9221,-417.4906 865.6231,-412.4133 869.7262,-422.1813 874.9221,-417.4906"/>
</g>
<!-- node_35 -->
<g id="node4" class="node">
<title>node_35</title>
<polygon fill="none" stroke="#000000" points="638.2188,-412 37.7812,-412 37.7812,-376 638.2188,-376 638.2188,-412"/>
<text text-anchor="middle" x="338" y="-389.8" font-family="Times,serif" font-size="14.00" fill="#000000">s1 = de.upb.sede.services.mls.WekaBClassifierWrapper::__construct([weka.classifiers.bayes.BayesNet])</text>
</g>
<!-- node_26 -->
<g id="node16" class="node">
<title>node_26</title>
<polygon fill="none" stroke="#000000" points="774.7386,-340 653.2614,-340 653.2614,-304 774.7386,-304 774.7386,-340"/>
<text text-anchor="middle" x="714" y="-317.8" font-family="Times,serif" font-size="14.00" fill="#000000">s1::train([trainset])</text>
</g>
<!-- node_35&#45;&gt;node_26 -->
<g id="edge14" class="edge">
<title>node_35&#45;&gt;node_26</title>
<path fill="none" stroke="#000000" d="M432.3953,-375.9243C497.7887,-363.4022 583.468,-346.9955 643.0701,-335.5823"/>
<polygon fill="#000000" stroke="#000000" points="643.9802,-338.9717 653.1434,-333.6534 642.6636,-332.0966 643.9802,-338.9717"/>
</g>
<!-- node_36 -->
<g id="node5" class="node">
<title>node_36</title>
<polygon fill="none" stroke="#000000" points="983.095,-268 728.905,-268 728.905,-232 983.095,-232 983.095,-268"/>
<text text-anchor="middle" x="856" y="-245.8" font-family="Times,serif" font-size="14.00" fill="#000000">predictions = s1::predict([FALSE, testset])</text>
</g>
<!-- node_38 -->
<g id="node7" class="node">
<title>node_38</title>
<polygon fill="none" stroke="#000000" points="878.6623,-196 819.3377,-196 819.3377,-160 878.6623,-160 878.6623,-196"/>
<text text-anchor="middle" x="849" y="-173.8" font-family="Times,serif" font-size="14.00" fill="#000000">store s1</text>
</g>
<!-- node_36&#45;&gt;node_38 -->
<g id="edge1" class="edge">
<title>node_36&#45;&gt;node_38</title>
<path fill="none" stroke="#000000" d="M854.2336,-231.8314C853.485,-224.131 852.5947,-214.9743 851.7627,-206.4166"/>
<polygon fill="#000000" stroke="#000000" points="855.2415,-206.0276 850.7902,-196.4133 848.2744,-206.7051 855.2415,-206.0276"/>
</g>
<!-- node_44 -->
<g id="node13" class="node">
<title>node_44</title>
<polygon fill="none" stroke="#000000" points="1213.11,-196 1088.89,-196 1088.89,-160 1213.11,-160 1213.11,-196"/>
<text text-anchor="middle" x="1151" y="-173.8" font-family="Times,serif" font-size="14.00" fill="#000000">transmit s1&#45;&gt;Client</text>
</g>
<!-- node_36&#45;&gt;node_44 -->
<g id="edge5" class="edge">
<title>node_36&#45;&gt;node_44</title>
<path fill="none" stroke="#000000" d="M959.9291,-231.9916C998,-224.5224 1041.2378,-215.0115 1080,-204 1084.9246,-202.601 1089.9966,-201.0249 1095.0567,-199.358"/>
<polygon fill="#000000" stroke="#000000" points="1096.3933,-202.6003 1104.7312,-196.0634 1094.1367,-195.974 1096.3933,-202.6003"/>
</g>
<!-- node_31 -->
<g id="node21" class="node">
<title>node_31</title>
<polygon fill="none" stroke="#000000" points="1071.3686,-196 896.6314,-196 896.6314,-160 1071.3686,-160 1071.3686,-196"/>
<text text-anchor="middle" x="984" y="-173.8" font-family="Times,serif" font-size="14.00" fill="#000000">transmit predictions&#45;&gt;Client</text>
</g>
<!-- node_36&#45;&gt;node_31 -->
<g id="edge24" class="edge">
<title>node_36&#45;&gt;node_31</title>
<path fill="none" stroke="#000000" d="M888.2998,-231.8314C904.8234,-222.5368 925.1186,-211.1208 942.7607,-201.1971"/>
<polygon fill="#000000" stroke="#000000" points="944.7107,-204.116 951.7105,-196.1628 941.2788,-198.015 944.7107,-204.116"/>
</g>
<!-- node_37 -->
<g id="node6" class="node">
<title>node_37</title>
<polygon fill="none" stroke="#000000" points="918.9098,-340 793.0902,-340 793.0902,-304 918.9098,-304 918.9098,-340"/>
<text text-anchor="middle" x="856" y="-317.8" font-family="Times,serif" font-size="14.00" fill="#000000">parse Bool: FALSE</text>
</g>
<!-- node_37&#45;&gt;node_36 -->
<g id="edge17" class="edge">
<title>node_37&#45;&gt;node_36</title>
<path fill="none" stroke="#000000" d="M856,-303.8314C856,-296.131 856,-286.9743 856,-278.4166"/>
<polygon fill="#000000" stroke="#000000" points="859.5001,-278.4132 856,-268.4133 852.5001,-278.4133 859.5001,-278.4132"/>
</g>
<!-- node_38&#45;&gt;node_42 -->
<g id="edge3" class="edge">
<title>node_38&#45;&gt;node_42</title>
<path fill="none" stroke="#000000" d="M878.9334,-163.2696C881.9564,-162.0596 885.013,-160.9421 888,-160 948.0331,-141.0644 1017.0691,-128.0485 1073.6696,-119.5479"/>
<polygon fill="#000000" stroke="#000000" points="1074.343,-122.9866 1083.7255,-118.0653 1073.3219,-116.0614 1074.343,-122.9866"/>
</g>
<!-- node_39 -->
<g id="node8" class="node">
<title>node_39</title>
<polygon fill="none" stroke="#000000" points="1319.8423,-484 1198.1577,-484 1198.1577,-448 1319.8423,-448 1319.8423,-484"/>
<text text-anchor="middle" x="1259" y="-461.8" font-family="Times,serif" font-size="14.00" fill="#000000">accept indices_test</text>
</g>
<!-- node_29 -->
<g id="node19" class="node">
<title>node_29</title>
<polygon fill="none" stroke="#000000" points="1319.7589,-412 1058.2411,-412 1058.2411,-376 1319.7589,-376 1319.7589,-412"/>
<text text-anchor="middle" x="1189" y="-389.8" font-family="Times,serif" font-size="14.00" fill="#000000">cast indices_test from jsonlist to builtin.List</text>
</g>
<!-- node_39&#45;&gt;node_29 -->
<g id="edge13" class="edge">
<title>node_39&#45;&gt;node_29</title>
<path fill="none" stroke="#000000" d="M1241.336,-447.8314C1233.0268,-439.2848 1222.9736,-428.9443 1213.9082,-419.6198"/>
<polygon fill="#000000" stroke="#000000" points="1216.3821,-417.1435 1206.9018,-412.4133 1211.3631,-422.023 1216.3821,-417.1435"/>
</g>
<!-- node_40&#45;&gt;node_43 -->
<g id="edge2" class="edge">
<title>node_40&#45;&gt;node_43</title>
<path fill="none" stroke="#000000" d="M613.0812,-447.9243C657.8199,-437.6983 713.8922,-424.8818 760.145,-414.3097"/>
<polygon fill="#000000" stroke="#000000" points="761.1908,-417.661 770.1595,-412.0207 759.631,-410.837 761.1908,-417.661"/>
</g>
<!-- node_41 -->
<g id="node10" class="node">
<title>node_41</title>
<polygon fill="none" stroke="#000000" points="1285.1691,-340 956.8309,-340 956.8309,-304 1285.1691,-304 1285.1691,-340"/>
<text text-anchor="middle" x="1121" y="-317.8" font-family="Times,serif" font-size="14.00" fill="#000000">testset = dataset::fromIndicesLabeled([indices_test, &#45;1])</text>
</g>
<!-- node_41&#45;&gt;node_36 -->
<g id="edge15" class="edge">
<title>node_41&#45;&gt;node_36</title>
<path fill="none" stroke="#000000" d="M1054.4714,-303.9243C1017.4568,-293.8675 971.2204,-281.3052 932.689,-270.8363"/>
<polygon fill="#000000" stroke="#000000" points="933.1239,-267.3276 922.556,-268.0831 931.2885,-274.0827 933.1239,-267.3276"/>
</g>
<!-- node_30 -->
<g id="node20" class="node">
<title>node_30</title>
<polygon fill="none" stroke="#000000" points="1319.6544,-268 1172.3456,-268 1172.3456,-232 1319.6544,-232 1319.6544,-268"/>
<text text-anchor="middle" x="1246" y="-245.8" font-family="Times,serif" font-size="14.00" fill="#000000">transmit testset&#45;&gt;Client</text>
</g>
<!-- node_41&#45;&gt;node_30 -->
<g id="edge11" class="edge">
<title>node_41&#45;&gt;node_30</title>
<path fill="none" stroke="#000000" d="M1152.5428,-303.8314C1168.6791,-294.5368 1188.4986,-283.1208 1205.7272,-273.1971"/>
<polygon fill="#000000" stroke="#000000" points="1207.5489,-276.187 1214.4673,-268.1628 1204.055,-270.1212 1207.5489,-276.187"/>
</g>
<!-- node_54 -->
<g id="node28" class="node">
<title>node_54</title>
<polygon fill="none" stroke="#000000" points="1964.0562,-124 1787.9438,-124 1787.9438,-88 1964.0562,-88 1964.0562,-124"/>
<text text-anchor="middle" x="1876" y="-101.8" font-family="Times,serif" font-size="14.00" fill="#000000">accept &amp;finished&amp;executor1</text>
</g>
<!-- node_42&#45;&gt;node_54 -->
<g id="edge42" class="edge">
<title>node_42&#45;&gt;node_54</title>
<path fill="none" stroke="#000000" stroke-dasharray="1,5" d="M1249.3644,-124.0131C1277.1555,-131.1458 1310.4507,-138.4768 1341,-142 1435.7056,-152.9223 1675.9412,-157.5365 1770,-142 1787.8727,-139.0478 1806.7824,-133.4731 1823.6047,-127.577"/>
<polygon fill="#000000" stroke="#000000" points="1825.0342,-130.7818 1833.2446,-124.0856 1822.6504,-124.2002 1825.0342,-130.7818"/>
</g>
<!-- node_43&#45;&gt;node_32 -->
<g id="edge12" class="edge">
<title>node_43&#45;&gt;node_32</title>
<path fill="none" stroke="#000000" d="M882.3905,-375.9927C897.5801,-366.665 915.0177,-354.2423 928,-340 940.3302,-326.4731 934.3449,-316.1882 948,-304 963.3553,-290.2943 982.677,-279.762 1001.6935,-271.7987"/>
<polygon fill="#000000" stroke="#000000" points="1002.9935,-275.0483 1010.9857,-268.0931 1000.4005,-268.5463 1002.9935,-275.0483"/>
</g>
<!-- node_43&#45;&gt;node_41 -->
<g id="edge16" class="edge">
<title>node_43&#45;&gt;node_41</title>
<path fill="none" stroke="#000000" d="M917.286,-375.9243C955.44,-365.8247 1003.1401,-353.1982 1042.7897,-342.7027"/>
<polygon fill="#000000" stroke="#000000" points="1043.9145,-346.0256 1052.6859,-340.0831 1042.1232,-339.2587 1043.9145,-346.0256"/>
</g>
<!-- node_43&#45;&gt;node_26 -->
<g id="edge10" class="edge">
<title>node_43&#45;&gt;node_26</title>
<path fill="none" stroke="#000000" d="M814.9338,-375.8314C797.3467,-366.4516 775.7084,-354.9112 756.9832,-344.9244"/>
<polygon fill="#000000" stroke="#000000" points="758.5259,-341.7805 748.0553,-340.1628 755.2318,-347.957 758.5259,-341.7805"/>
</g>
<!-- node_44&#45;&gt;node_42 -->
<g id="edge25" class="edge">
<title>node_44&#45;&gt;node_42</title>
<path fill="none" stroke="#000000" d="M1160.0843,-159.8314C1164.0615,-151.8771 1168.8155,-142.369 1173.2139,-133.5723"/>
<polygon fill="#000000" stroke="#000000" points="1176.4517,-134.9228 1177.7934,-124.4133 1170.1907,-131.7923 1176.4517,-134.9228"/>
</g>
<!-- node_50 -->
<g id="node24" class="node">
<title>node_50</title>
<polygon fill="none" stroke="#000000" points="1547.6941,-124 1480.3059,-124 1480.3059,-88 1547.6941,-88 1547.6941,-124"/>
<text text-anchor="middle" x="1514" y="-101.8" font-family="Times,serif" font-size="14.00" fill="#000000">accept s1</text>
</g>
<!-- node_44&#45;&gt;node_50 -->
<g id="edge40" class="edge">
<title>node_44&#45;&gt;node_50</title>
<path fill="none" stroke="#000000" stroke-dasharray="1,5" d="M1213.2877,-171.7714C1276.3069,-164.5137 1376.4085,-150.3624 1470.3339,-123.8436"/>
<polygon fill="#000000" stroke="#000000" points="1471.3443,-127.195 1479.9875,-121.0674 1469.4096,-120.4676 1471.3443,-127.195"/>
</g>
<!-- node_45 -->
<g id="node14" class="node">
<title>node_45</title>
<polygon fill="none" stroke="#000000" points="903,-556 839.3022,-538 903,-520 966.6978,-538 903,-556"/>
<text text-anchor="middle" x="903" y="-533.8" font-family="Times,serif" font-size="14.00" fill="#000000">executor1</text>
</g>
<!-- node_25 -->
<g id="node15" class="node">
<title>node_25</title>
<polygon fill="none" stroke="#000000" points="1179.9658,-484 1066.0342,-484 1066.0342,-448 1179.9658,-448 1179.9658,-484"/>
<text text-anchor="middle" x="1123" y="-461.8" font-family="Times,serif" font-size="14.00" fill="#000000">parse Number: &#45;1</text>
</g>
<!-- node_25&#45;&gt;node_41 -->
<g id="edge22" class="edge">
<title>node_25&#45;&gt;node_41</title>
<path fill="none" stroke="#000000" d="M1084.8117,-447.8328C1070.9025,-439.0933 1056.71,-427.1707 1049,-412 1041.751,-397.7363 1041.8446,-390.3108 1049,-376 1055.0138,-363.9724 1065.1214,-353.9287 1075.8907,-345.8944"/>
<polygon fill="#000000" stroke="#000000" points="1077.9688,-348.7127 1084.1982,-340.1426 1073.9841,-342.9575 1077.9688,-348.7127"/>
</g>
<!-- node_25&#45;&gt;node_43 -->
<g id="edge23" class="edge">
<title>node_25&#45;&gt;node_43</title>
<path fill="none" stroke="#000000" d="M1065.7741,-450.3469C1062.8076,-449.5499 1059.8693,-448.7637 1057,-448 1014.9686,-436.8129 968.0826,-424.616 929.4804,-414.6492"/>
<polygon fill="#000000" stroke="#000000" points="929.8969,-411.1421 919.3395,-412.0329 928.1481,-417.9201 929.8969,-411.1421"/>
</g>
<!-- node_26&#45;&gt;node_36 -->
<g id="edge7" class="edge">
<title>node_26&#45;&gt;node_36</title>
<path fill="none" stroke="#000000" d="M749.8326,-303.8314C768.4157,-294.4089 791.2989,-282.8062 811.0565,-272.7883"/>
<polygon fill="#000000" stroke="#000000" points="812.8427,-275.8069 820.1789,-268.1628 809.677,-269.5635 812.8427,-275.8069"/>
</g>
<!-- node_27 -->
<g id="node17" class="node">
<title>node_27</title>
<polygon fill="none" stroke="#000000" points="1148.5564,-556 1021.4436,-556 1021.4436,-520 1148.5564,-520 1148.5564,-556"/>
<text text-anchor="middle" x="1085" y="-533.8" font-family="Times,serif" font-size="14.00" fill="#000000">accept indices_train</text>
</g>
<!-- node_27&#45;&gt;node_34 -->
<g id="edge18" class="edge">
<title>node_27&#45;&gt;node_34</title>
<path fill="none" stroke="#000000" d="M1041.8495,-519.8314C1018.8776,-510.159 990.4491,-498.1891 966.2368,-487.9944"/>
<polygon fill="#000000" stroke="#000000" points="967.4148,-484.6929 956.8402,-484.038 964.6984,-491.1443 967.4148,-484.6929"/>
</g>
<!-- node_28 -->
<g id="node18" class="node">
<title>node_28</title>
<polygon fill="none" stroke="#000000" points="288.211,-484 15.789,-484 15.789,-448 288.211,-448 288.211,-484"/>
<text text-anchor="middle" x="152" y="-461.8" font-family="Times,serif" font-size="14.00" fill="#000000">parse String: weka.classifiers.bayes.BayesNet</text>
</g>
<!-- node_28&#45;&gt;node_35 -->
<g id="edge4" class="edge">
<title>node_28&#45;&gt;node_35</title>
<path fill="none" stroke="#000000" d="M198.9357,-447.8314C224.1437,-438.0734 255.3926,-425.977 281.8791,-415.7242"/>
<polygon fill="#000000" stroke="#000000" points="283.3397,-418.912 291.4019,-412.038 280.8127,-412.384 283.3397,-418.912"/>
</g>
<!-- node_29&#45;&gt;node_41 -->
<g id="edge21" class="edge">
<title>node_29&#45;&gt;node_41</title>
<path fill="none" stroke="#000000" d="M1171.8407,-375.8314C1163.8489,-367.3694 1154.1962,-357.1489 1145.4584,-347.8971"/>
<polygon fill="#000000" stroke="#000000" points="1147.8011,-345.2802 1138.3903,-340.4133 1142.712,-350.0866 1147.8011,-345.2802"/>
</g>
<!-- node_30&#45;&gt;node_42 -->
<g id="edge9" class="edge">
<title>node_30&#45;&gt;node_42</title>
<path fill="none" stroke="#000000" d="M1247.4775,-231.8892C1248.2781,-213.0733 1247.4498,-183.1934 1237,-160 1232.2584,-149.476 1224.6363,-139.6546 1216.7574,-131.3507"/>
<polygon fill="#000000" stroke="#000000" points="1219.0887,-128.7333 1209.5248,-124.1746 1214.1584,-133.7025 1219.0887,-128.7333"/>
</g>
<!-- node_48 -->
<g id="node22" class="node">
<title>node_48</title>
<polygon fill="none" stroke="#000000" points="1770.2386,-124 1679.7614,-124 1679.7614,-88 1770.2386,-88 1770.2386,-124"/>
<text text-anchor="middle" x="1725" y="-101.8" font-family="Times,serif" font-size="14.00" fill="#000000">accept testset</text>
</g>
<!-- node_30&#45;&gt;node_48 -->
<g id="edge35" class="edge">
<title>node_30&#45;&gt;node_48</title>
<path fill="none" stroke="#000000" stroke-dasharray="1,5" d="M1319.5995,-237.3424C1362.1791,-229.3078 1416.5591,-217.8256 1464,-204 1538.1487,-182.391 1621.2654,-149.6454 1673.362,-128.0419"/>
<polygon fill="#000000" stroke="#000000" points="1674.8349,-131.2199 1682.7194,-124.1429 1672.1425,-124.7584 1674.8349,-131.2199"/>
</g>
<!-- node_31&#45;&gt;node_42 -->
<g id="edge20" class="edge">
<title>node_31&#45;&gt;node_42</title>
<path fill="none" stroke="#000000" d="M1034.9634,-159.9243C1062.7147,-150.0815 1097.2328,-137.8386 1126.3614,-127.5073"/>
<polygon fill="#000000" stroke="#000000" points="1127.7608,-130.7246 1136.0156,-124.0831 1125.4208,-124.1273 1127.7608,-130.7246"/>
</g>
<!-- node_52 -->
<g id="node26" class="node">
<title>node_52</title>
<polygon fill="none" stroke="#000000" points="1461.953,-124 1344.047,-124 1344.047,-88 1461.953,-88 1461.953,-124"/>
<text text-anchor="middle" x="1403" y="-101.8" font-family="Times,serif" font-size="14.00" fill="#000000">accept predictions</text>
</g>
<!-- node_31&#45;&gt;node_52 -->
<g id="edge38" class="edge">
<title>node_31&#45;&gt;node_52</title>
<path fill="none" stroke="#000000" stroke-dasharray="1,5" d="M1071.3492,-161.4554C1074.266,-160.9562 1077.1558,-160.4696 1080,-160 1191.626,-141.5707 1221.0092,-145.9326 1332,-124 1332.7485,-123.8521 1333.5009,-123.7012 1334.2567,-123.5476"/>
<polygon fill="#000000" stroke="#000000" points="1335.1743,-126.9306 1344.22,-121.4147 1333.7088,-120.0857 1335.1743,-126.9306"/>
</g>
<!-- node_49 -->
<g id="node23" class="node">
<title>node_49</title>
<polygon fill="none" stroke="#000000" points="2031.9448,-52 1826.0552,-52 1826.0552,-16 2031.9448,-16 2031.9448,-52"/>
<text text-anchor="middle" x="1929" y="-29.8" font-family="Times,serif" font-size="14.00" fill="#000000">transmit indices_train&#45;&gt;executor1</text>
</g>
<!-- node_49&#45;&gt;node_27 -->
<g id="edge41" class="edge">
<title>node_49&#45;&gt;node_27</title>
<path fill="none" stroke="#000000" stroke-dasharray="1,5" d="M2031.7893,-50.7911C2034.5543,-51.2033 2037.2952,-51.6071 2040,-52 2190.1415,-73.8097 2711,-26.2828 2711,-178 2711,-394 2711,-394 2711,-394 2711,-473.0243 1476.3249,-523.6694 1158.7591,-535.3887"/>
<polygon fill="#000000" stroke="#000000" points="1158.6059,-531.8919 1148.7411,-535.7567 1158.8629,-538.8872 1158.6059,-531.8919"/>
</g>
<!-- node_51 -->
<g id="node25" class="node">
<title>node_51</title>
<polygon fill="none" stroke="#000000" points="2248.7306,-52 2049.2694,-52 2049.2694,-16 2248.7306,-16 2248.7306,-52"/>
<text text-anchor="middle" x="2149" y="-29.8" font-family="Times,serif" font-size="14.00" fill="#000000">transmit indices_test&#45;&gt;executor1</text>
</g>
<!-- node_51&#45;&gt;node_39 -->
<g id="edge37" class="edge">
<title>node_51&#45;&gt;node_39</title>
<path fill="none" stroke="#000000" stroke-dasharray="1,5" d="M2248.7938,-41.0567C2400.8276,-54.5884 2673,-90.9669 2673,-178 2673,-322 2673,-322 2673,-322 2673,-390.2482 1616.6754,-448.0948 1330.0288,-462.5357"/>
<polygon fill="#000000" stroke="#000000" points="1329.5698,-459.0543 1319.7578,-463.0512 1329.9207,-466.0455 1329.5698,-459.0543"/>
</g>
<!-- node_55 -->
<g id="node29" class="node">
<title>node_55</title>
<polygon fill="none" stroke="#000000" points="2109.5564,-124 1982.4436,-124 1982.4436,-88 2109.5564,-88 2109.5564,-124"/>
<text text-anchor="middle" x="2046" y="-101.8" font-family="Times,serif" font-size="14.00" fill="#000000">accept indices_train</text>
</g>
<!-- node_55&#45;&gt;node_49 -->
<g id="edge33" class="edge">
<title>node_55&#45;&gt;node_49</title>
<path fill="none" stroke="#000000" d="M2016.476,-87.8314C2001.5109,-78.6221 1983.1614,-67.3301 1967.1397,-57.4706"/>
<polygon fill="#000000" stroke="#000000" points="1968.8655,-54.423 1958.5146,-52.1628 1965.1968,-60.3847 1968.8655,-54.423"/>
</g>
<!-- node_56 -->
<g id="node30" class="node">
<title>node_56</title>
<polygon fill="none" stroke="#000000" points="2014,-196 1969.2728,-178 2014,-160 2058.7272,-178 2014,-196"/>
<text text-anchor="middle" x="2014" y="-173.8" font-family="Times,serif" font-size="14.00" fill="#000000">Client</text>
</g>
<!-- node_46 -->
<g id="node31" class="node">
<title>node_46</title>
<polygon fill="none" stroke="#000000" points="2248.8423,-124 2127.1577,-124 2127.1577,-88 2248.8423,-88 2248.8423,-124"/>
<text text-anchor="middle" x="2188" y="-101.8" font-family="Times,serif" font-size="14.00" fill="#000000">accept indices_test</text>
</g>
<!-- node_46&#45;&gt;node_51 -->
<g id="edge28" class="edge">
<title>node_46&#45;&gt;node_51</title>
<path fill="none" stroke="#000000" d="M2178.1587,-87.8314C2173.8043,-79.7925 2168.5902,-70.1666 2163.7831,-61.2918"/>
<polygon fill="#000000" stroke="#000000" points="2166.8143,-59.5392 2158.9739,-52.4133 2160.6592,-62.8732 2166.8143,-59.5392"/>
</g>
<!-- node_47 -->
<g id="node32" class="node">
<title>node_47</title>
<polygon fill="none" stroke="#000000" points="1763.5381,-196 1686.4619,-196 1686.4619,-160 1763.5381,-160 1763.5381,-196"/>
<text text-anchor="middle" x="1725" y="-173.8" font-family="Times,serif" font-size="14.00" fill="#000000">send graph</text>
</g>
<!-- node_47&#45;&gt;node_48 -->
<g id="edge26" class="edge">
<title>node_47&#45;&gt;node_48</title>
<path fill="none" stroke="#000000" d="M1725,-159.8314C1725,-152.131 1725,-142.9743 1725,-134.4166"/>
<polygon fill="#000000" stroke="#000000" points="1728.5001,-134.4132 1725,-124.4133 1721.5001,-134.4133 1728.5001,-134.4132"/>
</g>
<!-- node_47&#45;&gt;node_50 -->
<g id="edge27" class="edge">
<title>node_47&#45;&gt;node_50</title>
<path fill="none" stroke="#000000" d="M1686.3145,-166.5931C1654.1301,-156.8748 1606.9692,-142.1079 1557.7097,-124.1267"/>
<polygon fill="#000000" stroke="#000000" points="1558.7563,-120.7823 1548.1628,-120.6105 1556.3369,-127.351 1558.7563,-120.7823"/>
</g>
<!-- node_47&#45;&gt;node_52 -->
<g id="edge29" class="edge">
<title>node_47&#45;&gt;node_52</title>
<path fill="none" stroke="#000000" d="M1686.1379,-170.3576C1638.1418,-160.7827 1553.7838,-143.5107 1471.8982,-124.1584"/>
<polygon fill="#000000" stroke="#000000" points="1472.4654,-120.6958 1461.927,-121.7884 1470.8466,-127.5061 1472.4654,-120.6958"/>
</g>
<!-- node_47&#45;&gt;node_53 -->
<g id="edge30" class="edge">
<title>node_47&#45;&gt;node_53</title>
<path fill="none" stroke="#000000" d="M1696.99,-159.8314C1682.9239,-150.7074 1665.706,-139.539 1650.6067,-129.7449"/>
<polygon fill="#000000" stroke="#000000" points="1652.2953,-126.6684 1642.001,-124.1628 1648.486,-132.5412 1652.2953,-126.6684"/>
</g>
<!-- node_47&#45;&gt;node_54 -->
<g id="edge31" class="edge">
<title>node_47&#45;&gt;node_54</title>
<path fill="none" stroke="#000000" d="M1763.1037,-159.8314C1783.1195,-150.2874 1807.8267,-138.5065 1829.0194,-128.4013"/>
<polygon fill="#000000" stroke="#000000" points="1830.6503,-131.5013 1838.1703,-124.038 1827.6375,-125.1828 1830.6503,-131.5013"/>
</g>
<!-- node_47&#45;&gt;node_55 -->
<g id="edge32" class="edge">
<title>node_47&#45;&gt;node_55</title>
<path fill="none" stroke="#000000" d="M1763.7346,-169.9086C1810.6904,-160.0241 1892.466,-142.5681 1972.5658,-124.0704"/>
<polygon fill="#000000" stroke="#000000" points="1973.3713,-127.4766 1982.3233,-121.8098 1971.7914,-120.6572 1973.3713,-127.4766"/>
</g>
<!-- node_47&#45;&gt;node_46 -->
<g id="edge34" class="edge">
<title>node_47&#45;&gt;node_46</title>
<path fill="none" stroke="#000000" d="M1763.5633,-174.2549C1832.6683,-167.2113 1982.2773,-150.4533 2117.0491,-124.2793"/>
<polygon fill="#000000" stroke="#000000" points="2118.0003,-127.6594 2127.1377,-122.2966 2116.6504,-120.7907 2118.0003,-127.6594"/>
</g>
<!-- node_57 -->
<g id="node33" class="node">
<title>node_57</title>
<polygon fill="none" stroke="#000000" points="2449.4723,-196 2264.5277,-196 2264.5277,-160 2449.4723,-160 2449.4723,-196"/>
<text text-anchor="middle" x="2357" y="-173.8" font-family="Times,serif" font-size="14.00" fill="#000000">transmit indices_train&#45;&gt;Client</text>
</g>
<!-- node_57&#45;&gt;node_55 -->
<g id="edge43" class="edge">
<title>node_57&#45;&gt;node_55</title>
<path fill="none" stroke="#000000" stroke-dasharray="1,5" d="M2275.0386,-159.9655C2231.3812,-150.2445 2176.5276,-137.8499 2119.5012,-124.3358"/>
<polygon fill="#000000" stroke="#000000" points="2120.1223,-120.886 2109.584,-121.9794 2118.5041,-127.6964 2120.1223,-120.886"/>
</g>
<!-- node_58 -->
<g id="node34" class="node">
<title>node_58</title>
<polygon fill="none" stroke="#000000" points="2645.258,-196 2466.742,-196 2466.742,-160 2645.258,-160 2645.258,-196"/>
<text text-anchor="middle" x="2556" y="-173.8" font-family="Times,serif" font-size="14.00" fill="#000000">transmit indices_test&#45;&gt;Client</text>
</g>
<!-- node_58&#45;&gt;node_46 -->
<g id="edge36" class="edge">
<title>node_58&#45;&gt;node_46</title>
<path fill="none" stroke="#000000" stroke-dasharray="1,5" d="M2466.4476,-160.4789C2402.593,-147.9856 2317.9175,-131.4186 2258.7745,-119.8472"/>
<polygon fill="#000000" stroke="#000000" points="2259.2614,-116.3762 2248.7754,-117.8908 2257.9172,-123.2459 2259.2614,-116.3762"/>
</g>
</g>
</svg>
