<?xml version="1.0" encoding="UTF-8" standalone="no"?>
<!DOCTYPE svg PUBLIC "-//W3C//DTD SVG 1.1//EN"
 "http://www.w3.org/Graphics/SVG/1.1/DTD/svg11.dtd">
<!-- Generated by graphviz version 2.40.1 (20161225.0304)
 -->
<!-- Title: %3 Pages: 1 -->
<svg width="2091pt" height="508pt"
 viewBox="0.00 0.00 2091.03 508.00" xmlns="http://www.w3.org/2000/svg" xmlns:xlink="http://www.w3.org/1999/xlink">
<g id="graph0" class="graph" transform="scale(1 1) rotate(0) translate(4 504)">
<title>%3</title>
<polygon fill="#ffffff" stroke="transparent" points="-4,4 -4,-504 2087.0331,-504 2087.0331,4 -4,4"/>
<g id="clust1" class="cluster">
<title>cluster_163793286</title>
<polygon fill="none" stroke="#000000" points="8,-8 8,-204 644,-204 644,-8 8,-8"/>
</g>
<g id="clust2" class="cluster">
<title>cluster_31033840</title>
<polygon fill="none" stroke="#000000" points="979,-80 979,-492 2061,-492 2061,-80 979,-80"/>
</g>
<!-- node_16 -->
<g id="node1" class="node">
<title>node_16</title>
<polygon fill="none" stroke="#000000" points="365.127,-52 196.873,-52 196.873,-16 365.127,-16 365.127,-52"/>
<text text-anchor="middle" x="281" y="-29.8" font-family="Times,serif" font-size="14.00" fill="#000000">transmit testset&#45;&gt;executor1</text>
</g>
<!-- node_11 -->
<g id="node23" class="node">
<title>node_11</title>
<polygon fill="none" stroke="#000000" points="2053.2386,-412 1962.7614,-412 1962.7614,-376 2053.2386,-376 2053.2386,-412"/>
<text text-anchor="middle" x="2008" y="-389.8" font-family="Times,serif" font-size="14.00" fill="#000000">accept testset</text>
</g>
<!-- node_16&#45;&gt;node_11 -->
<g id="edge25" class="edge">
<title>node_16&#45;&gt;node_11</title>
<path fill="none" stroke="#000000" stroke-dasharray="1,5" d="M365.2106,-45.7573C385.1085,-48.1736 406.2747,-50.4501 426,-52 669.7591,-71.1533 1851,-31.6804 1851,-178 1851,-250 1851,-250 1851,-250 1851,-307.4391 1908.7786,-348.1824 1954.2338,-371.3482"/>
<polygon fill="#000000" stroke="#000000" points="1952.9135,-374.5996 1963.4301,-375.8856 1956.0108,-368.3221 1952.9135,-374.5996"/>
</g>
<!-- node_17 -->
<g id="node2" class="node">
<title>node_17</title>
<polygon fill="none" stroke="#000000" points="635.953,-124 518.047,-124 518.047,-88 635.953,-88 635.953,-124"/>
<text text-anchor="middle" x="577" y="-101.8" font-family="Times,serif" font-size="14.00" fill="#000000">accept predictions</text>
</g>
<!-- node_18 -->
<g id="node3" class="node">
<title>node_18</title>
<polygon fill="none" stroke="#000000" points="192.0562,-124 15.9438,-124 15.9438,-88 192.0562,-88 192.0562,-124"/>
<text text-anchor="middle" x="104" y="-101.8" font-family="Times,serif" font-size="14.00" fill="#000000">accept &amp;finished&amp;executor1</text>
</g>
<!-- node_19 -->
<g id="node4" class="node">
<title>node_19</title>
<polygon fill="none" stroke="#000000" points="404.5381,-196 327.4619,-196 327.4619,-160 404.5381,-160 404.5381,-196"/>
<text text-anchor="middle" x="366" y="-173.8" font-family="Times,serif" font-size="14.00" fill="#000000">send graph</text>
</g>
<!-- node_19&#45;&gt;node_17 -->
<g id="edge6" class="edge">
<title>node_19&#45;&gt;node_17</title>
<path fill="none" stroke="#000000" d="M404.7007,-164.7941C435.3677,-154.3295 478.8272,-139.4997 514.4257,-127.3524"/>
<polygon fill="#000000" stroke="#000000" points="515.9068,-130.5452 524.2406,-124.0032 513.6461,-123.9203 515.9068,-130.5452"/>
</g>
<!-- node_19&#45;&gt;node_18 -->
<g id="edge7" class="edge">
<title>node_19&#45;&gt;node_18</title>
<path fill="none" stroke="#000000" d="M327.341,-167.3762C288.5223,-156.7084 227.6933,-139.9921 179.3142,-126.697"/>
<polygon fill="#000000" stroke="#000000" points="180.0737,-123.2761 169.5037,-124.001 178.2188,-130.0258 180.0737,-123.2761"/>
</g>
<!-- node_21 -->
<g id="node6" class="node">
<title>node_21</title>
<polygon fill="none" stroke="#000000" points="499.6941,-124 432.3059,-124 432.3059,-88 499.6941,-88 499.6941,-124"/>
<text text-anchor="middle" x="466" y="-101.8" font-family="Times,serif" font-size="14.00" fill="#000000">accept s1</text>
</g>
<!-- node_19&#45;&gt;node_21 -->
<g id="edge2" class="edge">
<title>node_19&#45;&gt;node_21</title>
<path fill="none" stroke="#000000" d="M391.2342,-159.8314C403.788,-150.7927 419.1283,-139.7476 432.6391,-130.0198"/>
<polygon fill="#000000" stroke="#000000" points="434.7036,-132.8463 440.7739,-124.1628 430.6134,-127.1655 434.7036,-132.8463"/>
</g>
<!-- node_14 -->
<g id="node8" class="node">
<title>node_14</title>
<polygon fill="none" stroke="#000000" points="300.2386,-124 209.7614,-124 209.7614,-88 300.2386,-88 300.2386,-124"/>
<text text-anchor="middle" x="255" y="-101.8" font-family="Times,serif" font-size="14.00" fill="#000000">accept testset</text>
</g>
<!-- node_19&#45;&gt;node_14 -->
<g id="edge4" class="edge">
<title>node_19&#45;&gt;node_14</title>
<path fill="none" stroke="#000000" d="M337.99,-159.8314C323.9239,-150.7074 306.706,-139.539 291.6067,-129.7449"/>
<polygon fill="#000000" stroke="#000000" points="293.2953,-126.6684 283.001,-124.1628 289.486,-132.5412 293.2953,-126.6684"/>
</g>
<!-- node_15 -->
<g id="node9" class="node">
<title>node_15</title>
<polygon fill="none" stroke="#000000" points="414.4532,-124 317.5468,-124 317.5468,-88 414.4532,-88 414.4532,-124"/>
<text text-anchor="middle" x="366" y="-101.8" font-family="Times,serif" font-size="14.00" fill="#000000">accept trainset</text>
</g>
<!-- node_19&#45;&gt;node_15 -->
<g id="edge5" class="edge">
<title>node_19&#45;&gt;node_15</title>
<path fill="none" stroke="#000000" d="M366,-159.8314C366,-152.131 366,-142.9743 366,-134.4166"/>
<polygon fill="#000000" stroke="#000000" points="369.5001,-134.4132 366,-124.4133 362.5001,-134.4133 369.5001,-134.4132"/>
</g>
<!-- node_20 -->
<g id="node5" class="node">
<title>node_20</title>
<polygon fill="none" stroke="#000000" points="609.3412,-52 434.6588,-52 434.6588,-16 609.3412,-16 609.3412,-52"/>
<text text-anchor="middle" x="522" y="-29.8" font-family="Times,serif" font-size="14.00" fill="#000000">transmit trainset&#45;&gt;executor1</text>
</g>
<!-- node_2 -->
<g id="node14" class="node">
<title>node_2</title>
<polygon fill="none" stroke="#000000" points="1951.4532,-484 1854.5468,-484 1854.5468,-448 1951.4532,-448 1951.4532,-484"/>
<text text-anchor="middle" x="1903" y="-461.8" font-family="Times,serif" font-size="14.00" fill="#000000">accept trainset</text>
</g>
<!-- node_20&#45;&gt;node_2 -->
<g id="edge28" class="edge">
<title>node_20&#45;&gt;node_2</title>
<path fill="none" stroke="#000000" stroke-dasharray="1,5" d="M609.575,-35.5655C837.2229,-39.9603 1443.7202,-53.8321 1643,-80 1840.7819,-105.9712 2081,21.4798 2081,-178 2081,-322 2081,-322 2081,-322 2081,-362.8816 2089.1323,-381.4198 2062,-412 2048.2659,-427.4794 2000.8654,-442.3974 1961.3628,-452.6161"/>
<polygon fill="#000000" stroke="#000000" points="1960.3497,-449.2621 1951.5152,-455.1103 1962.0685,-456.0479 1960.3497,-449.2621"/>
</g>
<!-- node_22 -->
<g id="node7" class="node">
<title>node_22</title>
<polygon fill="none" stroke="#000000" points="163,-196 118.2728,-178 163,-160 207.7272,-178 163,-196"/>
<text text-anchor="middle" x="163" y="-173.8" font-family="Times,serif" font-size="14.00" fill="#000000">Client</text>
</g>
<!-- node_14&#45;&gt;node_16 -->
<g id="edge1" class="edge">
<title>node_14&#45;&gt;node_16</title>
<path fill="none" stroke="#000000" d="M261.5609,-87.8314C264.4027,-79.9617 267.7937,-70.5712 270.9419,-61.8533"/>
<polygon fill="#000000" stroke="#000000" points="274.2462,-63.0076 274.3508,-52.4133 267.6623,-60.63 274.2462,-63.0076"/>
</g>
<!-- node_15&#45;&gt;node_20 -->
<g id="edge3" class="edge">
<title>node_15&#45;&gt;node_20</title>
<path fill="none" stroke="#000000" d="M405.3654,-87.8314C426.1367,-78.2446 451.7983,-66.4008 473.7581,-56.2655"/>
<polygon fill="#000000" stroke="#000000" points="475.3048,-59.4065 482.9177,-52.038 472.3714,-53.0508 475.3048,-59.4065"/>
</g>
<!-- node_23 -->
<g id="node10" class="node">
<title>node_23</title>
<polygon fill="none" stroke="#000000" points="799.6544,-196 652.3456,-196 652.3456,-160 799.6544,-160 799.6544,-196"/>
<text text-anchor="middle" x="726" y="-173.8" font-family="Times,serif" font-size="14.00" fill="#000000">transmit testset&#45;&gt;Client</text>
</g>
<!-- node_23&#45;&gt;node_14 -->
<g id="edge23" class="edge">
<title>node_23&#45;&gt;node_14</title>
<path fill="none" stroke="#000000" stroke-dasharray="1,5" d="M652.1446,-160.7175C650.7531,-160.4696 649.3706,-160.2301 648,-160 501.7867,-135.4583 458.8985,-155.253 310.1298,-123.9806"/>
<polygon fill="#000000" stroke="#000000" points="310.6869,-120.5205 300.1753,-121.8458 309.2191,-127.3649 310.6869,-120.5205"/>
</g>
<!-- node_24 -->
<g id="node11" class="node">
<title>node_24</title>
<polygon fill="none" stroke="#000000" points="970.8686,-196 817.1314,-196 817.1314,-160 970.8686,-160 970.8686,-196"/>
<text text-anchor="middle" x="894" y="-173.8" font-family="Times,serif" font-size="14.00" fill="#000000">transmit trainset&#45;&gt;Client</text>
</g>
<!-- node_24&#45;&gt;node_15 -->
<g id="edge24" class="edge">
<title>node_24&#45;&gt;node_15</title>
<path fill="none" stroke="#000000" stroke-dasharray="1,5" d="M817.1619,-161.3124C814.4114,-160.8476 811.6843,-160.408 809,-160 641.9002,-134.602 593.7109,-157.2387 424.3292,-124.0292"/>
<polygon fill="#000000" stroke="#000000" points="424.8179,-120.5577 414.326,-122.0312 423.4468,-127.4221 424.8179,-120.5577"/>
</g>
<!-- node_0 -->
<g id="node12" class="node">
<title>node_0</title>
<polygon fill="none" stroke="#000000" points="1382.6623,-196 1323.3377,-196 1323.3377,-160 1382.6623,-160 1382.6623,-196"/>
<text text-anchor="middle" x="1353" y="-173.8" font-family="Times,serif" font-size="14.00" fill="#000000">store s1</text>
</g>
<!-- node_7 -->
<g id="node19" class="node">
<title>node_7</title>
<polygon fill="none" stroke="#000000" points="1257.1485,-124 1050.8515,-124 1050.8515,-88 1257.1485,-88 1257.1485,-124"/>
<text text-anchor="middle" x="1154" y="-101.8" font-family="Times,serif" font-size="14.00" fill="#000000">FinishNode &amp;finished&amp;executor1</text>
</g>
<!-- node_0&#45;&gt;node_7 -->
<g id="edge15" class="edge">
<title>node_0&#45;&gt;node_7</title>
<path fill="none" stroke="#000000" d="M1323.3319,-163.9098C1320.201,-162.5422 1317.0484,-161.2139 1314,-160 1284.1455,-148.112 1250.5245,-136.5046 1221.8354,-127.1168"/>
<polygon fill="#000000" stroke="#000000" points="1222.8998,-123.7826 1212.3077,-124.021 1220.7366,-130.44 1222.8998,-123.7826"/>
</g>
<!-- node_1 -->
<g id="node13" class="node">
<title>node_1</title>
<polygon fill="none" stroke="#000000" points="1640.6983,-412 987.3017,-412 987.3017,-376 1640.6983,-376 1640.6983,-412"/>
<text text-anchor="middle" x="1314" y="-389.8" font-family="Times,serif" font-size="14.00" fill="#000000">s1 = WekaBClassifierWrapper::__construct([weka.classifiers.bayes.BayesNet])</text>
</g>
<!-- node_8 -->
<g id="node20" class="node">
<title>node_8</title>
<polygon fill="none" stroke="#000000" points="1406.7591,-340 1299.2409,-340 1299.2409,-304 1406.7591,-304 1406.7591,-340"/>
<text text-anchor="middle" x="1353" y="-317.8" font-family="Times,serif" font-size="14.00" fill="#000000">s1::fit([trainset])</text>
</g>
<!-- node_1&#45;&gt;node_8 -->
<g id="edge16" class="edge">
<title>node_1&#45;&gt;node_8</title>
<path fill="none" stroke="#000000" d="M1323.8413,-375.8314C1328.1957,-367.7925 1333.4098,-358.1666 1338.2169,-349.2918"/>
<polygon fill="#000000" stroke="#000000" points="1341.3408,-350.8732 1343.0261,-340.4133 1335.1857,-347.5392 1341.3408,-350.8732"/>
</g>
<!-- node_5 -->
<g id="node17" class="node">
<title>node_5</title>
<polygon fill="none" stroke="#000000" points="1945.1631,-412 1658.8369,-412 1658.8369,-376 1945.1631,-376 1945.1631,-412"/>
<text text-anchor="middle" x="1802" y="-389.8" font-family="Times,serif" font-size="14.00" fill="#000000">cast trainset from dataset to weka.core.Instances</text>
</g>
<!-- node_2&#45;&gt;node_5 -->
<g id="edge8" class="edge">
<title>node_2&#45;&gt;node_5</title>
<path fill="none" stroke="#000000" d="M1877.5134,-447.8314C1864.8341,-438.7927 1849.3404,-427.7476 1835.6945,-418.0198"/>
<polygon fill="#000000" stroke="#000000" points="1837.6529,-415.1176 1827.4784,-412.1628 1833.5895,-420.8176 1837.6529,-415.1176"/>
</g>
<!-- node_3 -->
<g id="node15" class="node">
<title>node_3</title>
<polygon fill="none" stroke="#000000" points="1305.3686,-196 1130.6314,-196 1130.6314,-160 1305.3686,-160 1305.3686,-196"/>
<text text-anchor="middle" x="1218" y="-173.8" font-family="Times,serif" font-size="14.00" fill="#000000">transmit predictions&#45;&gt;Client</text>
</g>
<!-- node_3&#45;&gt;node_17 -->
<g id="edge27" class="edge">
<title>node_3&#45;&gt;node_17</title>
<path fill="none" stroke="#000000" stroke-dasharray="1,5" d="M1130.6756,-161.2947C1127.7517,-160.8414 1124.8537,-160.4081 1122,-160 951.661,-135.6386 749.7945,-118.7343 646.1023,-110.9185"/>
<polygon fill="#000000" stroke="#000000" points="646.3083,-107.4242 636.075,-110.168 645.7858,-114.4047 646.3083,-107.4242"/>
</g>
<!-- node_3&#45;&gt;node_7 -->
<g id="edge12" class="edge">
<title>node_3&#45;&gt;node_7</title>
<path fill="none" stroke="#000000" d="M1201.8501,-159.8314C1194.3283,-151.3694 1185.2435,-141.1489 1177.0196,-131.8971"/>
<polygon fill="#000000" stroke="#000000" points="1179.627,-129.5621 1170.3673,-124.4133 1174.3951,-134.2127 1179.627,-129.5621"/>
</g>
<!-- node_4 -->
<g id="node16" class="node">
<title>node_4</title>
<polygon fill="none" stroke="#000000" points="1113.11,-196 988.89,-196 988.89,-160 1113.11,-160 1113.11,-196"/>
<text text-anchor="middle" x="1051" y="-173.8" font-family="Times,serif" font-size="14.00" fill="#000000">transmit s1&#45;&gt;Client</text>
</g>
<!-- node_4&#45;&gt;node_21 -->
<g id="edge22" class="edge">
<title>node_4&#45;&gt;node_21</title>
<path fill="none" stroke="#000000" stroke-dasharray="1,5" d="M988.7893,-161.5842C985.8271,-161.0055 982.8863,-160.4726 980,-160 776.052,-126.6081 715.0085,-171.7106 509.8158,-123.7177"/>
<polygon fill="#000000" stroke="#000000" points="510.4738,-120.2765 499.9346,-121.3613 508.85,-127.0856 510.4738,-120.2765"/>
</g>
<!-- node_4&#45;&gt;node_7 -->
<g id="edge9" class="edge">
<title>node_4&#45;&gt;node_7</title>
<path fill="none" stroke="#000000" d="M1076.9912,-159.8314C1089.9216,-150.7927 1105.7222,-139.7476 1119.6383,-130.0198"/>
<polygon fill="#000000" stroke="#000000" points="1121.8263,-132.7608 1128.0171,-124.1628 1117.8157,-127.0235 1121.8263,-132.7608"/>
</g>
<!-- node_5&#45;&gt;node_8 -->
<g id="edge10" class="edge">
<title>node_5&#45;&gt;node_8</title>
<path fill="none" stroke="#000000" d="M1683.0155,-375.9767C1616.2386,-365.7244 1531.427,-352.4756 1456,-340 1443.4227,-337.9197 1429.9948,-335.6262 1417.1295,-333.393"/>
<polygon fill="#000000" stroke="#000000" points="1417.4119,-329.8896 1406.9594,-331.6202 1416.2098,-336.7856 1417.4119,-329.8896"/>
</g>
<!-- node_6 -->
<g id="node18" class="node">
<title>node_6</title>
<polygon fill="none" stroke="#000000" points="1280.9609,-340 1161.0391,-340 1161.0391,-304 1280.9609,-304 1280.9609,-340"/>
<text text-anchor="middle" x="1221" y="-317.8" font-family="Times,serif" font-size="14.00" fill="#000000">parse Bool: TRUE</text>
</g>
<!-- node_12 -->
<g id="node24" class="node">
<title>node_12</title>
<polygon fill="none" stroke="#000000" points="1390.8929,-268 1141.1071,-268 1141.1071,-232 1390.8929,-232 1390.8929,-268"/>
<text text-anchor="middle" x="1266" y="-245.8" font-family="Times,serif" font-size="14.00" fill="#000000">predictions = s1::predict([TRUE, testset])</text>
</g>
<!-- node_6&#45;&gt;node_12 -->
<g id="edge14" class="edge">
<title>node_6&#45;&gt;node_12</title>
<path fill="none" stroke="#000000" d="M1232.3554,-303.8314C1237.4326,-295.7079 1243.5227,-285.9637 1249.1176,-277.0118"/>
<polygon fill="#000000" stroke="#000000" points="1252.1597,-278.7483 1254.4917,-268.4133 1246.2237,-275.0383 1252.1597,-278.7483"/>
</g>
<!-- node_7&#45;&gt;node_18 -->
<g id="edge26" class="edge">
<title>node_7&#45;&gt;node_18</title>
<path fill="none" stroke="#000000" stroke-dasharray="1,5" d="M1050.8862,-115.152C840.6844,-132.9519 369.0848,-168.2773 210,-142 192.1273,-139.0478 173.2176,-133.4731 156.3953,-127.577"/>
<polygon fill="#000000" stroke="#000000" points="157.3496,-124.2002 146.7554,-124.0856 154.9658,-130.7818 157.3496,-124.2002"/>
</g>
<!-- node_8&#45;&gt;node_12 -->
<g id="edge13" class="edge">
<title>node_8&#45;&gt;node_12</title>
<path fill="none" stroke="#000000" d="M1331.0462,-303.8314C1320.3305,-294.9632 1307.2811,-284.1637 1295.691,-274.5718"/>
<polygon fill="#000000" stroke="#000000" points="1297.8822,-271.8422 1287.9467,-268.1628 1293.4192,-277.2349 1297.8822,-271.8422"/>
</g>
<!-- node_9 -->
<g id="node21" class="node">
<title>node_9</title>
<polygon fill="none" stroke="#000000" points="1744.9492,-340 1465.0508,-340 1465.0508,-304 1744.9492,-304 1744.9492,-340"/>
<text text-anchor="middle" x="1605" y="-317.8" font-family="Times,serif" font-size="14.00" fill="#000000">cast testset from dataset to weka.core.Instances</text>
</g>
<!-- node_9&#45;&gt;node_12 -->
<g id="edge11" class="edge">
<title>node_9&#45;&gt;node_12</title>
<path fill="none" stroke="#000000" d="M1519.8936,-303.9243C1471.4434,-293.634 1410.6422,-280.7205 1360.6869,-270.1105"/>
<polygon fill="#000000" stroke="#000000" points="1361.3564,-266.6747 1350.8474,-268.0207 1359.902,-273.5219 1361.3564,-266.6747"/>
</g>
<!-- node_10 -->
<g id="node22" class="node">
<title>node_10</title>
<polygon fill="none" stroke="#000000" points="1450.211,-484 1177.789,-484 1177.789,-448 1450.211,-448 1450.211,-484"/>
<text text-anchor="middle" x="1314" y="-461.8" font-family="Times,serif" font-size="14.00" fill="#000000">parse String: weka.classifiers.bayes.BayesNet</text>
</g>
<!-- node_10&#45;&gt;node_1 -->
<g id="edge18" class="edge">
<title>node_10&#45;&gt;node_1</title>
<path fill="none" stroke="#000000" d="M1314,-447.8314C1314,-440.131 1314,-430.9743 1314,-422.4166"/>
<polygon fill="#000000" stroke="#000000" points="1317.5001,-422.4132 1314,-412.4133 1310.5001,-422.4133 1317.5001,-422.4132"/>
</g>
<!-- node_11&#45;&gt;node_9 -->
<g id="edge21" class="edge">
<title>node_11&#45;&gt;node_9</title>
<path fill="none" stroke="#000000" d="M1962.7877,-378.3153C1959.8289,-377.4794 1956.8813,-376.6979 1954,-376 1889.6516,-360.4144 1817.4902,-348.3689 1755.5575,-339.6503"/>
<polygon fill="#000000" stroke="#000000" points="1755.6992,-336.1364 1745.3124,-338.2251 1754.7347,-343.0696 1755.6992,-336.1364"/>
</g>
<!-- node_12&#45;&gt;node_0 -->
<g id="edge17" class="edge">
<title>node_12&#45;&gt;node_0</title>
<path fill="none" stroke="#000000" d="M1287.9538,-231.8314C1298.6695,-222.9632 1311.7189,-212.1637 1323.309,-202.5718"/>
<polygon fill="#000000" stroke="#000000" points="1325.5808,-205.2349 1331.0533,-196.1628 1321.1178,-199.8422 1325.5808,-205.2349"/>
</g>
<!-- node_12&#45;&gt;node_3 -->
<g id="edge19" class="edge">
<title>node_12&#45;&gt;node_3</title>
<path fill="none" stroke="#000000" d="M1253.8876,-231.8314C1248.4719,-223.7079 1241.9758,-213.9637 1236.0079,-205.0118"/>
<polygon fill="#000000" stroke="#000000" points="1238.7347,-202.7923 1230.2755,-196.4133 1232.9104,-206.6753 1238.7347,-202.7923"/>
</g>
<!-- node_12&#45;&gt;node_4 -->
<g id="edge20" class="edge">
<title>node_12&#45;&gt;node_4</title>
<path fill="none" stroke="#000000" d="M1207.6635,-231.9742C1181.3997,-223.7023 1150.0551,-213.6132 1122,-204 1117.7643,-202.5486 1113.3968,-201.0224 1109.0079,-199.4671"/>
<polygon fill="#000000" stroke="#000000" points="1110.0031,-196.106 1099.4085,-196.0335 1107.6455,-202.697 1110.0031,-196.106"/>
</g>
<!-- node_13 -->
<g id="node25" class="node">
<title>node_13</title>
<polygon fill="none" stroke="#000000" points="1074,-484 1010.3022,-466 1074,-448 1137.6978,-466 1074,-484"/>
<text text-anchor="middle" x="1074" y="-461.8" font-family="Times,serif" font-size="14.00" fill="#000000">executor1</text>
</g>
</g>
</svg>
