<?xml version="1.0" encoding="UTF-8" standalone="no"?>
<!DOCTYPE svg PUBLIC "-//W3C//DTD SVG 1.1//EN"
 "http://www.w3.org/Graphics/SVG/1.1/DTD/svg11.dtd">
<!-- Generated by graphviz version 2.40.1 (20161225.0304)
 -->
<!-- Title: %3 Pages: 1 -->
<svg width="2157pt" height="508pt"
 viewBox="0.00 0.00 2157.00 508.00" xmlns="http://www.w3.org/2000/svg" xmlns:xlink="http://www.w3.org/1999/xlink">
<g id="graph0" class="graph" transform="scale(1 1) rotate(0) translate(4 504)">
<title>%3</title>
<polygon fill="#ffffff" stroke="transparent" points="-4,4 -4,-504 2153,-504 2153,4 -4,4"/>
<g id="clust2" class="cluster">
<title>cluster_1037371052</title>
<polygon fill="none" stroke="#000000" points="1137,-80 1137,-492 2141,-492 2141,-80 1137,-80"/>
</g>
<g id="clust1" class="cluster">
<title>cluster_863035074</title>
<polygon fill="none" stroke="#000000" points="8,-8 8,-204 802,-204 802,-8 8,-8"/>
</g>
<!-- node_16 -->
<g id="node1" class="node">
<title>node_16</title>
<polygon fill="none" stroke="#000000" points="740.3412,-52 565.6588,-52 565.6588,-16 740.3412,-16 740.3412,-52"/>
<text text-anchor="middle" x="653" y="-29.8" font-family="Times,serif" font-size="14.00" fill="#000000">transmit trainset&#45;&gt;executor1</text>
</g>
<!-- node_8 -->
<g id="node20" class="node">
<title>node_8</title>
<polygon fill="none" stroke="#000000" points="2133.1153,-412 1762.8847,-412 1762.8847,-376 2133.1153,-376 2133.1153,-412"/>
<text text-anchor="middle" x="1948" y="-389.8" font-family="Times,serif" font-size="14.00" fill="#000000">accept trainset cast trainset from dataset to weka.core.Instances</text>
</g>
<!-- node_16&#45;&gt;node_8 -->
<g id="edge23" class="edge">
<title>node_16&#45;&gt;node_8</title>
<path fill="none" stroke="#000000" stroke-dasharray="1,5" d="M740.313,-34.6018C1029.5322,-37.7366 1938,-57.1981 1938,-178 1938,-250 1938,-250 1938,-250 1938,-290.2207 1941.9305,-336.609 1944.8632,-365.6227"/>
<polygon fill="#000000" stroke="#000000" points="1941.4104,-366.2593 1945.928,-375.8427 1948.3728,-365.5338 1941.4104,-366.2593"/>
</g>
<!-- node_17 -->
<g id="node2" class="node">
<title>node_17</title>
<polygon fill="none" stroke="#000000" points="509.9522,-124 382.0478,-124 382.0478,-88 509.9522,-88 509.9522,-124"/>
<text text-anchor="middle" x="446" y="-101.8" font-family="Times,serif" font-size="14.00" fill="#000000">accept trainset &#160;as is</text>
</g>
<!-- node_17&#45;&gt;node_16 -->
<g id="edge7" class="edge">
<title>node_17&#45;&gt;node_16</title>
<path fill="none" stroke="#000000" d="M496.6324,-87.8819C504.1272,-85.2245 511.7614,-82.5314 519,-80 542.1574,-71.9016 567.6107,-63.131 590.0558,-55.4413"/>
<polygon fill="#000000" stroke="#000000" points="591.4777,-58.6541 599.8054,-52.1042 589.2108,-52.0313 591.4777,-58.6541"/>
</g>
<!-- node_18 -->
<g id="node3" class="node">
<title>node_18</title>
<polygon fill="none" stroke="#000000" points="676.4522,-124 527.5478,-124 527.5478,-88 676.4522,-88 676.4522,-124"/>
<text text-anchor="middle" x="602" y="-101.8" font-family="Times,serif" font-size="14.00" fill="#000000">accept predictions &#160;as is</text>
</g>
<!-- node_19 -->
<g id="node4" class="node">
<title>node_19</title>
<polygon fill="none" stroke="#000000" points="441.127,-52 272.873,-52 272.873,-16 441.127,-16 441.127,-52"/>
<text text-anchor="middle" x="357" y="-29.8" font-family="Times,serif" font-size="14.00" fill="#000000">transmit testset&#45;&gt;executor1</text>
</g>
<!-- node_6 -->
<g id="node18" class="node">
<title>node_6</title>
<polygon fill="none" stroke="#000000" points="1869.6876,-340 1512.3124,-340 1512.3124,-304 1869.6876,-304 1869.6876,-340"/>
<text text-anchor="middle" x="1691" y="-317.8" font-family="Times,serif" font-size="14.00" fill="#000000">accept testset cast testset from dataset to weka.core.Instances</text>
</g>
<!-- node_19&#45;&gt;node_6 -->
<g id="edge22" class="edge">
<title>node_19&#45;&gt;node_6</title>
<path fill="none" stroke="#000000" stroke-dasharray="1,5" d="M441.0929,-42.6593C476.7974,-46.0527 518.896,-49.6811 557,-52 654.6466,-57.9426 1344.2605,-48.8622 1437,-80 1550.5311,-118.1187 1639.5045,-240.4441 1674.6692,-295.1363"/>
<polygon fill="#000000" stroke="#000000" points="1671.922,-297.3404 1680.2263,-303.9199 1677.8375,-293.5979 1671.922,-297.3404"/>
</g>
<!-- node_20 -->
<g id="node5" class="node">
<title>node_20</title>
<polygon fill="none" stroke="#000000" points="647,-196 602.2728,-178 647,-160 691.7272,-178 647,-196"/>
<text text-anchor="middle" x="647" y="-173.8" font-family="Times,serif" font-size="14.00" fill="#000000">Client</text>
</g>
<!-- node_12 -->
<g id="node6" class="node">
<title>node_12</title>
<polygon fill="none" stroke="#000000" points="224.0557,-124 15.9443,-124 15.9443,-88 224.0557,-88 224.0557,-124"/>
<text text-anchor="middle" x="120" y="-101.8" font-family="Times,serif" font-size="14.00" fill="#000000">accept &amp;finished&amp;executor1 &#160;as is</text>
</g>
<!-- node_13 -->
<g id="node7" class="node">
<title>node_13</title>
<polygon fill="none" stroke="#000000" points="363.7386,-124 242.2614,-124 242.2614,-88 363.7386,-88 363.7386,-124"/>
<text text-anchor="middle" x="303" y="-101.8" font-family="Times,serif" font-size="14.00" fill="#000000">accept testset &#160;as is</text>
</g>
<!-- node_13&#45;&gt;node_19 -->
<g id="edge3" class="edge">
<title>node_13&#45;&gt;node_19</title>
<path fill="none" stroke="#000000" d="M316.6265,-87.8314C322.846,-79.5386 330.3322,-69.557 337.16,-60.4533"/>
<polygon fill="#000000" stroke="#000000" points="339.99,-62.5133 343.19,-52.4133 334.39,-58.3133 339.99,-62.5133"/>
</g>
<!-- node_14 -->
<g id="node8" class="node">
<title>node_14</title>
<polygon fill="none" stroke="#000000" points="793.6935,-124 694.3065,-124 694.3065,-88 793.6935,-88 793.6935,-124"/>
<text text-anchor="middle" x="744" y="-101.8" font-family="Times,serif" font-size="14.00" fill="#000000">accept s1 &#160;as is</text>
</g>
<!-- node_15 -->
<g id="node9" class="node">
<title>node_15</title>
<polygon fill="none" stroke="#000000" points="484.5381,-196 407.4619,-196 407.4619,-160 484.5381,-160 484.5381,-196"/>
<text text-anchor="middle" x="446" y="-173.8" font-family="Times,serif" font-size="14.00" fill="#000000">send graph</text>
</g>
<!-- node_15&#45;&gt;node_17 -->
<g id="edge1" class="edge">
<title>node_15&#45;&gt;node_17</title>
<path fill="none" stroke="#000000" d="M446,-159.8314C446,-152.131 446,-142.9743 446,-134.4166"/>
<polygon fill="#000000" stroke="#000000" points="449.5001,-134.4132 446,-124.4133 442.5001,-134.4133 449.5001,-134.4132"/>
</g>
<!-- node_15&#45;&gt;node_18 -->
<g id="edge2" class="edge">
<title>node_15&#45;&gt;node_18</title>
<path fill="none" stroke="#000000" d="M484.5618,-160.2022C505.4042,-150.5827 531.3448,-138.6101 553.5407,-128.3658"/>
<polygon fill="#000000" stroke="#000000" points="555.1854,-131.4616 562.7982,-124.0931 552.2519,-125.1059 555.1854,-131.4616"/>
</g>
<!-- node_15&#45;&gt;node_12 -->
<g id="edge4" class="edge">
<title>node_15&#45;&gt;node_12</title>
<path fill="none" stroke="#000000" d="M407.3233,-169.4579C359.3563,-158.864 276.0252,-140.4595 211.4173,-126.1903"/>
<polygon fill="#000000" stroke="#000000" points="212.1423,-122.7662 201.6228,-124.0271 210.6326,-129.6015 212.1423,-122.7662"/>
</g>
<!-- node_15&#45;&gt;node_13 -->
<g id="edge5" class="edge">
<title>node_15&#45;&gt;node_13</title>
<path fill="none" stroke="#000000" d="M409.9151,-159.8314C391.2011,-150.4089 368.1568,-138.8062 348.26,-128.7883"/>
<polygon fill="#000000" stroke="#000000" points="349.5792,-125.5339 339.0734,-124.1628 346.4311,-131.7861 349.5792,-125.5339"/>
</g>
<!-- node_15&#45;&gt;node_14 -->
<g id="edge6" class="edge">
<title>node_15&#45;&gt;node_14</title>
<path fill="none" stroke="#000000" d="M484.7102,-170.173C530.2099,-160.7709 608.1655,-144.0323 684.41,-124.0618"/>
<polygon fill="#000000" stroke="#000000" points="685.4057,-127.419 694.1808,-121.482 683.6187,-120.6509 685.4057,-127.419"/>
</g>
<!-- node_21 -->
<g id="node10" class="node">
<title>node_21</title>
<polygon fill="none" stroke="#000000" points="957.6544,-196 810.3456,-196 810.3456,-160 957.6544,-160 957.6544,-196"/>
<text text-anchor="middle" x="884" y="-173.8" font-family="Times,serif" font-size="14.00" fill="#000000">transmit testset&#45;&gt;Client</text>
</g>
<!-- node_21&#45;&gt;node_13 -->
<g id="edge24" class="edge">
<title>node_21&#45;&gt;node_13</title>
<path fill="none" stroke="#000000" stroke-dasharray="1,5" d="M810.1516,-160.6741C808.758,-160.4395 807.3731,-160.2144 806,-160 618.4636,-130.7209 565.2224,-155.2897 374.0514,-124.0025"/>
<polygon fill="#000000" stroke="#000000" points="374.3926,-120.5112 363.9532,-122.3193 373.2416,-127.4159 374.3926,-120.5112"/>
</g>
<!-- node_22 -->
<g id="node11" class="node">
<title>node_22</title>
<polygon fill="none" stroke="#000000" points="1128.8686,-196 975.1314,-196 975.1314,-160 1128.8686,-160 1128.8686,-196"/>
<text text-anchor="middle" x="1052" y="-173.8" font-family="Times,serif" font-size="14.00" fill="#000000">transmit trainset&#45;&gt;Client</text>
</g>
<!-- node_22&#45;&gt;node_17 -->
<g id="edge25" class="edge">
<title>node_22&#45;&gt;node_17</title>
<path fill="none" stroke="#000000" stroke-dasharray="1,5" d="M975.1686,-161.2678C972.4162,-160.8156 969.6869,-160.3908 967,-160 772.6086,-131.7265 717.9754,-155.2078 520.118,-124.0211"/>
<polygon fill="#000000" stroke="#000000" points="520.4016,-120.522 509.9736,-122.3944 519.2932,-127.4337 520.4016,-120.522"/>
</g>
<!-- node_0 -->
<g id="node12" class="node">
<title>node_0</title>
<polygon fill="none" stroke="#000000" points="1321.3686,-196 1146.6314,-196 1146.6314,-160 1321.3686,-160 1321.3686,-196"/>
<text text-anchor="middle" x="1234" y="-173.8" font-family="Times,serif" font-size="14.00" fill="#000000">transmit predictions&#45;&gt;Client</text>
</g>
<!-- node_0&#45;&gt;node_18 -->
<g id="edge20" class="edge">
<title>node_0&#45;&gt;node_18</title>
<path fill="none" stroke="#000000" stroke-dasharray="1,5" d="M1146.6856,-161.2221C1143.7588,-160.7896 1140.8575,-160.3803 1138,-160 941.0235,-133.7817 886.5526,-152.8329 686.5166,-124.116"/>
<polygon fill="#000000" stroke="#000000" points="686.9704,-120.6452 676.5701,-122.6662 685.9607,-127.572 686.9704,-120.6452"/>
</g>
<!-- node_10 -->
<g id="node22" class="node">
<title>node_10</title>
<polygon fill="none" stroke="#000000" points="1428.1485,-124 1221.8515,-124 1221.8515,-88 1428.1485,-88 1428.1485,-124"/>
<text text-anchor="middle" x="1325" y="-101.8" font-family="Times,serif" font-size="14.00" fill="#000000">FinishNode &amp;finished&amp;executor1</text>
</g>
<!-- node_0&#45;&gt;node_10 -->
<g id="edge15" class="edge">
<title>node_0&#45;&gt;node_10</title>
<path fill="none" stroke="#000000" d="M1256.9631,-159.8314C1268.1715,-150.9632 1281.8209,-140.1637 1293.9439,-130.5718"/>
<polygon fill="#000000" stroke="#000000" points="1296.3737,-133.1125 1302.0442,-124.1628 1292.0303,-127.6229 1296.3737,-133.1125"/>
</g>
<!-- node_1 -->
<g id="node13" class="node">
<title>node_1</title>
<polygon fill="none" stroke="#000000" points="1349.7386,-340 1228.2614,-340 1228.2614,-304 1349.7386,-304 1349.7386,-340"/>
<text text-anchor="middle" x="1289" y="-317.8" font-family="Times,serif" font-size="14.00" fill="#000000">s1::train([trainset])</text>
</g>
<!-- node_7 -->
<g id="node19" class="node">
<title>node_7</title>
<polygon fill="none" stroke="#000000" points="1538.095,-268 1283.905,-268 1283.905,-232 1538.095,-232 1538.095,-268"/>
<text text-anchor="middle" x="1411" y="-245.8" font-family="Times,serif" font-size="14.00" fill="#000000">predictions = s1::predict([FALSE, testset])</text>
</g>
<!-- node_1&#45;&gt;node_7 -->
<g id="edge10" class="edge">
<title>node_1&#45;&gt;node_7</title>
<path fill="none" stroke="#000000" d="M1319.7858,-303.8314C1335.3903,-294.6221 1354.524,-283.3301 1371.2303,-273.4706"/>
<polygon fill="#000000" stroke="#000000" points="1373.3909,-276.2596 1380.2241,-268.1628 1369.8331,-270.2312 1373.3909,-276.2596"/>
</g>
<!-- node_2 -->
<g id="node14" class="node">
<title>node_2</title>
<polygon fill="none" stroke="#000000" points="1463.11,-196 1338.89,-196 1338.89,-160 1463.11,-160 1463.11,-196"/>
<text text-anchor="middle" x="1401" y="-173.8" font-family="Times,serif" font-size="14.00" fill="#000000">transmit s1&#45;&gt;Client</text>
</g>
<!-- node_2&#45;&gt;node_14 -->
<g id="edge26" class="edge">
<title>node_2&#45;&gt;node_14</title>
<path fill="none" stroke="#000000" stroke-dasharray="1,5" d="M1338.7799,-161.6401C1335.8203,-161.0465 1332.8826,-160.4951 1330,-160 1139.4895,-127.2799 910.4968,-113.4287 803.9624,-108.4279"/>
<polygon fill="#000000" stroke="#000000" points="803.8833,-104.9207 793.7331,-107.9574 803.5617,-111.9133 803.8833,-104.9207"/>
</g>
<!-- node_2&#45;&gt;node_10 -->
<g id="edge12" class="edge">
<title>node_2&#45;&gt;node_10</title>
<path fill="none" stroke="#000000" d="M1381.822,-159.8314C1372.6412,-151.1337 1361.4994,-140.5783 1351.5224,-131.1265"/>
<polygon fill="#000000" stroke="#000000" points="1353.8385,-128.4995 1344.1719,-124.1628 1349.0243,-133.5811 1353.8385,-128.4995"/>
</g>
<!-- node_3 -->
<g id="node15" class="node">
<title>node_3</title>
<polygon fill="none" stroke="#000000" points="1493.9098,-340 1368.0902,-340 1368.0902,-304 1493.9098,-304 1493.9098,-340"/>
<text text-anchor="middle" x="1431" y="-317.8" font-family="Times,serif" font-size="14.00" fill="#000000">parse Bool: FALSE</text>
</g>
<!-- node_3&#45;&gt;node_7 -->
<g id="edge9" class="edge">
<title>node_3&#45;&gt;node_7</title>
<path fill="none" stroke="#000000" d="M1425.9532,-303.8314C1423.7906,-296.0463 1421.2147,-286.7729 1418.8152,-278.1347"/>
<polygon fill="#000000" stroke="#000000" points="1422.1636,-277.1117 1416.1148,-268.4133 1415.419,-278.9852 1422.1636,-277.1117"/>
</g>
<!-- node_4 -->
<g id="node16" class="node">
<title>node_4</title>
<polygon fill="none" stroke="#000000" points="1540.6623,-196 1481.3377,-196 1481.3377,-160 1540.6623,-160 1540.6623,-196"/>
<text text-anchor="middle" x="1511" y="-173.8" font-family="Times,serif" font-size="14.00" fill="#000000">store s1</text>
</g>
<!-- node_4&#45;&gt;node_10 -->
<g id="edge11" class="edge">
<title>node_4&#45;&gt;node_10</title>
<path fill="none" stroke="#000000" d="M1481.2982,-163.9928C1478.1738,-162.609 1475.032,-161.2542 1472,-160 1444.366,-148.5689 1413.3413,-136.9921 1386.941,-127.5049"/>
<polygon fill="#000000" stroke="#000000" points="1388.0332,-124.1785 1377.4386,-124.1083 1385.6771,-130.7701 1388.0332,-124.1785"/>
</g>
<!-- node_5 -->
<g id="node17" class="node">
<title>node_5</title>
<polygon fill="none" stroke="#000000" points="1745.2188,-412 1144.7812,-412 1144.7812,-376 1745.2188,-376 1745.2188,-412"/>
<text text-anchor="middle" x="1445" y="-389.8" font-family="Times,serif" font-size="14.00" fill="#000000">s1 = de.upb.sede.services.mls.WekaBClassifierWrapper::__construct([weka.classifiers.bayes.BayesNet])</text>
</g>
<!-- node_5&#45;&gt;node_1 -->
<g id="edge17" class="edge">
<title>node_5&#45;&gt;node_1</title>
<path fill="none" stroke="#000000" d="M1405.6346,-375.8314C1384.8633,-366.2446 1359.2017,-354.4008 1337.2419,-344.2655"/>
<polygon fill="#000000" stroke="#000000" points="1338.6286,-341.0508 1328.0823,-340.038 1335.6952,-347.4065 1338.6286,-341.0508"/>
</g>
<!-- node_6&#45;&gt;node_7 -->
<g id="edge8" class="edge">
<title>node_6&#45;&gt;node_7</title>
<path fill="none" stroke="#000000" d="M1620.7056,-303.9243C1581.3462,-293.8033 1532.1182,-281.1447 1491.2513,-270.6361"/>
<polygon fill="#000000" stroke="#000000" points="1491.8799,-267.1839 1481.3233,-268.0831 1490.1366,-273.9634 1491.8799,-267.1839"/>
</g>
<!-- node_7&#45;&gt;node_0 -->
<g id="edge13" class="edge">
<title>node_7&#45;&gt;node_0</title>
<path fill="none" stroke="#000000" d="M1366.3354,-231.8314C1342.4523,-222.1162 1312.871,-210.0831 1287.7372,-199.8592"/>
<polygon fill="#000000" stroke="#000000" points="1288.9252,-196.564 1278.3434,-196.038 1286.2875,-203.0481 1288.9252,-196.564"/>
</g>
<!-- node_7&#45;&gt;node_2 -->
<g id="edge16" class="edge">
<title>node_7&#45;&gt;node_2</title>
<path fill="none" stroke="#000000" d="M1408.4766,-231.8314C1407.4071,-224.131 1406.1353,-214.9743 1404.9468,-206.4166"/>
<polygon fill="#000000" stroke="#000000" points="1408.3999,-205.8367 1403.5574,-196.4133 1401.4664,-206.7997 1408.3999,-205.8367"/>
</g>
<!-- node_7&#45;&gt;node_4 -->
<g id="edge19" class="edge">
<title>node_7&#45;&gt;node_4</title>
<path fill="none" stroke="#000000" d="M1436.2342,-231.8314C1448.788,-222.7927 1464.1283,-211.7476 1477.6391,-202.0198"/>
<polygon fill="#000000" stroke="#000000" points="1479.7036,-204.8463 1485.7739,-196.1628 1475.6134,-199.1655 1479.7036,-204.8463"/>
</g>
<!-- node_8&#45;&gt;node_1 -->
<g id="edge14" class="edge">
<title>node_8&#45;&gt;node_1</title>
<path fill="none" stroke="#000000" d="M1762.9121,-376.8201C1759.9197,-376.5446 1756.9473,-376.271 1754,-376 1581.7147,-360.1564 1534.446,-369.6788 1359.9907,-340.0152"/>
<polygon fill="#000000" stroke="#000000" points="1360.4067,-336.5354 1349.9582,-338.2903 1359.2205,-343.4342 1360.4067,-336.5354"/>
</g>
<!-- node_9 -->
<g id="node21" class="node">
<title>node_9</title>
<polygon fill="none" stroke="#000000" points="1581.211,-484 1308.789,-484 1308.789,-448 1581.211,-448 1581.211,-484"/>
<text text-anchor="middle" x="1445" y="-461.8" font-family="Times,serif" font-size="14.00" fill="#000000">parse String: weka.classifiers.bayes.BayesNet</text>
</g>
<!-- node_9&#45;&gt;node_5 -->
<g id="edge18" class="edge">
<title>node_9&#45;&gt;node_5</title>
<path fill="none" stroke="#000000" d="M1445,-447.8314C1445,-440.131 1445,-430.9743 1445,-422.4166"/>
<polygon fill="#000000" stroke="#000000" points="1448.5001,-422.4132 1445,-412.4133 1441.5001,-422.4133 1448.5001,-422.4132"/>
</g>
<!-- node_10&#45;&gt;node_12 -->
<g id="edge21" class="edge">
<title>node_10&#45;&gt;node_12</title>
<path fill="none" stroke="#000000" stroke-dasharray="1,5" d="M1221.9093,-115.1135C1115.5614,-124.0249 944.8403,-136.9658 797,-142 550.4762,-150.3945 486.1324,-177.2678 242,-142 221.0587,-138.9748 198.7034,-133.1713 178.9259,-127.0929"/>
<polygon fill="#000000" stroke="#000000" points="179.7316,-123.677 169.1417,-124.0007 177.622,-130.3516 179.7316,-123.677"/>
</g>
<!-- node_11 -->
<g id="node23" class="node">
<title>node_11</title>
<polygon fill="none" stroke="#000000" points="1218,-484 1154.3022,-466 1218,-448 1281.6978,-466 1218,-484"/>
<text text-anchor="middle" x="1218" y="-461.8" font-family="Times,serif" font-size="14.00" fill="#000000">executor1</text>
</g>
</g>
</svg>
