<?xml version="1.0" encoding="UTF-8" standalone="no"?>
<!DOCTYPE svg PUBLIC "-//W3C//DTD SVG 1.1//EN"
 "http://www.w3.org/Graphics/SVG/1.1/DTD/svg11.dtd">
<!-- Generated by graphviz version 2.40.1 (20161225.0304)
 -->
<!-- Title: %3 Pages: 1 -->
<svg width="2943pt" height="580pt"
 viewBox="0.00 0.00 2943.01 580.00" xmlns="http://www.w3.org/2000/svg" xmlns:xlink="http://www.w3.org/1999/xlink">
<g id="graph0" class="graph" transform="scale(1 1) rotate(0) translate(4 576)">
<title>%3</title>
<polygon fill="#ffffff" stroke="transparent" points="-4,4 -4,-576 2939.01,-576 2939.01,4 -4,4"/>
<g id="clust1" class="cluster">
<title>cluster_1571692453</title>
<polygon fill="none" stroke="#000000" points="186.1289,-8 186.1289,-204 1327.1289,-204 1327.1289,-8 186.1289,-8"/>
</g>
<g id="clust2" class="cluster">
<title>cluster_848764024</title>
<polygon fill="none" stroke="#000000" points="1527.1289,-80 1527.1289,-564 2912.1289,-564 2912.1289,-80 1527.1289,-80"/>
</g>
<!-- node_53 -->
<g id="node1" class="node">
<title>node_53</title>
<polygon fill="none" stroke="#000000" points="178.3869,-196 -.1291,-196 -.1291,-160 178.3869,-160 178.3869,-196"/>
<text text-anchor="middle" x="89.1289" y="-173.8" font-family="Times,serif" font-size="14.00" fill="#000000">transmit indices_test&#45;&gt;Client</text>
</g>
<!-- node_51 -->
<g id="node6" class="node">
<title>node_51</title>
<polygon fill="none" stroke="#000000" points="346.4708,-124 193.787,-124 193.787,-88 346.4708,-88 346.4708,-124"/>
<text text-anchor="middle" x="270.1289" y="-101.8" font-family="Times,serif" font-size="14.00" fill="#000000">accept indices_test &#160;as is</text>
</g>
<!-- node_53&#45;&gt;node_51 -->
<g id="edge39" class="edge">
<title>node_53&#45;&gt;node_51</title>
<path fill="none" stroke="#000000" stroke-dasharray="1,5" d="M134.8028,-159.8314C159.2257,-150.1162 189.4755,-138.0831 215.1773,-127.8592"/>
<polygon fill="#000000" stroke="#000000" points="216.7853,-130.9864 224.7834,-124.038 214.1979,-124.4821 216.7853,-130.9864"/>
</g>
<!-- node_54 -->
<g id="node2" class="node">
<title>node_54</title>
<polygon fill="none" stroke="#000000" points="1519.6012,-196 1334.6566,-196 1334.6566,-160 1519.6012,-160 1519.6012,-196"/>
<text text-anchor="middle" x="1427.1289" y="-173.8" font-family="Times,serif" font-size="14.00" fill="#000000">transmit indices_train&#45;&gt;Client</text>
</g>
<!-- node_46 -->
<g id="node12" class="node">
<title>node_46</title>
<polygon fill="none" stroke="#000000" points="1034.6846,-124 875.5732,-124 875.5732,-88 1034.6846,-88 1034.6846,-124"/>
<text text-anchor="middle" x="955.1289" y="-101.8" font-family="Times,serif" font-size="14.00" fill="#000000">accept indices_train &#160;as is</text>
</g>
<!-- node_54&#45;&gt;node_46 -->
<g id="edge37" class="edge">
<title>node_54&#45;&gt;node_46</title>
<path fill="none" stroke="#000000" stroke-dasharray="1,5" d="M1334.6688,-160.56C1333.4821,-160.3701 1332.3017,-160.1833 1331.1289,-160 1207.3412,-140.6494 1172.7397,-144.5381 1045.2844,-124.12"/>
<polygon fill="#000000" stroke="#000000" points="1045.5619,-120.6193 1035.1307,-122.4738 1044.4416,-127.5291 1045.5619,-120.6193"/>
</g>
<!-- node_48 -->
<g id="node3" class="node">
<title>node_48</title>
<polygon fill="none" stroke="#000000" points="718.0811,-124 590.1767,-124 590.1767,-88 718.0811,-88 718.0811,-124"/>
<text text-anchor="middle" x="654.1289" y="-101.8" font-family="Times,serif" font-size="14.00" fill="#000000">accept trainset &#160;as is</text>
</g>
<!-- node_49 -->
<g id="node4" class="node">
<title>node_49</title>
<polygon fill="none" stroke="#000000" points="1318.8225,-124 1219.4354,-124 1219.4354,-88 1318.8225,-88 1318.8225,-124"/>
<text text-anchor="middle" x="1269.1289" y="-101.8" font-family="Times,serif" font-size="14.00" fill="#000000">accept s1 &#160;as is</text>
</g>
<!-- node_50 -->
<g id="node5" class="node">
<title>node_50</title>
<polygon fill="none" stroke="#000000" points="1201.5811,-124 1052.6768,-124 1052.6768,-88 1201.5811,-88 1201.5811,-124"/>
<text text-anchor="middle" x="1127.1289" y="-101.8" font-family="Times,serif" font-size="14.00" fill="#000000">accept predictions &#160;as is</text>
</g>
<!-- node_47 -->
<g id="node13" class="node">
<title>node_47</title>
<polygon fill="none" stroke="#000000" points="744.8595,-52 545.3983,-52 545.3983,-16 744.8595,-16 744.8595,-52"/>
<text text-anchor="middle" x="645.1289" y="-29.8" font-family="Times,serif" font-size="14.00" fill="#000000">transmit indices_test&#45;&gt;executor1</text>
</g>
<!-- node_51&#45;&gt;node_47 -->
<g id="edge7" class="edge">
<title>node_51&#45;&gt;node_47</title>
<path fill="none" stroke="#000000" d="M325.1512,-87.9485C335.0656,-85.0459 345.3557,-82.2582 355.1289,-80 414.1606,-66.36 480.8872,-55.4702 535.4397,-47.7169"/>
<polygon fill="#000000" stroke="#000000" points="536.0641,-51.1636 545.4796,-46.3057 535.0898,-44.2318 536.0641,-51.1636"/>
</g>
<!-- node_52 -->
<g id="node7" class="node">
<title>node_52</title>
<polygon fill="none" stroke="#000000" points="1047.1289,-196 1002.4017,-178 1047.1289,-160 1091.8561,-178 1047.1289,-196"/>
<text text-anchor="middle" x="1047.1289" y="-173.8" font-family="Times,serif" font-size="14.00" fill="#000000">Client</text>
</g>
<!-- node_42 -->
<g id="node8" class="node">
<title>node_42</title>
<polygon fill="none" stroke="#000000" points="572.1846,-124 364.0732,-124 364.0732,-88 572.1846,-88 572.1846,-124"/>
<text text-anchor="middle" x="468.1289" y="-101.8" font-family="Times,serif" font-size="14.00" fill="#000000">accept &amp;finished&amp;executor1 &#160;as is</text>
</g>
<!-- node_43 -->
<g id="node9" class="node">
<title>node_43</title>
<polygon fill="none" stroke="#000000" points="835.667,-196 758.5908,-196 758.5908,-160 835.667,-160 835.667,-196"/>
<text text-anchor="middle" x="797.1289" y="-173.8" font-family="Times,serif" font-size="14.00" fill="#000000">send graph</text>
</g>
<!-- node_43&#45;&gt;node_48 -->
<g id="edge3" class="edge">
<title>node_43&#45;&gt;node_48</title>
<path fill="none" stroke="#000000" d="M761.044,-159.8314C742.33,-150.4089 719.2857,-138.8062 699.389,-128.7883"/>
<polygon fill="#000000" stroke="#000000" points="700.7081,-125.5339 690.2023,-124.1628 697.5601,-131.7861 700.7081,-125.5339"/>
</g>
<!-- node_43&#45;&gt;node_49 -->
<g id="edge4" class="edge">
<title>node_43&#45;&gt;node_49</title>
<path fill="none" stroke="#000000" d="M835.929,-175.0906C907.8852,-169.2296 1066.8999,-154.0967 1209.5807,-123.9147"/>
<polygon fill="#000000" stroke="#000000" points="1210.3455,-127.3304 1219.3887,-121.8103 1208.877,-120.4861 1210.3455,-127.3304"/>
</g>
<!-- node_43&#45;&gt;node_50 -->
<g id="edge5" class="edge">
<title>node_43&#45;&gt;node_50</title>
<path fill="none" stroke="#000000" d="M835.9545,-169.529C886.4354,-158.5149 976.0002,-138.9735 1042.5086,-124.4626"/>
<polygon fill="#000000" stroke="#000000" points="1043.5364,-127.8208 1052.5604,-122.2695 1042.0442,-120.9817 1043.5364,-127.8208"/>
</g>
<!-- node_43&#45;&gt;node_51 -->
<g id="edge6" class="edge">
<title>node_43&#45;&gt;node_51</title>
<path fill="none" stroke="#000000" d="M758.5374,-174.4272C683.1864,-167.2049 511.0506,-149.4984 356.667,-124.1843"/>
<polygon fill="#000000" stroke="#000000" points="356.9622,-120.6857 346.5249,-122.506 355.8193,-127.5917 356.9622,-120.6857"/>
</g>
<!-- node_43&#45;&gt;node_42 -->
<g id="edge8" class="edge">
<title>node_43&#45;&gt;node_42</title>
<path fill="none" stroke="#000000" d="M758.421,-169.529C710.1126,-158.9569 625.9033,-140.5281 560.5822,-126.2329"/>
<polygon fill="#000000" stroke="#000000" points="561.1963,-122.7846 550.6793,-124.0657 559.6998,-129.6227 561.1963,-122.7846"/>
</g>
<!-- node_44 -->
<g id="node10" class="node">
<title>node_44</title>
<polygon fill="none" stroke="#000000" points="857.8675,-124 736.3903,-124 736.3903,-88 857.8675,-88 857.8675,-124"/>
<text text-anchor="middle" x="797.1289" y="-101.8" font-family="Times,serif" font-size="14.00" fill="#000000">accept testset &#160;as is</text>
</g>
<!-- node_43&#45;&gt;node_44 -->
<g id="edge1" class="edge">
<title>node_43&#45;&gt;node_44</title>
<path fill="none" stroke="#000000" d="M797.1289,-159.8314C797.1289,-152.131 797.1289,-142.9743 797.1289,-134.4166"/>
<polygon fill="#000000" stroke="#000000" points="800.629,-134.4132 797.1289,-124.4133 793.629,-134.4133 800.629,-134.4132"/>
</g>
<!-- node_43&#45;&gt;node_46 -->
<g id="edge2" class="edge">
<title>node_43&#45;&gt;node_46</title>
<path fill="none" stroke="#000000" d="M835.7801,-160.3868C857.0584,-150.6903 883.6753,-138.5612 906.3703,-128.2191"/>
<polygon fill="#000000" stroke="#000000" points="907.855,-131.3889 915.5034,-124.0572 904.9523,-125.0191 907.855,-131.3889"/>
</g>
<!-- node_45 -->
<g id="node11" class="node">
<title>node_45</title>
<polygon fill="none" stroke="#000000" points="1188.0737,-52 982.1841,-52 982.1841,-16 1188.0737,-16 1188.0737,-52"/>
<text text-anchor="middle" x="1085.1289" y="-29.8" font-family="Times,serif" font-size="14.00" fill="#000000">transmit indices_train&#45;&gt;executor1</text>
</g>
<!-- node_32 -->
<g id="node14" class="node">
<title>node_32</title>
<polygon fill="none" stroke="#000000" points="2524.6572,-484 2141.6006,-484 2141.6006,-448 2524.6572,-448 2524.6572,-484"/>
<text text-anchor="middle" x="2333.1289" y="-461.8" font-family="Times,serif" font-size="14.00" fill="#000000">accept indices_train cast indices_train from jsonlist to builtin.List</text>
</g>
<!-- node_45&#45;&gt;node_32 -->
<g id="edge33" class="edge">
<title>node_45&#45;&gt;node_32</title>
<path fill="none" stroke="#000000" stroke-dasharray="1,5" d="M1188.0569,-36.5921C1576.5845,-47.0438 2932.1289,-89.8274 2932.1289,-178 2932.1289,-322 2932.1289,-322 2932.1289,-322 2932.1289,-362.8816 2943.6531,-384.8047 2913.1289,-412 2911.3131,-413.6177 2702.0568,-432.8071 2535.4354,-447.8558"/>
<polygon fill="#000000" stroke="#000000" points="2534.6728,-444.4104 2525.028,-448.7954 2535.3022,-451.382 2534.6728,-444.4104"/>
</g>
<!-- node_46&#45;&gt;node_45 -->
<g id="edge9" class="edge">
<title>node_46&#45;&gt;node_45</title>
<path fill="none" stroke="#000000" d="M987.9334,-87.8314C1004.7152,-78.5368 1025.3274,-67.1208 1043.2452,-57.1971"/>
<polygon fill="#000000" stroke="#000000" points="1045.2828,-60.0696 1052.3349,-52.1628 1041.8912,-53.9461 1045.2828,-60.0696"/>
</g>
<!-- node_29 -->
<g id="node30" class="node">
<title>node_29</title>
<polygon fill="none" stroke="#000000" points="2285.2297,-412 1915.0281,-412 1915.0281,-376 2285.2297,-376 2285.2297,-412"/>
<text text-anchor="middle" x="2100.1289" y="-389.8" font-family="Times,serif" font-size="14.00" fill="#000000">accept indices_test cast indices_test from jsonlist to builtin.List</text>
</g>
<!-- node_47&#45;&gt;node_29 -->
<g id="edge40" class="edge">
<title>node_47&#45;&gt;node_29</title>
<path fill="none" stroke="#000000" stroke-dasharray="1,5" d="M744.8608,-40.0834C809.8465,-43.8967 896.4945,-48.6976 973.1289,-52 1171.7087,-60.5574 1670.5029,-50.9245 1867.1289,-80 2033.2897,-104.5706 2232.1289,-10.0323 2232.1289,-178 2232.1289,-250 2232.1289,-250 2232.1289,-250 2232.1289,-290.8816 2238.4045,-307.8682 2213.1289,-340 2202.5095,-353.5 2187.6841,-363.8102 2172.2595,-371.6139"/>
<polygon fill="#000000" stroke="#000000" points="2170.6825,-368.4879 2163.1357,-375.9241 2173.6726,-374.8172 2170.6825,-368.4879"/>
</g>
<!-- node_40 -->
<g id="node22" class="node">
<title>node_40</title>
<polygon fill="none" stroke="#000000" points="1896.7256,-412 1555.5322,-412 1555.5322,-376 1896.7256,-376 1896.7256,-412"/>
<text text-anchor="middle" x="1726.1289" y="-389.8" font-family="Times,serif" font-size="14.00" fill="#000000">trainset = dataset::fromIndicesLabeled([indices_train, &#45;1])</text>
</g>
<!-- node_32&#45;&gt;node_40 -->
<g id="edge23" class="edge">
<title>node_32&#45;&gt;node_40</title>
<path fill="none" stroke="#000000" d="M2181.132,-447.9707C2091.8583,-437.3814 1979.0632,-424.0021 1888.1136,-413.214"/>
<polygon fill="#000000" stroke="#000000" points="1888.3224,-409.7143 1877.9798,-412.012 1887.4978,-416.6656 1888.3224,-409.7143"/>
</g>
<!-- node_33 -->
<g id="node15" class="node">
<title>node_33</title>
<polygon fill="none" stroke="#000000" points="2007.7912,-196 1948.4666,-196 1948.4666,-160 2007.7912,-160 2007.7912,-196"/>
<text text-anchor="middle" x="1978.1289" y="-173.8" font-family="Times,serif" font-size="14.00" fill="#000000">store s1</text>
</g>
<!-- node_38 -->
<g id="node20" class="node">
<title>node_38</title>
<polygon fill="none" stroke="#000000" points="1858.2774,-124 1651.9804,-124 1651.9804,-88 1858.2774,-88 1858.2774,-124"/>
<text text-anchor="middle" x="1755.1289" y="-101.8" font-family="Times,serif" font-size="14.00" fill="#000000">FinishNode &amp;finished&amp;executor1</text>
</g>
<!-- node_33&#45;&gt;node_38 -->
<g id="edge18" class="edge">
<title>node_33&#45;&gt;node_38</title>
<path fill="none" stroke="#000000" d="M1948.5162,-168.439C1916.0912,-157.9699 1863.0747,-140.8525 1820.7452,-127.1855"/>
<polygon fill="#000000" stroke="#000000" points="1821.6545,-123.8013 1811.0628,-124.0594 1819.5037,-130.4627 1821.6545,-123.8013"/>
</g>
<!-- node_34 -->
<g id="node16" class="node">
<title>node_34</title>
<polygon fill="none" stroke="#000000" points="1920.298,-340 1591.9598,-340 1591.9598,-304 1920.298,-304 1920.298,-340"/>
<text text-anchor="middle" x="1756.1289" y="-317.8" font-family="Times,serif" font-size="14.00" fill="#000000">testset = dataset::fromIndicesLabeled([indices_test, &#45;1])</text>
</g>
<!-- node_36 -->
<g id="node18" class="node">
<title>node_36</title>
<polygon fill="none" stroke="#000000" points="1853.7833,-268 1706.4745,-268 1706.4745,-232 1853.7833,-232 1853.7833,-268"/>
<text text-anchor="middle" x="1780.1289" y="-245.8" font-family="Times,serif" font-size="14.00" fill="#000000">transmit testset&#45;&gt;Client</text>
</g>
<!-- node_34&#45;&gt;node_36 -->
<g id="edge12" class="edge">
<title>node_34&#45;&gt;node_36</title>
<path fill="none" stroke="#000000" d="M1762.1851,-303.8314C1764.7801,-296.0463 1767.8713,-286.7729 1770.7507,-278.1347"/>
<polygon fill="#000000" stroke="#000000" points="1774.1492,-279.0069 1773.9912,-268.4133 1767.5084,-276.7933 1774.1492,-279.0069"/>
</g>
<!-- node_27 -->
<g id="node28" class="node">
<title>node_27</title>
<polygon fill="none" stroke="#000000" points="2126.224,-268 1872.0339,-268 1872.0339,-232 2126.224,-232 2126.224,-268"/>
<text text-anchor="middle" x="1999.1289" y="-245.8" font-family="Times,serif" font-size="14.00" fill="#000000">predictions = s1::predict([FALSE, testset])</text>
</g>
<!-- node_34&#45;&gt;node_27 -->
<g id="edge30" class="edge">
<title>node_34&#45;&gt;node_27</title>
<path fill="none" stroke="#000000" d="M1817.1344,-303.9243C1850.9317,-293.9103 1893.1133,-281.412 1928.3551,-270.97"/>
<polygon fill="#000000" stroke="#000000" points="1929.5047,-274.2799 1938.0983,-268.0831 1927.516,-267.5683 1929.5047,-274.2799"/>
</g>
<!-- node_35 -->
<g id="node17" class="node">
<title>node_35</title>
<polygon fill="none" stroke="#000000" points="1908.2389,-196 1784.0189,-196 1784.0189,-160 1908.2389,-160 1908.2389,-196"/>
<text text-anchor="middle" x="1846.1289" y="-173.8" font-family="Times,serif" font-size="14.00" fill="#000000">transmit s1&#45;&gt;Client</text>
</g>
<!-- node_35&#45;&gt;node_49 -->
<g id="edge41" class="edge">
<title>node_35&#45;&gt;node_49</title>
<path fill="none" stroke="#000000" stroke-dasharray="1,5" d="M1783.9744,-167.4107C1768.072,-164.8418 1750.9851,-162.2032 1735.1289,-160 1589.6349,-139.7839 1417.8469,-121.25 1329.0317,-112.0625"/>
<polygon fill="#000000" stroke="#000000" points="1329.1853,-108.5598 1318.879,-111.0156 1328.4673,-115.5229 1329.1853,-108.5598"/>
</g>
<!-- node_35&#45;&gt;node_38 -->
<g id="edge15" class="edge">
<title>node_35&#45;&gt;node_38</title>
<path fill="none" stroke="#000000" d="M1823.1658,-159.8314C1811.9574,-150.9632 1798.308,-140.1637 1786.185,-130.5718"/>
<polygon fill="#000000" stroke="#000000" points="1788.0986,-127.6229 1778.0847,-124.1628 1783.7552,-133.1125 1788.0986,-127.6229"/>
</g>
<!-- node_36&#45;&gt;node_44 -->
<g id="edge36" class="edge">
<title>node_36&#45;&gt;node_44</title>
<path fill="none" stroke="#000000" stroke-dasharray="1,5" d="M1706.4619,-233.3158C1703.6538,-232.8431 1700.8689,-232.4018 1698.1289,-232 1534.0824,-207.9436 1488.749,-236.3213 1326.1289,-204 1264.6475,-191.7804 1253.388,-173.2893 1192.1289,-160 1052.8725,-129.7904 1011.3329,-149.5338 868.0169,-124.2031"/>
<polygon fill="#000000" stroke="#000000" points="868.4381,-120.7225 857.9744,-122.3845 867.1906,-127.6105 868.4381,-120.7225"/>
</g>
<!-- node_36&#45;&gt;node_38 -->
<g id="edge13" class="edge">
<title>node_36&#45;&gt;node_38</title>
<path fill="none" stroke="#000000" d="M1776.9626,-231.7623C1772.6797,-207.0928 1765.0004,-162.8598 1759.9853,-133.9731"/>
<polygon fill="#000000" stroke="#000000" points="1763.4285,-133.3435 1758.2695,-124.0896 1756.5317,-134.541 1763.4285,-133.3435"/>
</g>
<!-- node_37 -->
<g id="node19" class="node">
<title>node_37</title>
<polygon fill="none" stroke="#000000" points="1688.9975,-268 1535.2603,-268 1535.2603,-232 1688.9975,-232 1688.9975,-268"/>
<text text-anchor="middle" x="1612.1289" y="-245.8" font-family="Times,serif" font-size="14.00" fill="#000000">transmit trainset&#45;&gt;Client</text>
</g>
<!-- node_37&#45;&gt;node_48 -->
<g id="edge38" class="edge">
<title>node_37&#45;&gt;node_48</title>
<path fill="none" stroke="#000000" stroke-dasharray="1,5" d="M1535.3217,-243.4667C1462.6488,-236.4939 1350.7626,-223.707 1255.1289,-204 1185.4105,-189.6333 1171.0695,-173.2429 1101.1289,-160 940.2583,-129.5398 893.5596,-151.1808 728.1409,-124.0185"/>
<polygon fill="#000000" stroke="#000000" points="728.5534,-120.5389 718.1121,-122.3364 727.3954,-127.4424 728.5534,-120.5389"/>
</g>
<!-- node_37&#45;&gt;node_38 -->
<g id="edge11" class="edge">
<title>node_37&#45;&gt;node_38</title>
<path fill="none" stroke="#000000" d="M1688.8416,-234.7083C1706.2064,-227.9198 1723.0579,-218.1259 1735.1289,-204 1751.5346,-184.8015 1755.755,-155.7892 1756.3403,-134.3089"/>
<polygon fill="#000000" stroke="#000000" points="1759.8406,-134.1595 1756.3669,-124.1503 1752.8406,-134.1411 1759.8406,-134.1595"/>
</g>
<!-- node_38&#45;&gt;node_42 -->
<g id="edge35" class="edge">
<title>node_38&#45;&gt;node_42</title>
<path fill="none" stroke="#000000" stroke-dasharray="1,5" d="M1652.0433,-116.992C1564.409,-125.7552 1435.1811,-137.3085 1322.1289,-142 1159.6021,-148.7447 751.1243,-165.2577 590.1289,-142 569.1876,-138.9748 546.8323,-133.1713 527.0548,-127.0929"/>
<polygon fill="#000000" stroke="#000000" points="527.8605,-123.677 517.2706,-124.0007 525.7509,-130.3516 527.8605,-123.677"/>
</g>
<!-- node_39 -->
<g id="node21" class="node">
<title>node_39</title>
<polygon fill="none" stroke="#000000" points="2904.3477,-412 2303.9101,-412 2303.9101,-376 2904.3477,-376 2904.3477,-412"/>
<text text-anchor="middle" x="2604.1289" y="-389.8" font-family="Times,serif" font-size="14.00" fill="#000000">s1 = de.upb.sede.services.mls.WekaBClassifierWrapper::__construct([weka.classifiers.bayes.BayesNet])</text>
</g>
<!-- node_26 -->
<g id="node27" class="node">
<title>node_26</title>
<polygon fill="none" stroke="#000000" points="2059.8675,-340 1938.3903,-340 1938.3903,-304 2059.8675,-304 2059.8675,-340"/>
<text text-anchor="middle" x="1999.1289" y="-317.8" font-family="Times,serif" font-size="14.00" fill="#000000">s1::train([trainset])</text>
</g>
<!-- node_39&#45;&gt;node_26 -->
<g id="edge28" class="edge">
<title>node_39&#45;&gt;node_26</title>
<path fill="none" stroke="#000000" d="M2346.899,-375.97C2261.395,-367.948 2165.6722,-356.7817 2069.9547,-340.0034"/>
<polygon fill="#000000" stroke="#000000" points="2070.5508,-336.5546 2060.0933,-338.2548 2069.3286,-343.4471 2070.5508,-336.5546"/>
</g>
<!-- node_40&#45;&gt;node_34 -->
<g id="edge31" class="edge">
<title>node_40&#45;&gt;node_34</title>
<path fill="none" stroke="#000000" d="M1733.6992,-375.8314C1736.9782,-367.9617 1740.8909,-358.5712 1744.5234,-349.8533"/>
<polygon fill="#000000" stroke="#000000" points="1747.8413,-350.9902 1748.4567,-340.4133 1741.3797,-348.2979 1747.8413,-350.9902"/>
</g>
<!-- node_40&#45;&gt;node_37 -->
<g id="edge32" class="edge">
<title>node_40&#45;&gt;node_37</title>
<path fill="none" stroke="#000000" d="M1656.779,-375.9268C1624.9733,-366.0984 1592.2964,-353.2612 1583.1289,-340 1569.9931,-320.9985 1580.0599,-295.6939 1591.7905,-276.7565"/>
<polygon fill="#000000" stroke="#000000" points="1594.7959,-278.5574 1597.4036,-268.2885 1588.9613,-274.6899 1594.7959,-278.5574"/>
</g>
<!-- node_40&#45;&gt;node_26 -->
<g id="edge27" class="edge">
<title>node_40&#45;&gt;node_26</title>
<path fill="none" stroke="#000000" d="M1794.666,-375.9243C1835.4621,-365.1649 1887.1322,-351.5376 1928.3223,-340.6743"/>
<polygon fill="#000000" stroke="#000000" points="1929.239,-344.0523 1938.0158,-338.1178 1927.4538,-337.2837 1929.239,-344.0523"/>
</g>
<!-- node_41 -->
<g id="node23" class="node">
<title>node_41</title>
<polygon fill="none" stroke="#000000" points="2447.1289,-556 2383.4311,-538 2447.1289,-520 2510.8267,-538 2447.1289,-556"/>
<text text-anchor="middle" x="2447.1289" y="-533.8" font-family="Times,serif" font-size="14.00" fill="#000000">executor1</text>
</g>
<!-- node_23 -->
<g id="node24" class="node">
<title>node_23</title>
<polygon fill="none" stroke="#000000" points="2204.0388,-340 2078.2191,-340 2078.2191,-304 2204.0388,-304 2204.0388,-340"/>
<text text-anchor="middle" x="2141.1289" y="-317.8" font-family="Times,serif" font-size="14.00" fill="#000000">parse Bool: FALSE</text>
</g>
<!-- node_23&#45;&gt;node_27 -->
<g id="edge16" class="edge">
<title>node_23&#45;&gt;node_27</title>
<path fill="none" stroke="#000000" d="M2105.2963,-303.8314C2086.7132,-294.4089 2063.83,-282.8062 2044.0724,-272.7883"/>
<polygon fill="#000000" stroke="#000000" points="2045.4519,-269.5635 2034.95,-268.1628 2042.2862,-275.8069 2045.4519,-269.5635"/>
</g>
<!-- node_24 -->
<g id="node25" class="node">
<title>node_24</title>
<polygon fill="none" stroke="#000000" points="2123.3351,-484 1666.9228,-484 1666.9228,-448 2123.3351,-448 2123.3351,-484"/>
<text text-anchor="middle" x="1895.1289" y="-461.8" font-family="Times,serif" font-size="14.00" fill="#000000">dataset = de.upb.sede.services.mls.DataSetService::__construct([weather.arff])</text>
</g>
<!-- node_24&#45;&gt;node_40 -->
<g id="edge26" class="edge">
<title>node_24&#45;&gt;node_40</title>
<path fill="none" stroke="#000000" d="M1852.4831,-447.8314C1829.7799,-438.159 1801.6838,-426.1891 1777.7547,-415.9944"/>
<polygon fill="#000000" stroke="#000000" points="1779.0398,-412.7376 1768.4681,-412.038 1776.2961,-419.1775 1779.0398,-412.7376"/>
</g>
<!-- node_25 -->
<g id="node26" class="node">
<title>node_25</title>
<polygon fill="none" stroke="#000000" points="2815.3399,-484 2542.9179,-484 2542.9179,-448 2815.3399,-448 2815.3399,-484"/>
<text text-anchor="middle" x="2679.1289" y="-461.8" font-family="Times,serif" font-size="14.00" fill="#000000">parse String: weka.classifiers.bayes.BayesNet</text>
</g>
<!-- node_25&#45;&gt;node_39 -->
<g id="edge25" class="edge">
<title>node_25&#45;&gt;node_39</title>
<path fill="none" stroke="#000000" d="M2660.2032,-447.8314C2651.1432,-439.1337 2640.148,-428.5783 2630.3024,-419.1265"/>
<polygon fill="#000000" stroke="#000000" points="2632.6863,-416.5633 2623.0485,-412.1628 2627.8385,-421.613 2632.6863,-416.5633"/>
</g>
<!-- node_26&#45;&gt;node_27 -->
<g id="edge10" class="edge">
<title>node_26&#45;&gt;node_27</title>
<path fill="none" stroke="#000000" d="M1999.1289,-303.8314C1999.1289,-296.131 1999.1289,-286.9743 1999.1289,-278.4166"/>
<polygon fill="#000000" stroke="#000000" points="2002.629,-278.4132 1999.1289,-268.4133 1995.629,-278.4133 2002.629,-278.4132"/>
</g>
<!-- node_27&#45;&gt;node_33 -->
<g id="edge19" class="edge">
<title>node_27&#45;&gt;node_33</title>
<path fill="none" stroke="#000000" d="M1993.8297,-231.8314C1991.5591,-224.0463 1988.8543,-214.7729 1986.3349,-206.1347"/>
<polygon fill="#000000" stroke="#000000" points="1989.6595,-205.0332 1983.4994,-196.4133 1982.9395,-206.9933 1989.6595,-205.0332"/>
</g>
<!-- node_27&#45;&gt;node_35 -->
<g id="edge21" class="edge">
<title>node_27&#45;&gt;node_35</title>
<path fill="none" stroke="#000000" d="M1960.5205,-231.8314C1940.2396,-222.2874 1915.2051,-210.5065 1893.7318,-200.4013"/>
<polygon fill="#000000" stroke="#000000" points="1894.9981,-197.1291 1884.4596,-196.038 1892.0175,-203.4629 1894.9981,-197.1291"/>
</g>
<!-- node_30 -->
<g id="node31" class="node">
<title>node_30</title>
<polygon fill="none" stroke="#000000" points="1726.4975,-196 1551.7604,-196 1551.7604,-160 1726.4975,-160 1726.4975,-196"/>
<text text-anchor="middle" x="1639.1289" y="-173.8" font-family="Times,serif" font-size="14.00" fill="#000000">transmit predictions&#45;&gt;Client</text>
</g>
<!-- node_27&#45;&gt;node_30 -->
<g id="edge14" class="edge">
<title>node_27&#45;&gt;node_30</title>
<path fill="none" stroke="#000000" d="M1908.7504,-231.9243C1856.2022,-221.4147 1789.9727,-208.1688 1736.305,-197.4352"/>
<polygon fill="#000000" stroke="#000000" points="1736.9286,-193.9907 1726.4364,-195.4615 1735.5557,-200.8548 1736.9286,-193.9907"/>
</g>
<!-- node_28 -->
<g id="node29" class="node">
<title>node_28</title>
<polygon fill="none" stroke="#000000" points="1649.0947,-484 1535.1631,-484 1535.1631,-448 1649.0947,-448 1649.0947,-484"/>
<text text-anchor="middle" x="1592.1289" y="-461.8" font-family="Times,serif" font-size="14.00" fill="#000000">parse Number: &#45;1</text>
</g>
<!-- node_28&#45;&gt;node_34 -->
<g id="edge20" class="edge">
<title>node_28&#45;&gt;node_34</title>
<path fill="none" stroke="#000000" d="M1571.3882,-447.9463C1552.0436,-428.9099 1528.6023,-398.6037 1546.1289,-376 1557.1457,-361.7919 1589.1777,-350.6686 1625.0085,-342.3062"/>
<polygon fill="#000000" stroke="#000000" points="1626.2093,-345.6239 1635.2011,-340.0205 1624.6775,-338.7935 1626.2093,-345.6239"/>
</g>
<!-- node_28&#45;&gt;node_40 -->
<g id="edge24" class="edge">
<title>node_28&#45;&gt;node_40</title>
<path fill="none" stroke="#000000" d="M1625.9428,-447.8314C1643.3996,-438.4516 1664.8776,-426.9112 1683.4641,-416.9244"/>
<polygon fill="#000000" stroke="#000000" points="1685.1735,-419.9792 1692.3259,-412.1628 1681.8603,-413.8129 1685.1735,-419.9792"/>
</g>
<!-- node_29&#45;&gt;node_34 -->
<g id="edge17" class="edge">
<title>node_29&#45;&gt;node_34</title>
<path fill="none" stroke="#000000" d="M2013.7672,-375.9243C1964.6025,-365.634 1902.9045,-352.7205 1852.2124,-342.1105"/>
<polygon fill="#000000" stroke="#000000" points="1852.7327,-338.6436 1842.2277,-340.0207 1851.2986,-345.4952 1852.7327,-338.6436"/>
</g>
<!-- node_30&#45;&gt;node_50 -->
<g id="edge34" class="edge">
<title>node_30&#45;&gt;node_50</title>
<path fill="none" stroke="#000000" stroke-dasharray="1,5" d="M1551.9343,-163.4546C1543.8936,-162.2358 1535.865,-161.0645 1528.1289,-160 1390.5231,-141.0649 1352.2559,-146.8121 1211.9954,-124.2234"/>
<polygon fill="#000000" stroke="#000000" points="1212.1506,-120.7025 1201.7176,-122.5473 1211.0239,-127.6113 1212.1506,-120.7025"/>
</g>
<!-- node_30&#45;&gt;node_38 -->
<g id="edge22" class="edge">
<title>node_30&#45;&gt;node_38</title>
<path fill="none" stroke="#000000" d="M1668.4006,-159.8314C1683.2377,-150.6221 1701.4304,-139.3301 1717.3151,-129.4706"/>
<polygon fill="#000000" stroke="#000000" points="1719.2159,-132.4102 1725.8666,-124.1628 1715.5244,-126.4628 1719.2159,-132.4102"/>
</g>
<!-- node_31 -->
<g id="node32" class="node">
<title>node_31</title>
<polygon fill="none" stroke="#000000" points="1973.7768,-556 1816.4811,-556 1816.4811,-520 1973.7768,-520 1973.7768,-556"/>
<text text-anchor="middle" x="1895.1289" y="-533.8" font-family="Times,serif" font-size="14.00" fill="#000000">parse String: weather.arff</text>
</g>
<!-- node_31&#45;&gt;node_24 -->
<g id="edge29" class="edge">
<title>node_31&#45;&gt;node_24</title>
<path fill="none" stroke="#000000" d="M1895.1289,-519.8314C1895.1289,-512.131 1895.1289,-502.9743 1895.1289,-494.4166"/>
<polygon fill="#000000" stroke="#000000" points="1898.629,-494.4132 1895.1289,-484.4133 1891.629,-494.4133 1898.629,-494.4132"/>
</g>
</g>
</svg>
