<?xml version="1.0" encoding="UTF-8" standalone="no"?>
<!DOCTYPE svg PUBLIC "-//W3C//DTD SVG 1.1//EN"
 "http://www.w3.org/Graphics/SVG/1.1/DTD/svg11.dtd">
<!-- Generated by graphviz version 2.40.1 (20161225.0304)
 -->
<!-- Title: %3 Pages: 1 -->
<svg width="2216pt" height="508pt"
 viewBox="0.00 0.00 2216.00 508.00" xmlns="http://www.w3.org/2000/svg" xmlns:xlink="http://www.w3.org/1999/xlink">
<g id="graph0" class="graph" transform="scale(1 1) rotate(0) translate(4 504)">
<title>%3</title>
<polygon fill="#ffffff" stroke="transparent" points="-4,4 -4,-504 2212,-504 2212,4 -4,4"/>
<g id="clust1" class="cluster">
<title>cluster_427719934</title>
<polygon fill="none" stroke="#000000" points="1020,-8 1020,-204 1815,-204 1815,-8 1020,-8"/>
</g>
<g id="clust2" class="cluster">
<title>cluster_1786596913</title>
<polygon fill="none" stroke="#000000" points="8,-80 8,-492 1012,-492 1012,-80 8,-80"/>
</g>
<!-- node_16 -->
<g id="node1" class="node">
<title>node_16</title>
<polygon fill="none" stroke="#000000" points="1806.9522,-124 1679.0478,-124 1679.0478,-88 1806.9522,-88 1806.9522,-124"/>
<text text-anchor="middle" x="1743" y="-101.8" font-family="Times,serif" font-size="14.00" fill="#000000">accept trainset &#160;as is</text>
</g>
<!-- node_13 -->
<g id="node7" class="node">
<title>node_13</title>
<polygon fill="none" stroke="#000000" points="1807.3412,-52 1632.6588,-52 1632.6588,-16 1807.3412,-16 1807.3412,-52"/>
<text text-anchor="middle" x="1720" y="-29.8" font-family="Times,serif" font-size="14.00" fill="#000000">transmit trainset&#45;&gt;executor1</text>
</g>
<!-- node_16&#45;&gt;node_13 -->
<g id="edge4" class="edge">
<title>node_16&#45;&gt;node_13</title>
<path fill="none" stroke="#000000" d="M1737.1961,-87.8314C1734.7092,-80.0463 1731.7469,-70.7729 1728.9875,-62.1347"/>
<polygon fill="#000000" stroke="#000000" points="1732.2591,-60.874 1725.882,-52.4133 1725.591,-63.0041 1732.2591,-60.874"/>
</g>
<!-- node_17 -->
<g id="node2" class="node">
<title>node_17</title>
<polygon fill="none" stroke="#000000" points="1294.4522,-124 1145.5478,-124 1145.5478,-88 1294.4522,-88 1294.4522,-124"/>
<text text-anchor="middle" x="1220" y="-101.8" font-family="Times,serif" font-size="14.00" fill="#000000">accept predictions &#160;as is</text>
</g>
<!-- node_18 -->
<g id="node3" class="node">
<title>node_18</title>
<polygon fill="none" stroke="#000000" points="1521.0557,-124 1312.9443,-124 1312.9443,-88 1521.0557,-88 1521.0557,-124"/>
<text text-anchor="middle" x="1417" y="-101.8" font-family="Times,serif" font-size="14.00" fill="#000000">accept &amp;finished&amp;executor1 &#160;as is</text>
</g>
<!-- node_19 -->
<g id="node4" class="node">
<title>node_19</title>
<polygon fill="none" stroke="#000000" points="1455.5381,-196 1378.4619,-196 1378.4619,-160 1455.5381,-160 1455.5381,-196"/>
<text text-anchor="middle" x="1417" y="-173.8" font-family="Times,serif" font-size="14.00" fill="#000000">send graph</text>
</g>
<!-- node_19&#45;&gt;node_16 -->
<g id="edge5" class="edge">
<title>node_19&#45;&gt;node_16</title>
<path fill="none" stroke="#000000" d="M1455.6598,-170.1427C1503.4167,-160.3496 1587.3898,-142.848 1668.9955,-124.1979"/>
<polygon fill="#000000" stroke="#000000" points="1669.9689,-127.5656 1678.9331,-121.9182 1668.4037,-120.7428 1669.9689,-127.5656"/>
</g>
<!-- node_19&#45;&gt;node_17 -->
<g id="edge6" class="edge">
<title>node_19&#45;&gt;node_17</title>
<path fill="none" stroke="#000000" d="M1378.0791,-163.7751C1349.8288,-153.4501 1311.105,-139.2973 1279.0553,-127.5837"/>
<polygon fill="#000000" stroke="#000000" points="1279.9359,-124.1791 1269.342,-124.0336 1277.5329,-130.7538 1279.9359,-124.1791"/>
</g>
<!-- node_19&#45;&gt;node_18 -->
<g id="edge7" class="edge">
<title>node_19&#45;&gt;node_18</title>
<path fill="none" stroke="#000000" d="M1417,-159.8314C1417,-152.131 1417,-142.9743 1417,-134.4166"/>
<polygon fill="#000000" stroke="#000000" points="1420.5001,-134.4132 1417,-124.4133 1413.5001,-134.4133 1420.5001,-134.4132"/>
</g>
<!-- node_14 -->
<g id="node8" class="node">
<title>node_14</title>
<polygon fill="none" stroke="#000000" points="1127.6935,-124 1028.3065,-124 1028.3065,-88 1127.6935,-88 1127.6935,-124"/>
<text text-anchor="middle" x="1078" y="-101.8" font-family="Times,serif" font-size="14.00" fill="#000000">accept s1 &#160;as is</text>
</g>
<!-- node_19&#45;&gt;node_14 -->
<g id="edge1" class="edge">
<title>node_19&#45;&gt;node_14</title>
<path fill="none" stroke="#000000" d="M1378.2206,-171.8534C1325.7699,-163.2487 1229.1782,-146.3756 1137.5026,-123.9915"/>
<polygon fill="#000000" stroke="#000000" points="1138.3377,-120.5926 1127.7903,-121.5945 1136.6603,-127.3887 1138.3377,-120.5926"/>
</g>
<!-- node_15 -->
<g id="node9" class="node">
<title>node_15</title>
<polygon fill="none" stroke="#000000" points="1660.7386,-124 1539.2614,-124 1539.2614,-88 1660.7386,-88 1660.7386,-124"/>
<text text-anchor="middle" x="1600" y="-101.8" font-family="Times,serif" font-size="14.00" fill="#000000">accept testset &#160;as is</text>
</g>
<!-- node_19&#45;&gt;node_15 -->
<g id="edge2" class="edge">
<title>node_19&#45;&gt;node_15</title>
<path fill="none" stroke="#000000" d="M1455.8096,-162.7307C1481.6374,-152.5689 1515.9619,-139.0642 1544.6419,-127.7802"/>
<polygon fill="#000000" stroke="#000000" points="1546.1071,-130.965 1554.1313,-124.0467 1543.5442,-124.451 1546.1071,-130.965"/>
</g>
<!-- node_20 -->
<g id="node5" class="node">
<title>node_20</title>
<polygon fill="none" stroke="#000000" points="1195,-196 1150.2728,-178 1195,-160 1239.7272,-178 1195,-196"/>
<text text-anchor="middle" x="1195" y="-173.8" font-family="Times,serif" font-size="14.00" fill="#000000">Client</text>
</g>
<!-- node_12 -->
<g id="node6" class="node">
<title>node_12</title>
<polygon fill="none" stroke="#000000" points="1615.127,-52 1446.873,-52 1446.873,-16 1615.127,-16 1615.127,-52"/>
<text text-anchor="middle" x="1531" y="-29.8" font-family="Times,serif" font-size="14.00" fill="#000000">transmit testset&#45;&gt;executor1</text>
</g>
<!-- node_7 -->
<g id="node19" class="node">
<title>node_7</title>
<polygon fill="none" stroke="#000000" points="1003.6876,-340 646.3124,-340 646.3124,-304 1003.6876,-304 1003.6876,-340"/>
<text text-anchor="middle" x="825" y="-317.8" font-family="Times,serif" font-size="14.00" fill="#000000">accept testset cast testset from dataset to weka.core.Instances</text>
</g>
<!-- node_12&#45;&gt;node_7 -->
<g id="edge26" class="edge">
<title>node_12&#45;&gt;node_7</title>
<path fill="none" stroke="#000000" stroke-dasharray="1,5" d="M1615.1178,-50.4621C1618.1136,-50.9907 1621.0815,-51.505 1624,-52 1864.338,-92.7606 2315.5547,-24.1513 2151,-204 2075.8307,-286.1557 1362.3271,-311.4897 1014.2055,-318.9942"/>
<polygon fill="#000000" stroke="#000000" points="1013.9369,-315.499 1004.0136,-319.211 1014.0858,-322.4974 1013.9369,-315.499"/>
</g>
<!-- node_6 -->
<g id="node18" class="node">
<title>node_6</title>
<polygon fill="none" stroke="#000000" points="1004.1153,-412 633.8847,-412 633.8847,-376 1004.1153,-376 1004.1153,-412"/>
<text text-anchor="middle" x="819" y="-389.8" font-family="Times,serif" font-size="14.00" fill="#000000">accept trainset cast trainset from dataset to weka.core.Instances</text>
</g>
<!-- node_13&#45;&gt;node_6 -->
<g id="edge23" class="edge">
<title>node_13&#45;&gt;node_6</title>
<path fill="none" stroke="#000000" stroke-dasharray="1,5" d="M1807.2532,-39.4775C1922.9863,-47.3504 2115.9919,-62.8215 2144,-80 2188.3445,-107.1982 2208,-125.9791 2208,-178 2208,-250 2208,-250 2208,-250 2208,-309.2884 1396.7798,-362.0586 1014.2404,-383.647"/>
<polygon fill="#000000" stroke="#000000" points="1013.9539,-380.1575 1004.1664,-384.2139 1014.3473,-387.1465 1013.9539,-380.1575"/>
</g>
<!-- node_15&#45;&gt;node_12 -->
<g id="edge3" class="edge">
<title>node_15&#45;&gt;node_12</title>
<path fill="none" stroke="#000000" d="M1582.5884,-87.8314C1574.479,-79.3694 1564.6844,-69.1489 1555.818,-59.8971"/>
<polygon fill="#000000" stroke="#000000" points="1558.0921,-57.2115 1548.646,-52.4133 1553.0382,-62.0549 1558.0921,-57.2115"/>
</g>
<!-- node_21 -->
<g id="node10" class="node">
<title>node_21</title>
<polygon fill="none" stroke="#000000" points="1970.6544,-196 1823.3456,-196 1823.3456,-160 1970.6544,-160 1970.6544,-196"/>
<text text-anchor="middle" x="1897" y="-173.8" font-family="Times,serif" font-size="14.00" fill="#000000">transmit testset&#45;&gt;Client</text>
</g>
<!-- node_21&#45;&gt;node_15 -->
<g id="edge24" class="edge">
<title>node_21&#45;&gt;node_15</title>
<path fill="none" stroke="#000000" stroke-dasharray="1,5" d="M1823.3111,-160.8274C1781.2895,-150.9507 1727.3954,-138.1434 1670.8968,-124.2029"/>
<polygon fill="#000000" stroke="#000000" points="1671.6147,-120.7751 1661.0669,-121.7724 1669.9345,-127.5704 1671.6147,-120.7751"/>
</g>
<!-- node_22 -->
<g id="node11" class="node">
<title>node_22</title>
<polygon fill="none" stroke="#000000" points="2141.8686,-196 1988.1314,-196 1988.1314,-160 2141.8686,-160 2141.8686,-196"/>
<text text-anchor="middle" x="2065" y="-173.8" font-family="Times,serif" font-size="14.00" fill="#000000">transmit trainset&#45;&gt;Client</text>
</g>
<!-- node_22&#45;&gt;node_16 -->
<g id="edge25" class="edge">
<title>node_22&#45;&gt;node_16</title>
<path fill="none" stroke="#000000" stroke-dasharray="1,5" d="M1988.2821,-160.8457C1936.4878,-149.2644 1868.4868,-134.0592 1817.224,-122.5967"/>
<polygon fill="#000000" stroke="#000000" points="1817.7272,-119.1228 1807.2044,-120.3563 1816.1996,-125.9541 1817.7272,-119.1228"/>
</g>
<!-- node_0 -->
<g id="node12" class="node">
<title>node_0</title>
<polygon fill="none" stroke="#000000" points="483.7386,-340 362.2614,-340 362.2614,-304 483.7386,-304 483.7386,-340"/>
<text text-anchor="middle" x="423" y="-317.8" font-family="Times,serif" font-size="14.00" fill="#000000">s1::train([trainset])</text>
</g>
<!-- node_5 -->
<g id="node17" class="node">
<title>node_5</title>
<polygon fill="none" stroke="#000000" points="822.095,-268 567.905,-268 567.905,-232 822.095,-232 822.095,-268"/>
<text text-anchor="middle" x="695" y="-245.8" font-family="Times,serif" font-size="14.00" fill="#000000">predictions = s1::predict([FALSE, testset])</text>
</g>
<!-- node_0&#45;&gt;node_5 -->
<g id="edge11" class="edge">
<title>node_0&#45;&gt;node_5</title>
<path fill="none" stroke="#000000" d="M484.0421,-305.8418C523.4214,-295.4179 574.9942,-281.7662 617.2899,-270.5703"/>
<polygon fill="#000000" stroke="#000000" points="618.2234,-273.9439 626.9948,-268.0014 616.4321,-267.1769 618.2234,-273.9439"/>
</g>
<!-- node_1 -->
<g id="node13" class="node">
<title>node_1</title>
<polygon fill="none" stroke="#000000" points="627.9098,-340 502.0902,-340 502.0902,-304 627.9098,-304 627.9098,-340"/>
<text text-anchor="middle" x="565" y="-317.8" font-family="Times,serif" font-size="14.00" fill="#000000">parse Bool: FALSE</text>
</g>
<!-- node_1&#45;&gt;node_5 -->
<g id="edge8" class="edge">
<title>node_1&#45;&gt;node_5</title>
<path fill="none" stroke="#000000" d="M597.8045,-303.8314C614.5862,-294.5368 635.1985,-283.1208 653.1163,-273.1971"/>
<polygon fill="#000000" stroke="#000000" points="655.1538,-276.0696 662.206,-268.1628 651.7623,-269.9461 655.1538,-276.0696"/>
</g>
<!-- node_2 -->
<g id="node14" class="node">
<title>node_2</title>
<polygon fill="none" stroke="#000000" points="928.1485,-124 721.8515,-124 721.8515,-88 928.1485,-88 928.1485,-124"/>
<text text-anchor="middle" x="825" y="-101.8" font-family="Times,serif" font-size="14.00" fill="#000000">FinishNode &amp;finished&amp;executor1</text>
</g>
<!-- node_2&#45;&gt;node_18 -->
<g id="edge20" class="edge">
<title>node_2&#45;&gt;node_18</title>
<path fill="none" stroke="#000000" stroke-dasharray="1,5" d="M906.2936,-124.0219C942.4418,-131.1562 985.6427,-138.4861 1025,-142 1144.0819,-152.6319 1175.654,-158.9631 1294,-142 1315.199,-138.9614 1337.8444,-133.1188 1357.8519,-127.0102"/>
<polygon fill="#000000" stroke="#000000" points="1358.9501,-130.334 1367.444,-124.0012 1356.8549,-123.6549 1358.9501,-130.334"/>
</g>
<!-- node_3 -->
<g id="node15" class="node">
<title>node_3</title>
<polygon fill="none" stroke="#000000" points="669.6623,-196 610.3377,-196 610.3377,-160 669.6623,-160 669.6623,-196"/>
<text text-anchor="middle" x="640" y="-173.8" font-family="Times,serif" font-size="14.00" fill="#000000">store s1</text>
</g>
<!-- node_3&#45;&gt;node_2 -->
<g id="edge19" class="edge">
<title>node_3&#45;&gt;node_2</title>
<path fill="none" stroke="#000000" d="M669.7046,-163.9997C672.8285,-162.6146 675.9694,-161.2576 679,-160 706.567,-148.5609 737.5204,-136.9418 763.8082,-127.4269"/>
<polygon fill="#000000" stroke="#000000" points="765.0443,-130.7018 773.2671,-124.0208 762.6727,-124.1158 765.0443,-130.7018"/>
</g>
<!-- node_4 -->
<g id="node16" class="node">
<title>node_4</title>
<polygon fill="none" stroke="#000000" points="452.211,-484 179.789,-484 179.789,-448 452.211,-448 452.211,-484"/>
<text text-anchor="middle" x="316" y="-461.8" font-family="Times,serif" font-size="14.00" fill="#000000">parse String: weka.classifiers.bayes.BayesNet</text>
</g>
<!-- node_8 -->
<g id="node20" class="node">
<title>node_8</title>
<polygon fill="none" stroke="#000000" points="616.2188,-412 15.7812,-412 15.7812,-376 616.2188,-376 616.2188,-412"/>
<text text-anchor="middle" x="316" y="-389.8" font-family="Times,serif" font-size="14.00" fill="#000000">s1 = de.upb.sede.services.mls.WekaBClassifierWrapper::__construct([weka.classifiers.bayes.BayesNet])</text>
</g>
<!-- node_4&#45;&gt;node_8 -->
<g id="edge9" class="edge">
<title>node_4&#45;&gt;node_8</title>
<path fill="none" stroke="#000000" d="M316,-447.8314C316,-440.131 316,-430.9743 316,-422.4166"/>
<polygon fill="#000000" stroke="#000000" points="319.5001,-422.4132 316,-412.4133 312.5001,-422.4133 319.5001,-422.4132"/>
</g>
<!-- node_5&#45;&gt;node_3 -->
<g id="edge17" class="edge">
<title>node_5&#45;&gt;node_3</title>
<path fill="none" stroke="#000000" d="M681.1212,-231.8314C674.7864,-223.5386 667.1616,-213.557 660.2074,-204.4533"/>
<polygon fill="#000000" stroke="#000000" points="662.9175,-202.2353 654.0657,-196.4133 657.3548,-206.4847 662.9175,-202.2353"/>
</g>
<!-- node_9 -->
<g id="node21" class="node">
<title>node_9</title>
<polygon fill="none" stroke="#000000" points="812.11,-196 687.89,-196 687.89,-160 812.11,-160 812.11,-196"/>
<text text-anchor="middle" x="750" y="-173.8" font-family="Times,serif" font-size="14.00" fill="#000000">transmit s1&#45;&gt;Client</text>
</g>
<!-- node_5&#45;&gt;node_9 -->
<g id="edge10" class="edge">
<title>node_5&#45;&gt;node_9</title>
<path fill="none" stroke="#000000" d="M708.8788,-231.8314C715.2136,-223.5386 722.8384,-213.557 729.7926,-204.4533"/>
<polygon fill="#000000" stroke="#000000" points="732.6452,-206.4847 735.9343,-196.4133 727.0825,-202.2353 732.6452,-206.4847"/>
</g>
<!-- node_10 -->
<g id="node22" class="node">
<title>node_10</title>
<polygon fill="none" stroke="#000000" points="1004.3686,-196 829.6314,-196 829.6314,-160 1004.3686,-160 1004.3686,-196"/>
<text text-anchor="middle" x="917" y="-173.8" font-family="Times,serif" font-size="14.00" fill="#000000">transmit predictions&#45;&gt;Client</text>
</g>
<!-- node_5&#45;&gt;node_10 -->
<g id="edge12" class="edge">
<title>node_5&#45;&gt;node_10</title>
<path fill="none" stroke="#000000" d="M750.7334,-231.9243C781.346,-221.9959 819.4881,-209.6255 851.5155,-199.2382"/>
<polygon fill="#000000" stroke="#000000" points="852.8112,-202.4975 861.2436,-196.0831 850.6516,-195.839 852.8112,-202.4975"/>
</g>
<!-- node_6&#45;&gt;node_0 -->
<g id="edge16" class="edge">
<title>node_6&#45;&gt;node_0</title>
<path fill="none" stroke="#000000" d="M694.2922,-375.9641C636.0964,-366.9113 565.7415,-355.065 494.1224,-340.1485"/>
<polygon fill="#000000" stroke="#000000" points="494.5155,-336.6548 484.0094,-338.0234 493.0759,-343.5051 494.5155,-336.6548"/>
</g>
<!-- node_7&#45;&gt;node_5 -->
<g id="edge18" class="edge">
<title>node_7&#45;&gt;node_5</title>
<path fill="none" stroke="#000000" d="M792.1955,-303.8314C775.4138,-294.5368 754.8015,-283.1208 736.8837,-273.1971"/>
<polygon fill="#000000" stroke="#000000" points="738.2377,-269.9461 727.794,-268.1628 734.8462,-276.0696 738.2377,-269.9461"/>
</g>
<!-- node_8&#45;&gt;node_0 -->
<g id="edge13" class="edge">
<title>node_8&#45;&gt;node_0</title>
<path fill="none" stroke="#000000" d="M343.0006,-375.8314C356.4331,-366.7927 372.8473,-355.7476 387.3039,-346.0198"/>
<polygon fill="#000000" stroke="#000000" points="389.6654,-348.6494 396.008,-340.1628 385.7575,-342.8418 389.6654,-348.6494"/>
</g>
<!-- node_9&#45;&gt;node_14 -->
<g id="edge21" class="edge">
<title>node_9&#45;&gt;node_14</title>
<path fill="none" stroke="#000000" stroke-dasharray="1,5" d="M812.2832,-161.9635C815.226,-161.2834 818.1428,-160.6252 821,-160 907.0941,-141.1609 930.2413,-144.3113 1016,-124 1016.8828,-123.7909 1017.7717,-123.5771 1018.6655,-123.359"/>
<polygon fill="#000000" stroke="#000000" points="1019.5467,-126.7463 1028.3708,-120.8823 1017.8158,-119.9637 1019.5467,-126.7463"/>
</g>
<!-- node_9&#45;&gt;node_2 -->
<g id="edge15" class="edge">
<title>node_9&#45;&gt;node_2</title>
<path fill="none" stroke="#000000" d="M768.9257,-159.8314C777.9857,-151.1337 788.9809,-140.5783 798.8265,-131.1265"/>
<polygon fill="#000000" stroke="#000000" points="801.2904,-133.613 806.0804,-124.1628 796.4426,-128.5633 801.2904,-133.613"/>
</g>
<!-- node_10&#45;&gt;node_17 -->
<g id="edge22" class="edge">
<title>node_10&#45;&gt;node_17</title>
<path fill="none" stroke="#000000" stroke-dasharray="1,5" d="M993.0686,-159.9243C1036.4201,-149.6229 1090.8349,-136.6927 1135.5123,-126.0763"/>
<polygon fill="#000000" stroke="#000000" points="1136.5532,-129.4265 1145.4731,-123.7094 1134.9348,-122.6161 1136.5532,-129.4265"/>
</g>
<!-- node_10&#45;&gt;node_2 -->
<g id="edge14" class="edge">
<title>node_10&#45;&gt;node_2</title>
<path fill="none" stroke="#000000" d="M893.7845,-159.8314C882.453,-150.9632 868.6536,-140.1637 856.3973,-130.5718"/>
<polygon fill="#000000" stroke="#000000" points="858.2402,-127.5697 848.2081,-124.1628 853.926,-133.0822 858.2402,-127.5697"/>
</g>
<!-- node_11 -->
<g id="node23" class="node">
<title>node_11</title>
<polygon fill="none" stroke="#000000" points="89,-484 25.3022,-466 89,-448 152.6978,-466 89,-484"/>
<text text-anchor="middle" x="89" y="-461.8" font-family="Times,serif" font-size="14.00" fill="#000000">executor1</text>
</g>
</g>
</svg>
