<?xml version="1.0" encoding="UTF-8" standalone="no"?>
<!DOCTYPE svg PUBLIC "-//W3C//DTD SVG 1.1//EN"
 "http://www.w3.org/Graphics/SVG/1.1/DTD/svg11.dtd">
<!-- Generated by graphviz version 2.40.1 (20161225.0304)
 -->
<!-- Title: %3 Pages: 1 -->
<svg width="2157pt" height="508pt"
 viewBox="0.00 0.00 2157.00 508.00" xmlns="http://www.w3.org/2000/svg" xmlns:xlink="http://www.w3.org/1999/xlink">
<g id="graph0" class="graph" transform="scale(1 1) rotate(0) translate(4 504)">
<title>%3</title>
<polygon fill="#ffffff" stroke="transparent" points="-4,4 -4,-504 2153,-504 2153,4 -4,4"/>
<g id="clust1" class="cluster">
<title>cluster_863035074</title>
<polygon fill="none" stroke="#000000" points="8,-8 8,-204 802,-204 802,-8 8,-8"/>
</g>
<g id="clust2" class="cluster">
<title>cluster_1037371052</title>
<polygon fill="none" stroke="#000000" points="1137,-80 1137,-492 2141,-492 2141,-80 1137,-80"/>
</g>
<!-- node_16 -->
<g id="node1" class="node">
<title>node_16</title>
<polygon fill="none" stroke="#000000" points="740.3412,-52 565.6588,-52 565.6588,-16 740.3412,-16 740.3412,-52"/>
<text text-anchor="middle" x="653" y="-29.8" font-family="Times,serif" font-size="14.00" fill="#000000">transmit trainset&#45;&gt;executor1</text>
</g>
<!-- node_8 -->
<g id="node20" class="node">
<title>node_8</title>
<polygon fill="none" stroke="#000000" points="2133.1153,-412 1762.8847,-412 1762.8847,-376 2133.1153,-376 2133.1153,-412"/>
<text text-anchor="middle" x="1948" y="-389.8" font-family="Times,serif" font-size="14.00" fill="#000000">accept trainset cast trainset from dataset to weka.core.Instances</text>
</g>
<!-- node_16&#45;&gt;node_8 -->
<g id="edge23" class="edge">
<title>node_16&#45;&gt;node_8</title>
<path fill="none" stroke="#000000" stroke-dasharray="1,5" d="M740.2925,-34.6328C1028.886,-37.8663 1934,-57.6044 1934,-178 1934,-250 1934,-250 1934,-250 1934,-290.3132 1939.5027,-336.678 1943.6084,-365.6613"/>
<polygon fill="#000000" stroke="#000000" points="1940.1908,-366.4803 1945.0992,-375.8696 1947.1173,-365.4687 1940.1908,-366.4803"/>
</g>
<!-- node_17 -->
<g id="node2" class="node">
<title>node_17</title>
<polygon fill="none" stroke="#000000" points="509.9522,-124 382.0478,-124 382.0478,-88 509.9522,-88 509.9522,-124"/>
<text text-anchor="middle" x="446" y="-101.8" font-family="Times,serif" font-size="14.00" fill="#000000">accept trainset &#160;as is</text>
</g>
<!-- node_17&#45;&gt;node_16 -->
<g id="edge7" class="edge">
<title>node_17&#45;&gt;node_16</title>
<path fill="none" stroke="#000000" d="M496.6324,-87.8819C504.1272,-85.2245 511.7614,-82.5314 519,-80 542.1574,-71.9016 567.6107,-63.131 590.0558,-55.4413"/>
<polygon fill="#000000" stroke="#000000" points="591.4777,-58.6541 599.8054,-52.1042 589.2108,-52.0313 591.4777,-58.6541"/>
</g>
<!-- node_18 -->
<g id="node3" class="node">
<title>node_18</title>
<polygon fill="none" stroke="#000000" points="794.4522,-124 645.5478,-124 645.5478,-88 794.4522,-88 794.4522,-124"/>
<text text-anchor="middle" x="720" y="-101.8" font-family="Times,serif" font-size="14.00" fill="#000000">accept predictions &#160;as is</text>
</g>
<!-- node_19 -->
<g id="node4" class="node">
<title>node_19</title>
<polygon fill="none" stroke="#000000" points="441.127,-52 272.873,-52 272.873,-16 441.127,-16 441.127,-52"/>
<text text-anchor="middle" x="357" y="-29.8" font-family="Times,serif" font-size="14.00" fill="#000000">transmit testset&#45;&gt;executor1</text>
</g>
<!-- node_6 -->
<g id="node18" class="node">
<title>node_6</title>
<polygon fill="none" stroke="#000000" points="1853.6876,-340 1496.3124,-340 1496.3124,-304 1853.6876,-304 1853.6876,-340"/>
<text text-anchor="middle" x="1675" y="-317.8" font-family="Times,serif" font-size="14.00" fill="#000000">accept testset cast testset from dataset to weka.core.Instances</text>
</g>
<!-- node_19&#45;&gt;node_6 -->
<g id="edge22" class="edge">
<title>node_19&#45;&gt;node_6</title>
<path fill="none" stroke="#000000" stroke-dasharray="1,5" d="M441.0935,-42.6504C476.7981,-46.0423 518.8965,-49.672 557,-52 653.2042,-57.8778 1331.8926,-51.6095 1424,-80 1538.0131,-115.1426 1625.2501,-239.621 1659.3585,-295.0423"/>
<polygon fill="#000000" stroke="#000000" points="1656.5686,-297.1926 1664.7396,-303.9369 1662.5578,-293.5691 1656.5686,-297.1926"/>
</g>
<!-- node_20 -->
<g id="node5" class="node">
<title>node_20</title>
<polygon fill="none" stroke="#000000" points="647,-196 602.2728,-178 647,-160 691.7272,-178 647,-196"/>
<text text-anchor="middle" x="647" y="-173.8" font-family="Times,serif" font-size="14.00" fill="#000000">Client</text>
</g>
<!-- node_12 -->
<g id="node6" class="node">
<title>node_12</title>
<polygon fill="none" stroke="#000000" points="224.0557,-124 15.9443,-124 15.9443,-88 224.0557,-88 224.0557,-124"/>
<text text-anchor="middle" x="120" y="-101.8" font-family="Times,serif" font-size="14.00" fill="#000000">accept &amp;finished&amp;executor1 &#160;as is</text>
</g>
<!-- node_13 -->
<g id="node7" class="node">
<title>node_13</title>
<polygon fill="none" stroke="#000000" points="363.7386,-124 242.2614,-124 242.2614,-88 363.7386,-88 363.7386,-124"/>
<text text-anchor="middle" x="303" y="-101.8" font-family="Times,serif" font-size="14.00" fill="#000000">accept testset &#160;as is</text>
</g>
<!-- node_13&#45;&gt;node_19 -->
<g id="edge3" class="edge">
<title>node_13&#45;&gt;node_19</title>
<path fill="none" stroke="#000000" d="M316.6265,-87.8314C322.846,-79.5386 330.3322,-69.557 337.16,-60.4533"/>
<polygon fill="#000000" stroke="#000000" points="339.99,-62.5133 343.19,-52.4133 334.39,-58.3133 339.99,-62.5133"/>
</g>
<!-- node_14 -->
<g id="node8" class="node">
<title>node_14</title>
<polygon fill="none" stroke="#000000" points="627.6935,-124 528.3065,-124 528.3065,-88 627.6935,-88 627.6935,-124"/>
<text text-anchor="middle" x="578" y="-101.8" font-family="Times,serif" font-size="14.00" fill="#000000">accept s1 &#160;as is</text>
</g>
<!-- node_15 -->
<g id="node9" class="node">
<title>node_15</title>
<polygon fill="none" stroke="#000000" points="484.5381,-196 407.4619,-196 407.4619,-160 484.5381,-160 484.5381,-196"/>
<text text-anchor="middle" x="446" y="-173.8" font-family="Times,serif" font-size="14.00" fill="#000000">send graph</text>
</g>
<!-- node_15&#45;&gt;node_17 -->
<g id="edge1" class="edge">
<title>node_15&#45;&gt;node_17</title>
<path fill="none" stroke="#000000" d="M446,-159.8314C446,-152.131 446,-142.9743 446,-134.4166"/>
<polygon fill="#000000" stroke="#000000" points="449.5001,-134.4132 446,-124.4133 442.5001,-134.4133 449.5001,-134.4132"/>
</g>
<!-- node_15&#45;&gt;node_18 -->
<g id="edge2" class="edge">
<title>node_15&#45;&gt;node_18</title>
<path fill="none" stroke="#000000" d="M484.6764,-167.8369C525.2816,-157.1669 590.2428,-140.0968 641.6353,-126.5922"/>
<polygon fill="#000000" stroke="#000000" points="642.6105,-129.9548 651.3927,-124.0282 640.8315,-123.1847 642.6105,-129.9548"/>
</g>
<!-- node_15&#45;&gt;node_12 -->
<g id="edge4" class="edge">
<title>node_15&#45;&gt;node_12</title>
<path fill="none" stroke="#000000" d="M407.3233,-169.4579C359.3563,-158.864 276.0252,-140.4595 211.4173,-126.1903"/>
<polygon fill="#000000" stroke="#000000" points="212.1423,-122.7662 201.6228,-124.0271 210.6326,-129.6015 212.1423,-122.7662"/>
</g>
<!-- node_15&#45;&gt;node_13 -->
<g id="edge5" class="edge">
<title>node_15&#45;&gt;node_13</title>
<path fill="none" stroke="#000000" d="M409.9151,-159.8314C391.2011,-150.4089 368.1568,-138.8062 348.26,-128.7883"/>
<polygon fill="#000000" stroke="#000000" points="349.5792,-125.5339 339.0734,-124.1628 346.4311,-131.7861 349.5792,-125.5339"/>
</g>
<!-- node_15&#45;&gt;node_14 -->
<g id="edge6" class="edge">
<title>node_15&#45;&gt;node_14</title>
<path fill="none" stroke="#000000" d="M479.3092,-159.8314C496.4273,-150.4942 517.4706,-139.016 535.7222,-129.0606"/>
<polygon fill="#000000" stroke="#000000" points="537.5985,-132.024 544.7015,-124.1628 534.2465,-125.8788 537.5985,-132.024"/>
</g>
<!-- node_21 -->
<g id="node10" class="node">
<title>node_21</title>
<polygon fill="none" stroke="#000000" points="957.6544,-196 810.3456,-196 810.3456,-160 957.6544,-160 957.6544,-196"/>
<text text-anchor="middle" x="884" y="-173.8" font-family="Times,serif" font-size="14.00" fill="#000000">transmit testset&#45;&gt;Client</text>
</g>
<!-- node_21&#45;&gt;node_13 -->
<g id="edge24" class="edge">
<title>node_21&#45;&gt;node_13</title>
<path fill="none" stroke="#000000" stroke-dasharray="1,5" d="M810.1516,-160.6741C808.758,-160.4395 807.3731,-160.2144 806,-160 618.4636,-130.7209 565.2224,-155.2897 374.0514,-124.0025"/>
<polygon fill="#000000" stroke="#000000" points="374.3926,-120.5112 363.9532,-122.3193 373.2416,-127.4159 374.3926,-120.5112"/>
</g>
<!-- node_22 -->
<g id="node11" class="node">
<title>node_22</title>
<polygon fill="none" stroke="#000000" points="1128.8686,-196 975.1314,-196 975.1314,-160 1128.8686,-160 1128.8686,-196"/>
<text text-anchor="middle" x="1052" y="-173.8" font-family="Times,serif" font-size="14.00" fill="#000000">transmit trainset&#45;&gt;Client</text>
</g>
<!-- node_22&#45;&gt;node_17 -->
<g id="edge25" class="edge">
<title>node_22&#45;&gt;node_17</title>
<path fill="none" stroke="#000000" stroke-dasharray="1,5" d="M975.1686,-161.2678C972.4162,-160.8156 969.6869,-160.3908 967,-160 772.6086,-131.7265 717.9754,-155.2078 520.118,-124.0211"/>
<polygon fill="#000000" stroke="#000000" points="520.4016,-120.522 509.9736,-122.3944 519.2932,-127.4337 520.4016,-120.522"/>
</g>
<!-- node_0 -->
<g id="node12" class="node">
<title>node_0</title>
<polygon fill="none" stroke="#000000" points="1463.3686,-196 1288.6314,-196 1288.6314,-160 1463.3686,-160 1463.3686,-196"/>
<text text-anchor="middle" x="1376" y="-173.8" font-family="Times,serif" font-size="14.00" fill="#000000">transmit predictions&#45;&gt;Client</text>
</g>
<!-- node_0&#45;&gt;node_18 -->
<g id="edge20" class="edge">
<title>node_0&#45;&gt;node_18</title>
<path fill="none" stroke="#000000" stroke-dasharray="1,5" d="M1288.6769,-161.2849C1285.7527,-160.8344 1282.8542,-160.4044 1280,-160 1112.1342,-136.2174 914.4498,-119.8598 804.5607,-111.7922"/>
<polygon fill="#000000" stroke="#000000" points="804.7572,-108.2973 794.5292,-111.0609 804.2482,-115.2788 804.7572,-108.2973"/>
</g>
<!-- node_10 -->
<g id="node22" class="node">
<title>node_10</title>
<polygon fill="none" stroke="#000000" points="1415.1485,-124 1208.8515,-124 1208.8515,-88 1415.1485,-88 1415.1485,-124"/>
<text text-anchor="middle" x="1312" y="-101.8" font-family="Times,serif" font-size="14.00" fill="#000000">FinishNode &amp;finished&amp;executor1</text>
</g>
<!-- node_0&#45;&gt;node_10 -->
<g id="edge15" class="edge">
<title>node_0&#45;&gt;node_10</title>
<path fill="none" stroke="#000000" d="M1359.8501,-159.8314C1352.3283,-151.3694 1343.2435,-141.1489 1335.0196,-131.8971"/>
<polygon fill="#000000" stroke="#000000" points="1337.627,-129.5621 1328.3673,-124.4133 1332.3951,-134.2127 1337.627,-129.5621"/>
</g>
<!-- node_1 -->
<g id="node13" class="node">
<title>node_1</title>
<polygon fill="none" stroke="#000000" points="1333.7386,-340 1212.2614,-340 1212.2614,-304 1333.7386,-304 1333.7386,-340"/>
<text text-anchor="middle" x="1273" y="-317.8" font-family="Times,serif" font-size="14.00" fill="#000000">s1::train([trainset])</text>
</g>
<!-- node_7 -->
<g id="node19" class="node">
<title>node_7</title>
<polygon fill="none" stroke="#000000" points="1516.095,-268 1261.905,-268 1261.905,-232 1516.095,-232 1516.095,-268"/>
<text text-anchor="middle" x="1389" y="-245.8" font-family="Times,serif" font-size="14.00" fill="#000000">predictions = s1::predict([FALSE, testset])</text>
</g>
<!-- node_1&#45;&gt;node_7 -->
<g id="edge10" class="edge">
<title>node_1&#45;&gt;node_7</title>
<path fill="none" stroke="#000000" d="M1302.2717,-303.8314C1317.1088,-294.6221 1335.3015,-283.3301 1351.1862,-273.4706"/>
<polygon fill="#000000" stroke="#000000" points="1353.087,-276.4102 1359.7377,-268.1628 1349.3955,-270.4628 1353.087,-276.4102"/>
</g>
<!-- node_2 -->
<g id="node14" class="node">
<title>node_2</title>
<polygon fill="none" stroke="#000000" points="1271.11,-196 1146.89,-196 1146.89,-160 1271.11,-160 1271.11,-196"/>
<text text-anchor="middle" x="1209" y="-173.8" font-family="Times,serif" font-size="14.00" fill="#000000">transmit s1&#45;&gt;Client</text>
</g>
<!-- node_2&#45;&gt;node_14 -->
<g id="edge26" class="edge">
<title>node_2&#45;&gt;node_14</title>
<path fill="none" stroke="#000000" stroke-dasharray="1,5" d="M1146.792,-161.5679C1143.8291,-160.9936 1140.8874,-160.466 1138,-160 920.8394,-124.9522 858.3008,-163.661 637.6449,-123.8478"/>
<polygon fill="#000000" stroke="#000000" points="638.166,-120.385 627.6981,-122.0196 636.9006,-127.2697 638.166,-120.385"/>
</g>
<!-- node_2&#45;&gt;node_10 -->
<g id="edge12" class="edge">
<title>node_2&#45;&gt;node_10</title>
<path fill="none" stroke="#000000" d="M1234.9912,-159.8314C1247.9216,-150.7927 1263.7222,-139.7476 1277.6383,-130.0198"/>
<polygon fill="#000000" stroke="#000000" points="1279.8263,-132.7608 1286.0171,-124.1628 1275.8157,-127.0235 1279.8263,-132.7608"/>
</g>
<!-- node_3 -->
<g id="node15" class="node">
<title>node_3</title>
<polygon fill="none" stroke="#000000" points="1477.9098,-340 1352.0902,-340 1352.0902,-304 1477.9098,-304 1477.9098,-340"/>
<text text-anchor="middle" x="1415" y="-317.8" font-family="Times,serif" font-size="14.00" fill="#000000">parse Bool: FALSE</text>
</g>
<!-- node_3&#45;&gt;node_7 -->
<g id="edge9" class="edge">
<title>node_3&#45;&gt;node_7</title>
<path fill="none" stroke="#000000" d="M1408.4391,-303.8314C1405.5973,-295.9617 1402.2063,-286.5712 1399.0581,-277.8533"/>
<polygon fill="#000000" stroke="#000000" points="1402.3377,-276.63 1395.6492,-268.4133 1395.7538,-279.0076 1402.3377,-276.63"/>
</g>
<!-- node_4 -->
<g id="node16" class="node">
<title>node_4</title>
<polygon fill="none" stroke="#000000" points="1540.6623,-196 1481.3377,-196 1481.3377,-160 1540.6623,-160 1540.6623,-196"/>
<text text-anchor="middle" x="1511" y="-173.8" font-family="Times,serif" font-size="14.00" fill="#000000">store s1</text>
</g>
<!-- node_4&#45;&gt;node_10 -->
<g id="edge11" class="edge">
<title>node_4&#45;&gt;node_10</title>
<path fill="none" stroke="#000000" d="M1481.3319,-163.9098C1478.201,-162.5422 1475.0484,-161.2139 1472,-160 1442.1455,-148.112 1408.5245,-136.5046 1379.8354,-127.1168"/>
<polygon fill="#000000" stroke="#000000" points="1380.8998,-123.7826 1370.3077,-124.021 1378.7366,-130.44 1380.8998,-123.7826"/>
</g>
<!-- node_5 -->
<g id="node17" class="node">
<title>node_5</title>
<polygon fill="none" stroke="#000000" points="1745.2188,-412 1144.7812,-412 1144.7812,-376 1745.2188,-376 1745.2188,-412"/>
<text text-anchor="middle" x="1445" y="-389.8" font-family="Times,serif" font-size="14.00" fill="#000000">s1 = de.upb.sede.services.mls.WekaBClassifierWrapper::__construct([weka.classifiers.bayes.BayesNet])</text>
</g>
<!-- node_5&#45;&gt;node_1 -->
<g id="edge17" class="edge">
<title>node_5&#45;&gt;node_1</title>
<path fill="none" stroke="#000000" d="M1401.5971,-375.8314C1378.4909,-366.159 1349.8962,-354.1891 1325.5423,-343.9944"/>
<polygon fill="#000000" stroke="#000000" points="1326.6667,-340.6709 1316.0908,-340.038 1323.9637,-347.128 1326.6667,-340.6709"/>
</g>
<!-- node_6&#45;&gt;node_7 -->
<g id="edge8" class="edge">
<title>node_6&#45;&gt;node_7</title>
<path fill="none" stroke="#000000" d="M1603.1993,-303.9243C1562.9115,-293.7819 1512.501,-281.0912 1470.7064,-270.5694"/>
<polygon fill="#000000" stroke="#000000" points="1471.3822,-267.1304 1460.8303,-268.0831 1469.6732,-273.9186 1471.3822,-267.1304"/>
</g>
<!-- node_7&#45;&gt;node_0 -->
<g id="edge13" class="edge">
<title>node_7&#45;&gt;node_0</title>
<path fill="none" stroke="#000000" d="M1385.7196,-231.8314C1384.3292,-224.131 1382.6759,-214.9743 1381.1308,-206.4166"/>
<polygon fill="#000000" stroke="#000000" points="1384.5458,-205.6322 1379.3246,-196.4133 1377.6572,-206.8761 1384.5458,-205.6322"/>
</g>
<!-- node_7&#45;&gt;node_2 -->
<g id="edge16" class="edge">
<title>node_7&#45;&gt;node_2</title>
<path fill="none" stroke="#000000" d="M1343.5784,-231.8314C1319.2905,-222.1162 1289.2078,-210.0831 1263.648,-199.8592"/>
<polygon fill="#000000" stroke="#000000" points="1264.6796,-196.5023 1254.095,-196.038 1262.0799,-203.0016 1264.6796,-196.5023"/>
</g>
<!-- node_7&#45;&gt;node_4 -->
<g id="edge19" class="edge">
<title>node_7&#45;&gt;node_4</title>
<path fill="none" stroke="#000000" d="M1423.2819,-231.8204C1438.3843,-223.6023 1456.2409,-213.5979 1472,-204 1473.2597,-203.2328 1474.5365,-202.4439 1475.8217,-201.6402"/>
<polygon fill="#000000" stroke="#000000" points="1477.7953,-204.5326 1484.3327,-196.1951 1474.0229,-198.6361 1477.7953,-204.5326"/>
</g>
<!-- node_8&#45;&gt;node_1 -->
<g id="edge14" class="edge">
<title>node_8&#45;&gt;node_1</title>
<path fill="none" stroke="#000000" d="M1762.9135,-376.8056C1759.9206,-376.5346 1756.9477,-376.2658 1754,-376 1574.5853,-359.8192 1525.4539,-370.5448 1343.8337,-339.9837"/>
<polygon fill="#000000" stroke="#000000" points="1344.4014,-336.53 1333.956,-338.3032 1343.2273,-343.4309 1344.4014,-336.53"/>
</g>
<!-- node_9 -->
<g id="node21" class="node">
<title>node_9</title>
<polygon fill="none" stroke="#000000" points="1581.211,-484 1308.789,-484 1308.789,-448 1581.211,-448 1581.211,-484"/>
<text text-anchor="middle" x="1445" y="-461.8" font-family="Times,serif" font-size="14.00" fill="#000000">parse String: weka.classifiers.bayes.BayesNet</text>
</g>
<!-- node_9&#45;&gt;node_5 -->
<g id="edge18" class="edge">
<title>node_9&#45;&gt;node_5</title>
<path fill="none" stroke="#000000" d="M1445,-447.8314C1445,-440.131 1445,-430.9743 1445,-422.4166"/>
<polygon fill="#000000" stroke="#000000" points="1448.5001,-422.4132 1445,-412.4133 1441.5001,-422.4133 1448.5001,-422.4132"/>
</g>
<!-- node_10&#45;&gt;node_12 -->
<g id="edge21" class="edge">
<title>node_10&#45;&gt;node_12</title>
<path fill="none" stroke="#000000" stroke-dasharray="1,5" d="M1208.5374,-115.3636C1104.6267,-124.2652 939.8695,-137.0126 797,-142 550.4835,-150.6056 486.1324,-177.2678 242,-142 221.0587,-138.9748 198.7034,-133.1713 178.9259,-127.0929"/>
<polygon fill="#000000" stroke="#000000" points="179.7316,-123.677 169.1417,-124.0007 177.622,-130.3516 179.7316,-123.677"/>
</g>
<!-- node_11 -->
<g id="node23" class="node">
<title>node_11</title>
<polygon fill="none" stroke="#000000" points="1218,-484 1154.3022,-466 1218,-448 1281.6978,-466 1218,-484"/>
<text text-anchor="middle" x="1218" y="-461.8" font-family="Times,serif" font-size="14.00" fill="#000000">executor1</text>
</g>
</g>
</svg>
