<?xml version="1.0" encoding="UTF-8" standalone="no"?>
<!DOCTYPE svg PUBLIC "-//W3C//DTD SVG 1.1//EN"
 "http://www.w3.org/Graphics/SVG/1.1/DTD/svg11.dtd">
<!-- Generated by graphviz version 2.40.1 (20161225.0304)
 -->
<!-- Title: %3 Pages: 1 -->
<svg width="2038pt" height="508pt"
 viewBox="0.00 0.00 2038.03 508.00" xmlns="http://www.w3.org/2000/svg" xmlns:xlink="http://www.w3.org/1999/xlink">
<g id="graph0" class="graph" transform="scale(1 1) rotate(0) translate(4 504)">
<title>%3</title>
<polygon fill="#ffffff" stroke="transparent" points="-4,4 -4,-504 2034.0331,-504 2034.0331,4 -4,4"/>
<g id="clust1" class="cluster">
<title>cluster_91067709</title>
<polygon fill="none" stroke="#000000" points="8,-8 8,-204 645,-204 645,-8 8,-8"/>
</g>
<g id="clust2" class="cluster">
<title>cluster_1101570341</title>
<polygon fill="none" stroke="#000000" points="980,-80 980,-492 2008,-492 2008,-80 980,-80"/>
</g>
<!-- node_16 -->
<g id="node1" class="node">
<title>node_16</title>
<polygon fill="none" stroke="#000000" points="408.5381,-196 331.4619,-196 331.4619,-160 408.5381,-160 408.5381,-196"/>
<text text-anchor="middle" x="370" y="-173.8" font-family="Times,serif" font-size="14.00" fill="#000000">send graph</text>
</g>
<!-- node_18 -->
<g id="node3" class="node">
<title>node_18</title>
<polygon fill="none" stroke="#000000" points="192.0562,-124 15.9438,-124 15.9438,-88 192.0562,-88 192.0562,-124"/>
<text text-anchor="middle" x="104" y="-101.8" font-family="Times,serif" font-size="14.00" fill="#000000">accept &amp;finished&amp;executor1</text>
</g>
<!-- node_16&#45;&gt;node_18 -->
<g id="edge2" class="edge">
<title>node_16&#45;&gt;node_18</title>
<path fill="none" stroke="#000000" d="M331.3213,-167.5306C291.8765,-156.8538 229.6271,-140.0043 180.235,-126.635"/>
<polygon fill="#000000" stroke="#000000" points="181.1057,-123.2448 170.5386,-124.0104 179.2768,-130.0017 181.1057,-123.2448"/>
</g>
<!-- node_19 -->
<g id="node4" class="node">
<title>node_19</title>
<polygon fill="none" stroke="#000000" points="636.953,-124 519.047,-124 519.047,-88 636.953,-88 636.953,-124"/>
<text text-anchor="middle" x="578" y="-101.8" font-family="Times,serif" font-size="14.00" fill="#000000">accept predictions</text>
</g>
<!-- node_16&#45;&gt;node_19 -->
<g id="edge3" class="edge">
<title>node_16&#45;&gt;node_19</title>
<path fill="none" stroke="#000000" d="M408.6357,-164.6261C438.8118,-154.1805 481.3346,-139.4611 516.2221,-127.3846"/>
<polygon fill="#000000" stroke="#000000" points="517.5382,-130.6329 525.8431,-124.0543 515.2483,-124.018 517.5382,-130.6329"/>
</g>
<!-- node_20 -->
<g id="node5" class="node">
<title>node_20</title>
<polygon fill="none" stroke="#000000" points="415.2386,-124 324.7614,-124 324.7614,-88 415.2386,-88 415.2386,-124"/>
<text text-anchor="middle" x="370" y="-101.8" font-family="Times,serif" font-size="14.00" fill="#000000">accept testset</text>
</g>
<!-- node_16&#45;&gt;node_20 -->
<g id="edge4" class="edge">
<title>node_16&#45;&gt;node_20</title>
<path fill="none" stroke="#000000" d="M370,-159.8314C370,-152.131 370,-142.9743 370,-134.4166"/>
<polygon fill="#000000" stroke="#000000" points="373.5001,-134.4132 370,-124.4133 366.5001,-134.4133 373.5001,-134.4132"/>
</g>
<!-- node_21 -->
<g id="node6" class="node">
<title>node_21</title>
<polygon fill="none" stroke="#000000" points="500.6941,-124 433.3059,-124 433.3059,-88 500.6941,-88 500.6941,-124"/>
<text text-anchor="middle" x="467" y="-101.8" font-family="Times,serif" font-size="14.00" fill="#000000">accept s1</text>
</g>
<!-- node_16&#45;&gt;node_21 -->
<g id="edge5" class="edge">
<title>node_16&#45;&gt;node_21</title>
<path fill="none" stroke="#000000" d="M394.4772,-159.8314C406.5395,-150.8779 421.254,-139.9558 434.2686,-130.2955"/>
<polygon fill="#000000" stroke="#000000" points="436.587,-132.9335 442.5306,-124.1628 432.4148,-127.3127 436.587,-132.9335"/>
</g>
<!-- node_15 -->
<g id="node9" class="node">
<title>node_15</title>
<polygon fill="none" stroke="#000000" points="307.4532,-124 210.5468,-124 210.5468,-88 307.4532,-88 307.4532,-124"/>
<text text-anchor="middle" x="259" y="-101.8" font-family="Times,serif" font-size="14.00" fill="#000000">accept trainset</text>
</g>
<!-- node_16&#45;&gt;node_15 -->
<g id="edge7" class="edge">
<title>node_16&#45;&gt;node_15</title>
<path fill="none" stroke="#000000" d="M341.99,-159.8314C327.9239,-150.7074 310.706,-139.539 295.6067,-129.7449"/>
<polygon fill="#000000" stroke="#000000" points="297.2953,-126.6684 287.001,-124.1628 293.486,-132.5412 297.2953,-126.6684"/>
</g>
<!-- node_17 -->
<g id="node2" class="node">
<title>node_17</title>
<polygon fill="none" stroke="#000000" points="637.3412,-52 462.6588,-52 462.6588,-16 637.3412,-16 637.3412,-52"/>
<text text-anchor="middle" x="550" y="-29.8" font-family="Times,serif" font-size="14.00" fill="#000000">transmit trainset&#45;&gt;executor1</text>
</g>
<!-- node_5 -->
<g id="node17" class="node">
<title>node_5</title>
<polygon fill="none" stroke="#000000" points="1898.4532,-484 1801.5468,-484 1801.5468,-448 1898.4532,-448 1898.4532,-484"/>
<text text-anchor="middle" x="1850" y="-461.8" font-family="Times,serif" font-size="14.00" fill="#000000">accept trainset</text>
</g>
<!-- node_17&#45;&gt;node_5 -->
<g id="edge22" class="edge">
<title>node_17&#45;&gt;node_5</title>
<path fill="none" stroke="#000000" stroke-dasharray="1,5" d="M637.4952,-36.4334C844.5857,-42.4626 1360.244,-59.1262 1532,-80 1755.0648,-107.1094 2028,46.7061 2028,-178 2028,-322 2028,-322 2028,-322 2028,-362.8816 2036.1323,-381.4198 2009,-412 1995.2659,-427.4794 1947.8654,-442.3974 1908.3628,-452.6161"/>
<polygon fill="#000000" stroke="#000000" points="1907.3497,-449.2621 1898.5152,-455.1103 1909.0685,-456.0479 1907.3497,-449.2621"/>
</g>
<!-- node_14 -->
<g id="node8" class="node">
<title>node_14</title>
<polygon fill="none" stroke="#000000" points="445.127,-52 276.873,-52 276.873,-16 445.127,-16 445.127,-52"/>
<text text-anchor="middle" x="361" y="-29.8" font-family="Times,serif" font-size="14.00" fill="#000000">transmit testset&#45;&gt;executor1</text>
</g>
<!-- node_20&#45;&gt;node_14 -->
<g id="edge6" class="edge">
<title>node_20&#45;&gt;node_14</title>
<path fill="none" stroke="#000000" d="M367.7289,-87.8314C366.7664,-80.131 365.6218,-70.9743 364.5521,-62.4166"/>
<polygon fill="#000000" stroke="#000000" points="368.0151,-61.9019 363.3017,-52.4133 361.0691,-62.7702 368.0151,-61.9019"/>
</g>
<!-- node_22 -->
<g id="node7" class="node">
<title>node_22</title>
<polygon fill="none" stroke="#000000" points="165,-196 120.2728,-178 165,-160 209.7272,-178 165,-196"/>
<text text-anchor="middle" x="165" y="-173.8" font-family="Times,serif" font-size="14.00" fill="#000000">Client</text>
</g>
<!-- node_10 -->
<g id="node22" class="node">
<title>node_10</title>
<polygon fill="none" stroke="#000000" points="2000.2386,-412 1909.7614,-412 1909.7614,-376 2000.2386,-376 2000.2386,-412"/>
<text text-anchor="middle" x="1955" y="-389.8" font-family="Times,serif" font-size="14.00" fill="#000000">accept testset</text>
</g>
<!-- node_14&#45;&gt;node_10 -->
<g id="edge26" class="edge">
<title>node_14&#45;&gt;node_10</title>
<path fill="none" stroke="#000000" stroke-dasharray="1,5" d="M445.3095,-50.9156C448.237,-51.3123 451.1403,-51.676 454,-52 813.2496,-92.6981 907.47,-41.8577 1267,-80 1390.0194,-93.0511 1815,-54.2903 1815,-178 1815,-250 1815,-250 1815,-250 1815,-304.8983 1867.9564,-346.738 1908.7298,-370.8161"/>
<polygon fill="#000000" stroke="#000000" points="1907.0653,-373.8961 1917.4826,-375.8276 1910.5434,-367.8214 1907.0653,-373.8961"/>
</g>
<!-- node_15&#45;&gt;node_17 -->
<g id="edge1" class="edge">
<title>node_15&#45;&gt;node_17</title>
<path fill="none" stroke="#000000" d="M295.2939,-87.9238C302.0669,-84.9892 309.1658,-82.1969 316,-80 322.8608,-77.7945 391.491,-64.3784 452.6634,-52.5999"/>
<polygon fill="#000000" stroke="#000000" points="453.6398,-55.9764 462.7985,-50.6503 452.3174,-49.1024 453.6398,-55.9764"/>
</g>
<!-- node_23 -->
<g id="node10" class="node">
<title>node_23</title>
<polygon fill="none" stroke="#000000" points="806.8686,-196 653.1314,-196 653.1314,-160 806.8686,-160 806.8686,-196"/>
<text text-anchor="middle" x="730" y="-173.8" font-family="Times,serif" font-size="14.00" fill="#000000">transmit trainset&#45;&gt;Client</text>
</g>
<!-- node_23&#45;&gt;node_15 -->
<g id="edge24" class="edge">
<title>node_23&#45;&gt;node_15</title>
<path fill="none" stroke="#000000" stroke-dasharray="1,5" d="M653.2987,-160.7286C651.8554,-160.4772 650.4214,-160.234 649,-160 505.2709,-136.336 463.4771,-153.7778 317.1293,-124.0113"/>
<polygon fill="#000000" stroke="#000000" points="317.8385,-120.584 307.3363,-121.9815 316.4177,-127.4383 317.8385,-120.584"/>
</g>
<!-- node_24 -->
<g id="node11" class="node">
<title>node_24</title>
<polygon fill="none" stroke="#000000" points="971.6544,-196 824.3456,-196 824.3456,-160 971.6544,-160 971.6544,-196"/>
<text text-anchor="middle" x="898" y="-173.8" font-family="Times,serif" font-size="14.00" fill="#000000">transmit testset&#45;&gt;Client</text>
</g>
<!-- node_24&#45;&gt;node_20 -->
<g id="edge27" class="edge">
<title>node_24&#45;&gt;node_20</title>
<path fill="none" stroke="#000000" stroke-dasharray="1,5" d="M824.3243,-161.3738C821.5186,-160.8848 818.7366,-160.4243 816,-160 646.3186,-133.6896 597.0522,-158.9277 425.0534,-123.9435"/>
<polygon fill="#000000" stroke="#000000" points="425.6673,-120.4964 415.165,-121.894 424.2466,-127.3508 425.6673,-120.4964"/>
</g>
<!-- node_0 -->
<g id="node12" class="node">
<title>node_0</title>
<polygon fill="none" stroke="#000000" points="1383.7386,-340 1262.2614,-340 1262.2614,-304 1383.7386,-304 1383.7386,-340"/>
<text text-anchor="middle" x="1323" y="-317.8" font-family="Times,serif" font-size="14.00" fill="#000000">s1::train([trainset])</text>
</g>
<!-- node_1 -->
<g id="node13" class="node">
<title>node_1</title>
<polygon fill="none" stroke="#000000" points="1380.095,-268 1125.905,-268 1125.905,-232 1380.095,-232 1380.095,-268"/>
<text text-anchor="middle" x="1253" y="-245.8" font-family="Times,serif" font-size="14.00" fill="#000000">predictions = s1::predict([FALSE, testset])</text>
</g>
<!-- node_0&#45;&gt;node_1 -->
<g id="edge8" class="edge">
<title>node_0&#45;&gt;node_1</title>
<path fill="none" stroke="#000000" d="M1305.336,-303.8314C1297.0268,-295.2848 1286.9736,-284.9443 1277.9082,-275.6198"/>
<polygon fill="#000000" stroke="#000000" points="1280.3821,-273.1435 1270.9018,-268.4133 1275.3631,-278.023 1280.3821,-273.1435"/>
</g>
<!-- node_6 -->
<g id="node18" class="node">
<title>node_6</title>
<polygon fill="none" stroke="#000000" points="1114.11,-196 989.89,-196 989.89,-160 1114.11,-160 1114.11,-196"/>
<text text-anchor="middle" x="1052" y="-173.8" font-family="Times,serif" font-size="14.00" fill="#000000">transmit s1&#45;&gt;Client</text>
</g>
<!-- node_1&#45;&gt;node_6 -->
<g id="edge11" class="edge">
<title>node_1&#45;&gt;node_6</title>
<path fill="none" stroke="#000000" d="M1201.7067,-231.9953C1177.7688,-223.5556 1148.9043,-213.3258 1123,-204 1119.04,-202.5744 1114.9582,-201.098 1110.8473,-199.606"/>
<polygon fill="#000000" stroke="#000000" points="1111.8398,-196.2427 1101.2458,-196.1126 1109.4464,-202.8208 1111.8398,-196.2427"/>
</g>
<!-- node_9 -->
<g id="node21" class="node">
<title>node_9</title>
<polygon fill="none" stroke="#000000" points="1383.6623,-196 1324.3377,-196 1324.3377,-160 1383.6623,-160 1383.6623,-196"/>
<text text-anchor="middle" x="1354" y="-173.8" font-family="Times,serif" font-size="14.00" fill="#000000">store s1</text>
</g>
<!-- node_1&#45;&gt;node_9 -->
<g id="edge13" class="edge">
<title>node_1&#45;&gt;node_9</title>
<path fill="none" stroke="#000000" d="M1278.4866,-231.8314C1291.1659,-222.7927 1306.6596,-211.7476 1320.3055,-202.0198"/>
<polygon fill="#000000" stroke="#000000" points="1322.4105,-204.8176 1328.5216,-196.1628 1318.3471,-199.1176 1322.4105,-204.8176"/>
</g>
<!-- node_11 -->
<g id="node23" class="node">
<title>node_11</title>
<polygon fill="none" stroke="#000000" points="1306.3686,-196 1131.6314,-196 1131.6314,-160 1306.3686,-160 1306.3686,-196"/>
<text text-anchor="middle" x="1219" y="-173.8" font-family="Times,serif" font-size="14.00" fill="#000000">transmit predictions&#45;&gt;Client</text>
</g>
<!-- node_1&#45;&gt;node_11 -->
<g id="edge14" class="edge">
<title>node_1&#45;&gt;node_11</title>
<path fill="none" stroke="#000000" d="M1244.4204,-231.8314C1240.6642,-223.8771 1236.1743,-214.369 1232.0202,-205.5723"/>
<polygon fill="#000000" stroke="#000000" points="1235.1301,-203.9612 1227.6952,-196.4133 1228.8004,-206.9503 1235.1301,-203.9612"/>
</g>
<!-- node_2 -->
<g id="node14" class="node">
<title>node_2</title>
<polygon fill="none" stroke="#000000" points="1243.9098,-340 1118.0902,-340 1118.0902,-304 1243.9098,-304 1243.9098,-340"/>
<text text-anchor="middle" x="1181" y="-317.8" font-family="Times,serif" font-size="14.00" fill="#000000">parse Bool: FALSE</text>
</g>
<!-- node_2&#45;&gt;node_1 -->
<g id="edge21" class="edge">
<title>node_2&#45;&gt;node_1</title>
<path fill="none" stroke="#000000" d="M1199.1686,-303.8314C1207.7152,-295.2848 1218.0557,-284.9443 1227.3802,-275.6198"/>
<polygon fill="#000000" stroke="#000000" points="1229.9905,-277.9592 1234.5867,-268.4133 1225.0408,-273.0095 1229.9905,-277.9592"/>
</g>
<!-- node_3 -->
<g id="node15" class="node">
<title>node_3</title>
<polygon fill="none" stroke="#000000" points="1892.1631,-412 1605.8369,-412 1605.8369,-376 1892.1631,-376 1892.1631,-412"/>
<text text-anchor="middle" x="1749" y="-389.8" font-family="Times,serif" font-size="14.00" fill="#000000">cast trainset from dataset to weka.core.Instances</text>
</g>
<!-- node_3&#45;&gt;node_0 -->
<g id="edge18" class="edge">
<title>node_3&#45;&gt;node_0</title>
<path fill="none" stroke="#000000" d="M1641.2536,-375.9604C1578.9377,-365.5056 1499.036,-352.0638 1428,-340 1416.9292,-338.1199 1405.2037,-336.1191 1393.7566,-334.1607"/>
<polygon fill="#000000" stroke="#000000" points="1394.2394,-330.6925 1383.7921,-332.4546 1393.058,-337.5921 1394.2394,-330.6925"/>
</g>
<!-- node_4 -->
<g id="node16" class="node">
<title>node_4</title>
<polygon fill="none" stroke="#000000" points="1588.2188,-412 987.7812,-412 987.7812,-376 1588.2188,-376 1588.2188,-412"/>
<text text-anchor="middle" x="1288" y="-389.8" font-family="Times,serif" font-size="14.00" fill="#000000">s1 = de.upb.sede.services.mls.WekaBClassifierWrapper::__construct([weka.classifiers.bayes.BayesNet])</text>
</g>
<!-- node_4&#45;&gt;node_0 -->
<g id="edge16" class="edge">
<title>node_4&#45;&gt;node_0</title>
<path fill="none" stroke="#000000" d="M1296.832,-375.8314C1300.6986,-367.8771 1305.3206,-358.369 1309.5968,-349.5723"/>
<polygon fill="#000000" stroke="#000000" points="1312.8249,-350.9371 1314.0491,-340.4133 1306.5293,-347.8768 1312.8249,-350.9371"/>
</g>
<!-- node_5&#45;&gt;node_3 -->
<g id="edge20" class="edge">
<title>node_5&#45;&gt;node_3</title>
<path fill="none" stroke="#000000" d="M1824.5134,-447.8314C1811.8341,-438.7927 1796.3404,-427.7476 1782.6945,-418.0198"/>
<polygon fill="#000000" stroke="#000000" points="1784.6529,-415.1176 1774.4784,-412.1628 1780.5895,-420.8176 1784.6529,-415.1176"/>
</g>
<!-- node_6&#45;&gt;node_21 -->
<g id="edge28" class="edge">
<title>node_6&#45;&gt;node_21</title>
<path fill="none" stroke="#000000" stroke-dasharray="1,5" d="M989.7893,-161.5842C986.8271,-161.0055 983.8863,-160.4726 981,-160 777.052,-126.6081 716.0085,-171.7106 510.8158,-123.7177"/>
<polygon fill="#000000" stroke="#000000" points="511.4738,-120.2765 500.9346,-121.3613 509.85,-127.0856 511.4738,-120.2765"/>
</g>
<!-- node_12 -->
<g id="node24" class="node">
<title>node_12</title>
<polygon fill="none" stroke="#000000" points="1258.1485,-124 1051.8515,-124 1051.8515,-88 1258.1485,-88 1258.1485,-124"/>
<text text-anchor="middle" x="1155" y="-101.8" font-family="Times,serif" font-size="14.00" fill="#000000">FinishNode &amp;finished&amp;executor1</text>
</g>
<!-- node_6&#45;&gt;node_12 -->
<g id="edge12" class="edge">
<title>node_6&#45;&gt;node_12</title>
<path fill="none" stroke="#000000" d="M1077.9912,-159.8314C1090.9216,-150.7927 1106.7222,-139.7476 1120.6383,-130.0198"/>
<polygon fill="#000000" stroke="#000000" points="1122.8263,-132.7608 1129.0171,-124.1628 1118.8157,-127.0235 1122.8263,-132.7608"/>
</g>
<!-- node_7 -->
<g id="node19" class="node">
<title>node_7</title>
<polygon fill="none" stroke="#000000" points="1716.9492,-340 1437.0508,-340 1437.0508,-304 1716.9492,-304 1716.9492,-340"/>
<text text-anchor="middle" x="1577" y="-317.8" font-family="Times,serif" font-size="14.00" fill="#000000">cast testset from dataset to weka.core.Instances</text>
</g>
<!-- node_7&#45;&gt;node_1 -->
<g id="edge15" class="edge">
<title>node_7&#45;&gt;node_1</title>
<path fill="none" stroke="#000000" d="M1495.6593,-303.9243C1449.5459,-293.6769 1391.7261,-280.828 1344.0946,-270.2432"/>
<polygon fill="#000000" stroke="#000000" points="1344.6142,-266.7734 1334.0931,-268.0207 1343.0957,-273.6067 1344.6142,-266.7734"/>
</g>
<!-- node_8 -->
<g id="node20" class="node">
<title>node_8</title>
<polygon fill="none" stroke="#000000" points="1424.211,-484 1151.789,-484 1151.789,-448 1424.211,-448 1424.211,-484"/>
<text text-anchor="middle" x="1288" y="-461.8" font-family="Times,serif" font-size="14.00" fill="#000000">parse String: weka.classifiers.bayes.BayesNet</text>
</g>
<!-- node_8&#45;&gt;node_4 -->
<g id="edge17" class="edge">
<title>node_8&#45;&gt;node_4</title>
<path fill="none" stroke="#000000" d="M1288,-447.8314C1288,-440.131 1288,-430.9743 1288,-422.4166"/>
<polygon fill="#000000" stroke="#000000" points="1291.5001,-422.4132 1288,-412.4133 1284.5001,-422.4133 1291.5001,-422.4132"/>
</g>
<!-- node_9&#45;&gt;node_12 -->
<g id="edge10" class="edge">
<title>node_9&#45;&gt;node_12</title>
<path fill="none" stroke="#000000" d="M1324.3319,-163.9098C1321.201,-162.5422 1318.0484,-161.2139 1315,-160 1285.1455,-148.112 1251.5245,-136.5046 1222.8354,-127.1168"/>
<polygon fill="#000000" stroke="#000000" points="1223.8998,-123.7826 1213.3077,-124.021 1221.7366,-130.44 1223.8998,-123.7826"/>
</g>
<!-- node_10&#45;&gt;node_7 -->
<g id="edge19" class="edge">
<title>node_10&#45;&gt;node_7</title>
<path fill="none" stroke="#000000" d="M1909.7781,-378.3545C1906.8217,-377.509 1903.8772,-376.7146 1901,-376 1843.8305,-361.8005 1780.0445,-350.268 1724.29,-341.5621"/>
<polygon fill="#000000" stroke="#000000" points="1724.7544,-338.0925 1714.3372,-340.0246 1723.6856,-345.0104 1724.7544,-338.0925"/>
</g>
<!-- node_11&#45;&gt;node_19 -->
<g id="edge25" class="edge">
<title>node_11&#45;&gt;node_19</title>
<path fill="none" stroke="#000000" stroke-dasharray="1,5" d="M1131.6756,-161.2947C1128.7517,-160.8414 1125.8537,-160.4081 1123,-160 952.661,-135.6386 750.7945,-118.7343 647.1023,-110.9185"/>
<polygon fill="#000000" stroke="#000000" points="647.3083,-107.4242 637.075,-110.168 646.7858,-114.4047 647.3083,-107.4242"/>
</g>
<!-- node_11&#45;&gt;node_12 -->
<g id="edge9" class="edge">
<title>node_11&#45;&gt;node_12</title>
<path fill="none" stroke="#000000" d="M1202.8501,-159.8314C1195.3283,-151.3694 1186.2435,-141.1489 1178.0196,-131.8971"/>
<polygon fill="#000000" stroke="#000000" points="1180.627,-129.5621 1171.3673,-124.4133 1175.3951,-134.2127 1180.627,-129.5621"/>
</g>
<!-- node_12&#45;&gt;node_18 -->
<g id="edge23" class="edge">
<title>node_12&#45;&gt;node_18</title>
<path fill="none" stroke="#000000" stroke-dasharray="1,5" d="M1051.8923,-115.1154C841.7016,-132.8467 370.122,-168.0507 211,-142 192.9718,-139.0485 173.8873,-133.474 156.9055,-127.5778"/>
<polygon fill="#000000" stroke="#000000" points="157.7683,-124.1689 147.1737,-124.0864 155.4044,-130.7578 157.7683,-124.1689"/>
</g>
<!-- node_13 -->
<g id="node25" class="node">
<title>node_13</title>
<polygon fill="none" stroke="#000000" points="1061,-484 997.3022,-466 1061,-448 1124.6978,-466 1061,-484"/>
<text text-anchor="middle" x="1061" y="-461.8" font-family="Times,serif" font-size="14.00" fill="#000000">executor1</text>
</g>
</g>
</svg>
