<?xml version="1.0" encoding="UTF-8" standalone="no"?>
<!DOCTYPE svg PUBLIC "-//W3C//DTD SVG 1.1//EN"
 "http://www.w3.org/Graphics/SVG/1.1/DTD/svg11.dtd">
<!-- Generated by graphviz version 2.40.1 (20161225.0304)
 -->
<!-- Title: %3 Pages: 1 -->
<svg width="2760pt" height="580pt"
 viewBox="0.00 0.00 2760.34 580.00" xmlns="http://www.w3.org/2000/svg" xmlns:xlink="http://www.w3.org/1999/xlink">
<g id="graph0" class="graph" transform="scale(1 1) rotate(0) translate(4 576)">
<title>%3</title>
<polygon fill="#ffffff" stroke="transparent" points="-4,4 -4,-576 2756.3398,-576 2756.3398,4 -4,4"/>
<g id="clust1" class="cluster">
<title>cluster_1897944933</title>
<polygon fill="none" stroke="#000000" points="186.1289,-8 186.1289,-204 1109.1289,-204 1109.1289,-8 186.1289,-8"/>
</g>
<g id="clust2" class="cluster">
<title>cluster_1736215047</title>
<polygon fill="none" stroke="#000000" points="1309.1289,-80 1309.1289,-564 2683.1289,-564 2683.1289,-80 1309.1289,-80"/>
</g>
<!-- node_32 -->
<g id="node1" class="node">
<title>node_32</title>
<polygon fill="none" stroke="#000000" points="178.3869,-196 -.1291,-196 -.1291,-160 178.3869,-160 178.3869,-196"/>
<text text-anchor="middle" x="89.1289" y="-173.8" font-family="Times,serif" font-size="14.00" fill="#000000">transmit indices_test&#45;&gt;Client</text>
</g>
<!-- node_24 -->
<g id="node6" class="node">
<title>node_24</title>
<polygon fill="none" stroke="#000000" points="315.9712,-124 194.2866,-124 194.2866,-88 315.9712,-88 315.9712,-124"/>
<text text-anchor="middle" x="255.1289" y="-101.8" font-family="Times,serif" font-size="14.00" fill="#000000">accept indices_test</text>
</g>
<!-- node_32&#45;&gt;node_24 -->
<g id="edge40" class="edge">
<title>node_32&#45;&gt;node_24</title>
<path fill="none" stroke="#000000" stroke-dasharray="1,5" d="M131.0177,-159.8314C153.2192,-150.2018 180.6711,-138.295 204.1073,-128.1299"/>
<polygon fill="#000000" stroke="#000000" points="205.7598,-131.2282 213.5413,-124.038 202.9744,-124.8062 205.7598,-131.2282"/>
</g>
<!-- node_33 -->
<g id="node2" class="node">
<title>node_33</title>
<polygon fill="none" stroke="#000000" points="1301.6012,-196 1116.6566,-196 1116.6566,-160 1301.6012,-160 1301.6012,-196"/>
<text text-anchor="middle" x="1209.1289" y="-173.8" font-family="Times,serif" font-size="14.00" fill="#000000">transmit indices_train&#45;&gt;Client</text>
</g>
<!-- node_26 -->
<g id="node8" class="node">
<title>node_26</title>
<polygon fill="none" stroke="#000000" points="878.6853,-124 751.5725,-124 751.5725,-88 878.6853,-88 878.6853,-124"/>
<text text-anchor="middle" x="815.1289" y="-101.8" font-family="Times,serif" font-size="14.00" fill="#000000">accept indices_train</text>
</g>
<!-- node_33&#45;&gt;node_26 -->
<g id="edge41" class="edge">
<title>node_33&#45;&gt;node_26</title>
<path fill="none" stroke="#000000" stroke-dasharray="1,5" d="M1116.6595,-160.6162C1115.4757,-160.4087 1114.2984,-160.2032 1113.1289,-160 1016.4694,-143.2085 989.0734,-144.0662 888.7055,-124.0259"/>
<polygon fill="#000000" stroke="#000000" points="889.2545,-120.5663 878.7599,-122.02 887.8705,-127.4281 889.2545,-120.5663"/>
</g>
<!-- node_21 -->
<g id="node3" class="node">
<title>node_21</title>
<polygon fill="none" stroke="#000000" points="635.8595,-52 436.3983,-52 436.3983,-16 635.8595,-16 635.8595,-52"/>
<text text-anchor="middle" x="536.1289" y="-29.8" font-family="Times,serif" font-size="14.00" fill="#000000">transmit indices_test&#45;&gt;executor1</text>
</g>
<!-- node_7 -->
<g id="node21" class="node">
<title>node_7</title>
<polygon fill="none" stroke="#000000" points="2384.9712,-484 2263.2866,-484 2263.2866,-448 2384.9712,-448 2384.9712,-484"/>
<text text-anchor="middle" x="2324.1289" y="-461.8" font-family="Times,serif" font-size="14.00" fill="#000000">accept indices_test</text>
</g>
<!-- node_21&#45;&gt;node_7 -->
<g id="edge36" class="edge">
<title>node_21&#45;&gt;node_7</title>
<path fill="none" stroke="#000000" stroke-dasharray="1,5" d="M635.9299,-41.8251C683.764,-45.3549 741.8883,-49.3232 794.1289,-52 899.2241,-57.3851 2684.1289,-72.7669 2684.1289,-178 2684.1289,-322 2684.1289,-322 2684.1289,-322 2684.1289,-362.8816 2695.1138,-384.2112 2665.1289,-412 2622.6592,-451.3592 2469.1346,-437.8692 2395.393,-448.16"/>
<polygon fill="#000000" stroke="#000000" points="2394.4095,-444.775 2385.1147,-449.86 2395.5518,-451.6812 2394.4095,-444.775"/>
</g>
<!-- node_22 -->
<g id="node4" class="node">
<title>node_22</title>
<polygon fill="none" stroke="#000000" points="1100.823,-124 1033.4349,-124 1033.4349,-88 1100.823,-88 1100.823,-124"/>
<text text-anchor="middle" x="1067.1289" y="-101.8" font-family="Times,serif" font-size="14.00" fill="#000000">accept s1</text>
</g>
<!-- node_23 -->
<g id="node5" class="node">
<title>node_23</title>
<polygon fill="none" stroke="#000000" points="1015.0819,-124 897.1759,-124 897.1759,-88 1015.0819,-88 1015.0819,-124"/>
<text text-anchor="middle" x="956.1289" y="-101.8" font-family="Times,serif" font-size="14.00" fill="#000000">accept predictions</text>
</g>
<!-- node_24&#45;&gt;node_21 -->
<g id="edge5" class="edge">
<title>node_24&#45;&gt;node_21</title>
<path fill="none" stroke="#000000" d="M301.1334,-87.8662C309.072,-85.0387 317.2914,-82.2974 325.1289,-80 358.8573,-70.1131 396.1783,-61.2988 429.9377,-54.0972"/>
<polygon fill="#000000" stroke="#000000" points="430.7616,-57.5005 439.8241,-52.0122 429.3171,-50.6512 430.7616,-57.5005"/>
</g>
<!-- node_25 -->
<g id="node7" class="node">
<title>node_25</title>
<polygon fill="none" stroke="#000000" points="1009.0737,-52 803.1841,-52 803.1841,-16 1009.0737,-16 1009.0737,-52"/>
<text text-anchor="middle" x="906.1289" y="-29.8" font-family="Times,serif" font-size="14.00" fill="#000000">transmit indices_train&#45;&gt;executor1</text>
</g>
<!-- node_19 -->
<g id="node33" class="node">
<title>node_19</title>
<polygon fill="none" stroke="#000000" points="2424.6853,-556 2297.5725,-556 2297.5725,-520 2424.6853,-520 2424.6853,-556"/>
<text text-anchor="middle" x="2361.1289" y="-533.8" font-family="Times,serif" font-size="14.00" fill="#000000">accept indices_train</text>
</g>
<!-- node_25&#45;&gt;node_19 -->
<g id="edge42" class="edge">
<title>node_25&#45;&gt;node_19</title>
<path fill="none" stroke="#000000" stroke-dasharray="1,5" d="M1009.0377,-36.1001C1271.3231,-41.7088 1960.2008,-58.1134 2188.1289,-80 2942.1285,-152.402 2722.1289,-143.3714 2722.1289,-178 2722.1289,-394 2722.1289,-394 2722.1289,-394 2722.1289,-437.4193 2718.2032,-457.0895 2684.1289,-484 2646.4907,-513.7252 2518.1744,-527.7242 2435.0475,-533.8147"/>
<polygon fill="#000000" stroke="#000000" points="2434.6186,-530.3363 2424.8918,-534.5361 2435.1147,-537.3187 2434.6186,-530.3363"/>
</g>
<!-- node_26&#45;&gt;node_25 -->
<g id="edge8" class="edge">
<title>node_26&#45;&gt;node_25</title>
<path fill="none" stroke="#000000" d="M838.092,-87.8314C849.3004,-78.9632 862.9498,-68.1637 875.0728,-58.5718"/>
<polygon fill="#000000" stroke="#000000" points="877.5026,-61.1125 883.1731,-52.1628 873.1592,-55.6229 877.5026,-61.1125"/>
</g>
<!-- node_27 -->
<g id="node9" class="node">
<title>node_27</title>
<polygon fill="none" stroke="#000000" points="510.1851,-124 334.0727,-124 334.0727,-88 510.1851,-88 510.1851,-124"/>
<text text-anchor="middle" x="422.1289" y="-101.8" font-family="Times,serif" font-size="14.00" fill="#000000">accept &amp;finished&amp;executor1</text>
</g>
<!-- node_28 -->
<g id="node10" class="node">
<title>node_28</title>
<polygon fill="none" stroke="#000000" points="733.3675,-124 642.8903,-124 642.8903,-88 733.3675,-88 733.3675,-124"/>
<text text-anchor="middle" x="688.1289" y="-101.8" font-family="Times,serif" font-size="14.00" fill="#000000">accept testset</text>
</g>
<!-- node_29 -->
<g id="node11" class="node">
<title>node_29</title>
<polygon fill="none" stroke="#000000" points="726.667,-196 649.5908,-196 649.5908,-160 726.667,-160 726.667,-196"/>
<text text-anchor="middle" x="688.1289" y="-173.8" font-family="Times,serif" font-size="14.00" fill="#000000">send graph</text>
</g>
<!-- node_29&#45;&gt;node_22 -->
<g id="edge2" class="edge">
<title>node_29&#45;&gt;node_22</title>
<path fill="none" stroke="#000000" d="M726.8171,-174.7863C788.2194,-169.0404 911.6322,-154.8594 1023.3839,-123.8473"/>
<polygon fill="#000000" stroke="#000000" points="1024.4536,-127.1821 1033.1236,-121.0926 1022.5485,-120.4463 1024.4536,-127.1821"/>
</g>
<!-- node_29&#45;&gt;node_23 -->
<g id="edge3" class="edge">
<title>node_29&#45;&gt;node_23</title>
<path fill="none" stroke="#000000" d="M726.8122,-167.6075C768.6682,-156.3626 836.2492,-138.2065 887.2267,-124.511"/>
<polygon fill="#000000" stroke="#000000" points="888.4388,-127.8096 897.1882,-121.8348 886.6226,-121.0493 888.4388,-127.8096"/>
</g>
<!-- node_29&#45;&gt;node_24 -->
<g id="edge4" class="edge">
<title>node_29&#45;&gt;node_24</title>
<path fill="none" stroke="#000000" d="M649.4842,-173.5917C584.649,-165.9054 449.7343,-148.669 326.1406,-124.0957"/>
<polygon fill="#000000" stroke="#000000" points="326.6195,-120.6221 316.1259,-122.0832 325.2403,-127.4849 326.6195,-120.6221"/>
</g>
<!-- node_29&#45;&gt;node_26 -->
<g id="edge6" class="edge">
<title>node_29&#45;&gt;node_26</title>
<path fill="none" stroke="#000000" d="M720.1764,-159.8314C736.5709,-150.5368 756.7075,-139.1208 774.2118,-129.1971"/>
<polygon fill="#000000" stroke="#000000" points="776.1186,-132.1395 783.0917,-124.1628 772.6663,-126.05 776.1186,-132.1395"/>
</g>
<!-- node_29&#45;&gt;node_27 -->
<g id="edge7" class="edge">
<title>node_29&#45;&gt;node_27</title>
<path fill="none" stroke="#000000" d="M649.4502,-167.5306C610.0054,-156.8538 547.756,-140.0043 498.3639,-126.635"/>
<polygon fill="#000000" stroke="#000000" points="499.2346,-123.2448 488.6675,-124.0104 497.4057,-130.0017 499.2346,-123.2448"/>
</g>
<!-- node_29&#45;&gt;node_28 -->
<g id="edge9" class="edge">
<title>node_29&#45;&gt;node_28</title>
<path fill="none" stroke="#000000" d="M688.1289,-159.8314C688.1289,-152.131 688.1289,-142.9743 688.1289,-134.4166"/>
<polygon fill="#000000" stroke="#000000" points="691.629,-134.4132 688.1289,-124.4133 684.629,-134.4133 691.629,-134.4132"/>
</g>
<!-- node_30 -->
<g id="node12" class="node">
<title>node_30</title>
<polygon fill="none" stroke="#000000" points="625.5821,-124 528.6757,-124 528.6757,-88 625.5821,-88 625.5821,-124"/>
<text text-anchor="middle" x="577.1289" y="-101.8" font-family="Times,serif" font-size="14.00" fill="#000000">accept trainset</text>
</g>
<!-- node_29&#45;&gt;node_30 -->
<g id="edge1" class="edge">
<title>node_29&#45;&gt;node_30</title>
<path fill="none" stroke="#000000" d="M660.1189,-159.8314C646.0528,-150.7074 628.8349,-139.539 613.7356,-129.7449"/>
<polygon fill="#000000" stroke="#000000" points="615.4242,-126.6684 605.1299,-124.1628 611.6149,-132.5412 615.4242,-126.6684"/>
</g>
<!-- node_31 -->
<g id="node13" class="node">
<title>node_31</title>
<polygon fill="none" stroke="#000000" points="414.1289,-196 369.4017,-178 414.1289,-160 458.8561,-178 414.1289,-196"/>
<text text-anchor="middle" x="414.1289" y="-173.8" font-family="Times,serif" font-size="14.00" fill="#000000">Client</text>
</g>
<!-- node_0 -->
<g id="node14" class="node">
<title>node_0</title>
<polygon fill="none" stroke="#000000" points="1705.7256,-412 1364.5322,-412 1364.5322,-376 1705.7256,-376 1705.7256,-412"/>
<text text-anchor="middle" x="1535.1289" y="-389.8" font-family="Times,serif" font-size="14.00" fill="#000000">trainset = dataset::fromIndicesLabeled([indices_train, &#45;1])</text>
</g>
<!-- node_1 -->
<g id="node15" class="node">
<title>node_1</title>
<polygon fill="none" stroke="#000000" points="1851.888,-340 1744.3698,-340 1744.3698,-304 1851.888,-304 1851.888,-340"/>
<text text-anchor="middle" x="1798.1289" y="-317.8" font-family="Times,serif" font-size="14.00" fill="#000000">s1::fit([trainset])</text>
</g>
<!-- node_0&#45;&gt;node_1 -->
<g id="edge10" class="edge">
<title>node_0&#45;&gt;node_1</title>
<path fill="none" stroke="#000000" d="M1602.7761,-375.9981C1639.1305,-366.2621 1684.9661,-353.889 1734.2799,-340.2188"/>
<polygon fill="#000000" stroke="#000000" points="1735.4882,-343.5158 1744.1872,-337.4678 1733.6153,-336.771 1735.4882,-343.5158"/>
</g>
<!-- node_2 -->
<g id="node16" class="node">
<title>node_2</title>
<polygon fill="none" stroke="#000000" points="1470.9975,-268 1317.2603,-268 1317.2603,-232 1470.9975,-232 1470.9975,-268"/>
<text text-anchor="middle" x="1394.1289" y="-245.8" font-family="Times,serif" font-size="14.00" fill="#000000">transmit trainset&#45;&gt;Client</text>
</g>
<!-- node_0&#45;&gt;node_2 -->
<g id="edge13" class="edge">
<title>node_0&#45;&gt;node_2</title>
<path fill="none" stroke="#000000" d="M1463.9415,-375.9814C1431.6002,-366.2153 1398.4723,-353.4177 1389.1289,-340 1376.6972,-322.1473 1379.2415,-297.1443 1384.1628,-278.0212"/>
<polygon fill="#000000" stroke="#000000" points="1387.5419,-278.9355 1386.9735,-268.356 1380.8203,-276.9809 1387.5419,-278.9355"/>
</g>
<!-- node_18 -->
<g id="node32" class="node">
<title>node_18</title>
<polygon fill="none" stroke="#000000" points="1726.298,-340 1397.9598,-340 1397.9598,-304 1726.298,-304 1726.298,-340"/>
<text text-anchor="middle" x="1562.1289" y="-317.8" font-family="Times,serif" font-size="14.00" fill="#000000">testset = dataset::fromIndicesLabeled([indices_test, &#45;1])</text>
</g>
<!-- node_0&#45;&gt;node_18 -->
<g id="edge20" class="edge">
<title>node_0&#45;&gt;node_18</title>
<path fill="none" stroke="#000000" d="M1541.9421,-375.8314C1544.8933,-367.9617 1548.4147,-358.5712 1551.6839,-349.8533"/>
<polygon fill="#000000" stroke="#000000" points="1554.9898,-351.0055 1555.2239,-340.4133 1548.4355,-348.5476 1554.9898,-351.0055"/>
</g>
<!-- node_14 -->
<g id="node28" class="node">
<title>node_14</title>
<polygon fill="none" stroke="#000000" points="1903.0218,-268 1653.236,-268 1653.236,-232 1903.0218,-232 1903.0218,-268"/>
<text text-anchor="middle" x="1778.1289" y="-245.8" font-family="Times,serif" font-size="14.00" fill="#000000">predictions = s1::predict([TRUE, testset])</text>
</g>
<!-- node_1&#45;&gt;node_14 -->
<g id="edge28" class="edge">
<title>node_1&#45;&gt;node_14</title>
<path fill="none" stroke="#000000" d="M1793.0821,-303.8314C1790.9196,-296.0463 1788.3436,-286.7729 1785.9441,-278.1347"/>
<polygon fill="#000000" stroke="#000000" points="1789.2925,-277.1117 1783.2437,-268.4133 1782.5479,-278.9852 1789.2925,-277.1117"/>
</g>
<!-- node_2&#45;&gt;node_30 -->
<g id="edge43" class="edge">
<title>node_2&#45;&gt;node_30</title>
<path fill="none" stroke="#000000" stroke-dasharray="1,5" d="M1317.3724,-243.2632C1237.9274,-235.765 1110.3846,-222.2569 1001.1289,-204 839.6865,-177.0227 797.0981,-167.3371 635.3601,-124.2377"/>
<polygon fill="#000000" stroke="#000000" points="636.1149,-120.8167 625.5507,-121.6218 634.3112,-127.5804 636.1149,-120.8167"/>
</g>
<!-- node_5 -->
<g id="node19" class="node">
<title>node_5</title>
<polygon fill="none" stroke="#000000" points="1640.2774,-124 1433.9804,-124 1433.9804,-88 1640.2774,-88 1640.2774,-124"/>
<text text-anchor="middle" x="1537.1289" y="-101.8" font-family="Times,serif" font-size="14.00" fill="#000000">FinishNode &amp;finished&amp;executor1</text>
</g>
<!-- node_2&#45;&gt;node_5 -->
<g id="edge15" class="edge">
<title>node_2&#45;&gt;node_5</title>
<path fill="none" stroke="#000000" d="M1470.8416,-234.7083C1488.2064,-227.9198 1505.0579,-218.1259 1517.1289,-204 1533.5346,-184.8015 1537.755,-155.7892 1538.3403,-134.3089"/>
<polygon fill="#000000" stroke="#000000" points="1541.8406,-134.1595 1538.3669,-124.1503 1534.8406,-134.1411 1541.8406,-134.1595"/>
</g>
<!-- node_3 -->
<g id="node17" class="node">
<title>node_3</title>
<polygon fill="none" stroke="#000000" points="1984.8878,-412 1723.37,-412 1723.37,-376 1984.8878,-376 1984.8878,-412"/>
<text text-anchor="middle" x="1854.1289" y="-389.8" font-family="Times,serif" font-size="14.00" fill="#000000">cast indices_test from jsonlist to builtin.List</text>
</g>
<!-- node_3&#45;&gt;node_18 -->
<g id="edge29" class="edge">
<title>node_3&#45;&gt;node_18</title>
<path fill="none" stroke="#000000" d="M1780.8219,-375.9243C1739.5237,-365.7412 1687.8074,-352.9892 1645.0358,-342.4428"/>
<polygon fill="#000000" stroke="#000000" points="1645.7599,-339.0166 1635.2128,-340.0207 1644.084,-345.813 1645.7599,-339.0166"/>
</g>
<!-- node_4 -->
<g id="node18" class="node">
<title>node_4</title>
<polygon fill="none" stroke="#000000" points="2675.3399,-484 2402.9179,-484 2402.9179,-448 2675.3399,-448 2675.3399,-484"/>
<text text-anchor="middle" x="2539.1289" y="-461.8" font-family="Times,serif" font-size="14.00" fill="#000000">parse String: weka.classifiers.bayes.BayesNet</text>
</g>
<!-- node_12 -->
<g id="node26" class="node">
<title>node_12</title>
<polygon fill="none" stroke="#000000" points="2655.8272,-412 2002.4306,-412 2002.4306,-376 2655.8272,-376 2655.8272,-412"/>
<text text-anchor="middle" x="2329.1289" y="-389.8" font-family="Times,serif" font-size="14.00" fill="#000000">s1 = WekaBClassifierWrapper::__construct([weka.classifiers.bayes.BayesNet])</text>
</g>
<!-- node_4&#45;&gt;node_12 -->
<g id="edge17" class="edge">
<title>node_4&#45;&gt;node_12</title>
<path fill="none" stroke="#000000" d="M2486.4081,-447.9243C2457.5751,-438.0387 2421.6808,-425.7321 2391.4658,-415.3726"/>
<polygon fill="#000000" stroke="#000000" points="2392.466,-412.0156 2381.8714,-412.0831 2390.1957,-418.6373 2392.466,-412.0156"/>
</g>
<!-- node_5&#45;&gt;node_27 -->
<g id="edge37" class="edge">
<title>node_5&#45;&gt;node_27</title>
<path fill="none" stroke="#000000" stroke-dasharray="1,5" d="M1434.0433,-116.992C1346.409,-125.7552 1217.1811,-137.3085 1104.1289,-142 976.461,-147.2981 655.228,-162.6444 529.1289,-142 511.1007,-139.0485 492.0162,-133.474 475.0344,-127.5778"/>
<polygon fill="#000000" stroke="#000000" points="475.8972,-124.1689 465.3026,-124.0864 473.5333,-130.7578 475.8972,-124.1689"/>
</g>
<!-- node_6 -->
<g id="node20" class="node">
<title>node_6</title>
<polygon fill="none" stroke="#000000" points="1990.0899,-340 1870.168,-340 1870.168,-304 1990.0899,-304 1990.0899,-340"/>
<text text-anchor="middle" x="1930.1289" y="-317.8" font-family="Times,serif" font-size="14.00" fill="#000000">parse Bool: TRUE</text>
</g>
<!-- node_6&#45;&gt;node_14 -->
<g id="edge18" class="edge">
<title>node_6&#45;&gt;node_14</title>
<path fill="none" stroke="#000000" d="M1891.7729,-303.8314C1871.6245,-294.2874 1846.7537,-282.5065 1825.4206,-272.4013"/>
<polygon fill="#000000" stroke="#000000" points="1826.7448,-269.1558 1816.2091,-268.038 1823.7482,-275.482 1826.7448,-269.1558"/>
</g>
<!-- node_7&#45;&gt;node_3 -->
<g id="edge27" class="edge">
<title>node_7&#45;&gt;node_3</title>
<path fill="none" stroke="#000000" d="M2263.1416,-449.8677C2260.1013,-449.2048 2257.0846,-448.5774 2254.1289,-448 2241.1865,-445.4714 2105.1284,-427.2413 1995.2361,-412.6518"/>
<polygon fill="#000000" stroke="#000000" points="1995.3986,-409.1427 1985.0251,-411.2966 1994.4777,-416.0819 1995.3986,-409.1427"/>
</g>
<!-- node_8 -->
<g id="node22" class="node">
<title>node_8</title>
<polygon fill="none" stroke="#000000" points="1782.7768,-556 1625.4811,-556 1625.4811,-520 1782.7768,-520 1782.7768,-556"/>
<text text-anchor="middle" x="1704.1289" y="-533.8" font-family="Times,serif" font-size="14.00" fill="#000000">parse String: weather.arff</text>
</g>
<!-- node_9 -->
<g id="node23" class="node">
<title>node_9</title>
<polygon fill="none" stroke="#000000" points="1958.8145,-484 1449.4433,-484 1449.4433,-448 1958.8145,-448 1958.8145,-484"/>
<text text-anchor="middle" x="1704.1289" y="-461.8" font-family="Times,serif" font-size="14.00" fill="#000000">dataset = DataSetService::__construct([weather.arff])</text>
</g>
<!-- node_8&#45;&gt;node_9 -->
<g id="edge11" class="edge">
<title>node_8&#45;&gt;node_9</title>
<path fill="none" stroke="#000000" d="M1704.1289,-519.8314C1704.1289,-512.131 1704.1289,-502.9743 1704.1289,-494.4166"/>
<polygon fill="#000000" stroke="#000000" points="1707.629,-494.4132 1704.1289,-484.4133 1700.629,-494.4133 1707.629,-494.4132"/>
</g>
<!-- node_9&#45;&gt;node_0 -->
<g id="edge24" class="edge">
<title>node_9&#45;&gt;node_0</title>
<path fill="none" stroke="#000000" d="M1661.4831,-447.8314C1638.7799,-438.159 1610.6838,-426.1891 1586.7547,-415.9944"/>
<polygon fill="#000000" stroke="#000000" points="1588.0398,-412.7376 1577.4681,-412.038 1585.2961,-419.1775 1588.0398,-412.7376"/>
</g>
<!-- node_10 -->
<g id="node24" class="node">
<title>node_10</title>
<polygon fill="none" stroke="#000000" points="1431.0947,-484 1317.1631,-484 1317.1631,-448 1431.0947,-448 1431.0947,-484"/>
<text text-anchor="middle" x="1374.1289" y="-461.8" font-family="Times,serif" font-size="14.00" fill="#000000">parse Number: &#45;1</text>
</g>
<!-- node_10&#45;&gt;node_0 -->
<g id="edge32" class="edge">
<title>node_10&#45;&gt;node_0</title>
<path fill="none" stroke="#000000" d="M1414.756,-447.8314C1436.2888,-438.2018 1462.9138,-426.295 1485.6441,-416.1299"/>
<polygon fill="#000000" stroke="#000000" points="1487.0941,-419.3155 1494.794,-412.038 1484.2363,-412.9254 1487.0941,-419.3155"/>
</g>
<!-- node_10&#45;&gt;node_18 -->
<g id="edge19" class="edge">
<title>node_10&#45;&gt;node_18</title>
<path fill="none" stroke="#000000" d="M1362.5266,-447.8724C1351.569,-428.2118 1339.0193,-396.8513 1355.1289,-376 1366.0515,-361.8625 1397.9985,-350.7245 1433.6254,-342.3283"/>
<polygon fill="#000000" stroke="#000000" points="1434.7779,-345.6559 1443.7572,-340.0326 1433.2309,-338.829 1434.7779,-345.6559"/>
</g>
<!-- node_11 -->
<g id="node25" class="node">
<title>node_11</title>
<polygon fill="none" stroke="#000000" points="1635.7833,-268 1488.4745,-268 1488.4745,-232 1635.7833,-232 1635.7833,-268"/>
<text text-anchor="middle" x="1562.1289" y="-245.8" font-family="Times,serif" font-size="14.00" fill="#000000">transmit testset&#45;&gt;Client</text>
</g>
<!-- node_11&#45;&gt;node_28 -->
<g id="edge35" class="edge">
<title>node_11&#45;&gt;node_28</title>
<path fill="none" stroke="#000000" stroke-dasharray="1,5" d="M1488.4619,-233.3158C1485.6538,-232.8431 1482.8689,-232.4018 1480.1289,-232 1316.0824,-207.9436 1272.1861,-227.9834 1108.1289,-204 1098.6361,-202.6123 804.1266,-138.1409 743.4635,-123.9369"/>
<polygon fill="#000000" stroke="#000000" points="743.9397,-120.4504 733.3948,-121.4777 742.2788,-127.2505 743.9397,-120.4504"/>
</g>
<!-- node_11&#45;&gt;node_5 -->
<g id="edge25" class="edge">
<title>node_11&#45;&gt;node_5</title>
<path fill="none" stroke="#000000" d="M1558.9626,-231.7623C1554.6797,-207.0928 1547.0004,-162.8598 1541.9853,-133.9731"/>
<polygon fill="#000000" stroke="#000000" points="1545.4285,-133.3435 1540.2695,-124.0896 1538.5317,-134.541 1545.4285,-133.3435"/>
</g>
<!-- node_12&#45;&gt;node_1 -->
<g id="edge30" class="edge">
<title>node_12&#45;&gt;node_1</title>
<path fill="none" stroke="#000000" d="M2108.0465,-375.9845C2032.5433,-367.932 1947.603,-356.7797 1861.8601,-339.9703"/>
<polygon fill="#000000" stroke="#000000" points="1862.4337,-336.5159 1851.9435,-338.0015 1861.0705,-343.3819 1862.4337,-336.5159"/>
</g>
<!-- node_13 -->
<g id="node27" class="node">
<title>node_13</title>
<polygon fill="none" stroke="#000000" points="2245.1016,-484 1977.1562,-484 1977.1562,-448 2245.1016,-448 2245.1016,-484"/>
<text text-anchor="middle" x="2111.1289" y="-461.8" font-family="Times,serif" font-size="14.00" fill="#000000">cast indices_train from jsonlist to builtin.List</text>
</g>
<!-- node_13&#45;&gt;node_0 -->
<g id="edge21" class="edge">
<title>node_13&#45;&gt;node_0</title>
<path fill="none" stroke="#000000" d="M1976.7821,-449.0847C1973.8714,-448.7197 1970.9841,-448.3577 1968.1289,-448 1875.8526,-436.4384 1772.5068,-423.5479 1689.9267,-413.2614"/>
<polygon fill="#000000" stroke="#000000" points="1690.317,-409.7831 1679.961,-412.0202 1689.4517,-416.7294 1690.317,-409.7831"/>
</g>
<!-- node_15 -->
<g id="node29" class="node">
<title>node_15</title>
<polygon fill="none" stroke="#000000" points="1787.7912,-196 1728.4666,-196 1728.4666,-160 1787.7912,-160 1787.7912,-196"/>
<text text-anchor="middle" x="1758.1289" y="-173.8" font-family="Times,serif" font-size="14.00" fill="#000000">store s1</text>
</g>
<!-- node_14&#45;&gt;node_15 -->
<g id="edge12" class="edge">
<title>node_14&#45;&gt;node_15</title>
<path fill="none" stroke="#000000" d="M1773.0821,-231.8314C1770.9196,-224.0463 1768.3436,-214.7729 1765.9441,-206.1347"/>
<polygon fill="#000000" stroke="#000000" points="1769.2925,-205.1117 1763.2437,-196.4133 1762.5479,-206.9852 1769.2925,-205.1117"/>
</g>
<!-- node_16 -->
<g id="node30" class="node">
<title>node_16</title>
<polygon fill="none" stroke="#000000" points="1690.2389,-196 1566.0189,-196 1566.0189,-160 1690.2389,-160 1690.2389,-196"/>
<text text-anchor="middle" x="1628.1289" y="-173.8" font-family="Times,serif" font-size="14.00" fill="#000000">transmit s1&#45;&gt;Client</text>
</g>
<!-- node_14&#45;&gt;node_16 -->
<g id="edge14" class="edge">
<title>node_14&#45;&gt;node_16</title>
<path fill="none" stroke="#000000" d="M1740.2776,-231.8314C1720.3943,-222.2874 1695.8507,-210.5065 1674.7984,-200.4013"/>
<polygon fill="#000000" stroke="#000000" points="1676.2379,-197.21 1665.7081,-196.038 1673.2087,-203.5207 1676.2379,-197.21"/>
</g>
<!-- node_17 -->
<g id="node31" class="node">
<title>node_17</title>
<polygon fill="none" stroke="#000000" points="1508.4975,-196 1333.7604,-196 1333.7604,-160 1508.4975,-160 1508.4975,-196"/>
<text text-anchor="middle" x="1421.1289" y="-173.8" font-family="Times,serif" font-size="14.00" fill="#000000">transmit predictions&#45;&gt;Client</text>
</g>
<!-- node_14&#45;&gt;node_17 -->
<g id="edge16" class="edge">
<title>node_14&#45;&gt;node_17</title>
<path fill="none" stroke="#000000" d="M1688.5035,-231.9243C1636.6954,-221.4756 1571.4768,-208.3223 1518.4222,-197.6222"/>
<polygon fill="#000000" stroke="#000000" points="1518.8173,-194.1315 1508.3227,-195.5853 1517.4333,-200.9933 1518.8173,-194.1315"/>
</g>
<!-- node_15&#45;&gt;node_5 -->
<g id="edge23" class="edge">
<title>node_15&#45;&gt;node_5</title>
<path fill="none" stroke="#000000" d="M1728.3239,-168.2898C1696.1882,-157.8202 1644.0314,-140.828 1602.3049,-127.2338"/>
<polygon fill="#000000" stroke="#000000" points="1603.3506,-123.8935 1592.7583,-124.1236 1601.1822,-130.5492 1603.3506,-123.8935"/>
</g>
<!-- node_16&#45;&gt;node_22 -->
<g id="edge38" class="edge">
<title>node_16&#45;&gt;node_22</title>
<path fill="none" stroke="#000000" stroke-dasharray="1,5" d="M1565.9681,-167.4554C1550.0659,-164.8855 1532.9806,-162.2354 1517.1289,-160 1368.7412,-139.0744 1192.0847,-119.3974 1111.3453,-110.6925"/>
<polygon fill="#000000" stroke="#000000" points="1111.3783,-107.1759 1101.0615,-109.5872 1110.6302,-114.1359 1111.3783,-107.1759"/>
</g>
<!-- node_16&#45;&gt;node_5 -->
<g id="edge31" class="edge">
<title>node_16&#45;&gt;node_5</title>
<path fill="none" stroke="#000000" d="M1605.1658,-159.8314C1593.9574,-150.9632 1580.308,-140.1637 1568.185,-130.5718"/>
<polygon fill="#000000" stroke="#000000" points="1570.0986,-127.6229 1560.0847,-124.1628 1565.7552,-133.1125 1570.0986,-127.6229"/>
</g>
<!-- node_17&#45;&gt;node_23 -->
<g id="edge39" class="edge">
<title>node_17&#45;&gt;node_23</title>
<path fill="none" stroke="#000000" stroke-dasharray="1,5" d="M1333.9198,-163.5577C1325.8821,-162.3173 1317.8582,-161.1128 1310.1289,-160 1186.5419,-142.207 1151.647,-148.1219 1025.072,-124.0397"/>
<polygon fill="#000000" stroke="#000000" points="1025.4714,-120.5523 1014.9895,-122.0955 1024.1459,-127.4257 1025.4714,-120.5523"/>
</g>
<!-- node_17&#45;&gt;node_5 -->
<g id="edge22" class="edge">
<title>node_17&#45;&gt;node_5</title>
<path fill="none" stroke="#000000" d="M1450.4006,-159.8314C1465.2377,-150.6221 1483.4304,-139.3301 1499.3151,-129.4706"/>
<polygon fill="#000000" stroke="#000000" points="1501.2159,-132.4102 1507.8666,-124.1628 1497.5244,-126.4628 1501.2159,-132.4102"/>
</g>
<!-- node_18&#45;&gt;node_11 -->
<g id="edge33" class="edge">
<title>node_18&#45;&gt;node_11</title>
<path fill="none" stroke="#000000" d="M1562.1289,-303.8314C1562.1289,-296.131 1562.1289,-286.9743 1562.1289,-278.4166"/>
<polygon fill="#000000" stroke="#000000" points="1565.629,-278.4132 1562.1289,-268.4133 1558.629,-278.4133 1565.629,-278.4132"/>
</g>
<!-- node_18&#45;&gt;node_14 -->
<g id="edge34" class="edge">
<title>node_18&#45;&gt;node_14</title>
<path fill="none" stroke="#000000" d="M1616.356,-303.9243C1646.0129,-294.0387 1682.9326,-281.7321 1714.011,-271.3726"/>
<polygon fill="#000000" stroke="#000000" points="1715.4995,-274.5659 1723.8795,-268.0831 1713.2858,-267.9251 1715.4995,-274.5659"/>
</g>
<!-- node_19&#45;&gt;node_13 -->
<g id="edge26" class="edge">
<title>node_19&#45;&gt;node_13</title>
<path fill="none" stroke="#000000" d="M2298.366,-519.9243C2263.5952,-509.9103 2220.1985,-497.412 2183.9415,-486.97"/>
<polygon fill="#000000" stroke="#000000" points="2184.4957,-483.4874 2173.9176,-484.0831 2182.5584,-490.214 2184.4957,-483.4874"/>
</g>
<!-- node_20 -->
<g id="node34" class="node">
<title>node_20</title>
<polygon fill="none" stroke="#000000" points="1463.1289,-556 1399.4311,-538 1463.1289,-520 1526.8267,-538 1463.1289,-556"/>
<text text-anchor="middle" x="1463.1289" y="-533.8" font-family="Times,serif" font-size="14.00" fill="#000000">executor1</text>
</g>
</g>
</svg>
