<?xml version="1.0" encoding="UTF-8" standalone="no"?>
<!DOCTYPE svg PUBLIC "-//W3C//DTD SVG 1.1//EN"
 "http://www.w3.org/Graphics/SVG/1.1/DTD/svg11.dtd">
<!-- Generated by graphviz version 2.40.1 (20161225.0304)
 -->
<!-- Title: %3 Pages: 1 -->
<svg width="657pt" height="364pt"
 viewBox="0.00 0.00 657.00 364.00" xmlns="http://www.w3.org/2000/svg" xmlns:xlink="http://www.w3.org/1999/xlink">
<g id="graph0" class="graph" transform="scale(1 1) rotate(0) translate(4 360)">
<title>%3</title>
<polygon fill="#ffffff" stroke="transparent" points="-4,4 -4,-360 653,-360 653,4 -4,4"/>
<g id="clust1" class="cluster">
<title>cluster_Core Client</title>
<polygon fill="none" stroke="#000000" points="8,-8 8,-60 444,-60 444,-8 8,-8"/>
</g>
<g id="clust2" class="cluster">
<title>cluster_Executor 2</title>
<polygon fill="none" stroke="#000000" points="160,-80 160,-348 641,-348 641,-80 160,-80"/>
</g>
<!-- 112797691 -->
<g id="node1" class="node">
<title>112797691</title>
<polygon fill="none" stroke="#000000" points="436.2456,-52 373.7544,-52 373.7544,-16 436.2456,-16 436.2456,-52"/>
<text text-anchor="middle" x="405" y="-29.8" font-family="Times,serif" font-size="14.00" fill="#000000">accept p</text>
</g>
<!-- 7967307 -->
<g id="node2" class="node">
<title>7967307</title>
<polygon fill="none" stroke="#000000" points="355.5498,-52 256.4502,-52 256.4502,-16 355.5498,-16 355.5498,-52"/>
<text text-anchor="middle" x="306" y="-29.8" font-family="Times,serif" font-size="14.00" fill="#000000">accept gerade1</text>
</g>
<!-- 1045997582 -->
<g id="node3" class="node">
<title>1045997582</title>
<polygon fill="none" stroke="#000000" points="523.8751,-124 374.1249,-124 374.1249,-88 523.8751,-88 523.8751,-124"/>
<text text-anchor="middle" x="449" y="-101.8" font-family="Times,serif" font-size="14.00" fill="#000000">transmit p&#45;&gt;Core Client</text>
</g>
<!-- 1045997582&#45;&gt;112797691 -->
<g id="edge8" class="edge">
<title>1045997582&#45;&gt;112797691</title>
<path fill="none" stroke="#000000" stroke-dasharray="1,5" d="M437.8969,-87.8314C432.9326,-79.7079 426.9778,-69.9637 421.5072,-61.0118"/>
<polygon fill="#000000" stroke="#000000" points="424.4536,-59.121 416.2526,-52.4133 418.4806,-62.7712 424.4536,-59.121"/>
</g>
<!-- 2073707154 -->
<g id="node4" class="node">
<title>2073707154</title>
<polygon fill="none" stroke="#000000" points="355.6788,-124 168.3212,-124 168.3212,-88 355.6788,-88 355.6788,-124"/>
<text text-anchor="middle" x="262" y="-101.8" font-family="Times,serif" font-size="14.00" fill="#000000">transmit gerade1&#45;&gt;Core Client</text>
</g>
<!-- 2073707154&#45;&gt;7967307 -->
<g id="edge9" class="edge">
<title>2073707154&#45;&gt;7967307</title>
<path fill="none" stroke="#000000" stroke-dasharray="1,5" d="M273.1031,-87.8314C278.0674,-79.7079 284.0222,-69.9637 289.4928,-61.0118"/>
<polygon fill="#000000" stroke="#000000" points="292.5194,-62.7712 294.7474,-52.4133 286.5464,-59.121 292.5194,-62.7712"/>
</g>
<!-- Core Client -->
<g id="node5" class="node">
<title>Core Client</title>
<polygon fill="none" stroke="#ffa500" stroke-width="2" points="238.3872,-39.5623 175,-52 111.6128,-39.5623 111.672,-19.4377 238.328,-19.4377 238.3872,-39.5623"/>
<text text-anchor="middle" x="175" y="-29.8" font-family="Times,serif" font-size="14.00" fill="#000000">Core Client</text>
</g>
<!-- 1287934450 -->
<g id="node6" class="node">
<title>1287934450</title>
<polygon fill="none" stroke="#000000" points="93.5381,-52 16.4619,-52 16.4619,-16 93.5381,-16 93.5381,-52"/>
<text text-anchor="middle" x="55" y="-29.8" font-family="Times,serif" font-size="14.00" fill="#000000">send graph</text>
</g>
<!-- Executor 2 -->
<g id="node7" class="node">
<title>Executor 2</title>
<polygon fill="none" stroke="#ffa500" stroke-width="2" points="633.2915,-327.5623 573,-340 512.7085,-327.5623 512.7647,-307.4377 633.2353,-307.4377 633.2915,-327.5623"/>
<text text-anchor="middle" x="573" y="-317.8" font-family="Times,serif" font-size="14.00" fill="#000000">Executor 2</text>
</g>
<!-- 899644639 -->
<g id="node8" class="node">
<title>899644639</title>
<polygon fill="none" stroke="#000000" points="514.1583,-196 375.8417,-196 375.8417,-160 514.1583,-160 514.1583,-196"/>
<text text-anchor="middle" x="445" y="-173.8" font-family="Times,serif" font-size="14.00" fill="#000000">p = gerade1::calc([1])</text>
</g>
<!-- 899644639&#45;&gt;1045997582 -->
<g id="edge1" class="edge">
<title>899644639&#45;&gt;1045997582</title>
<path fill="none" stroke="#000000" d="M446.0094,-159.8314C446.4372,-152.131 446.9459,-142.9743 447.4213,-134.4166"/>
<polygon fill="#000000" stroke="#000000" points="450.9169,-134.592 447.977,-124.4133 443.9276,-134.2037 450.9169,-134.592"/>
</g>
<!-- 899644639&#45;&gt;2073707154 -->
<g id="edge2" class="edge">
<title>899644639&#45;&gt;2073707154</title>
<path fill="none" stroke="#000000" d="M398.8214,-159.8314C374.0199,-150.0734 343.275,-137.977 317.2157,-127.7242"/>
<polygon fill="#000000" stroke="#000000" points="318.4337,-124.4423 307.8466,-124.038 315.8708,-130.9563 318.4337,-124.4423"/>
</g>
<!-- 1336996537 -->
<g id="node11" class="node">
<title>1336996537</title>
<polygon fill="none" stroke="#000000" points="632.5176,-124 541.4824,-124 541.4824,-88 632.5176,-88 632.5176,-124"/>
<text text-anchor="middle" x="587" y="-101.8" font-family="Times,serif" font-size="14.00" fill="#000000">store gerade1</text>
</g>
<!-- 899644639&#45;&gt;1336996537 -->
<g id="edge3" class="edge">
<title>899644639&#45;&gt;1336996537</title>
<path fill="none" stroke="#000000" d="M480.8326,-159.8314C499.4157,-150.4089 522.2989,-138.8062 542.0565,-128.7883"/>
<polygon fill="#000000" stroke="#000000" points="543.8427,-131.8069 551.1789,-124.1628 540.677,-125.5635 543.8427,-131.8069"/>
</g>
<!-- 1766505436 -->
<g id="node9" class="node">
<title>1766505436</title>
<polygon fill="none" stroke="#000000" points="594.6172,-268 295.3828,-268 295.3828,-232 594.6172,-232 594.6172,-268"/>
<text text-anchor="middle" x="445" y="-245.8" font-family="Times,serif" font-size="14.00" fill="#000000">gerade1 = demo.math.Gerade::__construct([2, &#45;1])</text>
</g>
<!-- 1766505436&#45;&gt;899644639 -->
<g id="edge4" class="edge">
<title>1766505436&#45;&gt;899644639</title>
<path fill="none" stroke="#000000" d="M445,-231.8314C445,-224.131 445,-214.9743 445,-206.4166"/>
<polygon fill="#000000" stroke="#000000" points="448.5001,-206.4132 445,-196.4133 441.5001,-206.4133 448.5001,-206.4132"/>
</g>
<!-- 1666607455 -->
<g id="node10" class="node">
<title>1666607455</title>
<polygon fill="none" stroke="#000000" points="366.9658,-340 253.0342,-340 253.0342,-304 366.9658,-304 366.9658,-340"/>
<text text-anchor="middle" x="310" y="-317.8" font-family="Times,serif" font-size="14.00" fill="#000000">parse Number: &#45;1</text>
</g>
<!-- 1666607455&#45;&gt;1766505436 -->
<g id="edge5" class="edge">
<title>1666607455&#45;&gt;1766505436</title>
<path fill="none" stroke="#000000" d="M344.0662,-303.8314C361.6533,-294.4516 383.2916,-282.9112 402.0168,-272.9244"/>
<polygon fill="#000000" stroke="#000000" points="403.7682,-275.957 410.9447,-268.1628 400.4741,-269.7805 403.7682,-275.957"/>
</g>
<!-- 1164440413 -->
<g id="node12" class="node">
<title>1164440413</title>
<polygon fill="none" stroke="#000000" points="494.8041,-340 385.1959,-340 385.1959,-304 494.8041,-304 494.8041,-340"/>
<text text-anchor="middle" x="440" y="-317.8" font-family="Times,serif" font-size="14.00" fill="#000000">parse Number: 2</text>
</g>
<!-- 1164440413&#45;&gt;1766505436 -->
<g id="edge6" class="edge">
<title>1164440413&#45;&gt;1766505436</title>
<path fill="none" stroke="#000000" d="M441.2617,-303.8314C441.7965,-296.131 442.4323,-286.9743 443.0266,-278.4166"/>
<polygon fill="#000000" stroke="#000000" points="446.52,-278.6317 443.7213,-268.4133 439.5368,-278.1467 446.52,-278.6317"/>
</g>
<!-- 1332668132 -->
<g id="node13" class="node">
<title>1332668132</title>
<polygon fill="none" stroke="#000000" points="277.8041,-268 168.1959,-268 168.1959,-232 277.8041,-232 277.8041,-268"/>
<text text-anchor="middle" x="223" y="-245.8" font-family="Times,serif" font-size="14.00" fill="#000000">parse Number: 1</text>
</g>
<!-- 1332668132&#45;&gt;899644639 -->
<g id="edge7" class="edge">
<title>1332668132&#45;&gt;899644639</title>
<path fill="none" stroke="#000000" d="M277.8764,-232.2022C308.596,-222.2391 347.0983,-209.7519 379.4021,-199.275"/>
<polygon fill="#000000" stroke="#000000" points="380.7804,-202.5075 389.2129,-196.0931 378.6209,-195.849 380.7804,-202.5075"/>
</g>
</g>
</svg>
