<?xml version="1.0" encoding="UTF-8" standalone="no"?>
<!DOCTYPE svg PUBLIC "-//W3C//DTD SVG 1.1//EN"
 "http://www.w3.org/Graphics/SVG/1.1/DTD/svg11.dtd">
<!-- Generated by graphviz version 2.40.1 (20161225.0304)
 -->
<!-- Title: %3 Pages: 1 -->
<svg width="472pt" height="260pt"
 viewBox="0.00 0.00 472.45 260.00" xmlns="http://www.w3.org/2000/svg" xmlns:xlink="http://www.w3.org/1999/xlink">
<g id="graph0" class="graph" transform="scale(1 1) rotate(0) translate(4 256)">
<title>%3</title>
<polygon fill="#ffffff" stroke="transparent" points="-4,4 -4,-256 468.4463,-256 468.4463,4 -4,4"/>
<!-- 899644639 -->
<g id="node1" class="node">
<title>899644639</title>
<polygon fill="none" stroke="#000000" points="331.0958,-108 192.7792,-108 192.7792,-72 331.0958,-72 331.0958,-108"/>
<text text-anchor="middle" x="261.9375" y="-85.8" font-family="Times,serif" font-size="14.00" fill="#000000">p = gerade1::calc([1])</text>
</g>
<!-- 1045997582 -->
<g id="node3" class="node">
<title>1045997582</title>
<polygon fill="none" stroke="#000000" points="149.8126,-36 .0624,-36 .0624,0 149.8126,0 149.8126,-36"/>
<text text-anchor="middle" x="74.9375" y="-13.8" font-family="Times,serif" font-size="14.00" fill="#000000">transmit p&#45;&gt;Core Client</text>
</g>
<!-- 899644639&#45;&gt;1045997582 -->
<g id="edge1" class="edge">
<title>899644639&#45;&gt;1045997582</title>
<path fill="none" stroke="#000000" d="M214.7495,-71.8314C189.4059,-62.0734 157.989,-49.977 131.3601,-39.7242"/>
<polygon fill="#000000" stroke="#000000" points="132.376,-36.3649 121.7862,-36.038 129.8607,-42.8974 132.376,-36.3649"/>
</g>
<!-- 2073707154 -->
<g id="node4" class="node">
<title>2073707154</title>
<polygon fill="none" stroke="#000000" points="355.6163,-36 168.2587,-36 168.2587,0 355.6163,0 355.6163,-36"/>
<text text-anchor="middle" x="261.9375" y="-13.8" font-family="Times,serif" font-size="14.00" fill="#000000">transmit gerade1&#45;&gt;Core Client</text>
</g>
<!-- 899644639&#45;&gt;2073707154 -->
<g id="edge2" class="edge">
<title>899644639&#45;&gt;2073707154</title>
<path fill="none" stroke="#000000" d="M261.9375,-71.8314C261.9375,-64.131 261.9375,-54.9743 261.9375,-46.4166"/>
<polygon fill="#000000" stroke="#000000" points="265.4376,-46.4132 261.9375,-36.4133 258.4376,-46.4133 265.4376,-46.4132"/>
</g>
<!-- 1336996537 -->
<g id="node6" class="node">
<title>1336996537</title>
<polygon fill="none" stroke="#000000" points="464.4551,-36 373.4199,-36 373.4199,0 464.4551,0 464.4551,-36"/>
<text text-anchor="middle" x="418.9375" y="-13.8" font-family="Times,serif" font-size="14.00" fill="#000000">store gerade1</text>
</g>
<!-- 899644639&#45;&gt;1336996537 -->
<g id="edge3" class="edge">
<title>899644639&#45;&gt;1336996537</title>
<path fill="none" stroke="#000000" d="M301.5552,-71.8314C322.4597,-62.2446 348.2858,-50.4008 370.3863,-40.2655"/>
<polygon fill="#000000" stroke="#000000" points="371.9739,-43.388 379.6047,-36.038 369.0559,-37.0252 371.9739,-43.388"/>
</g>
<!-- 1766505436 -->
<g id="node2" class="node">
<title>1766505436</title>
<polygon fill="none" stroke="#000000" points="300.5547,-180 1.3203,-180 1.3203,-144 300.5547,-144 300.5547,-180"/>
<text text-anchor="middle" x="150.9375" y="-157.8" font-family="Times,serif" font-size="14.00" fill="#000000">gerade1 = demo.math.Gerade::__construct([2, &#45;1])</text>
</g>
<!-- 1766505436&#45;&gt;899644639 -->
<g id="edge4" class="edge">
<title>1766505436&#45;&gt;899644639</title>
<path fill="none" stroke="#000000" d="M178.9475,-143.8314C193.0136,-134.7074 210.2315,-123.539 225.3308,-113.7449"/>
<polygon fill="#000000" stroke="#000000" points="227.4515,-116.5412 233.9365,-108.1628 223.6422,-110.6684 227.4515,-116.5412"/>
</g>
<!-- 1666607455 -->
<g id="node5" class="node">
<title>1666607455</title>
<polygon fill="none" stroke="#000000" points="142.9033,-252 28.9717,-252 28.9717,-216 142.9033,-216 142.9033,-252"/>
<text text-anchor="middle" x="85.9375" y="-229.8" font-family="Times,serif" font-size="14.00" fill="#000000">parse Number: &#45;1</text>
</g>
<!-- 1666607455&#45;&gt;1766505436 -->
<g id="edge5" class="edge">
<title>1666607455&#45;&gt;1766505436</title>
<path fill="none" stroke="#000000" d="M102.3397,-215.8314C109.979,-207.3694 119.2058,-197.1489 127.5582,-187.8971"/>
<polygon fill="#000000" stroke="#000000" points="130.2113,-190.1813 134.3144,-180.4133 125.0154,-185.4906 130.2113,-190.1813"/>
</g>
<!-- 1164440413 -->
<g id="node7" class="node">
<title>1164440413</title>
<polygon fill="none" stroke="#000000" points="270.7416,-252 161.1334,-252 161.1334,-216 270.7416,-216 270.7416,-252"/>
<text text-anchor="middle" x="215.9375" y="-229.8" font-family="Times,serif" font-size="14.00" fill="#000000">parse Number: 2</text>
</g>
<!-- 1164440413&#45;&gt;1766505436 -->
<g id="edge6" class="edge">
<title>1164440413&#45;&gt;1766505436</title>
<path fill="none" stroke="#000000" d="M199.5353,-215.8314C191.896,-207.3694 182.6692,-197.1489 174.3168,-187.8971"/>
<polygon fill="#000000" stroke="#000000" points="176.8596,-185.4906 167.5606,-180.4133 171.6637,-190.1813 176.8596,-185.4906"/>
</g>
<!-- 1332668132 -->
<g id="node8" class="node">
<title>1332668132</title>
<polygon fill="none" stroke="#000000" points="427.7416,-180 318.1334,-180 318.1334,-144 427.7416,-144 427.7416,-180"/>
<text text-anchor="middle" x="372.9375" y="-157.8" font-family="Times,serif" font-size="14.00" fill="#000000">parse Number: 1</text>
</g>
<!-- 1332668132&#45;&gt;899644639 -->
<g id="edge7" class="edge">
<title>1332668132&#45;&gt;899644639</title>
<path fill="none" stroke="#000000" d="M344.9275,-143.8314C330.8614,-134.7074 313.6435,-123.539 298.5442,-113.7449"/>
<polygon fill="#000000" stroke="#000000" points="300.2328,-110.6684 289.9385,-108.1628 296.4235,-116.5412 300.2328,-110.6684"/>
</g>
</g>
</svg>
