<?xml version="1.0" encoding="UTF-8" standalone="no"?>
<!DOCTYPE svg PUBLIC "-//W3C//DTD SVG 1.1//EN"
 "http://www.w3.org/Graphics/SVG/1.1/DTD/svg11.dtd">
<!-- Generated by graphviz version 2.40.1 (20161225.0304)
 -->
<!-- Title: %3 Pages: 1 -->
<svg width="491pt" height="220pt"
 viewBox="0.00 0.00 491.00 220.00" xmlns="http://www.w3.org/2000/svg" xmlns:xlink="http://www.w3.org/1999/xlink">
<g id="graph0" class="graph" transform="scale(1 1) rotate(0) translate(4 216)">
<title>%3</title>
<polygon fill="#ffffff" stroke="transparent" points="-4,4 -4,-216 487,-216 487,4 -4,4"/>
<g id="clust1" class="cluster">
<title>cluster_2084663827</title>
<polygon fill="none" stroke="#000000" points="8,-8 8,-204 475,-204 475,-8 8,-8"/>
</g>
<!-- node_0 -->
<g id="node1" class="node">
<title>node_0</title>
<polygon fill="none" stroke="#000000" points="466.8041,-196 357.1959,-196 357.1959,-160 466.8041,-160 466.8041,-196"/>
<text text-anchor="middle" x="412" y="-173.8" font-family="Times,serif" font-size="14.00" fill="#000000">parse Number: 1</text>
</g>
<!-- node_1 -->
<g id="node2" class="node">
<title>node_1</title>
<polygon fill="none" stroke="#000000" points="339.6065,-124 66.3935,-124 66.3935,-88 339.6065,-88 339.6065,-124"/>
<text text-anchor="middle" x="203" y="-101.8" font-family="Times,serif" font-size="14.00" fill="#000000">b = plainlib.package1.b.B::__construct([0, 1])</text>
</g>
<!-- node_0&#45;&gt;node_1 -->
<g id="edge1" class="edge">
<title>node_0&#45;&gt;node_1</title>
<path fill="none" stroke="#000000" d="M359.5302,-159.9243C330.8345,-150.0387 295.1112,-137.7321 265.04,-127.3726"/>
<polygon fill="#000000" stroke="#000000" points="266.0861,-124.0312 255.4913,-124.0831 263.806,-130.6495 266.0861,-124.0312"/>
</g>
<!-- node_2 -->
<g id="node3" class="node">
<title>node_2</title>
<polygon fill="none" stroke="#000000" points="230,-52 176,-52 176,-16 230,-16 230,-52"/>
<text text-anchor="middle" x="203" y="-29.8" font-family="Times,serif" font-size="14.00" fill="#000000">store b</text>
</g>
<!-- node_1&#45;&gt;node_2 -->
<g id="edge2" class="edge">
<title>node_1&#45;&gt;node_2</title>
<path fill="none" stroke="#000000" d="M203,-87.8314C203,-80.131 203,-70.9743 203,-62.4166"/>
<polygon fill="#000000" stroke="#000000" points="206.5001,-62.4132 203,-52.4133 199.5001,-62.4133 206.5001,-62.4132"/>
</g>
<!-- node_5 -->
<g id="node6" class="node">
<title>node_5</title>
<polygon fill="none" stroke="#000000" points="412.9854,-52 301.0146,-52 301.0146,-16 412.9854,-16 412.9854,-52"/>
<text text-anchor="middle" x="357" y="-29.8" font-family="Times,serif" font-size="14.00" fill="#000000">erg = b::calc([3])</text>
</g>
<!-- node_1&#45;&gt;node_5 -->
<g id="edge4" class="edge">
<title>node_1&#45;&gt;node_5</title>
<path fill="none" stroke="#000000" d="M241.8607,-87.8314C262.2742,-78.2874 287.4723,-66.5065 309.086,-56.4013"/>
<polygon fill="#000000" stroke="#000000" points="310.8423,-59.4439 318.4187,-52.038 307.8775,-53.1027 310.8423,-59.4439"/>
</g>
<!-- node_3 -->
<g id="node4" class="node">
<title>node_3</title>
<polygon fill="none" stroke="#000000" points="466.8041,-124 357.1959,-124 357.1959,-88 466.8041,-88 466.8041,-124"/>
<text text-anchor="middle" x="412" y="-101.8" font-family="Times,serif" font-size="14.00" fill="#000000">parse Number: 3</text>
</g>
<!-- node_3&#45;&gt;node_5 -->
<g id="edge3" class="edge">
<title>node_3&#45;&gt;node_5</title>
<path fill="none" stroke="#000000" d="M398.1212,-87.8314C391.7864,-79.5386 384.1616,-69.557 377.2074,-60.4533"/>
<polygon fill="#000000" stroke="#000000" points="379.9175,-58.2353 371.0657,-52.4133 374.3548,-62.4847 379.9175,-58.2353"/>
</g>
<!-- node_4 -->
<g id="node5" class="node">
<title>node_4</title>
<polygon fill="none" stroke="#000000" points="339.8041,-196 230.1959,-196 230.1959,-160 339.8041,-160 339.8041,-196"/>
<text text-anchor="middle" x="285" y="-173.8" font-family="Times,serif" font-size="14.00" fill="#000000">parse Number: 0</text>
</g>
<!-- node_4&#45;&gt;node_1 -->
<g id="edge5" class="edge">
<title>node_4&#45;&gt;node_1</title>
<path fill="none" stroke="#000000" d="M264.3079,-159.8314C254.3052,-151.0485 242.145,-140.3712 231.3001,-130.8489"/>
<polygon fill="#000000" stroke="#000000" points="233.5092,-128.1308 223.6854,-124.1628 228.8906,-133.3909 233.5092,-128.1308"/>
</g>
<!-- node_6 -->
<g id="node7" class="node">
<title>node_6</title>
<polygon fill="none" stroke="#000000" points="114,-196 15.8199,-178 114,-160 212.1801,-178 114,-196"/>
<text text-anchor="middle" x="114" y="-173.8" font-family="Times,serif" font-size="14.00" fill="#000000">python_executor</text>
</g>
</g>
</svg>
