<?xml version="1.0" encoding="UTF-8" standalone="no"?>
<!DOCTYPE svg PUBLIC "-//W3C//DTD SVG 1.1//EN"
 "http://www.w3.org/Graphics/SVG/1.1/DTD/svg11.dtd">
<!-- Generated by graphviz version 2.40.1 (20161225.0304)
 -->
<!-- Title: %3 Pages: 1 -->
<svg width="624pt" height="436pt"
 viewBox="0.00 0.00 624.00 436.00" xmlns="http://www.w3.org/2000/svg" xmlns:xlink="http://www.w3.org/1999/xlink">
<g id="graph0" class="graph" transform="scale(1 1) rotate(0) translate(4 432)">
<title>%3</title>
<polygon fill="#ffffff" stroke="transparent" points="-4,4 -4,-432 620,-432 620,4 -4,4"/>
<g id="clust1" class="cluster">
<title>cluster_2143431083</title>
<polygon fill="none" stroke="#000000" points="97,-80 97,-420 564,-420 564,-80 97,-80"/>
</g>
<g id="clust2" class="cluster">
<title>cluster_750468423</title>
<polygon fill="none" stroke="#000000" points="8,-8 8,-60 608,-60 608,-8 8,-8"/>
</g>
<!-- node_0 -->
<g id="node1" class="node">
<title>node_0</title>
<polygon fill="none" stroke="#000000" points="367.0371,-196 250.9629,-196 250.9629,-160 367.0371,-160 367.0371,-196"/>
<text text-anchor="middle" x="309" y="-173.8" font-family="Times,serif" font-size="14.00" fill="#000000">transmit b&#45;&gt;client</text>
</g>
<!-- node_1 -->
<g id="node2" class="node">
<title>node_1</title>
<polygon fill="none" stroke="#000000" points="354.5381,-124 109.4619,-124 109.4619,-88 354.5381,-88 354.5381,-124"/>
<text text-anchor="middle" x="232" y="-101.8" font-family="Times,serif" font-size="14.00" fill="#000000">FinishNode &amp;finished&amp;python_executor</text>
</g>
<!-- node_0&#45;&gt;node_1 -->
<g id="edge1" class="edge">
<title>node_0&#45;&gt;node_1</title>
<path fill="none" stroke="#000000" d="M289.5696,-159.8314C280.268,-151.1337 268.9796,-140.5783 258.8714,-131.1265"/>
<polygon fill="#000000" stroke="#000000" points="261.1189,-128.4363 251.4241,-124.1628 256.3379,-133.5493 261.1189,-128.4363"/>
</g>
<!-- node_10 -->
<g id="node11" class="node">
<title>node_10</title>
<polygon fill="none" stroke="#000000" points="414.2456,-52 351.7544,-52 351.7544,-16 414.2456,-16 414.2456,-52"/>
<text text-anchor="middle" x="383" y="-29.8" font-family="Times,serif" font-size="14.00" fill="#000000">accept b</text>
</g>
<!-- node_0&#45;&gt;node_10 -->
<g id="edge12" class="edge">
<title>node_0&#45;&gt;node_10</title>
<path fill="none" stroke="#000000" stroke-dasharray="1,5" d="M333.1007,-159.914C344.1332,-150.4021 356.4115,-137.8473 364,-124 374.393,-105.035 379.1072,-80.9498 381.2424,-62.4684"/>
<polygon fill="#000000" stroke="#000000" points="384.7453,-62.6062 382.2249,-52.3155 377.7779,-61.9318 384.7453,-62.6062"/>
</g>
<!-- node_13 -->
<g id="node14" class="node">
<title>node_13</title>
<polygon fill="none" stroke="#000000" points="333.9458,-52 118.0542,-52 118.0542,-16 333.9458,-16 333.9458,-52"/>
<text text-anchor="middle" x="226" y="-29.8" font-family="Times,serif" font-size="14.00" fill="#000000">accept &amp;finished&amp;python_executor</text>
</g>
<!-- node_1&#45;&gt;node_13 -->
<g id="edge13" class="edge">
<title>node_1&#45;&gt;node_13</title>
<path fill="none" stroke="#000000" stroke-dasharray="1,5" d="M230.4859,-87.8314C229.8442,-80.131 229.0812,-70.9743 228.3681,-62.4166"/>
<polygon fill="#000000" stroke="#000000" points="231.8529,-62.088 227.5344,-52.4133 224.8771,-62.6694 231.8529,-62.088"/>
</g>
<!-- node_2 -->
<g id="node3" class="node">
<title>node_2</title>
<polygon fill="none" stroke="#000000" points="272,-268 218,-268 218,-232 272,-232 272,-268"/>
<text text-anchor="middle" x="245" y="-245.8" font-family="Times,serif" font-size="14.00" fill="#000000">store b</text>
</g>
<!-- node_2&#45;&gt;node_1 -->
<g id="edge10" class="edge">
<title>node_2&#45;&gt;node_1</title>
<path fill="none" stroke="#000000" d="M243.3535,-231.7623C241.1362,-207.201 237.1682,-163.2474 234.5597,-134.3541"/>
<polygon fill="#000000" stroke="#000000" points="238.0181,-133.7344 233.6331,-124.0896 231.0465,-134.3638 238.0181,-133.7344"/>
</g>
<!-- node_3 -->
<g id="node4" class="node">
<title>node_3</title>
<polygon fill="none" stroke="#000000" points="555.8041,-340 446.1959,-340 446.1959,-304 555.8041,-304 555.8041,-340"/>
<text text-anchor="middle" x="501" y="-317.8" font-family="Times,serif" font-size="14.00" fill="#000000">parse Number: 3</text>
</g>
<!-- node_4 -->
<g id="node5" class="node">
<title>node_4</title>
<polygon fill="none" stroke="#000000" points="527.9854,-268 416.0146,-268 416.0146,-232 527.9854,-232 527.9854,-268"/>
<text text-anchor="middle" x="472" y="-245.8" font-family="Times,serif" font-size="14.00" fill="#000000">erg = b::calc([3])</text>
</g>
<!-- node_3&#45;&gt;node_4 -->
<g id="edge2" class="edge">
<title>node_3&#45;&gt;node_4</title>
<path fill="none" stroke="#000000" d="M493.6821,-303.8314C490.5124,-295.9617 486.73,-286.5712 483.2187,-277.8533"/>
<polygon fill="#000000" stroke="#000000" points="486.3992,-276.3815 479.4165,-268.4133 479.9061,-278.9968 486.3992,-276.3815"/>
</g>
<!-- node_5 -->
<g id="node6" class="node">
<title>node_5</title>
<polygon fill="none" stroke="#000000" points="535.1674,-196 408.8326,-196 408.8326,-160 535.1674,-160 535.1674,-196"/>
<text text-anchor="middle" x="472" y="-173.8" font-family="Times,serif" font-size="14.00" fill="#000000">transmit erg&#45;&gt;client</text>
</g>
<!-- node_4&#45;&gt;node_5 -->
<g id="edge3" class="edge">
<title>node_4&#45;&gt;node_5</title>
<path fill="none" stroke="#000000" d="M472,-231.8314C472,-224.131 472,-214.9743 472,-206.4166"/>
<polygon fill="#000000" stroke="#000000" points="475.5001,-206.4132 472,-196.4133 468.5001,-206.4133 475.5001,-206.4132"/>
</g>
<!-- node_5&#45;&gt;node_1 -->
<g id="edge8" class="edge">
<title>node_5&#45;&gt;node_1</title>
<path fill="none" stroke="#000000" d="M411.7477,-159.9243C378.3677,-149.9103 336.7068,-137.412 301.9001,-126.97"/>
<polygon fill="#000000" stroke="#000000" points="302.8611,-123.6043 292.2771,-124.0831 300.8497,-130.3091 302.8611,-123.6043"/>
</g>
<!-- node_12 -->
<g id="node13" class="node">
<title>node_12</title>
<polygon fill="none" stroke="#000000" points="600.3751,-52 527.6249,-52 527.6249,-16 600.3751,-16 600.3751,-52"/>
<text text-anchor="middle" x="564" y="-29.8" font-family="Times,serif" font-size="14.00" fill="#000000">accept erg</text>
</g>
<!-- node_5&#45;&gt;node_12 -->
<g id="edge11" class="edge">
<title>node_5&#45;&gt;node_12</title>
<path fill="none" stroke="#000000" stroke-dasharray="1,5" d="M483.6519,-159.7623C499.6203,-134.7682 528.4188,-89.6924 546.8517,-60.8409"/>
<polygon fill="#000000" stroke="#000000" points="550.0082,-62.401 552.4427,-52.0896 544.1094,-58.6322 550.0082,-62.401"/>
</g>
<!-- node_6 -->
<g id="node7" class="node">
<title>node_6</title>
<polygon fill="none" stroke="#000000" points="555.8041,-412 446.1959,-412 446.1959,-376 555.8041,-376 555.8041,-412"/>
<text text-anchor="middle" x="501" y="-389.8" font-family="Times,serif" font-size="14.00" fill="#000000">parse Number: 0</text>
</g>
<!-- node_8 -->
<g id="node9" class="node">
<title>node_8</title>
<polygon fill="none" stroke="#000000" points="428.6065,-340 155.3935,-340 155.3935,-304 428.6065,-304 428.6065,-340"/>
<text text-anchor="middle" x="292" y="-317.8" font-family="Times,serif" font-size="14.00" fill="#000000">b = plainlib.package1.b.B::__construct([0, 1])</text>
</g>
<!-- node_6&#45;&gt;node_8 -->
<g id="edge5" class="edge">
<title>node_6&#45;&gt;node_8</title>
<path fill="none" stroke="#000000" d="M448.5302,-375.9243C419.8345,-366.0387 384.1112,-353.7321 354.04,-343.3726"/>
<polygon fill="#000000" stroke="#000000" points="355.0861,-340.0312 344.4913,-340.0831 352.806,-346.6495 355.0861,-340.0312"/>
</g>
<!-- node_7 -->
<g id="node8" class="node">
<title>node_7</title>
<polygon fill="none" stroke="#000000" points="428.8041,-412 319.1959,-412 319.1959,-376 428.8041,-376 428.8041,-412"/>
<text text-anchor="middle" x="374" y="-389.8" font-family="Times,serif" font-size="14.00" fill="#000000">parse Number: 1</text>
</g>
<!-- node_7&#45;&gt;node_8 -->
<g id="edge4" class="edge">
<title>node_7&#45;&gt;node_8</title>
<path fill="none" stroke="#000000" d="M353.3079,-375.8314C343.3052,-367.0485 331.145,-356.3712 320.3001,-346.8489"/>
<polygon fill="#000000" stroke="#000000" points="322.5092,-344.1308 312.6854,-340.1628 317.8906,-349.3909 322.5092,-344.1308"/>
</g>
<!-- node_8&#45;&gt;node_0 -->
<g id="edge6" class="edge">
<title>node_8&#45;&gt;node_0</title>
<path fill="none" stroke="#000000" d="M294.1531,-303.7623C297.0527,-279.201 302.2416,-235.2474 305.6526,-206.3541"/>
<polygon fill="#000000" stroke="#000000" points="309.1678,-206.431 306.8644,-196.0896 302.2161,-205.6103 309.1678,-206.431"/>
</g>
<!-- node_8&#45;&gt;node_2 -->
<g id="edge7" class="edge">
<title>node_8&#45;&gt;node_2</title>
<path fill="none" stroke="#000000" d="M280.1399,-303.8314C274.8371,-295.7079 268.4763,-285.9637 262.6327,-277.0118"/>
<polygon fill="#000000" stroke="#000000" points="265.4169,-274.8739 257.0198,-268.4133 259.5552,-278.7003 265.4169,-274.8739"/>
</g>
<!-- node_8&#45;&gt;node_4 -->
<g id="edge9" class="edge">
<title>node_8&#45;&gt;node_4</title>
<path fill="none" stroke="#000000" d="M337.4216,-303.8314C361.7095,-294.1162 391.7922,-282.0831 417.352,-271.8592"/>
<polygon fill="#000000" stroke="#000000" points="418.9201,-275.0016 426.905,-268.038 416.3204,-268.5023 418.9201,-275.0016"/>
</g>
<!-- node_9 -->
<g id="node10" class="node">
<title>node_9</title>
<polygon fill="none" stroke="#000000" points="203,-412 104.8199,-394 203,-376 301.1801,-394 203,-412"/>
<text text-anchor="middle" x="203" y="-389.8" font-family="Times,serif" font-size="14.00" fill="#000000">python_executor</text>
</g>
<!-- node_11 -->
<g id="node12" class="node">
<title>node_11</title>
<polygon fill="none" stroke="#000000" points="509.5381,-52 432.4619,-52 432.4619,-16 509.5381,-16 509.5381,-52"/>
<text text-anchor="middle" x="471" y="-29.8" font-family="Times,serif" font-size="14.00" fill="#000000">send graph</text>
</g>
<!-- node_14 -->
<g id="node15" class="node">
<title>node_14</title>
<polygon fill="none" stroke="#000000" points="58,-52 15.8546,-34 58,-16 100.1454,-34 58,-52"/>
<text text-anchor="middle" x="58" y="-29.8" font-family="Times,serif" font-size="14.00" fill="#000000">client</text>
</g>
</g>
</svg>
