<?xml version="1.0" encoding="UTF-8" standalone="no"?>
<!DOCTYPE svg PUBLIC "-//W3C//DTD SVG 1.1//EN"
 "http://www.w3.org/Graphics/SVG/1.1/DTD/svg11.dtd">
<!-- Generated by graphviz version 2.40.1 (20161225.0304)
 -->
<!-- Title: %3 Pages: 1 -->
<svg width="1080pt" height="508pt"
 viewBox="0.00 0.00 1080.00 508.00" xmlns="http://www.w3.org/2000/svg" xmlns:xlink="http://www.w3.org/1999/xlink">
<g id="graph0" class="graph" transform="scale(1 1) rotate(0) translate(4 504)">
<title>%3</title>
<polygon fill="#ffffff" stroke="transparent" points="-4,4 -4,-504 1076,-504 1076,4 -4,4"/>
<g id="clust1" class="cluster">
<title>cluster_1769193365</title>
<polygon fill="none" stroke="#000000" points="8,-8 8,-276 579,-276 579,-8 8,-8"/>
</g>
<g id="clust2" class="cluster">
<title>cluster_769429195</title>
<polygon fill="none" stroke="#000000" points="587,-224 587,-492 1064,-492 1064,-224 587,-224"/>
</g>
<!-- node_0 -->
<g id="node1" class="node">
<title>node_0</title>
<polygon fill="none" stroke="#000000" points="491.175,-196 270.825,-196 270.825,-160 491.175,-160 491.175,-196"/>
<text text-anchor="middle" x="381" y="-173.8" font-family="Times,serif" font-size="14.00" fill="#000000">accept &amp;finished&amp;PY_EXECUTOR</text>
</g>
<!-- node_1 -->
<g id="node2" class="node">
<title>node_1</title>
<polygon fill="none" stroke="#000000" points="571.2456,-196 508.7544,-196 508.7544,-160 571.2456,-160 571.2456,-196"/>
<text text-anchor="middle" x="540" y="-173.8" font-family="Times,serif" font-size="14.00" fill="#000000">accept b</text>
</g>
<!-- node_2 -->
<g id="node3" class="node">
<title>node_2</title>
<polygon fill="none" stroke="#000000" points="125.8041,-196 16.1959,-196 16.1959,-160 125.8041,-160 125.8041,-196"/>
<text text-anchor="middle" x="71" y="-173.8" font-family="Times,serif" font-size="14.00" fill="#000000">parse Number: 1</text>
</g>
<!-- node_6 -->
<g id="node7" class="node">
<title>node_6</title>
<polygon fill="none" stroke="#000000" points="299.6514,-124 42.3486,-124 42.3486,-88 299.6514,-88 299.6514,-124"/>
<text text-anchor="middle" x="171" y="-101.8" font-family="Times,serif" font-size="14.00" fill="#000000">g = demo.math.Gerade::__construct([1, 2])</text>
</g>
<!-- node_2&#45;&gt;node_6 -->
<g id="edge3" class="edge">
<title>node_2&#45;&gt;node_6</title>
<path fill="none" stroke="#000000" d="M96.2342,-159.8314C108.788,-150.7927 124.1283,-139.7476 137.6391,-130.0198"/>
<polygon fill="#000000" stroke="#000000" points="139.7036,-132.8463 145.7739,-124.1628 135.6134,-127.1655 139.7036,-132.8463"/>
</g>
<!-- node_3 -->
<g id="node4" class="node">
<title>node_3</title>
<polygon fill="none" stroke="#000000" points="198,-52 144,-52 144,-16 198,-16 198,-52"/>
<text text-anchor="middle" x="171" y="-29.8" font-family="Times,serif" font-size="14.00" fill="#000000">store g</text>
</g>
<!-- node_4 -->
<g id="node5" class="node">
<title>node_4</title>
<polygon fill="none" stroke="#000000" points="399.5381,-268 322.4619,-268 322.4619,-232 399.5381,-232 399.5381,-268"/>
<text text-anchor="middle" x="361" y="-245.8" font-family="Times,serif" font-size="14.00" fill="#000000">send graph</text>
</g>
<!-- node_4&#45;&gt;node_0 -->
<g id="edge4" class="edge">
<title>node_4&#45;&gt;node_0</title>
<path fill="none" stroke="#000000" d="M366.0468,-231.8314C368.2094,-224.0463 370.7853,-214.7729 373.1848,-206.1347"/>
<polygon fill="#000000" stroke="#000000" points="376.581,-206.9852 375.8852,-196.4133 369.8364,-205.1117 376.581,-206.9852"/>
</g>
<!-- node_4&#45;&gt;node_1 -->
<g id="edge5" class="edge">
<title>node_4&#45;&gt;node_1</title>
<path fill="none" stroke="#000000" d="M399.5657,-235.6376C425.5043,-225.8386 460.6388,-212.299 499.2695,-196.2206"/>
<polygon fill="#000000" stroke="#000000" points="500.7514,-199.3947 508.6249,-192.3054 498.0489,-192.9374 500.7514,-199.3947"/>
</g>
<!-- node_4&#45;&gt;node_2 -->
<g id="edge7" class="edge">
<title>node_4&#45;&gt;node_2</title>
<path fill="none" stroke="#000000" d="M322.3619,-233.2665C313.4889,-229.8495 304.0112,-226.5302 295,-224 228.0791,-205.21 206.6294,-211.5972 135.7418,-196.2549"/>
<polygon fill="#000000" stroke="#000000" points="136.4087,-192.8177 125.8861,-194.0527 134.8822,-199.6492 136.4087,-192.8177"/>
</g>
<!-- node_5 -->
<g id="node6" class="node">
<title>node_5</title>
<polygon fill="none" stroke="#000000" points="252.8041,-196 143.1959,-196 143.1959,-160 252.8041,-160 252.8041,-196"/>
<text text-anchor="middle" x="198" y="-173.8" font-family="Times,serif" font-size="14.00" fill="#000000">parse Number: 2</text>
</g>
<!-- node_4&#45;&gt;node_5 -->
<g id="edge1" class="edge">
<title>node_4&#45;&gt;node_5</title>
<path fill="none" stroke="#000000" d="M322.3713,-232.937C300.1807,-223.135 272.0624,-210.7147 248.1774,-200.1642"/>
<polygon fill="#000000" stroke="#000000" points="249.4747,-196.9111 238.9132,-196.0721 246.6463,-203.3143 249.4747,-196.9111"/>
</g>
<!-- node_5&#45;&gt;node_6 -->
<g id="edge2" class="edge">
<title>node_5&#45;&gt;node_6</title>
<path fill="none" stroke="#000000" d="M191.1868,-159.8314C188.2356,-151.9617 184.7142,-142.5712 181.445,-133.8533"/>
<polygon fill="#000000" stroke="#000000" points="184.6934,-132.5476 177.905,-124.4133 178.1391,-135.0055 184.6934,-132.5476"/>
</g>
<!-- node_6&#45;&gt;node_3 -->
<g id="edge6" class="edge">
<title>node_6&#45;&gt;node_3</title>
<path fill="none" stroke="#000000" d="M171,-87.8314C171,-80.131 171,-70.9743 171,-62.4166"/>
<polygon fill="#000000" stroke="#000000" points="174.5001,-62.4132 171,-52.4133 167.5001,-62.4133 174.5001,-62.4132"/>
</g>
<!-- node_7 -->
<g id="node8" class="node">
<title>node_7</title>
<polygon fill="none" stroke="#000000" points="170,-268 54.4748,-250 170,-232 285.5252,-250 170,-268"/>
<text text-anchor="middle" x="170" y="-245.8" font-family="Times,serif" font-size="14.00" fill="#000000">JAVA_EXECUTOR</text>
</g>
<!-- node_8 -->
<g id="node9" class="node">
<title>node_8</title>
<polygon fill="none" stroke="#000000" points="1055.8041,-484 946.1959,-484 946.1959,-448 1055.8041,-448 1055.8041,-484"/>
<text text-anchor="middle" x="1001" y="-461.8" font-family="Times,serif" font-size="14.00" fill="#000000">parse Number: 1</text>
</g>
<!-- node_11 -->
<g id="node12" class="node">
<title>node_11</title>
<polygon fill="none" stroke="#000000" points="1009.6065,-412 736.3935,-412 736.3935,-376 1009.6065,-376 1009.6065,-412"/>
<text text-anchor="middle" x="873" y="-389.8" font-family="Times,serif" font-size="14.00" fill="#000000">b = plainlib.package1.b.B::__construct([1, 2])</text>
</g>
<!-- node_8&#45;&gt;node_11 -->
<g id="edge10" class="edge">
<title>node_8&#45;&gt;node_11</title>
<path fill="none" stroke="#000000" d="M968.7002,-447.8314C952.1766,-438.5368 931.8814,-427.1208 914.2393,-417.1971"/>
<polygon fill="#000000" stroke="#000000" points="915.7212,-414.015 905.2895,-412.1628 912.2893,-420.116 915.7212,-414.015"/>
</g>
<!-- node_9 -->
<g id="node10" class="node">
<title>node_9</title>
<polygon fill="none" stroke="#000000" points="972.0269,-340 773.9731,-340 773.9731,-304 972.0269,-304 972.0269,-340"/>
<text text-anchor="middle" x="873" y="-317.8" font-family="Times,serif" font-size="14.00" fill="#000000">transmit b&#45;&gt;JAVA_EXECUTOR</text>
</g>
<!-- node_9&#45;&gt;node_1 -->
<g id="edge15" class="edge">
<title>node_9&#45;&gt;node_1</title>
<path fill="none" stroke="#000000" stroke-dasharray="1,5" d="M875.1686,-303.9201C876.7241,-281.7492 875.5576,-244.5873 854,-224 834.576,-205.4503 662.564,-188.4707 581.686,-181.4315"/>
<polygon fill="#000000" stroke="#000000" points="581.6285,-177.9137 571.3654,-180.5442 581.0288,-184.888 581.6285,-177.9137"/>
</g>
<!-- node_10 -->
<g id="node11" class="node">
<title>node_10</title>
<polygon fill="none" stroke="#000000" points="845.2677,-268 594.7323,-268 594.7323,-232 845.2677,-232 845.2677,-268"/>
<text text-anchor="middle" x="720" y="-245.8" font-family="Times,serif" font-size="14.00" fill="#000000">FinishNode &amp;finished&amp;PY_EXECUTOR</text>
</g>
<!-- node_9&#45;&gt;node_10 -->
<g id="edge8" class="edge">
<title>node_9&#45;&gt;node_10</title>
<path fill="none" stroke="#000000" d="M834.3916,-303.8314C814.1107,-294.2874 789.0762,-282.5065 767.6029,-272.4013"/>
<polygon fill="#000000" stroke="#000000" points="768.8692,-269.1291 758.3307,-268.038 765.8886,-275.4629 768.8692,-269.1291"/>
</g>
<!-- node_10&#45;&gt;node_0 -->
<g id="edge14" class="edge">
<title>node_10&#45;&gt;node_0</title>
<path fill="none" stroke="#000000" stroke-dasharray="1,5" d="M634.8936,-231.9243C586.4434,-221.634 525.6422,-208.7205 475.6869,-198.1105"/>
<polygon fill="#000000" stroke="#000000" points="476.3564,-194.6747 465.8474,-196.0207 474.902,-201.5219 476.3564,-194.6747"/>
</g>
<!-- node_11&#45;&gt;node_9 -->
<g id="edge12" class="edge">
<title>node_11&#45;&gt;node_9</title>
<path fill="none" stroke="#000000" d="M873,-375.8314C873,-368.131 873,-358.9743 873,-350.4166"/>
<polygon fill="#000000" stroke="#000000" points="876.5001,-350.4132 873,-340.4133 869.5001,-350.4133 876.5001,-350.4132"/>
</g>
<!-- node_13 -->
<g id="node14" class="node">
<title>node_13</title>
<polygon fill="none" stroke="#000000" points="751,-340 697,-340 697,-304 751,-304 751,-340"/>
<text text-anchor="middle" x="724" y="-317.8" font-family="Times,serif" font-size="14.00" fill="#000000">store b</text>
</g>
<!-- node_11&#45;&gt;node_13 -->
<g id="edge9" class="edge">
<title>node_11&#45;&gt;node_13</title>
<path fill="none" stroke="#000000" d="M835.401,-375.8314C812.3665,-364.7006 783.0355,-350.5272 760.2526,-339.5181"/>
<polygon fill="#000000" stroke="#000000" points="761.7689,-336.3636 751.2422,-335.164 758.7233,-342.6663 761.7689,-336.3636"/>
</g>
<!-- node_12 -->
<g id="node13" class="node">
<title>node_12</title>
<polygon fill="none" stroke="#000000" points="928.8041,-484 819.1959,-484 819.1959,-448 928.8041,-448 928.8041,-484"/>
<text text-anchor="middle" x="874" y="-461.8" font-family="Times,serif" font-size="14.00" fill="#000000">parse Number: 2</text>
</g>
<!-- node_12&#45;&gt;node_11 -->
<g id="edge13" class="edge">
<title>node_12&#45;&gt;node_11</title>
<path fill="none" stroke="#000000" d="M873.7477,-447.8314C873.6407,-440.131 873.5135,-430.9743 873.3947,-422.4166"/>
<polygon fill="#000000" stroke="#000000" points="876.8944,-422.3637 873.2557,-412.4133 869.8951,-422.4609 876.8944,-422.3637"/>
</g>
<!-- node_13&#45;&gt;node_10 -->
<g id="edge11" class="edge">
<title>node_13&#45;&gt;node_10</title>
<path fill="none" stroke="#000000" d="M722.9906,-303.8314C722.5628,-296.131 722.0541,-286.9743 721.5787,-278.4166"/>
<polygon fill="#000000" stroke="#000000" points="725.0724,-278.2037 721.023,-268.4133 718.0831,-278.592 725.0724,-278.2037"/>
</g>
<!-- node_14 -->
<g id="node15" class="node">
<title>node_14</title>
<polygon fill="none" stroke="#000000" points="698,-484 594.9769,-466 698,-448 801.0231,-466 698,-484"/>
<text text-anchor="middle" x="698" y="-461.8" font-family="Times,serif" font-size="14.00" fill="#000000">PY_EXECUTOR</text>
</g>
</g>
</svg>
