<?xml version="1.0" encoding="UTF-8" standalone="no"?>
<!DOCTYPE svg PUBLIC "-//W3C//DTD SVG 1.1//EN"
 "http://www.w3.org/Graphics/SVG/1.1/DTD/svg11.dtd">
<!-- Generated by graphviz version 2.40.1 (20161225.0304)
 -->
<!-- Title: %3 Pages: 1 -->
<svg width="1144pt" height="508pt"
 viewBox="0.00 0.00 1144.00 508.00" xmlns="http://www.w3.org/2000/svg" xmlns:xlink="http://www.w3.org/1999/xlink">
<g id="graph0" class="graph" transform="scale(1 1) rotate(0) translate(4 504)">
<title>%3</title>
<polygon fill="#ffffff" stroke="transparent" points="-4,4 -4,-504 1140,-504 1140,4 -4,4"/>
<g id="clust1" class="cluster">
<title>cluster_1954036660</title>
<polygon fill="none" stroke="#000000" points="8,-8 8,-276 643,-276 643,-8 8,-8"/>
</g>
<g id="clust2" class="cluster">
<title>cluster_2043767886</title>
<polygon fill="none" stroke="#000000" points="651,-224 651,-492 1128,-492 1128,-224 651,-224"/>
</g>
<!-- node_33 -->
<g id="node1" class="node">
<title>node_33</title>
<polygon fill="none" stroke="#000000" points="299.6514,-124 42.3486,-124 42.3486,-88 299.6514,-88 299.6514,-124"/>
<text text-anchor="middle" x="171" y="-101.8" font-family="Times,serif" font-size="14.00" fill="#000000">g = demo.math.Gerade::__construct([1, 2])</text>
</g>
<!-- node_34 -->
<g id="node2" class="node">
<title>node_34</title>
<polygon fill="none" stroke="#000000" points="198,-52 144,-52 144,-16 198,-16 198,-52"/>
<text text-anchor="middle" x="171" y="-29.8" font-family="Times,serif" font-size="14.00" fill="#000000">store g</text>
</g>
<!-- node_33&#45;&gt;node_34 -->
<g id="edge1" class="edge">
<title>node_33&#45;&gt;node_34</title>
<path fill="none" stroke="#000000" d="M171,-87.8314C171,-80.131 171,-70.9743 171,-62.4166"/>
<polygon fill="#000000" stroke="#000000" points="174.5001,-62.4132 171,-52.4133 167.5001,-62.4133 174.5001,-62.4132"/>
</g>
<!-- node_35 -->
<g id="node3" class="node">
<title>node_35</title>
<polygon fill="none" stroke="#000000" points="411.5381,-268 334.4619,-268 334.4619,-232 411.5381,-232 411.5381,-268"/>
<text text-anchor="middle" x="373" y="-245.8" font-family="Times,serif" font-size="14.00" fill="#000000">send graph</text>
</g>
<!-- node_36 -->
<g id="node4" class="node">
<title>node_36</title>
<polygon fill="none" stroke="#000000" points="125.8041,-196 16.1959,-196 16.1959,-160 125.8041,-160 125.8041,-196"/>
<text text-anchor="middle" x="71" y="-173.8" font-family="Times,serif" font-size="14.00" fill="#000000">parse Number: 1</text>
</g>
<!-- node_35&#45;&gt;node_36 -->
<g id="edge2" class="edge">
<title>node_35&#45;&gt;node_36</title>
<path fill="none" stroke="#000000" d="M334.1832,-234.0802C324.1474,-230.3814 313.2734,-226.732 303,-224 232.44,-205.2361 210.1018,-212.0755 135.7178,-196.2391"/>
<polygon fill="#000000" stroke="#000000" points="136.3982,-192.8052 125.8802,-194.079 134.8968,-199.6423 136.3982,-192.8052"/>
</g>
<!-- node_37 -->
<g id="node5" class="node">
<title>node_37</title>
<polygon fill="none" stroke="#000000" points="252.8041,-196 143.1959,-196 143.1959,-160 252.8041,-160 252.8041,-196"/>
<text text-anchor="middle" x="198" y="-173.8" font-family="Times,serif" font-size="14.00" fill="#000000">parse Number: 2</text>
</g>
<!-- node_35&#45;&gt;node_37 -->
<g id="edge3" class="edge">
<title>node_35&#45;&gt;node_37</title>
<path fill="none" stroke="#000000" d="M334.1618,-234.0209C309.8579,-224.0215 278.2097,-211.0006 251.5424,-200.0289"/>
<polygon fill="#000000" stroke="#000000" points="252.5453,-196.6569 241.9657,-196.0888 249.8819,-203.1304 252.5453,-196.6569"/>
</g>
<!-- node_38 -->
<g id="node6" class="node">
<title>node_38</title>
<polygon fill="none" stroke="#000000" points="634.7455,-196 541.2545,-196 541.2545,-160 634.7455,-160 634.7455,-196"/>
<text text-anchor="middle" x="588" y="-173.8" font-family="Times,serif" font-size="14.00" fill="#000000">accept b &#160;as is</text>
</g>
<!-- node_35&#45;&gt;node_38 -->
<g id="edge4" class="edge">
<title>node_35&#45;&gt;node_38</title>
<path fill="none" stroke="#000000" d="M411.9349,-236.9613C445.2599,-225.8013 493.6725,-209.5887 531.3012,-196.9875"/>
<polygon fill="#000000" stroke="#000000" points="532.7411,-200.1964 541.112,-193.702 530.5182,-193.5587 532.7411,-200.1964"/>
</g>
<!-- node_39 -->
<g id="node7" class="node">
<title>node_39</title>
<polygon fill="none" stroke="#000000" points="523.1749,-196 270.8251,-196 270.8251,-160 523.1749,-160 523.1749,-196"/>
<text text-anchor="middle" x="397" y="-173.8" font-family="Times,serif" font-size="14.00" fill="#000000">accept &amp;finished&amp;PY_EXECUTOR &#160;as is</text>
</g>
<!-- node_35&#45;&gt;node_39 -->
<g id="edge5" class="edge">
<title>node_35&#45;&gt;node_39</title>
<path fill="none" stroke="#000000" d="M379.0562,-231.8314C381.6512,-224.0463 384.7424,-214.7729 387.6218,-206.1347"/>
<polygon fill="#000000" stroke="#000000" points="391.0203,-207.0069 390.8622,-196.4133 384.3795,-204.7933 391.0203,-207.0069"/>
</g>
<!-- node_36&#45;&gt;node_33 -->
<g id="edge7" class="edge">
<title>node_36&#45;&gt;node_33</title>
<path fill="none" stroke="#000000" d="M96.2342,-159.8314C108.788,-150.7927 124.1283,-139.7476 137.6391,-130.0198"/>
<polygon fill="#000000" stroke="#000000" points="139.7036,-132.8463 145.7739,-124.1628 135.6134,-127.1655 139.7036,-132.8463"/>
</g>
<!-- node_37&#45;&gt;node_33 -->
<g id="edge6" class="edge">
<title>node_37&#45;&gt;node_33</title>
<path fill="none" stroke="#000000" d="M191.1868,-159.8314C188.2356,-151.9617 184.7142,-142.5712 181.445,-133.8533"/>
<polygon fill="#000000" stroke="#000000" points="184.6934,-132.5476 177.905,-124.4133 178.1391,-135.0055 184.6934,-132.5476"/>
</g>
<!-- node_40 -->
<g id="node8" class="node">
<title>node_40</title>
<polygon fill="none" stroke="#000000" points="178,-268 62.4748,-250 178,-232 293.5252,-250 178,-268"/>
<text text-anchor="middle" x="178" y="-245.8" font-family="Times,serif" font-size="14.00" fill="#000000">JAVA_EXECUTOR</text>
</g>
<!-- node_41 -->
<g id="node9" class="node">
<title>node_41</title>
<polygon fill="none" stroke="#000000" points="1119.8041,-484 1010.1959,-484 1010.1959,-448 1119.8041,-448 1119.8041,-484"/>
<text text-anchor="middle" x="1065" y="-461.8" font-family="Times,serif" font-size="14.00" fill="#000000">parse Number: 1</text>
</g>
<!-- node_45 -->
<g id="node13" class="node">
<title>node_45</title>
<polygon fill="none" stroke="#000000" points="1073.6065,-412 800.3935,-412 800.3935,-376 1073.6065,-376 1073.6065,-412"/>
<text text-anchor="middle" x="937" y="-389.8" font-family="Times,serif" font-size="14.00" fill="#000000">b = plainlib.package1.b.B::__construct([1, 2])</text>
</g>
<!-- node_41&#45;&gt;node_45 -->
<g id="edge10" class="edge">
<title>node_41&#45;&gt;node_45</title>
<path fill="none" stroke="#000000" d="M1032.7002,-447.8314C1016.1766,-438.5368 995.8814,-427.1208 978.2393,-417.1971"/>
<polygon fill="#000000" stroke="#000000" points="979.7212,-414.015 969.2895,-412.1628 976.2893,-420.116 979.7212,-414.015"/>
</g>
<!-- node_42 -->
<g id="node10" class="node">
<title>node_42</title>
<polygon fill="none" stroke="#000000" points="992.8041,-484 883.1959,-484 883.1959,-448 992.8041,-448 992.8041,-484"/>
<text text-anchor="middle" x="938" y="-461.8" font-family="Times,serif" font-size="14.00" fill="#000000">parse Number: 2</text>
</g>
<!-- node_42&#45;&gt;node_45 -->
<g id="edge9" class="edge">
<title>node_42&#45;&gt;node_45</title>
<path fill="none" stroke="#000000" d="M937.7477,-447.8314C937.6407,-440.131 937.5135,-430.9743 937.3947,-422.4166"/>
<polygon fill="#000000" stroke="#000000" points="940.8944,-422.3637 937.2557,-412.4133 933.8951,-422.4609 940.8944,-422.3637"/>
</g>
<!-- node_43 -->
<g id="node11" class="node">
<title>node_43</title>
<polygon fill="none" stroke="#000000" points="909.2677,-268 658.7323,-268 658.7323,-232 909.2677,-232 909.2677,-268"/>
<text text-anchor="middle" x="784" y="-245.8" font-family="Times,serif" font-size="14.00" fill="#000000">FinishNode &amp;finished&amp;PY_EXECUTOR</text>
</g>
<!-- node_43&#45;&gt;node_39 -->
<g id="edge15" class="edge">
<title>node_43&#45;&gt;node_39</title>
<path fill="none" stroke="#000000" stroke-dasharray="1,5" d="M689.3105,-231.9584C675.1315,-229.2775 660.6834,-226.5573 647,-224 600.6204,-215.3322 549.3757,-205.8811 505.4191,-197.8128"/>
<polygon fill="#000000" stroke="#000000" points="506.0435,-194.369 495.576,-196.0068 504.7802,-201.2541 506.0435,-194.369"/>
</g>
<!-- node_44 -->
<g id="node12" class="node">
<title>node_44</title>
<polygon fill="none" stroke="#000000" points="815,-340 761,-340 761,-304 815,-304 815,-340"/>
<text text-anchor="middle" x="788" y="-317.8" font-family="Times,serif" font-size="14.00" fill="#000000">store b</text>
</g>
<!-- node_44&#45;&gt;node_43 -->
<g id="edge12" class="edge">
<title>node_44&#45;&gt;node_43</title>
<path fill="none" stroke="#000000" d="M786.9906,-303.8314C786.5628,-296.131 786.0541,-286.9743 785.5787,-278.4166"/>
<polygon fill="#000000" stroke="#000000" points="789.0724,-278.2037 785.023,-268.4133 782.0831,-278.592 789.0724,-278.2037"/>
</g>
<!-- node_45&#45;&gt;node_44 -->
<g id="edge13" class="edge">
<title>node_45&#45;&gt;node_44</title>
<path fill="none" stroke="#000000" d="M899.401,-375.8314C876.3665,-364.7006 847.0355,-350.5272 824.2526,-339.5181"/>
<polygon fill="#000000" stroke="#000000" points="825.7689,-336.3636 815.2422,-335.164 822.7233,-342.6663 825.7689,-336.3636"/>
</g>
<!-- node_46 -->
<g id="node14" class="node">
<title>node_46</title>
<polygon fill="none" stroke="#000000" points="1036.0269,-340 837.9731,-340 837.9731,-304 1036.0269,-304 1036.0269,-340"/>
<text text-anchor="middle" x="937" y="-317.8" font-family="Times,serif" font-size="14.00" fill="#000000">transmit b&#45;&gt;JAVA_EXECUTOR</text>
</g>
<!-- node_45&#45;&gt;node_46 -->
<g id="edge8" class="edge">
<title>node_45&#45;&gt;node_46</title>
<path fill="none" stroke="#000000" d="M937,-375.8314C937,-368.131 937,-358.9743 937,-350.4166"/>
<polygon fill="#000000" stroke="#000000" points="940.5001,-350.4132 937,-340.4133 933.5001,-350.4133 940.5001,-350.4132"/>
</g>
<!-- node_46&#45;&gt;node_38 -->
<g id="edge14" class="edge">
<title>node_46&#45;&gt;node_38</title>
<path fill="none" stroke="#000000" stroke-dasharray="1,5" d="M939.1917,-303.8958C940.771,-281.6998 939.6291,-244.5121 918,-224 898.5448,-205.5496 734.1713,-189.6957 644.9998,-182.3553"/>
<polygon fill="#000000" stroke="#000000" points="645.026,-178.846 634.7752,-181.5239 644.4586,-185.823 645.026,-178.846"/>
</g>
<!-- node_46&#45;&gt;node_43 -->
<g id="edge11" class="edge">
<title>node_46&#45;&gt;node_43</title>
<path fill="none" stroke="#000000" d="M898.3916,-303.8314C878.1107,-294.2874 853.0762,-282.5065 831.6029,-272.4013"/>
<polygon fill="#000000" stroke="#000000" points="832.8692,-269.1291 822.3307,-268.038 829.8886,-275.4629 832.8692,-269.1291"/>
</g>
<!-- node_47 -->
<g id="node15" class="node">
<title>node_47</title>
<polygon fill="none" stroke="#000000" points="762,-484 658.9769,-466 762,-448 865.0231,-466 762,-484"/>
<text text-anchor="middle" x="762" y="-461.8" font-family="Times,serif" font-size="14.00" fill="#000000">PY_EXECUTOR</text>
</g>
</g>
</svg>
