<?xml version="1.0" encoding="UTF-8" standalone="no"?>
<!DOCTYPE svg PUBLIC "-//W3C//DTD SVG 1.1//EN"
 "http://www.w3.org/Graphics/SVG/1.1/DTD/svg11.dtd">
<!-- Generated by graphviz version 2.40.1 (20161225.0304)
 -->
<!-- Title: %3 Pages: 1 -->
<svg width="1956pt" height="724pt"
 viewBox="0.00 0.00 1955.76 724.00" xmlns="http://www.w3.org/2000/svg" xmlns:xlink="http://www.w3.org/1999/xlink">
<g id="graph0" class="graph" transform="scale(1 1) rotate(0) translate(4 720)">
<title>%3</title>
<polygon fill="#ffffff" stroke="transparent" points="-4,4 -4,-720 1951.7632,-720 1951.7632,4 -4,4"/>
<g id="clust1" class="cluster">
<title>cluster_1989184704</title>
<polygon fill="none" stroke="#000000" points="644,-8 644,-420 1734,-420 1734,-8 644,-8"/>
</g>
<g id="clust2" class="cluster">
<title>cluster_611572016</title>
<polygon fill="none" stroke="#000000" points="8,-296 8,-708 636,-708 636,-296 8,-296"/>
</g>
<!-- node_32 -->
<g id="node1" class="node">
<title>node_32</title>
<polygon fill="none" stroke="#000000" points="1046.7456,-412 977.2544,-412 977.2544,-376 1046.7456,-376 1046.7456,-412"/>
<text text-anchor="middle" x="1012" y="-389.8" font-family="Times,serif" font-size="14.00" fill="#000000">accept n5</text>
</g>
<!-- node_33 -->
<g id="node2" class="node">
<title>node_33</title>
<polygon fill="none" stroke="#000000" points="1523,-412 1407.4748,-394 1523,-376 1638.5252,-394 1523,-412"/>
<text text-anchor="middle" x="1523" y="-389.8" font-family="Times,serif" font-size="14.00" fill="#000000">JAVA_EXECUTOR</text>
</g>
<!-- node_15 -->
<g id="node3" class="node">
<title>node_15</title>
<polygon fill="none" stroke="#000000" points="1474.7456,-196 1405.2544,-196 1405.2544,-160 1474.7456,-160 1474.7456,-196"/>
<text text-anchor="middle" x="1440" y="-173.8" font-family="Times,serif" font-size="14.00" fill="#000000">accept n2</text>
</g>
<!-- node_24 -->
<g id="node12" class="node">
<title>node_24</title>
<polygon fill="none" stroke="#000000" points="1128.6582,-124 829.3418,-124 829.3418,-88 1128.6582,-88 1128.6582,-124"/>
<text text-anchor="middle" x="979" y="-101.8" font-family="Times,serif" font-size="14.00" fill="#000000">n4 = demo.math.Addierer::summierListe([n3, n2])</text>
</g>
<!-- node_15&#45;&gt;node_24 -->
<g id="edge11" class="edge">
<title>node_15&#45;&gt;node_24</title>
<path fill="none" stroke="#000000" d="M1405.3501,-172.5883C1342.3265,-162.7451 1206.0682,-141.464 1104.4554,-125.5939"/>
<polygon fill="#000000" stroke="#000000" points="1104.844,-122.1122 1094.4236,-124.0271 1103.7637,-129.0284 1104.844,-122.1122"/>
</g>
<!-- node_16 -->
<g id="node4" class="node">
<title>node_16</title>
<polygon fill="none" stroke="#000000" points="1111.7384,-196 846.2616,-196 846.2616,-160 1111.7384,-160 1111.7384,-196"/>
<text text-anchor="middle" x="979" y="-173.8" font-family="Times,serif" font-size="14.00" fill="#000000">cast n3 from Arr to demo.types.NummerList</text>
</g>
<!-- node_16&#45;&gt;node_24 -->
<g id="edge10" class="edge">
<title>node_16&#45;&gt;node_24</title>
<path fill="none" stroke="#000000" d="M979,-159.8314C979,-152.131 979,-142.9743 979,-134.4166"/>
<polygon fill="#000000" stroke="#000000" points="982.5001,-134.4132 979,-124.4133 975.5001,-134.4133 982.5001,-134.4132"/>
</g>
<!-- node_17 -->
<g id="node5" class="node">
<title>node_17</title>
<polygon fill="none" stroke="#000000" points="1389.5381,-412 1312.4619,-412 1312.4619,-376 1389.5381,-376 1389.5381,-412"/>
<text text-anchor="middle" x="1351" y="-389.8" font-family="Times,serif" font-size="14.00" fill="#000000">send graph</text>
</g>
<!-- node_18 -->
<g id="node6" class="node">
<title>node_18</title>
<polygon fill="none" stroke="#000000" points="1725.7456,-412 1656.2544,-412 1656.2544,-376 1725.7456,-376 1725.7456,-412"/>
<text text-anchor="middle" x="1691" y="-389.8" font-family="Times,serif" font-size="14.00" fill="#000000">accept n1</text>
</g>
<!-- node_19 -->
<g id="node7" class="node">
<title>node_19</title>
<polygon fill="none" stroke="#000000" points="1725.7531,-340 1534.2469,-340 1534.2469,-304 1725.7531,-304 1725.7531,-340"/>
<text text-anchor="middle" x="1630" y="-317.8" font-family="Times,serif" font-size="14.00" fill="#000000">transmit n1&#45;&gt;PY_EXECUTOR</text>
</g>
<!-- node_18&#45;&gt;node_19 -->
<g id="edge1" class="edge">
<title>node_18&#45;&gt;node_19</title>
<path fill="none" stroke="#000000" d="M1675.6071,-375.8314C1668.5096,-367.454 1659.952,-357.3531 1652.176,-348.1749"/>
<polygon fill="#000000" stroke="#000000" points="1654.7348,-345.7807 1645.6001,-340.4133 1649.3939,-350.3056 1654.7348,-345.7807"/>
</g>
<!-- node_41 -->
<g id="node29" class="node">
<title>node_41</title>
<polygon fill="none" stroke="#000000" points="597.7456,-700 528.2544,-700 528.2544,-664 597.7456,-664 597.7456,-700"/>
<text text-anchor="middle" x="563" y="-677.8" font-family="Times,serif" font-size="14.00" fill="#000000">accept n1</text>
</g>
<!-- node_19&#45;&gt;node_41 -->
<g id="edge30" class="edge">
<title>node_19&#45;&gt;node_41</title>
<path fill="none" stroke="#000000" stroke-dasharray="1,5" d="M1701.6544,-340.0795C1722.335,-348.2142 1743.4811,-359.7666 1759,-376 1788.4403,-406.7958 1792,-423.3959 1792,-466 1792,-538 1792,-538 1792,-538 1792,-644.4665 1674.2666,-606.4689 1570,-628 1382.113,-666.7988 777.8897,-678.7433 607.8839,-681.3775"/>
<polygon fill="#000000" stroke="#000000" points="607.7301,-677.8793 597.7844,-681.5309 607.8364,-684.8785 607.7301,-677.8793"/>
</g>
<!-- node_20 -->
<g id="node8" class="node">
<title>node_20</title>
<polygon fill="none" stroke="#000000" points="872.175,-412 651.825,-412 651.825,-376 872.175,-376 872.175,-412"/>
<text text-anchor="middle" x="762" y="-389.8" font-family="Times,serif" font-size="14.00" fill="#000000">accept &amp;finished&amp;PY_EXECUTOR</text>
</g>
<!-- node_21 -->
<g id="node9" class="node">
<title>node_21</title>
<polygon fill="none" stroke="#000000" points="1214.2456,-412 1151.7544,-412 1151.7544,-376 1214.2456,-376 1214.2456,-412"/>
<text text-anchor="middle" x="1183" y="-389.8" font-family="Times,serif" font-size="14.00" fill="#000000">accept g</text>
</g>
<!-- node_25 -->
<g id="node13" class="node">
<title>node_25</title>
<polygon fill="none" stroke="#000000" points="1236,-340 1182,-340 1182,-304 1236,-304 1236,-340"/>
<text text-anchor="middle" x="1209" y="-317.8" font-family="Times,serif" font-size="14.00" fill="#000000">load g</text>
</g>
<!-- node_21&#45;&gt;node_25 -->
<g id="edge7" class="edge">
<title>node_21&#45;&gt;node_25</title>
<path fill="none" stroke="#000000" d="M1189.5609,-375.8314C1192.4027,-367.9617 1195.7937,-358.5712 1198.9419,-349.8533"/>
<polygon fill="#000000" stroke="#000000" points="1202.2462,-351.0076 1202.3508,-340.4133 1195.6623,-348.63 1202.2462,-351.0076"/>
</g>
<!-- node_22 -->
<g id="node10" class="node">
<title>node_22</title>
<polygon fill="none" stroke="#000000" points="1133.7456,-412 1064.2544,-412 1064.2544,-376 1133.7456,-376 1133.7456,-412"/>
<text text-anchor="middle" x="1099" y="-389.8" font-family="Times,serif" font-size="14.00" fill="#000000">accept n3</text>
</g>
<!-- node_29 -->
<g id="node17" class="node">
<title>node_29</title>
<polygon fill="none" stroke="#000000" points="1164.3694,-340 937.6306,-340 937.6306,-304 1164.3694,-304 1164.3694,-340"/>
<text text-anchor="middle" x="1051" y="-317.8" font-family="Times,serif" font-size="14.00" fill="#000000">cast n3 from Arr to demo.types.Punkt</text>
</g>
<!-- node_22&#45;&gt;node_29 -->
<g id="edge9" class="edge">
<title>node_22&#45;&gt;node_29</title>
<path fill="none" stroke="#000000" d="M1086.8876,-375.8314C1081.4719,-367.7079 1074.9758,-357.9637 1069.0079,-349.0118"/>
<polygon fill="#000000" stroke="#000000" points="1071.7347,-346.7923 1063.2755,-340.4133 1065.9104,-350.6753 1071.7347,-346.7923"/>
</g>
<!-- node_23 -->
<g id="node11" class="node">
<title>node_23</title>
<polygon fill="none" stroke="#000000" points="959.7456,-412 890.2544,-412 890.2544,-376 959.7456,-376 959.7456,-412"/>
<text text-anchor="middle" x="925" y="-389.8" font-family="Times,serif" font-size="14.00" fill="#000000">accept n3</text>
</g>
<!-- node_26 -->
<g id="node14" class="node">
<title>node_26</title>
<polygon fill="none" stroke="#000000" points="945.7531,-52 754.2469,-52 754.2469,-16 945.7531,-16 945.7531,-52"/>
<text text-anchor="middle" x="850" y="-29.8" font-family="Times,serif" font-size="14.00" fill="#000000">transmit n4&#45;&gt;PY_EXECUTOR</text>
</g>
<!-- node_24&#45;&gt;node_26 -->
<g id="edge4" class="edge">
<title>node_24&#45;&gt;node_26</title>
<path fill="none" stroke="#000000" d="M946.4479,-87.8314C929.7952,-78.5368 909.3415,-67.1208 891.5615,-57.1971"/>
<polygon fill="#000000" stroke="#000000" points="892.9795,-53.9803 882.5417,-52.1628 889.5679,-60.0927 892.9795,-53.9803"/>
</g>
<!-- node_31 -->
<g id="node19" class="node">
<title>node_31</title>
<polygon fill="none" stroke="#000000" points="1307.7824,-268 1110.2176,-268 1110.2176,-232 1307.7824,-232 1307.7824,-268"/>
<text text-anchor="middle" x="1209" y="-245.8" font-family="Times,serif" font-size="14.00" fill="#000000">bool1 = g::liagtAufGerade([n3])</text>
</g>
<!-- node_25&#45;&gt;node_31 -->
<g id="edge8" class="edge">
<title>node_25&#45;&gt;node_31</title>
<path fill="none" stroke="#000000" d="M1209,-303.8314C1209,-296.131 1209,-286.9743 1209,-278.4166"/>
<polygon fill="#000000" stroke="#000000" points="1212.5001,-278.4132 1209,-268.4133 1205.5001,-278.4133 1212.5001,-278.4132"/>
</g>
<!-- node_44 -->
<g id="node32" class="node">
<title>node_44</title>
<polygon fill="none" stroke="#000000" points="627.7456,-628 558.2544,-628 558.2544,-592 627.7456,-592 627.7456,-628"/>
<text text-anchor="middle" x="593" y="-605.8" font-family="Times,serif" font-size="14.00" fill="#000000">accept n4</text>
</g>
<!-- node_26&#45;&gt;node_44 -->
<g id="edge28" class="edge">
<title>node_26&#45;&gt;node_44</title>
<path fill="none" stroke="#000000" stroke-dasharray="1,5" d="M764.8811,-52.0134C700.817,-71.1454 624,-108.5631 624,-178 624,-322 624,-322 624,-322 624,-410.1895 634.1096,-431.8579 637,-520 637.5244,-535.9914 642.3638,-540.9258 637,-556 633.4122,-566.0831 627.0465,-575.6483 620.2524,-583.8485"/>
<polygon fill="#000000" stroke="#000000" points="617.4253,-581.7611 613.4026,-591.5625 622.6596,-586.409 617.4253,-581.7611"/>
</g>
<!-- node_27 -->
<g id="node15" class="node">
<title>node_27</title>
<polygon fill="none" stroke="#000000" points="1294.2456,-412 1231.7544,-412 1231.7544,-376 1294.2456,-376 1294.2456,-412"/>
<text text-anchor="middle" x="1263" y="-389.8" font-family="Times,serif" font-size="14.00" fill="#000000">accept b</text>
</g>
<!-- node_28 -->
<g id="node16" class="node">
<title>node_28</title>
<polygon fill="none" stroke="#000000" points="1464.2531,-340 1279.7469,-340 1279.7469,-304 1464.2531,-304 1464.2531,-340"/>
<text text-anchor="middle" x="1372" y="-317.8" font-family="Times,serif" font-size="14.00" fill="#000000">transmit b&#45;&gt;PY_EXECUTOR</text>
</g>
<!-- node_27&#45;&gt;node_28 -->
<g id="edge2" class="edge">
<title>node_27&#45;&gt;node_28</title>
<path fill="none" stroke="#000000" d="M1290.5053,-375.8314C1304.318,-366.7074 1321.2256,-355.539 1336.0529,-345.7449"/>
<polygon fill="#000000" stroke="#000000" points="1338.0886,-348.5949 1344.5035,-340.1628 1334.2304,-342.7541 1338.0886,-348.5949"/>
</g>
<!-- node_39 -->
<g id="node27" class="node">
<title>node_39</title>
<polygon fill="none" stroke="#000000" points="480.2456,-700 417.7544,-700 417.7544,-664 480.2456,-664 480.2456,-700"/>
<text text-anchor="middle" x="449" y="-677.8" font-family="Times,serif" font-size="14.00" fill="#000000">accept b</text>
</g>
<!-- node_28&#45;&gt;node_39 -->
<g id="edge34" class="edge">
<title>node_28&#45;&gt;node_39</title>
<path fill="none" stroke="#000000" stroke-dasharray="1,5" d="M1464.4966,-333.1029C1568.762,-346.0129 1725.1562,-366.7333 1735,-376 1764.7671,-404.0219 1754,-425.1184 1754,-466 1754,-538 1754,-538 1754,-538 1754,-675.9345 654.7872,-639.7561 519,-664 509.5656,-665.6845 499.53,-667.9659 490.0917,-670.3383"/>
<polygon fill="#000000" stroke="#000000" points="488.9394,-667.0214 480.1413,-672.9243 490.7002,-673.7964 488.9394,-667.0214"/>
</g>
<!-- node_30 -->
<g id="node18" class="node">
<title>node_30</title>
<polygon fill="none" stroke="#000000" points="1092.3694,-268 865.6306,-268 865.6306,-232 1092.3694,-232 1092.3694,-268"/>
<text text-anchor="middle" x="979" y="-245.8" font-family="Times,serif" font-size="14.00" fill="#000000">cast n3 from demo.types.Punkt to Arr</text>
</g>
<!-- node_29&#45;&gt;node_30 -->
<g id="edge3" class="edge">
<title>node_29&#45;&gt;node_30</title>
<path fill="none" stroke="#000000" d="M1032.8314,-303.8314C1024.2848,-295.2848 1013.9443,-284.9443 1004.6198,-275.6198"/>
<polygon fill="#000000" stroke="#000000" points="1006.9592,-273.0095 997.4133,-268.4133 1002.0095,-277.9592 1006.9592,-273.0095"/>
</g>
<!-- node_29&#45;&gt;node_31 -->
<g id="edge5" class="edge">
<title>node_29&#45;&gt;node_31</title>
<path fill="none" stroke="#000000" d="M1090.8701,-303.8314C1111.9077,-294.2446 1137.8983,-282.4008 1160.1396,-272.2655"/>
<polygon fill="#000000" stroke="#000000" points="1161.7683,-275.3697 1169.4166,-268.038 1158.8655,-268.9999 1161.7683,-275.3697"/>
</g>
<!-- node_30&#45;&gt;node_16 -->
<g id="edge6" class="edge">
<title>node_30&#45;&gt;node_16</title>
<path fill="none" stroke="#000000" d="M979,-231.8314C979,-224.131 979,-214.9743 979,-206.4166"/>
<polygon fill="#000000" stroke="#000000" points="982.5001,-206.4132 979,-196.4133 975.5001,-206.4133 982.5001,-206.4132"/>
</g>
<!-- node_49 -->
<g id="node20" class="node">
<title>node_49</title>
<polygon fill="none" stroke="#000000" points="1947.5269,-268 1742.4731,-268 1742.4731,-232 1947.5269,-232 1947.5269,-268"/>
<text text-anchor="middle" x="1845" y="-245.8" font-family="Times,serif" font-size="14.00" fill="#000000">transmit n2&#45;&gt;JAVA_EXECUTOR</text>
</g>
<!-- node_49&#45;&gt;node_15 -->
<g id="edge35" class="edge">
<title>node_49&#45;&gt;node_15</title>
<path fill="none" stroke="#000000" stroke-dasharray="1,5" d="M1743.5852,-231.9707C1660.3547,-217.1742 1546.482,-196.9301 1484.5496,-185.9199"/>
<polygon fill="#000000" stroke="#000000" points="1485.1617,-182.4739 1474.7034,-184.1695 1483.9364,-189.3659 1485.1617,-182.4739"/>
</g>
<!-- node_50 -->
<g id="node21" class="node">
<title>node_50</title>
<polygon fill="none" stroke="#000000" points="1430.0269,-484 1231.9731,-484 1231.9731,-448 1430.0269,-448 1430.0269,-484"/>
<text text-anchor="middle" x="1331" y="-461.8" font-family="Times,serif" font-size="14.00" fill="#000000">transmit b&#45;&gt;JAVA_EXECUTOR</text>
</g>
<!-- node_50&#45;&gt;node_27 -->
<g id="edge31" class="edge">
<title>node_50&#45;&gt;node_27</title>
<path fill="none" stroke="#000000" stroke-dasharray="1,5" d="M1313.8407,-447.8314C1305.8489,-439.3694 1296.1962,-429.1489 1287.4584,-419.8971"/>
<polygon fill="#000000" stroke="#000000" points="1289.8011,-417.2802 1280.3903,-412.4133 1284.712,-422.0866 1289.8011,-417.2802"/>
</g>
<!-- node_34 -->
<g id="node22" class="node">
<title>node_34</title>
<polygon fill="none" stroke="#000000" points="346.5269,-412 141.4731,-412 141.4731,-376 346.5269,-376 346.5269,-412"/>
<text text-anchor="middle" x="244" y="-389.8" font-family="Times,serif" font-size="14.00" fill="#000000">transmit n3&#45;&gt;JAVA_EXECUTOR</text>
</g>
<!-- node_34&#45;&gt;node_23 -->
<g id="edge29" class="edge">
<title>node_34&#45;&gt;node_23</title>
<path fill="none" stroke="#000000" stroke-dasharray="1,5" d="M294.8362,-412.1001C321.3373,-420.59 354.505,-429.7582 385,-434 438.5951,-441.4551 820.6915,-451.1887 872,-434 881.7352,-430.7386 891.1115,-424.9051 899.2003,-418.6839"/>
<polygon fill="#000000" stroke="#000000" points="901.6344,-421.2134 907.1247,-412.152 897.182,-415.8118 901.6344,-421.2134"/>
</g>
<!-- node_42 -->
<g id="node30" class="node">
<title>node_42</title>
<polygon fill="none" stroke="#000000" points="543.2677,-340 292.7323,-340 292.7323,-304 543.2677,-304 543.2677,-340"/>
<text text-anchor="middle" x="418" y="-317.8" font-family="Times,serif" font-size="14.00" fill="#000000">FinishNode &amp;finished&amp;PY_EXECUTOR</text>
</g>
<!-- node_34&#45;&gt;node_42 -->
<g id="edge20" class="edge">
<title>node_34&#45;&gt;node_42</title>
<path fill="none" stroke="#000000" d="M287.9075,-375.8314C311.2824,-366.159 340.2097,-354.1891 364.8468,-343.9944"/>
<polygon fill="#000000" stroke="#000000" points="366.5063,-347.0956 374.4082,-340.038 363.8298,-340.6275 366.5063,-347.0956"/>
</g>
<!-- node_35 -->
<g id="node23" class="node">
<title>node_35</title>
<polygon fill="none" stroke="#000000" points="105,-628 51,-628 51,-592 105,-592 105,-628"/>
<text text-anchor="middle" x="78" y="-605.8" font-family="Times,serif" font-size="14.00" fill="#000000">load b</text>
</g>
<!-- node_38 -->
<g id="node26" class="node">
<title>node_38</title>
<polygon fill="none" stroke="#000000" points="192.2825,-556 15.7175,-556 15.7175,-520 192.2825,-520 192.2825,-556"/>
<text text-anchor="middle" x="104" y="-533.8" font-family="Times,serif" font-size="14.00" fill="#000000">n3 = b::calc_append([n1, 3])</text>
</g>
<!-- node_35&#45;&gt;node_38 -->
<g id="edge18" class="edge">
<title>node_35&#45;&gt;node_38</title>
<path fill="none" stroke="#000000" d="M84.5609,-591.8314C87.4027,-583.9617 90.7937,-574.5712 93.9419,-565.8533"/>
<polygon fill="#000000" stroke="#000000" points="97.2462,-567.0076 97.3508,-556.4133 90.6623,-564.63 97.2462,-567.0076"/>
</g>
<!-- node_36 -->
<g id="node24" class="node">
<title>node_36</title>
<polygon fill="none" stroke="#000000" points="540.8041,-628 431.1959,-628 431.1959,-592 540.8041,-592 540.8041,-628"/>
<text text-anchor="middle" x="486" y="-605.8" font-family="Times,serif" font-size="14.00" fill="#000000">parse Number: 3</text>
</g>
<!-- node_36&#45;&gt;node_38 -->
<g id="edge14" class="edge">
<title>node_36&#45;&gt;node_38</title>
<path fill="none" stroke="#000000" d="M431.2899,-594.1751C428.1556,-593.4051 425.0428,-592.6735 422,-592 327.966,-571.1871 300.7769,-572.9379 202.348,-556.2008"/>
<polygon fill="#000000" stroke="#000000" points="202.7219,-552.7137 192.273,-554.4657 201.5339,-559.6122 202.7219,-552.7137"/>
</g>
<!-- node_37 -->
<g id="node25" class="node">
<title>node_37</title>
<polygon fill="none" stroke="#000000" points="590.5269,-412 385.4731,-412 385.4731,-376 590.5269,-376 590.5269,-412"/>
<text text-anchor="middle" x="488" y="-389.8" font-family="Times,serif" font-size="14.00" fill="#000000">transmit n5&#45;&gt;JAVA_EXECUTOR</text>
</g>
<!-- node_37&#45;&gt;node_32 -->
<g id="edge33" class="edge">
<title>node_37&#45;&gt;node_32</title>
<path fill="none" stroke="#000000" stroke-dasharray="1,5" d="M545.8629,-412.0025C576.2359,-420.5238 614.2657,-429.7498 649,-434 717.5995,-442.3941 894.5699,-456.2542 960,-434 969.6037,-430.7336 978.8189,-424.8985 986.7536,-418.6775"/>
<polygon fill="#000000" stroke="#000000" points="989.1199,-421.2607 994.5215,-412.1463 984.615,-415.9029 989.1199,-421.2607"/>
</g>
<!-- node_37&#45;&gt;node_42 -->
<g id="edge19" class="edge">
<title>node_37&#45;&gt;node_42</title>
<path fill="none" stroke="#000000" d="M470.336,-375.8314C462.0268,-367.2848 451.9736,-356.9443 442.9082,-347.6198"/>
<polygon fill="#000000" stroke="#000000" points="445.3821,-345.1435 435.9018,-340.4133 440.3631,-350.023 445.3821,-345.1435"/>
</g>
<!-- node_38&#45;&gt;node_34 -->
<g id="edge24" class="edge">
<title>node_38&#45;&gt;node_34</title>
<path fill="none" stroke="#000000" d="M112.7776,-519.877C122.78,-500.5061 140.5506,-469.6627 162,-448 173.4125,-436.4741 187.6703,-426.0558 201.0813,-417.5141"/>
<polygon fill="#000000" stroke="#000000" points="203.0585,-420.4069 209.7336,-412.1793 199.3847,-414.4485 203.0585,-420.4069"/>
</g>
<!-- node_40 -->
<g id="node28" class="node">
<title>node_40</title>
<polygon fill="none" stroke="#000000" points="376.5269,-484 171.4731,-484 171.4731,-448 376.5269,-448 376.5269,-484"/>
<text text-anchor="middle" x="274" y="-461.8" font-family="Times,serif" font-size="14.00" fill="#000000">transmit n3&#45;&gt;JAVA_EXECUTOR</text>
</g>
<!-- node_38&#45;&gt;node_40 -->
<g id="edge15" class="edge">
<title>node_38&#45;&gt;node_40</title>
<path fill="none" stroke="#000000" d="M146.8982,-519.8314C169.7357,-510.159 197.998,-498.1891 222.0687,-487.9944"/>
<polygon fill="#000000" stroke="#000000" points="223.5671,-491.1608 231.4103,-484.038 220.8371,-484.7151 223.5671,-491.1608"/>
</g>
<!-- node_46 -->
<g id="node34" class="node">
<title>node_46</title>
<polygon fill="none" stroke="#000000" points="571.2825,-484 394.7175,-484 394.7175,-448 571.2825,-448 571.2825,-484"/>
<text text-anchor="middle" x="483" y="-461.8" font-family="Times,serif" font-size="14.00" fill="#000000">n5 = b::calc_append([n4, 5])</text>
</g>
<!-- node_38&#45;&gt;node_46 -->
<g id="edge21" class="edge">
<title>node_38&#45;&gt;node_46</title>
<path fill="none" stroke="#000000" d="M192.3803,-521.2101C249.9662,-510.2703 325.1707,-495.9834 384.6493,-484.684"/>
<polygon fill="#000000" stroke="#000000" points="385.6366,-488.0592 394.8077,-482.7542 384.3301,-481.1821 385.6366,-488.0592"/>
</g>
<!-- node_39&#45;&gt;node_35 -->
<g id="edge25" class="edge">
<title>node_39&#45;&gt;node_35</title>
<path fill="none" stroke="#000000" d="M417.828,-676.0975C398.3542,-672.4684 372.7439,-667.8015 350,-664 248.5177,-647.0377 217.0231,-659.3204 114.9196,-627.7592"/>
<polygon fill="#000000" stroke="#000000" points="115.7361,-624.3467 105.1463,-624.6729 113.6281,-631.0218 115.7361,-624.3467"/>
</g>
<!-- node_40&#45;&gt;node_22 -->
<g id="edge36" class="edge">
<title>node_40&#45;&gt;node_22</title>
<path fill="none" stroke="#000000" stroke-dasharray="1,5" d="M376.7765,-449.0014C379.8829,-448.6418 382.9629,-448.3064 386,-448 534.266,-433.04 913.3235,-463.0119 1056,-420 1058.913,-419.1218 1061.8303,-418.0004 1064.6967,-416.7183"/>
<polygon fill="#000000" stroke="#000000" points="1066.2893,-419.835 1073.6111,-412.1772 1063.1119,-413.5977 1066.2893,-419.835"/>
</g>
<!-- node_40&#45;&gt;node_42 -->
<g id="edge16" class="edge">
<title>node_40&#45;&gt;node_42</title>
<path fill="none" stroke="#000000" d="M318.0552,-447.8519C331.5113,-440.6976 345.5084,-431.419 356,-420 370.5334,-404.1819 364.8853,-394.3819 376,-376 381.7747,-366.4496 388.969,-356.6347 395.7626,-348.0362"/>
<polygon fill="#000000" stroke="#000000" points="398.5234,-350.1884 402.0939,-340.2133 393.0821,-345.7846 398.5234,-350.1884"/>
</g>
<!-- node_43 -->
<g id="node31" class="node">
<title>node_43</title>
<polygon fill="none" stroke="#000000" points="413.4906,-628 122.5094,-628 122.5094,-592 413.4906,-592 413.4906,-628"/>
<text text-anchor="middle" x="268" y="-605.8" font-family="Times,serif" font-size="14.00" fill="#000000">cast n1 from Arr to plainlib.package1.b.Numbers</text>
</g>
<!-- node_41&#45;&gt;node_43 -->
<g id="edge17" class="edge">
<title>node_41&#45;&gt;node_43</title>
<path fill="none" stroke="#000000" d="M528.2923,-673.529C485.2431,-663.022 410.3985,-644.7549 351.9832,-630.4976"/>
<polygon fill="#000000" stroke="#000000" points="352.5641,-627.0367 342.0193,-628.0657 350.9042,-633.8371 352.5641,-627.0367"/>
</g>
<!-- node_42&#45;&gt;node_20 -->
<g id="edge32" class="edge">
<title>node_42&#45;&gt;node_20</title>
<path fill="none" stroke="#000000" stroke-dasharray="1,5" d="M504.0988,-340.0207C553.2188,-350.3016 614.914,-363.2146 665.6452,-373.8327"/>
<polygon fill="#000000" stroke="#000000" points="665.1333,-377.3014 675.6383,-375.9243 666.5674,-370.4498 665.1333,-377.3014"/>
</g>
<!-- node_43&#45;&gt;node_38 -->
<g id="edge23" class="edge">
<title>node_43&#45;&gt;node_38</title>
<path fill="none" stroke="#000000" d="M226.6159,-591.8314C204.6818,-582.2018 177.5608,-570.295 154.4069,-560.1299"/>
<polygon fill="#000000" stroke="#000000" points="155.65,-556.8532 145.0865,-556.038 152.836,-563.2627 155.65,-556.8532"/>
</g>
<!-- node_45 -->
<g id="node33" class="node">
<title>node_45</title>
<polygon fill="none" stroke="#000000" points="628.4906,-556 337.5094,-556 337.5094,-520 628.4906,-520 628.4906,-556"/>
<text text-anchor="middle" x="483" y="-533.8" font-family="Times,serif" font-size="14.00" fill="#000000">cast n4 from Arr to plainlib.package1.b.Numbers</text>
</g>
<!-- node_44&#45;&gt;node_45 -->
<g id="edge12" class="edge">
<title>node_44&#45;&gt;node_45</title>
<path fill="none" stroke="#000000" d="M565.2424,-591.8314C551.303,-582.7074 534.2402,-571.539 519.2769,-561.7449"/>
<polygon fill="#000000" stroke="#000000" points="521.0326,-558.711 510.7488,-556.1628 517.199,-564.5679 521.0326,-558.711"/>
</g>
<!-- node_45&#45;&gt;node_46 -->
<g id="edge13" class="edge">
<title>node_45&#45;&gt;node_46</title>
<path fill="none" stroke="#000000" d="M483,-519.8314C483,-512.131 483,-502.9743 483,-494.4166"/>
<polygon fill="#000000" stroke="#000000" points="486.5001,-494.4132 483,-484.4133 479.5001,-494.4133 486.5001,-494.4132"/>
</g>
<!-- node_46&#45;&gt;node_37 -->
<g id="edge22" class="edge">
<title>node_46&#45;&gt;node_37</title>
<path fill="none" stroke="#000000" d="M484.2617,-447.8314C484.7965,-440.131 485.4323,-430.9743 486.0266,-422.4166"/>
<polygon fill="#000000" stroke="#000000" points="489.52,-422.6317 486.7213,-412.4133 482.5368,-422.1467 489.52,-422.6317"/>
</g>
<!-- node_47 -->
<g id="node35" class="node">
<title>node_47</title>
<polygon fill="none" stroke="#000000" points="319.8041,-556 210.1959,-556 210.1959,-520 319.8041,-520 319.8041,-556"/>
<text text-anchor="middle" x="265" y="-533.8" font-family="Times,serif" font-size="14.00" fill="#000000">parse Number: 5</text>
</g>
<!-- node_47&#45;&gt;node_46 -->
<g id="edge26" class="edge">
<title>node_47&#45;&gt;node_46</title>
<path fill="none" stroke="#000000" d="M319.7292,-519.9243C349.7902,-509.9959 387.245,-497.6255 418.6954,-487.2382"/>
<polygon fill="#000000" stroke="#000000" points="419.8504,-490.5428 428.2483,-484.0831 417.6551,-483.8959 419.8504,-490.5428"/>
</g>
<!-- node_48 -->
<g id="node36" class="node">
<title>node_48</title>
<polygon fill="none" stroke="#000000" points="238,-700 134.9769,-682 238,-664 341.0231,-682 238,-700"/>
<text text-anchor="middle" x="238" y="-677.8" font-family="Times,serif" font-size="14.00" fill="#000000">PY_EXECUTOR</text>
</g>
<!-- node_51 -->
<g id="node37" class="node">
<title>node_51</title>
<polygon fill="none" stroke="#000000" points="1213.0269,-484 1014.9731,-484 1014.9731,-448 1213.0269,-448 1213.0269,-484"/>
<text text-anchor="middle" x="1114" y="-461.8" font-family="Times,serif" font-size="14.00" fill="#000000">transmit g&#45;&gt;JAVA_EXECUTOR</text>
</g>
<!-- node_51&#45;&gt;node_21 -->
<g id="edge27" class="edge">
<title>node_51&#45;&gt;node_21</title>
<path fill="none" stroke="#000000" stroke-dasharray="1,5" d="M1131.4116,-447.8314C1139.521,-439.3694 1149.3156,-429.1489 1158.182,-419.8971"/>
<polygon fill="#000000" stroke="#000000" points="1160.9618,-422.0549 1165.354,-412.4133 1155.9079,-417.2115 1160.9618,-422.0549"/>
</g>
<!-- node_52 -->
<g id="node38" class="node">
<title>node_52</title>
<polygon fill="none" stroke="#000000" points="1725.5269,-484 1520.4731,-484 1520.4731,-448 1725.5269,-448 1725.5269,-484"/>
<text text-anchor="middle" x="1623" y="-461.8" font-family="Times,serif" font-size="14.00" fill="#000000">transmit n1&#45;&gt;JAVA_EXECUTOR</text>
</g>
<!-- node_52&#45;&gt;node_18 -->
<g id="edge37" class="edge">
<title>node_52&#45;&gt;node_18</title>
<path fill="none" stroke="#000000" stroke-dasharray="1,5" d="M1640.1593,-447.8314C1648.1511,-439.3694 1657.8038,-429.1489 1666.5416,-419.8971"/>
<polygon fill="#000000" stroke="#000000" points="1669.288,-422.0866 1673.6097,-412.4133 1664.1989,-417.2802 1669.288,-422.0866"/>
</g>
</g>
</svg>
