<?xml version="1.0" encoding="UTF-8" standalone="no"?>
<!DOCTYPE svg PUBLIC "-//W3C//DTD SVG 1.1//EN"
 "http://www.w3.org/Graphics/SVG/1.1/DTD/svg11.dtd">
<!-- Generated by graphviz version 2.40.1 (20161225.0304)
 -->
<!-- Title: %3 Pages: 1 -->
<svg width="1972pt" height="724pt"
 viewBox="0.00 0.00 1971.76 724.00" xmlns="http://www.w3.org/2000/svg" xmlns:xlink="http://www.w3.org/1999/xlink">
<g id="graph0" class="graph" transform="scale(1 1) rotate(0) translate(4 720)">
<title>%3</title>
<polygon fill="#ffffff" stroke="transparent" points="-4,4 -4,-720 1967.7632,-720 1967.7632,4 -4,4"/>
<g id="clust1" class="cluster">
<title>cluster_1773283386</title>
<polygon fill="none" stroke="#000000" points="8,-296 8,-708 636,-708 636,-296 8,-296"/>
</g>
<g id="clust2" class="cluster">
<title>cluster_200224114</title>
<polygon fill="none" stroke="#000000" points="660,-8 660,-420 1750,-420 1750,-8 660,-8"/>
</g>
<!-- node_49 -->
<g id="node1" class="node">
<title>node_49</title>
<polygon fill="none" stroke="#000000" points="1963.5269,-268 1758.4731,-268 1758.4731,-232 1963.5269,-232 1963.5269,-268"/>
<text text-anchor="middle" x="1861" y="-245.8" font-family="Times,serif" font-size="14.00" fill="#000000">transmit n2&#45;&gt;JAVA_EXECUTOR</text>
</g>
<!-- node_26 -->
<g id="node33" class="node">
<title>node_26</title>
<polygon fill="none" stroke="#000000" points="1552.7456,-196 1483.2544,-196 1483.2544,-160 1552.7456,-160 1552.7456,-196"/>
<text text-anchor="middle" x="1518" y="-173.8" font-family="Times,serif" font-size="14.00" fill="#000000">accept n2</text>
</g>
<!-- node_49&#45;&gt;node_26 -->
<g id="edge32" class="edge">
<title>node_49&#45;&gt;node_26</title>
<path fill="none" stroke="#000000" stroke-dasharray="1,5" d="M1774.8894,-231.9243C1707.4022,-217.7579 1616.2306,-198.6198 1562.6128,-187.3648"/>
<polygon fill="#000000" stroke="#000000" points="1563.236,-183.9194 1552.7303,-185.2903 1561.7979,-190.7701 1563.236,-183.9194"/>
</g>
<!-- node_50 -->
<g id="node2" class="node">
<title>node_50</title>
<polygon fill="none" stroke="#000000" points="1285.5269,-484 1080.4731,-484 1080.4731,-448 1285.5269,-448 1285.5269,-484"/>
<text text-anchor="middle" x="1183" y="-461.8" font-family="Times,serif" font-size="14.00" fill="#000000">transmit n1&#45;&gt;JAVA_EXECUTOR</text>
</g>
<!-- node_25 -->
<g id="node32" class="node">
<title>node_25</title>
<polygon fill="none" stroke="#000000" points="1331.7456,-412 1262.2544,-412 1262.2544,-376 1331.7456,-376 1331.7456,-412"/>
<text text-anchor="middle" x="1297" y="-389.8" font-family="Times,serif" font-size="14.00" fill="#000000">accept n1</text>
</g>
<!-- node_50&#45;&gt;node_25 -->
<g id="edge30" class="edge">
<title>node_50&#45;&gt;node_25</title>
<path fill="none" stroke="#000000" stroke-dasharray="1,5" d="M1211.767,-447.8314C1226.2133,-438.7074 1243.8965,-427.539 1259.404,-417.7449"/>
<polygon fill="#000000" stroke="#000000" points="1261.6563,-420.462 1268.2422,-412.1628 1257.9183,-414.5436 1261.6563,-420.462"/>
</g>
<!-- node_51 -->
<g id="node3" class="node">
<title>node_51</title>
<polygon fill="none" stroke="#000000" points="1502.0269,-484 1303.9731,-484 1303.9731,-448 1502.0269,-448 1502.0269,-484"/>
<text text-anchor="middle" x="1403" y="-461.8" font-family="Times,serif" font-size="14.00" fill="#000000">transmit b&#45;&gt;JAVA_EXECUTOR</text>
</g>
<!-- node_17 -->
<g id="node24" class="node">
<title>node_17</title>
<polygon fill="none" stroke="#000000" points="1412.2456,-412 1349.7544,-412 1349.7544,-376 1412.2456,-376 1412.2456,-412"/>
<text text-anchor="middle" x="1381" y="-389.8" font-family="Times,serif" font-size="14.00" fill="#000000">accept b</text>
</g>
<!-- node_51&#45;&gt;node_17 -->
<g id="edge35" class="edge">
<title>node_51&#45;&gt;node_17</title>
<path fill="none" stroke="#000000" stroke-dasharray="1,5" d="M1397.4485,-447.8314C1395.0697,-440.0463 1392.2362,-430.7729 1389.5967,-422.1347"/>
<polygon fill="#000000" stroke="#000000" points="1392.8958,-420.954 1386.6263,-412.4133 1386.2013,-422.9996 1392.8958,-420.954"/>
</g>
<!-- node_52 -->
<g id="node4" class="node">
<title>node_52</title>
<polygon fill="none" stroke="#000000" points="1742.0269,-484 1543.9731,-484 1543.9731,-448 1742.0269,-448 1742.0269,-484"/>
<text text-anchor="middle" x="1643" y="-461.8" font-family="Times,serif" font-size="14.00" fill="#000000">transmit g&#45;&gt;JAVA_EXECUTOR</text>
</g>
<!-- node_18 -->
<g id="node25" class="node">
<title>node_18</title>
<polygon fill="none" stroke="#000000" points="1742.2456,-412 1679.7544,-412 1679.7544,-376 1742.2456,-376 1742.2456,-412"/>
<text text-anchor="middle" x="1711" y="-389.8" font-family="Times,serif" font-size="14.00" fill="#000000">accept g</text>
</g>
<!-- node_52&#45;&gt;node_18 -->
<g id="edge36" class="edge">
<title>node_52&#45;&gt;node_18</title>
<path fill="none" stroke="#000000" stroke-dasharray="1,5" d="M1660.1593,-447.8314C1668.1511,-439.3694 1677.8038,-429.1489 1686.5416,-419.8971"/>
<polygon fill="#000000" stroke="#000000" points="1689.288,-422.0866 1693.6097,-412.4133 1684.1989,-417.2802 1689.288,-422.0866"/>
</g>
<!-- node_34 -->
<g id="node5" class="node">
<title>node_34</title>
<polygon fill="none" stroke="#000000" points="628.2825,-556 451.7175,-556 451.7175,-520 628.2825,-520 628.2825,-556"/>
<text text-anchor="middle" x="540" y="-533.8" font-family="Times,serif" font-size="14.00" fill="#000000">n3 = b::calc_append([n1, 3])</text>
</g>
<!-- node_40 -->
<g id="node11" class="node">
<title>node_40</title>
<polygon fill="none" stroke="#000000" points="367.2825,-484 190.7175,-484 190.7175,-448 367.2825,-448 367.2825,-484"/>
<text text-anchor="middle" x="279" y="-461.8" font-family="Times,serif" font-size="14.00" fill="#000000">n5 = b::calc_append([n4, 5])</text>
</g>
<!-- node_34&#45;&gt;node_40 -->
<g id="edge4" class="edge">
<title>node_34&#45;&gt;node_40</title>
<path fill="none" stroke="#000000" d="M474.4756,-519.9243C438.0197,-509.8675 392.4812,-497.3052 354.5315,-486.8363"/>
<polygon fill="#000000" stroke="#000000" points="355.1221,-483.3685 344.5514,-484.0831 353.2605,-490.1165 355.1221,-483.3685"/>
</g>
<!-- node_44 -->
<g id="node15" class="node">
<title>node_44</title>
<polygon fill="none" stroke="#000000" points="590.5269,-412 385.4731,-412 385.4731,-376 590.5269,-376 590.5269,-412"/>
<text text-anchor="middle" x="488" y="-389.8" font-family="Times,serif" font-size="14.00" fill="#000000">transmit n3&#45;&gt;JAVA_EXECUTOR</text>
</g>
<!-- node_34&#45;&gt;node_44 -->
<g id="edge5" class="edge">
<title>node_34&#45;&gt;node_44</title>
<path fill="none" stroke="#000000" d="M459.094,-519.9272C440.9705,-511.9545 423.9046,-500.486 413,-484 404.1731,-470.6551 405.7056,-462.2405 413,-448 419.237,-435.8238 429.6395,-425.7682 440.7407,-417.7713"/>
<polygon fill="#000000" stroke="#000000" points="442.9316,-420.5171 449.3086,-412.0563 439.0473,-414.6937 442.9316,-420.5171"/>
</g>
<!-- node_45 -->
<g id="node16" class="node">
<title>node_45</title>
<polygon fill="none" stroke="#000000" points="627.5269,-484 422.4731,-484 422.4731,-448 627.5269,-448 627.5269,-484"/>
<text text-anchor="middle" x="525" y="-461.8" font-family="Times,serif" font-size="14.00" fill="#000000">transmit n3&#45;&gt;JAVA_EXECUTOR</text>
</g>
<!-- node_34&#45;&gt;node_45 -->
<g id="edge6" class="edge">
<title>node_34&#45;&gt;node_45</title>
<path fill="none" stroke="#000000" d="M536.2149,-519.8314C534.6106,-512.131 532.703,-502.9743 530.9201,-494.4166"/>
<polygon fill="#000000" stroke="#000000" points="534.3021,-493.4892 528.8361,-484.4133 527.4493,-494.9169 534.3021,-493.4892"/>
</g>
<!-- node_35 -->
<g id="node6" class="node">
<title>node_35</title>
<polygon fill="none" stroke="#000000" points="586.2456,-700 523.7544,-700 523.7544,-664 586.2456,-664 586.2456,-700"/>
<text text-anchor="middle" x="555" y="-677.8" font-family="Times,serif" font-size="14.00" fill="#000000">accept b</text>
</g>
<!-- node_38 -->
<g id="node9" class="node">
<title>node_38</title>
<polygon fill="none" stroke="#000000" points="540,-628 486,-628 486,-592 540,-592 540,-628"/>
<text text-anchor="middle" x="513" y="-605.8" font-family="Times,serif" font-size="14.00" fill="#000000">load b</text>
</g>
<!-- node_35&#45;&gt;node_38 -->
<g id="edge2" class="edge">
<title>node_35&#45;&gt;node_38</title>
<path fill="none" stroke="#000000" d="M544.4016,-663.8314C539.7123,-655.7925 534.0972,-646.1666 528.9202,-637.2918"/>
<polygon fill="#000000" stroke="#000000" points="531.8031,-635.2875 523.7411,-628.4133 525.7566,-638.8146 531.8031,-635.2875"/>
</g>
<!-- node_36 -->
<g id="node7" class="node">
<title>node_36</title>
<polygon fill="none" stroke="#000000" points="410.7456,-700 341.2544,-700 341.2544,-664 410.7456,-664 410.7456,-700"/>
<text text-anchor="middle" x="376" y="-677.8" font-family="Times,serif" font-size="14.00" fill="#000000">accept n1</text>
</g>
<!-- node_47 -->
<g id="node18" class="node">
<title>node_47</title>
<polygon fill="none" stroke="#000000" points="468.4906,-628 177.5094,-628 177.5094,-592 468.4906,-592 468.4906,-628"/>
<text text-anchor="middle" x="323" y="-605.8" font-family="Times,serif" font-size="14.00" fill="#000000">cast n1 from Arr to plainlib.package1.b.Numbers</text>
</g>
<!-- node_36&#45;&gt;node_47 -->
<g id="edge7" class="edge">
<title>node_36&#45;&gt;node_47</title>
<path fill="none" stroke="#000000" d="M362.6259,-663.8314C356.5838,-655.6232 349.3237,-645.7606 342.6779,-636.7323"/>
<polygon fill="#000000" stroke="#000000" points="345.3011,-634.3918 336.5542,-628.4133 339.6637,-638.5415 345.3011,-634.3918"/>
</g>
<!-- node_37 -->
<g id="node8" class="node">
<title>node_37</title>
<polygon fill="none" stroke="#000000" points="306.4906,-556 15.5094,-556 15.5094,-520 306.4906,-520 306.4906,-556"/>
<text text-anchor="middle" x="161" y="-533.8" font-family="Times,serif" font-size="14.00" fill="#000000">cast n4 from Arr to plainlib.package1.b.Numbers</text>
</g>
<!-- node_37&#45;&gt;node_40 -->
<g id="edge3" class="edge">
<title>node_37&#45;&gt;node_40</title>
<path fill="none" stroke="#000000" d="M190.7764,-519.8314C205.8693,-510.6221 224.3757,-499.3301 240.5343,-489.4706"/>
<polygon fill="#000000" stroke="#000000" points="242.5198,-492.3593 249.2331,-484.1628 238.8737,-486.3838 242.5198,-492.3593"/>
</g>
<!-- node_38&#45;&gt;node_34 -->
<g id="edge13" class="edge">
<title>node_38&#45;&gt;node_34</title>
<path fill="none" stroke="#000000" d="M519.8132,-591.8314C522.7644,-583.9617 526.2858,-574.5712 529.555,-565.8533"/>
<polygon fill="#000000" stroke="#000000" points="532.8609,-567.0055 533.095,-556.4133 526.3066,-564.5476 532.8609,-567.0055"/>
</g>
<!-- node_39 -->
<g id="node10" class="node">
<title>node_39</title>
<polygon fill="none" stroke="#000000" points="612.2677,-340 361.7323,-340 361.7323,-304 612.2677,-304 612.2677,-340"/>
<text text-anchor="middle" x="487" y="-317.8" font-family="Times,serif" font-size="14.00" fill="#000000">FinishNode &amp;finished&amp;PY_EXECUTOR</text>
</g>
<!-- node_15 -->
<g id="node22" class="node">
<title>node_15</title>
<polygon fill="none" stroke="#000000" points="888.175,-412 667.825,-412 667.825,-376 888.175,-376 888.175,-412"/>
<text text-anchor="middle" x="778" y="-389.8" font-family="Times,serif" font-size="14.00" fill="#000000">accept &amp;finished&amp;PY_EXECUTOR</text>
</g>
<!-- node_39&#45;&gt;node_15 -->
<g id="edge31" class="edge">
<title>node_39&#45;&gt;node_15</title>
<path fill="none" stroke="#000000" stroke-dasharray="1,5" d="M559.8336,-340.0207C600.9528,-350.1945 652.4894,-362.9458 695.1465,-373.5002"/>
<polygon fill="#000000" stroke="#000000" points="694.3961,-376.92 704.944,-375.9243 696.0774,-370.1249 694.3961,-376.92"/>
</g>
<!-- node_41 -->
<g id="node12" class="node">
<title>node_41</title>
<polygon fill="none" stroke="#000000" points="366.5269,-412 161.4731,-412 161.4731,-376 366.5269,-376 366.5269,-412"/>
<text text-anchor="middle" x="264" y="-389.8" font-family="Times,serif" font-size="14.00" fill="#000000">transmit n5&#45;&gt;JAVA_EXECUTOR</text>
</g>
<!-- node_40&#45;&gt;node_41 -->
<g id="edge1" class="edge">
<title>node_40&#45;&gt;node_41</title>
<path fill="none" stroke="#000000" d="M275.2149,-447.8314C273.6106,-440.131 271.703,-430.9743 269.9201,-422.4166"/>
<polygon fill="#000000" stroke="#000000" points="273.3021,-421.4892 267.8361,-412.4133 266.4493,-422.9169 273.3021,-421.4892"/>
</g>
<!-- node_41&#45;&gt;node_39 -->
<g id="edge15" class="edge">
<title>node_41&#45;&gt;node_39</title>
<path fill="none" stroke="#000000" d="M319.9845,-375.9243C350.735,-365.9959 389.0488,-353.6255 421.2205,-343.2382"/>
<polygon fill="#000000" stroke="#000000" points="422.5516,-346.4864 430.9925,-340.0831 420.4008,-339.825 422.5516,-346.4864"/>
</g>
<!-- node_32 -->
<g id="node20" class="node">
<title>node_32</title>
<polygon fill="none" stroke="#000000" points="975.7456,-412 906.2544,-412 906.2544,-376 975.7456,-376 975.7456,-412"/>
<text text-anchor="middle" x="941" y="-389.8" font-family="Times,serif" font-size="14.00" fill="#000000">accept n5</text>
</g>
<!-- node_41&#45;&gt;node_32 -->
<g id="edge29" class="edge">
<title>node_41&#45;&gt;node_32</title>
<path fill="none" stroke="#000000" stroke-dasharray="1,5" d="M307.4073,-412.0887C330.0918,-420.5756 358.5691,-429.7445 385,-434 440.1783,-442.884 835.0058,-451.7534 888,-434 897.7352,-430.7386 907.1115,-424.9051 915.2003,-418.6839"/>
<polygon fill="#000000" stroke="#000000" points="917.6344,-421.2134 923.1247,-412.152 913.182,-415.8118 917.6344,-421.2134"/>
</g>
<!-- node_42 -->
<g id="node13" class="node">
<title>node_42</title>
<polygon fill="none" stroke="#000000" points="159.8041,-628 50.1959,-628 50.1959,-592 159.8041,-592 159.8041,-628"/>
<text text-anchor="middle" x="105" y="-605.8" font-family="Times,serif" font-size="14.00" fill="#000000">parse Number: 3</text>
</g>
<!-- node_42&#45;&gt;node_34 -->
<g id="edge10" class="edge">
<title>node_42&#45;&gt;node_34</title>
<path fill="none" stroke="#000000" d="M159.6861,-594.0623C162.8265,-593.321 165.9472,-592.6265 169,-592 286.1447,-567.9604 319.9192,-574.8174 441.6588,-556.155"/>
<polygon fill="#000000" stroke="#000000" points="442.4052,-559.581 451.7463,-554.5815 441.3263,-552.6646 442.4052,-559.581"/>
</g>
<!-- node_43 -->
<g id="node14" class="node">
<title>node_43</title>
<polygon fill="none" stroke="#000000" points="433.8041,-556 324.1959,-556 324.1959,-520 433.8041,-520 433.8041,-556"/>
<text text-anchor="middle" x="379" y="-533.8" font-family="Times,serif" font-size="14.00" fill="#000000">parse Number: 5</text>
</g>
<!-- node_43&#45;&gt;node_40 -->
<g id="edge14" class="edge">
<title>node_43&#45;&gt;node_40</title>
<path fill="none" stroke="#000000" d="M353.7658,-519.8314C341.212,-510.7927 325.8717,-499.7476 312.3609,-490.0198"/>
<polygon fill="#000000" stroke="#000000" points="314.3866,-487.1655 304.2261,-484.1628 310.2964,-492.8463 314.3866,-487.1655"/>
</g>
<!-- node_44&#45;&gt;node_39 -->
<g id="edge12" class="edge">
<title>node_44&#45;&gt;node_39</title>
<path fill="none" stroke="#000000" d="M487.7477,-375.8314C487.6407,-368.131 487.5135,-358.9743 487.3947,-350.4166"/>
<polygon fill="#000000" stroke="#000000" points="490.8944,-350.3637 487.2557,-340.4133 483.8951,-350.4609 490.8944,-350.3637"/>
</g>
<!-- node_27 -->
<g id="node34" class="node">
<title>node_27</title>
<polygon fill="none" stroke="#000000" points="1157.7456,-412 1088.2544,-412 1088.2544,-376 1157.7456,-376 1157.7456,-412"/>
<text text-anchor="middle" x="1123" y="-389.8" font-family="Times,serif" font-size="14.00" fill="#000000">accept n3</text>
</g>
<!-- node_44&#45;&gt;node_27 -->
<g id="edge37" class="edge">
<title>node_44&#45;&gt;node_27</title>
<path fill="none" stroke="#000000" stroke-dasharray="1,5" d="M551.7332,-412.0069C585.1569,-420.5293 626.9587,-429.7551 665,-434 709.8329,-439.0028 1028.2916,-448.5261 1071,-434 1080.6037,-430.7336 1089.8189,-424.8985 1097.7536,-418.6775"/>
<polygon fill="#000000" stroke="#000000" points="1100.1199,-421.2607 1105.5215,-412.1463 1095.615,-415.9029 1100.1199,-421.2607"/>
</g>
<!-- node_45&#45;&gt;node_39 -->
<g id="edge11" class="edge">
<title>node_45&#45;&gt;node_39</title>
<path fill="none" stroke="#000000" d="M570.6309,-447.9579C582.2716,-441.0367 593.3597,-431.8625 600,-420 609.552,-402.936 610.4291,-392.5425 600,-376 591.5343,-362.5717 578.7067,-352.4107 564.6937,-344.7455"/>
<polygon fill="#000000" stroke="#000000" points="565.856,-341.4129 555.3479,-340.0595 562.7184,-347.6704 565.856,-341.4129"/>
</g>
<!-- node_16 -->
<g id="node23" class="node">
<title>node_16</title>
<polygon fill="none" stroke="#000000" points="1244.7456,-412 1175.2544,-412 1175.2544,-376 1244.7456,-376 1244.7456,-412"/>
<text text-anchor="middle" x="1210" y="-389.8" font-family="Times,serif" font-size="14.00" fill="#000000">accept n3</text>
</g>
<!-- node_45&#45;&gt;node_16 -->
<g id="edge28" class="edge">
<title>node_45&#45;&gt;node_16</title>
<path fill="none" stroke="#000000" stroke-dasharray="1,5" d="M627.7497,-464.4723C782.9723,-461.1798 1069.4892,-450.9862 1167,-420 1169.8996,-419.0786 1172.8071,-417.9257 1175.6667,-416.6215"/>
<polygon fill="#000000" stroke="#000000" points="1177.2794,-419.728 1184.5683,-412.0388 1174.0753,-413.5043 1177.2794,-419.728"/>
</g>
<!-- node_46 -->
<g id="node17" class="node">
<title>node_46</title>
<polygon fill="none" stroke="#000000" points="627.7456,-628 558.2544,-628 558.2544,-592 627.7456,-592 627.7456,-628"/>
<text text-anchor="middle" x="593" y="-605.8" font-family="Times,serif" font-size="14.00" fill="#000000">accept n4</text>
</g>
<!-- node_46&#45;&gt;node_37 -->
<g id="edge9" class="edge">
<title>node_46&#45;&gt;node_37</title>
<path fill="none" stroke="#000000" d="M558.2084,-594.8479C555.1269,-593.7868 552.0282,-592.8163 549,-592 525.9863,-585.7964 411.8294,-570.1942 313.2502,-557.3471"/>
<polygon fill="#000000" stroke="#000000" points="313.521,-553.8529 303.153,-556.0337 312.618,-560.7944 313.521,-553.8529"/>
</g>
<!-- node_47&#45;&gt;node_34 -->
<g id="edge8" class="edge">
<title>node_47&#45;&gt;node_34</title>
<path fill="none" stroke="#000000" d="M377.4782,-591.9243C407.4013,-581.9959 444.6843,-569.6255 475.9904,-559.2382"/>
<polygon fill="#000000" stroke="#000000" points="477.1104,-562.5543 485.4994,-556.0831 474.906,-555.9104 477.1104,-562.5543"/>
</g>
<!-- node_48 -->
<g id="node19" class="node">
<title>node_48</title>
<polygon fill="none" stroke="#000000" points="196,-700 92.9769,-682 196,-664 299.0231,-682 196,-700"/>
<text text-anchor="middle" x="196" y="-677.8" font-family="Times,serif" font-size="14.00" fill="#000000">PY_EXECUTOR</text>
</g>
<!-- node_33 -->
<g id="node21" class="node">
<title>node_33</title>
<polygon fill="none" stroke="#000000" points="1546,-412 1430.4748,-394 1546,-376 1661.5252,-394 1546,-412"/>
<text text-anchor="middle" x="1546" y="-389.8" font-family="Times,serif" font-size="14.00" fill="#000000">JAVA_EXECUTOR</text>
</g>
<!-- node_29 -->
<g id="node36" class="node">
<title>node_29</title>
<polygon fill="none" stroke="#000000" points="1256.3694,-340 1029.6306,-340 1029.6306,-304 1256.3694,-304 1256.3694,-340"/>
<text text-anchor="middle" x="1143" y="-317.8" font-family="Times,serif" font-size="14.00" fill="#000000">cast n3 from Arr to demo.types.Punkt</text>
</g>
<!-- node_16&#45;&gt;node_29 -->
<g id="edge23" class="edge">
<title>node_16&#45;&gt;node_29</title>
<path fill="none" stroke="#000000" d="M1193.0931,-375.8314C1185.2187,-367.3694 1175.708,-357.1489 1167.0987,-347.8971"/>
<polygon fill="#000000" stroke="#000000" points="1169.5092,-345.3497 1160.1346,-340.4133 1164.3847,-350.1183 1169.5092,-345.3497"/>
</g>
<!-- node_22 -->
<g id="node29" class="node">
<title>node_22</title>
<polygon fill="none" stroke="#000000" points="1668.2531,-340 1483.7469,-340 1483.7469,-304 1668.2531,-304 1668.2531,-340"/>
<text text-anchor="middle" x="1576" y="-317.8" font-family="Times,serif" font-size="14.00" fill="#000000">transmit b&#45;&gt;PY_EXECUTOR</text>
</g>
<!-- node_17&#45;&gt;node_22 -->
<g id="edge17" class="edge">
<title>node_17&#45;&gt;node_22</title>
<path fill="none" stroke="#000000" d="M1412.3316,-379.5883C1415.2481,-378.3415 1418.1701,-377.1271 1421,-376 1450.1279,-364.3982 1482.8499,-352.7941 1510.6959,-343.3328"/>
<polygon fill="#000000" stroke="#000000" points="1511.9742,-346.5954 1520.3281,-340.0791 1509.7339,-339.9635 1511.9742,-346.5954"/>
</g>
<!-- node_31 -->
<g id="node38" class="node">
<title>node_31</title>
<polygon fill="none" stroke="#000000" points="1740,-340 1686,-340 1686,-304 1740,-304 1740,-340"/>
<text text-anchor="middle" x="1713" y="-317.8" font-family="Times,serif" font-size="14.00" fill="#000000">load g</text>
</g>
<!-- node_18&#45;&gt;node_31 -->
<g id="edge24" class="edge">
<title>node_18&#45;&gt;node_31</title>
<path fill="none" stroke="#000000" d="M1711.5047,-375.8314C1711.7186,-368.131 1711.9729,-358.9743 1712.2106,-350.4166"/>
<polygon fill="#000000" stroke="#000000" points="1715.7094,-350.5066 1712.4885,-340.4133 1708.7121,-350.3122 1715.7094,-350.5066"/>
</g>
<!-- node_19 -->
<g id="node26" class="node">
<title>node_19</title>
<polygon fill="none" stroke="#000000" points="1047.7531,-52 856.2469,-52 856.2469,-16 1047.7531,-16 1047.7531,-52"/>
<text text-anchor="middle" x="952" y="-29.8" font-family="Times,serif" font-size="14.00" fill="#000000">transmit n4&#45;&gt;PY_EXECUTOR</text>
</g>
<!-- node_19&#45;&gt;node_46 -->
<g id="edge33" class="edge">
<title>node_19&#45;&gt;node_46</title>
<path fill="none" stroke="#000000" stroke-dasharray="1,5" d="M879.6367,-52.018C787.4688,-77.1258 640,-125.5013 640,-178 640,-322 640,-322 640,-322 640,-426.0085 672.4947,-458.2355 637,-556 633.3476,-566.0599 626.9621,-575.6179 620.1695,-583.8187"/>
<polygon fill="#000000" stroke="#000000" points="617.3429,-581.7311 613.3275,-591.5355 622.5807,-586.3751 617.3429,-581.7311"/>
</g>
<!-- node_20 -->
<g id="node27" class="node">
<title>node_20</title>
<polygon fill="none" stroke="#000000" points="1465.7531,-340 1274.2469,-340 1274.2469,-304 1465.7531,-304 1465.7531,-340"/>
<text text-anchor="middle" x="1370" y="-317.8" font-family="Times,serif" font-size="14.00" fill="#000000">transmit n1&#45;&gt;PY_EXECUTOR</text>
</g>
<!-- node_20&#45;&gt;node_36 -->
<g id="edge27" class="edge">
<title>node_20&#45;&gt;node_36</title>
<path fill="none" stroke="#000000" stroke-dasharray="1,5" d="M1465.8244,-338.5899C1468.9177,-339.0734 1471.9825,-339.5447 1475,-340 1536.1607,-349.2273 1705.584,-334.01 1751,-376 1781.0177,-403.7533 1770,-425.1184 1770,-466 1770,-538 1770,-538 1770,-538 1770,-678.1455 654.2291,-647.9993 515,-664 483.4893,-667.6213 448.0309,-672.2215 420.8141,-675.8648"/>
<polygon fill="#000000" stroke="#000000" points="420.2561,-672.4083 410.812,-677.2103 421.1894,-679.3458 420.2561,-672.4083"/>
</g>
<!-- node_21 -->
<g id="node28" class="node">
<title>node_21</title>
<polygon fill="none" stroke="#000000" points="1070.5381,-412 993.4619,-412 993.4619,-376 1070.5381,-376 1070.5381,-412"/>
<text text-anchor="middle" x="1032" y="-389.8" font-family="Times,serif" font-size="14.00" fill="#000000">send graph</text>
</g>
<!-- node_22&#45;&gt;node_35 -->
<g id="edge34" class="edge">
<title>node_22&#45;&gt;node_35</title>
<path fill="none" stroke="#000000" stroke-dasharray="1,5" d="M1668.1885,-338.5322C1712.2012,-348.0727 1758.7742,-361.1199 1775,-376 1806.3996,-404.7955 1808,-423.3959 1808,-466 1808,-538 1808,-538 1808,-538 1808,-635.4743 1703.0648,-606.4611 1608,-628 1410.1822,-672.8197 765.7602,-680.508 596.1925,-681.7648"/>
<polygon fill="#000000" stroke="#000000" points="596.1496,-678.2649 586.1746,-681.8356 596.1992,-685.2648 596.1496,-678.2649"/>
</g>
<!-- node_23 -->
<g id="node30" class="node">
<title>node_23</title>
<polygon fill="none" stroke="#000000" points="1292.6582,-124 993.3418,-124 993.3418,-88 1292.6582,-88 1292.6582,-124"/>
<text text-anchor="middle" x="1143" y="-101.8" font-family="Times,serif" font-size="14.00" fill="#000000">n4 = demo.math.Addierer::summierListe([n3, n2])</text>
</g>
<!-- node_23&#45;&gt;node_19 -->
<g id="edge22" class="edge">
<title>node_23&#45;&gt;node_19</title>
<path fill="none" stroke="#000000" d="M1094.8026,-87.8314C1068.8034,-78.0306 1036.5464,-65.8709 1009.2719,-55.5894"/>
<polygon fill="#000000" stroke="#000000" points="1010.4426,-52.2904 999.8508,-52.038 1007.9734,-58.8404 1010.4426,-52.2904"/>
</g>
<!-- node_24 -->
<g id="node31" class="node">
<title>node_24</title>
<polygon fill="none" stroke="#000000" points="1606.7824,-268 1409.2176,-268 1409.2176,-232 1606.7824,-232 1606.7824,-268"/>
<text text-anchor="middle" x="1508" y="-245.8" font-family="Times,serif" font-size="14.00" fill="#000000">bool1 = g::liagtAufGerade([n3])</text>
</g>
<!-- node_25&#45;&gt;node_20 -->
<g id="edge19" class="edge">
<title>node_25&#45;&gt;node_20</title>
<path fill="none" stroke="#000000" d="M1315.421,-375.8314C1324.1529,-367.219 1334.7317,-356.7851 1344.2423,-347.4048"/>
<polygon fill="#000000" stroke="#000000" points="1346.923,-349.6769 1351.5849,-340.1628 1342.0075,-344.6931 1346.923,-349.6769"/>
</g>
<!-- node_26&#45;&gt;node_23 -->
<g id="edge25" class="edge">
<title>node_26&#45;&gt;node_23</title>
<path fill="none" stroke="#000000" d="M1483.0577,-171.2911C1429.7016,-161.0467 1325.8003,-141.0977 1246.8202,-125.9335"/>
<polygon fill="#000000" stroke="#000000" points="1247.3095,-122.4636 1236.8289,-124.0152 1245.9896,-129.338 1247.3095,-122.4636"/>
</g>
<!-- node_28 -->
<g id="node35" class="node">
<title>node_28</title>
<polygon fill="none" stroke="#000000" points="1275.7384,-196 1010.2616,-196 1010.2616,-160 1275.7384,-160 1275.7384,-196"/>
<text text-anchor="middle" x="1143" y="-173.8" font-family="Times,serif" font-size="14.00" fill="#000000">cast n3 from Arr to demo.types.NummerList</text>
</g>
<!-- node_28&#45;&gt;node_23 -->
<g id="edge20" class="edge">
<title>node_28&#45;&gt;node_23</title>
<path fill="none" stroke="#000000" d="M1143,-159.8314C1143,-152.131 1143,-142.9743 1143,-134.4166"/>
<polygon fill="#000000" stroke="#000000" points="1146.5001,-134.4132 1143,-124.4133 1139.5001,-134.4133 1146.5001,-134.4132"/>
</g>
<!-- node_29&#45;&gt;node_24 -->
<g id="edge21" class="edge">
<title>node_29&#45;&gt;node_24</title>
<path fill="none" stroke="#000000" d="M1226.2933,-303.9834C1239.2413,-301.2595 1252.4738,-298.52 1265,-296 1309.1327,-287.1214 1357.8749,-277.7996 1400.0486,-269.8869"/>
<polygon fill="#000000" stroke="#000000" points="1400.8745,-273.2932 1410.0593,-268.012 1399.5858,-266.4128 1400.8745,-273.2932"/>
</g>
<!-- node_30 -->
<g id="node37" class="node">
<title>node_30</title>
<polygon fill="none" stroke="#000000" points="1256.3694,-268 1029.6306,-268 1029.6306,-232 1256.3694,-232 1256.3694,-268"/>
<text text-anchor="middle" x="1143" y="-245.8" font-family="Times,serif" font-size="14.00" fill="#000000">cast n3 from demo.types.Punkt to Arr</text>
</g>
<!-- node_29&#45;&gt;node_30 -->
<g id="edge16" class="edge">
<title>node_29&#45;&gt;node_30</title>
<path fill="none" stroke="#000000" d="M1143,-303.8314C1143,-296.131 1143,-286.9743 1143,-278.4166"/>
<polygon fill="#000000" stroke="#000000" points="1146.5001,-278.4132 1143,-268.4133 1139.5001,-278.4133 1146.5001,-278.4132"/>
</g>
<!-- node_30&#45;&gt;node_28 -->
<g id="edge26" class="edge">
<title>node_30&#45;&gt;node_28</title>
<path fill="none" stroke="#000000" d="M1143,-231.8314C1143,-224.131 1143,-214.9743 1143,-206.4166"/>
<polygon fill="#000000" stroke="#000000" points="1146.5001,-206.4132 1143,-196.4133 1139.5001,-206.4133 1146.5001,-206.4132"/>
</g>
<!-- node_31&#45;&gt;node_24 -->
<g id="edge18" class="edge">
<title>node_31&#45;&gt;node_24</title>
<path fill="none" stroke="#000000" d="M1690.5321,-303.9176C1686.2082,-300.9836 1681.5914,-298.1931 1677,-296 1655.3924,-285.6789 1631.0863,-277.3547 1607.7867,-270.7757"/>
<polygon fill="#000000" stroke="#000000" points="1608.4428,-267.3266 1597.8736,-268.0622 1606.5947,-274.0782 1608.4428,-267.3266"/>
</g>
</g>
</svg>
