<?xml version="1.0" encoding="UTF-8" standalone="no"?>
<!DOCTYPE svg PUBLIC "-//W3C//DTD SVG 1.1//EN"
 "http://www.w3.org/Graphics/SVG/1.1/DTD/svg11.dtd">
<!-- Generated by graphviz version 2.40.1 (20161225.0304)
 -->
<!-- Title: %3 Pages: 1 -->
<svg width="1014pt" height="508pt"
 viewBox="0.00 0.00 1014.00 508.00" xmlns="http://www.w3.org/2000/svg" xmlns:xlink="http://www.w3.org/1999/xlink">
<g id="graph0" class="graph" transform="scale(1 1) rotate(0) translate(4 504)">
<title>%3</title>
<polygon fill="#ffffff" stroke="transparent" points="-4,4 -4,-504 1010,-504 1010,4 -4,4"/>
<g id="clust1" class="cluster">
<title>cluster_1997963191</title>
<polygon fill="none" stroke="#000000" points="8,-8 8,-204 923,-204 923,-8 8,-8"/>
</g>
<g id="clust2" class="cluster">
<title>cluster_534906248</title>
<polygon fill="none" stroke="#000000" points="521,-224 521,-492 998,-492 998,-224 521,-224"/>
</g>
<!-- node_0 -->
<g id="node1" class="node">
<title>node_0</title>
<polygon fill="none" stroke="#000000" points="835.175,-196 614.825,-196 614.825,-160 835.175,-160 835.175,-196"/>
<text text-anchor="middle" x="725" y="-173.8" font-family="Times,serif" font-size="14.00" fill="#000000">accept &amp;finished&amp;PY_EXECUTOR</text>
</g>
<!-- node_1 -->
<g id="node2" class="node">
<title>node_1</title>
<polygon fill="none" stroke="#000000" points="915.2456,-196 852.7544,-196 852.7544,-160 915.2456,-160 915.2456,-196"/>
<text text-anchor="middle" x="884" y="-173.8" font-family="Times,serif" font-size="14.00" fill="#000000">accept b</text>
</g>
<!-- node_2 -->
<g id="node3" class="node">
<title>node_2</title>
<polygon fill="none" stroke="#000000" points="596.8041,-196 487.1959,-196 487.1959,-160 596.8041,-160 596.8041,-196"/>
<text text-anchor="middle" x="542" y="-173.8" font-family="Times,serif" font-size="14.00" fill="#000000">parse Number: 1</text>
</g>
<!-- node_6 -->
<g id="node7" class="node">
<title>node_6</title>
<polygon fill="none" stroke="#000000" points="559.6514,-124 302.3486,-124 302.3486,-88 559.6514,-88 559.6514,-124"/>
<text text-anchor="middle" x="431" y="-101.8" font-family="Times,serif" font-size="14.00" fill="#000000">g = demo.math.Gerade::__construct([1, 2])</text>
</g>
<!-- node_2&#45;&gt;node_6 -->
<g id="edge2" class="edge">
<title>node_2&#45;&gt;node_6</title>
<path fill="none" stroke="#000000" d="M513.99,-159.8314C499.9239,-150.7074 482.706,-139.539 467.6067,-129.7449"/>
<polygon fill="#000000" stroke="#000000" points="469.2953,-126.6684 459.001,-124.1628 465.486,-132.5412 469.2953,-126.6684"/>
</g>
<!-- node_3 -->
<g id="node4" class="node">
<title>node_3</title>
<polygon fill="none" stroke="#000000" points="469.5381,-196 392.4619,-196 392.4619,-160 469.5381,-160 469.5381,-196"/>
<text text-anchor="middle" x="431" y="-173.8" font-family="Times,serif" font-size="14.00" fill="#000000">send graph</text>
</g>
<!-- node_4 -->
<g id="node5" class="node">
<title>node_4</title>
<polygon fill="none" stroke="#000000" points="458,-52 404,-52 404,-16 458,-16 458,-52"/>
<text text-anchor="middle" x="431" y="-29.8" font-family="Times,serif" font-size="14.00" fill="#000000">store g</text>
</g>
<!-- node_5 -->
<g id="node6" class="node">
<title>node_5</title>
<polygon fill="none" stroke="#000000" points="374.8041,-196 265.1959,-196 265.1959,-160 374.8041,-160 374.8041,-196"/>
<text text-anchor="middle" x="320" y="-173.8" font-family="Times,serif" font-size="14.00" fill="#000000">parse Number: 2</text>
</g>
<!-- node_5&#45;&gt;node_6 -->
<g id="edge1" class="edge">
<title>node_5&#45;&gt;node_6</title>
<path fill="none" stroke="#000000" d="M348.01,-159.8314C362.0761,-150.7074 379.294,-139.539 394.3933,-129.7449"/>
<polygon fill="#000000" stroke="#000000" points="396.514,-132.5412 402.999,-124.1628 392.7047,-126.6684 396.514,-132.5412"/>
</g>
<!-- node_6&#45;&gt;node_4 -->
<g id="edge3" class="edge">
<title>node_6&#45;&gt;node_4</title>
<path fill="none" stroke="#000000" d="M431,-87.8314C431,-80.131 431,-70.9743 431,-62.4166"/>
<polygon fill="#000000" stroke="#000000" points="434.5001,-62.4132 431,-52.4133 427.5001,-62.4133 434.5001,-62.4132"/>
</g>
<!-- node_7 -->
<g id="node8" class="node">
<title>node_7</title>
<polygon fill="none" stroke="#000000" points="132,-196 16.4748,-178 132,-160 247.5252,-178 132,-196"/>
<text text-anchor="middle" x="132" y="-173.8" font-family="Times,serif" font-size="14.00" fill="#000000">JAVA_EXECUTOR</text>
</g>
<!-- node_8 -->
<g id="node9" class="node">
<title>node_8</title>
<polygon fill="none" stroke="#000000" points="989.8041,-484 880.1959,-484 880.1959,-448 989.8041,-448 989.8041,-484"/>
<text text-anchor="middle" x="935" y="-461.8" font-family="Times,serif" font-size="14.00" fill="#000000">parse Number: 1</text>
</g>
<!-- node_11 -->
<g id="node12" class="node">
<title>node_11</title>
<polygon fill="none" stroke="#000000" points="965.6065,-412 692.3935,-412 692.3935,-376 965.6065,-376 965.6065,-412"/>
<text text-anchor="middle" x="829" y="-389.8" font-family="Times,serif" font-size="14.00" fill="#000000">b = plainlib.package1.b.B::__construct([1, 2])</text>
</g>
<!-- node_8&#45;&gt;node_11 -->
<g id="edge6" class="edge">
<title>node_8&#45;&gt;node_11</title>
<path fill="none" stroke="#000000" d="M908.2517,-447.8314C894.9447,-438.7927 878.684,-427.7476 864.3625,-418.0198"/>
<polygon fill="#000000" stroke="#000000" points="865.9785,-414.8864 855.7397,-412.1628 862.0453,-420.677 865.9785,-414.8864"/>
</g>
<!-- node_9 -->
<g id="node10" class="node">
<title>node_9</title>
<polygon fill="none" stroke="#000000" points="969.0269,-340 770.9731,-340 770.9731,-304 969.0269,-304 969.0269,-340"/>
<text text-anchor="middle" x="870" y="-317.8" font-family="Times,serif" font-size="14.00" fill="#000000">transmit b&#45;&gt;JAVA_EXECUTOR</text>
</g>
<!-- node_9&#45;&gt;node_1 -->
<g id="edge11" class="edge">
<title>node_9&#45;&gt;node_1</title>
<path fill="none" stroke="#000000" stroke-dasharray="1,5" d="M871.7731,-303.7623C874.161,-279.201 878.4343,-235.2474 881.2434,-206.3541"/>
<polygon fill="#000000" stroke="#000000" points="884.7571,-206.3814 882.2413,-196.0896 877.79,-205.704 884.7571,-206.3814"/>
</g>
<!-- node_10 -->
<g id="node11" class="node">
<title>node_10</title>
<polygon fill="none" stroke="#000000" points="851.2677,-268 600.7323,-268 600.7323,-232 851.2677,-232 851.2677,-268"/>
<text text-anchor="middle" x="726" y="-245.8" font-family="Times,serif" font-size="14.00" fill="#000000">FinishNode &amp;finished&amp;PY_EXECUTOR</text>
</g>
<!-- node_9&#45;&gt;node_10 -->
<g id="edge4" class="edge">
<title>node_9&#45;&gt;node_10</title>
<path fill="none" stroke="#000000" d="M833.6627,-303.8314C814.6604,-294.3302 791.2242,-282.6121 771.0748,-272.5374"/>
<polygon fill="#000000" stroke="#000000" points="772.5855,-269.3797 762.076,-268.038 769.455,-275.6407 772.5855,-269.3797"/>
</g>
<!-- node_10&#45;&gt;node_0 -->
<g id="edge10" class="edge">
<title>node_10&#45;&gt;node_0</title>
<path fill="none" stroke="#000000" stroke-dasharray="1,5" d="M725.7477,-231.8314C725.6407,-224.131 725.5135,-214.9743 725.3947,-206.4166"/>
<polygon fill="#000000" stroke="#000000" points="728.8944,-206.3637 725.2557,-196.4133 721.8951,-206.4609 728.8944,-206.3637"/>
</g>
<!-- node_11&#45;&gt;node_9 -->
<g id="edge8" class="edge">
<title>node_11&#45;&gt;node_9</title>
<path fill="none" stroke="#000000" d="M839.346,-375.8314C843.9237,-367.7925 849.4052,-358.1666 854.4588,-349.2918"/>
<polygon fill="#000000" stroke="#000000" points="857.6077,-350.8351 859.5147,-340.4133 851.5248,-347.3712 857.6077,-350.8351"/>
</g>
<!-- node_13 -->
<g id="node14" class="node">
<title>node_13</title>
<polygon fill="none" stroke="#000000" points="753,-340 699,-340 699,-304 753,-304 753,-340"/>
<text text-anchor="middle" x="726" y="-317.8" font-family="Times,serif" font-size="14.00" fill="#000000">store b</text>
</g>
<!-- node_11&#45;&gt;node_13 -->
<g id="edge5" class="edge">
<title>node_11&#45;&gt;node_13</title>
<path fill="none" stroke="#000000" d="M803.0088,-375.8314C790.0784,-366.7927 774.2778,-355.7476 760.3617,-346.0198"/>
<polygon fill="#000000" stroke="#000000" points="762.1843,-343.0235 751.9829,-340.1628 758.1737,-348.7608 762.1843,-343.0235"/>
</g>
<!-- node_12 -->
<g id="node13" class="node">
<title>node_12</title>
<polygon fill="none" stroke="#000000" points="862.8041,-484 753.1959,-484 753.1959,-448 862.8041,-448 862.8041,-484"/>
<text text-anchor="middle" x="808" y="-461.8" font-family="Times,serif" font-size="14.00" fill="#000000">parse Number: 2</text>
</g>
<!-- node_12&#45;&gt;node_11 -->
<g id="edge9" class="edge">
<title>node_12&#45;&gt;node_11</title>
<path fill="none" stroke="#000000" d="M813.2992,-447.8314C815.5698,-440.0463 818.2746,-430.7729 820.794,-422.1347"/>
<polygon fill="#000000" stroke="#000000" points="824.1894,-422.9933 823.6295,-412.4133 817.4694,-421.0332 824.1894,-422.9933"/>
</g>
<!-- node_13&#45;&gt;node_10 -->
<g id="edge7" class="edge">
<title>node_13&#45;&gt;node_10</title>
<path fill="none" stroke="#000000" d="M726,-303.8314C726,-296.131 726,-286.9743 726,-278.4166"/>
<polygon fill="#000000" stroke="#000000" points="729.5001,-278.4132 726,-268.4133 722.5001,-278.4133 729.5001,-278.4132"/>
</g>
<!-- node_14 -->
<g id="node15" class="node">
<title>node_14</title>
<polygon fill="none" stroke="#000000" points="632,-484 528.9769,-466 632,-448 735.0231,-466 632,-484"/>
<text text-anchor="middle" x="632" y="-461.8" font-family="Times,serif" font-size="14.00" fill="#000000">PY_EXECUTOR</text>
</g>
</g>
</svg>
