<?xml version="1.0" encoding="UTF-8" standalone="no"?>
<!DOCTYPE svg PUBLIC "-//W3C//DTD SVG 1.1//EN"
 "http://www.w3.org/Graphics/SVG/1.1/DTD/svg11.dtd">
<!-- Generated by graphviz version 2.40.1 (20161225.0304)
 -->
<!-- Title: %3 Pages: 1 -->
<svg width="1665pt" height="996pt"
 viewBox="0.00 0.00 1664.90 996.00" xmlns="http://www.w3.org/2000/svg" xmlns:xlink="http://www.w3.org/1999/xlink">
<g id="graph0" class="graph" transform="scale(1 1) rotate(0) translate(4 992)">
<title>%3</title>
<polygon fill="#ffffff" stroke="transparent" points="-4,4 -4,-992 1660.8994,-992 1660.8994,4 -4,4"/>
<g id="clust1" class="cluster">
<title>cluster_345902941</title>
<polygon fill="none" stroke="#000000" points="186.3101,-8 186.3101,-924 1279.3101,-924 1279.3101,-8 186.3101,-8"/>
</g>
<!-- node_128 -->
<g id="node1" class="node">
<title>node_128</title>
<polygon fill="none" stroke="#000000" points="1248.0041,-844 1180.616,-844 1180.616,-808 1248.0041,-808 1248.0041,-844"/>
<text text-anchor="middle" x="1214.3101" y="-821.8" font-family="Times,serif" font-size="14.00" fill="#000000">accept s1</text>
</g>
<!-- node_140 -->
<g id="node13" class="node">
<title>node_140</title>
<polygon fill="none" stroke="#000000" points="839.3618,-772 783.2583,-772 783.2583,-736 839.3618,-736 839.3618,-772"/>
<text text-anchor="middle" x="811.3101" y="-749.8" font-family="Times,serif" font-size="14.00" fill="#000000">load s1</text>
</g>
<!-- node_128&#45;&gt;node_140 -->
<g id="edge4" class="edge">
<title>node_128&#45;&gt;node_140</title>
<path fill="none" stroke="#000000" d="M1180.308,-815.5281C1170.6755,-812.81 1160.1364,-810.0685 1150.3101,-808 1038.7383,-784.513 1008.5909,-791.8219 896.3101,-772 881.0099,-769.2989 864.2618,-765.8575 849.7076,-762.7088"/>
<polygon fill="#000000" stroke="#000000" points="850.0672,-759.2046 839.5497,-760.4825 848.5686,-766.0423 850.0672,-759.2046"/>
</g>
<!-- node_129 -->
<g id="node2" class="node">
<title>node_129</title>
<polygon fill="none" stroke="#000000" points="745.217,-772 621.4031,-772 621.4031,-736 745.217,-736 745.217,-772"/>
<text text-anchor="middle" x="683.3101" y="-749.8" font-family="Times,serif" font-size="14.00" fill="#000000">n = a::addier([in3])</text>
</g>
<!-- node_134 -->
<g id="node7" class="node">
<title>node_134</title>
<polygon fill="none" stroke="#000000" points="740.1132,-700 626.5069,-700 626.5069,-664 740.1132,-664 740.1132,-700"/>
<text text-anchor="middle" x="683.3101" y="-677.8" font-family="Times,serif" font-size="14.00" fill="#000000">p1 = s1::calc([n])</text>
</g>
<!-- node_129&#45;&gt;node_134 -->
<g id="edge14" class="edge">
<title>node_129&#45;&gt;node_134</title>
<path fill="none" stroke="#000000" d="M683.3101,-735.8314C683.3101,-728.131 683.3101,-718.9743 683.3101,-710.4166"/>
<polygon fill="#000000" stroke="#000000" points="686.8102,-710.4132 683.3101,-700.4133 679.8102,-710.4133 686.8102,-710.4132"/>
</g>
<!-- node_145 -->
<g id="node18" class="node">
<title>node_145</title>
<polygon fill="none" stroke="#000000" points="588.0134,-700 336.6068,-700 336.6068,-664 588.0134,-664 588.0134,-700"/>
<text text-anchor="middle" x="462.3101" y="-677.8" font-family="Times,serif" font-size="14.00" fill="#000000">a = demo.math.Addierer::__construct([n])</text>
</g>
<!-- node_129&#45;&gt;node_145 -->
<g id="edge20" class="edge">
<title>node_129&#45;&gt;node_145</title>
<path fill="none" stroke="#000000" d="M627.8277,-735.9243C597.353,-725.9959 559.3828,-713.6255 527.4996,-703.2382"/>
<polygon fill="#000000" stroke="#000000" points="528.4076,-699.853 517.8153,-700.0831 526.2392,-706.5087 528.4076,-699.853"/>
</g>
<!-- node_130 -->
<g id="node3" class="node">
<title>node_130</title>
<polygon fill="none" stroke="#000000" points="1005.3618,-844 949.2583,-844 949.2583,-808 1005.3618,-808 1005.3618,-844"/>
<text text-anchor="middle" x="977.3101" y="-821.8" font-family="Times,serif" font-size="14.00" fill="#000000">load s2</text>
</g>
<!-- node_144 -->
<g id="node17" class="node">
<title>node_144</title>
<polygon fill="none" stroke="#000000" points="1077.7168,-772 904.9033,-772 904.9033,-736 1077.7168,-736 1077.7168,-772"/>
<text text-anchor="middle" x="991.3101" y="-749.8" font-family="Times,serif" font-size="14.00" fill="#000000">p2 = s2::achsenabschnitt([])</text>
</g>
<!-- node_130&#45;&gt;node_144 -->
<g id="edge29" class="edge">
<title>node_130&#45;&gt;node_144</title>
<path fill="none" stroke="#000000" d="M980.8428,-807.8314C982.3402,-800.131 984.1206,-790.9743 985.7846,-782.4166"/>
<polygon fill="#000000" stroke="#000000" points="989.2566,-782.8975 987.7297,-772.4133 982.3853,-781.5614 989.2566,-782.8975"/>
</g>
<!-- node_131 -->
<g id="node4" class="node">
<title>node_131</title>
<polygon fill="none" stroke="#000000" points="950.0484,-412 684.5717,-412 684.5717,-376 950.0484,-376 950.0484,-412"/>
<text text-anchor="middle" x="817.3101" y="-389.8" font-family="Times,serif" font-size="14.00" fill="#000000">cast p2 from Arr to demo.types.NummerList</text>
</g>
<!-- node_151 -->
<g id="node24" class="node">
<title>node_151</title>
<polygon fill="none" stroke="#000000" points="762.8341,-340 573.786,-340 573.786,-304 762.8341,-304 762.8341,-340"/>
<text text-anchor="middle" x="668.3101" y="-317.8" font-family="Times,serif" font-size="14.00" fill="#000000">p1 = a::summierListe([p1, p2])</text>
</g>
<!-- node_131&#45;&gt;node_151 -->
<g id="edge46" class="edge">
<title>node_131&#45;&gt;node_151</title>
<path fill="none" stroke="#000000" d="M779.7111,-375.8314C759.9603,-366.2874 735.5804,-354.5065 714.6684,-344.4013"/>
<polygon fill="#000000" stroke="#000000" points="716.1654,-341.2376 705.6387,-340.038 713.1197,-347.5403 716.1654,-341.2376"/>
</g>
<!-- node_132 -->
<g id="node5" class="node">
<title>node_132</title>
<polygon fill="none" stroke="#000000" points="614.8341,-484 425.786,-484 425.786,-448 614.8341,-448 614.8341,-484"/>
<text text-anchor="middle" x="520.3101" y="-461.8" font-family="Times,serif" font-size="14.00" fill="#000000">p1 = a::summierListe([p1, p2])</text>
</g>
<!-- node_146 -->
<g id="node19" class="node">
<title>node_146</title>
<polygon fill="none" stroke="#000000" points="646.0134,-412 394.6068,-412 394.6068,-376 646.0134,-376 646.0134,-412"/>
<text text-anchor="middle" x="520.3101" y="-389.8" font-family="Times,serif" font-size="14.00" fill="#000000">a = demo.math.Addierer::__construct([n])</text>
</g>
<!-- node_132&#45;&gt;node_146 -->
<g id="edge7" class="edge">
<title>node_132&#45;&gt;node_146</title>
<path fill="none" stroke="#000000" d="M520.3101,-447.8314C520.3101,-440.131 520.3101,-430.9743 520.3101,-422.4166"/>
<polygon fill="#000000" stroke="#000000" points="523.8102,-422.4132 520.3101,-412.4133 516.8102,-422.4133 523.8102,-422.4132"/>
</g>
<!-- node_132&#45;&gt;node_151 -->
<g id="edge9" class="edge">
<title>node_132&#45;&gt;node_151</title>
<path fill="none" stroke="#000000" d="M604.1846,-447.9033C623.6039,-439.9271 642.3508,-428.463 655.3101,-412 668.9045,-394.73 671.5577,-369.6267 671.1493,-350.3175"/>
<polygon fill="#000000" stroke="#000000" points="674.6425,-350.0896 670.6576,-340.2728 667.6509,-350.432 674.6425,-350.0896"/>
</g>
<!-- node_133 -->
<g id="node6" class="node">
<title>node_133</title>
<polygon fill="none" stroke="#000000" points="804.0484,-556 538.5717,-556 538.5717,-520 804.0484,-520 804.0484,-556"/>
<text text-anchor="middle" x="671.3101" y="-533.8" font-family="Times,serif" font-size="14.00" fill="#000000">cast p2 from Arr to demo.types.NummerList</text>
</g>
<!-- node_133&#45;&gt;node_132 -->
<g id="edge12" class="edge">
<title>node_133&#45;&gt;node_132</title>
<path fill="none" stroke="#000000" d="M633.2064,-519.8314C613.1905,-510.2874 588.4833,-498.5065 567.2907,-488.4013"/>
<polygon fill="#000000" stroke="#000000" points="568.6725,-485.1828 558.1397,-484.038 565.6597,-491.5013 568.6725,-485.1828"/>
</g>
<!-- node_150 -->
<g id="node23" class="node">
<title>node_150</title>
<polygon fill="none" stroke="#000000" points="318.217,-628 194.4031,-628 194.4031,-592 318.217,-592 318.217,-628"/>
<text text-anchor="middle" x="256.3101" y="-605.8" font-family="Times,serif" font-size="14.00" fill="#000000">n = a::addier([in4])</text>
</g>
<!-- node_134&#45;&gt;node_150 -->
<g id="edge31" class="edge">
<title>node_134&#45;&gt;node_150</title>
<path fill="none" stroke="#000000" d="M626.4883,-669.6947C616.7701,-667.7084 606.7619,-665.7365 597.3101,-664 504.598,-646.9674 397.1063,-630.4828 327.9822,-620.3007"/>
<polygon fill="#000000" stroke="#000000" points="328.4707,-616.835 318.0682,-618.8449 327.4536,-623.7608 328.4707,-616.835"/>
</g>
<!-- node_152 -->
<g id="node25" class="node">
<title>node_152</title>
<polygon fill="none" stroke="#000000" points="632.6795,-628 405.9406,-628 405.9406,-592 632.6795,-592 632.6795,-628"/>
<text text-anchor="middle" x="519.3101" y="-605.8" font-family="Times,serif" font-size="14.00" fill="#000000">cast p1 from demo.types.Punkt to Arr</text>
</g>
<!-- node_134&#45;&gt;node_152 -->
<g id="edge33" class="edge">
<title>node_134&#45;&gt;node_152</title>
<path fill="none" stroke="#000000" d="M641.9259,-663.8314C619.9919,-654.2018 592.8708,-642.295 569.717,-632.1299"/>
<polygon fill="#000000" stroke="#000000" points="570.96,-628.8532 560.3966,-628.038 568.1461,-635.2627 570.96,-628.8532"/>
</g>
<!-- node_119 -->
<g id="node30" class="node">
<title>node_119</title>
<polygon fill="none" stroke="#000000" points="1006.6509,-556 821.9692,-556 821.9692,-520 1006.6509,-520 1006.6509,-556"/>
<text text-anchor="middle" x="914.3101" y="-533.8" font-family="Times,serif" font-size="14.00" fill="#000000">b1 = s1::liagtAufGerade([p1])</text>
</g>
<!-- node_134&#45;&gt;node_119 -->
<g id="edge21" class="edge">
<title>node_134&#45;&gt;node_119</title>
<path fill="none" stroke="#000000" d="M712.5664,-663.7623C754.2231,-637.7945 830.6536,-590.1495 876.5405,-561.5446"/>
<polygon fill="#000000" stroke="#000000" points="878.6567,-564.3499 885.2913,-556.0896 874.9536,-558.4096 878.6567,-564.3499"/>
</g>
<!-- node_135 -->
<g id="node8" class="node">
<title>node_135</title>
<polygon fill="none" stroke="#000000" points="1194.6795,-412 967.9406,-412 967.9406,-376 1194.6795,-376 1194.6795,-412"/>
<text text-anchor="middle" x="1081.3101" y="-389.8" font-family="Times,serif" font-size="14.00" fill="#000000">cast p2 from demo.types.Punkt to Arr</text>
</g>
<!-- node_137 -->
<g id="node10" class="node">
<title>node_137</title>
<polygon fill="none" stroke="#000000" points="1067.0484,-340 801.5717,-340 801.5717,-304 1067.0484,-304 1067.0484,-340"/>
<text text-anchor="middle" x="934.3101" y="-317.8" font-family="Times,serif" font-size="14.00" fill="#000000">cast p2 from Arr to demo.types.NummerList</text>
</g>
<!-- node_135&#45;&gt;node_137 -->
<g id="edge38" class="edge">
<title>node_135&#45;&gt;node_137</title>
<path fill="none" stroke="#000000" d="M1044.2158,-375.8314C1024.8175,-366.3302 1000.8931,-354.6121 980.3239,-344.5374"/>
<polygon fill="#000000" stroke="#000000" points="981.6578,-341.2935 971.1376,-340.038 978.5787,-347.5799 981.6578,-341.2935"/>
</g>
<!-- node_149 -->
<g id="node22" class="node">
<title>node_149</title>
<polygon fill="none" stroke="#000000" points="1230.9058,-340 1095.7143,-340 1095.7143,-304 1230.9058,-304 1230.9058,-340"/>
<text text-anchor="middle" x="1163.3101" y="-317.8" font-family="Times,serif" font-size="14.00" fill="#000000">p2 = s1::nullstelle([])</text>
</g>
<!-- node_135&#45;&gt;node_149 -->
<g id="edge44" class="edge">
<title>node_135&#45;&gt;node_149</title>
<path fill="none" stroke="#000000" d="M1102.0021,-375.8314C1112.0049,-367.0485 1124.1651,-356.3712 1135.01,-346.8489"/>
<polygon fill="#000000" stroke="#000000" points="1137.4195,-349.3909 1142.6246,-340.1628 1132.8009,-344.1308 1137.4195,-349.3909"/>
</g>
<!-- node_136 -->
<g id="node9" class="node">
<title>node_136</title>
<polygon fill="none" stroke="#000000" points="705.8341,-52 516.786,-52 516.786,-16 705.8341,-16 705.8341,-52"/>
<text text-anchor="middle" x="611.3101" y="-29.8" font-family="Times,serif" font-size="14.00" fill="#000000">p1 = a::summierListe([p1, p2])</text>
</g>
<!-- node_139 -->
<g id="node12" class="node">
<title>node_139</title>
<polygon fill="none" stroke="#000000" points="764.8341,-268 575.786,-268 575.786,-232 764.8341,-232 764.8341,-268"/>
<text text-anchor="middle" x="670.3101" y="-245.8" font-family="Times,serif" font-size="14.00" fill="#000000">p1 = a::summierListe([p1, p2])</text>
</g>
<!-- node_137&#45;&gt;node_139 -->
<g id="edge13" class="edge">
<title>node_137&#45;&gt;node_139</title>
<path fill="none" stroke="#000000" d="M868.0325,-303.9243C831.1576,-293.8675 785.0957,-281.3052 746.7097,-270.8363"/>
<polygon fill="#000000" stroke="#000000" points="747.1835,-267.3377 736.6149,-268.0831 745.3416,-274.0911 747.1835,-267.3377"/>
</g>
<!-- node_138 -->
<g id="node11" class="node">
<title>node_138</title>
<polygon fill="none" stroke="#000000" points="1201.9058,-628 1066.7143,-628 1066.7143,-592 1201.9058,-592 1201.9058,-628"/>
<text text-anchor="middle" x="1134.3101" y="-605.8" font-family="Times,serif" font-size="14.00" fill="#000000">p2 = s2::nullstelle([])</text>
</g>
<!-- node_117 -->
<g id="node28" class="node">
<title>node_117</title>
<polygon fill="none" stroke="#000000" points="1251.6795,-556 1024.9406,-556 1024.9406,-520 1251.6795,-520 1251.6795,-556"/>
<text text-anchor="middle" x="1138.3101" y="-533.8" font-family="Times,serif" font-size="14.00" fill="#000000">cast p2 from demo.types.Punkt to Arr</text>
</g>
<!-- node_138&#45;&gt;node_117 -->
<g id="edge17" class="edge">
<title>node_138&#45;&gt;node_117</title>
<path fill="none" stroke="#000000" d="M1135.3194,-591.8314C1135.7472,-584.131 1136.2559,-574.9743 1136.7314,-566.4166"/>
<polygon fill="#000000" stroke="#000000" points="1140.2269,-566.592 1137.2871,-556.4133 1133.2377,-566.2037 1140.2269,-566.592"/>
</g>
<!-- node_127 -->
<g id="node38" class="node">
<title>node_127</title>
<polygon fill="none" stroke="#000000" points="1269.5407,-268 1067.0794,-268 1067.0794,-232 1269.5407,-232 1269.5407,-268"/>
<text text-anchor="middle" x="1168.3101" y="-245.8" font-family="Times,serif" font-size="14.00" fill="#000000">bool2 = s2::liagtAufGerade([p2])</text>
</g>
<!-- node_138&#45;&gt;node_127 -->
<g id="edge22" class="edge">
<title>node_138&#45;&gt;node_127</title>
<path fill="none" stroke="#000000" d="M1202.1847,-595.4539C1224.0252,-587.4102 1246.201,-575.0181 1260.3101,-556 1284.2893,-523.6775 1270.3101,-506.2462 1270.3101,-466 1270.3101,-466 1270.3101,-466 1270.3101,-394 1270.3101,-351.8363 1264.9636,-338.205 1240.3101,-304 1231.9291,-292.3721 1220.3094,-282.1437 1208.8482,-273.8049"/>
<polygon fill="#000000" stroke="#000000" points="1210.792,-270.8937 1200.5792,-268.0739 1206.8045,-276.647 1210.792,-270.8937"/>
</g>
<!-- node_139&#45;&gt;node_136 -->
<g id="edge36" class="edge">
<title>node_139&#45;&gt;node_136</title>
<path fill="none" stroke="#000000" d="M675.6849,-231.953C683.8939,-200.8954 696.411,-136.0523 674.3101,-88 669.043,-76.5483 660.0165,-66.6164 650.4158,-58.5032"/>
<polygon fill="#000000" stroke="#000000" points="652.3135,-55.5433 642.2861,-52.1224 647.9916,-61.0498 652.3135,-55.5433"/>
</g>
<!-- node_141 -->
<g id="node14" class="node">
<title>node_141</title>
<polygon fill="none" stroke="#000000" points="604.8412,-196 471.779,-196 471.779,-160 604.8412,-160 604.8412,-196"/>
<text text-anchor="middle" x="538.3101" y="-173.8" font-family="Times,serif" font-size="14.00" fill="#000000">n = a::summier([p1])</text>
</g>
<!-- node_139&#45;&gt;node_141 -->
<g id="edge39" class="edge">
<title>node_139&#45;&gt;node_141</title>
<path fill="none" stroke="#000000" d="M637.0009,-231.8314C619.8828,-222.4942 598.8394,-211.016 580.5879,-201.0606"/>
<polygon fill="#000000" stroke="#000000" points="582.0635,-197.8788 571.6086,-196.1628 578.7115,-204.024 582.0635,-197.8788"/>
</g>
<!-- node_140&#45;&gt;node_134 -->
<g id="edge48" class="edge">
<title>node_140&#45;&gt;node_134</title>
<path fill="none" stroke="#000000" d="M783.2199,-738.1993C765.9397,-728.4792 743.4954,-715.8543 724.2583,-705.0334"/>
<polygon fill="#000000" stroke="#000000" points="725.8248,-701.8988 715.3931,-700.0467 722.3929,-707.9999 725.8248,-701.8988"/>
</g>
<!-- node_141&#45;&gt;node_136 -->
<g id="edge11" class="edge">
<title>node_141&#45;&gt;node_136</title>
<path fill="none" stroke="#000000" d="M471.6342,-167.4457C446.1717,-159.8114 419.6081,-146.6584 404.3101,-124 395.357,-110.7394 394.5279,-100.6614 404.3101,-88 417.6359,-70.7518 462.2561,-57.9684 506.6732,-49.1814"/>
<polygon fill="#000000" stroke="#000000" points="507.57,-52.5734 516.7339,-47.2561 506.2542,-45.6982 507.57,-52.5734"/>
</g>
<!-- node_122 -->
<g id="node33" class="node">
<title>node_122</title>
<polygon fill="none" stroke="#000000" points="665.0134,-124 413.6068,-124 413.6068,-88 665.0134,-88 665.0134,-124"/>
<text text-anchor="middle" x="539.3101" y="-101.8" font-family="Times,serif" font-size="14.00" fill="#000000">a = demo.math.Addierer::__construct([n])</text>
</g>
<!-- node_141&#45;&gt;node_122 -->
<g id="edge6" class="edge">
<title>node_141&#45;&gt;node_122</title>
<path fill="none" stroke="#000000" d="M538.5624,-159.8314C538.6694,-152.131 538.7965,-142.9743 538.9154,-134.4166"/>
<polygon fill="#000000" stroke="#000000" points="542.415,-134.4609 539.0543,-124.4133 535.4157,-134.3637 542.415,-134.4609"/>
</g>
<!-- node_142 -->
<g id="node15" class="node">
<title>node_142</title>
<polygon fill="none" stroke="#000000" points="279.9449,-700 206.6752,-700 206.6752,-664 279.9449,-664 279.9449,-700"/>
<text text-anchor="middle" x="243.3101" y="-677.8" font-family="Times,serif" font-size="14.00" fill="#000000">accept in4</text>
</g>
<!-- node_142&#45;&gt;node_150 -->
<g id="edge27" class="edge">
<title>node_142&#45;&gt;node_150</title>
<path fill="none" stroke="#000000" d="M246.5905,-663.8314C247.9809,-656.131 249.6341,-646.9743 251.1793,-638.4166"/>
<polygon fill="#000000" stroke="#000000" points="254.6528,-638.8761 252.9854,-628.4133 247.7642,-637.6322 254.6528,-638.8761"/>
</g>
<!-- node_143 -->
<g id="node16" class="node">
<title>node_143</title>
<polygon fill="none" stroke="#000000" points="809.0134,-844 557.6068,-844 557.6068,-808 809.0134,-808 809.0134,-844"/>
<text text-anchor="middle" x="683.3101" y="-821.8" font-family="Times,serif" font-size="14.00" fill="#000000">a = demo.math.Addierer::__construct([1])</text>
</g>
<!-- node_143&#45;&gt;node_129 -->
<g id="edge34" class="edge">
<title>node_143&#45;&gt;node_129</title>
<path fill="none" stroke="#000000" d="M683.3101,-807.8314C683.3101,-800.131 683.3101,-790.9743 683.3101,-782.4166"/>
<polygon fill="#000000" stroke="#000000" points="686.8102,-782.4132 683.3101,-772.4133 679.8102,-782.4133 686.8102,-782.4132"/>
</g>
<!-- node_144&#45;&gt;node_138 -->
<g id="edge49" class="edge">
<title>node_144&#45;&gt;node_138</title>
<path fill="none" stroke="#000000" d="M1060.9499,-735.984C1080.352,-727.8763 1099.7923,-716.3232 1113.3101,-700 1127.5572,-682.7962 1132.5191,-657.6871 1134.0813,-638.3588"/>
<polygon fill="#000000" stroke="#000000" points="1137.5798,-638.4804 1134.6368,-628.3025 1130.5905,-638.0942 1137.5798,-638.4804"/>
</g>
<!-- node_120 -->
<g id="node31" class="node">
<title>node_120</title>
<polygon fill="none" stroke="#000000" points="1104.6795,-700 877.9406,-700 877.9406,-664 1104.6795,-664 1104.6795,-700"/>
<text text-anchor="middle" x="991.3101" y="-677.8" font-family="Times,serif" font-size="14.00" fill="#000000">cast p2 from demo.types.Punkt to Arr</text>
</g>
<!-- node_144&#45;&gt;node_120 -->
<g id="edge41" class="edge">
<title>node_144&#45;&gt;node_120</title>
<path fill="none" stroke="#000000" d="M991.3101,-735.8314C991.3101,-728.131 991.3101,-718.9743 991.3101,-710.4166"/>
<polygon fill="#000000" stroke="#000000" points="994.8102,-710.4132 991.3101,-700.4133 987.8102,-710.4133 994.8102,-710.4132"/>
</g>
<!-- node_145&#45;&gt;node_150 -->
<g id="edge15" class="edge">
<title>node_145&#45;&gt;node_150</title>
<path fill="none" stroke="#000000" d="M410.5935,-663.9243C382.4321,-654.0815 347.4038,-641.8386 317.8448,-631.5073"/>
<polygon fill="#000000" stroke="#000000" points="318.6428,-628.0786 308.0479,-628.0831 316.3331,-634.6866 318.6428,-628.0786"/>
</g>
<!-- node_146&#45;&gt;node_141 -->
<g id="edge23" class="edge">
<title>node_146&#45;&gt;node_141</title>
<path fill="none" stroke="#000000" d="M521.8138,-375.9555C524.9505,-338.3144 532.2112,-251.1867 535.9663,-206.1246"/>
<polygon fill="#000000" stroke="#000000" points="539.4553,-206.4012 536.798,-196.1451 532.4795,-205.8198 539.4553,-206.4012"/>
</g>
<!-- node_146&#45;&gt;node_151 -->
<g id="edge26" class="edge">
<title>node_146&#45;&gt;node_151</title>
<path fill="none" stroke="#000000" d="M557.6567,-375.8314C577.1869,-366.3302 601.2741,-354.6121 621.9832,-344.5374"/>
<polygon fill="#000000" stroke="#000000" points="623.7708,-347.56 631.232,-340.038 620.7085,-341.2654 623.7708,-347.56"/>
</g>
<!-- node_147 -->
<g id="node20" class="node">
<title>node_147</title>
<polygon fill="none" stroke="#000000" points="983.0041,-916 915.616,-916 915.616,-880 983.0041,-880 983.0041,-916"/>
<text text-anchor="middle" x="949.3101" y="-893.8" font-family="Times,serif" font-size="14.00" fill="#000000">accept s2</text>
</g>
<!-- node_147&#45;&gt;node_130 -->
<g id="edge30" class="edge">
<title>node_147&#45;&gt;node_130</title>
<path fill="none" stroke="#000000" d="M956.3756,-879.8314C959.4361,-871.9617 963.0879,-862.5712 966.4782,-853.8533"/>
<polygon fill="#000000" stroke="#000000" points="969.7868,-855.0019 970.1493,-844.4133 963.2628,-852.4647 969.7868,-855.0019"/>
</g>
<!-- node_148 -->
<g id="node21" class="node">
<title>node_148</title>
<polygon fill="none" stroke="#000000" points="1196.7168,-484 1023.9033,-484 1023.9033,-448 1196.7168,-448 1196.7168,-484"/>
<text text-anchor="middle" x="1110.3101" y="-461.8" font-family="Times,serif" font-size="14.00" fill="#000000">p2 = s1::achsenabschnitt([])</text>
</g>
<!-- node_148&#45;&gt;node_135 -->
<g id="edge45" class="edge">
<title>node_148&#45;&gt;node_135</title>
<path fill="none" stroke="#000000" d="M1102.9921,-447.8314C1099.8224,-439.9617 1096.0401,-430.5712 1092.5287,-421.8533"/>
<polygon fill="#000000" stroke="#000000" points="1095.7092,-420.3815 1088.7265,-412.4133 1089.2161,-422.9968 1095.7092,-420.3815"/>
</g>
<!-- node_148&#45;&gt;node_149 -->
<g id="edge1" class="edge">
<title>node_148&#45;&gt;node_149</title>
<path fill="none" stroke="#000000" d="M1162.4263,-447.8022C1178.4129,-439.4867 1194.1812,-427.8568 1203.3101,-412 1215.2209,-391.3109 1202.2423,-366.4191 1187.9799,-348.0625"/>
<polygon fill="#000000" stroke="#000000" points="1190.4899,-345.6054 1181.4214,-340.1268 1185.0941,-350.0648 1190.4899,-345.6054"/>
</g>
<!-- node_124 -->
<g id="node35" class="node">
<title>node_124</title>
<polygon fill="none" stroke="#000000" points="1031.6795,-268 804.9406,-268 804.9406,-232 1031.6795,-232 1031.6795,-268"/>
<text text-anchor="middle" x="918.3101" y="-245.8" font-family="Times,serif" font-size="14.00" fill="#000000">cast p2 from demo.types.Punkt to Arr</text>
</g>
<!-- node_149&#45;&gt;node_124 -->
<g id="edge2" class="edge">
<title>node_149&#45;&gt;node_124</title>
<path fill="none" stroke="#000000" d="M1101.8025,-303.9243C1067.727,-293.9103 1025.1982,-281.412 989.6664,-270.97"/>
<polygon fill="#000000" stroke="#000000" points="990.4241,-267.5448 979.843,-268.0831 988.4504,-274.2608 990.4241,-267.5448"/>
</g>
<!-- node_149&#45;&gt;node_127 -->
<g id="edge3" class="edge">
<title>node_149&#45;&gt;node_127</title>
<path fill="none" stroke="#000000" d="M1164.5718,-303.8314C1165.1065,-296.131 1165.7424,-286.9743 1166.3367,-278.4166"/>
<polygon fill="#000000" stroke="#000000" points="1169.8301,-278.6317 1167.0314,-268.4133 1162.8469,-278.1467 1169.8301,-278.6317"/>
</g>
<!-- node_150&#45;&gt;node_132 -->
<g id="edge19" class="edge">
<title>node_150&#45;&gt;node_132</title>
<path fill="none" stroke="#000000" d="M240.7252,-591.9081C225.7757,-572.2786 207.8508,-540.9453 225.3101,-520 249.4288,-491.0656 340.5252,-477.5882 415.1811,-471.3384"/>
<polygon fill="#000000" stroke="#000000" points="415.9091,-474.7914 425.5976,-470.5037 415.3499,-467.8138 415.9091,-474.7914"/>
</g>
<!-- node_150&#45;&gt;node_146 -->
<g id="edge24" class="edge">
<title>node_150&#45;&gt;node_146</title>
<path fill="none" stroke="#000000" d="M236.8557,-591.9324C219.0561,-573.1517 197.6868,-543.3001 213.3101,-520 251.7639,-462.651 321.4979,-431.3832 384.7963,-414.3455"/>
<polygon fill="#000000" stroke="#000000" points="385.687,-417.7304 394.4885,-411.8326 383.9302,-410.9544 385.687,-417.7304"/>
</g>
<!-- node_151&#45;&gt;node_139 -->
<g id="edge35" class="edge">
<title>node_151&#45;&gt;node_139</title>
<path fill="none" stroke="#000000" d="M668.8147,-303.8314C669.0286,-296.131 669.283,-286.9743 669.5207,-278.4166"/>
<polygon fill="#000000" stroke="#000000" points="673.0195,-278.5066 669.7986,-268.4133 666.0222,-278.3122 673.0195,-278.5066"/>
</g>
<!-- node_152&#45;&gt;node_132 -->
<g id="edge42" class="edge">
<title>node_152&#45;&gt;node_132</title>
<path fill="none" stroke="#000000" d="M519.4367,-591.7623C519.6073,-567.201 519.9125,-523.2474 520.1132,-494.3541"/>
<polygon fill="#000000" stroke="#000000" points="523.6148,-494.1137 520.1844,-484.0896 516.615,-494.065 523.6148,-494.1137"/>
</g>
<!-- node_121 -->
<g id="node32" class="node">
<title>node_121</title>
<polygon fill="none" stroke="#000000" points="500.0484,-556 234.5717,-556 234.5717,-520 500.0484,-520 500.0484,-556"/>
<text text-anchor="middle" x="367.3101" y="-533.8" font-family="Times,serif" font-size="14.00" fill="#000000">cast p1 from Arr to demo.types.NummerList</text>
</g>
<!-- node_152&#45;&gt;node_121 -->
<g id="edge37" class="edge">
<title>node_152&#45;&gt;node_121</title>
<path fill="none" stroke="#000000" d="M480.954,-591.8314C460.8056,-582.2874 435.9348,-570.5065 414.6018,-560.4013"/>
<polygon fill="#000000" stroke="#000000" points="415.926,-557.1558 405.3903,-556.038 412.9293,-563.482 415.926,-557.1558"/>
</g>
<!-- node_153 -->
<g id="node26" class="node">
<title>node_153</title>
<polygon fill="none" stroke="#000000" points="1089.3101,-916 1001.3061,-898 1089.3101,-880 1177.314,-898 1089.3101,-916"/>
<text text-anchor="middle" x="1089.3101" y="-893.8" font-family="Times,serif" font-size="14.00" fill="#000000">client executor</text>
</g>
<!-- node_116 -->
<g id="node27" class="node">
<title>node_116</title>
<polygon fill="none" stroke="#000000" points="1014.0484,-124 748.5717,-124 748.5717,-88 1014.0484,-88 1014.0484,-124"/>
<text text-anchor="middle" x="881.3101" y="-101.8" font-family="Times,serif" font-size="14.00" fill="#000000">cast p2 from Arr to demo.types.NummerList</text>
</g>
<!-- node_116&#45;&gt;node_136 -->
<g id="edge10" class="edge">
<title>node_116&#45;&gt;node_136</title>
<path fill="none" stroke="#000000" d="M813.5262,-87.9243C775.6527,-77.8247 728.3033,-65.1982 688.9453,-54.7027"/>
<polygon fill="#000000" stroke="#000000" points="689.686,-51.278 679.1218,-52.0831 687.8823,-58.0417 689.686,-51.278"/>
</g>
<!-- node_117&#45;&gt;node_131 -->
<g id="edge18" class="edge">
<title>node_117&#45;&gt;node_131</title>
<path fill="none" stroke="#000000" d="M1096.6892,-519.8868C1072.8349,-509.4657 1042.3523,-496.0814 1015.3101,-484 964.2434,-461.1853 905.9834,-434.641 865.9511,-416.3213"/>
<polygon fill="#000000" stroke="#000000" points="867.237,-413.0607 856.6876,-412.08 864.3229,-419.4253 867.237,-413.0607"/>
</g>
<!-- node_117&#45;&gt;node_148 -->
<g id="edge25" class="edge">
<title>node_117&#45;&gt;node_148</title>
<path fill="none" stroke="#000000" d="M1131.2445,-519.8314C1128.1841,-511.9617 1124.5322,-502.5712 1121.1419,-493.8533"/>
<polygon fill="#000000" stroke="#000000" points="1124.3573,-492.4647 1117.4708,-484.4133 1117.8333,-495.0019 1124.3573,-492.4647"/>
</g>
<!-- node_118 -->
<g id="node29" class="node">
<title>node_118</title>
<polygon fill="none" stroke="#000000" points="474.9449,-916 401.6752,-916 401.6752,-880 474.9449,-880 474.9449,-916"/>
<text text-anchor="middle" x="438.3101" y="-893.8" font-family="Times,serif" font-size="14.00" fill="#000000">accept in2</text>
</g>
<!-- node_119&#45;&gt;node_132 -->
<g id="edge43" class="edge">
<title>node_119&#45;&gt;node_132</title>
<path fill="none" stroke="#000000" d="M821.9346,-521.1192C762.8997,-510.3311 686.2061,-496.316 624.9284,-485.1181"/>
<polygon fill="#000000" stroke="#000000" points="625.3097,-481.6299 614.8434,-483.2751 624.0513,-488.5158 625.3097,-481.6299"/>
</g>
<!-- node_119&#45;&gt;node_148 -->
<g id="edge50" class="edge">
<title>node_119&#45;&gt;node_148</title>
<path fill="none" stroke="#000000" d="M963.5161,-519.9243C990.194,-510.1243 1023.3486,-497.945 1051.3953,-487.6422"/>
<polygon fill="#000000" stroke="#000000" points="1052.9039,-490.8167 1061.0837,-484.0831 1050.4901,-484.246 1052.9039,-490.8167"/>
</g>
<!-- node_120&#45;&gt;node_133 -->
<g id="edge5" class="edge">
<title>node_120&#45;&gt;node_133</title>
<path fill="none" stroke="#000000" d="M951.1059,-663.9081C892.5884,-637.5752 784.0481,-588.7321 720.7306,-560.2392"/>
<polygon fill="#000000" stroke="#000000" points="721.9053,-556.9299 711.3498,-556.0179 719.0327,-563.3133 721.9053,-556.9299"/>
</g>
<!-- node_120&#45;&gt;node_138 -->
<g id="edge8" class="edge">
<title>node_120&#45;&gt;node_138</title>
<path fill="none" stroke="#000000" d="M1027.395,-663.8314C1046.109,-654.4089 1069.1533,-642.8062 1089.05,-632.7883"/>
<polygon fill="#000000" stroke="#000000" points="1090.8789,-635.7861 1098.2367,-628.1628 1087.7309,-629.5339 1090.8789,-635.7861"/>
</g>
<!-- node_121&#45;&gt;node_132 -->
<g id="edge16" class="edge">
<title>node_121&#45;&gt;node_132</title>
<path fill="none" stroke="#000000" d="M405.9184,-519.8314C426.1994,-510.2874 451.2338,-498.5065 472.7072,-488.4013"/>
<polygon fill="#000000" stroke="#000000" points="474.4214,-491.4629 481.9793,-484.038 471.4408,-485.1291 474.4214,-491.4629"/>
</g>
<!-- node_122&#45;&gt;node_136 -->
<g id="edge28" class="edge">
<title>node_122&#45;&gt;node_136</title>
<path fill="none" stroke="#000000" d="M557.4787,-87.8314C566.0253,-79.2848 576.3657,-68.9443 585.6902,-59.6198"/>
<polygon fill="#000000" stroke="#000000" points="588.3006,-61.9592 592.8968,-52.4133 583.3508,-57.0095 588.3006,-61.9592"/>
</g>
<!-- node_123 -->
<g id="node34" class="node">
<title>node_123</title>
<polygon fill="none" stroke="#000000" points="1140.9449,-844 1067.6752,-844 1067.6752,-808 1140.9449,-808 1140.9449,-844"/>
<text text-anchor="middle" x="1104.3101" y="-821.8" font-family="Times,serif" font-size="14.00" fill="#000000">accept in3</text>
</g>
<!-- node_123&#45;&gt;node_129 -->
<g id="edge40" class="edge">
<title>node_123&#45;&gt;node_129</title>
<path fill="none" stroke="#000000" d="M1067.6035,-818.2397C1051.3138,-814.9042 1031.8898,-811.0746 1014.3101,-808 908.0628,-789.418 880.5769,-790.4697 774.3101,-772 768.1666,-770.9322 761.7999,-769.7757 755.4179,-768.5817"/>
<polygon fill="#000000" stroke="#000000" points="755.8837,-765.1077 745.4065,-766.6819 754.5786,-771.985 755.8837,-765.1077"/>
</g>
<!-- node_124&#45;&gt;node_116 -->
<g id="edge47" class="edge">
<title>node_124&#45;&gt;node_116</title>
<path fill="none" stroke="#000000" d="M913.624,-231.7623C907.2853,-207.0928 895.9199,-162.8598 888.4976,-133.9731"/>
<polygon fill="#000000" stroke="#000000" points="891.8367,-132.904 885.9581,-124.0896 885.0569,-134.6461 891.8367,-132.904"/>
</g>
<!-- node_125 -->
<g id="node36" class="node">
<title>node_125</title>
<polygon fill="none" stroke="#000000" points="1268.9449,-916 1195.6752,-916 1195.6752,-880 1268.9449,-880 1268.9449,-916"/>
<text text-anchor="middle" x="1232.3101" y="-893.8" font-family="Times,serif" font-size="14.00" fill="#000000">accept in1</text>
</g>
<!-- node_126 -->
<g id="node37" class="node">
<title>node_126</title>
<polygon fill="none" stroke="#000000" points="738.1142,-916 628.5059,-916 628.5059,-880 738.1142,-880 738.1142,-916"/>
<text text-anchor="middle" x="683.3101" y="-893.8" font-family="Times,serif" font-size="14.00" fill="#000000">parse Number: 1</text>
</g>
<!-- node_126&#45;&gt;node_143 -->
<g id="edge32" class="edge">
<title>node_126&#45;&gt;node_143</title>
<path fill="none" stroke="#000000" d="M683.3101,-879.8314C683.3101,-872.131 683.3101,-862.9743 683.3101,-854.4166"/>
<polygon fill="#000000" stroke="#000000" points="686.8102,-854.4132 683.3101,-844.4133 679.8102,-854.4133 686.8102,-854.4132"/>
</g>
<!-- node_154 -->
<g id="node39" class="node">
<title>node_154</title>
<polygon fill="none" stroke="#000000" points="1656.9889,-916 1483.6313,-916 1483.6313,-880 1656.9889,-880 1656.9889,-916"/>
<text text-anchor="middle" x="1570.3101" y="-893.8" font-family="Times,serif" font-size="14.00" fill="#000000">transmit s1&#45;&gt;client executor</text>
</g>
<!-- node_154&#45;&gt;node_128 -->
<g id="edge52" class="edge">
<title>node_154&#45;&gt;node_128</title>
<path fill="none" stroke="#000000" stroke-dasharray="1,5" d="M1483.6779,-880.4789C1412.3761,-866.0583 1314.2387,-846.2103 1258.2261,-834.8819"/>
<polygon fill="#000000" stroke="#000000" points="1258.7689,-831.4209 1248.2735,-832.869 1257.3812,-838.282 1258.7689,-831.4209"/>
</g>
<!-- node_155 -->
<g id="node40" class="node">
<title>node_155</title>
<polygon fill="none" stroke="#000000" points="527.4306,-988 349.1895,-988 349.1895,-952 527.4306,-952 527.4306,-988"/>
<text text-anchor="middle" x="438.3101" y="-965.8" font-family="Times,serif" font-size="14.00" fill="#000000">transmit in2&#45;&gt;client executor</text>
</g>
<!-- node_155&#45;&gt;node_118 -->
<g id="edge54" class="edge">
<title>node_155&#45;&gt;node_118</title>
<path fill="none" stroke="#000000" stroke-dasharray="1,5" d="M438.3101,-951.8314C438.3101,-944.131 438.3101,-934.9743 438.3101,-926.4166"/>
<polygon fill="#000000" stroke="#000000" points="441.8102,-926.4132 438.3101,-916.4133 434.8102,-926.4133 441.8102,-926.4132"/>
</g>
<!-- node_156 -->
<g id="node41" class="node">
<title>node_156</title>
<polygon fill="none" stroke="#000000" points="1035.9889,-988 862.6313,-988 862.6313,-952 1035.9889,-952 1035.9889,-988"/>
<text text-anchor="middle" x="949.3101" y="-965.8" font-family="Times,serif" font-size="14.00" fill="#000000">transmit s2&#45;&gt;client executor</text>
</g>
<!-- node_156&#45;&gt;node_147 -->
<g id="edge53" class="edge">
<title>node_156&#45;&gt;node_147</title>
<path fill="none" stroke="#000000" stroke-dasharray="1,5" d="M949.3101,-951.8314C949.3101,-944.131 949.3101,-934.9743 949.3101,-926.4166"/>
<polygon fill="#000000" stroke="#000000" points="952.8102,-926.4132 949.3101,-916.4133 945.8102,-926.4133 952.8102,-926.4132"/>
</g>
<!-- node_157 -->
<g id="node42" class="node">
<title>node_157</title>
<polygon fill="none" stroke="#000000" points="178.4306,-772 .1895,-772 .1895,-736 178.4306,-736 178.4306,-772"/>
<text text-anchor="middle" x="89.3101" y="-749.8" font-family="Times,serif" font-size="14.00" fill="#000000">transmit in4&#45;&gt;client executor</text>
</g>
<!-- node_157&#45;&gt;node_142 -->
<g id="edge51" class="edge">
<title>node_157&#45;&gt;node_142</title>
<path fill="none" stroke="#000000" stroke-dasharray="1,5" d="M128.1708,-735.8314C149.2216,-725.9894 175.3604,-713.7687 197.4096,-703.4599"/>
<polygon fill="#000000" stroke="#000000" points="199.0058,-706.5774 206.5822,-699.1715 196.041,-700.2362 199.0058,-706.5774"/>
</g>
<!-- node_158 -->
<g id="node43" class="node">
<title>node_158</title>
<polygon fill="none" stroke="#000000" points="1465.4306,-916 1287.1895,-916 1287.1895,-880 1465.4306,-880 1465.4306,-916"/>
<text text-anchor="middle" x="1376.3101" y="-893.8" font-family="Times,serif" font-size="14.00" fill="#000000">transmit in3&#45;&gt;client executor</text>
</g>
<!-- node_158&#45;&gt;node_123 -->
<g id="edge55" class="edge">
<title>node_158&#45;&gt;node_123</title>
<path fill="none" stroke="#000000" stroke-dasharray="1,5" d="M1307.4869,-879.9607C1267.6858,-869.506 1216.6583,-856.0642 1171.3101,-844 1164.741,-842.2524 1157.812,-840.4005 1151.001,-838.5753"/>
<polygon fill="#000000" stroke="#000000" points="1151.7278,-835.1465 1141.1623,-835.9353 1149.9136,-841.9074 1151.7278,-835.1465"/>
</g>
<!-- node_159 -->
<g id="node44" class="node">
<title>node_159</title>
<polygon fill="none" stroke="#000000" points="1321.4306,-988 1143.1895,-988 1143.1895,-952 1321.4306,-952 1321.4306,-988"/>
<text text-anchor="middle" x="1232.3101" y="-965.8" font-family="Times,serif" font-size="14.00" fill="#000000">transmit in1&#45;&gt;client executor</text>
</g>
<!-- node_159&#45;&gt;node_125 -->
<g id="edge56" class="edge">
<title>node_159&#45;&gt;node_125</title>
<path fill="none" stroke="#000000" stroke-dasharray="1,5" d="M1232.3101,-951.8314C1232.3101,-944.131 1232.3101,-934.9743 1232.3101,-926.4166"/>
<polygon fill="#000000" stroke="#000000" points="1235.8102,-926.4132 1232.3101,-916.4133 1228.8102,-926.4133 1235.8102,-926.4132"/>
</g>
</g>
</svg>
