<?xml version="1.0" encoding="UTF-8" standalone="no"?>
<!DOCTYPE svg PUBLIC "-//W3C//DTD SVG 1.1//EN"
 "http://www.w3.org/Graphics/SVG/1.1/DTD/svg11.dtd">
<!-- Generated by graphviz version 2.40.1 (20161225.0304)
 -->
<!-- Title: %3 Pages: 1 -->
<svg width="2915pt" height="724pt"
 viewBox="0.00 0.00 2915.31 724.00" xmlns="http://www.w3.org/2000/svg" xmlns:xlink="http://www.w3.org/1999/xlink">
<g id="graph0" class="graph" transform="scale(1 1) rotate(0) translate(4 720)">
<title>%3</title>
<polygon fill="#ffffff" stroke="transparent" points="-4,4 -4,-720 2911.3101,-720 2911.3101,4 -4,4"/>
<g id="clust1" class="cluster">
<title>cluster_581527693</title>
<polygon fill="none" stroke="#000000" points="465,-440 465,-636 1747,-636 1747,-440 465,-440"/>
</g>
<g id="clust2" class="cluster">
<title>cluster_2142929983</title>
<polygon fill="none" stroke="#000000" points="465,-8 465,-420 904,-420 904,-8 465,-8"/>
</g>
<g id="clust3" class="cluster">
<title>cluster_1015452224</title>
<polygon fill="none" stroke="#000000" points="8,-224 8,-708 457,-708 457,-224 8,-224"/>
</g>
<!-- node_160 -->
<g id="node1" class="node">
<title>node_160</title>
<polygon fill="none" stroke="#000000" points="751.0303,-484 620.9697,-484 620.9697,-448 751.0303,-448 751.0303,-484"/>
<text text-anchor="middle" x="686" y="-461.8" font-family="Times,serif" font-size="14.00" fill="#000000">transmit s2&#45;&gt;exec_2</text>
</g>
<!-- node_171 -->
<g id="node24" class="node">
<title>node_171</title>
<polygon fill="none" stroke="#000000" points="833.6935,-412 734.3065,-412 734.3065,-376 833.6935,-376 833.6935,-412"/>
<text text-anchor="middle" x="784" y="-389.8" font-family="Times,serif" font-size="14.00" fill="#000000">accept s2 &#160;as is</text>
</g>
<!-- node_160&#45;&gt;node_171 -->
<g id="edge56" class="edge">
<title>node_160&#45;&gt;node_171</title>
<path fill="none" stroke="#000000" stroke-dasharray="1,5" d="M710.7295,-447.8314C722.9162,-438.8779 737.7823,-427.9558 750.9312,-418.2955"/>
<polygon fill="#000000" stroke="#000000" points="753.2918,-420.9042 759.2784,-412.1628 749.1473,-415.263 753.2918,-420.9042"/>
</g>
<!-- node_161 -->
<g id="node2" class="node">
<title>node_161</title>
<polygon fill="none" stroke="#000000" points="1493.1354,-556 1388.8646,-556 1388.8646,-520 1493.1354,-520 1493.1354,-556"/>
<text text-anchor="middle" x="1441" y="-533.8" font-family="Times,serif" font-size="14.00" fill="#000000">accept in2 &#160;as is</text>
</g>
<!-- node_162 -->
<g id="node3" class="node">
<title>node_162</title>
<polygon fill="none" stroke="#000000" points="1370.1354,-556 1265.8646,-556 1265.8646,-520 1370.1354,-520 1370.1354,-556"/>
<text text-anchor="middle" x="1318" y="-533.8" font-family="Times,serif" font-size="14.00" fill="#000000">accept in1 &#160;as is</text>
</g>
<!-- node_163 -->
<g id="node4" class="node">
<title>node_163</title>
<polygon fill="none" stroke="#000000" points="904.9725,-484 769.0275,-484 769.0275,-448 904.9725,-448 904.9725,-484"/>
<text text-anchor="middle" x="837" y="-461.8" font-family="Times,serif" font-size="14.00" fill="#000000">transmit in3&#45;&gt;exec_1</text>
</g>
<!-- node_147 -->
<g id="node37" class="node">
<title>node_147</title>
<polygon fill="none" stroke="#000000" points="449.1354,-628 344.8646,-628 344.8646,-592 449.1354,-592 449.1354,-628"/>
<text text-anchor="middle" x="397" y="-605.8" font-family="Times,serif" font-size="14.00" fill="#000000">accept in3 &#160;as is</text>
</g>
<!-- node_163&#45;&gt;node_147 -->
<g id="edge59" class="edge">
<title>node_163&#45;&gt;node_147</title>
<path fill="none" stroke="#000000" stroke-dasharray="1,5" d="M769.0626,-482.3035C766.0054,-482.9039 762.974,-483.4732 760,-484 629.5069,-507.1174 578.6143,-453.4686 464,-520 439.1643,-534.4166 420.714,-562.0752 409.5309,-582.9436"/>
<polygon fill="#000000" stroke="#000000" points="406.3456,-581.4853 404.9073,-591.982 412.5775,-584.6733 406.3456,-581.4853"/>
</g>
<!-- node_164 -->
<g id="node5" class="node">
<title>node_164</title>
<polygon fill="none" stroke="#000000" points="1543,-628 1454.9961,-610 1543,-592 1631.0039,-610 1543,-628"/>
<text text-anchor="middle" x="1543" y="-605.8" font-family="Times,serif" font-size="14.00" fill="#000000">client executor</text>
</g>
<!-- node_149 -->
<g id="node6" class="node">
<title>node_149</title>
<polygon fill="none" stroke="#000000" points="591.1353,-556 472.8647,-556 472.8647,-520 591.1353,-520 591.1353,-556"/>
<text text-anchor="middle" x="532" y="-533.8" font-family="Times,serif" font-size="14.00" fill="#000000">accept bool1 &#160;as is</text>
</g>
<!-- node_150 -->
<g id="node7" class="node">
<title>node_150</title>
<polygon fill="none" stroke="#000000" points="1188.5381,-628 1111.4619,-628 1111.4619,-592 1188.5381,-592 1188.5381,-628"/>
<text text-anchor="middle" x="1150" y="-605.8" font-family="Times,serif" font-size="14.00" fill="#000000">send graph</text>
</g>
<!-- node_150&#45;&gt;node_161 -->
<g id="edge16" class="edge">
<title>node_150&#45;&gt;node_161</title>
<path fill="none" stroke="#000000" d="M1188.5511,-594.6374C1191.3919,-593.6899 1194.2293,-592.7983 1197,-592 1273.1381,-570.0637 1297.03,-575.0625 1378.4359,-555.9932"/>
<polygon fill="#000000" stroke="#000000" points="1379.7465,-559.2783 1388.6559,-553.5449 1378.1157,-552.4709 1379.7465,-559.2783"/>
</g>
<!-- node_150&#45;&gt;node_162 -->
<g id="edge17" class="edge">
<title>node_150&#45;&gt;node_162</title>
<path fill="none" stroke="#000000" d="M1188.5426,-593.4817C1211.6496,-583.5787 1241.324,-570.8612 1266.4314,-560.1008"/>
<polygon fill="#000000" stroke="#000000" points="1267.9946,-563.2389 1275.8073,-556.0826 1265.2371,-556.8048 1267.9946,-563.2389"/>
</g>
<!-- node_150&#45;&gt;node_149 -->
<g id="edge22" class="edge">
<title>node_150&#45;&gt;node_149</title>
<path fill="none" stroke="#000000" d="M1111.4445,-608.2935C1022.9387,-603.9308 798.365,-590.3262 601.2926,-555.874"/>
<polygon fill="#000000" stroke="#000000" points="601.7931,-552.4082 591.336,-554.1112 600.5727,-559.301 601.7931,-552.4082"/>
</g>
<!-- node_151 -->
<g id="node8" class="node">
<title>node_151</title>
<polygon fill="none" stroke="#000000" points="1013.0045,-556 820.9955,-556 820.9955,-520 1013.0045,-520 1013.0045,-556"/>
<text text-anchor="middle" x="917" y="-533.8" font-family="Times,serif" font-size="14.00" fill="#000000">accept &amp;finished&amp;exec_1 &#160;as is</text>
</g>
<!-- node_150&#45;&gt;node_151 -->
<g id="edge1" class="edge">
<title>node_150&#45;&gt;node_151</title>
<path fill="none" stroke="#000000" d="M1111.2632,-598.0298C1077.0007,-587.4423 1026.2232,-571.7514 985.1746,-559.0668"/>
<polygon fill="#000000" stroke="#000000" points="986.0908,-555.6867 975.5032,-556.0782 984.0241,-562.3747 986.0908,-555.6867"/>
</g>
<!-- node_152 -->
<g id="node9" class="node">
<title>node_152</title>
<polygon fill="none" stroke="#000000" points="1739.1354,-556 1634.8646,-556 1634.8646,-520 1739.1354,-520 1739.1354,-556"/>
<text text-anchor="middle" x="1687" y="-533.8" font-family="Times,serif" font-size="14.00" fill="#000000">accept in4 &#160;as is</text>
</g>
<!-- node_150&#45;&gt;node_152 -->
<g id="edge3" class="edge">
<title>node_150&#45;&gt;node_152</title>
<path fill="none" stroke="#000000" d="M1188.7199,-594.2052C1191.4957,-593.3721 1194.2743,-592.6234 1197,-592 1379.9092,-550.1691 1435.4103,-589.3945 1624.7467,-555.7824"/>
<polygon fill="#000000" stroke="#000000" points="1625.5339,-559.1967 1634.7454,-553.9623 1624.2802,-552.3099 1625.5339,-559.1967"/>
</g>
<!-- node_155 -->
<g id="node12" class="node">
<title>node_155</title>
<polygon fill="none" stroke="#000000" points="1247.6935,-556 1148.3065,-556 1148.3065,-520 1247.6935,-520 1247.6935,-556"/>
<text text-anchor="middle" x="1198" y="-533.8" font-family="Times,serif" font-size="14.00" fill="#000000">accept s2 &#160;as is</text>
</g>
<!-- node_150&#45;&gt;node_155 -->
<g id="edge8" class="edge">
<title>node_150&#45;&gt;node_155</title>
<path fill="none" stroke="#000000" d="M1162.1124,-591.8314C1167.5281,-583.7079 1174.0242,-573.9637 1179.9921,-565.0118"/>
<polygon fill="#000000" stroke="#000000" points="1183.0896,-566.6753 1185.7245,-556.4133 1177.2653,-562.7923 1183.0896,-566.6753"/>
</g>
<!-- node_157 -->
<g id="node14" class="node">
<title>node_157</title>
<polygon fill="none" stroke="#000000" points="802.0045,-556 609.9955,-556 609.9955,-520 802.0045,-520 802.0045,-556"/>
<text text-anchor="middle" x="706" y="-533.8" font-family="Times,serif" font-size="14.00" fill="#000000">accept &amp;finished&amp;exec_2 &#160;as is</text>
</g>
<!-- node_150&#45;&gt;node_157 -->
<g id="edge11" class="edge">
<title>node_150&#45;&gt;node_157</title>
<path fill="none" stroke="#000000" d="M1111.4558,-603.9677C1050.4607,-594.3943 927.6823,-575.0126 812.2608,-556.0343"/>
<polygon fill="#000000" stroke="#000000" points="812.6249,-552.5472 802.1891,-554.3762 811.4877,-559.4543 812.6249,-552.5472"/>
</g>
<!-- node_158 -->
<g id="node15" class="node">
<title>node_158</title>
<polygon fill="none" stroke="#000000" points="1130.6935,-556 1031.3065,-556 1031.3065,-520 1130.6935,-520 1130.6935,-556"/>
<text text-anchor="middle" x="1081" y="-533.8" font-family="Times,serif" font-size="14.00" fill="#000000">accept s1 &#160;as is</text>
</g>
<!-- node_150&#45;&gt;node_158 -->
<g id="edge13" class="edge">
<title>node_150&#45;&gt;node_158</title>
<path fill="none" stroke="#000000" d="M1132.5884,-591.8314C1124.479,-583.3694 1114.6844,-573.1489 1105.818,-563.8971"/>
<polygon fill="#000000" stroke="#000000" points="1108.0921,-561.2115 1098.646,-556.4133 1103.0382,-566.0549 1108.0921,-561.2115"/>
</g>
<!-- node_159 -->
<g id="node16" class="node">
<title>node_159</title>
<polygon fill="none" stroke="#000000" points="1616.1354,-556 1511.8646,-556 1511.8646,-520 1616.1354,-520 1616.1354,-556"/>
<text text-anchor="middle" x="1564" y="-533.8" font-family="Times,serif" font-size="14.00" fill="#000000">accept in3 &#160;as is</text>
</g>
<!-- node_150&#45;&gt;node_159 -->
<g id="edge15" class="edge">
<title>node_150&#45;&gt;node_159</title>
<path fill="none" stroke="#000000" d="M1188.7448,-594.3101C1191.5147,-593.452 1194.2852,-592.669 1197,-592 1326.4254,-560.1054 1366.3596,-582.0369 1501.8015,-555.809"/>
<polygon fill="#000000" stroke="#000000" points="1502.5958,-559.2197 1511.7209,-553.836 1501.2302,-552.3542 1502.5958,-559.2197"/>
</g>
<!-- node_156 -->
<g id="node13" class="node">
<title>node_156</title>
<polygon fill="none" stroke="#000000" points="1057.9725,-484 922.0275,-484 922.0275,-448 1057.9725,-448 1057.9725,-484"/>
<text text-anchor="middle" x="990" y="-461.8" font-family="Times,serif" font-size="14.00" fill="#000000">transmit in4&#45;&gt;exec_1</text>
</g>
<!-- node_152&#45;&gt;node_156 -->
<g id="edge5" class="edge">
<title>node_152&#45;&gt;node_156</title>
<path fill="none" stroke="#000000" d="M1634.7447,-522.0411C1631.4631,-521.2839 1628.1957,-520.5937 1625,-520 1426.5505,-483.1301 1188.4646,-471.386 1068.0148,-467.6809"/>
<polygon fill="#000000" stroke="#000000" points="1067.8862,-464.1756 1057.7867,-467.377 1067.6783,-471.1726 1067.8862,-464.1756"/>
</g>
<!-- node_153 -->
<g id="node10" class="node">
<title>node_153</title>
<polygon fill="none" stroke="#000000" points="603.0303,-484 472.9697,-484 472.9697,-448 603.0303,-448 603.0303,-484"/>
<text text-anchor="middle" x="538" y="-461.8" font-family="Times,serif" font-size="14.00" fill="#000000">transmit s1&#45;&gt;exec_2</text>
</g>
<!-- node_168 -->
<g id="node21" class="node">
<title>node_168</title>
<polygon fill="none" stroke="#000000" points="689.6935,-412 590.3065,-412 590.3065,-376 689.6935,-376 689.6935,-412"/>
<text text-anchor="middle" x="640" y="-389.8" font-family="Times,serif" font-size="14.00" fill="#000000">accept s1 &#160;as is</text>
</g>
<!-- node_153&#45;&gt;node_168 -->
<g id="edge58" class="edge">
<title>node_153&#45;&gt;node_168</title>
<path fill="none" stroke="#000000" stroke-dasharray="1,5" d="M563.7389,-447.8314C576.5437,-438.7927 592.1909,-427.7476 605.9719,-418.0198"/>
<polygon fill="#000000" stroke="#000000" points="608.118,-420.7891 614.2693,-412.1628 604.0812,-415.0703 608.118,-420.7891"/>
</g>
<!-- node_154 -->
<g id="node11" class="node">
<title>node_154</title>
<polygon fill="none" stroke="#000000" points="1283.5381,-628 1206.4619,-628 1206.4619,-592 1283.5381,-592 1283.5381,-628"/>
<text text-anchor="middle" x="1245" y="-605.8" font-family="Times,serif" font-size="14.00" fill="#000000">send graph</text>
</g>
<!-- node_154&#45;&gt;node_161 -->
<g id="edge12" class="edge">
<title>node_154&#45;&gt;node_161</title>
<path fill="none" stroke="#000000" d="M1283.7233,-595.7751C1311.8303,-585.4501 1350.3575,-571.2973 1382.2445,-559.5837"/>
<polygon fill="#000000" stroke="#000000" points="1383.7286,-562.7672 1391.9084,-556.0336 1381.3148,-556.1965 1383.7286,-562.7672"/>
</g>
<!-- node_154&#45;&gt;node_162 -->
<g id="edge14" class="edge">
<title>node_154&#45;&gt;node_162</title>
<path fill="none" stroke="#000000" d="M1263.421,-591.8314C1272.1529,-583.219 1282.7317,-572.7851 1292.2423,-563.4048"/>
<polygon fill="#000000" stroke="#000000" points="1294.923,-565.6769 1299.5849,-556.1628 1290.0075,-560.6931 1294.923,-565.6769"/>
</g>
<!-- node_154&#45;&gt;node_149 -->
<g id="edge18" class="edge">
<title>node_154&#45;&gt;node_149</title>
<path fill="none" stroke="#000000" d="M1206.2966,-594.131C1203.5169,-593.3156 1200.7329,-592.591 1198,-592 941.3626,-536.4975 865.3673,-596.2525 601.1924,-555.8025"/>
<polygon fill="#000000" stroke="#000000" points="601.7324,-552.3445 591.3115,-554.2565 600.6503,-559.2603 601.7324,-552.3445"/>
</g>
<!-- node_154&#45;&gt;node_151 -->
<g id="edge20" class="edge">
<title>node_154&#45;&gt;node_151</title>
<path fill="none" stroke="#000000" d="M1206.4538,-594.6203C1203.6119,-593.6768 1200.7729,-592.7908 1198,-592 1165.5671,-582.7509 1088.4893,-568.1222 1023.2488,-556.4223"/>
<polygon fill="#000000" stroke="#000000" points="1023.7626,-552.9587 1013.3028,-554.6447 1022.531,-559.8495 1023.7626,-552.9587"/>
</g>
<!-- node_154&#45;&gt;node_152 -->
<g id="edge21" class="edge">
<title>node_154&#45;&gt;node_152</title>
<path fill="none" stroke="#000000" d="M1283.6129,-606.3367C1350.8912,-599.5604 1494.0397,-583.4006 1624.5309,-555.9182"/>
<polygon fill="#000000" stroke="#000000" points="1625.6532,-559.2576 1634.7023,-553.7472 1624.192,-552.4118 1625.6532,-559.2576"/>
</g>
<!-- node_154&#45;&gt;node_155 -->
<g id="edge2" class="edge">
<title>node_154&#45;&gt;node_155</title>
<path fill="none" stroke="#000000" d="M1233.1399,-591.8314C1227.8371,-583.7079 1221.4763,-573.9637 1215.6327,-565.0118"/>
<polygon fill="#000000" stroke="#000000" points="1218.4169,-562.8739 1210.0198,-556.4133 1212.5552,-566.7003 1218.4169,-562.8739"/>
</g>
<!-- node_154&#45;&gt;node_157 -->
<g id="edge4" class="edge">
<title>node_154&#45;&gt;node_157</title>
<path fill="none" stroke="#000000" d="M1206.2735,-594.2336C1203.4993,-593.3938 1200.7228,-592.6357 1198,-592 1033.3258,-553.5518 984.6324,-577.5104 812.07,-555.9253"/>
<polygon fill="#000000" stroke="#000000" points="812.5127,-552.4535 802.1484,-554.6515 811.6213,-559.3965 812.5127,-552.4535"/>
</g>
<!-- node_154&#45;&gt;node_158 -->
<g id="edge6" class="edge">
<title>node_154&#45;&gt;node_158</title>
<path fill="none" stroke="#000000" d="M1206.1343,-592.937C1183.8076,-583.135 1155.5167,-570.7147 1131.4852,-560.1642"/>
<polygon fill="#000000" stroke="#000000" points="1132.7276,-556.8873 1122.1642,-556.0721 1129.9136,-563.2968 1132.7276,-556.8873"/>
</g>
<!-- node_154&#45;&gt;node_159 -->
<g id="edge9" class="edge">
<title>node_154&#45;&gt;node_159</title>
<path fill="none" stroke="#000000" d="M1283.5227,-602.8468C1332.0455,-593.6302 1418.1572,-576.5906 1501.7323,-555.9672"/>
<polygon fill="#000000" stroke="#000000" points="1502.786,-559.3118 1511.6451,-553.5009 1501.0959,-552.5189 1502.786,-559.3118"/>
</g>
<!-- node_155&#45;&gt;node_160 -->
<g id="edge10" class="edge">
<title>node_155&#45;&gt;node_160</title>
<path fill="none" stroke="#000000" d="M1148.1821,-521.823C1145.428,-521.1531 1142.6878,-520.5384 1140,-520 976.8267,-487.3158 929.1073,-511.1734 761.1815,-484.0533"/>
<polygon fill="#000000" stroke="#000000" points="761.701,-480.5917 751.2643,-482.4155 760.5603,-487.4982 761.701,-480.5917"/>
</g>
<!-- node_145 -->
<g id="node35" class="node">
<title>node_145</title>
<polygon fill="none" stroke="#000000" points="429.1354,-484 324.8646,-484 324.8646,-448 429.1354,-448 429.1354,-484"/>
<text text-anchor="middle" x="377" y="-461.8" font-family="Times,serif" font-size="14.00" fill="#000000">accept in4 &#160;as is</text>
</g>
<!-- node_156&#45;&gt;node_145 -->
<g id="edge61" class="edge">
<title>node_156&#45;&gt;node_145</title>
<path fill="none" stroke="#000000" stroke-dasharray="1,5" d="M955.8614,-484.1582C940.7287,-491.2223 922.4331,-498.4605 905,-502 810.2662,-521.2343 565.0231,-519.7498 470,-502 454.6511,-499.1329 438.5744,-493.8179 424.1878,-488.1356"/>
<polygon fill="#000000" stroke="#000000" points="425.1076,-484.7297 414.5276,-484.1686 422.4484,-491.205 425.1076,-484.7297"/>
</g>
<!-- node_158&#45;&gt;node_153 -->
<g id="edge19" class="edge">
<title>node_158&#45;&gt;node_153</title>
<path fill="none" stroke="#000000" d="M1031.2911,-522.0374C1028.1638,-521.2812 1025.0487,-520.5922 1022,-520 845.6768,-485.7516 794.3425,-512.6898 613.3818,-484.0767"/>
<polygon fill="#000000" stroke="#000000" points="613.6906,-480.5812 603.2602,-482.4402 612.5733,-487.4915 613.6906,-480.5812"/>
</g>
<!-- node_159&#45;&gt;node_163 -->
<g id="edge7" class="edge">
<title>node_159&#45;&gt;node_163</title>
<path fill="none" stroke="#000000" d="M1511.7609,-521.9514C1508.4752,-521.2164 1505.2026,-520.5557 1502,-520 1246.8752,-475.7332 1174.2821,-521.1792 914.9389,-484.1461"/>
<polygon fill="#000000" stroke="#000000" points="915.241,-480.6532 904.8411,-482.6762 914.2326,-487.5802 915.241,-480.6532"/>
</g>
<!-- node_180 -->
<g id="node17" class="node">
<title>node_180</title>
<polygon fill="none" stroke="#000000" points="2119.6788,-628 1946.3212,-628 1946.3212,-592 2119.6788,-592 2119.6788,-628"/>
<text text-anchor="middle" x="2033" y="-605.8" font-family="Times,serif" font-size="14.00" fill="#000000">transmit s2&#45;&gt;client executor</text>
</g>
<!-- node_180&#45;&gt;node_155 -->
<g id="edge51" class="edge">
<title>node_180&#45;&gt;node_155</title>
<path fill="none" stroke="#000000" stroke-dasharray="1,5" d="M1946.3535,-593.0856C1943.5399,-592.6954 1940.7498,-592.3317 1938,-592 1640.4709,-556.1138 1557.3488,-607.4335 1257.9711,-555.8844"/>
<polygon fill="#000000" stroke="#000000" points="1258.1388,-552.3607 1247.6857,-554.0878 1256.9343,-559.2563 1258.1388,-552.3607"/>
</g>
<!-- node_165 -->
<g id="node18" class="node">
<title>node_165</title>
<polygon fill="none" stroke="#000000" points="814.1205,-124 621.8795,-124 621.8795,-88 814.1205,-88 814.1205,-124"/>
<text text-anchor="middle" x="718" y="-101.8" font-family="Times,serif" font-size="14.00" fill="#000000">transmit bool1&#45;&gt;client executor</text>
</g>
<!-- node_165&#45;&gt;node_149 -->
<g id="edge60" class="edge">
<title>node_165&#45;&gt;node_149</title>
<path fill="none" stroke="#000000" stroke-dasharray="1,5" d="M814.207,-123.9887C923.2421,-147.1881 1086,-191.5991 1086,-250 1086,-394 1086,-394 1086,-394 1086,-434.8816 1097.7372,-457.0457 1067,-484 1029.7084,-516.702 685.2952,-511.9422 601.3756,-520.5062"/>
<polygon fill="#000000" stroke="#000000" points="600.7897,-517.0528 591.3221,-521.8083 601.6889,-523.9948 600.7897,-517.0528"/>
</g>
<!-- node_167 -->
<g id="node20" class="node">
<title>node_167</title>
<polygon fill="none" stroke="#000000" points="854.0971,-52 663.9029,-52 663.9029,-16 854.0971,-16 854.0971,-52"/>
<text text-anchor="middle" x="759" y="-29.8" font-family="Times,serif" font-size="14.00" fill="#000000">FinishNode &amp;finished&amp;exec_2</text>
</g>
<!-- node_165&#45;&gt;node_167 -->
<g id="edge25" class="edge">
<title>node_165&#45;&gt;node_167</title>
<path fill="none" stroke="#000000" d="M728.346,-87.8314C732.9237,-79.7925 738.4052,-70.1666 743.4588,-61.2918"/>
<polygon fill="#000000" stroke="#000000" points="746.6077,-62.8351 748.5147,-52.4133 740.5248,-59.3712 746.6077,-62.8351"/>
</g>
<!-- node_166 -->
<g id="node19" class="node">
<title>node_166</title>
<polygon fill="none" stroke="#000000" points="675.2306,-196 472.7694,-196 472.7694,-160 675.2306,-160 675.2306,-196"/>
<text text-anchor="middle" x="574" y="-173.8" font-family="Times,serif" font-size="14.00" fill="#000000">bool1 = s1::liagtAufGerade([p1])</text>
</g>
<!-- node_166&#45;&gt;node_165 -->
<g id="edge35" class="edge">
<title>node_166&#45;&gt;node_165</title>
<path fill="none" stroke="#000000" d="M610.3373,-159.8314C629.3396,-150.3302 652.7758,-138.6121 672.9252,-128.5374"/>
<polygon fill="#000000" stroke="#000000" points="674.545,-131.6407 681.924,-124.038 671.4145,-125.3797 674.545,-131.6407"/>
</g>
<!-- node_169 -->
<g id="node22" class="node">
<title>node_169</title>
<polygon fill="none" stroke="#000000" points="603.6623,-124 544.3377,-124 544.3377,-88 603.6623,-88 603.6623,-124"/>
<text text-anchor="middle" x="574" y="-101.8" font-family="Times,serif" font-size="14.00" fill="#000000">store s1</text>
</g>
<!-- node_166&#45;&gt;node_169 -->
<g id="edge27" class="edge">
<title>node_166&#45;&gt;node_169</title>
<path fill="none" stroke="#000000" d="M574,-159.8314C574,-152.131 574,-142.9743 574,-134.4166"/>
<polygon fill="#000000" stroke="#000000" points="577.5001,-134.4132 574,-124.4133 570.5001,-134.4133 577.5001,-134.4132"/>
</g>
<!-- node_167&#45;&gt;node_157 -->
<g id="edge62" class="edge">
<title>node_167&#45;&gt;node_157</title>
<path fill="none" stroke="#000000" stroke-dasharray="1,5" d="M854.2501,-48.5559C973.4088,-69.5073 1162,-112.9431 1162,-178 1162,-250 1162,-250 1162,-250 1162,-358.5537 1174.7463,-413.7365 1092,-484 1046.3282,-522.782 889.0867,-511.882 812.4307,-520.1887"/>
<polygon fill="#000000" stroke="#000000" points="811.6467,-516.7602 802.169,-521.4954 812.531,-523.7041 811.6467,-516.7602"/>
</g>
<!-- node_175 -->
<g id="node28" class="node">
<title>node_175</title>
<polygon fill="none" stroke="#000000" points="647.0518,-340 590.9482,-340 590.9482,-304 647.0518,-304 647.0518,-340"/>
<text text-anchor="middle" x="619" y="-317.8" font-family="Times,serif" font-size="14.00" fill="#000000">load s1</text>
</g>
<!-- node_168&#45;&gt;node_175 -->
<g id="edge28" class="edge">
<title>node_168&#45;&gt;node_175</title>
<path fill="none" stroke="#000000" d="M634.7008,-375.8314C632.4302,-368.0463 629.7254,-358.7729 627.206,-350.1347"/>
<polygon fill="#000000" stroke="#000000" points="630.5306,-349.0332 624.3705,-340.4133 623.8106,-350.9933 630.5306,-349.0332"/>
</g>
<!-- node_169&#45;&gt;node_167 -->
<g id="edge32" class="edge">
<title>node_169&#45;&gt;node_167</title>
<path fill="none" stroke="#000000" d="M603.7046,-91.9997C606.8285,-90.6146 609.9694,-89.2576 613,-88 640.567,-76.5609 671.5204,-64.9418 697.8082,-55.4269"/>
<polygon fill="#000000" stroke="#000000" points="699.0443,-58.7018 707.2671,-52.0208 696.6727,-52.1158 699.0443,-58.7018"/>
</g>
<!-- node_170 -->
<g id="node23" class="node">
<title>node_170</title>
<polygon fill="none" stroke="#000000" points="891.6623,-124 832.3377,-124 832.3377,-88 891.6623,-88 891.6623,-124"/>
<text text-anchor="middle" x="862" y="-101.8" font-family="Times,serif" font-size="14.00" fill="#000000">store s2</text>
</g>
<!-- node_170&#45;&gt;node_167 -->
<g id="edge31" class="edge">
<title>node_170&#45;&gt;node_167</title>
<path fill="none" stroke="#000000" d="M836.0088,-87.8314C823.0784,-78.7927 807.2778,-67.7476 793.3617,-58.0198"/>
<polygon fill="#000000" stroke="#000000" points="795.1843,-55.0235 784.9829,-52.1628 791.1737,-60.7608 795.1843,-55.0235"/>
</g>
<!-- node_173 -->
<g id="node26" class="node">
<title>node_173</title>
<polygon fill="none" stroke="#000000" points="839.0518,-340 782.9482,-340 782.9482,-304 839.0518,-304 839.0518,-340"/>
<text text-anchor="middle" x="811" y="-317.8" font-family="Times,serif" font-size="14.00" fill="#000000">load s2</text>
</g>
<!-- node_171&#45;&gt;node_173 -->
<g id="edge26" class="edge">
<title>node_171&#45;&gt;node_173</title>
<path fill="none" stroke="#000000" d="M790.8132,-375.8314C793.7644,-367.9617 797.2858,-358.5712 800.555,-349.8533"/>
<polygon fill="#000000" stroke="#000000" points="803.8609,-351.0055 804.095,-340.4133 797.3066,-348.5476 803.8609,-351.0055"/>
</g>
<!-- node_172 -->
<g id="node25" class="node">
<title>node_172</title>
<polygon fill="none" stroke="#000000" points="896.2306,-196 693.7694,-196 693.7694,-160 896.2306,-160 896.2306,-196"/>
<text text-anchor="middle" x="795" y="-173.8" font-family="Times,serif" font-size="14.00" fill="#000000">bool2 = s2::liagtAufGerade([p2])</text>
</g>
<!-- node_172&#45;&gt;node_170 -->
<g id="edge33" class="edge">
<title>node_172&#45;&gt;node_170</title>
<path fill="none" stroke="#000000" d="M811.9069,-159.8314C819.7813,-151.3694 829.292,-141.1489 837.9013,-131.8971"/>
<polygon fill="#000000" stroke="#000000" points="840.6153,-134.1183 844.8654,-124.4133 835.4908,-129.3497 840.6153,-134.1183"/>
</g>
<!-- node_174 -->
<g id="node27" class="node">
<title>node_174</title>
<polygon fill="none" stroke="#000000" points="855.3031,-268 734.6969,-268 734.6969,-232 855.3031,-232 855.3031,-268"/>
<text text-anchor="middle" x="795" y="-245.8" font-family="Times,serif" font-size="14.00" fill="#000000">p2 = s2::calc([n2])</text>
</g>
<!-- node_173&#45;&gt;node_174 -->
<g id="edge23" class="edge">
<title>node_173&#45;&gt;node_174</title>
<path fill="none" stroke="#000000" d="M806.9625,-303.8314C805.2513,-296.131 803.2165,-286.9743 801.3148,-278.4166"/>
<polygon fill="#000000" stroke="#000000" points="804.6779,-277.4159 799.0918,-268.4133 797.8446,-278.9344 804.6779,-277.4159"/>
</g>
<!-- node_174&#45;&gt;node_172 -->
<g id="edge34" class="edge">
<title>node_174&#45;&gt;node_172</title>
<path fill="none" stroke="#000000" d="M795,-231.8314C795,-224.131 795,-214.9743 795,-206.4166"/>
<polygon fill="#000000" stroke="#000000" points="798.5001,-206.4132 795,-196.4133 791.5001,-206.4133 798.5001,-206.4132"/>
</g>
<!-- node_176 -->
<g id="node29" class="node">
<title>node_176</title>
<polygon fill="none" stroke="#000000" points="634.3031,-268 513.6969,-268 513.6969,-232 634.3031,-232 634.3031,-268"/>
<text text-anchor="middle" x="574" y="-245.8" font-family="Times,serif" font-size="14.00" fill="#000000">p1 = s1::calc([n1])</text>
</g>
<!-- node_175&#45;&gt;node_176 -->
<g id="edge24" class="edge">
<title>node_175&#45;&gt;node_176</title>
<path fill="none" stroke="#000000" d="M607.6446,-303.8314C602.5674,-295.7079 596.4773,-285.9637 590.8824,-277.0118"/>
<polygon fill="#000000" stroke="#000000" points="593.7763,-275.0383 585.5083,-268.4133 587.8403,-278.7483 593.7763,-275.0383"/>
</g>
<!-- node_176&#45;&gt;node_166 -->
<g id="edge29" class="edge">
<title>node_176&#45;&gt;node_166</title>
<path fill="none" stroke="#000000" d="M574,-231.8314C574,-224.131 574,-214.9743 574,-206.4166"/>
<polygon fill="#000000" stroke="#000000" points="577.5001,-206.4132 574,-196.4133 570.5001,-206.4133 577.5001,-206.4132"/>
</g>
<!-- node_177 -->
<g id="node30" class="node">
<title>node_177</title>
<polygon fill="none" stroke="#000000" points="573.2454,-340 472.7546,-340 472.7546,-304 573.2454,-304 573.2454,-340"/>
<text text-anchor="middle" x="523" y="-317.8" font-family="Times,serif" font-size="14.00" fill="#000000">accept n1 &#160;as is</text>
</g>
<!-- node_177&#45;&gt;node_176 -->
<g id="edge36" class="edge">
<title>node_177&#45;&gt;node_176</title>
<path fill="none" stroke="#000000" d="M535.8695,-303.8314C541.6835,-295.6232 548.6696,-285.7606 555.0646,-276.7323"/>
<polygon fill="#000000" stroke="#000000" points="558.0331,-278.5966 560.9573,-268.4133 552.321,-274.5505 558.0331,-278.5966"/>
</g>
<!-- node_178 -->
<g id="node31" class="node">
<title>node_178</title>
<polygon fill="none" stroke="#000000" points="765.2454,-340 664.7546,-340 664.7546,-304 765.2454,-304 765.2454,-340"/>
<text text-anchor="middle" x="715" y="-317.8" font-family="Times,serif" font-size="14.00" fill="#000000">accept n2 &#160;as is</text>
</g>
<!-- node_178&#45;&gt;node_174 -->
<g id="edge30" class="edge">
<title>node_178&#45;&gt;node_174</title>
<path fill="none" stroke="#000000" d="M735.1874,-303.8314C744.8514,-295.1337 756.5796,-284.5783 767.0816,-275.1265"/>
<polygon fill="#000000" stroke="#000000" points="769.7275,-277.454 774.8191,-268.1628 765.0447,-272.251 769.7275,-277.454"/>
</g>
<!-- node_179 -->
<g id="node32" class="node">
<title>node_179</title>
<polygon fill="none" stroke="#000000" points="523,-412 473.0871,-394 523,-376 572.9129,-394 523,-412"/>
<text text-anchor="middle" x="523" y="-389.8" font-family="Times,serif" font-size="14.00" fill="#000000">exec_2</text>
</g>
<!-- node_181 -->
<g id="node33" class="node">
<title>node_181</title>
<polygon fill="none" stroke="#000000" points="1928.6788,-628 1755.3212,-628 1755.3212,-592 1928.6788,-592 1928.6788,-628"/>
<text text-anchor="middle" x="1842" y="-605.8" font-family="Times,serif" font-size="14.00" fill="#000000">transmit s1&#45;&gt;client executor</text>
</g>
<!-- node_181&#45;&gt;node_158 -->
<g id="edge53" class="edge">
<title>node_181&#45;&gt;node_158</title>
<path fill="none" stroke="#000000" stroke-dasharray="1,5" d="M1755.3448,-592.578C1753.8869,-592.3766 1752.4377,-592.1836 1751,-592 1484.0241,-557.9055 1408.9033,-603.5954 1140.8235,-556.0973"/>
<polygon fill="#000000" stroke="#000000" points="1141.2574,-552.6192 1130.7957,-554.2934 1140.018,-559.5087 1141.2574,-552.6192"/>
</g>
<!-- node_144 -->
<g id="node34" class="node">
<title>node_144</title>
<polygon fill="none" stroke="#000000" points="449.0971,-268 258.9029,-268 258.9029,-232 449.0971,-232 449.0971,-268"/>
<text text-anchor="middle" x="354" y="-245.8" font-family="Times,serif" font-size="14.00" fill="#000000">FinishNode &amp;finished&amp;exec_1</text>
</g>
<!-- node_144&#45;&gt;node_151 -->
<g id="edge52" class="edge">
<title>node_144&#45;&gt;node_151</title>
<path fill="none" stroke="#000000" stroke-dasharray="1,5" d="M449.3223,-266.4644C453.2631,-267.0093 457.1678,-267.5242 461,-268 752.8679,-304.2341 964.9049,-178.7548 1100,-440 1108.9826,-457.3704 1111.7087,-468.3371 1100,-484 1089.6665,-497.8232 1057.4251,-509.3401 1022.8229,-518.1379"/>
<polygon fill="#000000" stroke="#000000" points="1021.8931,-514.7622 1013.0169,-520.5469 1023.5632,-521.5601 1021.8931,-514.7622"/>
</g>
<!-- node_138 -->
<g id="node40" class="node">
<title>node_138</title>
<polygon fill="none" stroke="#000000" points="299.2825,-412 136.7175,-412 136.7175,-376 299.2825,-376 299.2825,-412"/>
<text text-anchor="middle" x="218" y="-389.8" font-family="Times,serif" font-size="14.00" fill="#000000">n2 = adder1::addier([in4])</text>
</g>
<!-- node_145&#45;&gt;node_138 -->
<g id="edge42" class="edge">
<title>node_145&#45;&gt;node_138</title>
<path fill="none" stroke="#000000" d="M336.8776,-447.8314C315.7068,-438.2446 289.5517,-426.4008 267.1697,-416.2655"/>
<polygon fill="#000000" stroke="#000000" points="268.3872,-412.9748 257.8339,-412.038 265.4997,-419.3515 268.3872,-412.9748"/>
</g>
<!-- node_146 -->
<g id="node36" class="node">
<title>node_146</title>
<polygon fill="none" stroke="#000000" points="408.2825,-556 245.7175,-556 245.7175,-520 408.2825,-520 408.2825,-556"/>
<text text-anchor="middle" x="327" y="-533.8" font-family="Times,serif" font-size="14.00" fill="#000000">n1 = adder1::addier([in3])</text>
</g>
<!-- node_140 -->
<g id="node42" class="node">
<title>node_140</title>
<polygon fill="none" stroke="#000000" points="306.0794,-484 15.9206,-484 15.9206,-448 306.0794,-448 306.0794,-484"/>
<text text-anchor="middle" x="161" y="-461.8" font-family="Times,serif" font-size="14.00" fill="#000000">adder1 = demo.math.Addierer::__construct([10])</text>
</g>
<!-- node_146&#45;&gt;node_140 -->
<g id="edge43" class="edge">
<title>node_146&#45;&gt;node_140</title>
<path fill="none" stroke="#000000" d="M285.1112,-519.8314C262.9097,-510.2018 235.4578,-498.295 212.0216,-488.1299"/>
<polygon fill="#000000" stroke="#000000" points="213.1545,-484.8062 202.5876,-484.038 210.3691,-491.2282 213.1545,-484.8062"/>
</g>
<!-- node_141 -->
<g id="node43" class="node">
<title>node_141</title>
<polygon fill="none" stroke="#000000" points="448.5827,-412 317.4173,-412 317.4173,-376 448.5827,-376 448.5827,-412"/>
<text text-anchor="middle" x="383" y="-389.8" font-family="Times,serif" font-size="14.00" fill="#000000">transmit n1&#45;&gt;exec_2</text>
</g>
<!-- node_146&#45;&gt;node_141 -->
<g id="edge44" class="edge">
<title>node_146&#45;&gt;node_141</title>
<path fill="none" stroke="#000000" d="M393.5859,-519.9556C411.0152,-511.8798 427.7711,-500.3513 438,-484 448.3712,-467.4212 446.2788,-457.7167 438,-440 434.2502,-431.9753 428.3357,-424.8578 421.7496,-418.763"/>
<polygon fill="#000000" stroke="#000000" points="423.7075,-415.8366 413.7991,-412.085 419.2053,-421.1967 423.7075,-415.8366"/>
</g>
<!-- node_147&#45;&gt;node_146 -->
<g id="edge47" class="edge">
<title>node_147&#45;&gt;node_146</title>
<path fill="none" stroke="#000000" d="M379.336,-591.8314C371.0268,-583.2848 360.9736,-572.9443 351.9082,-563.6198"/>
<polygon fill="#000000" stroke="#000000" points="354.3821,-561.1435 344.9018,-556.4133 349.3631,-566.023 354.3821,-561.1435"/>
</g>
<!-- node_148 -->
<g id="node38" class="node">
<title>node_148</title>
<polygon fill="none" stroke="#000000" points="353,-700 303.0871,-682 353,-664 402.9129,-682 353,-700"/>
<text text-anchor="middle" x="353" y="-677.8" font-family="Times,serif" font-size="14.00" fill="#000000">exec_1</text>
</g>
<!-- node_137 -->
<g id="node39" class="node">
<title>node_137</title>
<polygon fill="none" stroke="#000000" points="363.5827,-340 232.4173,-340 232.4173,-304 363.5827,-304 363.5827,-340"/>
<text text-anchor="middle" x="298" y="-317.8" font-family="Times,serif" font-size="14.00" fill="#000000">transmit n2&#45;&gt;exec_2</text>
</g>
<!-- node_137&#45;&gt;node_178 -->
<g id="edge54" class="edge">
<title>node_137&#45;&gt;node_178</title>
<path fill="none" stroke="#000000" stroke-dasharray="1,5" d="M356.2895,-340.0771C426.2884,-359.0365 546.799,-382.8875 647,-358 658.0174,-355.2635 669.2138,-350.3766 679.2561,-345.0685"/>
<polygon fill="#000000" stroke="#000000" points="681.0888,-348.0539 688.1161,-340.1249 677.678,-341.9411 681.0888,-348.0539"/>
</g>
<!-- node_137&#45;&gt;node_144 -->
<g id="edge41" class="edge">
<title>node_137&#45;&gt;node_144</title>
<path fill="none" stroke="#000000" d="M312.1312,-303.8314C318.5811,-295.5386 326.3445,-285.557 333.4252,-276.4533"/>
<polygon fill="#000000" stroke="#000000" points="336.3019,-278.4556 339.6786,-268.4133 330.7764,-274.158 336.3019,-278.4556"/>
</g>
<!-- node_138&#45;&gt;node_137 -->
<g id="edge46" class="edge">
<title>node_138&#45;&gt;node_137</title>
<path fill="none" stroke="#000000" d="M238.1874,-375.8314C247.8514,-367.1337 259.5796,-356.5783 270.0816,-347.1265"/>
<polygon fill="#000000" stroke="#000000" points="272.7275,-349.454 277.8191,-340.1628 268.0447,-344.251 272.7275,-349.454"/>
</g>
<!-- node_139 -->
<g id="node41" class="node">
<title>node_139</title>
<polygon fill="none" stroke="#000000" points="219.3041,-556 102.6959,-556 102.6959,-520 219.3041,-520 219.3041,-556"/>
<text text-anchor="middle" x="161" y="-533.8" font-family="Times,serif" font-size="14.00" fill="#000000">parse Number: 10</text>
</g>
<!-- node_139&#45;&gt;node_140 -->
<g id="edge37" class="edge">
<title>node_139&#45;&gt;node_140</title>
<path fill="none" stroke="#000000" d="M161,-519.8314C161,-512.131 161,-502.9743 161,-494.4166"/>
<polygon fill="#000000" stroke="#000000" points="164.5001,-494.4132 161,-484.4133 157.5001,-494.4133 164.5001,-494.4132"/>
</g>
<!-- node_140&#45;&gt;node_138 -->
<g id="edge45" class="edge">
<title>node_140&#45;&gt;node_138</title>
<path fill="none" stroke="#000000" d="M175.3835,-447.8314C181.9486,-439.5386 189.8507,-429.557 197.0578,-420.4533"/>
<polygon fill="#000000" stroke="#000000" points="199.9599,-422.4262 203.4228,-412.4133 194.4716,-418.0813 199.9599,-422.4262"/>
</g>
<!-- node_141&#45;&gt;node_177 -->
<g id="edge49" class="edge">
<title>node_141&#45;&gt;node_177</title>
<path fill="none" stroke="#000000" stroke-dasharray="1,5" d="M418.3279,-375.8314C436.6493,-366.4089 459.2102,-354.8062 478.6895,-344.7883"/>
<polygon fill="#000000" stroke="#000000" points="480.3912,-347.8489 487.6834,-340.1628 477.1898,-341.6239 480.3912,-347.8489"/>
</g>
<!-- node_141&#45;&gt;node_144 -->
<g id="edge39" class="edge">
<title>node_141&#45;&gt;node_144</title>
<path fill="none" stroke="#000000" d="M382.1982,-375.8689C381.1059,-357.5483 378.5995,-328.5227 373,-304 371.0182,-295.3208 368.0969,-286.1037 365.1364,-277.788"/>
<polygon fill="#000000" stroke="#000000" points="368.3325,-276.341 361.5661,-268.1883 361.7716,-278.7811 368.3325,-276.341"/>
</g>
<!-- node_142 -->
<g id="node44" class="node">
<title>node_142</title>
<polygon fill="none" stroke="#000000" points="239.8041,-700 116.1959,-700 116.1959,-664 239.8041,-664 239.8041,-700"/>
<text text-anchor="middle" x="178" y="-677.8" font-family="Times,serif" font-size="14.00" fill="#000000">parse Number: 100</text>
</g>
<!-- node_143 -->
<g id="node45" class="node">
<title>node_143</title>
<polygon fill="none" stroke="#000000" points="326.5794,-628 29.4206,-628 29.4206,-592 326.5794,-592 326.5794,-628"/>
<text text-anchor="middle" x="178" y="-605.8" font-family="Times,serif" font-size="14.00" fill="#000000">adder1 = demo.math.Addierer::__construct([100])</text>
</g>
<!-- node_142&#45;&gt;node_143 -->
<g id="edge38" class="edge">
<title>node_142&#45;&gt;node_143</title>
<path fill="none" stroke="#000000" d="M178,-663.8314C178,-656.131 178,-646.9743 178,-638.4166"/>
<polygon fill="#000000" stroke="#000000" points="181.5001,-638.4132 178,-628.4133 174.5001,-638.4133 181.5001,-638.4132"/>
</g>
<!-- node_143&#45;&gt;node_146 -->
<g id="edge40" class="edge">
<title>node_143&#45;&gt;node_146</title>
<path fill="none" stroke="#000000" d="M215.599,-591.8314C235.3497,-582.2874 259.7297,-570.5065 280.6417,-560.4013"/>
<polygon fill="#000000" stroke="#000000" points="282.1903,-563.5403 289.6714,-556.038 279.1447,-557.2376 282.1903,-563.5403"/>
</g>
<!-- node_182 -->
<g id="node46" class="node">
<title>node_182</title>
<polygon fill="none" stroke="#000000" points="2316.1205,-628 2137.8795,-628 2137.8795,-592 2316.1205,-592 2316.1205,-628"/>
<text text-anchor="middle" x="2227" y="-605.8" font-family="Times,serif" font-size="14.00" fill="#000000">transmit in1&#45;&gt;client executor</text>
</g>
<!-- node_182&#45;&gt;node_162 -->
<g id="edge57" class="edge">
<title>node_182&#45;&gt;node_162</title>
<path fill="none" stroke="#000000" stroke-dasharray="1,5" d="M2137.8779,-593.1087C2134.8869,-592.7086 2131.9214,-592.337 2129,-592 1801.3168,-554.2032 1710.5854,-609.6771 1380.5655,-555.8075"/>
<polygon fill="#000000" stroke="#000000" points="1380.668,-552.277 1370.2308,-554.0978 1379.5254,-559.1831 1380.668,-552.277"/>
</g>
<!-- node_183 -->
<g id="node47" class="node">
<title>node_183</title>
<polygon fill="none" stroke="#000000" points="2513.1205,-628 2334.8795,-628 2334.8795,-592 2513.1205,-592 2513.1205,-628"/>
<text text-anchor="middle" x="2424" y="-605.8" font-family="Times,serif" font-size="14.00" fill="#000000">transmit in2&#45;&gt;client executor</text>
</g>
<!-- node_183&#45;&gt;node_161 -->
<g id="edge55" class="edge">
<title>node_183&#45;&gt;node_161</title>
<path fill="none" stroke="#000000" stroke-dasharray="1,5" d="M2334.769,-593.1995C2331.4761,-592.7631 2328.2116,-592.3606 2325,-592 1964.8826,-551.5664 1865.6149,-614.2497 1503.2048,-555.7442"/>
<polygon fill="#000000" stroke="#000000" points="1503.6617,-552.2726 1493.2281,-554.1139 1502.5327,-559.1809 1503.6617,-552.2726"/>
</g>
<!-- node_184 -->
<g id="node48" class="node">
<title>node_184</title>
<polygon fill="none" stroke="#000000" points="2907.1205,-628 2728.8795,-628 2728.8795,-592 2907.1205,-592 2907.1205,-628"/>
<text text-anchor="middle" x="2818" y="-605.8" font-family="Times,serif" font-size="14.00" fill="#000000">transmit in4&#45;&gt;client executor</text>
</g>
<!-- node_184&#45;&gt;node_152 -->
<g id="edge48" class="edge">
<title>node_184&#45;&gt;node_152</title>
<path fill="none" stroke="#000000" stroke-dasharray="1,5" d="M2728.7649,-593.2348C2725.4732,-592.7884 2722.2101,-592.3743 2719,-592 2353.2462,-549.3569 1910.6215,-540.3807 1749.4835,-538.4976"/>
<polygon fill="#000000" stroke="#000000" points="1749.3191,-534.9956 1739.2805,-538.3835 1749.2408,-541.9952 1749.3191,-534.9956"/>
</g>
<!-- node_185 -->
<g id="node49" class="node">
<title>node_185</title>
<polygon fill="none" stroke="#000000" points="2710.1205,-628 2531.8795,-628 2531.8795,-592 2710.1205,-592 2710.1205,-628"/>
<text text-anchor="middle" x="2621" y="-605.8" font-family="Times,serif" font-size="14.00" fill="#000000">transmit in3&#45;&gt;client executor</text>
</g>
<!-- node_185&#45;&gt;node_159 -->
<g id="edge50" class="edge">
<title>node_185&#45;&gt;node_159</title>
<path fill="none" stroke="#000000" stroke-dasharray="1,5" d="M2531.7707,-593.1845C2528.4773,-592.7523 2525.2123,-592.3548 2522,-592 2129.1537,-548.6097 2021.1546,-618.845 1626.204,-555.7404"/>
<polygon fill="#000000" stroke="#000000" points="1626.6562,-552.2681 1616.2259,-554.1276 1625.5393,-559.1784 1626.6562,-552.2681"/>
</g>
</g>
</svg>
