<?xml version="1.0" encoding="UTF-8" standalone="no"?>
<!DOCTYPE svg PUBLIC "-//W3C//DTD SVG 1.1//EN"
 "http://www.w3.org/Graphics/SVG/1.1/DTD/svg11.dtd">
<!-- Generated by graphviz version 2.40.1 (20161225.0304)
 -->
<!-- Title: %3 Pages: 1 -->
<svg width="1468pt" height="996pt"
 viewBox="0.00 0.00 1467.90 996.00" xmlns="http://www.w3.org/2000/svg" xmlns:xlink="http://www.w3.org/1999/xlink">
<g id="graph0" class="graph" transform="scale(1 1) rotate(0) translate(4 992)">
<title>%3</title>
<polygon fill="#ffffff" stroke="transparent" points="-4,4 -4,-992 1463.8994,-992 1463.8994,4 -4,4"/>
<g id="clust1" class="cluster">
<title>cluster_78990265</title>
<polygon fill="none" stroke="#000000" points="181.5894,-8 181.5894,-924 1273.5894,-924 1273.5894,-8 181.5894,-8"/>
</g>
<!-- node_224 -->
<g id="node1" class="node">
<title>node_224</title>
<polygon fill="none" stroke="#000000" points="173.2682,-916 -.0894,-916 -.0894,-880 173.2682,-880 173.2682,-916"/>
<text text-anchor="middle" x="86.5894" y="-893.8" font-family="Times,serif" font-size="14.00" fill="#000000">transmit s1&#45;&gt;client executor</text>
</g>
<!-- node_199 -->
<g id="node14" class="node">
<title>node_199</title>
<polygon fill="none" stroke="#000000" points="345.2829,-844 245.8958,-844 245.8958,-808 345.2829,-808 345.2829,-844"/>
<text text-anchor="middle" x="295.5894" y="-821.8" font-family="Times,serif" font-size="14.00" fill="#000000">accept s1 &#160;as is</text>
</g>
<!-- node_224&#45;&gt;node_199 -->
<g id="edge52" class="edge">
<title>node_224&#45;&gt;node_199</title>
<path fill="none" stroke="#000000" stroke-dasharray="1,5" d="M139.0591,-879.9243C168.6277,-869.738 205.6579,-856.9812 236.2774,-846.4328"/>
<polygon fill="#000000" stroke="#000000" points="237.6613,-849.658 245.976,-843.0917 235.3812,-843.0397 237.6613,-849.658"/>
</g>
<!-- node_225 -->
<g id="node2" class="node">
<title>node_225</title>
<polygon fill="none" stroke="#000000" points="1459.7099,-772 1281.4688,-772 1281.4688,-736 1459.7099,-736 1459.7099,-772"/>
<text text-anchor="middle" x="1370.5894" y="-749.8" font-family="Times,serif" font-size="14.00" fill="#000000">transmit in4&#45;&gt;client executor</text>
</g>
<!-- node_214 -->
<g id="node29" class="node">
<title>node_214</title>
<polygon fill="none" stroke="#000000" points="1265.7248,-700 1161.454,-700 1161.454,-664 1265.7248,-664 1265.7248,-700"/>
<text text-anchor="middle" x="1213.5894" y="-677.8" font-family="Times,serif" font-size="14.00" fill="#000000">accept in4 &#160;as is</text>
</g>
<!-- node_225&#45;&gt;node_214 -->
<g id="edge51" class="edge">
<title>node_225&#45;&gt;node_214</title>
<path fill="none" stroke="#000000" stroke-dasharray="1,5" d="M1330.9716,-735.8314C1310.0671,-726.2446 1284.241,-714.4008 1262.1405,-704.2655"/>
<polygon fill="#000000" stroke="#000000" points="1263.4709,-701.0252 1252.9222,-700.038 1260.5529,-707.388 1263.4709,-701.0252"/>
</g>
<!-- node_226 -->
<g id="node3" class="node">
<title>node_226</title>
<polygon fill="none" stroke="#000000" points="1459.7099,-916 1281.4688,-916 1281.4688,-880 1459.7099,-880 1459.7099,-916"/>
<text text-anchor="middle" x="1370.5894" y="-893.8" font-family="Times,serif" font-size="14.00" fill="#000000">transmit in3&#45;&gt;client executor</text>
</g>
<!-- node_206 -->
<g id="node21" class="node">
<title>node_206</title>
<polygon fill="none" stroke="#000000" points="1265.7248,-844 1161.454,-844 1161.454,-808 1265.7248,-808 1265.7248,-844"/>
<text text-anchor="middle" x="1213.5894" y="-821.8" font-family="Times,serif" font-size="14.00" fill="#000000">accept in3 &#160;as is</text>
</g>
<!-- node_226&#45;&gt;node_206 -->
<g id="edge54" class="edge">
<title>node_226&#45;&gt;node_206</title>
<path fill="none" stroke="#000000" stroke-dasharray="1,5" d="M1330.9716,-879.8314C1310.0671,-870.2446 1284.241,-858.4008 1262.1405,-848.2655"/>
<polygon fill="#000000" stroke="#000000" points="1263.4709,-845.0252 1252.9222,-844.038 1260.5529,-851.388 1263.4709,-845.0252"/>
</g>
<!-- node_227 -->
<g id="node4" class="node">
<title>node_227</title>
<polygon fill="none" stroke="#000000" points="337.7099,-988 159.4688,-988 159.4688,-952 337.7099,-952 337.7099,-988"/>
<text text-anchor="middle" x="248.5894" y="-965.8" font-family="Times,serif" font-size="14.00" fill="#000000">transmit in1&#45;&gt;client executor</text>
</g>
<!-- node_191 -->
<g id="node44" class="node">
<title>node_191</title>
<polygon fill="none" stroke="#000000" points="300.7248,-916 196.454,-916 196.454,-880 300.7248,-880 300.7248,-916"/>
<text text-anchor="middle" x="248.5894" y="-893.8" font-family="Times,serif" font-size="14.00" fill="#000000">accept in1 &#160;as is</text>
</g>
<!-- node_227&#45;&gt;node_191 -->
<g id="edge55" class="edge">
<title>node_227&#45;&gt;node_191</title>
<path fill="none" stroke="#000000" stroke-dasharray="1,5" d="M248.5894,-951.8314C248.5894,-944.131 248.5894,-934.9743 248.5894,-926.4166"/>
<polygon fill="#000000" stroke="#000000" points="252.0895,-926.4132 248.5894,-916.4133 245.0895,-926.4133 252.0895,-926.4132"/>
</g>
<!-- node_228 -->
<g id="node5" class="node">
<title>node_228</title>
<polygon fill="none" stroke="#000000" points="533.2682,-988 359.9106,-988 359.9106,-952 533.2682,-952 533.2682,-988"/>
<text text-anchor="middle" x="446.5894" y="-965.8" font-family="Times,serif" font-size="14.00" fill="#000000">transmit s2&#45;&gt;client executor</text>
</g>
<!-- node_211 -->
<g id="node26" class="node">
<title>node_211</title>
<polygon fill="none" stroke="#000000" points="496.2829,-916 396.8958,-916 396.8958,-880 496.2829,-880 496.2829,-916"/>
<text text-anchor="middle" x="446.5894" y="-893.8" font-family="Times,serif" font-size="14.00" fill="#000000">accept s2 &#160;as is</text>
</g>
<!-- node_228&#45;&gt;node_211 -->
<g id="edge56" class="edge">
<title>node_228&#45;&gt;node_211</title>
<path fill="none" stroke="#000000" stroke-dasharray="1,5" d="M446.5894,-951.8314C446.5894,-944.131 446.5894,-934.9743 446.5894,-926.4166"/>
<polygon fill="#000000" stroke="#000000" points="450.0895,-926.4132 446.5894,-916.4133 443.0895,-926.4133 450.0895,-926.4132"/>
</g>
<!-- node_229 -->
<g id="node6" class="node">
<title>node_229</title>
<polygon fill="none" stroke="#000000" points="948.7099,-988 770.4688,-988 770.4688,-952 948.7099,-952 948.7099,-988"/>
<text text-anchor="middle" x="859.5894" y="-965.8" font-family="Times,serif" font-size="14.00" fill="#000000">transmit in2&#45;&gt;client executor</text>
</g>
<!-- node_189 -->
<g id="node42" class="node">
<title>node_189</title>
<polygon fill="none" stroke="#000000" points="911.7248,-916 807.454,-916 807.454,-880 911.7248,-880 911.7248,-916"/>
<text text-anchor="middle" x="859.5894" y="-893.8" font-family="Times,serif" font-size="14.00" fill="#000000">accept in2 &#160;as is</text>
</g>
<!-- node_229&#45;&gt;node_189 -->
<g id="edge53" class="edge">
<title>node_229&#45;&gt;node_189</title>
<path fill="none" stroke="#000000" stroke-dasharray="1,5" d="M859.5894,-951.8314C859.5894,-944.131 859.5894,-934.9743 859.5894,-926.4166"/>
<polygon fill="#000000" stroke="#000000" points="863.0895,-926.4132 859.5894,-916.4133 856.0895,-926.4133 863.0895,-926.4132"/>
</g>
<!-- node_192 -->
<g id="node7" class="node">
<title>node_192</title>
<polygon fill="none" stroke="#000000" points="1047.2927,-412 795.8861,-412 795.8861,-376 1047.2927,-376 1047.2927,-412"/>
<text text-anchor="middle" x="921.5894" y="-389.8" font-family="Times,serif" font-size="14.00" fill="#000000">a = demo.math.Addierer::__construct([n])</text>
</g>
<!-- node_197 -->
<g id="node12" class="node">
<title>node_197</title>
<polygon fill="none" stroke="#000000" points="890.1205,-196 757.0583,-196 757.0583,-160 890.1205,-160 890.1205,-196"/>
<text text-anchor="middle" x="823.5894" y="-173.8" font-family="Times,serif" font-size="14.00" fill="#000000">n = a::summier([p1])</text>
</g>
<!-- node_192&#45;&gt;node_197 -->
<g id="edge4" class="edge">
<title>node_192&#45;&gt;node_197</title>
<path fill="none" stroke="#000000" d="M916.7542,-375.8161C908.2012,-345.1005 888.8021,-281.4559 862.5894,-232 857.5528,-222.4974 851.0286,-212.7724 844.7624,-204.2408"/>
<polygon fill="#000000" stroke="#000000" points="847.4722,-202.0215 838.6468,-196.1594 841.8903,-206.2456 847.4722,-202.0215"/>
</g>
<!-- node_213 -->
<g id="node28" class="node">
<title>node_213</title>
<polygon fill="none" stroke="#000000" points="869.1134,-340 680.0653,-340 680.0653,-304 869.1134,-304 869.1134,-340"/>
<text text-anchor="middle" x="774.5894" y="-317.8" font-family="Times,serif" font-size="14.00" fill="#000000">p1 = a::summierListe([p1, p2])</text>
</g>
<!-- node_192&#45;&gt;node_213 -->
<g id="edge12" class="edge">
<title>node_192&#45;&gt;node_213</title>
<path fill="none" stroke="#000000" d="M884.495,-375.8314C865.0968,-366.3302 841.1724,-354.6121 820.6032,-344.5374"/>
<polygon fill="#000000" stroke="#000000" points="821.9371,-341.2935 811.4169,-340.038 818.858,-347.5799 821.9371,-341.2935"/>
</g>
<!-- node_193 -->
<g id="node8" class="node">
<title>node_193</title>
<polygon fill="none" stroke="#000000" points="656.3277,-340 390.851,-340 390.851,-304 656.3277,-304 656.3277,-340"/>
<text text-anchor="middle" x="523.5894" y="-317.8" font-family="Times,serif" font-size="14.00" fill="#000000">cast p2 from Arr to demo.types.NummerList</text>
</g>
<!-- node_215 -->
<g id="node30" class="node">
<title>node_215</title>
<polygon fill="none" stroke="#000000" points="853.1134,-268 664.0653,-268 664.0653,-232 853.1134,-232 853.1134,-268"/>
<text text-anchor="middle" x="758.5894" y="-245.8" font-family="Times,serif" font-size="14.00" fill="#000000">p1 = a::summierListe([p1, p2])</text>
</g>
<!-- node_193&#45;&gt;node_215 -->
<g id="edge24" class="edge">
<title>node_193&#45;&gt;node_215</title>
<path fill="none" stroke="#000000" d="M582.5864,-303.9243C615.1314,-293.9531 655.7155,-281.5188 689.7082,-271.104"/>
<polygon fill="#000000" stroke="#000000" points="691.032,-274.3591 699.568,-268.0831 688.9814,-267.6662 691.032,-274.3591"/>
</g>
<!-- node_194 -->
<g id="node9" class="node">
<title>node_194</title>
<polygon fill="none" stroke="#000000" points="757.3277,-412 491.851,-412 491.851,-376 757.3277,-376 757.3277,-412"/>
<text text-anchor="middle" x="624.5894" y="-389.8" font-family="Times,serif" font-size="14.00" fill="#000000">cast p2 from Arr to demo.types.NummerList</text>
</g>
<!-- node_194&#45;&gt;node_213 -->
<g id="edge34" class="edge">
<title>node_194&#45;&gt;node_213</title>
<path fill="none" stroke="#000000" d="M662.4407,-375.8314C682.324,-366.2874 706.8676,-354.5065 727.9199,-344.4013"/>
<polygon fill="#000000" stroke="#000000" points="729.5095,-347.5207 737.0102,-340.038 726.4804,-341.21 729.5095,-347.5207"/>
</g>
<!-- node_195 -->
<g id="node10" class="node">
<title>node_195</title>
<polygon fill="none" stroke="#000000" points="945.2927,-124 693.8861,-124 693.8861,-88 945.2927,-88 945.2927,-124"/>
<text text-anchor="middle" x="819.5894" y="-101.8" font-family="Times,serif" font-size="14.00" fill="#000000">a = demo.math.Addierer::__construct([n])</text>
</g>
<!-- node_186 -->
<g id="node39" class="node">
<title>node_186</title>
<polygon fill="none" stroke="#000000" points="841.1134,-52 652.0653,-52 652.0653,-16 841.1134,-16 841.1134,-52"/>
<text text-anchor="middle" x="746.5894" y="-29.8" font-family="Times,serif" font-size="14.00" fill="#000000">p1 = a::summierListe([p1, p2])</text>
</g>
<!-- node_195&#45;&gt;node_186 -->
<g id="edge35" class="edge">
<title>node_195&#45;&gt;node_186</title>
<path fill="none" stroke="#000000" d="M801.1684,-87.8314C792.4364,-79.219 781.8576,-68.7851 772.347,-59.4048"/>
<polygon fill="#000000" stroke="#000000" points="774.5819,-56.6931 765.0044,-52.1628 769.6664,-61.6769 774.5819,-56.6931"/>
</g>
<!-- node_196 -->
<g id="node11" class="node">
<title>node_196</title>
<polygon fill="none" stroke="#000000" points="719.3277,-556 453.851,-556 453.851,-520 719.3277,-520 719.3277,-556"/>
<text text-anchor="middle" x="586.5894" y="-533.8" font-family="Times,serif" font-size="14.00" fill="#000000">cast p2 from Arr to demo.types.NummerList</text>
</g>
<!-- node_204 -->
<g id="node19" class="node">
<title>node_204</title>
<polygon fill="none" stroke="#000000" points="1016.1134,-484 827.0653,-484 827.0653,-448 1016.1134,-448 1016.1134,-484"/>
<text text-anchor="middle" x="921.5894" y="-461.8" font-family="Times,serif" font-size="14.00" fill="#000000">p1 = a::summierListe([p1, p2])</text>
</g>
<!-- node_196&#45;&gt;node_204 -->
<g id="edge5" class="edge">
<title>node_196&#45;&gt;node_204</title>
<path fill="none" stroke="#000000" d="M670.6916,-519.9243C718.4703,-509.6554 778.4036,-496.7743 827.711,-486.1768"/>
<polygon fill="#000000" stroke="#000000" points="828.7019,-489.5439 837.7431,-484.0207 827.2309,-482.7002 828.7019,-489.5439"/>
</g>
<!-- node_197&#45;&gt;node_195 -->
<g id="edge14" class="edge">
<title>node_197&#45;&gt;node_195</title>
<path fill="none" stroke="#000000" d="M822.58,-159.8314C822.1522,-152.131 821.6435,-142.9743 821.1681,-134.4166"/>
<polygon fill="#000000" stroke="#000000" points="824.6617,-134.2037 820.6123,-124.4133 817.6725,-134.592 824.6617,-134.2037"/>
</g>
<!-- node_197&#45;&gt;node_186 -->
<g id="edge13" class="edge">
<title>node_197&#45;&gt;node_186</title>
<path fill="none" stroke="#000000" d="M890.1834,-166.6442C914.6596,-158.8953 939.9472,-145.873 954.5894,-124 963.4898,-110.7041 964.3789,-100.6556 954.5894,-88 941.1383,-70.6109 895.9899,-57.788 851.1794,-49.0124"/>
<polygon fill="#000000" stroke="#000000" points="851.8105,-45.5698 841.3336,-47.1458 850.5066,-52.4473 851.8105,-45.5698"/>
</g>
<!-- node_198 -->
<g id="node13" class="node">
<title>node_198</title>
<polygon fill="none" stroke="#000000" points="1072.3935,-916 962.7852,-916 962.7852,-880 1072.3935,-880 1072.3935,-916"/>
<text text-anchor="middle" x="1017.5894" y="-893.8" font-family="Times,serif" font-size="14.00" fill="#000000">parse Number: 1</text>
</g>
<!-- node_221 -->
<g id="node36" class="node">
<title>node_221</title>
<polygon fill="none" stroke="#000000" points="1143.2927,-844 891.8861,-844 891.8861,-808 1143.2927,-808 1143.2927,-844"/>
<text text-anchor="middle" x="1017.5894" y="-821.8" font-family="Times,serif" font-size="14.00" fill="#000000">a = demo.math.Addierer::__construct([1])</text>
</g>
<!-- node_198&#45;&gt;node_221 -->
<g id="edge36" class="edge">
<title>node_198&#45;&gt;node_221</title>
<path fill="none" stroke="#000000" d="M1017.5894,-879.8314C1017.5894,-872.131 1017.5894,-862.9743 1017.5894,-854.4166"/>
<polygon fill="#000000" stroke="#000000" points="1021.0895,-854.4132 1017.5894,-844.4133 1014.0895,-854.4133 1021.0895,-854.4132"/>
</g>
<!-- node_207 -->
<g id="node22" class="node">
<title>node_207</title>
<polygon fill="none" stroke="#000000" points="725.6411,-772 669.5376,-772 669.5376,-736 725.6411,-736 725.6411,-772"/>
<text text-anchor="middle" x="697.5894" y="-749.8" font-family="Times,serif" font-size="14.00" fill="#000000">load s1</text>
</g>
<!-- node_199&#45;&gt;node_207 -->
<g id="edge43" class="edge">
<title>node_199&#45;&gt;node_207</title>
<path fill="none" stroke="#000000" d="M345.2856,-817.0992C426.5758,-802.5397 586.2349,-773.9441 659.3652,-760.8461"/>
<polygon fill="#000000" stroke="#000000" points="660.2812,-764.2378 669.5074,-759.0296 659.047,-757.3475 660.2812,-764.2378"/>
</g>
<!-- node_200 -->
<g id="node15" class="node">
<title>node_200</title>
<polygon fill="none" stroke="#000000" points="1079.4963,-772 955.6824,-772 955.6824,-736 1079.4963,-736 1079.4963,-772"/>
<text text-anchor="middle" x="1017.5894" y="-749.8" font-family="Times,serif" font-size="14.00" fill="#000000">n = a::addier([in3])</text>
</g>
<!-- node_202 -->
<g id="node17" class="node">
<title>node_202</title>
<polygon fill="none" stroke="#000000" points="1143.2927,-700 891.8861,-700 891.8861,-664 1143.2927,-664 1143.2927,-700"/>
<text text-anchor="middle" x="1017.5894" y="-677.8" font-family="Times,serif" font-size="14.00" fill="#000000">a = demo.math.Addierer::__construct([n])</text>
</g>
<!-- node_200&#45;&gt;node_202 -->
<g id="edge1" class="edge">
<title>node_200&#45;&gt;node_202</title>
<path fill="none" stroke="#000000" d="M1017.5894,-735.8314C1017.5894,-728.131 1017.5894,-718.9743 1017.5894,-710.4166"/>
<polygon fill="#000000" stroke="#000000" points="1021.0895,-710.4132 1017.5894,-700.4133 1014.0895,-710.4133 1021.0895,-710.4132"/>
</g>
<!-- node_210 -->
<g id="node25" class="node">
<title>node_210</title>
<polygon fill="none" stroke="#000000" points="873.3925,-700 759.7862,-700 759.7862,-664 873.3925,-664 873.3925,-700"/>
<text text-anchor="middle" x="816.5894" y="-677.8" font-family="Times,serif" font-size="14.00" fill="#000000">p1 = s1::calc([n])</text>
</g>
<!-- node_200&#45;&gt;node_210 -->
<g id="edge8" class="edge">
<title>node_200&#45;&gt;node_210</title>
<path fill="none" stroke="#000000" d="M967.128,-735.9243C939.6501,-726.0815 905.4721,-713.8386 876.6305,-703.5073"/>
<polygon fill="#000000" stroke="#000000" points="877.666,-700.1605 867.0715,-700.0831 875.3054,-706.7505 877.666,-700.1605"/>
</g>
<!-- node_201 -->
<g id="node16" class="node">
<title>node_201</title>
<polygon fill="none" stroke="#000000" points="647.3277,-124 381.851,-124 381.851,-88 647.3277,-88 647.3277,-124"/>
<text text-anchor="middle" x="514.5894" y="-101.8" font-family="Times,serif" font-size="14.00" fill="#000000">cast p2 from Arr to demo.types.NummerList</text>
</g>
<!-- node_201&#45;&gt;node_186 -->
<g id="edge11" class="edge">
<title>node_201&#45;&gt;node_186</title>
<path fill="none" stroke="#000000" d="M572.8333,-87.9243C604.9627,-77.9531 645.0287,-65.5188 678.5876,-55.104"/>
<polygon fill="#000000" stroke="#000000" points="679.8082,-58.3899 688.3215,-52.0831 677.7334,-51.7045 679.8082,-58.3899"/>
</g>
<!-- node_187 -->
<g id="node40" class="node">
<title>node_187</title>
<polygon fill="none" stroke="#000000" points="1265.4963,-628 1141.6824,-628 1141.6824,-592 1265.4963,-592 1265.4963,-628"/>
<text text-anchor="middle" x="1203.5894" y="-605.8" font-family="Times,serif" font-size="14.00" fill="#000000">n = a::addier([in4])</text>
</g>
<!-- node_202&#45;&gt;node_187 -->
<g id="edge21" class="edge">
<title>node_202&#45;&gt;node_187</title>
<path fill="none" stroke="#000000" d="M1064.525,-663.8314C1089.7331,-654.0734 1120.982,-641.977 1147.4685,-631.7242"/>
<polygon fill="#000000" stroke="#000000" points="1148.929,-634.912 1156.9912,-628.038 1146.402,-628.384 1148.929,-634.912"/>
</g>
<!-- node_203 -->
<g id="node18" class="node">
<title>node_203</title>
<polygon fill="none" stroke="#000000" points="532.9961,-772 360.1826,-772 360.1826,-736 532.9961,-736 532.9961,-772"/>
<text text-anchor="middle" x="446.5894" y="-749.8" font-family="Times,serif" font-size="14.00" fill="#000000">p2 = s2::achsenabschnitt([])</text>
</g>
<!-- node_216 -->
<g id="node31" class="node">
<title>node_216</title>
<polygon fill="none" stroke="#000000" points="390.1851,-628 254.9936,-628 254.9936,-592 390.1851,-592 390.1851,-628"/>
<text text-anchor="middle" x="322.5894" y="-605.8" font-family="Times,serif" font-size="14.00" fill="#000000">p2 = s2::nullstelle([])</text>
</g>
<!-- node_203&#45;&gt;node_216 -->
<g id="edge44" class="edge">
<title>node_203&#45;&gt;node_216</title>
<path fill="none" stroke="#000000" d="M380.2824,-735.9728C362.1063,-727.8647 344.2248,-716.3141 332.5894,-700 319.9394,-682.2635 318.0543,-657.3576 318.9865,-638.2411"/>
<polygon fill="#000000" stroke="#000000" points="322.4949,-638.2651 319.7721,-628.0261 315.5155,-637.7283 322.4949,-638.2651"/>
</g>
<!-- node_217 -->
<g id="node32" class="node">
<title>node_217</title>
<polygon fill="none" stroke="#000000" points="567.9588,-700 341.2199,-700 341.2199,-664 567.9588,-664 567.9588,-700"/>
<text text-anchor="middle" x="454.5894" y="-677.8" font-family="Times,serif" font-size="14.00" fill="#000000">cast p2 from demo.types.Punkt to Arr</text>
</g>
<!-- node_203&#45;&gt;node_217 -->
<g id="edge45" class="edge">
<title>node_203&#45;&gt;node_217</title>
<path fill="none" stroke="#000000" d="M448.6081,-735.8314C449.4637,-728.131 450.4811,-718.9743 451.432,-710.4166"/>
<polygon fill="#000000" stroke="#000000" points="454.9176,-710.7386 452.5434,-700.4133 447.9604,-709.9656 454.9176,-710.7386"/>
</g>
<!-- node_204&#45;&gt;node_192 -->
<g id="edge47" class="edge">
<title>node_204&#45;&gt;node_192</title>
<path fill="none" stroke="#000000" d="M921.5894,-447.8314C921.5894,-440.131 921.5894,-430.9743 921.5894,-422.4166"/>
<polygon fill="#000000" stroke="#000000" points="925.0895,-422.4132 921.5894,-412.4133 918.0895,-422.4133 925.0895,-422.4132"/>
</g>
<!-- node_204&#45;&gt;node_213 -->
<g id="edge7" class="edge">
<title>node_204&#45;&gt;node_213</title>
<path fill="none" stroke="#000000" d="M837.5916,-447.9997C818.1739,-440.0223 799.4587,-428.5334 786.5894,-412 773.1096,-394.6824 770.7421,-369.5833 771.3873,-350.2878"/>
<polygon fill="#000000" stroke="#000000" points="774.884,-350.4473 772.0042,-340.2514 767.8972,-350.0178 774.884,-350.4473"/>
</g>
<!-- node_205 -->
<g id="node20" class="node">
<title>node_205</title>
<polygon fill="none" stroke="#000000" points="474.6411,-844 418.5376,-844 418.5376,-808 474.6411,-808 474.6411,-844"/>
<text text-anchor="middle" x="446.5894" y="-821.8" font-family="Times,serif" font-size="14.00" fill="#000000">load s2</text>
</g>
<!-- node_205&#45;&gt;node_203 -->
<g id="edge15" class="edge">
<title>node_205&#45;&gt;node_203</title>
<path fill="none" stroke="#000000" d="M446.5894,-807.8314C446.5894,-800.131 446.5894,-790.9743 446.5894,-782.4166"/>
<polygon fill="#000000" stroke="#000000" points="450.0895,-782.4132 446.5894,-772.4133 443.0895,-782.4133 450.0895,-782.4132"/>
</g>
<!-- node_206&#45;&gt;node_200 -->
<g id="edge26" class="edge">
<title>node_206&#45;&gt;node_200</title>
<path fill="none" stroke="#000000" d="M1164.3833,-807.9243C1137.7054,-798.1243 1104.5508,-785.945 1076.5041,-775.6422"/>
<polygon fill="#000000" stroke="#000000" points="1077.4093,-772.246 1066.8157,-772.0831 1074.9955,-778.8167 1077.4093,-772.246"/>
</g>
<!-- node_207&#45;&gt;node_210 -->
<g id="edge40" class="edge">
<title>node_207&#45;&gt;node_210</title>
<path fill="none" stroke="#000000" d="M725.7907,-736.937C741.3592,-727.5174 760.9242,-715.6797 777.9024,-705.4072"/>
<polygon fill="#000000" stroke="#000000" points="779.7662,-708.3704 786.5102,-700.1992 776.1425,-702.3813 779.7662,-708.3704"/>
</g>
<!-- node_208 -->
<g id="node23" class="node">
<title>node_208</title>
<polygon fill="none" stroke="#000000" points="1225.3277,-556 959.851,-556 959.851,-520 1225.3277,-520 1225.3277,-556"/>
<text text-anchor="middle" x="1092.5894" y="-533.8" font-family="Times,serif" font-size="14.00" fill="#000000">cast p1 from Arr to demo.types.NummerList</text>
</g>
<!-- node_208&#45;&gt;node_204 -->
<g id="edge50" class="edge">
<title>node_208&#45;&gt;node_204</title>
<path fill="none" stroke="#000000" d="M1049.4388,-519.8314C1026.4669,-510.159 998.0384,-498.1891 973.8261,-487.9944"/>
<polygon fill="#000000" stroke="#000000" points="975.0042,-484.6929 964.4296,-484.038 972.2877,-491.1443 975.0042,-484.6929"/>
</g>
<!-- node_209 -->
<g id="node24" class="node">
<title>node_209</title>
<polygon fill="none" stroke="#000000" points="394.82,-268 192.3587,-268 192.3587,-232 394.82,-232 394.82,-268"/>
<text text-anchor="middle" x="293.5894" y="-245.8" font-family="Times,serif" font-size="14.00" fill="#000000">bool2 = s2::liagtAufGerade([p2])</text>
</g>
<!-- node_212 -->
<g id="node27" class="node">
<title>node_212</title>
<polygon fill="none" stroke="#000000" points="921.9302,-556 737.2485,-556 737.2485,-520 921.9302,-520 921.9302,-556"/>
<text text-anchor="middle" x="829.5894" y="-533.8" font-family="Times,serif" font-size="14.00" fill="#000000">b1 = s1::liagtAufGerade([p1])</text>
</g>
<!-- node_210&#45;&gt;node_212 -->
<g id="edge28" class="edge">
<title>node_210&#45;&gt;node_212</title>
<path fill="none" stroke="#000000" d="M818.2358,-663.7623C820.4532,-639.201 824.4212,-595.2474 827.0296,-566.3541"/>
<polygon fill="#000000" stroke="#000000" points="830.5429,-566.3638 827.9563,-556.0896 823.5712,-565.7344 830.5429,-566.3638"/>
</g>
<!-- node_218 -->
<g id="node33" class="node">
<title>node_218</title>
<polygon fill="none" stroke="#000000" points="1061.9588,-628 835.2199,-628 835.2199,-592 1061.9588,-592 1061.9588,-628"/>
<text text-anchor="middle" x="948.5894" y="-605.8" font-family="Times,serif" font-size="14.00" fill="#000000">cast p1 from demo.types.Punkt to Arr</text>
</g>
<!-- node_210&#45;&gt;node_218 -->
<g id="edge31" class="edge">
<title>node_210&#45;&gt;node_218</title>
<path fill="none" stroke="#000000" d="M849.8985,-663.8314C867.0166,-654.4942 888.06,-643.016 906.3115,-633.0606"/>
<polygon fill="#000000" stroke="#000000" points="908.1879,-636.024 915.2908,-628.1628 904.8359,-629.8788 908.1879,-636.024"/>
</g>
<!-- node_210&#45;&gt;node_187 -->
<g id="edge20" class="edge">
<title>node_210&#45;&gt;node_187</title>
<path fill="none" stroke="#000000" d="M873.382,-666.1253C876.4893,-665.3774 879.5734,-664.6632 882.5894,-664 967.4622,-645.3362 1066.1938,-629.6103 1131.5115,-620.027"/>
<polygon fill="#000000" stroke="#000000" points="1132.3098,-623.4478 1141.7005,-618.5422 1131.3003,-616.5209 1132.3098,-623.4478"/>
</g>
<!-- node_211&#45;&gt;node_205 -->
<g id="edge37" class="edge">
<title>node_211&#45;&gt;node_205</title>
<path fill="none" stroke="#000000" d="M446.5894,-879.8314C446.5894,-872.131 446.5894,-862.9743 446.5894,-854.4166"/>
<polygon fill="#000000" stroke="#000000" points="450.0895,-854.4132 446.5894,-844.4133 443.0895,-854.4133 450.0895,-854.4132"/>
</g>
<!-- node_212&#45;&gt;node_204 -->
<g id="edge48" class="edge">
<title>node_212&#45;&gt;node_204</title>
<path fill="none" stroke="#000000" d="M852.8048,-519.8314C864.1364,-510.9632 877.9358,-500.1637 890.192,-490.5718"/>
<polygon fill="#000000" stroke="#000000" points="892.6633,-493.0822 898.3813,-484.1628 888.3491,-487.5697 892.6633,-493.0822"/>
</g>
<!-- node_220 -->
<g id="node35" class="node">
<title>node_220</title>
<polygon fill="none" stroke="#000000" points="427.9961,-484 255.1826,-484 255.1826,-448 427.9961,-448 427.9961,-484"/>
<text text-anchor="middle" x="341.5894" y="-461.8" font-family="Times,serif" font-size="14.00" fill="#000000">p2 = s1::achsenabschnitt([])</text>
</g>
<!-- node_212&#45;&gt;node_220 -->
<g id="edge6" class="edge">
<title>node_212&#45;&gt;node_220</title>
<path fill="none" stroke="#000000" d="M737.1446,-521.3807C734.2611,-520.9084 731.4038,-520.447 728.5894,-520 629.8448,-504.3175 516.5276,-488.7942 438.1457,-478.4446"/>
<polygon fill="#000000" stroke="#000000" points="438.1754,-474.9184 427.8039,-477.0824 437.2611,-481.8584 438.1754,-474.9184"/>
</g>
<!-- node_213&#45;&gt;node_215 -->
<g id="edge18" class="edge">
<title>node_213&#45;&gt;node_215</title>
<path fill="none" stroke="#000000" d="M770.5519,-303.8314C768.8407,-296.131 766.8059,-286.9743 764.9042,-278.4166"/>
<polygon fill="#000000" stroke="#000000" points="768.2672,-277.4159 762.6812,-268.4133 761.4339,-278.9344 768.2672,-277.4159"/>
</g>
<!-- node_214&#45;&gt;node_187 -->
<g id="edge19" class="edge">
<title>node_214&#45;&gt;node_187</title>
<path fill="none" stroke="#000000" d="M1211.0659,-663.8314C1209.9964,-656.131 1208.7247,-646.9743 1207.5361,-638.4166"/>
<polygon fill="#000000" stroke="#000000" points="1210.9892,-637.8367 1206.1468,-628.4133 1204.0558,-638.7997 1210.9892,-637.8367"/>
</g>
<!-- node_215&#45;&gt;node_197 -->
<g id="edge32" class="edge">
<title>node_215&#45;&gt;node_197</title>
<path fill="none" stroke="#000000" d="M774.9916,-231.8314C782.6309,-223.3694 791.8577,-213.1489 800.21,-203.8971"/>
<polygon fill="#000000" stroke="#000000" points="802.8632,-206.1813 806.9663,-196.4133 797.6673,-201.4906 802.8632,-206.1813"/>
</g>
<!-- node_215&#45;&gt;node_186 -->
<g id="edge29" class="edge">
<title>node_215&#45;&gt;node_186</title>
<path fill="none" stroke="#000000" d="M743.6143,-231.8047C725.5081,-208.5098 696.0392,-166.105 684.5894,-124 680.3909,-108.5607 677.9612,-102.5626 684.5894,-88 689.7634,-76.6322 698.6436,-66.7268 708.0921,-58.6122"/>
<polygon fill="#000000" stroke="#000000" points="710.4622,-61.1986 716.0936,-52.2243 706.0949,-55.7281 710.4622,-61.1986"/>
</g>
<!-- node_216&#45;&gt;node_209 -->
<g id="edge49" class="edge">
<title>node_216&#45;&gt;node_209</title>
<path fill="none" stroke="#000000" d="M254.9118,-594.231C234.3874,-586.1397 213.8007,-574.0296 200.5894,-556 176.8014,-523.5364 190.5894,-506.2462 190.5894,-466 190.5894,-466 190.5894,-466 190.5894,-394 190.5894,-352.2388 193.2482,-337.9339 217.5894,-304 226.0919,-292.1466 238.0272,-281.9464 249.9245,-273.7046"/>
<polygon fill="#000000" stroke="#000000" points="252.0929,-276.4679 258.5312,-268.0537 248.2509,-270.6164 252.0929,-276.4679"/>
</g>
<!-- node_190 -->
<g id="node43" class="node">
<title>node_190</title>
<polygon fill="none" stroke="#000000" points="435.9588,-556 209.2199,-556 209.2199,-520 435.9588,-520 435.9588,-556"/>
<text text-anchor="middle" x="322.5894" y="-533.8" font-family="Times,serif" font-size="14.00" fill="#000000">cast p2 from demo.types.Punkt to Arr</text>
</g>
<!-- node_216&#45;&gt;node_190 -->
<g id="edge42" class="edge">
<title>node_216&#45;&gt;node_190</title>
<path fill="none" stroke="#000000" d="M322.5894,-591.8314C322.5894,-584.131 322.5894,-574.9743 322.5894,-566.4166"/>
<polygon fill="#000000" stroke="#000000" points="326.0895,-566.4132 322.5894,-556.4133 319.0895,-566.4133 326.0895,-566.4132"/>
</g>
<!-- node_217&#45;&gt;node_196 -->
<g id="edge9" class="edge">
<title>node_217&#45;&gt;node_196</title>
<path fill="none" stroke="#000000" d="M471.3072,-663.7623C494.516,-638.4436 536.6144,-592.5182 563.008,-563.7251"/>
<polygon fill="#000000" stroke="#000000" points="565.83,-565.8262 570.0072,-556.0896 560.6699,-561.0961 565.83,-565.8262"/>
</g>
<!-- node_217&#45;&gt;node_216 -->
<g id="edge16" class="edge">
<title>node_217&#45;&gt;node_216</title>
<path fill="none" stroke="#000000" d="M421.2802,-663.8314C404.1621,-654.4942 383.1187,-643.016 364.8672,-633.0606"/>
<polygon fill="#000000" stroke="#000000" points="366.3428,-629.8788 355.8879,-628.1628 362.9908,-636.024 366.3428,-629.8788"/>
</g>
<!-- node_218&#45;&gt;node_204 -->
<g id="edge22" class="edge">
<title>node_218&#45;&gt;node_204</title>
<path fill="none" stroke="#000000" d="M945.1698,-591.7623C940.5443,-567.0928 932.2506,-522.8598 926.8343,-493.9731"/>
<polygon fill="#000000" stroke="#000000" points="930.2642,-493.2733 924.9812,-484.0896 923.3841,-494.5634 930.2642,-493.2733"/>
</g>
<!-- node_218&#45;&gt;node_208 -->
<g id="edge25" class="edge">
<title>node_218&#45;&gt;node_208</title>
<path fill="none" stroke="#000000" d="M984.9266,-591.8314C1003.929,-582.3302 1027.3652,-570.6121 1047.5146,-560.5374"/>
<polygon fill="#000000" stroke="#000000" points="1049.1344,-563.6407 1056.5134,-556.038 1046.0038,-557.3797 1049.1344,-563.6407"/>
</g>
<!-- node_219 -->
<g id="node34" class="node">
<title>node_219</title>
<polygon fill="none" stroke="#000000" points="596.9588,-196 370.2199,-196 370.2199,-160 596.9588,-160 596.9588,-196"/>
<text text-anchor="middle" x="483.5894" y="-173.8" font-family="Times,serif" font-size="14.00" fill="#000000">cast p2 from demo.types.Punkt to Arr</text>
</g>
<!-- node_219&#45;&gt;node_201 -->
<g id="edge33" class="edge">
<title>node_219&#45;&gt;node_201</title>
<path fill="none" stroke="#000000" d="M491.412,-159.8314C494.8003,-151.9617 498.8434,-142.5712 502.597,-133.8533"/>
<polygon fill="#000000" stroke="#000000" points="505.9215,-134.9822 506.6614,-124.4133 499.4921,-132.214 505.9215,-134.9822"/>
</g>
<!-- node_222 -->
<g id="node37" class="node">
<title>node_222</title>
<polygon fill="none" stroke="#000000" points="362.1851,-340 226.9936,-340 226.9936,-304 362.1851,-304 362.1851,-340"/>
<text text-anchor="middle" x="294.5894" y="-317.8" font-family="Times,serif" font-size="14.00" fill="#000000">p2 = s1::nullstelle([])</text>
</g>
<!-- node_220&#45;&gt;node_222 -->
<g id="edge2" class="edge">
<title>node_220&#45;&gt;node_222</title>
<path fill="none" stroke="#000000" d="M281.582,-447.8742C264.7324,-439.7105 248.3593,-428.1533 238.5894,-412 230.3089,-398.3093 232.3323,-390.7258 238.5894,-376 243.2872,-364.9437 251.4807,-355.0516 260.1737,-346.8494"/>
<polygon fill="#000000" stroke="#000000" points="262.6647,-349.3197 267.8662,-340.0896 258.044,-344.0614 262.6647,-349.3197"/>
</g>
<!-- node_188 -->
<g id="node41" class="node">
<title>node_188</title>
<polygon fill="none" stroke="#000000" points="473.9588,-412 247.2199,-412 247.2199,-376 473.9588,-376 473.9588,-412"/>
<text text-anchor="middle" x="360.5894" y="-389.8" font-family="Times,serif" font-size="14.00" fill="#000000">cast p2 from demo.types.Punkt to Arr</text>
</g>
<!-- node_220&#45;&gt;node_188 -->
<g id="edge39" class="edge">
<title>node_220&#45;&gt;node_188</title>
<path fill="none" stroke="#000000" d="M346.3839,-447.8314C348.4382,-440.0463 350.8854,-430.7729 353.1649,-422.1347"/>
<polygon fill="#000000" stroke="#000000" points="356.5628,-422.9753 355.7303,-412.4133 349.7945,-421.1892 356.5628,-422.9753"/>
</g>
<!-- node_221&#45;&gt;node_200 -->
<g id="edge10" class="edge">
<title>node_221&#45;&gt;node_200</title>
<path fill="none" stroke="#000000" d="M1017.5894,-807.8314C1017.5894,-800.131 1017.5894,-790.9743 1017.5894,-782.4166"/>
<polygon fill="#000000" stroke="#000000" points="1021.0895,-782.4132 1017.5894,-772.4133 1014.0895,-782.4133 1021.0895,-782.4132"/>
</g>
<!-- node_222&#45;&gt;node_209 -->
<g id="edge23" class="edge">
<title>node_222&#45;&gt;node_209</title>
<path fill="none" stroke="#000000" d="M294.337,-303.8314C294.2301,-296.131 294.1029,-286.9743 293.984,-278.4166"/>
<polygon fill="#000000" stroke="#000000" points="297.4837,-278.3637 293.8451,-268.4133 290.4844,-278.4609 297.4837,-278.3637"/>
</g>
<!-- node_222&#45;&gt;node_219 -->
<g id="edge27" class="edge">
<title>node_222&#45;&gt;node_219</title>
<path fill="none" stroke="#000000" d="M340.6009,-303.9523C360.9535,-294.8077 384.5375,-282.5454 403.5894,-268 427.4722,-249.7663 449.755,-223.637 464.706,-204.2258"/>
<polygon fill="#000000" stroke="#000000" points="467.611,-206.1867 470.8432,-196.097 462.0244,-201.9689 467.611,-206.1867"/>
</g>
<!-- node_223 -->
<g id="node38" class="node">
<title>node_223</title>
<polygon fill="none" stroke="#000000" points="667.5894,-916 579.5854,-898 667.5894,-880 755.5933,-898 667.5894,-916"/>
<text text-anchor="middle" x="667.5894" y="-893.8" font-family="Times,serif" font-size="14.00" fill="#000000">client executor</text>
</g>
<!-- node_187&#45;&gt;node_192 -->
<g id="edge41" class="edge">
<title>node_187&#45;&gt;node_192</title>
<path fill="none" stroke="#000000" d="M1221.7881,-591.7276C1238.3837,-572.7798 1258.1291,-542.7937 1242.5894,-520 1214.6629,-479.0374 1088.5206,-438.3404 1002.9306,-414.7095"/>
<polygon fill="#000000" stroke="#000000" points="1003.7925,-411.3168 993.2234,-412.0544 1001.9456,-418.0688 1003.7925,-411.3168"/>
</g>
<!-- node_187&#45;&gt;node_204 -->
<g id="edge46" class="edge">
<title>node_187&#45;&gt;node_204</title>
<path fill="none" stroke="#000000" d="M1219.2146,-591.8742C1234.1996,-572.2151 1252.1553,-540.8559 1234.5894,-520 1221.0067,-503.8733 1111.9336,-487.7417 1026.3175,-477.3671"/>
<polygon fill="#000000" stroke="#000000" points="1026.6111,-473.8773 1016.2656,-476.1623 1025.7779,-480.8276 1026.6111,-473.8773"/>
</g>
<!-- node_188&#45;&gt;node_193 -->
<g id="edge3" class="edge">
<title>node_188&#45;&gt;node_193</title>
<path fill="none" stroke="#000000" d="M401.7211,-375.8314C423.5214,-366.2018 450.4771,-354.295 473.4898,-344.1299"/>
<polygon fill="#000000" stroke="#000000" points="475.0202,-347.2802 482.7533,-340.038 472.1918,-340.877 475.0202,-347.2802"/>
</g>
<!-- node_188&#45;&gt;node_222 -->
<g id="edge17" class="edge">
<title>node_188&#45;&gt;node_222</title>
<path fill="none" stroke="#000000" d="M343.9348,-375.8314C336.178,-367.3694 326.8092,-357.1489 318.3284,-347.8971"/>
<polygon fill="#000000" stroke="#000000" points="320.8055,-345.4198 311.4682,-340.4133 315.6454,-350.1499 320.8055,-345.4198"/>
</g>
<!-- node_190&#45;&gt;node_194 -->
<g id="edge30" class="edge">
<title>node_190&#45;&gt;node_194</title>
<path fill="none" stroke="#000000" d="M360.868,-519.916C383.0033,-509.4466 411.3796,-496.0049 436.5894,-484 484.6284,-461.1238 539.5046,-434.8352 577.5156,-416.6012"/>
<polygon fill="#000000" stroke="#000000" points="579.2996,-419.6273 586.8016,-412.1459 576.2716,-413.316 579.2996,-419.6273"/>
</g>
<!-- node_190&#45;&gt;node_220 -->
<g id="edge38" class="edge">
<title>node_190&#45;&gt;node_220</title>
<path fill="none" stroke="#000000" d="M327.3839,-519.8314C329.4382,-512.0463 331.8854,-502.7729 334.1649,-494.1347"/>
<polygon fill="#000000" stroke="#000000" points="337.5628,-494.9753 336.7303,-484.4133 330.7945,-493.1892 337.5628,-494.9753"/>
</g>
</g>
</svg>
