<?xml version="1.0" encoding="UTF-8" standalone="no"?>
<!DOCTYPE svg PUBLIC "-//W3C//DTD SVG 1.1//EN"
 "http://www.w3.org/Graphics/SVG/1.1/DTD/svg11.dtd">
<!-- Generated by graphviz version 2.40.1 (20161225.0304)
 -->
<!-- Title: %3 Pages: 1 -->
<svg width="1647pt" height="508pt"
 viewBox="0.00 0.00 1647.47 508.00" xmlns="http://www.w3.org/2000/svg" xmlns:xlink="http://www.w3.org/1999/xlink">
<g id="graph0" class="graph" transform="scale(1 1) rotate(0) translate(4 504)">
<title>%3</title>
<polygon fill="#ffffff" stroke="transparent" points="-4,4 -4,-504 1643.4722,-504 1643.4722,4 -4,4"/>
<g id="clust1" class="cluster">
<title>cluster_2142633124</title>
<polygon fill="none" stroke="#000000" points="58,-80 58,-420 364,-420 364,-80 58,-80"/>
</g>
<g id="clust2" class="cluster">
<title>cluster_1077979749</title>
<polygon fill="none" stroke="#000000" points="372,-8 372,-132 1588,-132 1588,-8 372,-8"/>
</g>
<g id="clust3" class="cluster">
<title>cluster_534114233</title>
<polygon fill="none" stroke="#000000" points="773,-152 773,-492 1465,-492 1465,-152 773,-152"/>
</g>
<!-- node_208 -->
<g id="node1" class="node">
<title>node_208</title>
<polygon fill="none" stroke="#000000" points="244.9607,-412 183.0393,-412 183.0393,-376 244.9607,-376 244.9607,-412"/>
<text text-anchor="middle" x="214" y="-389.8" font-family="Times,serif" font-size="14.00" fill="#000000">accept e</text>
</g>
<!-- node_211 -->
<g id="node4" class="node">
<title>node_211</title>
<polygon fill="none" stroke="#000000" points="120,-340 66,-340 66,-304 120,-304 120,-340"/>
<text text-anchor="middle" x="93" y="-317.8" font-family="Times,serif" font-size="14.00" fill="#000000">load e</text>
</g>
<!-- node_208&#45;&gt;node_211 -->
<g id="edge2" class="edge">
<title>node_208&#45;&gt;node_211</title>
<path fill="none" stroke="#000000" d="M183.4666,-375.8314C166.8928,-365.9692 146.3048,-353.7186 128.9581,-343.3965"/>
<polygon fill="#000000" stroke="#000000" points="130.6042,-340.3033 120.2207,-338.1975 127.0246,-346.3189 130.6042,-340.3033"/>
</g>
<!-- node_209 -->
<g id="node2" class="node">
<title>node_209</title>
<polygon fill="none" stroke="#000000" points="338.9073,-412 279.0927,-412 279.0927,-376 338.9073,-376 338.9073,-412"/>
<text text-anchor="middle" x="309" y="-389.8" font-family="Times,serif" font-size="14.00" fill="#000000">accept f</text>
</g>
<!-- node_207 -->
<g id="node8" class="node">
<title>node_207</title>
<polygon fill="none" stroke="#000000" points="355.5313,-340 138.4687,-340 138.4687,-304 355.5313,-304 355.5313,-340"/>
<text text-anchor="middle" x="247" y="-317.8" font-family="Times,serif" font-size="14.00" fill="#000000">cast f from Arr to demo.types.Punkt</text>
</g>
<!-- node_209&#45;&gt;node_207 -->
<g id="edge6" class="edge">
<title>node_209&#45;&gt;node_207</title>
<path fill="none" stroke="#000000" d="M293.3548,-375.8314C286.1409,-367.454 277.443,-357.3531 269.5395,-348.1749"/>
<polygon fill="#000000" stroke="#000000" points="272.0333,-345.7071 262.8559,-340.4133 266.7289,-350.2748 272.0333,-345.7071"/>
</g>
<!-- node_210 -->
<g id="node3" class="node">
<title>node_210</title>
<polygon fill="none" stroke="#000000" points="356.0971,-124 165.9029,-124 165.9029,-88 356.0971,-88 356.0971,-124"/>
<text text-anchor="middle" x="261" y="-101.8" font-family="Times,serif" font-size="14.00" fill="#000000">FinishNode &amp;finished&amp;exec_2</text>
</g>
<!-- node_203 -->
<g id="node19" class="node">
<title>node_203</title>
<polygon fill="none" stroke="#000000" points="815.5039,-124 654.4961,-124 654.4961,-88 815.5039,-88 815.5039,-124"/>
<text text-anchor="middle" x="735" y="-101.8" font-family="Times,serif" font-size="14.00" fill="#000000">accept &amp;finished&amp;exec_2</text>
</g>
<!-- node_210&#45;&gt;node_203 -->
<g id="edge30" class="edge">
<title>node_210&#45;&gt;node_203</title>
<path fill="none" stroke="#000000" stroke-dasharray="1,5" d="M307.9339,-124.0927C328.7524,-131.1923 353.7543,-138.4758 377,-142 433.9053,-150.6272 579.3174,-151.9861 636,-142 652.5562,-139.0832 669.987,-133.6196 685.5296,-127.8141"/>
<polygon fill="#000000" stroke="#000000" points="686.8743,-131.0468 694.9384,-124.1749 684.3491,-124.5181 686.8743,-131.0468"/>
</g>
<!-- node_212 -->
<g id="node5" class="node">
<title>node_212</title>
<polygon fill="none" stroke="#000000" points="328.2688,-268 165.7312,-268 165.7312,-232 328.2688,-232 328.2688,-268"/>
<text text-anchor="middle" x="247" y="-245.8" font-family="Times,serif" font-size="14.00" fill="#000000">d = e::liagtAufGerade([f])</text>
</g>
<!-- node_211&#45;&gt;node_212 -->
<g id="edge1" class="edge">
<title>node_211&#45;&gt;node_212</title>
<path fill="none" stroke="#000000" d="M120.0776,-308.3362C123.0809,-306.8579 126.1007,-305.3877 129,-304 151.3929,-293.2819 176.3713,-281.7856 197.5603,-272.167"/>
<polygon fill="#000000" stroke="#000000" points="199.0321,-275.3428 206.6975,-268.0289 196.1442,-268.9662 199.0321,-275.3428"/>
</g>
<!-- node_206 -->
<g id="node7" class="node">
<title>node_206</title>
<polygon fill="none" stroke="#000000" points="344.7307,-196 177.2693,-196 177.2693,-160 344.7307,-160 344.7307,-196"/>
<text text-anchor="middle" x="261" y="-173.8" font-family="Times,serif" font-size="14.00" fill="#000000">transmit d&#45;&gt;client executor</text>
</g>
<!-- node_212&#45;&gt;node_206 -->
<g id="edge5" class="edge">
<title>node_212&#45;&gt;node_206</title>
<path fill="none" stroke="#000000" d="M250.5328,-231.8314C252.0301,-224.131 253.8105,-214.9743 255.4745,-206.4166"/>
<polygon fill="#000000" stroke="#000000" points="258.9465,-206.8975 257.4196,-196.4133 252.0752,-205.5614 258.9465,-206.8975"/>
</g>
<!-- node_213 -->
<g id="node6" class="node">
<title>node_213</title>
<polygon fill="none" stroke="#000000" points="116,-412 66.0871,-394 116,-376 165.9129,-394 116,-412"/>
<text text-anchor="middle" x="116" y="-389.8" font-family="Times,serif" font-size="14.00" fill="#000000">exec_2</text>
</g>
<!-- node_206&#45;&gt;node_210 -->
<g id="edge3" class="edge">
<title>node_206&#45;&gt;node_210</title>
<path fill="none" stroke="#000000" d="M261,-159.8314C261,-152.131 261,-142.9743 261,-134.4166"/>
<polygon fill="#000000" stroke="#000000" points="264.5001,-134.4132 261,-124.4133 257.5001,-134.4133 264.5001,-134.4132"/>
</g>
<!-- node_197 -->
<g id="node13" class="node">
<title>node_197</title>
<polygon fill="none" stroke="#000000" points="636.2456,-124 573.7544,-124 573.7544,-88 636.2456,-88 636.2456,-124"/>
<text text-anchor="middle" x="605" y="-101.8" font-family="Times,serif" font-size="14.00" fill="#000000">accept d</text>
</g>
<!-- node_206&#45;&gt;node_197 -->
<g id="edge28" class="edge">
<title>node_206&#45;&gt;node_197</title>
<path fill="none" stroke="#000000" stroke-dasharray="1,5" d="M331.1418,-159.993C344.3234,-157.0159 358.0361,-154.1909 371,-152 456.4673,-137.5561 483.2699,-160.8698 565,-132 567.3917,-131.1552 569.7836,-130.1404 572.1415,-129.0084"/>
<polygon fill="#000000" stroke="#000000" points="573.8957,-132.0383 580.9942,-124.1731 570.5402,-125.895 573.8957,-132.0383"/>
</g>
<!-- node_207&#45;&gt;node_212 -->
<g id="edge4" class="edge">
<title>node_207&#45;&gt;node_212</title>
<path fill="none" stroke="#000000" d="M247,-303.8314C247,-296.131 247,-286.9743 247,-278.4166"/>
<polygon fill="#000000" stroke="#000000" points="250.5001,-278.4132 247,-268.4133 243.5001,-278.4133 250.5001,-278.4132"/>
</g>
<!-- node_193 -->
<g id="node9" class="node">
<title>node_193</title>
<polygon fill="none" stroke="#000000" points="973.2456,-124 910.7544,-124 910.7544,-88 973.2456,-88 973.2456,-124"/>
<text text-anchor="middle" x="942" y="-101.8" font-family="Times,serif" font-size="14.00" fill="#000000">accept b</text>
</g>
<!-- node_199 -->
<g id="node15" class="node">
<title>node_199</title>
<polygon fill="none" stroke="#000000" points="754.0827,-52 629.9173,-52 629.9173,-16 754.0827,-16 754.0827,-52"/>
<text text-anchor="middle" x="692" y="-29.8" font-family="Times,serif" font-size="14.00" fill="#000000">transmit b&#45;&gt;exec_1</text>
</g>
<!-- node_193&#45;&gt;node_199 -->
<g id="edge7" class="edge">
<title>node_193&#45;&gt;node_199</title>
<path fill="none" stroke="#000000" d="M916.9396,-87.7779C912.145,-84.8582 907.0434,-82.1086 902,-80 858.1003,-61.6457 805.8438,-50.1641 764.4411,-43.2619"/>
<polygon fill="#000000" stroke="#000000" points="764.8619,-39.7846 754.432,-41.6467 763.7467,-46.6952 764.8619,-39.7846"/>
</g>
<!-- node_194 -->
<g id="node10" class="node">
<title>node_194</title>
<polygon fill="none" stroke="#000000" points="1237.7961,-52 1114.2039,-52 1114.2039,-16 1237.7961,-16 1237.7961,-52"/>
<text text-anchor="middle" x="1176" y="-29.8" font-family="Times,serif" font-size="14.00" fill="#000000">transmit e&#45;&gt;exec_2</text>
</g>
<!-- node_194&#45;&gt;node_208 -->
<g id="edge33" class="edge">
<title>node_194&#45;&gt;node_208</title>
<path fill="none" stroke="#000000" stroke-dasharray="1,5" d="M1113.9815,-36.735C893.3958,-46.4708 159.8087,-78.9202 157,-80 93.0479,-104.5855 38,-109.4849 38,-178 38,-250 38,-250 38,-250 38,-290.8816 29.3927,-309.8479 57,-340 92.0022,-378.2286 120.4922,-358.8955 173.6108,-375.9288"/>
<polygon fill="#000000" stroke="#000000" points="172.4883,-379.2441 183.0831,-379.2683 174.8158,-372.6424 172.4883,-379.2441"/>
</g>
<!-- node_195 -->
<g id="node11" class="node">
<title>node_195</title>
<polygon fill="none" stroke="#000000" points="1500.5381,-124 1423.4619,-124 1423.4619,-88 1500.5381,-88 1500.5381,-124"/>
<text text-anchor="middle" x="1462" y="-101.8" font-family="Times,serif" font-size="14.00" fill="#000000">send graph</text>
</g>
<!-- node_196 -->
<g id="node12" class="node">
<title>node_196</title>
<polygon fill="none" stroke="#000000" points="1405.5381,-124 1328.4619,-124 1328.4619,-88 1405.5381,-88 1405.5381,-124"/>
<text text-anchor="middle" x="1367" y="-101.8" font-family="Times,serif" font-size="14.00" fill="#000000">send graph</text>
</g>
<!-- node_198 -->
<g id="node14" class="node">
<title>node_198</title>
<polygon fill="none" stroke="#000000" points="1052.9607,-124 991.0393,-124 991.0393,-88 1052.9607,-88 1052.9607,-124"/>
<text text-anchor="middle" x="1022" y="-101.8" font-family="Times,serif" font-size="14.00" fill="#000000">accept c</text>
</g>
<!-- node_184 -->
<g id="node30" class="node">
<title>node_184</title>
<polygon fill="none" stroke="#000000" points="892.2456,-484 829.7544,-484 829.7544,-448 892.2456,-448 892.2456,-484"/>
<text text-anchor="middle" x="861" y="-461.8" font-family="Times,serif" font-size="14.00" fill="#000000">accept b</text>
</g>
<!-- node_199&#45;&gt;node_184 -->
<g id="edge24" class="edge">
<title>node_199&#45;&gt;node_184</title>
<path fill="none" stroke="#000000" stroke-dasharray="1,5" d="M629.904,-35.1363C478.9743,-38.3682 101.7244,-49.4389 54,-80 12.1207,-106.8181 0,-128.2699 0,-178 0,-322 0,-322 0,-322 0,-371.7301 11.9203,-393.4975 54,-420 86.6464,-440.5612 658.8945,-459.7471 819.4319,-464.7433"/>
<polygon fill="#000000" stroke="#000000" points="819.7308,-468.2541 829.8343,-465.0651 819.9473,-461.2575 819.7308,-468.2541"/>
</g>
<!-- node_200 -->
<g id="node16" class="node">
<title>node_200</title>
<polygon fill="none" stroke="#000000" points="1231.5039,-124 1070.4961,-124 1070.4961,-88 1231.5039,-88 1231.5039,-124"/>
<text text-anchor="middle" x="1151" y="-101.8" font-family="Times,serif" font-size="14.00" fill="#000000">accept &amp;finished&amp;exec_1</text>
</g>
<!-- node_201 -->
<g id="node17" class="node">
<title>node_201</title>
<polygon fill="none" stroke="#000000" points="892.9073,-124 833.0927,-124 833.0927,-88 892.9073,-88 892.9073,-124"/>
<text text-anchor="middle" x="863" y="-101.8" font-family="Times,serif" font-size="14.00" fill="#000000">accept f</text>
</g>
<!-- node_202 -->
<g id="node18" class="node">
<title>node_202</title>
<polygon fill="none" stroke="#000000" points="1579.9607,-124 1518.0393,-124 1518.0393,-88 1579.9607,-88 1579.9607,-124"/>
<text text-anchor="middle" x="1549" y="-101.8" font-family="Times,serif" font-size="14.00" fill="#000000">accept e</text>
</g>
<!-- node_202&#45;&gt;node_194 -->
<g id="edge8" class="edge">
<title>node_202&#45;&gt;node_194</title>
<path fill="none" stroke="#000000" d="M1525.5882,-87.9672C1520.6556,-84.8787 1515.3262,-82.0196 1510,-80 1463.5025,-62.3689 1331.5915,-47.8778 1248.1323,-40.1256"/>
<polygon fill="#000000" stroke="#000000" points="1248.2299,-36.6199 1237.9518,-39.191 1247.59,-43.5906 1248.2299,-36.6199"/>
</g>
<!-- node_204 -->
<g id="node20" class="node">
<title>node_204</title>
<polygon fill="none" stroke="#000000" points="1310.9607,-124 1249.0393,-124 1249.0393,-88 1310.9607,-88 1310.9607,-124"/>
<text text-anchor="middle" x="1280" y="-101.8" font-family="Times,serif" font-size="14.00" fill="#000000">accept a</text>
</g>
<!-- node_205 -->
<g id="node21" class="node">
<title>node_205</title>
<polygon fill="none" stroke="#000000" points="468,-124 379.9961,-106 468,-88 556.0039,-106 468,-124"/>
<text text-anchor="middle" x="468" y="-101.8" font-family="Times,serif" font-size="14.00" fill="#000000">client executor</text>
</g>
<!-- node_214 -->
<g id="node22" class="node">
<title>node_214</title>
<polygon fill="none" stroke="#000000" points="580.7307,-196 413.2693,-196 413.2693,-160 580.7307,-160 580.7307,-196"/>
<text text-anchor="middle" x="497" y="-173.8" font-family="Times,serif" font-size="14.00" fill="#000000">transmit b&#45;&gt;client executor</text>
</g>
<!-- node_214&#45;&gt;node_193 -->
<g id="edge31" class="edge">
<title>node_214&#45;&gt;node_193</title>
<path fill="none" stroke="#000000" stroke-dasharray="1,5" d="M554.6198,-159.8822C566.2345,-156.8007 578.4304,-153.9659 590,-152 726.9877,-128.723 770.1111,-175.7352 902,-132 904.5648,-131.1495 907.1256,-130.0935 909.6417,-128.8982"/>
<polygon fill="#000000" stroke="#000000" points="911.3796,-131.9371 918.4848,-124.078 908.0293,-125.7909 911.3796,-131.9371"/>
</g>
<!-- node_215 -->
<g id="node23" class="node">
<title>node_215</title>
<polygon fill="none" stroke="#000000" points="765.4443,-196 598.5557,-196 598.5557,-160 765.4443,-160 765.4443,-196"/>
<text text-anchor="middle" x="682" y="-173.8" font-family="Times,serif" font-size="14.00" fill="#000000">transmit c&#45;&gt;client executor</text>
</g>
<!-- node_215&#45;&gt;node_198 -->
<g id="edge34" class="edge">
<title>node_215&#45;&gt;node_198</title>
<path fill="none" stroke="#000000" stroke-dasharray="1,5" d="M736.3542,-159.9711C747.0807,-156.9214 758.3226,-154.0758 769,-152 862.3357,-133.8549 892.2025,-163.2603 982,-132 984.3955,-131.1661 986.7903,-130.1596 989.1503,-129.0337"/>
<polygon fill="#000000" stroke="#000000" points="990.8981,-132.0674 998.008,-124.2125 987.5515,-125.9191 990.8981,-132.0674"/>
</g>
<!-- node_216 -->
<g id="node24" class="node">
<title>node_216</title>
<polygon fill="none" stroke="#000000" points="1639.4443,-196 1472.5557,-196 1472.5557,-160 1639.4443,-160 1639.4443,-196"/>
<text text-anchor="middle" x="1556" y="-173.8" font-family="Times,serif" font-size="14.00" fill="#000000">transmit e&#45;&gt;client executor</text>
</g>
<!-- node_216&#45;&gt;node_202 -->
<g id="edge26" class="edge">
<title>node_216&#45;&gt;node_202</title>
<path fill="none" stroke="#000000" stroke-dasharray="1,5" d="M1554.2336,-159.8314C1553.485,-152.131 1552.5947,-142.9743 1551.7627,-134.4166"/>
<polygon fill="#000000" stroke="#000000" points="1555.2415,-134.0276 1550.7902,-124.4133 1548.2744,-134.7051 1555.2415,-134.0276"/>
</g>
<!-- node_192 -->
<g id="node25" class="node">
<title>node_192</title>
<polygon fill="none" stroke="#000000" points="1407,-484 1357.0871,-466 1407,-448 1456.9129,-466 1407,-484"/>
<text text-anchor="middle" x="1407" y="-461.8" font-family="Times,serif" font-size="14.00" fill="#000000">exec_1</text>
</g>
<!-- node_180 -->
<g id="node26" class="node">
<title>node_180</title>
<polygon fill="none" stroke="#000000" points="1456.7033,-412 1191.2967,-412 1191.2967,-376 1456.7033,-376 1456.7033,-412"/>
<text text-anchor="middle" x="1324" y="-389.8" font-family="Times,serif" font-size="14.00" fill="#000000">a = demo.math.Addierer::__construct([100])</text>
</g>
<!-- node_182 -->
<g id="node28" class="node">
<title>node_182</title>
<polygon fill="none" stroke="#000000" points="1179.5176,-340 1060.4824,-340 1060.4824,-304 1179.5176,-304 1179.5176,-340"/>
<text text-anchor="middle" x="1120" y="-317.8" font-family="Times,serif" font-size="14.00" fill="#000000">d = a::addier([20])</text>
</g>
<!-- node_180&#45;&gt;node_182 -->
<g id="edge9" class="edge">
<title>node_180&#45;&gt;node_182</title>
<path fill="none" stroke="#000000" d="M1272.7855,-375.9243C1244.8975,-366.0815 1210.2094,-353.8386 1180.9373,-343.5073"/>
<polygon fill="#000000" stroke="#000000" points="1181.8304,-340.1109 1171.2356,-340.0831 1179.5006,-346.7119 1181.8304,-340.1109"/>
</g>
<!-- node_188 -->
<g id="node34" class="node">
<title>node_188</title>
<polygon fill="none" stroke="#000000" points="1221,-268 1167,-268 1167,-232 1221,-232 1221,-268"/>
<text text-anchor="middle" x="1194" y="-245.8" font-family="Times,serif" font-size="14.00" fill="#000000">store a</text>
</g>
<!-- node_180&#45;&gt;node_188 -->
<g id="edge12" class="edge">
<title>node_180&#45;&gt;node_188</title>
<path fill="none" stroke="#000000" d="M1258.2715,-375.9543C1239.7542,-367.821 1221.3225,-356.261 1209,-340 1195.7424,-322.505 1192.4424,-297.5792 1192.2045,-278.3935"/>
<polygon fill="#000000" stroke="#000000" points="1195.7078,-278.1853 1192.3546,-268.1351 1188.7086,-278.0828 1195.7078,-278.1853"/>
</g>
<!-- node_190 -->
<g id="node36" class="node">
<title>node_190</title>
<polygon fill="none" stroke="#000000" points="1008.172,-340 869.828,-340 869.828,-304 1008.172,-304 1008.172,-340"/>
<text text-anchor="middle" x="939" y="-317.8" font-family="Times,serif" font-size="14.00" fill="#000000">f = a::addierListe([b])</text>
</g>
<!-- node_180&#45;&gt;node_190 -->
<g id="edge13" class="edge">
<title>node_180&#45;&gt;node_190</title>
<path fill="none" stroke="#000000" d="M1227.3452,-375.9243C1162.7802,-363.8498 1078.9022,-348.1635 1018.2728,-336.825"/>
<polygon fill="#000000" stroke="#000000" points="1018.8436,-333.3712 1008.3706,-334.9732 1017.5568,-340.2519 1018.8436,-333.3712"/>
</g>
<!-- node_191 -->
<g id="node37" class="node">
<title>node_191</title>
<polygon fill="none" stroke="#000000" points="1384.4443,-340 1217.5557,-340 1217.5557,-304 1384.4443,-304 1384.4443,-340"/>
<text text-anchor="middle" x="1301" y="-317.8" font-family="Times,serif" font-size="14.00" fill="#000000">transmit a&#45;&gt;client executor</text>
</g>
<!-- node_180&#45;&gt;node_191 -->
<g id="edge14" class="edge">
<title>node_180&#45;&gt;node_191</title>
<path fill="none" stroke="#000000" d="M1318.1961,-375.8314C1315.7092,-368.0463 1312.7469,-358.7729 1309.9875,-350.1347"/>
<polygon fill="#000000" stroke="#000000" points="1313.2591,-348.874 1306.882,-340.4133 1306.591,-351.0041 1313.2591,-348.874"/>
</g>
<!-- node_181 -->
<g id="node27" class="node">
<title>node_181</title>
<polygon fill="none" stroke="#000000" points="1239.0971,-196 1048.9029,-196 1048.9029,-160 1239.0971,-160 1239.0971,-196"/>
<text text-anchor="middle" x="1144" y="-173.8" font-family="Times,serif" font-size="14.00" fill="#000000">FinishNode &amp;finished&amp;exec_1</text>
</g>
<!-- node_181&#45;&gt;node_200 -->
<g id="edge27" class="edge">
<title>node_181&#45;&gt;node_200</title>
<path fill="none" stroke="#000000" stroke-dasharray="1,5" d="M1145.7664,-159.8314C1146.515,-152.131 1147.4053,-142.9743 1148.2373,-134.4166"/>
<polygon fill="#000000" stroke="#000000" points="1151.7256,-134.7051 1149.2098,-124.4133 1144.7585,-134.0276 1151.7256,-134.7051"/>
</g>
<!-- node_182&#45;&gt;node_181 -->
<g id="edge23" class="edge">
<title>node_182&#45;&gt;node_181</title>
<path fill="none" stroke="#000000" d="M1123.0396,-303.7623C1127.1512,-279.0928 1134.5234,-234.8598 1139.3378,-205.9731"/>
<polygon fill="#000000" stroke="#000000" points="1142.7934,-206.529 1140.9851,-196.0896 1135.8886,-205.3781 1142.7934,-206.529"/>
</g>
<!-- node_183 -->
<g id="node29" class="node">
<title>node_183</title>
<polygon fill="none" stroke="#000000" points="1097.893,-268 932.107,-268 932.107,-232 1097.893,-232 1097.893,-268"/>
<text text-anchor="middle" x="1015" y="-245.8" font-family="Times,serif" font-size="14.00" fill="#000000">transmit f&#45;&gt;client executor</text>
</g>
<!-- node_183&#45;&gt;node_201 -->
<g id="edge25" class="edge">
<title>node_183&#45;&gt;node_201</title>
<path fill="none" stroke="#000000" stroke-dasharray="1,5" d="M931.8313,-233.2484C928.8551,-232.8018 925.9043,-232.3833 923,-232 865.6918,-224.4358 443.4349,-238.265 404,-196 390.6591,-181.7017 390.5042,-166.1521 404,-152 436.319,-118.1092 780.6025,-146.8984 825,-132 827.2167,-131.2562 829.4229,-130.3429 831.5921,-129.3086"/>
<polygon fill="#000000" stroke="#000000" points="833.7763,-132.0963 840.7832,-124.1493 830.3498,-125.9922 833.7763,-132.0963"/>
</g>
<!-- node_183&#45;&gt;node_181 -->
<g id="edge22" class="edge">
<title>node_183&#45;&gt;node_181</title>
<path fill="none" stroke="#000000" d="M1047.5521,-231.8314C1064.2048,-222.5368 1084.6585,-211.1208 1102.4385,-201.1971"/>
<polygon fill="#000000" stroke="#000000" points="1104.4321,-204.0927 1111.4583,-196.1628 1101.0205,-197.9803 1104.4321,-204.0927"/>
</g>
<!-- node_187 -->
<g id="node33" class="node">
<title>node_187</title>
<polygon fill="none" stroke="#000000" points="1039.2384,-412 780.7616,-412 780.7616,-376 1039.2384,-376 1039.2384,-412"/>
<text text-anchor="middle" x="910" y="-389.8" font-family="Times,serif" font-size="14.00" fill="#000000">cast b from Arr to demo.types.NummerList</text>
</g>
<!-- node_184&#45;&gt;node_187 -->
<g id="edge10" class="edge">
<title>node_184&#45;&gt;node_187</title>
<path fill="none" stroke="#000000" d="M873.3648,-447.8314C878.9509,-439.6232 885.663,-429.7606 891.8072,-420.7323"/>
<polygon fill="#000000" stroke="#000000" points="894.736,-422.6496 897.4687,-412.4133 888.949,-418.7112 894.736,-422.6496"/>
</g>
<!-- node_185 -->
<g id="node31" class="node">
<title>node_185</title>
<polygon fill="none" stroke="#000000" points="914.2444,-268 791.7556,-268 791.7556,-232 914.2444,-232 914.2444,-268"/>
<text text-anchor="middle" x="853" y="-245.8" font-family="Times,serif" font-size="14.00" fill="#000000">transmit f&#45;&gt;exec_2</text>
</g>
<!-- node_185&#45;&gt;node_209 -->
<g id="edge29" class="edge">
<title>node_185&#45;&gt;node_209</title>
<path fill="none" stroke="#000000" stroke-dasharray="1,5" d="M791.4663,-266.2883C678.8632,-296.095 442.605,-358.634 348.707,-383.4893"/>
<polygon fill="#000000" stroke="#000000" points="347.7941,-380.1103 339.0227,-386.0528 349.5854,-386.8773 347.7941,-380.1103"/>
</g>
<!-- node_185&#45;&gt;node_181 -->
<g id="edge20" class="edge">
<title>node_185&#45;&gt;node_181</title>
<path fill="none" stroke="#000000" d="M914.4495,-234.1541C917.3392,-233.423 920.2006,-232.7019 923,-232 968.0438,-220.706 1018.3288,-208.3957 1059.5395,-198.3849"/>
<polygon fill="#000000" stroke="#000000" points="1060.3765,-201.7835 1069.2687,-196.0233 1058.7252,-194.981 1060.3765,-201.7835"/>
</g>
<!-- node_186 -->
<g id="node32" class="node">
<title>node_186</title>
<polygon fill="none" stroke="#000000" points="1173.3041,-412 1056.6959,-412 1056.6959,-376 1173.3041,-376 1173.3041,-412"/>
<text text-anchor="middle" x="1115" y="-389.8" font-family="Times,serif" font-size="14.00" fill="#000000">parse Number: 20</text>
</g>
<!-- node_186&#45;&gt;node_182 -->
<g id="edge21" class="edge">
<title>node_186&#45;&gt;node_182</title>
<path fill="none" stroke="#000000" d="M1116.2617,-375.8314C1116.7965,-368.131 1117.4323,-358.9743 1118.0266,-350.4166"/>
<polygon fill="#000000" stroke="#000000" points="1121.52,-350.6317 1118.7213,-340.4133 1114.5368,-350.1467 1121.52,-350.6317"/>
</g>
<!-- node_187&#45;&gt;node_190 -->
<g id="edge11" class="edge">
<title>node_187&#45;&gt;node_190</title>
<path fill="none" stroke="#000000" d="M917.3179,-375.8314C920.4876,-367.9617 924.27,-358.5712 927.7813,-349.8533"/>
<polygon fill="#000000" stroke="#000000" points="931.0939,-350.9968 931.5835,-340.4133 924.6008,-348.3815 931.0939,-350.9968"/>
</g>
<!-- node_188&#45;&gt;node_181 -->
<g id="edge17" class="edge">
<title>node_188&#45;&gt;node_181</title>
<path fill="none" stroke="#000000" d="M1181.3829,-231.8314C1175.6828,-223.6232 1168.8337,-213.7606 1162.5641,-204.7323"/>
<polygon fill="#000000" stroke="#000000" points="1165.3658,-202.6306 1156.787,-196.4133 1159.6162,-206.6234 1165.3658,-202.6306"/>
</g>
<!-- node_189 -->
<g id="node35" class="node">
<title>node_189</title>
<polygon fill="none" stroke="#000000" points="1339.8041,-484 1216.1959,-484 1216.1959,-448 1339.8041,-448 1339.8041,-484"/>
<text text-anchor="middle" x="1278" y="-461.8" font-family="Times,serif" font-size="14.00" fill="#000000">parse Number: 100</text>
</g>
<!-- node_189&#45;&gt;node_180 -->
<g id="edge16" class="edge">
<title>node_189&#45;&gt;node_180</title>
<path fill="none" stroke="#000000" d="M1289.6077,-447.8314C1294.7978,-439.7079 1301.0232,-429.9637 1306.7425,-421.0118"/>
<polygon fill="#000000" stroke="#000000" points="1309.8015,-422.7246 1312.236,-412.4133 1303.9026,-418.9559 1309.8015,-422.7246"/>
</g>
<!-- node_190&#45;&gt;node_183 -->
<g id="edge18" class="edge">
<title>node_190&#45;&gt;node_183</title>
<path fill="none" stroke="#000000" d="M958.178,-303.8314C967.3588,-295.1337 978.5006,-284.5783 988.4776,-275.1265"/>
<polygon fill="#000000" stroke="#000000" points="990.9757,-277.5811 995.8281,-268.1628 986.1615,-272.4995 990.9757,-277.5811"/>
</g>
<!-- node_190&#45;&gt;node_185 -->
<g id="edge19" class="edge">
<title>node_190&#45;&gt;node_185</title>
<path fill="none" stroke="#000000" d="M917.2986,-303.8314C906.8079,-295.0485 894.0545,-284.3712 882.6806,-274.8489"/>
<polygon fill="#000000" stroke="#000000" points="884.6089,-271.8986 874.6945,-268.1628 880.1153,-277.2659 884.6089,-271.8986"/>
</g>
<!-- node_191&#45;&gt;node_204 -->
<g id="edge32" class="edge">
<title>node_191&#45;&gt;node_204</title>
<path fill="none" stroke="#000000" stroke-dasharray="1,5" d="M1299.2457,-303.9555C1295.5861,-266.3144 1287.1154,-179.1867 1282.7343,-134.1246"/>
<polygon fill="#000000" stroke="#000000" points="1286.2154,-133.7594 1281.7641,-124.1451 1279.2483,-134.4369 1286.2154,-133.7594"/>
</g>
<!-- node_191&#45;&gt;node_181 -->
<g id="edge15" class="edge">
<title>node_191&#45;&gt;node_181</title>
<path fill="none" stroke="#000000" d="M1289.4901,-303.9338C1276.5918,-284.6113 1254.283,-253.8091 1230,-232 1217.1828,-220.4886 1201.6199,-209.8972 1187.2751,-201.2008"/>
<polygon fill="#000000" stroke="#000000" points="1188.9265,-198.1113 1178.5362,-196.0396 1185.3668,-204.1386 1188.9265,-198.1113"/>
</g>
</g>
</svg>
