<?xml version="1.0" encoding="UTF-8" standalone="no"?>
<!DOCTYPE svg PUBLIC "-//W3C//DTD SVG 1.1//EN"
 "http://www.w3.org/Graphics/SVG/1.1/DTD/svg11.dtd">
<!-- Generated by graphviz version 2.40.1 (20161225.0304)
 -->
<!-- Title: %3 Pages: 1 -->
<svg width="3130pt" height="724pt"
 viewBox="0.00 0.00 3130.25 724.00" xmlns="http://www.w3.org/2000/svg" xmlns:xlink="http://www.w3.org/1999/xlink">
<g id="graph0" class="graph" transform="scale(1 1) rotate(0) translate(4 720)">
<title>%3</title>
<polygon fill="#ffffff" stroke="transparent" points="-4,4 -4,-720 3126.2506,-720 3126.2506,4 -4,4"/>
<g id="clust1" class="cluster">
<title>cluster_370440646</title>
<polygon fill="none" stroke="#000000" points="531.2506,-368 531.2506,-564 1528.2506,-564 1528.2506,-368 531.2506,-368"/>
</g>
<g id="clust2" class="cluster">
<title>cluster_1966250569</title>
<polygon fill="none" stroke="#000000" points="2696.2506,-224 2696.2506,-708 3114.2506,-708 3114.2506,-224 2696.2506,-224"/>
</g>
<g id="clust3" class="cluster">
<title>cluster_1125381564</title>
<polygon fill="none" stroke="#000000" points="94.2506,-8 94.2506,-420 523.2506,-420 523.2506,-8 94.2506,-8"/>
</g>
<!-- node_112 -->
<g id="node1" class="node">
<title>node_112</title>
<polygon fill="none" stroke="#000000" points="2491.3711,-556 2313.1301,-556 2313.1301,-520 2491.3711,-520 2491.3711,-556"/>
<text text-anchor="middle" x="2402.2506" y="-533.8" font-family="Times,serif" font-size="14.00" fill="#000000">transmit in3&#45;&gt;client executor</text>
</g>
<!-- node_88 -->
<g id="node11" class="node">
<title>node_88</title>
<polygon fill="none" stroke="#000000" points="1428.8855,-484 1355.6157,-484 1355.6157,-448 1428.8855,-448 1428.8855,-484"/>
<text text-anchor="middle" x="1392.2506" y="-461.8" font-family="Times,serif" font-size="14.00" fill="#000000">accept in3</text>
</g>
<!-- node_112&#45;&gt;node_88 -->
<g id="edge47" class="edge">
<title>node_112&#45;&gt;node_88</title>
<path fill="none" stroke="#000000" stroke-dasharray="1,5" d="M2313.0206,-521.1903C2309.7274,-520.7565 2306.4626,-520.357 2303.2506,-520 1923.6588,-477.8067 1815.7659,-563.2083 1438.8257,-483.9422"/>
<polygon fill="#000000" stroke="#000000" points="1439.5288,-480.5135 1429.0194,-481.8558 1438.0721,-487.3602 1439.5288,-480.5135"/>
</g>
<!-- node_113 -->
<g id="node2" class="node">
<title>node_113</title>
<polygon fill="none" stroke="#000000" points="2688.3711,-556 2510.1301,-556 2510.1301,-520 2688.3711,-520 2688.3711,-556"/>
<text text-anchor="middle" x="2599.2506" y="-533.8" font-family="Times,serif" font-size="14.00" fill="#000000">transmit in1&#45;&gt;client executor</text>
</g>
<!-- node_91 -->
<g id="node14" class="node">
<title>node_91</title>
<polygon fill="none" stroke="#000000" points="1519.8855,-484 1446.6157,-484 1446.6157,-448 1519.8855,-448 1519.8855,-484"/>
<text text-anchor="middle" x="1483.2506" y="-461.8" font-family="Times,serif" font-size="14.00" fill="#000000">accept in1</text>
</g>
<!-- node_113&#45;&gt;node_91 -->
<g id="edge48" class="edge">
<title>node_113&#45;&gt;node_91</title>
<path fill="none" stroke="#000000" stroke-dasharray="1,5" d="M2510.0152,-521.238C2506.7235,-520.7907 2503.4605,-520.3755 2500.2506,-520 2128.0442,-476.4594 1675.0533,-468.0007 1530.169,-466.3788"/>
<polygon fill="#000000" stroke="#000000" points="1529.9134,-462.876 1519.8768,-466.2695 1529.839,-469.8756 1529.9134,-462.876"/>
</g>
<!-- node_96 -->
<g id="node3" class="node">
<title>node_96</title>
<polygon fill="none" stroke="#000000" points="1391.2506,-556 1303.2467,-538 1391.2506,-520 1479.2545,-538 1391.2506,-556"/>
<text text-anchor="middle" x="1391.2506" y="-533.8" font-family="Times,serif" font-size="14.00" fill="#000000">client executor</text>
</g>
<!-- node_81 -->
<g id="node4" class="node">
<title>node_81</title>
<polygon fill="none" stroke="#000000" points="1337.8855,-484 1264.6157,-484 1264.6157,-448 1337.8855,-448 1337.8855,-484"/>
<text text-anchor="middle" x="1301.2506" y="-461.8" font-family="Times,serif" font-size="14.00" fill="#000000">accept in2</text>
</g>
<!-- node_82 -->
<g id="node5" class="node">
<title>node_82</title>
<polygon fill="none" stroke="#000000" points="1490.2231,-412 1354.2781,-412 1354.2781,-376 1490.2231,-376 1490.2231,-412"/>
<text text-anchor="middle" x="1422.2506" y="-389.8" font-family="Times,serif" font-size="14.00" fill="#000000">transmit in3&#45;&gt;exec_1</text>
</g>
<!-- node_74 -->
<g id="node27" class="node">
<title>node_74</title>
<polygon fill="none" stroke="#000000" points="2783.8855,-628 2710.6157,-628 2710.6157,-592 2783.8855,-592 2783.8855,-628"/>
<text text-anchor="middle" x="2747.2506" y="-605.8" font-family="Times,serif" font-size="14.00" fill="#000000">accept in3</text>
</g>
<!-- node_82&#45;&gt;node_74 -->
<g id="edge57" class="edge">
<title>node_82&#45;&gt;node_74</title>
<path fill="none" stroke="#000000" stroke-dasharray="1,5" d="M1490.201,-397.0453C1739.6536,-408.7208 2595.7487,-453.3394 2697.2506,-520 2718.9493,-534.2504 2732.1204,-561.2986 2739.4559,-582.037"/>
<polygon fill="#000000" stroke="#000000" points="2736.1587,-583.2151 2742.5999,-591.6271 2742.8104,-581.0344 2736.1587,-583.2151"/>
</g>
<!-- node_83 -->
<g id="node6" class="node">
<title>node_83</title>
<polygon fill="none" stroke="#000000" points="1246.8855,-484 1173.6157,-484 1173.6157,-448 1246.8855,-448 1246.8855,-484"/>
<text text-anchor="middle" x="1210.2506" y="-461.8" font-family="Times,serif" font-size="14.00" fill="#000000">accept in4</text>
</g>
<!-- node_87 -->
<g id="node10" class="node">
<title>node_87</title>
<polygon fill="none" stroke="#000000" points="1307.2231,-412 1171.2781,-412 1171.2781,-376 1307.2231,-376 1307.2231,-412"/>
<text text-anchor="middle" x="1239.2506" y="-389.8" font-family="Times,serif" font-size="14.00" fill="#000000">transmit in4&#45;&gt;exec_1</text>
</g>
<!-- node_83&#45;&gt;node_87 -->
<g id="edge4" class="edge">
<title>node_83&#45;&gt;node_87</title>
<path fill="none" stroke="#000000" d="M1217.5685,-447.8314C1220.7382,-439.9617 1224.5205,-430.5712 1228.0319,-421.8533"/>
<polygon fill="#000000" stroke="#000000" points="1231.3445,-422.9968 1231.8341,-412.4133 1224.8514,-420.3815 1231.3445,-422.9968"/>
</g>
<!-- node_84 -->
<g id="node7" class="node">
<title>node_84</title>
<polygon fill="none" stroke="#000000" points="984.7545,-484 823.7467,-484 823.7467,-448 984.7545,-448 984.7545,-484"/>
<text text-anchor="middle" x="904.2506" y="-461.8" font-family="Times,serif" font-size="14.00" fill="#000000">accept &amp;finished&amp;exec_1</text>
</g>
<!-- node_85 -->
<g id="node8" class="node">
<title>node_85</title>
<polygon fill="none" stroke="#000000" points="1076.2809,-412 946.2203,-412 946.2203,-376 1076.2809,-376 1076.2809,-412"/>
<text text-anchor="middle" x="1011.2506" y="-389.8" font-family="Times,serif" font-size="14.00" fill="#000000">transmit s1&#45;&gt;exec_2</text>
</g>
<!-- node_100 -->
<g id="node37" class="node">
<title>node_100</title>
<polygon fill="none" stroke="#000000" points="430.9446,-412 363.5565,-412 363.5565,-376 430.9446,-376 430.9446,-412"/>
<text text-anchor="middle" x="397.2506" y="-389.8" font-family="Times,serif" font-size="14.00" fill="#000000">accept s1</text>
</g>
<!-- node_85&#45;&gt;node_100 -->
<g id="edge53" class="edge">
<title>node_85&#45;&gt;node_100</title>
<path fill="none" stroke="#000000" stroke-dasharray="1,5" d="M946.0697,-408.6846C854.295,-427.2734 681.9102,-454.5414 536.2506,-434 503.4751,-429.3779 467.6004,-418.911 440.5073,-409.8436"/>
<polygon fill="#000000" stroke="#000000" points="441.5395,-406.4977 430.945,-406.5797 439.2782,-413.1224 441.5395,-406.4977"/>
</g>
<!-- node_86 -->
<g id="node9" class="node">
<title>node_86</title>
<polygon fill="none" stroke="#000000" points="1112.7887,-556 1035.7125,-556 1035.7125,-520 1112.7887,-520 1112.7887,-556"/>
<text text-anchor="middle" x="1074.2506" y="-533.8" font-family="Times,serif" font-size="14.00" fill="#000000">send graph</text>
</g>
<!-- node_86&#45;&gt;node_81 -->
<g id="edge17" class="edge">
<title>node_86&#45;&gt;node_81</title>
<path fill="none" stroke="#000000" d="M1112.8644,-522.8424C1115.6905,-521.8467 1118.5074,-520.8883 1121.2506,-520 1177.327,-501.8407 1195.483,-503.3486 1254.6811,-484.3325"/>
<polygon fill="#000000" stroke="#000000" points="1256.1345,-487.5393 1264.5465,-481.0981 1253.9538,-480.8877 1256.1345,-487.5393"/>
</g>
<!-- node_86&#45;&gt;node_83 -->
<g id="edge19" class="edge">
<title>node_86&#45;&gt;node_83</title>
<path fill="none" stroke="#000000" d="M1108.5691,-519.8314C1126.2865,-510.4516 1148.0851,-498.9112 1166.949,-488.9244"/>
<polygon fill="#000000" stroke="#000000" points="1168.7428,-491.935 1175.943,-484.1628 1165.4675,-485.7485 1168.7428,-491.935"/>
</g>
<!-- node_86&#45;&gt;node_84 -->
<g id="edge20" class="edge">
<title>node_86&#45;&gt;node_84</title>
<path fill="none" stroke="#000000" d="M1035.675,-521.6621C1012.1179,-511.685 981.6984,-498.8014 956.0589,-487.9423"/>
<polygon fill="#000000" stroke="#000000" points="957.4237,-484.7195 946.8506,-484.0423 954.6938,-491.1652 957.4237,-484.7195"/>
</g>
<!-- node_86&#45;&gt;node_88 -->
<g id="edge1" class="edge">
<title>node_86&#45;&gt;node_88</title>
<path fill="none" stroke="#000000" d="M1113.0278,-522.436C1115.7899,-521.5479 1118.5499,-520.7238 1121.2506,-520 1216.4241,-494.4926 1247.2802,-510.0107 1345.8845,-484.0587"/>
<polygon fill="#000000" stroke="#000000" points="1346.906,-487.4083 1355.6428,-481.415 1345.0755,-480.6518 1346.906,-487.4083"/>
</g>
<!-- node_86&#45;&gt;node_91 -->
<g id="edge6" class="edge">
<title>node_86&#45;&gt;node_91</title>
<path fill="none" stroke="#000000" d="M1112.9921,-522.2963C1115.7627,-521.4416 1118.5343,-520.663 1121.2506,-520 1255.7722,-487.1639 1298.7425,-517.1636 1436.5883,-484.0501"/>
<polygon fill="#000000" stroke="#000000" points="1437.8121,-487.353 1446.6797,-481.5551 1436.132,-480.5576 1437.8121,-487.353"/>
</g>
<!-- node_92 -->
<g id="node15" class="node">
<title>node_92</title>
<polygon fill="none" stroke="#000000" points="1069.9446,-484 1002.5565,-484 1002.5565,-448 1069.9446,-448 1069.9446,-484"/>
<text text-anchor="middle" x="1036.2506" y="-461.8" font-family="Times,serif" font-size="14.00" fill="#000000">accept s2</text>
</g>
<!-- node_86&#45;&gt;node_92 -->
<g id="edge8" class="edge">
<title>node_86&#45;&gt;node_92</title>
<path fill="none" stroke="#000000" d="M1064.6616,-519.8314C1060.4188,-511.7925 1055.3385,-502.1666 1050.6546,-493.2918"/>
<polygon fill="#000000" stroke="#000000" points="1053.7317,-491.6235 1045.9687,-484.4133 1047.541,-494.8908 1053.7317,-491.6235"/>
</g>
<!-- node_93 -->
<g id="node16" class="node">
<title>node_93</title>
<polygon fill="none" stroke="#000000" points="805.8855,-484 718.6157,-484 718.6157,-448 805.8855,-448 805.8855,-484"/>
<text text-anchor="middle" x="762.2506" y="-461.8" font-family="Times,serif" font-size="14.00" fill="#000000">accept bool1</text>
</g>
<!-- node_86&#45;&gt;node_93 -->
<g id="edge10" class="edge">
<title>node_86&#45;&gt;node_93</title>
<path fill="none" stroke="#000000" d="M1035.5553,-531.5669C986.383,-523.0418 898.8011,-506.6888 815.9199,-484.309"/>
<polygon fill="#000000" stroke="#000000" points="816.6691,-480.8854 806.0999,-481.6225 814.8219,-487.6373 816.6691,-480.8854"/>
</g>
<!-- node_94 -->
<g id="node17" class="node">
<title>node_94</title>
<polygon fill="none" stroke="#000000" points="700.7545,-484 539.7467,-484 539.7467,-448 700.7545,-448 700.7545,-484"/>
<text text-anchor="middle" x="620.2506" y="-461.8" font-family="Times,serif" font-size="14.00" fill="#000000">accept &amp;finished&amp;exec_2</text>
</g>
<!-- node_86&#45;&gt;node_94 -->
<g id="edge11" class="edge">
<title>node_86&#45;&gt;node_94</title>
<path fill="none" stroke="#000000" d="M1035.5158,-532.9521C970.5029,-524.3312 835.1045,-505.7427 711.2575,-484.3119"/>
<polygon fill="#000000" stroke="#000000" points="711.6749,-480.832 701.2227,-482.5647 710.4741,-487.7282 711.6749,-480.832"/>
</g>
<!-- node_95 -->
<g id="node18" class="node">
<title>node_95</title>
<polygon fill="none" stroke="#000000" points="1155.9446,-484 1088.5565,-484 1088.5565,-448 1155.9446,-448 1155.9446,-484"/>
<text text-anchor="middle" x="1122.2506" y="-461.8" font-family="Times,serif" font-size="14.00" fill="#000000">accept s1</text>
</g>
<!-- node_86&#45;&gt;node_95 -->
<g id="edge12" class="edge">
<title>node_86&#45;&gt;node_95</title>
<path fill="none" stroke="#000000" d="M1086.363,-519.8314C1091.7787,-511.7079 1098.2748,-501.9637 1104.2427,-493.0118"/>
<polygon fill="#000000" stroke="#000000" points="1107.3402,-494.6753 1109.9751,-484.4133 1101.5159,-490.7923 1107.3402,-494.6753"/>
</g>
<!-- node_76 -->
<g id="node29" class="node">
<title>node_76</title>
<polygon fill="none" stroke="#000000" points="2777.8855,-484 2704.6157,-484 2704.6157,-448 2777.8855,-448 2777.8855,-484"/>
<text text-anchor="middle" x="2741.2506" y="-461.8" font-family="Times,serif" font-size="14.00" fill="#000000">accept in4</text>
</g>
<!-- node_87&#45;&gt;node_76 -->
<g id="edge55" class="edge">
<title>node_87&#45;&gt;node_76</title>
<path fill="none" stroke="#000000" stroke-dasharray="1,5" d="M1303.5838,-412.0388C1317.2388,-415.2302 1331.6413,-418.1274 1345.2506,-420 1614.5654,-457.0565 2482.991,-464.4883 2694.488,-465.7625"/>
<polygon fill="#000000" stroke="#000000" points="2694.6113,-469.2632 2704.6317,-465.8219 2694.6524,-462.2633 2694.6113,-469.2632"/>
</g>
<!-- node_88&#45;&gt;node_82 -->
<g id="edge15" class="edge">
<title>node_88&#45;&gt;node_82</title>
<path fill="none" stroke="#000000" d="M1399.8209,-447.8314C1403.0999,-439.9617 1407.0126,-430.5712 1410.6451,-421.8533"/>
<polygon fill="#000000" stroke="#000000" points="1413.963,-422.9902 1414.5784,-412.4133 1407.5014,-420.2979 1413.963,-422.9902"/>
</g>
<!-- node_89 -->
<g id="node12" class="node">
<title>node_89</title>
<polygon fill="none" stroke="#000000" points="1207.7887,-556 1130.7125,-556 1130.7125,-520 1207.7887,-520 1207.7887,-556"/>
<text text-anchor="middle" x="1169.2506" y="-533.8" font-family="Times,serif" font-size="14.00" fill="#000000">send graph</text>
</g>
<!-- node_89&#45;&gt;node_81 -->
<g id="edge14" class="edge">
<title>node_89&#45;&gt;node_81</title>
<path fill="none" stroke="#000000" d="M1202.5598,-519.8314C1219.6779,-510.4942 1240.7212,-499.016 1258.9728,-489.0606"/>
<polygon fill="#000000" stroke="#000000" points="1260.8491,-492.024 1267.9521,-484.1628 1257.4971,-485.8788 1260.8491,-492.024"/>
</g>
<!-- node_89&#45;&gt;node_83 -->
<g id="edge16" class="edge">
<title>node_89&#45;&gt;node_83</title>
<path fill="none" stroke="#000000" d="M1179.5966,-519.8314C1184.1743,-511.7925 1189.6557,-502.1666 1194.7094,-493.2918"/>
<polygon fill="#000000" stroke="#000000" points="1197.8583,-494.8351 1199.7653,-484.4133 1191.7754,-491.3712 1197.8583,-494.8351"/>
</g>
<!-- node_89&#45;&gt;node_84 -->
<g id="edge18" class="edge">
<title>node_89&#45;&gt;node_84</title>
<path fill="none" stroke="#000000" d="M1130.6546,-522.7868C1127.8243,-521.8042 1125.0016,-520.8639 1122.2506,-520 1080.841,-506.9959 1034.2249,-495.0908 994.7598,-485.7877"/>
<polygon fill="#000000" stroke="#000000" points="995.4221,-482.3483 984.8879,-483.4795 993.8283,-489.1644 995.4221,-482.3483"/>
</g>
<!-- node_89&#45;&gt;node_88 -->
<g id="edge22" class="edge">
<title>node_89&#45;&gt;node_88</title>
<path fill="none" stroke="#000000" d="M1208.1026,-527.2559C1242.318,-517.5626 1293.6426,-502.4622 1346.0609,-484.2988"/>
<polygon fill="#000000" stroke="#000000" points="1347.2267,-487.599 1355.5111,-480.9945 1344.9163,-480.9913 1347.2267,-487.599"/>
</g>
<!-- node_89&#45;&gt;node_91 -->
<g id="edge2" class="edge">
<title>node_89&#45;&gt;node_91</title>
<path fill="none" stroke="#000000" d="M1208.1006,-532.4825C1258.9799,-524.761 1350.9474,-509.1022 1436.9613,-484.1374"/>
<polygon fill="#000000" stroke="#000000" points="1438.0068,-487.4782 1446.6071,-481.2905 1436.0253,-480.7645 1438.0068,-487.4782"/>
</g>
<!-- node_89&#45;&gt;node_92 -->
<g id="edge3" class="edge">
<title>node_89&#45;&gt;node_92</title>
<path fill="none" stroke="#000000" d="M1135.6891,-519.8314C1118.3625,-510.4516 1097.0448,-498.9112 1078.597,-488.9244"/>
<polygon fill="#000000" stroke="#000000" points="1080.2617,-485.8457 1069.8014,-484.1628 1076.9292,-492.0015 1080.2617,-485.8457"/>
</g>
<!-- node_89&#45;&gt;node_93 -->
<g id="edge5" class="edge">
<title>node_89&#45;&gt;node_93</title>
<path fill="none" stroke="#000000" d="M1130.5066,-522.3066C1127.7366,-521.4493 1124.9658,-520.6675 1122.2506,-520 991.5513,-487.87 950.5214,-513.4602 815.8872,-484.1122"/>
<polygon fill="#000000" stroke="#000000" points="816.5527,-480.6746 806.0293,-481.9026 815.0217,-487.5051 816.5527,-480.6746"/>
</g>
<!-- node_89&#45;&gt;node_94 -->
<g id="edge7" class="edge">
<title>node_89&#45;&gt;node_94</title>
<path fill="none" stroke="#000000" d="M1130.5285,-522.2147C1127.7532,-521.3794 1124.9753,-520.6275 1122.2506,-520 945.855,-479.3772 893.4505,-509.2138 711.1039,-484.1698"/>
<polygon fill="#000000" stroke="#000000" points="711.5804,-480.7024 701.1897,-482.772 710.6031,-487.6339 711.5804,-480.7024"/>
</g>
<!-- node_89&#45;&gt;node_95 -->
<g id="edge9" class="edge">
<title>node_89&#45;&gt;node_95</title>
<path fill="none" stroke="#000000" d="M1157.3905,-519.8314C1152.0877,-511.7079 1145.7269,-501.9637 1139.8833,-493.0118"/>
<polygon fill="#000000" stroke="#000000" points="1142.6675,-490.8739 1134.2704,-484.4133 1136.8058,-494.7003 1142.6675,-490.8739"/>
</g>
<!-- node_90 -->
<g id="node13" class="node">
<title>node_90</title>
<polygon fill="none" stroke="#000000" points="775.2809,-412 645.2203,-412 645.2203,-376 775.2809,-376 775.2809,-412"/>
<text text-anchor="middle" x="710.2506" y="-389.8" font-family="Times,serif" font-size="14.00" fill="#000000">transmit s2&#45;&gt;exec_2</text>
</g>
<!-- node_104 -->
<g id="node41" class="node">
<title>node_104</title>
<polygon fill="none" stroke="#000000" points="427.9446,-340 360.5565,-340 360.5565,-304 427.9446,-304 427.9446,-340"/>
<text text-anchor="middle" x="394.2506" y="-317.8" font-family="Times,serif" font-size="14.00" fill="#000000">accept s2</text>
</g>
<!-- node_90&#45;&gt;node_104 -->
<g id="edge51" class="edge">
<title>node_90&#45;&gt;node_104</title>
<path fill="none" stroke="#000000" stroke-dasharray="1,5" d="M645.0803,-385.1089C591.26,-376.8726 512.942,-362.8291 437.5962,-340.1248"/>
<polygon fill="#000000" stroke="#000000" points="438.5339,-336.7516 427.9471,-337.1639 436.4804,-343.4436 438.5339,-336.7516"/>
</g>
<!-- node_92&#45;&gt;node_90 -->
<g id="edge21" class="edge">
<title>node_92&#45;&gt;node_90</title>
<path fill="none" stroke="#000000" d="M1002.0961,-450.6455C999.4655,-449.6838 996.8302,-448.7878 994.2506,-448 924.9696,-426.8422 843.5338,-412.3769 785.6718,-403.783"/>
<polygon fill="#000000" stroke="#000000" points="785.9132,-400.2812 775.5122,-402.2984 784.901,-407.2077 785.9132,-400.2812"/>
</g>
<!-- node_95&#45;&gt;node_85 -->
<g id="edge13" class="edge">
<title>node_95&#45;&gt;node_85</title>
<path fill="none" stroke="#000000" d="M1094.2406,-447.8314C1080.1745,-438.7074 1062.9566,-427.539 1047.8572,-417.7449"/>
<polygon fill="#000000" stroke="#000000" points="1049.5459,-414.6684 1039.2516,-412.1628 1045.7366,-420.5412 1049.5459,-414.6684"/>
</g>
<!-- node_114 -->
<g id="node19" class="node">
<title>node_114</title>
<polygon fill="none" stroke="#000000" points="1709.9294,-556 1536.5718,-556 1536.5718,-520 1709.9294,-520 1709.9294,-556"/>
<text text-anchor="middle" x="1623.2506" y="-533.8" font-family="Times,serif" font-size="14.00" fill="#000000">transmit s2&#45;&gt;client executor</text>
</g>
<!-- node_114&#45;&gt;node_92 -->
<g id="edge49" class="edge">
<title>node_114&#45;&gt;node_92</title>
<path fill="none" stroke="#000000" stroke-dasharray="1,5" d="M1536.5899,-520.6192C1535.1337,-520.405 1533.6864,-520.1984 1532.2506,-520 1335.4067,-492.8037 1277.3945,-530.3439 1079.9993,-483.711"/>
<polygon fill="#000000" stroke="#000000" points="1080.7288,-480.2867 1070.1876,-481.3515 1079.092,-487.0927 1080.7288,-480.2867"/>
</g>
<!-- node_115 -->
<g id="node20" class="node">
<title>node_115</title>
<polygon fill="none" stroke="#000000" points="1900.9294,-556 1727.5718,-556 1727.5718,-520 1900.9294,-520 1900.9294,-556"/>
<text text-anchor="middle" x="1814.2506" y="-533.8" font-family="Times,serif" font-size="14.00" fill="#000000">transmit s1&#45;&gt;client executor</text>
</g>
<!-- node_115&#45;&gt;node_95 -->
<g id="edge50" class="edge">
<title>node_115&#45;&gt;node_95</title>
<path fill="none" stroke="#000000" stroke-dasharray="1,5" d="M1727.5987,-521.1287C1724.7867,-520.7261 1721.9984,-520.3481 1719.2506,-520 1477.3782,-489.3583 1406.581,-540.093 1166.3933,-484.1061"/>
<polygon fill="#000000" stroke="#000000" points="1166.8443,-480.6161 1156.3067,-481.7159 1165.2302,-487.4275 1166.8443,-480.6161"/>
</g>
<!-- node_80 -->
<g id="node21" class="node">
<title>node_80</title>
<polygon fill="none" stroke="#000000" points="3056.2506,-700 3006.3377,-682 3056.2506,-664 3106.1635,-682 3056.2506,-700"/>
<text text-anchor="middle" x="3056.2506" y="-677.8" font-family="Times,serif" font-size="14.00" fill="#000000">exec_1</text>
</g>
<!-- node_69 -->
<g id="node22" class="node">
<title>node_69</title>
<polygon fill="none" stroke="#000000" points="2894.3477,-268 2704.1535,-268 2704.1535,-232 2894.3477,-232 2894.3477,-268"/>
<text text-anchor="middle" x="2799.2506" y="-245.8" font-family="Times,serif" font-size="14.00" fill="#000000">FinishNode &amp;finished&amp;exec_1</text>
</g>
<!-- node_69&#45;&gt;node_84 -->
<g id="edge52" class="edge">
<title>node_69&#45;&gt;node_84</title>
<path fill="none" stroke="#000000" stroke-dasharray="1,5" d="M2703.8503,-250.0882C2228.5357,-250.7498 136.9437,-256.3668 90.2506,-304 54.1604,-340.8168 54.5057,-382.8479 90.2506,-420 116.9417,-447.7419 717.4676,-443.6654 813.2766,-448.3384"/>
<polygon fill="#000000" stroke="#000000" points="813.1088,-451.8353 823.3337,-449.0601 813.6099,-444.8532 813.1088,-451.8353"/>
</g>
<!-- node_70 -->
<g id="node23" class="node">
<title>node_70</title>
<polygon fill="none" stroke="#000000" points="3015.8333,-412 2884.6679,-412 2884.6679,-376 3015.8333,-376 3015.8333,-412"/>
<text text-anchor="middle" x="2950.2506" y="-389.8" font-family="Times,serif" font-size="14.00" fill="#000000">transmit n1&#45;&gt;exec_2</text>
</g>
<!-- node_70&#45;&gt;node_69 -->
<g id="edge32" class="edge">
<title>node_70&#45;&gt;node_69</title>
<path fill="none" stroke="#000000" d="M2932.6366,-375.7449C2914.718,-357.3277 2885.9989,-328.2286 2860.2506,-304 2849.9083,-294.2681 2838.2951,-283.8633 2827.9989,-274.8105"/>
<polygon fill="#000000" stroke="#000000" points="2830.2559,-272.1347 2820.4249,-268.1848 2825.647,-277.4033 2830.2559,-272.1347"/>
</g>
<!-- node_97 -->
<g id="node34" class="node">
<title>node_97</title>
<polygon fill="none" stroke="#000000" points="514.9961,-340 445.505,-340 445.505,-304 514.9961,-304 514.9961,-340"/>
<text text-anchor="middle" x="480.2506" y="-317.8" font-family="Times,serif" font-size="14.00" fill="#000000">accept n1</text>
</g>
<!-- node_70&#45;&gt;node_97 -->
<g id="edge59" class="edge">
<title>node_70&#45;&gt;node_97</title>
<path fill="none" stroke="#000000" stroke-dasharray="1,5" d="M2905.651,-375.9759C2895.7925,-372.7178 2885.2902,-369.7901 2875.2506,-368 2755.1962,-346.5934 844.0909,-325.7926 525.2026,-322.4624"/>
<polygon fill="#000000" stroke="#000000" points="524.9939,-318.9601 514.9579,-322.3557 524.9209,-325.9598 524.9939,-318.9601"/>
</g>
<!-- node_71 -->
<g id="node24" class="node">
<title>node_71</title>
<polygon fill="none" stroke="#000000" points="2989.0547,-700 2865.4465,-700 2865.4465,-664 2989.0547,-664 2989.0547,-700"/>
<text text-anchor="middle" x="2927.2506" y="-677.8" font-family="Times,serif" font-size="14.00" fill="#000000">parse Number: 100</text>
</g>
<!-- node_72 -->
<g id="node25" class="node">
<title>node_72</title>
<polygon fill="none" stroke="#000000" points="3101.83,-628 2804.6712,-628 2804.6712,-592 3101.83,-592 3101.83,-628"/>
<text text-anchor="middle" x="2953.2506" y="-605.8" font-family="Times,serif" font-size="14.00" fill="#000000">adder1 = demo.math.Addierer::__construct([100])</text>
</g>
<!-- node_71&#45;&gt;node_72 -->
<g id="edge23" class="edge">
<title>node_71&#45;&gt;node_72</title>
<path fill="none" stroke="#000000" d="M2933.8115,-663.8314C2936.6533,-655.9617 2940.0443,-646.5712 2943.1925,-637.8533"/>
<polygon fill="#000000" stroke="#000000" points="2946.4968,-639.0076 2946.6014,-628.4133 2939.9129,-636.63 2946.4968,-639.0076"/>
</g>
<!-- node_73 -->
<g id="node26" class="node">
<title>node_73</title>
<polygon fill="none" stroke="#000000" points="3040.5331,-556 2877.9681,-556 2877.9681,-520 3040.5331,-520 3040.5331,-556"/>
<text text-anchor="middle" x="2959.2506" y="-533.8" font-family="Times,serif" font-size="14.00" fill="#000000">n1 = adder1::addier([in3])</text>
</g>
<!-- node_72&#45;&gt;node_73 -->
<g id="edge24" class="edge">
<title>node_72&#45;&gt;node_73</title>
<path fill="none" stroke="#000000" d="M2954.7646,-591.8314C2955.4063,-584.131 2956.1694,-574.9743 2956.8825,-566.4166"/>
<polygon fill="#000000" stroke="#000000" points="2960.3735,-566.6694 2957.7162,-556.4133 2953.3977,-566.088 2960.3735,-566.6694"/>
</g>
<!-- node_73&#45;&gt;node_70 -->
<g id="edge30" class="edge">
<title>node_73&#45;&gt;node_70</title>
<path fill="none" stroke="#000000" d="M3040.443,-523.1913C3061.7869,-515.2065 3082.4085,-502.9165 3095.2506,-484 3104.2375,-470.7623 3104.379,-461.1405 3095.2506,-448 3086.4691,-435.3589 3056.4933,-423.2144 3026.0582,-413.6549"/>
<polygon fill="#000000" stroke="#000000" points="3026.7728,-410.2138 3016.1868,-410.6447 3024.731,-416.9094 3026.7728,-410.2138"/>
</g>
<!-- node_78 -->
<g id="node31" class="node">
<title>node_78</title>
<polygon fill="none" stroke="#000000" points="3086.33,-484 2796.1712,-484 2796.1712,-448 3086.33,-448 3086.33,-484"/>
<text text-anchor="middle" x="2941.2506" y="-461.8" font-family="Times,serif" font-size="14.00" fill="#000000">adder1 = demo.math.Addierer::__construct([10])</text>
</g>
<!-- node_73&#45;&gt;node_78 -->
<g id="edge28" class="edge">
<title>node_73&#45;&gt;node_78</title>
<path fill="none" stroke="#000000" d="M2954.7084,-519.8314C2952.7622,-512.0463 2950.4438,-502.7729 2948.2843,-494.1347"/>
<polygon fill="#000000" stroke="#000000" points="2951.6748,-493.2658 2945.8539,-484.4133 2944.8838,-494.9636 2951.6748,-493.2658"/>
</g>
<!-- node_74&#45;&gt;node_73 -->
<g id="edge33" class="edge">
<title>node_74&#45;&gt;node_73</title>
<path fill="none" stroke="#000000" d="M2783.8844,-596.0873C2787.7146,-594.6851 2791.5567,-593.3001 2795.2506,-592 2827.1325,-580.7785 2862.7446,-568.9664 2892.6162,-559.2607"/>
<polygon fill="#000000" stroke="#000000" points="2894.0786,-562.4661 2902.5128,-556.0539 2891.9208,-555.807 2894.0786,-562.4661"/>
</g>
<!-- node_75 -->
<g id="node28" class="node">
<title>node_75</title>
<polygon fill="none" stroke="#000000" points="2860.5547,-556 2743.9465,-556 2743.9465,-520 2860.5547,-520 2860.5547,-556"/>
<text text-anchor="middle" x="2802.2506" y="-533.8" font-family="Times,serif" font-size="14.00" fill="#000000">parse Number: 10</text>
</g>
<!-- node_75&#45;&gt;node_78 -->
<g id="edge26" class="edge">
<title>node_75&#45;&gt;node_78</title>
<path fill="none" stroke="#000000" d="M2837.3262,-519.8314C2855.5167,-510.4089 2877.9164,-498.8062 2897.2566,-488.7883"/>
<polygon fill="#000000" stroke="#000000" points="2898.9166,-491.8701 2906.1862,-484.1628 2895.6969,-485.6545 2898.9166,-491.8701"/>
</g>
<!-- node_79 -->
<g id="node32" class="node">
<title>node_79</title>
<polygon fill="none" stroke="#000000" points="2866.5331,-412 2703.9681,-412 2703.9681,-376 2866.5331,-376 2866.5331,-412"/>
<text text-anchor="middle" x="2785.2506" y="-389.8" font-family="Times,serif" font-size="14.00" fill="#000000">n2 = adder1::addier([in4])</text>
</g>
<!-- node_76&#45;&gt;node_79 -->
<g id="edge27" class="edge">
<title>node_76&#45;&gt;node_79</title>
<path fill="none" stroke="#000000" d="M2752.3537,-447.8314C2757.318,-439.7079 2763.2728,-429.9637 2768.7434,-421.0118"/>
<polygon fill="#000000" stroke="#000000" points="2771.77,-422.7712 2773.998,-412.4133 2765.797,-419.121 2771.77,-422.7712"/>
</g>
<!-- node_77 -->
<g id="node30" class="node">
<title>node_77</title>
<polygon fill="none" stroke="#000000" points="2850.8333,-340 2719.6679,-340 2719.6679,-304 2850.8333,-304 2850.8333,-340"/>
<text text-anchor="middle" x="2785.2506" y="-317.8" font-family="Times,serif" font-size="14.00" fill="#000000">transmit n2&#45;&gt;exec_2</text>
</g>
<!-- node_77&#45;&gt;node_69 -->
<g id="edge29" class="edge">
<title>node_77&#45;&gt;node_69</title>
<path fill="none" stroke="#000000" d="M2788.7834,-303.8314C2790.2807,-296.131 2792.0611,-286.9743 2793.7251,-278.4166"/>
<polygon fill="#000000" stroke="#000000" points="2797.1971,-278.8975 2795.6702,-268.4133 2790.3258,-277.5614 2797.1971,-278.8975"/>
</g>
<!-- node_98 -->
<g id="node35" class="node">
<title>node_98</title>
<polygon fill="none" stroke="#000000" points="514.9961,-268 445.505,-268 445.505,-232 514.9961,-232 514.9961,-268"/>
<text text-anchor="middle" x="480.2506" y="-245.8" font-family="Times,serif" font-size="14.00" fill="#000000">accept n2</text>
</g>
<!-- node_77&#45;&gt;node_98 -->
<g id="edge56" class="edge">
<title>node_77&#45;&gt;node_98</title>
<path fill="none" stroke="#000000" stroke-dasharray="1,5" d="M2719.3671,-319.942C2377.5888,-309.2661 811.3298,-260.3417 525.1952,-251.4039"/>
<polygon fill="#000000" stroke="#000000" points="525.2828,-247.905 515.1784,-251.091 525.0642,-254.9016 525.2828,-247.905"/>
</g>
<!-- node_78&#45;&gt;node_79 -->
<g id="edge25" class="edge">
<title>node_78&#45;&gt;node_79</title>
<path fill="none" stroke="#000000" d="M2901.8852,-447.8314C2881.1139,-438.2446 2855.4522,-426.4008 2833.4925,-416.2655"/>
<polygon fill="#000000" stroke="#000000" points="2834.8792,-413.0508 2824.3329,-412.038 2831.9458,-419.4065 2834.8792,-413.0508"/>
</g>
<!-- node_79&#45;&gt;node_77 -->
<g id="edge31" class="edge">
<title>node_79&#45;&gt;node_77</title>
<path fill="none" stroke="#000000" d="M2785.2506,-375.8314C2785.2506,-368.131 2785.2506,-358.9743 2785.2506,-350.4166"/>
<polygon fill="#000000" stroke="#000000" points="2788.7507,-350.4132 2785.2506,-340.4133 2781.7507,-350.4133 2788.7507,-350.4132"/>
</g>
<!-- node_110 -->
<g id="node33" class="node">
<title>node_110</title>
<polygon fill="none" stroke="#000000" points="2097.3711,-556 1919.1301,-556 1919.1301,-520 2097.3711,-520 2097.3711,-556"/>
<text text-anchor="middle" x="2008.2506" y="-533.8" font-family="Times,serif" font-size="14.00" fill="#000000">transmit in4&#45;&gt;client executor</text>
</g>
<!-- node_110&#45;&gt;node_83 -->
<g id="edge46" class="edge">
<title>node_110&#45;&gt;node_83</title>
<path fill="none" stroke="#000000" stroke-dasharray="1,5" d="M1919.1254,-521.135C1916.1353,-520.7273 1913.1708,-520.347 1910.2506,-520 1623.9885,-485.9828 1541.7607,-545.6057 1257.0584,-484.0359"/>
<polygon fill="#000000" stroke="#000000" points="1257.7962,-480.6146 1247.2785,-481.8908 1256.2964,-487.4521 1257.7962,-480.6146"/>
</g>
<!-- node_99 -->
<g id="node36" class="node">
<title>node_99</title>
<polygon fill="none" stroke="#000000" points="353.5537,-268 232.9475,-268 232.9475,-232 353.5537,-232 353.5537,-268"/>
<text text-anchor="middle" x="293.2506" y="-245.8" font-family="Times,serif" font-size="14.00" fill="#000000">p1 = s1::calc([n1])</text>
</g>
<!-- node_97&#45;&gt;node_99 -->
<g id="edge35" class="edge">
<title>node_97&#45;&gt;node_99</title>
<path fill="none" stroke="#000000" d="M445.5627,-307.3477C442.7557,-306.2022 439.9588,-305.0742 437.2506,-304 409.399,-292.953 378.2949,-281.2146 352.1416,-271.5138"/>
<polygon fill="#000000" stroke="#000000" points="353.3385,-268.2248 342.7453,-268.037 350.9093,-274.7898 353.3385,-268.2248"/>
</g>
<!-- node_105 -->
<g id="node42" class="node">
<title>node_105</title>
<polygon fill="none" stroke="#000000" points="474.5537,-196 353.9475,-196 353.9475,-160 474.5537,-160 474.5537,-196"/>
<text text-anchor="middle" x="414.2506" y="-173.8" font-family="Times,serif" font-size="14.00" fill="#000000">p2 = s2::calc([n2])</text>
</g>
<!-- node_98&#45;&gt;node_105 -->
<g id="edge40" class="edge">
<title>node_98&#45;&gt;node_105</title>
<path fill="none" stroke="#000000" d="M463.596,-231.8314C455.8392,-223.3694 446.4704,-213.1489 437.9896,-203.8971"/>
<polygon fill="#000000" stroke="#000000" points="440.4667,-201.4198 431.1294,-196.4133 435.3067,-206.1499 440.4667,-201.4198"/>
</g>
<!-- node_103 -->
<g id="node40" class="node">
<title>node_103</title>
<polygon fill="none" stroke="#000000" points="320.4812,-196 118.0199,-196 118.0199,-160 320.4812,-160 320.4812,-196"/>
<text text-anchor="middle" x="219.2506" y="-173.8" font-family="Times,serif" font-size="14.00" fill="#000000">bool1 = s1::liagtAufGerade([p1])</text>
</g>
<!-- node_99&#45;&gt;node_103 -->
<g id="edge37" class="edge">
<title>node_99&#45;&gt;node_103</title>
<path fill="none" stroke="#000000" d="M274.5773,-231.8314C265.7257,-223.219 255.002,-212.7851 245.3611,-203.4048"/>
<polygon fill="#000000" stroke="#000000" points="247.526,-200.6279 237.9179,-196.1628 242.6445,-205.645 247.526,-200.6279"/>
</g>
<!-- node_106 -->
<g id="node43" class="node">
<title>node_106</title>
<polygon fill="none" stroke="#000000" points="331.3024,-340 275.1988,-340 275.1988,-304 331.3024,-304 331.3024,-340"/>
<text text-anchor="middle" x="303.2506" y="-317.8" font-family="Times,serif" font-size="14.00" fill="#000000">load s1</text>
</g>
<!-- node_100&#45;&gt;node_106 -->
<g id="edge39" class="edge">
<title>node_100&#45;&gt;node_106</title>
<path fill="none" stroke="#000000" d="M373.5304,-375.8314C361.8412,-366.8779 347.5818,-355.9558 334.9697,-346.2955"/>
<polygon fill="#000000" stroke="#000000" points="337.0303,-343.4651 326.9632,-340.1628 332.7737,-349.0222 337.0303,-343.4651"/>
</g>
<!-- node_101 -->
<g id="node38" class="node">
<title>node_101</title>
<polygon fill="none" stroke="#000000" points="515.4812,-124 313.0199,-124 313.0199,-88 515.4812,-88 515.4812,-124"/>
<text text-anchor="middle" x="414.2506" y="-101.8" font-family="Times,serif" font-size="14.00" fill="#000000">bool2 = s2::liagtAufGerade([p2])</text>
</g>
<!-- node_102 -->
<g id="node39" class="node">
<title>node_102</title>
<polygon fill="none" stroke="#000000" points="293.3477,-52 103.1535,-52 103.1535,-16 293.3477,-16 293.3477,-52"/>
<text text-anchor="middle" x="198.2506" y="-29.8" font-family="Times,serif" font-size="14.00" fill="#000000">FinishNode &amp;finished&amp;exec_2</text>
</g>
<!-- node_101&#45;&gt;node_102 -->
<g id="edge34" class="edge">
<title>node_101&#45;&gt;node_102</title>
<path fill="none" stroke="#000000" d="M360.0235,-87.9243C330.3666,-78.0387 293.4469,-65.7321 262.3685,-55.3726"/>
<polygon fill="#000000" stroke="#000000" points="263.0937,-51.9251 252.5,-52.0831 260.88,-58.5659 263.0937,-51.9251"/>
</g>
<!-- node_102&#45;&gt;node_94 -->
<g id="edge58" class="edge">
<title>node_102&#45;&gt;node_94</title>
<path fill="none" stroke="#000000" stroke-dasharray="1,5" d="M132.3195,-52.0102C74.7211,-72.2264 .2506,-111.2678 .2506,-178 .2506,-322 .2506,-322 .2506,-322 .2506,-367.8188 -3.7589,-391.6685 32.2506,-420 70.368,-449.9899 374.1382,-460.7851 529.4645,-464.3708"/>
<polygon fill="#000000" stroke="#000000" points="529.4,-467.8701 539.4765,-464.5966 529.558,-460.8719 529.4,-467.8701"/>
</g>
<!-- node_108 -->
<g id="node45" class="node">
<title>node_108</title>
<polygon fill="none" stroke="#000000" points="294.3711,-124 102.1301,-124 102.1301,-88 294.3711,-88 294.3711,-124"/>
<text text-anchor="middle" x="198.2506" y="-101.8" font-family="Times,serif" font-size="14.00" fill="#000000">transmit bool1&#45;&gt;client executor</text>
</g>
<!-- node_103&#45;&gt;node_108 -->
<g id="edge38" class="edge">
<title>node_103&#45;&gt;node_108</title>
<path fill="none" stroke="#000000" d="M213.9514,-159.8314C211.6808,-152.0463 208.976,-142.7729 206.4566,-134.1347"/>
<polygon fill="#000000" stroke="#000000" points="209.7812,-133.0332 203.6211,-124.4133 203.0612,-134.9933 209.7812,-133.0332"/>
</g>
<!-- node_107 -->
<g id="node44" class="node">
<title>node_107</title>
<polygon fill="none" stroke="#000000" points="427.3024,-268 371.1988,-268 371.1988,-232 427.3024,-232 427.3024,-268"/>
<text text-anchor="middle" x="399.2506" y="-245.8" font-family="Times,serif" font-size="14.00" fill="#000000">load s2</text>
</g>
<!-- node_104&#45;&gt;node_107 -->
<g id="edge36" class="edge">
<title>node_104&#45;&gt;node_107</title>
<path fill="none" stroke="#000000" d="M395.5123,-303.8314C396.0471,-296.131 396.6829,-286.9743 397.2772,-278.4166"/>
<polygon fill="#000000" stroke="#000000" points="400.7706,-278.6317 397.9719,-268.4133 393.7874,-278.1467 400.7706,-278.6317"/>
</g>
<!-- node_105&#45;&gt;node_101 -->
<g id="edge43" class="edge">
<title>node_105&#45;&gt;node_101</title>
<path fill="none" stroke="#000000" d="M414.2506,-159.8314C414.2506,-152.131 414.2506,-142.9743 414.2506,-134.4166"/>
<polygon fill="#000000" stroke="#000000" points="417.7507,-134.4132 414.2506,-124.4133 410.7507,-134.4133 417.7507,-134.4132"/>
</g>
<!-- node_106&#45;&gt;node_99 -->
<g id="edge41" class="edge">
<title>node_106&#45;&gt;node_99</title>
<path fill="none" stroke="#000000" d="M300.7272,-303.8314C299.6577,-296.131 298.3859,-286.9743 297.1973,-278.4166"/>
<polygon fill="#000000" stroke="#000000" points="300.6505,-277.8367 295.808,-268.4133 293.717,-278.7997 300.6505,-277.8367"/>
</g>
<!-- node_107&#45;&gt;node_105 -->
<g id="edge44" class="edge">
<title>node_107&#45;&gt;node_105</title>
<path fill="none" stroke="#000000" d="M403.0357,-231.8314C404.64,-224.131 406.5476,-214.9743 408.3305,-206.4166"/>
<polygon fill="#000000" stroke="#000000" points="411.8013,-206.9169 410.4145,-196.4133 404.9484,-205.4892 411.8013,-206.9169"/>
</g>
<!-- node_108&#45;&gt;node_93 -->
<g id="edge54" class="edge">
<title>node_108&#45;&gt;node_93</title>
<path fill="none" stroke="#000000" stroke-dasharray="1,5" d="M152.401,-124.0761C105.1213,-146.087 38.2506,-188.1507 38.2506,-250 38.2506,-322 38.2506,-322 38.2506,-322 38.2506,-366.6396 26.0082,-391.3618 60.2506,-420 113.7532,-464.7462 603.0046,-436.6251 708.5514,-448.4103"/>
<polygon fill="#000000" stroke="#000000" points="708.1208,-451.8844 718.521,-449.8629 709.1302,-444.9576 708.1208,-451.8844"/>
</g>
<!-- node_108&#45;&gt;node_102 -->
<g id="edge42" class="edge">
<title>node_108&#45;&gt;node_102</title>
<path fill="none" stroke="#000000" d="M198.2506,-87.8314C198.2506,-80.131 198.2506,-70.9743 198.2506,-62.4166"/>
<polygon fill="#000000" stroke="#000000" points="201.7507,-62.4132 198.2506,-52.4133 194.7507,-62.4133 201.7507,-62.4132"/>
</g>
<!-- node_109 -->
<g id="node46" class="node">
<title>node_109</title>
<polygon fill="none" stroke="#000000" points="277.2506,-412 227.3377,-394 277.2506,-376 327.1635,-394 277.2506,-412"/>
<text text-anchor="middle" x="277.2506" y="-389.8" font-family="Times,serif" font-size="14.00" fill="#000000">exec_2</text>
</g>
<!-- node_111 -->
<g id="node47" class="node">
<title>node_111</title>
<polygon fill="none" stroke="#000000" points="2294.3711,-556 2116.1301,-556 2116.1301,-520 2294.3711,-520 2294.3711,-556"/>
<text text-anchor="middle" x="2205.2506" y="-533.8" font-family="Times,serif" font-size="14.00" fill="#000000">transmit in2&#45;&gt;client executor</text>
</g>
<!-- node_111&#45;&gt;node_81 -->
<g id="edge45" class="edge">
<title>node_111&#45;&gt;node_81</title>
<path fill="none" stroke="#000000" stroke-dasharray="1,5" d="M2116.0179,-521.2143C2112.7255,-520.7737 2109.4616,-520.3663 2106.2506,-520 1773.5545,-482.0446 1678.55,-554.351 1347.8757,-483.9623"/>
<polygon fill="#000000" stroke="#000000" points="1348.5363,-480.5244 1338.0232,-481.8379 1347.0608,-487.3671 1348.5363,-480.5244"/>
</g>
</g>
</svg>
