<?xml version="1.0" encoding="UTF-8" standalone="no"?>
<!DOCTYPE svg PUBLIC "-//W3C//DTD SVG 1.1//EN"
 "http://www.w3.org/Graphics/SVG/1.1/DTD/svg11.dtd">
<!-- Generated by graphviz version 2.40.1 (20161225.0304)
 -->
<!-- Title: %3 Pages: 1 -->
<svg width="2301pt" height="724pt"
 viewBox="0.00 0.00 2301.00 724.00" xmlns="http://www.w3.org/2000/svg" xmlns:xlink="http://www.w3.org/1999/xlink">
<g id="graph0" class="graph" transform="scale(1 1) rotate(0) translate(4 720)">
<title>%3</title>
<polygon fill="#ffffff" stroke="transparent" points="-4,4 -4,-720 2297,-720 2297,4 -4,4"/>
<g id="clust1" class="cluster">
<title>cluster_1099855928</title>
<polygon fill="none" stroke="#000000" points="1393,-296 1393,-708 1971,-708 1971,-296 1393,-296"/>
</g>
<g id="clust2" class="cluster">
<title>cluster_1007880005</title>
<polygon fill="none" stroke="#000000" points="1979,-8 1979,-348 2285,-348 2285,-8 1979,-8"/>
</g>
<g id="clust3" class="cluster">
<title>cluster_1629687658</title>
<polygon fill="none" stroke="#000000" points="8,-152 8,-348 841,-348 841,-152 8,-152"/>
</g>
<!-- node_194 -->
<g id="node1" class="node">
<title>node_194</title>
<polygon fill="none" stroke="#000000" points="1200.7307,-340 1033.2693,-340 1033.2693,-304 1200.7307,-304 1200.7307,-340"/>
<text text-anchor="middle" x="1117" y="-317.8" font-family="Times,serif" font-size="14.00" fill="#000000">transmit b&#45;&gt;client executor</text>
</g>
<!-- node_183 -->
<g id="node35" class="node">
<title>node_183</title>
<polygon fill="none" stroke="#000000" points="497.2456,-268 434.7544,-268 434.7544,-232 497.2456,-232 497.2456,-268"/>
<text text-anchor="middle" x="466" y="-245.8" font-family="Times,serif" font-size="14.00" fill="#000000">accept b</text>
</g>
<!-- node_194&#45;&gt;node_183 -->
<g id="edge42" class="edge">
<title>node_194&#45;&gt;node_183</title>
<path fill="none" stroke="#000000" stroke-dasharray="1,5" d="M1059.893,-303.9223C1048.1283,-300.7969 1035.7447,-297.9352 1024,-296 799.7305,-259.0464 731.9508,-320.6618 507.2796,-267.7909"/>
<polygon fill="#000000" stroke="#000000" points="508.0414,-264.3743 497.5004,-265.4411 506.4059,-271.1806 508.0414,-264.3743"/>
</g>
<!-- node_195 -->
<g id="node2" class="node">
<title>node_195</title>
<polygon fill="none" stroke="#000000" points="1385.4443,-340 1218.5557,-340 1218.5557,-304 1385.4443,-304 1385.4443,-340"/>
<text text-anchor="middle" x="1302" y="-317.8" font-family="Times,serif" font-size="14.00" fill="#000000">transmit e&#45;&gt;client executor</text>
</g>
<!-- node_178 -->
<g id="node30" class="node">
<title>node_178</title>
<polygon fill="none" stroke="#000000" points="576.9607,-268 515.0393,-268 515.0393,-232 576.9607,-232 576.9607,-268"/>
<text text-anchor="middle" x="546" y="-245.8" font-family="Times,serif" font-size="14.00" fill="#000000">accept e</text>
</g>
<!-- node_195&#45;&gt;node_178 -->
<g id="edge49" class="edge">
<title>node_195&#45;&gt;node_178</title>
<path fill="none" stroke="#000000" stroke-dasharray="1,5" d="M1246.0225,-303.9656C1234.2364,-300.7952 1221.7976,-297.9051 1210,-296 938.8503,-252.2147 857.1696,-331.7295 587.2188,-268.0534"/>
<polygon fill="#000000" stroke="#000000" points="587.6649,-264.561 577.1238,-265.6266 586.0287,-271.3671 587.6649,-264.561"/>
</g>
<!-- node_196 -->
<g id="node3" class="node">
<title>node_196</title>
<polygon fill="none" stroke="#000000" points="1015.4443,-340 848.5557,-340 848.5557,-304 1015.4443,-304 1015.4443,-340"/>
<text text-anchor="middle" x="932" y="-317.8" font-family="Times,serif" font-size="14.00" fill="#000000">transmit c&#45;&gt;client executor</text>
</g>
<!-- node_175 -->
<g id="node27" class="node">
<title>node_175</title>
<polygon fill="none" stroke="#000000" points="416.9607,-268 355.0393,-268 355.0393,-232 416.9607,-232 416.9607,-268"/>
<text text-anchor="middle" x="386" y="-245.8" font-family="Times,serif" font-size="14.00" fill="#000000">accept c</text>
</g>
<!-- node_196&#45;&gt;node_175 -->
<g id="edge46" class="edge">
<title>node_196&#45;&gt;node_175</title>
<path fill="none" stroke="#000000" stroke-dasharray="1,5" d="M878.1551,-303.8728C867.285,-300.7921 855.8595,-297.96 845,-296 664.5586,-263.4327 609.021,-311.4867 426.9595,-267.6828"/>
<polygon fill="#000000" stroke="#000000" points="427.611,-264.2387 417.0638,-265.2423 425.9348,-271.0351 427.611,-264.2387"/>
</g>
<!-- node_160 -->
<g id="node4" class="node">
<title>node_160</title>
<polygon fill="none" stroke="#000000" points="1954.2456,-628 1891.7544,-628 1891.7544,-592 1954.2456,-592 1954.2456,-628"/>
<text text-anchor="middle" x="1923" y="-605.8" font-family="Times,serif" font-size="14.00" fill="#000000">accept b</text>
</g>
<!-- node_168 -->
<g id="node12" class="node">
<title>node_168</title>
<polygon fill="none" stroke="#000000" points="1963.2384,-556 1704.7616,-556 1704.7616,-520 1963.2384,-520 1963.2384,-556"/>
<text text-anchor="middle" x="1834" y="-533.8" font-family="Times,serif" font-size="14.00" fill="#000000">cast b from Arr to demo.types.NummerList</text>
</g>
<!-- node_160&#45;&gt;node_168 -->
<g id="edge7" class="edge">
<title>node_160&#45;&gt;node_168</title>
<path fill="none" stroke="#000000" d="M1900.5415,-591.8314C1889.5795,-582.9632 1876.2301,-572.1637 1864.3735,-562.5718"/>
<polygon fill="#000000" stroke="#000000" points="1866.4271,-559.7313 1856.4513,-556.1628 1862.0245,-565.1734 1866.4271,-559.7313"/>
</g>
<!-- node_161 -->
<g id="node5" class="node">
<title>node_161</title>
<polygon fill="none" stroke="#000000" points="1963.2444,-412 1840.7556,-412 1840.7556,-376 1963.2444,-376 1963.2444,-412"/>
<text text-anchor="middle" x="1902" y="-389.8" font-family="Times,serif" font-size="14.00" fill="#000000">transmit f&#45;&gt;exec_2</text>
</g>
<!-- node_166 -->
<g id="node10" class="node">
<title>node_166</title>
<polygon fill="none" stroke="#000000" points="1707.0971,-340 1516.9029,-340 1516.9029,-304 1707.0971,-304 1707.0971,-340"/>
<text text-anchor="middle" x="1612" y="-317.8" font-family="Times,serif" font-size="14.00" fill="#000000">FinishNode &amp;finished&amp;exec_1</text>
</g>
<!-- node_161&#45;&gt;node_166 -->
<g id="edge5" class="edge">
<title>node_161&#45;&gt;node_166</title>
<path fill="none" stroke="#000000" d="M1840.5496,-378.1578C1837.6602,-377.4257 1834.799,-376.7034 1832,-376 1787.2491,-364.7545 1737.3077,-352.4744 1696.3331,-342.47"/>
<polygon fill="#000000" stroke="#000000" points="1696.9332,-339.0139 1686.3886,-340.0437 1695.2739,-345.8144 1696.9332,-339.0139"/>
</g>
<!-- node_187 -->
<g id="node20" class="node">
<title>node_187</title>
<polygon fill="none" stroke="#000000" points="2142.9073,-340 2083.0927,-340 2083.0927,-304 2142.9073,-304 2142.9073,-340"/>
<text text-anchor="middle" x="2113" y="-317.8" font-family="Times,serif" font-size="14.00" fill="#000000">accept f</text>
</g>
<!-- node_161&#45;&gt;node_187 -->
<g id="edge44" class="edge">
<title>node_161&#45;&gt;node_187</title>
<path fill="none" stroke="#000000" stroke-dasharray="1,5" d="M1963.4764,-378.2421C1992.4944,-370.2046 2027.394,-359.6661 2058,-348 2063.1196,-346.0486 2068.4228,-343.8204 2073.6249,-341.5077"/>
<polygon fill="#000000" stroke="#000000" points="2075.185,-344.6429 2082.818,-337.2953 2072.269,-338.2791 2075.185,-344.6429"/>
</g>
<!-- node_162 -->
<g id="node6" class="node">
<title>node_162</title>
<polygon fill="none" stroke="#000000" points="1870.3041,-628 1753.6959,-628 1753.6959,-592 1870.3041,-592 1870.3041,-628"/>
<text text-anchor="middle" x="1812" y="-605.8" font-family="Times,serif" font-size="14.00" fill="#000000">parse Number: 20</text>
</g>
<!-- node_169 -->
<g id="node13" class="node">
<title>node_169</title>
<polygon fill="none" stroke="#000000" points="1686.5176,-556 1567.4824,-556 1567.4824,-520 1686.5176,-520 1686.5176,-556"/>
<text text-anchor="middle" x="1627" y="-533.8" font-family="Times,serif" font-size="14.00" fill="#000000">d = a::addier([20])</text>
</g>
<!-- node_162&#45;&gt;node_169 -->
<g id="edge6" class="edge">
<title>node_162&#45;&gt;node_169</title>
<path fill="none" stroke="#000000" d="M1765.3167,-591.8314C1740.2441,-582.0734 1709.1633,-569.977 1682.8191,-559.7242"/>
<polygon fill="#000000" stroke="#000000" points="1683.9362,-556.4033 1673.3476,-556.038 1681.3973,-562.9266 1683.9362,-556.4033"/>
</g>
<!-- node_163 -->
<g id="node7" class="node">
<title>node_163</title>
<polygon fill="none" stroke="#000000" points="1567.4443,-412 1400.5557,-412 1400.5557,-376 1567.4443,-376 1567.4443,-412"/>
<text text-anchor="middle" x="1484" y="-389.8" font-family="Times,serif" font-size="14.00" fill="#000000">transmit a&#45;&gt;client executor</text>
</g>
<!-- node_163&#45;&gt;node_166 -->
<g id="edge2" class="edge">
<title>node_163&#45;&gt;node_166</title>
<path fill="none" stroke="#000000" d="M1516.2998,-375.8314C1532.8234,-366.5368 1553.1186,-355.1208 1570.7607,-345.1971"/>
<polygon fill="#000000" stroke="#000000" points="1572.7107,-348.116 1579.7105,-340.1628 1569.2788,-342.015 1572.7107,-348.116"/>
</g>
<!-- node_181 -->
<g id="node33" class="node">
<title>node_181</title>
<polygon fill="none" stroke="#000000" points="77.9607,-268 16.0393,-268 16.0393,-232 77.9607,-232 77.9607,-268"/>
<text text-anchor="middle" x="47" y="-245.8" font-family="Times,serif" font-size="14.00" fill="#000000">accept a</text>
</g>
<!-- node_163&#45;&gt;node_181 -->
<g id="edge41" class="edge">
<title>node_163&#45;&gt;node_181</title>
<path fill="none" stroke="#000000" stroke-dasharray="1,5" d="M1400.4092,-393.1734C1112.543,-390.0678 176.7959,-377.7232 120,-348 91.0887,-332.8697 70.5666,-300.5446 58.7894,-277.1481"/>
<polygon fill="#000000" stroke="#000000" points="61.9058,-275.5523 54.4204,-268.0543 55.5962,-278.5837 61.9058,-275.5523"/>
</g>
<!-- node_164 -->
<g id="node8" class="node">
<title>node_164</title>
<polygon fill="none" stroke="#000000" points="1639,-412 1585,-412 1585,-376 1639,-376 1639,-412"/>
<text text-anchor="middle" x="1612" y="-389.8" font-family="Times,serif" font-size="14.00" fill="#000000">store a</text>
</g>
<!-- node_164&#45;&gt;node_166 -->
<g id="edge1" class="edge">
<title>node_164&#45;&gt;node_166</title>
<path fill="none" stroke="#000000" d="M1612,-375.8314C1612,-368.131 1612,-358.9743 1612,-350.4166"/>
<polygon fill="#000000" stroke="#000000" points="1615.5001,-350.4132 1612,-340.4133 1608.5001,-350.4133 1615.5001,-350.4132"/>
</g>
<!-- node_165 -->
<g id="node9" class="node">
<title>node_165</title>
<polygon fill="none" stroke="#000000" points="1735.7033,-628 1470.2967,-628 1470.2967,-592 1735.7033,-592 1735.7033,-628"/>
<text text-anchor="middle" x="1603" y="-605.8" font-family="Times,serif" font-size="14.00" fill="#000000">a = demo.math.Addierer::__construct([100])</text>
</g>
<!-- node_165&#45;&gt;node_169 -->
<g id="edge4" class="edge">
<title>node_165&#45;&gt;node_169</title>
<path fill="none" stroke="#000000" d="M1609.0562,-591.8314C1611.6512,-584.0463 1614.7424,-574.7729 1617.6218,-566.1347"/>
<polygon fill="#000000" stroke="#000000" points="1621.0203,-567.0069 1620.8622,-556.4133 1614.3795,-564.7933 1621.0203,-567.0069"/>
</g>
<!-- node_177 -->
<g id="node29" class="node">
<title>node_177</title>
<polygon fill="none" stroke="#000000" points="755.5039,-268 594.4961,-268 594.4961,-232 755.5039,-232 755.5039,-268"/>
<text text-anchor="middle" x="675" y="-245.8" font-family="Times,serif" font-size="14.00" fill="#000000">accept &amp;finished&amp;exec_1</text>
</g>
<!-- node_166&#45;&gt;node_177 -->
<g id="edge45" class="edge">
<title>node_166&#45;&gt;node_177</title>
<path fill="none" stroke="#000000" stroke-dasharray="1,5" d="M1516.65,-309.0717C1478.5648,-304.315 1434.2681,-299.2916 1394,-296 1117.9289,-273.4335 1043.9204,-301.4337 765.8963,-268.1305"/>
<polygon fill="#000000" stroke="#000000" points="766.2682,-264.65 755.9194,-266.9197 765.4248,-271.599 766.2682,-264.65"/>
</g>
<!-- node_167 -->
<g id="node11" class="node">
<title>node_167</title>
<polygon fill="none" stroke="#000000" points="1752.172,-484 1613.828,-484 1613.828,-448 1752.172,-448 1752.172,-484"/>
<text text-anchor="middle" x="1683" y="-461.8" font-family="Times,serif" font-size="14.00" fill="#000000">f = a::addierListe([b])</text>
</g>
<!-- node_167&#45;&gt;node_161 -->
<g id="edge8" class="edge">
<title>node_167&#45;&gt;node_161</title>
<path fill="none" stroke="#000000" d="M1737.9803,-447.9243C1768.1792,-437.9959 1805.8058,-425.6255 1837.4004,-415.2382"/>
<polygon fill="#000000" stroke="#000000" points="1838.5905,-418.5313 1846.9971,-412.0831 1836.4042,-411.8815 1838.5905,-418.5313"/>
</g>
<!-- node_167&#45;&gt;node_163 -->
<g id="edge10" class="edge">
<title>node_167&#45;&gt;node_163</title>
<path fill="none" stroke="#000000" d="M1633.0408,-447.9243C1605.8363,-438.0815 1571.9983,-425.8386 1543.4438,-415.5073"/>
<polygon fill="#000000" stroke="#000000" points="1544.5741,-412.1943 1533.9798,-412.0831 1542.1924,-418.7767 1544.5741,-412.1943"/>
</g>
<!-- node_167&#45;&gt;node_164 -->
<g id="edge12" class="edge">
<title>node_167&#45;&gt;node_164</title>
<path fill="none" stroke="#000000" d="M1665.0837,-447.8314C1656.6558,-439.2848 1646.459,-428.9443 1637.264,-419.6198"/>
<polygon fill="#000000" stroke="#000000" points="1639.6711,-417.0761 1630.1575,-412.4133 1634.6869,-421.9912 1639.6711,-417.0761"/>
</g>
<!-- node_170 -->
<g id="node14" class="node">
<title>node_170</title>
<polygon fill="none" stroke="#000000" points="1822.893,-412 1657.107,-412 1657.107,-376 1822.893,-376 1822.893,-412"/>
<text text-anchor="middle" x="1740" y="-389.8" font-family="Times,serif" font-size="14.00" fill="#000000">transmit f&#45;&gt;client executor</text>
</g>
<!-- node_167&#45;&gt;node_170 -->
<g id="edge3" class="edge">
<title>node_167&#45;&gt;node_170</title>
<path fill="none" stroke="#000000" d="M1697.3835,-447.8314C1703.9486,-439.5386 1711.8507,-429.557 1719.0578,-420.4533"/>
<polygon fill="#000000" stroke="#000000" points="1721.9599,-422.4262 1725.4228,-412.4133 1716.4716,-418.0813 1721.9599,-422.4262"/>
</g>
<!-- node_168&#45;&gt;node_167 -->
<g id="edge14" class="edge">
<title>node_168&#45;&gt;node_167</title>
<path fill="none" stroke="#000000" d="M1795.8963,-519.8314C1775.8805,-510.2874 1751.1733,-498.5065 1729.9806,-488.4013"/>
<polygon fill="#000000" stroke="#000000" points="1731.3625,-485.1828 1720.8297,-484.038 1728.3497,-491.5013 1731.3625,-485.1828"/>
</g>
<!-- node_169&#45;&gt;node_167 -->
<g id="edge13" class="edge">
<title>node_169&#45;&gt;node_167</title>
<path fill="none" stroke="#000000" d="M1641.1312,-519.8314C1647.5811,-511.5386 1655.3445,-501.557 1662.4252,-492.4533"/>
<polygon fill="#000000" stroke="#000000" points="1665.3019,-494.4556 1668.6786,-484.4133 1659.7764,-490.158 1665.3019,-494.4556"/>
</g>
<!-- node_170&#45;&gt;node_166 -->
<g id="edge11" class="edge">
<title>node_170&#45;&gt;node_166</title>
<path fill="none" stroke="#000000" d="M1707.7002,-375.8314C1691.1766,-366.5368 1670.8814,-355.1208 1653.2393,-345.1971"/>
<polygon fill="#000000" stroke="#000000" points="1654.7212,-342.015 1644.2895,-340.1628 1651.2893,-348.116 1654.7212,-342.015"/>
</g>
<!-- node_182 -->
<g id="node34" class="node">
<title>node_182</title>
<polygon fill="none" stroke="#000000" points="832.9073,-268 773.0927,-268 773.0927,-232 832.9073,-232 832.9073,-268"/>
<text text-anchor="middle" x="803" y="-245.8" font-family="Times,serif" font-size="14.00" fill="#000000">accept f</text>
</g>
<!-- node_170&#45;&gt;node_182 -->
<g id="edge48" class="edge">
<title>node_170&#45;&gt;node_182</title>
<path fill="none" stroke="#000000" stroke-dasharray="1,5" d="M1741.4348,-375.8618C1742.1094,-353.27 1739.3624,-315.3008 1716,-296 1681.9191,-267.8441 1015.4092,-253.8515 843.2847,-250.6984"/>
<polygon fill="#000000" stroke="#000000" points="843.1956,-247.1963 833.1338,-250.5146 843.0688,-254.1952 843.1956,-247.1963"/>
</g>
<!-- node_171 -->
<g id="node15" class="node">
<title>node_171</title>
<polygon fill="none" stroke="#000000" points="1664.8041,-700 1541.1959,-700 1541.1959,-664 1664.8041,-664 1664.8041,-700"/>
<text text-anchor="middle" x="1603" y="-677.8" font-family="Times,serif" font-size="14.00" fill="#000000">parse Number: 100</text>
</g>
<!-- node_171&#45;&gt;node_165 -->
<g id="edge9" class="edge">
<title>node_171&#45;&gt;node_165</title>
<path fill="none" stroke="#000000" d="M1603,-663.8314C1603,-656.131 1603,-646.9743 1603,-638.4166"/>
<polygon fill="#000000" stroke="#000000" points="1606.5001,-638.4132 1603,-628.4133 1599.5001,-638.4133 1606.5001,-638.4132"/>
</g>
<!-- node_172 -->
<g id="node16" class="node">
<title>node_172</title>
<polygon fill="none" stroke="#000000" points="1456,-700 1406.0871,-682 1456,-664 1505.9129,-682 1456,-700"/>
<text text-anchor="middle" x="1456" y="-677.8" font-family="Times,serif" font-size="14.00" fill="#000000">exec_1</text>
</g>
<!-- node_192 -->
<g id="node17" class="node">
<title>node_192</title>
<polygon fill="none" stroke="#000000" points="2177.0971,-52 1986.9029,-52 1986.9029,-16 2177.0971,-16 2177.0971,-52"/>
<text text-anchor="middle" x="2082" y="-29.8" font-family="Times,serif" font-size="14.00" fill="#000000">FinishNode &amp;finished&amp;exec_2</text>
</g>
<!-- node_176 -->
<g id="node28" class="node">
<title>node_176</title>
<polygon fill="none" stroke="#000000" points="256.5039,-268 95.4961,-268 95.4961,-232 256.5039,-232 256.5039,-268"/>
<text text-anchor="middle" x="176" y="-245.8" font-family="Times,serif" font-size="14.00" fill="#000000">accept &amp;finished&amp;exec_2</text>
</g>
<!-- node_192&#45;&gt;node_176 -->
<g id="edge39" class="edge">
<title>node_192&#45;&gt;node_176</title>
<path fill="none" stroke="#000000" stroke-dasharray="1,5" d="M1986.7111,-35.3301C1672.3063,-40.5297 670.3343,-63.7851 361,-152 304.7727,-168.0347 246.1593,-202.6147 210.3612,-226.1012"/>
<polygon fill="#000000" stroke="#000000" points="208.1565,-223.364 201.7669,-231.8152 212.0322,-229.1932 208.1565,-223.364"/>
</g>
<!-- node_193 -->
<g id="node18" class="node">
<title>node_193</title>
<polygon fill="none" stroke="#000000" points="2219,-340 2169.0871,-322 2219,-304 2268.9129,-322 2219,-340"/>
<text text-anchor="middle" x="2219" y="-317.8" font-family="Times,serif" font-size="14.00" fill="#000000">exec_2</text>
</g>
<!-- node_186 -->
<g id="node19" class="node">
<title>node_186</title>
<polygon fill="none" stroke="#000000" points="2048.9607,-340 1987.0393,-340 1987.0393,-304 2048.9607,-304 2048.9607,-340"/>
<text text-anchor="middle" x="2018" y="-317.8" font-family="Times,serif" font-size="14.00" fill="#000000">accept e</text>
</g>
<!-- node_191 -->
<g id="node24" class="node">
<title>node_191</title>
<polygon fill="none" stroke="#000000" points="2041,-268 1987,-268 1987,-232 2041,-232 2041,-268"/>
<text text-anchor="middle" x="2014" y="-245.8" font-family="Times,serif" font-size="14.00" fill="#000000">load e</text>
</g>
<!-- node_186&#45;&gt;node_191 -->
<g id="edge18" class="edge">
<title>node_186&#45;&gt;node_191</title>
<path fill="none" stroke="#000000" d="M2016.9906,-303.8314C2016.5628,-296.131 2016.0541,-286.9743 2015.5787,-278.4166"/>
<polygon fill="#000000" stroke="#000000" points="2019.0724,-278.2037 2015.023,-268.4133 2012.0831,-278.592 2019.0724,-278.2037"/>
</g>
<!-- node_188 -->
<g id="node21" class="node">
<title>node_188</title>
<polygon fill="none" stroke="#000000" points="2276.5313,-268 2059.4687,-268 2059.4687,-232 2276.5313,-232 2276.5313,-268"/>
<text text-anchor="middle" x="2168" y="-245.8" font-family="Times,serif" font-size="14.00" fill="#000000">cast f from Arr to demo.types.Punkt</text>
</g>
<!-- node_187&#45;&gt;node_188 -->
<g id="edge15" class="edge">
<title>node_187&#45;&gt;node_188</title>
<path fill="none" stroke="#000000" d="M2126.8788,-303.8314C2133.2136,-295.5386 2140.8384,-285.557 2147.7926,-276.4533"/>
<polygon fill="#000000" stroke="#000000" points="2150.6452,-278.4847 2153.9343,-268.4133 2145.0825,-274.2353 2150.6452,-278.4847"/>
</g>
<!-- node_190 -->
<g id="node23" class="node">
<title>node_190</title>
<polygon fill="none" stroke="#000000" points="2157.2688,-196 1994.7312,-196 1994.7312,-160 2157.2688,-160 2157.2688,-196"/>
<text text-anchor="middle" x="2076" y="-173.8" font-family="Times,serif" font-size="14.00" fill="#000000">d = e::liagtAufGerade([f])</text>
</g>
<!-- node_188&#45;&gt;node_190 -->
<g id="edge16" class="edge">
<title>node_188&#45;&gt;node_190</title>
<path fill="none" stroke="#000000" d="M2144.7845,-231.8314C2133.453,-222.9632 2119.6536,-212.1637 2107.3973,-202.5718"/>
<polygon fill="#000000" stroke="#000000" points="2109.2402,-199.5697 2099.2081,-196.1628 2104.926,-205.0822 2109.2402,-199.5697"/>
</g>
<!-- node_189 -->
<g id="node22" class="node">
<title>node_189</title>
<polygon fill="none" stroke="#000000" points="2159.7307,-124 1992.2693,-124 1992.2693,-88 2159.7307,-88 2159.7307,-124"/>
<text text-anchor="middle" x="2076" y="-101.8" font-family="Times,serif" font-size="14.00" fill="#000000">transmit d&#45;&gt;client executor</text>
</g>
<!-- node_189&#45;&gt;node_192 -->
<g id="edge17" class="edge">
<title>node_189&#45;&gt;node_192</title>
<path fill="none" stroke="#000000" d="M2077.5141,-87.8314C2078.1558,-80.131 2078.9188,-70.9743 2079.6319,-62.4166"/>
<polygon fill="#000000" stroke="#000000" points="2083.1229,-62.6694 2080.4656,-52.4133 2076.1471,-62.088 2083.1229,-62.6694"/>
</g>
<!-- node_179 -->
<g id="node31" class="node">
<title>node_179</title>
<polygon fill="none" stroke="#000000" points="337.2456,-268 274.7544,-268 274.7544,-232 337.2456,-232 337.2456,-268"/>
<text text-anchor="middle" x="306" y="-245.8" font-family="Times,serif" font-size="14.00" fill="#000000">accept d</text>
</g>
<!-- node_189&#45;&gt;node_179 -->
<g id="edge43" class="edge">
<title>node_189&#45;&gt;node_179</title>
<path fill="none" stroke="#000000" stroke-dasharray="1,5" d="M1992.2121,-106.9366C1667.9726,-110.7434 509.9235,-126.0998 436,-152 393.8788,-166.7578 354.258,-200.597 330.0796,-224.3623"/>
<polygon fill="#000000" stroke="#000000" points="327.3625,-222.1308 322.7884,-231.6874 332.3237,-227.069 327.3625,-222.1308"/>
</g>
<!-- node_190&#45;&gt;node_189 -->
<g id="edge19" class="edge">
<title>node_190&#45;&gt;node_189</title>
<path fill="none" stroke="#000000" d="M2076,-159.8314C2076,-152.131 2076,-142.9743 2076,-134.4166"/>
<polygon fill="#000000" stroke="#000000" points="2079.5001,-134.4132 2076,-124.4133 2072.5001,-134.4133 2079.5001,-134.4132"/>
</g>
<!-- node_191&#45;&gt;node_190 -->
<g id="edge20" class="edge">
<title>node_191&#45;&gt;node_190</title>
<path fill="none" stroke="#000000" d="M2029.6452,-231.8314C2036.8591,-223.454 2045.557,-213.3531 2053.4605,-204.1749"/>
<polygon fill="#000000" stroke="#000000" points="2056.2711,-206.2748 2060.1441,-196.4133 2050.9667,-201.7071 2056.2711,-206.2748"/>
</g>
<!-- node_173 -->
<g id="node25" class="node">
<title>node_173</title>
<polygon fill="none" stroke="#000000" points="416.5381,-340 339.4619,-340 339.4619,-304 416.5381,-304 416.5381,-340"/>
<text text-anchor="middle" x="378" y="-317.8" font-family="Times,serif" font-size="14.00" fill="#000000">send graph</text>
</g>
<!-- node_173&#45;&gt;node_175 -->
<g id="edge22" class="edge">
<title>node_173&#45;&gt;node_175</title>
<path fill="none" stroke="#000000" d="M380.0187,-303.8314C380.8743,-296.131 381.8917,-286.9743 382.8426,-278.4166"/>
<polygon fill="#000000" stroke="#000000" points="386.3283,-278.7386 383.9541,-268.4133 379.3711,-277.9656 386.3283,-278.7386"/>
</g>
<!-- node_173&#45;&gt;node_176 -->
<g id="edge24" class="edge">
<title>node_173&#45;&gt;node_176</title>
<path fill="none" stroke="#000000" d="M339.2343,-305.787C330.9455,-302.451 322.2126,-299.0334 314,-296 290.8875,-287.4632 265.3484,-278.7521 242.5891,-271.2396"/>
<polygon fill="#000000" stroke="#000000" points="243.6134,-267.8921 233.0205,-268.0973 241.4293,-274.5427 243.6134,-267.8921"/>
</g>
<!-- node_173&#45;&gt;node_177 -->
<g id="edge26" class="edge">
<title>node_173&#45;&gt;node_177</title>
<path fill="none" stroke="#000000" d="M407.137,-303.938C412.8997,-300.9293 419.0193,-298.1071 425,-296 490.5589,-272.9023 512.719,-280.6632 584.5106,-268.1925"/>
<polygon fill="#000000" stroke="#000000" points="585.2727,-271.6115 594.4891,-266.3858 584.0255,-264.7235 585.2727,-271.6115"/>
</g>
<!-- node_173&#45;&gt;node_178 -->
<g id="edge28" class="edge">
<title>node_173&#45;&gt;node_178</title>
<path fill="none" stroke="#000000" d="M408.9662,-303.8893C414.2388,-301.0905 419.7187,-298.3525 425,-296 457.212,-281.6515 468.8609,-281.9156 505.7313,-267.8944"/>
<polygon fill="#000000" stroke="#000000" points="507.0673,-271.1302 515.1088,-264.2319 504.5207,-264.6099 507.0673,-271.1302"/>
</g>
<!-- node_173&#45;&gt;node_179 -->
<g id="edge30" class="edge">
<title>node_173&#45;&gt;node_179</title>
<path fill="none" stroke="#000000" d="M359.8314,-303.8314C351.2848,-295.2848 340.9443,-284.9443 331.6198,-275.6198"/>
<polygon fill="#000000" stroke="#000000" points="333.9592,-273.0095 324.4133,-268.4133 329.0095,-277.9592 333.9592,-273.0095"/>
</g>
<!-- node_173&#45;&gt;node_181 -->
<g id="edge33" class="edge">
<title>node_173&#45;&gt;node_181</title>
<path fill="none" stroke="#000000" d="M339.2928,-304.3763C331.0769,-301.1762 322.3578,-298.1701 314,-296 218.2702,-271.1439 186.1973,-294.3991 87.5106,-267.9575"/>
<polygon fill="#000000" stroke="#000000" points="88.3203,-264.5499 77.748,-265.2403 86.4432,-271.2936 88.3203,-264.5499"/>
</g>
<!-- node_173&#45;&gt;node_182 -->
<g id="edge35" class="edge">
<title>node_173&#45;&gt;node_182</title>
<path fill="none" stroke="#000000" d="M406.2312,-303.8936C412.2255,-300.7704 418.6628,-297.9169 425,-296 567.0108,-253.0448 616.4365,-304.9853 763.2766,-267.9344"/>
<polygon fill="#000000" stroke="#000000" points="764.305,-271.2832 773.0916,-265.3633 762.5311,-264.5117 764.305,-271.2832"/>
</g>
<!-- node_173&#45;&gt;node_183 -->
<g id="edge37" class="edge">
<title>node_173&#45;&gt;node_183</title>
<path fill="none" stroke="#000000" d="M400.2061,-303.8314C411.045,-294.9632 424.2444,-284.1637 435.9678,-274.5718"/>
<polygon fill="#000000" stroke="#000000" points="438.2777,-277.2041 443.801,-268.1628 433.845,-271.7864 438.2777,-277.2041"/>
</g>
<!-- node_174 -->
<g id="node26" class="node">
<title>node_174</title>
<polygon fill="none" stroke="#000000" points="511.5381,-340 434.4619,-340 434.4619,-304 511.5381,-304 511.5381,-340"/>
<text text-anchor="middle" x="473" y="-317.8" font-family="Times,serif" font-size="14.00" fill="#000000">send graph</text>
</g>
<!-- node_174&#45;&gt;node_175 -->
<g id="edge21" class="edge">
<title>node_174&#45;&gt;node_175</title>
<path fill="none" stroke="#000000" d="M451.0462,-303.8314C440.3305,-294.9632 427.2811,-284.1637 415.691,-274.5718"/>
<polygon fill="#000000" stroke="#000000" points="417.8822,-271.8422 407.9467,-268.1628 413.4192,-277.2349 417.8822,-271.8422"/>
</g>
<!-- node_174&#45;&gt;node_176 -->
<g id="edge23" class="edge">
<title>node_174&#45;&gt;node_176</title>
<path fill="none" stroke="#000000" d="M443.8612,-303.9431C438.0987,-300.9339 431.9796,-298.1103 426,-296 360.8484,-273.0071 338.8445,-280.5622 266.9316,-268.0887"/>
<polygon fill="#000000" stroke="#000000" points="267.3981,-264.6164 256.9351,-266.2829 266.1537,-271.5049 267.3981,-264.6164"/>
</g>
<!-- node_174&#45;&gt;node_177 -->
<g id="edge25" class="edge">
<title>node_174&#45;&gt;node_177</title>
<path fill="none" stroke="#000000" d="M511.9476,-308.1177C541.0602,-297.7409 581.4028,-283.3614 614.675,-271.502"/>
<polygon fill="#000000" stroke="#000000" points="616.0595,-274.7243 624.3039,-268.0699 613.7092,-268.1306 616.0595,-274.7243"/>
</g>
<!-- node_174&#45;&gt;node_178 -->
<g id="edge27" class="edge">
<title>node_174&#45;&gt;node_178</title>
<path fill="none" stroke="#000000" d="M491.421,-303.8314C500.1529,-295.219 510.7317,-284.7851 520.2423,-275.4048"/>
<polygon fill="#000000" stroke="#000000" points="522.923,-277.6769 527.5849,-268.1628 518.0075,-272.6931 522.923,-277.6769"/>
</g>
<!-- node_174&#45;&gt;node_179 -->
<g id="edge29" class="edge">
<title>node_174&#45;&gt;node_179</title>
<path fill="none" stroke="#000000" d="M442.026,-303.9069C436.7543,-301.1059 431.2767,-298.3627 426,-296 394.3047,-281.8084 382.7927,-281.8544 346.987,-268.1929"/>
<polygon fill="#000000" stroke="#000000" points="347.9209,-264.7997 337.3334,-264.4073 345.3654,-271.3166 347.9209,-264.7997"/>
</g>
<!-- node_174&#45;&gt;node_181 -->
<g id="edge32" class="edge">
<title>node_174&#45;&gt;node_181</title>
<path fill="none" stroke="#000000" d="M444.7688,-303.8936C438.7745,-300.7704 432.3372,-297.9169 426,-296 283.9892,-253.0448 234.7493,-304.2861 87.9627,-268.035"/>
<polygon fill="#000000" stroke="#000000" points="88.7071,-264.6127 78.1511,-265.5187 86.9681,-271.3933 88.7071,-264.6127"/>
</g>
<!-- node_174&#45;&gt;node_182 -->
<g id="edge34" class="edge">
<title>node_174&#45;&gt;node_182</title>
<path fill="none" stroke="#000000" d="M511.5789,-318.0941C566.3315,-311.8566 669.5534,-297.5334 763.3747,-268.1526"/>
<polygon fill="#000000" stroke="#000000" points="764.5473,-271.4523 773.0055,-265.0719 762.4145,-264.7851 764.5473,-271.4523"/>
</g>
<!-- node_174&#45;&gt;node_183 -->
<g id="edge36" class="edge">
<title>node_174&#45;&gt;node_183</title>
<path fill="none" stroke="#000000" d="M471.2336,-303.8314C470.485,-296.131 469.5947,-286.9743 468.7627,-278.4166"/>
<polygon fill="#000000" stroke="#000000" points="472.2415,-278.0276 467.7902,-268.4133 465.2744,-278.7051 472.2415,-278.0276"/>
</g>
<!-- node_184 -->
<g id="node36" class="node">
<title>node_184</title>
<polygon fill="none" stroke="#000000" points="791.7961,-196 668.2039,-196 668.2039,-160 791.7961,-160 791.7961,-196"/>
<text text-anchor="middle" x="730" y="-173.8" font-family="Times,serif" font-size="14.00" fill="#000000">transmit e&#45;&gt;exec_2</text>
</g>
<!-- node_178&#45;&gt;node_184 -->
<g id="edge31" class="edge">
<title>node_178&#45;&gt;node_184</title>
<path fill="none" stroke="#000000" d="M576.9859,-235.4412C579.6851,-234.2513 582.3839,-233.089 585,-232 612.2681,-220.6491 642.8614,-209.0871 668.8933,-199.5893"/>
<polygon fill="#000000" stroke="#000000" points="670.4247,-202.7569 678.6305,-196.055 668.0363,-196.177 670.4247,-202.7569"/>
</g>
<!-- node_180 -->
<g id="node32" class="node">
<title>node_180</title>
<polygon fill="none" stroke="#000000" points="569.0827,-196 444.9173,-196 444.9173,-160 569.0827,-160 569.0827,-196"/>
<text text-anchor="middle" x="507" y="-173.8" font-family="Times,serif" font-size="14.00" fill="#000000">transmit b&#45;&gt;exec_1</text>
</g>
<!-- node_180&#45;&gt;node_160 -->
<g id="edge47" class="edge">
<title>node_180&#45;&gt;node_160</title>
<path fill="none" stroke="#000000" stroke-dasharray="1,5" d="M569.4497,-185.762C596.9011,-189.0792 629.534,-192.8942 659,-196 1139.2778,-246.623 1268.9527,-194.0158 1741,-296 1847.199,-318.9439 1908.9859,-287.4909 1972,-376 2018.3982,-441.1706 2000.8133,-481.369 1972,-556 1967.8808,-566.6694 1960.5664,-576.5335 1952.8251,-584.8319"/>
<polygon fill="#000000" stroke="#000000" points="1950.2652,-582.442 1945.675,-591.9909 1955.2181,-587.3887 1950.2652,-582.442"/>
</g>
<!-- node_183&#45;&gt;node_180 -->
<g id="edge38" class="edge">
<title>node_183&#45;&gt;node_180</title>
<path fill="none" stroke="#000000" d="M476.346,-231.8314C480.9237,-223.7925 486.4052,-214.1666 491.4588,-205.2918"/>
<polygon fill="#000000" stroke="#000000" points="494.6077,-206.8351 496.5147,-196.4133 488.5248,-203.3712 494.6077,-206.8351"/>
</g>
<!-- node_184&#45;&gt;node_186 -->
<g id="edge40" class="edge">
<title>node_184&#45;&gt;node_186</title>
<path fill="none" stroke="#000000" stroke-dasharray="1,5" d="M792.0956,-179.4725C1031.3591,-185.3151 1882.8123,-207.7293 1935,-232 1950.2576,-239.0958 1978.3914,-271.8414 1997.6376,-295.7944"/>
<polygon fill="#000000" stroke="#000000" points="1995.0752,-298.1955 2004.0389,-303.8438 2000.554,-293.8385 1995.0752,-298.1955"/>
</g>
<!-- node_185 -->
<g id="node37" class="node">
<title>node_185</title>
<polygon fill="none" stroke="#000000" points="217,-340 128.9961,-322 217,-304 305.0039,-322 217,-340"/>
<text text-anchor="middle" x="217" y="-317.8" font-family="Times,serif" font-size="14.00" fill="#000000">client executor</text>
</g>
</g>
</svg>
