<?xml version="1.0" encoding="UTF-8" standalone="no"?>
<!DOCTYPE svg PUBLIC "-//W3C//DTD SVG 1.1//EN"
 "http://www.w3.org/Graphics/SVG/1.1/DTD/svg11.dtd">
<!-- Generated by graphviz version 2.40.1 (20161225.0304)
 -->
<!-- Title: %3 Pages: 1 -->
<svg width="2595pt" height="580pt"
 viewBox="0.00 0.00 2595.00 580.00" xmlns="http://www.w3.org/2000/svg" xmlns:xlink="http://www.w3.org/1999/xlink">
<g id="graph0" class="graph" transform="scale(1 1) rotate(0) translate(4 576)">
<title>%3</title>
<polygon fill="#ffffff" stroke="transparent" points="-4,4 -4,-576 2591,-576 2591,4 -4,4"/>
<g id="clust1" class="cluster">
<title>cluster_588050316</title>
<polygon fill="none" stroke="#000000" points="8,-80 8,-420 344,-420 344,-80 8,-80"/>
</g>
<g id="clust2" class="cluster">
<title>cluster_1451600511</title>
<polygon fill="none" stroke="#000000" points="352,-8 352,-204 1437,-204 1437,-8 352,-8"/>
</g>
<g id="clust3" class="cluster">
<title>cluster_960483731</title>
<polygon fill="none" stroke="#000000" points="1804,-152 1804,-564 2383,-564 2383,-152 1804,-152"/>
</g>
<!-- node_256 -->
<g id="node1" class="node">
<title>node_256</title>
<polygon fill="none" stroke="#000000" points="335.9081,-412 244.0919,-412 244.0919,-376 335.9081,-376 335.9081,-412"/>
<text text-anchor="middle" x="290" y="-389.8" font-family="Times,serif" font-size="14.00" fill="#000000">accept f &#160;as is</text>
</g>
<!-- node_258 -->
<g id="node3" class="node">
<title>node_258</title>
<polygon fill="none" stroke="#000000" points="335.5313,-340 118.4687,-340 118.4687,-304 335.5313,-304 335.5313,-340"/>
<text text-anchor="middle" x="227" y="-317.8" font-family="Times,serif" font-size="14.00" fill="#000000">cast f from Arr to demo.types.Punkt</text>
</g>
<!-- node_256&#45;&gt;node_258 -->
<g id="edge2" class="edge">
<title>node_256&#45;&gt;node_258</title>
<path fill="none" stroke="#000000" d="M274.1024,-375.8314C266.7722,-367.454 257.934,-357.3531 249.9031,-348.1749"/>
<polygon fill="#000000" stroke="#000000" points="252.3307,-345.6343 243.1116,-340.4133 247.0627,-350.2438 252.3307,-345.6343"/>
</g>
<!-- node_257 -->
<g id="node2" class="node">
<title>node_257</title>
<polygon fill="none" stroke="#000000" points="150,-196 96,-196 96,-160 150,-160 150,-196"/>
<text text-anchor="middle" x="123" y="-173.8" font-family="Times,serif" font-size="14.00" fill="#000000">store e</text>
</g>
<!-- node_259 -->
<g id="node4" class="node">
<title>node_259</title>
<polygon fill="none" stroke="#000000" points="336.0971,-124 145.9029,-124 145.9029,-88 336.0971,-88 336.0971,-124"/>
<text text-anchor="middle" x="241" y="-101.8" font-family="Times,serif" font-size="14.00" fill="#000000">FinishNode &amp;finished&amp;exec_2</text>
</g>
<!-- node_257&#45;&gt;node_259 -->
<g id="edge3" class="edge">
<title>node_257&#45;&gt;node_259</title>
<path fill="none" stroke="#000000" d="M147.1386,-159.9936C151.0529,-157.2407 155.1015,-154.4898 159,-152 171.2877,-144.1524 184.9833,-136.1811 197.6084,-129.1277"/>
<polygon fill="#000000" stroke="#000000" points="199.519,-132.0708 206.5768,-124.1689 196.1318,-125.9448 199.519,-132.0708"/>
</g>
<!-- node_263 -->
<g id="node8" class="node">
<title>node_263</title>
<polygon fill="none" stroke="#000000" points="258.2688,-268 95.7312,-268 95.7312,-232 258.2688,-232 258.2688,-268"/>
<text text-anchor="middle" x="177" y="-245.8" font-family="Times,serif" font-size="14.00" fill="#000000">d = e::liagtAufGerade([f])</text>
</g>
<!-- node_258&#45;&gt;node_263 -->
<g id="edge5" class="edge">
<title>node_258&#45;&gt;node_263</title>
<path fill="none" stroke="#000000" d="M214.3829,-303.8314C208.6828,-295.6232 201.8337,-285.7606 195.5641,-276.7323"/>
<polygon fill="#000000" stroke="#000000" points="198.3658,-274.6306 189.787,-268.4133 192.6162,-278.6234 198.3658,-274.6306"/>
</g>
<!-- node_245 -->
<g id="node13" class="node">
<title>node_245</title>
<polygon fill="none" stroke="#000000" points="775.0045,-124 582.9955,-124 582.9955,-88 775.0045,-88 775.0045,-124"/>
<text text-anchor="middle" x="679" y="-101.8" font-family="Times,serif" font-size="14.00" fill="#000000">accept &amp;finished&amp;exec_2 &#160;as is</text>
</g>
<!-- node_259&#45;&gt;node_245 -->
<g id="edge44" class="edge">
<title>node_259&#45;&gt;node_245</title>
<path fill="none" stroke="#000000" stroke-dasharray="1,5" d="M294.6651,-124.0435C314.069,-129.7009 336.2978,-135.1969 357,-138 448.1681,-150.3444 472.8457,-150.4459 564,-138 581.1646,-135.6564 599.3815,-131.4313 616.1333,-126.8033"/>
<polygon fill="#000000" stroke="#000000" points="617.1521,-130.1524 625.8081,-124.0431 615.2316,-123.421 617.1521,-130.1524"/>
</g>
<!-- node_260 -->
<g id="node5" class="node">
<title>node_260</title>
<polygon fill="none" stroke="#000000" points="226.459,-412 133.541,-412 133.541,-376 226.459,-376 226.459,-412"/>
<text text-anchor="middle" x="180" y="-389.8" font-family="Times,serif" font-size="14.00" fill="#000000">accept e &#160;as is</text>
</g>
<!-- node_262 -->
<g id="node7" class="node">
<title>node_262</title>
<polygon fill="none" stroke="#000000" points="100,-340 46,-340 46,-304 100,-304 100,-340"/>
<text text-anchor="middle" x="73" y="-317.8" font-family="Times,serif" font-size="14.00" fill="#000000">load e</text>
</g>
<!-- node_260&#45;&gt;node_262 -->
<g id="edge4" class="edge">
<title>node_260&#45;&gt;node_262</title>
<path fill="none" stroke="#000000" d="M152.9994,-375.8314C139.5669,-366.7927 123.1527,-355.7476 108.6961,-346.0198"/>
<polygon fill="#000000" stroke="#000000" points="110.2425,-342.8418 99.992,-340.1628 106.3346,-348.6494 110.2425,-342.8418"/>
</g>
<!-- node_261 -->
<g id="node6" class="node">
<title>node_261</title>
<polygon fill="none" stroke="#000000" points="335.7307,-196 168.2693,-196 168.2693,-160 335.7307,-160 335.7307,-196"/>
<text text-anchor="middle" x="252" y="-173.8" font-family="Times,serif" font-size="14.00" fill="#000000">transmit d&#45;&gt;client executor</text>
</g>
<!-- node_261&#45;&gt;node_259 -->
<g id="edge7" class="edge">
<title>node_261&#45;&gt;node_259</title>
<path fill="none" stroke="#000000" d="M249.2242,-159.8314C248.0478,-152.131 246.6489,-142.9743 245.3414,-134.4166"/>
<polygon fill="#000000" stroke="#000000" points="248.7833,-133.7699 243.8131,-124.4133 241.8636,-134.8272 248.7833,-133.7699"/>
</g>
<!-- node_253 -->
<g id="node21" class="node">
<title>node_253</title>
<polygon fill="none" stroke="#000000" points="453.7455,-124 360.2545,-124 360.2545,-88 453.7455,-88 453.7455,-124"/>
<text text-anchor="middle" x="407" y="-101.8" font-family="Times,serif" font-size="14.00" fill="#000000">accept d &#160;as is</text>
</g>
<!-- node_261&#45;&gt;node_253 -->
<g id="edge45" class="edge">
<title>node_261&#45;&gt;node_253</title>
<path fill="none" stroke="#000000" stroke-dasharray="1,5" d="M291.113,-159.8314C311.7512,-150.2446 337.2484,-138.4008 359.0673,-128.2655"/>
<polygon fill="#000000" stroke="#000000" points="360.5734,-131.4251 368.1682,-124.038 357.6244,-125.0766 360.5734,-131.4251"/>
</g>
<!-- node_262&#45;&gt;node_263 -->
<g id="edge1" class="edge">
<title>node_262&#45;&gt;node_263</title>
<path fill="none" stroke="#000000" d="M99.2436,-303.8314C112.2995,-294.7927 128.2535,-283.7476 142.3047,-274.0198"/>
<polygon fill="#000000" stroke="#000000" points="144.5351,-276.7326 150.7648,-268.1628 140.5506,-270.9773 144.5351,-276.7326"/>
</g>
<!-- node_263&#45;&gt;node_257 -->
<g id="edge6" class="edge">
<title>node_263&#45;&gt;node_257</title>
<path fill="none" stroke="#000000" d="M163.3735,-231.8314C157.154,-223.5386 149.6678,-213.557 142.84,-204.4533"/>
<polygon fill="#000000" stroke="#000000" points="145.61,-202.3133 136.81,-196.4133 140.01,-206.5133 145.61,-202.3133"/>
</g>
<!-- node_263&#45;&gt;node_261 -->
<g id="edge8" class="edge">
<title>node_263&#45;&gt;node_261</title>
<path fill="none" stroke="#000000" d="M195.9257,-231.8314C204.9857,-223.1337 215.9809,-212.5783 225.8265,-203.1265"/>
<polygon fill="#000000" stroke="#000000" points="228.2904,-205.613 233.0804,-196.1628 223.4426,-200.5633 228.2904,-205.613"/>
</g>
<!-- node_264 -->
<g id="node9" class="node">
<title>node_264</title>
<polygon fill="none" stroke="#000000" points="66,-412 16.0871,-394 66,-376 115.9129,-394 66,-412"/>
<text text-anchor="middle" x="66" y="-389.8" font-family="Times,serif" font-size="14.00" fill="#000000">exec_2</text>
</g>
<!-- node_265 -->
<g id="node10" class="node">
<title>node_265</title>
<polygon fill="none" stroke="#000000" points="1611.4443,-196 1444.5557,-196 1444.5557,-160 1611.4443,-160 1611.4443,-196"/>
<text text-anchor="middle" x="1528" y="-173.8" font-family="Times,serif" font-size="14.00" fill="#000000">transmit c&#45;&gt;client executor</text>
</g>
<!-- node_249 -->
<g id="node17" class="node">
<title>node_249</title>
<polygon fill="none" stroke="#000000" points="995.459,-124 902.541,-124 902.541,-88 995.459,-88 995.459,-124"/>
<text text-anchor="middle" x="949" y="-101.8" font-family="Times,serif" font-size="14.00" fill="#000000">accept c &#160;as is</text>
</g>
<!-- node_265&#45;&gt;node_249 -->
<g id="edge41" class="edge">
<title>node_265&#45;&gt;node_249</title>
<path fill="none" stroke="#000000" stroke-dasharray="1,5" d="M1474.6247,-159.9826C1463.6153,-156.8525 1452.0172,-153.9737 1441,-152 1253.0391,-118.3273 1197.6052,-158.8194 1005.3812,-123.7457"/>
<polygon fill="#000000" stroke="#000000" points="1006.0005,-120.301 995.5276,-121.9041 1004.7144,-127.1818 1006.0005,-120.301"/>
</g>
<!-- node_243 -->
<g id="node11" class="node">
<title>node_243</title>
<polygon fill="none" stroke="#000000" points="1317.0045,-124 1124.9955,-124 1124.9955,-88 1317.0045,-88 1317.0045,-124"/>
<text text-anchor="middle" x="1221" y="-101.8" font-family="Times,serif" font-size="14.00" fill="#000000">accept &amp;finished&amp;exec_1 &#160;as is</text>
</g>
<!-- node_244 -->
<g id="node12" class="node">
<title>node_244</title>
<polygon fill="none" stroke="#000000" points="983.5381,-196 906.4619,-196 906.4619,-160 983.5381,-160 983.5381,-196"/>
<text text-anchor="middle" x="945" y="-173.8" font-family="Times,serif" font-size="14.00" fill="#000000">send graph</text>
</g>
<!-- node_244&#45;&gt;node_243 -->
<g id="edge25" class="edge">
<title>node_244&#45;&gt;node_243</title>
<path fill="none" stroke="#000000" d="M983.6672,-167.9129C1024.5041,-157.2598 1090.0285,-140.1665 1141.8924,-126.6368"/>
<polygon fill="#000000" stroke="#000000" points="1142.947,-129.9789 1151.7397,-124.0679 1141.18,-123.2055 1142.947,-129.9789"/>
</g>
<!-- node_244&#45;&gt;node_245 -->
<g id="edge9" class="edge">
<title>node_244&#45;&gt;node_245</title>
<path fill="none" stroke="#000000" d="M910.6487,-159.9836C904.229,-157.0429 897.4941,-154.2331 891,-152 870.5143,-144.9557 825.6298,-134.9535 782.4116,-126.0742"/>
<polygon fill="#000000" stroke="#000000" points="782.8528,-122.5921 772.3548,-124.0216 781.4529,-129.4507 782.8528,-122.5921"/>
</g>
<!-- node_246 -->
<g id="node14" class="node">
<title>node_246</title>
<polygon fill="none" stroke="#000000" points="1106.459,-124 1013.541,-124 1013.541,-88 1106.459,-88 1106.459,-124"/>
<text text-anchor="middle" x="1060" y="-101.8" font-family="Times,serif" font-size="14.00" fill="#000000">accept e &#160;as is</text>
</g>
<!-- node_244&#45;&gt;node_246 -->
<g id="edge10" class="edge">
<title>node_244&#45;&gt;node_246</title>
<path fill="none" stroke="#000000" d="M974.0194,-159.8314C988.7286,-150.6221 1006.7644,-139.3301 1022.5122,-129.4706"/>
<polygon fill="#000000" stroke="#000000" points="1024.3714,-132.436 1030.9899,-124.1628 1020.6567,-126.5029 1024.3714,-132.436"/>
</g>
<!-- node_247 -->
<g id="node15" class="node">
<title>node_247</title>
<polygon fill="none" stroke="#000000" points="1428.7455,-124 1335.2545,-124 1335.2545,-88 1428.7455,-88 1428.7455,-124"/>
<text text-anchor="middle" x="1382" y="-101.8" font-family="Times,serif" font-size="14.00" fill="#000000">accept b &#160;as is</text>
</g>
<!-- node_244&#45;&gt;node_247 -->
<g id="edge11" class="edge">
<title>node_244&#45;&gt;node_247</title>
<path fill="none" stroke="#000000" d="M983.5199,-174.727C1050.9791,-168.5245 1194.9036,-153.1979 1324.972,-124.0207"/>
<polygon fill="#000000" stroke="#000000" points="1326.1349,-127.3455 1335.1079,-121.712 1324.5803,-120.5203 1326.1349,-127.3455"/>
</g>
<!-- node_248 -->
<g id="node16" class="node">
<title>node_248</title>
<polygon fill="none" stroke="#000000" points="884.9081,-124 793.0919,-124 793.0919,-88 884.9081,-88 884.9081,-124"/>
<text text-anchor="middle" x="839" y="-101.8" font-family="Times,serif" font-size="14.00" fill="#000000">accept f &#160;as is</text>
</g>
<!-- node_244&#45;&gt;node_248 -->
<g id="edge13" class="edge">
<title>node_244&#45;&gt;node_248</title>
<path fill="none" stroke="#000000" d="M918.2517,-159.8314C904.9447,-150.7927 888.684,-139.7476 874.3625,-130.0198"/>
<polygon fill="#000000" stroke="#000000" points="875.9785,-126.8864 865.7397,-124.1628 872.0453,-132.677 875.9785,-126.8864"/>
</g>
<!-- node_244&#45;&gt;node_249 -->
<g id="edge16" class="edge">
<title>node_244&#45;&gt;node_249</title>
<path fill="none" stroke="#000000" d="M946.0094,-159.8314C946.4372,-152.131 946.9459,-142.9743 947.4213,-134.4166"/>
<polygon fill="#000000" stroke="#000000" points="950.9169,-134.592 947.977,-124.4133 943.9276,-134.2037 950.9169,-134.592"/>
</g>
<!-- node_244&#45;&gt;node_253 -->
<g id="edge18" class="edge">
<title>node_244&#45;&gt;node_253</title>
<path fill="none" stroke="#000000" d="M912.641,-159.9645C905.687,-156.7942 898.2456,-153.9044 891,-152 709.784,-104.3694 652.2282,-157.7705 463.7859,-123.8272"/>
<polygon fill="#000000" stroke="#000000" points="464.308,-120.3644 453.8365,-121.9765 463.0278,-127.2463 464.308,-120.3644"/>
</g>
<!-- node_254 -->
<g id="node22" class="node">
<title>node_254</title>
<polygon fill="none" stroke="#000000" points="564.459,-124 471.541,-124 471.541,-88 564.459,-88 564.459,-124"/>
<text text-anchor="middle" x="518" y="-101.8" font-family="Times,serif" font-size="14.00" fill="#000000">accept a &#160;as is</text>
</g>
<!-- node_244&#45;&gt;node_254 -->
<g id="edge19" class="edge">
<title>node_244&#45;&gt;node_254</title>
<path fill="none" stroke="#000000" d="M912.3167,-159.9599C905.4487,-156.8316 898.1231,-153.9592 891,-152 757.69,-115.3333 714.5649,-150.388 574.3647,-123.7531"/>
<polygon fill="#000000" stroke="#000000" points="575.0326,-120.3175 564.5445,-121.8178 573.6791,-127.1854 575.0326,-120.3175"/>
</g>
<!-- node_252 -->
<g id="node20" class="node">
<title>node_252</title>
<polygon fill="none" stroke="#000000" points="802.7961,-52 679.2039,-52 679.2039,-16 802.7961,-16 802.7961,-52"/>
<text text-anchor="middle" x="741" y="-29.8" font-family="Times,serif" font-size="14.00" fill="#000000">transmit e&#45;&gt;exec_2</text>
</g>
<!-- node_246&#45;&gt;node_252 -->
<g id="edge17" class="edge">
<title>node_246&#45;&gt;node_252</title>
<path fill="none" stroke="#000000" d="M1024.7049,-87.9248C1017.9541,-84.9543 1010.8526,-82.1492 1004,-80 940.9467,-60.2248 866.5589,-48.209 813.0145,-41.4432"/>
<polygon fill="#000000" stroke="#000000" points="813.2833,-37.95 802.9302,-40.1998 812.4267,-44.8974 813.2833,-37.95"/>
</g>
<!-- node_251 -->
<g id="node19" class="node">
<title>node_251</title>
<polygon fill="none" stroke="#000000" points="1429.0827,-52 1304.9173,-52 1304.9173,-16 1429.0827,-16 1429.0827,-52"/>
<text text-anchor="middle" x="1367" y="-29.8" font-family="Times,serif" font-size="14.00" fill="#000000">transmit b&#45;&gt;exec_1</text>
</g>
<!-- node_247&#45;&gt;node_251 -->
<g id="edge14" class="edge">
<title>node_247&#45;&gt;node_251</title>
<path fill="none" stroke="#000000" d="M1378.2149,-87.8314C1376.6106,-80.131 1374.703,-70.9743 1372.9201,-62.4166"/>
<polygon fill="#000000" stroke="#000000" points="1376.3021,-61.4892 1370.8361,-52.4133 1369.4493,-62.9169 1376.3021,-61.4892"/>
</g>
<!-- node_250 -->
<g id="node18" class="node">
<title>node_250</title>
<polygon fill="none" stroke="#000000" points="881.5381,-196 804.4619,-196 804.4619,-160 881.5381,-160 881.5381,-196"/>
<text text-anchor="middle" x="843" y="-173.8" font-family="Times,serif" font-size="14.00" fill="#000000">send graph</text>
</g>
<!-- node_250&#45;&gt;node_243 -->
<g id="edge20" class="edge">
<title>node_250&#45;&gt;node_243</title>
<path fill="none" stroke="#000000" d="M876.3274,-159.9151C883.0209,-156.8704 890.1167,-154.0408 897,-152 987.6369,-125.1272 1016.5271,-137.5324 1114.7801,-123.9508"/>
<polygon fill="#000000" stroke="#000000" points="1115.4313,-127.3932 1124.8311,-122.5051 1114.4346,-120.4645 1115.4313,-127.3932"/>
</g>
<!-- node_250&#45;&gt;node_245 -->
<g id="edge21" class="edge">
<title>node_250&#45;&gt;node_245</title>
<path fill="none" stroke="#000000" d="M804.1343,-160.937C781.8076,-151.135 753.5167,-138.7147 729.4852,-128.1642"/>
<polygon fill="#000000" stroke="#000000" points="730.7276,-124.8873 720.1642,-124.0721 727.9136,-131.2968 730.7276,-124.8873"/>
</g>
<!-- node_250&#45;&gt;node_246 -->
<g id="edge22" class="edge">
<title>node_250&#45;&gt;node_246</title>
<path fill="none" stroke="#000000" d="M878.0153,-159.9404C884.2497,-157.0721 890.7498,-154.298 897,-152 940.3437,-136.0636 955.0309,-137.4924 1003.4993,-124.0194"/>
<polygon fill="#000000" stroke="#000000" points="1004.6527,-127.3301 1013.3082,-121.2202 1002.7316,-120.5989 1004.6527,-127.3301"/>
</g>
<!-- node_250&#45;&gt;node_247 -->
<g id="edge23" class="edge">
<title>node_250&#45;&gt;node_247</title>
<path fill="none" stroke="#000000" d="M875.3588,-159.9637C882.3128,-156.7934 889.7543,-153.9039 897,-152 1078.6412,-104.2724 1136.3289,-157.8335 1325.192,-123.831"/>
<polygon fill="#000000" stroke="#000000" points="1325.9719,-127.2461 1335.1636,-121.977 1324.6922,-120.364 1325.9719,-127.2461"/>
</g>
<!-- node_250&#45;&gt;node_248 -->
<g id="edge24" class="edge">
<title>node_250&#45;&gt;node_248</title>
<path fill="none" stroke="#000000" d="M841.9906,-159.8314C841.5628,-152.131 841.0541,-142.9743 840.5787,-134.4166"/>
<polygon fill="#000000" stroke="#000000" points="844.0724,-134.2037 840.023,-124.4133 837.0831,-134.592 844.0724,-134.2037"/>
</g>
<!-- node_250&#45;&gt;node_249 -->
<g id="edge26" class="edge">
<title>node_250&#45;&gt;node_249</title>
<path fill="none" stroke="#000000" d="M869.7483,-159.8314C883.0553,-150.7927 899.316,-139.7476 913.6375,-130.0198"/>
<polygon fill="#000000" stroke="#000000" points="915.9547,-132.677 922.2603,-124.1628 912.0215,-126.8864 915.9547,-132.677"/>
</g>
<!-- node_250&#45;&gt;node_253 -->
<g id="edge12" class="edge">
<title>node_250&#45;&gt;node_253</title>
<path fill="none" stroke="#000000" d="M804.203,-163.1207C791.8375,-158.9073 777.9913,-154.7296 765,-152 636.3032,-124.9591 596.9768,-149.7355 464.0162,-123.9162"/>
<polygon fill="#000000" stroke="#000000" points="464.348,-120.4133 453.8554,-121.8812 462.9733,-127.2769 464.348,-120.4133"/>
</g>
<!-- node_250&#45;&gt;node_254 -->
<g id="edge15" class="edge">
<title>node_250&#45;&gt;node_254</title>
<path fill="none" stroke="#000000" d="M804.1093,-163.5391C791.7394,-159.3454 777.9143,-155.0736 765,-152 684.551,-132.8529 659.3799,-142.6413 574.404,-123.8488"/>
<polygon fill="#000000" stroke="#000000" points="575.1171,-120.4216 564.5893,-121.6118 573.5615,-127.2466 575.1171,-120.4216"/>
</g>
<!-- node_231 -->
<g id="node27" class="node">
<title>node_231</title>
<polygon fill="none" stroke="#000000" points="2373.7455,-484 2280.2545,-484 2280.2545,-448 2373.7455,-448 2373.7455,-484"/>
<text text-anchor="middle" x="2327" y="-461.8" font-family="Times,serif" font-size="14.00" fill="#000000">accept b &#160;as is</text>
</g>
<!-- node_251&#45;&gt;node_231 -->
<g id="edge50" class="edge">
<title>node_251&#45;&gt;node_231</title>
<path fill="none" stroke="#000000" stroke-dasharray="1,5" d="M1429.1772,-34.7312C1677.7895,-38.4629 2587,-60.1651 2587,-178 2587,-322 2587,-322 2587,-322 2587,-414.2217 2460.2737,-447.8617 2383.7682,-459.7676"/>
<polygon fill="#000000" stroke="#000000" points="2383.164,-456.3188 2373.7831,-461.2431 2384.1873,-463.2436 2383.164,-456.3188"/>
</g>
<!-- node_252&#45;&gt;node_260 -->
<g id="edge46" class="edge">
<title>node_252&#45;&gt;node_260</title>
<path fill="none" stroke="#000000" stroke-dasharray="1,5" d="M679.0927,-36.5957C535.14,-42.9339 186.3624,-60.1426 137,-80 73.4354,-105.5706 18,-109.4849 18,-178 18,-250 18,-250 18,-250 18,-290.8816 10.3863,-308.9674 37,-340 40.1155,-343.6328 85.1375,-360.3219 123.8422,-374.1971"/>
<polygon fill="#000000" stroke="#000000" points="122.9223,-377.5851 133.5169,-377.6545 125.2779,-370.9934 122.9223,-377.5851"/>
</g>
<!-- node_255 -->
<g id="node23" class="node">
<title>node_255</title>
<polygon fill="none" stroke="#000000" points="668,-196 579.9961,-178 668,-160 756.0039,-178 668,-196"/>
<text text-anchor="middle" x="668" y="-173.8" font-family="Times,serif" font-size="14.00" fill="#000000">client executor</text>
</g>
<!-- node_266 -->
<g id="node24" class="node">
<title>node_266</title>
<polygon fill="none" stroke="#000000" points="1796.4443,-196 1629.5557,-196 1629.5557,-160 1796.4443,-160 1796.4443,-196"/>
<text text-anchor="middle" x="1713" y="-173.8" font-family="Times,serif" font-size="14.00" fill="#000000">transmit e&#45;&gt;client executor</text>
</g>
<!-- node_266&#45;&gt;node_246 -->
<g id="edge49" class="edge">
<title>node_266&#45;&gt;node_246</title>
<path fill="none" stroke="#000000" stroke-dasharray="1,5" d="M1655.8907,-159.9361C1644.1262,-156.8096 1631.7433,-153.944 1620,-152 1401.909,-115.8968 1338.442,-163.4489 1116.5251,-123.7635"/>
<polygon fill="#000000" stroke="#000000" points="1116.9881,-120.2903 1106.5218,-121.9352 1115.7295,-127.1762 1116.9881,-120.2903"/>
</g>
<!-- node_267 -->
<g id="node25" class="node">
<title>node_267</title>
<polygon fill="none" stroke="#000000" points="2558.7307,-196 2391.2693,-196 2391.2693,-160 2558.7307,-160 2558.7307,-196"/>
<text text-anchor="middle" x="2475" y="-173.8" font-family="Times,serif" font-size="14.00" fill="#000000">transmit b&#45;&gt;client executor</text>
</g>
<!-- node_267&#45;&gt;node_247 -->
<g id="edge51" class="edge">
<title>node_267&#45;&gt;node_247</title>
<path fill="none" stroke="#000000" stroke-dasharray="1,5" d="M2421.4978,-159.9594C2410.2211,-156.7894 2398.3114,-153.9011 2387,-152 2202.524,-120.9958 1623.1561,-109.6706 1438.8764,-106.7989"/>
<polygon fill="#000000" stroke="#000000" points="1438.9062,-103.299 1428.8536,-106.645 1438.7987,-110.2982 1438.9062,-103.299"/>
</g>
<!-- node_230 -->
<g id="node26" class="node">
<title>node_230</title>
<polygon fill="none" stroke="#000000" points="2125.7033,-484 1860.2967,-484 1860.2967,-448 2125.7033,-448 2125.7033,-484"/>
<text text-anchor="middle" x="1993" y="-461.8" font-family="Times,serif" font-size="14.00" fill="#000000">a = demo.math.Addierer::__construct([100])</text>
</g>
<!-- node_237 -->
<g id="node33" class="node">
<title>node_237</title>
<polygon fill="none" stroke="#000000" points="2098.5176,-412 1979.4824,-412 1979.4824,-376 2098.5176,-376 2098.5176,-412"/>
<text text-anchor="middle" x="2039" y="-389.8" font-family="Times,serif" font-size="14.00" fill="#000000">d = a::addier([20])</text>
</g>
<!-- node_230&#45;&gt;node_237 -->
<g id="edge32" class="edge">
<title>node_230&#45;&gt;node_237</title>
<path fill="none" stroke="#000000" d="M2004.6077,-447.8314C2009.7978,-439.7079 2016.0232,-429.9637 2021.7425,-421.0118"/>
<polygon fill="#000000" stroke="#000000" points="2024.8015,-422.7246 2027.236,-412.4133 2018.9026,-418.9559 2024.8015,-422.7246"/>
</g>
<!-- node_241 -->
<g id="node37" class="node">
<title>node_241</title>
<polygon fill="none" stroke="#000000" points="2375.2384,-412 2116.7616,-412 2116.7616,-376 2375.2384,-376 2375.2384,-412"/>
<text text-anchor="middle" x="2246" y="-389.8" font-family="Times,serif" font-size="14.00" fill="#000000">cast b from Arr to demo.types.NummerList</text>
</g>
<!-- node_231&#45;&gt;node_241 -->
<g id="edge33" class="edge">
<title>node_231&#45;&gt;node_241</title>
<path fill="none" stroke="#000000" d="M2306.5603,-447.8314C2296.6795,-439.0485 2284.6676,-428.3712 2273.955,-418.8489"/>
<polygon fill="#000000" stroke="#000000" points="2276.2326,-416.1906 2266.4332,-412.1628 2271.582,-421.4224 2276.2326,-416.1906"/>
</g>
<!-- node_232 -->
<g id="node28" class="node">
<title>node_232</title>
<polygon fill="none" stroke="#000000" points="2375,-268 2321,-268 2321,-232 2375,-232 2375,-268"/>
<text text-anchor="middle" x="2348" y="-245.8" font-family="Times,serif" font-size="14.00" fill="#000000">store a</text>
</g>
<!-- node_234 -->
<g id="node30" class="node">
<title>node_234</title>
<polygon fill="none" stroke="#000000" points="2153.0971,-196 1962.9029,-196 1962.9029,-160 2153.0971,-160 2153.0971,-196"/>
<text text-anchor="middle" x="2058" y="-173.8" font-family="Times,serif" font-size="14.00" fill="#000000">FinishNode &amp;finished&amp;exec_1</text>
</g>
<!-- node_232&#45;&gt;node_234 -->
<g id="edge28" class="edge">
<title>node_232&#45;&gt;node_234</title>
<path fill="none" stroke="#000000" d="M2320.7955,-235.5014C2317.8701,-234.2134 2314.9021,-233.0154 2312,-232 2264.3275,-215.3206 2209.7365,-202.8981 2163.4119,-194.201"/>
<polygon fill="#000000" stroke="#000000" points="2163.8231,-190.7179 2153.3542,-192.3465 2162.5538,-197.6018 2163.8231,-190.7179"/>
</g>
<!-- node_233 -->
<g id="node29" class="node">
<title>node_233</title>
<polygon fill="none" stroke="#000000" points="2260.3041,-484 2143.6959,-484 2143.6959,-448 2260.3041,-448 2260.3041,-484"/>
<text text-anchor="middle" x="2202" y="-461.8" font-family="Times,serif" font-size="14.00" fill="#000000">parse Number: 20</text>
</g>
<!-- node_233&#45;&gt;node_237 -->
<g id="edge29" class="edge">
<title>node_233&#45;&gt;node_237</title>
<path fill="none" stroke="#000000" d="M2160.8682,-447.8314C2139.0679,-438.2018 2112.1122,-426.295 2089.0996,-416.1299"/>
<polygon fill="#000000" stroke="#000000" points="2090.3976,-412.877 2079.836,-412.038 2087.5692,-419.2802 2090.3976,-412.877"/>
</g>
<!-- node_234&#45;&gt;node_243 -->
<g id="edge48" class="edge">
<title>node_234&#45;&gt;node_243</title>
<path fill="none" stroke="#000000" stroke-dasharray="1,5" d="M1962.88,-167.2245C1915.4803,-162.1099 1857.2646,-156.211 1805,-152 1595.7578,-135.141 1539.61,-147.8645 1327.2983,-124.0705"/>
<polygon fill="#000000" stroke="#000000" points="1327.3998,-120.5597 1317.0689,-122.9096 1326.6104,-127.515 1327.3998,-120.5597"/>
</g>
<!-- node_235 -->
<g id="node31" class="node">
<title>node_235</title>
<polygon fill="none" stroke="#000000" points="2208.172,-340 2069.828,-340 2069.828,-304 2208.172,-304 2208.172,-340"/>
<text text-anchor="middle" x="2139" y="-317.8" font-family="Times,serif" font-size="14.00" fill="#000000">f = a::addierListe([b])</text>
</g>
<!-- node_235&#45;&gt;node_232 -->
<g id="edge38" class="edge">
<title>node_235&#45;&gt;node_232</title>
<path fill="none" stroke="#000000" d="M2205.596,-303.9409C2235.7038,-295.1409 2271.7468,-283.7253 2311.1514,-268.0707"/>
<polygon fill="#000000" stroke="#000000" points="2312.7268,-271.2093 2320.6919,-264.2231 2310.1086,-264.7174 2312.7268,-271.2093"/>
</g>
<!-- node_236 -->
<g id="node32" class="node">
<title>node_236</title>
<polygon fill="none" stroke="#000000" points="1978.4443,-268 1811.5557,-268 1811.5557,-232 1978.4443,-232 1978.4443,-268"/>
<text text-anchor="middle" x="1895" y="-245.8" font-family="Times,serif" font-size="14.00" fill="#000000">transmit a&#45;&gt;client executor</text>
</g>
<!-- node_235&#45;&gt;node_236 -->
<g id="edge27" class="edge">
<title>node_235&#45;&gt;node_236</title>
<path fill="none" stroke="#000000" d="M2077.7434,-303.9243C2043.8071,-293.9103 2001.4519,-281.412 1966.0651,-270.97"/>
<polygon fill="#000000" stroke="#000000" points="1966.8635,-267.5565 1956.2818,-268.0831 1964.8823,-274.2703 1966.8635,-267.5565"/>
</g>
<!-- node_239 -->
<g id="node35" class="node">
<title>node_239</title>
<polygon fill="none" stroke="#000000" points="2302.893,-268 2137.107,-268 2137.107,-232 2302.893,-232 2302.893,-268"/>
<text text-anchor="middle" x="2220" y="-245.8" font-family="Times,serif" font-size="14.00" fill="#000000">transmit f&#45;&gt;client executor</text>
</g>
<!-- node_235&#45;&gt;node_239 -->
<g id="edge30" class="edge">
<title>node_235&#45;&gt;node_239</title>
<path fill="none" stroke="#000000" d="M2159.4397,-303.8314C2169.3205,-295.0485 2181.3324,-284.3712 2192.045,-274.8489"/>
<polygon fill="#000000" stroke="#000000" points="2194.418,-277.4224 2199.5668,-268.1628 2189.7674,-272.1906 2194.418,-277.4224"/>
</g>
<!-- node_240 -->
<g id="node36" class="node">
<title>node_240</title>
<polygon fill="none" stroke="#000000" points="2119.2444,-268 1996.7556,-268 1996.7556,-232 2119.2444,-232 2119.2444,-268"/>
<text text-anchor="middle" x="2058" y="-245.8" font-family="Times,serif" font-size="14.00" fill="#000000">transmit f&#45;&gt;exec_2</text>
</g>
<!-- node_235&#45;&gt;node_240 -->
<g id="edge31" class="edge">
<title>node_235&#45;&gt;node_240</title>
<path fill="none" stroke="#000000" d="M2118.5603,-303.8314C2108.6795,-295.0485 2096.6676,-284.3712 2085.955,-274.8489"/>
<polygon fill="#000000" stroke="#000000" points="2088.2326,-272.1906 2078.4332,-268.1628 2083.582,-277.4224 2088.2326,-272.1906"/>
</g>
<!-- node_236&#45;&gt;node_254 -->
<g id="edge43" class="edge">
<title>node_236&#45;&gt;node_254</title>
<path fill="none" stroke="#000000" stroke-dasharray="1,5" d="M1811.5045,-249.3739C1529.0202,-246.9602 623.7521,-236.6979 571,-204 546.081,-188.5542 532.0906,-157.0447 524.8231,-133.9077"/>
<polygon fill="#000000" stroke="#000000" points="528.1732,-132.8935 522.0247,-124.2653 521.4506,-134.8446 528.1732,-132.8935"/>
</g>
<!-- node_236&#45;&gt;node_234 -->
<g id="edge39" class="edge">
<title>node_236&#45;&gt;node_234</title>
<path fill="none" stroke="#000000" d="M1936.1318,-231.8314C1957.9321,-222.2018 1984.8878,-210.295 2007.9004,-200.1299"/>
<polygon fill="#000000" stroke="#000000" points="2009.4308,-203.2802 2017.164,-196.038 2006.6024,-196.877 2009.4308,-203.2802"/>
</g>
<!-- node_237&#45;&gt;node_235 -->
<g id="edge40" class="edge">
<title>node_237&#45;&gt;node_235</title>
<path fill="none" stroke="#000000" d="M2064.2342,-375.8314C2076.788,-366.7927 2092.1283,-355.7476 2105.6391,-346.0198"/>
<polygon fill="#000000" stroke="#000000" points="2107.7036,-348.8463 2113.7739,-340.1628 2103.6134,-343.1655 2107.7036,-348.8463"/>
</g>
<!-- node_238 -->
<g id="node34" class="node">
<title>node_238</title>
<polygon fill="none" stroke="#000000" points="2054.8041,-556 1931.1959,-556 1931.1959,-520 2054.8041,-520 2054.8041,-556"/>
<text text-anchor="middle" x="1993" y="-533.8" font-family="Times,serif" font-size="14.00" fill="#000000">parse Number: 100</text>
</g>
<!-- node_238&#45;&gt;node_230 -->
<g id="edge34" class="edge">
<title>node_238&#45;&gt;node_230</title>
<path fill="none" stroke="#000000" d="M1993,-519.8314C1993,-512.131 1993,-502.9743 1993,-494.4166"/>
<polygon fill="#000000" stroke="#000000" points="1996.5001,-494.4132 1993,-484.4133 1989.5001,-494.4133 1996.5001,-494.4132"/>
</g>
<!-- node_239&#45;&gt;node_248 -->
<g id="edge47" class="edge">
<title>node_239&#45;&gt;node_248</title>
<path fill="none" stroke="#000000" stroke-dasharray="1,5" d="M2136.8449,-233.1399C2133.8648,-232.7239 2130.9095,-232.3415 2128,-232 1822.2909,-196.1219 1742.463,-232.7356 1436,-204 1196.8792,-181.5788 1132.752,-179.8904 894.7488,-123.9734"/>
<polygon fill="#000000" stroke="#000000" points="895.2867,-120.5043 884.7504,-121.6167 893.6807,-127.3176 895.2867,-120.5043"/>
</g>
<!-- node_239&#45;&gt;node_234 -->
<g id="edge37" class="edge">
<title>node_239&#45;&gt;node_234</title>
<path fill="none" stroke="#000000" d="M2179.1206,-231.8314C2157.454,-222.2018 2130.6637,-210.295 2107.7922,-200.1299"/>
<polygon fill="#000000" stroke="#000000" points="2109.1451,-196.9011 2098.5855,-196.038 2106.3021,-203.2978 2109.1451,-196.9011"/>
</g>
<!-- node_240&#45;&gt;node_256 -->
<g id="edge42" class="edge">
<title>node_240&#45;&gt;node_256</title>
<path fill="none" stroke="#000000" stroke-dasharray="1,5" d="M1996.5639,-266.2722C1993.34,-266.9075 1990.1379,-267.4897 1987,-268 1348.2883,-371.8624 560.2224,-390.234 345.9696,-393.374"/>
<polygon fill="#000000" stroke="#000000" points="345.8574,-389.8752 335.908,-393.5163 345.9565,-396.8745 345.8574,-389.8752"/>
</g>
<!-- node_240&#45;&gt;node_234 -->
<g id="edge35" class="edge">
<title>node_240&#45;&gt;node_234</title>
<path fill="none" stroke="#000000" d="M2058,-231.8314C2058,-224.131 2058,-214.9743 2058,-206.4166"/>
<polygon fill="#000000" stroke="#000000" points="2061.5001,-206.4132 2058,-196.4133 2054.5001,-206.4133 2061.5001,-206.4132"/>
</g>
<!-- node_241&#45;&gt;node_235 -->
<g id="edge36" class="edge">
<title>node_241&#45;&gt;node_235</title>
<path fill="none" stroke="#000000" d="M2218.9994,-375.8314C2205.5669,-366.7927 2189.1527,-355.7476 2174.6961,-346.0198"/>
<polygon fill="#000000" stroke="#000000" points="2176.2425,-342.8418 2165.992,-340.1628 2172.3346,-348.6494 2176.2425,-342.8418"/>
</g>
<!-- node_242 -->
<g id="node38" class="node">
<title>node_242</title>
<polygon fill="none" stroke="#000000" points="1863,-556 1813.0871,-538 1863,-520 1912.9129,-538 1863,-556"/>
<text text-anchor="middle" x="1863" y="-533.8" font-family="Times,serif" font-size="14.00" fill="#000000">exec_1</text>
</g>
</g>
</svg>
