<?xml version="1.0" encoding="UTF-8" standalone="no"?>
<!DOCTYPE svg PUBLIC "-//W3C//DTD SVG 1.1//EN"
 "http://www.w3.org/Graphics/SVG/1.1/DTD/svg11.dtd">
<!-- Generated by graphviz version 2.40.1 (20161225.0304)
 -->
<!-- Title: %3 Pages: 1 -->
<svg width="1526pt" height="996pt"
 viewBox="0.00 0.00 1526.31 996.00" xmlns="http://www.w3.org/2000/svg" xmlns:xlink="http://www.w3.org/1999/xlink">
<g id="graph0" class="graph" transform="scale(1 1) rotate(0) translate(4 992)">
<title>%3</title>
<polygon fill="#ffffff" stroke="transparent" points="-4,4 -4,-992 1522.3101,-992 1522.3101,4 -4,4"/>
<g id="clust1" class="cluster">
<title>cluster_15767951</title>
<polygon fill="none" stroke="#000000" points="8,-8 8,-924 1140,-924 1140,-8 8,-8"/>
</g>
<!-- node_176 -->
<g id="node1" class="node">
<title>node_176</title>
<polygon fill="none" stroke="#000000" points="310.1205,-988 131.8795,-988 131.8795,-952 310.1205,-952 310.1205,-988"/>
<text text-anchor="middle" x="221" y="-965.8" font-family="Times,serif" font-size="14.00" fill="#000000">transmit in1&#45;&gt;client executor</text>
</g>
<!-- node_159 -->
<g id="node29" class="node">
<title>node_159</title>
<polygon fill="none" stroke="#000000" points="283.6349,-916 210.3651,-916 210.3651,-880 283.6349,-880 283.6349,-916"/>
<text text-anchor="middle" x="247" y="-893.8" font-family="Times,serif" font-size="14.00" fill="#000000">accept in1</text>
</g>
<!-- node_176&#45;&gt;node_159 -->
<g id="edge59" class="edge">
<title>node_176&#45;&gt;node_159</title>
<path fill="none" stroke="#000000" stroke-dasharray="1,5" d="M227.5609,-951.8314C230.4027,-943.9617 233.7937,-934.5712 236.9419,-925.8533"/>
<polygon fill="#000000" stroke="#000000" points="240.2462,-927.0076 240.3508,-916.4133 233.6623,-924.63 240.2462,-927.0076"/>
</g>
<!-- node_177 -->
<g id="node2" class="node">
<title>node_177</title>
<polygon fill="none" stroke="#000000" points="1321.6788,-916 1148.3212,-916 1148.3212,-880 1321.6788,-880 1321.6788,-916"/>
<text text-anchor="middle" x="1235" y="-893.8" font-family="Times,serif" font-size="14.00" fill="#000000">transmit s1&#45;&gt;client executor</text>
</g>
<!-- node_149 -->
<g id="node19" class="node">
<title>node_149</title>
<polygon fill="none" stroke="#000000" points="1040.6941,-844 973.3059,-844 973.3059,-808 1040.6941,-808 1040.6941,-844"/>
<text text-anchor="middle" x="1007" y="-821.8" font-family="Times,serif" font-size="14.00" fill="#000000">accept s1</text>
</g>
<!-- node_177&#45;&gt;node_149 -->
<g id="edge55" class="edge">
<title>node_177&#45;&gt;node_149</title>
<path fill="none" stroke="#000000" stroke-dasharray="1,5" d="M1165.4578,-879.985C1132.6412,-870.974 1092.8645,-859.3219 1050.2171,-844.2687"/>
<polygon fill="#000000" stroke="#000000" points="1051.3791,-840.9673 1040.7845,-840.8999 1049.0247,-847.5595 1051.3791,-840.9673"/>
</g>
<!-- node_178 -->
<g id="node3" class="node">
<title>node_178</title>
<polygon fill="none" stroke="#000000" points="1326.1205,-772 1147.8795,-772 1147.8795,-736 1326.1205,-736 1326.1205,-772"/>
<text text-anchor="middle" x="1237" y="-749.8" font-family="Times,serif" font-size="14.00" fill="#000000">transmit in4&#45;&gt;client executor</text>
</g>
<!-- node_141 -->
<g id="node11" class="node">
<title>node_141</title>
<polygon fill="none" stroke="#000000" points="1131.6349,-700 1058.3651,-700 1058.3651,-664 1131.6349,-664 1131.6349,-700"/>
<text text-anchor="middle" x="1095" y="-677.8" font-family="Times,serif" font-size="14.00" fill="#000000">accept in4</text>
</g>
<!-- node_178&#45;&gt;node_141 -->
<g id="edge57" class="edge">
<title>node_178&#45;&gt;node_141</title>
<path fill="none" stroke="#000000" stroke-dasharray="1,5" d="M1201.1674,-735.8314C1182.5843,-726.4089 1159.7011,-714.8062 1139.9435,-704.7883"/>
<polygon fill="#000000" stroke="#000000" points="1141.323,-701.5635 1130.8211,-700.1628 1138.1573,-707.8069 1141.323,-701.5635"/>
</g>
<!-- node_179 -->
<g id="node4" class="node">
<title>node_179</title>
<polygon fill="none" stroke="#000000" points="501.6788,-988 328.3212,-988 328.3212,-952 501.6788,-952 501.6788,-988"/>
<text text-anchor="middle" x="415" y="-965.8" font-family="Times,serif" font-size="14.00" fill="#000000">transmit s2&#45;&gt;client executor</text>
</g>
<!-- node_169 -->
<g id="node39" class="node">
<title>node_169</title>
<polygon fill="none" stroke="#000000" points="395.6941,-916 328.3059,-916 328.3059,-880 395.6941,-880 395.6941,-916"/>
<text text-anchor="middle" x="362" y="-893.8" font-family="Times,serif" font-size="14.00" fill="#000000">accept s2</text>
</g>
<!-- node_179&#45;&gt;node_169 -->
<g id="edge56" class="edge">
<title>node_179&#45;&gt;node_169</title>
<path fill="none" stroke="#000000" stroke-dasharray="1,5" d="M401.6259,-951.8314C395.5838,-943.6232 388.3237,-933.7606 381.6779,-924.7323"/>
<polygon fill="#000000" stroke="#000000" points="384.3011,-922.3918 375.5542,-916.4133 378.6637,-926.5415 384.3011,-922.3918"/>
</g>
<!-- node_174 -->
<g id="node5" class="node">
<title>node_174</title>
<polygon fill="none" stroke="#000000" points="1518.1205,-916 1339.8795,-916 1339.8795,-880 1518.1205,-880 1518.1205,-916"/>
<text text-anchor="middle" x="1429" y="-893.8" font-family="Times,serif" font-size="14.00" fill="#000000">transmit in3&#45;&gt;client executor</text>
</g>
<!-- node_162 -->
<g id="node32" class="node">
<title>node_162</title>
<polygon fill="none" stroke="#000000" points="1131.6349,-844 1058.3651,-844 1058.3651,-808 1131.6349,-808 1131.6349,-844"/>
<text text-anchor="middle" x="1095" y="-821.8" font-family="Times,serif" font-size="14.00" fill="#000000">accept in3</text>
</g>
<!-- node_174&#45;&gt;node_162 -->
<g id="edge54" class="edge">
<title>node_174&#45;&gt;node_162</title>
<path fill="none" stroke="#000000" stroke-dasharray="1,5" d="M1345.1488,-879.9243C1280.8372,-866.0607 1194.438,-847.4357 1141.8399,-836.0972"/>
<polygon fill="#000000" stroke="#000000" points="1142.3005,-832.6162 1131.7875,-833.9302 1140.8254,-839.459 1142.3005,-832.6162"/>
</g>
<!-- node_136 -->
<g id="node6" class="node">
<title>node_136</title>
<polygon fill="none" stroke="#000000" points="1071.7384,-556 806.2616,-556 806.2616,-520 1071.7384,-520 1071.7384,-556"/>
<text text-anchor="middle" x="939" y="-533.8" font-family="Times,serif" font-size="14.00" fill="#000000">cast p1 from Arr to demo.types.NummerList</text>
</g>
<!-- node_147 -->
<g id="node17" class="node">
<title>node_147</title>
<polygon fill="none" stroke="#000000" points="824.524,-484 635.476,-484 635.476,-448 824.524,-448 824.524,-484"/>
<text text-anchor="middle" x="730" y="-461.8" font-family="Times,serif" font-size="14.00" fill="#000000">p1 = a::summierListe([p1, p2])</text>
</g>
<!-- node_136&#45;&gt;node_147 -->
<g id="edge4" class="edge">
<title>node_136&#45;&gt;node_147</title>
<path fill="none" stroke="#000000" d="M886.5302,-519.9243C857.8345,-510.0387 822.1112,-497.7321 792.04,-487.3726"/>
<polygon fill="#000000" stroke="#000000" points="793.0861,-484.0312 782.4913,-484.0831 790.806,-490.6495 793.0861,-484.0312"/>
</g>
<!-- node_137 -->
<g id="node7" class="node">
<title>node_137</title>
<polygon fill="none" stroke="#000000" points="349.3694,-700 122.6306,-700 122.6306,-664 349.3694,-664 349.3694,-700"/>
<text text-anchor="middle" x="236" y="-677.8" font-family="Times,serif" font-size="14.00" fill="#000000">cast p2 from demo.types.Punkt to Arr</text>
</g>
<!-- node_158 -->
<g id="node28" class="node">
<title>node_158</title>
<polygon fill="none" stroke="#000000" points="585.7384,-556 320.2616,-556 320.2616,-520 585.7384,-520 585.7384,-556"/>
<text text-anchor="middle" x="453" y="-533.8" font-family="Times,serif" font-size="14.00" fill="#000000">cast p2 from Arr to demo.types.NummerList</text>
</g>
<!-- node_137&#45;&gt;node_158 -->
<g id="edge21" class="edge">
<title>node_137&#45;&gt;node_158</title>
<path fill="none" stroke="#000000" d="M263.4832,-663.7623C302.5338,-637.8485 374.1146,-590.3479 417.2497,-561.7237"/>
<polygon fill="#000000" stroke="#000000" points="419.3429,-564.5352 425.74,-556.0896 415.4724,-558.7026 419.3429,-564.5352"/>
</g>
<!-- node_170 -->
<g id="node40" class="node">
<title>node_170</title>
<polygon fill="none" stroke="#000000" points="171.5957,-628 36.4043,-628 36.4043,-592 171.5957,-592 171.5957,-628"/>
<text text-anchor="middle" x="104" y="-605.8" font-family="Times,serif" font-size="14.00" fill="#000000">p2 = s2::nullstelle([])</text>
</g>
<!-- node_137&#45;&gt;node_170 -->
<g id="edge23" class="edge">
<title>node_137&#45;&gt;node_170</title>
<path fill="none" stroke="#000000" d="M202.6908,-663.8314C185.5727,-654.4942 164.5294,-643.016 146.2778,-633.0606"/>
<polygon fill="#000000" stroke="#000000" points="147.7535,-629.8788 137.2985,-628.1628 144.4015,-636.024 147.7535,-629.8788"/>
</g>
<!-- node_138 -->
<g id="node8" class="node">
<title>node_138</title>
<polygon fill="none" stroke="#000000" points="788.3409,-556 603.6591,-556 603.6591,-520 788.3409,-520 788.3409,-556"/>
<text text-anchor="middle" x="696" y="-533.8" font-family="Times,serif" font-size="14.00" fill="#000000">b1 = s1::liagtAufGerade([p1])</text>
</g>
<!-- node_138&#45;&gt;node_147 -->
<g id="edge30" class="edge">
<title>node_138&#45;&gt;node_147</title>
<path fill="none" stroke="#000000" d="M704.5796,-519.8314C708.3358,-511.8771 712.8257,-502.369 716.9798,-493.5723"/>
<polygon fill="#000000" stroke="#000000" points="720.1996,-494.9503 721.3048,-484.4133 713.8699,-491.9612 720.1996,-494.9503"/>
</g>
<!-- node_139 -->
<g id="node9" class="node">
<title>node_139</title>
<polygon fill="none" stroke="#000000" points="1131.9069,-628 1008.0931,-628 1008.0931,-592 1131.9069,-592 1131.9069,-628"/>
<text text-anchor="middle" x="1070" y="-605.8" font-family="Times,serif" font-size="14.00" fill="#000000">n = a::addier([in4])</text>
</g>
<!-- node_140 -->
<g id="node10" class="node">
<title>node_140</title>
<polygon fill="none" stroke="#000000" points="855.7033,-412 604.2967,-412 604.2967,-376 855.7033,-376 855.7033,-412"/>
<text text-anchor="middle" x="730" y="-389.8" font-family="Times,serif" font-size="14.00" fill="#000000">a = demo.math.Addierer::__construct([n])</text>
</g>
<!-- node_139&#45;&gt;node_140 -->
<g id="edge39" class="edge">
<title>node_139&#45;&gt;node_140</title>
<path fill="none" stroke="#000000" d="M1083.978,-591.9199C1097.0925,-572.5856 1112.5455,-541.7733 1097,-520 1065.1634,-475.409 925.6128,-436.6136 828.0859,-414.2517"/>
<polygon fill="#000000" stroke="#000000" points="828.7191,-410.8065 818.1924,-412.0064 827.1697,-417.6329 828.7191,-410.8065"/>
</g>
<!-- node_143 -->
<g id="node13" class="node">
<title>node_143</title>
<polygon fill="none" stroke="#000000" points="686.524,-268 497.476,-268 497.476,-232 686.524,-232 686.524,-268"/>
<text text-anchor="middle" x="592" y="-245.8" font-family="Times,serif" font-size="14.00" fill="#000000">p1 = a::summierListe([p1, p2])</text>
</g>
<!-- node_140&#45;&gt;node_143 -->
<g id="edge2" class="edge">
<title>node_140&#45;&gt;node_143</title>
<path fill="none" stroke="#000000" d="M725.4232,-375.8616C719.6895,-356.1914 708.2102,-324.8226 689,-304 677.4194,-291.4474 662.2344,-281.115 647.3276,-272.9696"/>
<polygon fill="#000000" stroke="#000000" points="648.6037,-269.6883 638.1167,-268.1803 645.3744,-275.8989 648.6037,-269.6883"/>
</g>
<!-- node_167 -->
<g id="node37" class="node">
<title>node_167</title>
<polygon fill="none" stroke="#000000" points="679.524,-340 490.476,-340 490.476,-304 679.524,-304 679.524,-340"/>
<text text-anchor="middle" x="585" y="-317.8" font-family="Times,serif" font-size="14.00" fill="#000000">p1 = a::summierListe([p1, p2])</text>
</g>
<!-- node_140&#45;&gt;node_167 -->
<g id="edge8" class="edge">
<title>node_140&#45;&gt;node_167</title>
<path fill="none" stroke="#000000" d="M693.4104,-375.8314C674.2761,-366.3302 650.6771,-354.6121 630.3878,-344.5374"/>
<polygon fill="#000000" stroke="#000000" points="631.8397,-341.3506 621.3265,-340.038 628.7265,-347.6203 631.8397,-341.3506"/>
</g>
<!-- node_172 -->
<g id="node42" class="node">
<title>node_172</title>
<polygon fill="none" stroke="#000000" points="785.5311,-196 652.4689,-196 652.4689,-160 785.5311,-160 785.5311,-196"/>
<text text-anchor="middle" x="719" y="-173.8" font-family="Times,serif" font-size="14.00" fill="#000000">n = a::summier([p1])</text>
</g>
<!-- node_140&#45;&gt;node_172 -->
<g id="edge15" class="edge">
<title>node_140&#45;&gt;node_172</title>
<path fill="none" stroke="#000000" d="M729.0811,-375.9555C727.1682,-338.3938 722.7458,-251.5541 720.4468,-206.4103"/>
<polygon fill="#000000" stroke="#000000" points="723.9282,-205.9541 719.9241,-196.1451 716.9373,-206.3102 723.9282,-205.9541"/>
</g>
<!-- node_141&#45;&gt;node_139 -->
<g id="edge11" class="edge">
<title>node_141&#45;&gt;node_139</title>
<path fill="none" stroke="#000000" d="M1088.6914,-663.8314C1085.9883,-656.0463 1082.7684,-646.7729 1079.769,-638.1347"/>
<polygon fill="#000000" stroke="#000000" points="1082.98,-636.7119 1076.3935,-628.4133 1076.3673,-639.0081 1082.98,-636.7119"/>
</g>
<!-- node_142 -->
<g id="node12" class="node">
<title>node_142</title>
<polygon fill="none" stroke="#000000" points="255.4067,-484 82.5933,-484 82.5933,-448 255.4067,-448 255.4067,-484"/>
<text text-anchor="middle" x="169" y="-461.8" font-family="Times,serif" font-size="14.00" fill="#000000">p2 = s1::achsenabschnitt([])</text>
</g>
<!-- node_155 -->
<g id="node25" class="node">
<title>node_155</title>
<polygon fill="none" stroke="#000000" points="282.3694,-412 55.6306,-412 55.6306,-376 282.3694,-376 282.3694,-412"/>
<text text-anchor="middle" x="169" y="-389.8" font-family="Times,serif" font-size="14.00" fill="#000000">cast p2 from demo.types.Punkt to Arr</text>
</g>
<!-- node_142&#45;&gt;node_155 -->
<g id="edge33" class="edge">
<title>node_142&#45;&gt;node_155</title>
<path fill="none" stroke="#000000" d="M169,-447.8314C169,-440.131 169,-430.9743 169,-422.4166"/>
<polygon fill="#000000" stroke="#000000" points="172.5001,-422.4132 169,-412.4133 165.5001,-422.4133 172.5001,-422.4132"/>
</g>
<!-- node_154 -->
<g id="node24" class="node">
<title>node_154</title>
<polygon fill="none" stroke="#000000" points="743.7033,-124 492.2967,-124 492.2967,-88 743.7033,-88 743.7033,-124"/>
<text text-anchor="middle" x="618" y="-101.8" font-family="Times,serif" font-size="14.00" fill="#000000">a = demo.math.Addierer::__construct([n])</text>
</g>
<!-- node_143&#45;&gt;node_154 -->
<g id="edge43" class="edge">
<title>node_143&#45;&gt;node_154</title>
<path fill="none" stroke="#000000" d="M595.2929,-231.7623C599.7471,-207.0928 607.7337,-162.8598 612.9493,-133.9731"/>
<polygon fill="#000000" stroke="#000000" points="616.4012,-134.5524 614.7338,-124.0896 609.5126,-133.3086 616.4012,-134.5524"/>
</g>
<!-- node_156 -->
<g id="node26" class="node">
<title>node_156</title>
<polygon fill="none" stroke="#000000" points="639.524,-52 450.476,-52 450.476,-16 639.524,-16 639.524,-52"/>
<text text-anchor="middle" x="545" y="-29.8" font-family="Times,serif" font-size="14.00" fill="#000000">p1 = a::summierListe([p1, p2])</text>
</g>
<!-- node_143&#45;&gt;node_156 -->
<g id="edge44" class="edge">
<title>node_143&#45;&gt;node_156</title>
<path fill="none" stroke="#000000" d="M568.2285,-231.7121C541.6044,-209.5697 499.9629,-169.536 483,-124 477.4147,-109.0065 476.3719,-102.5626 483,-88 488.174,-76.6322 497.0543,-66.7268 506.5028,-58.6122"/>
<polygon fill="#000000" stroke="#000000" points="508.8729,-61.1986 514.5042,-52.2243 504.5055,-55.7281 508.8729,-61.1986"/>
</g>
<!-- node_143&#45;&gt;node_172 -->
<g id="edge53" class="edge">
<title>node_143&#45;&gt;node_172</title>
<path fill="none" stroke="#000000" d="M624.0475,-231.8314C640.442,-222.5368 660.5786,-211.1208 678.0829,-201.1971"/>
<polygon fill="#000000" stroke="#000000" points="679.9897,-204.1395 686.9628,-196.1628 676.5374,-198.05 679.9897,-204.1395"/>
</g>
<!-- node_144 -->
<g id="node14" class="node">
<title>node_144</title>
<polygon fill="none" stroke="#000000" points="883.8041,-916 774.1959,-916 774.1959,-880 883.8041,-880 883.8041,-916"/>
<text text-anchor="middle" x="829" y="-893.8" font-family="Times,serif" font-size="14.00" fill="#000000">parse Number: 1</text>
</g>
<!-- node_146 -->
<g id="node16" class="node">
<title>node_146</title>
<polygon fill="none" stroke="#000000" points="954.7033,-844 703.2967,-844 703.2967,-808 954.7033,-808 954.7033,-844"/>
<text text-anchor="middle" x="829" y="-821.8" font-family="Times,serif" font-size="14.00" fill="#000000">a = demo.math.Addierer::__construct([1])</text>
</g>
<!-- node_144&#45;&gt;node_146 -->
<g id="edge1" class="edge">
<title>node_144&#45;&gt;node_146</title>
<path fill="none" stroke="#000000" d="M829,-879.8314C829,-872.131 829,-862.9743 829,-854.4166"/>
<polygon fill="#000000" stroke="#000000" points="832.5001,-854.4132 829,-844.4133 825.5001,-854.4133 832.5001,-854.4132"/>
</g>
<!-- node_145 -->
<g id="node15" class="node">
<title>node_145</title>
<polygon fill="none" stroke="#000000" points="767.0518,-772 710.9482,-772 710.9482,-736 767.0518,-736 767.0518,-772"/>
<text text-anchor="middle" x="739" y="-749.8" font-family="Times,serif" font-size="14.00" fill="#000000">load s1</text>
</g>
<!-- node_163 -->
<g id="node33" class="node">
<title>node_163</title>
<polygon fill="none" stroke="#000000" points="770.8031,-700 657.1969,-700 657.1969,-664 770.8031,-664 770.8031,-700"/>
<text text-anchor="middle" x="714" y="-677.8" font-family="Times,serif" font-size="14.00" fill="#000000">p1 = s1::calc([n])</text>
</g>
<!-- node_145&#45;&gt;node_163 -->
<g id="edge20" class="edge">
<title>node_145&#45;&gt;node_163</title>
<path fill="none" stroke="#000000" d="M732.6914,-735.8314C729.9883,-728.0463 726.7684,-718.7729 723.769,-710.1347"/>
<polygon fill="#000000" stroke="#000000" points="726.98,-708.7119 720.3935,-700.4133 720.3673,-711.0081 726.98,-708.7119"/>
</g>
<!-- node_165 -->
<g id="node35" class="node">
<title>node_165</title>
<polygon fill="none" stroke="#000000" points="933.9069,-772 810.0931,-772 810.0931,-736 933.9069,-736 933.9069,-772"/>
<text text-anchor="middle" x="872" y="-749.8" font-family="Times,serif" font-size="14.00" fill="#000000">n = a::addier([in3])</text>
</g>
<!-- node_146&#45;&gt;node_165 -->
<g id="edge34" class="edge">
<title>node_146&#45;&gt;node_165</title>
<path fill="none" stroke="#000000" d="M839.8507,-807.8314C844.7023,-799.7079 850.5217,-789.9637 855.868,-781.0118"/>
<polygon fill="#000000" stroke="#000000" points="858.8806,-782.7933 861.0032,-772.4133 852.8708,-779.2041 858.8806,-782.7933"/>
</g>
<!-- node_147&#45;&gt;node_140 -->
<g id="edge37" class="edge">
<title>node_147&#45;&gt;node_140</title>
<path fill="none" stroke="#000000" d="M730,-447.8314C730,-440.131 730,-430.9743 730,-422.4166"/>
<polygon fill="#000000" stroke="#000000" points="733.5001,-422.4132 730,-412.4133 726.5001,-422.4133 733.5001,-422.4132"/>
</g>
<!-- node_147&#45;&gt;node_167 -->
<g id="edge50" class="edge">
<title>node_147&#45;&gt;node_167</title>
<path fill="none" stroke="#000000" d="M645.0519,-447.9014C625.8904,-439.9326 607.5347,-428.4724 595,-412 581.7462,-394.5826 579.9504,-369.4922 581.0701,-350.2254"/>
<polygon fill="#000000" stroke="#000000" points="584.5618,-350.4713 581.9378,-340.2065 577.5879,-349.8672 584.5618,-350.4713"/>
</g>
<!-- node_148 -->
<g id="node18" class="node">
<title>node_148</title>
<polygon fill="none" stroke="#000000" points="282.3694,-556 55.6306,-556 55.6306,-520 282.3694,-520 282.3694,-556"/>
<text text-anchor="middle" x="169" y="-533.8" font-family="Times,serif" font-size="14.00" fill="#000000">cast p2 from demo.types.Punkt to Arr</text>
</g>
<!-- node_148&#45;&gt;node_142 -->
<g id="edge51" class="edge">
<title>node_148&#45;&gt;node_142</title>
<path fill="none" stroke="#000000" d="M169,-519.8314C169,-512.131 169,-502.9743 169,-494.4166"/>
<polygon fill="#000000" stroke="#000000" points="172.5001,-494.4132 169,-484.4133 165.5001,-494.4133 172.5001,-494.4132"/>
</g>
<!-- node_160 -->
<g id="node30" class="node">
<title>node_160</title>
<polygon fill="none" stroke="#000000" points="565.7384,-412 300.2616,-412 300.2616,-376 565.7384,-376 565.7384,-412"/>
<text text-anchor="middle" x="433" y="-389.8" font-family="Times,serif" font-size="14.00" fill="#000000">cast p2 from Arr to demo.types.NummerList</text>
</g>
<!-- node_148&#45;&gt;node_160 -->
<g id="edge5" class="edge">
<title>node_148&#45;&gt;node_160</title>
<path fill="none" stroke="#000000" d="M202.1685,-519.9081C249.9835,-493.8272 338.2816,-445.6646 390.7187,-417.0625"/>
<polygon fill="#000000" stroke="#000000" points="392.6566,-419.9924 399.7596,-412.1311 389.3046,-413.8471 392.6566,-419.9924"/>
</g>
<!-- node_149&#45;&gt;node_145 -->
<g id="edge9" class="edge">
<title>node_149&#45;&gt;node_145</title>
<path fill="none" stroke="#000000" d="M972.9388,-811.0933C969.9404,-809.979 966.9316,-808.9291 964,-808 893.2764,-785.5864 872.8846,-790.3522 801,-772 793.2113,-770.0115 784.9206,-767.7245 777.0205,-765.4622"/>
<polygon fill="#000000" stroke="#000000" points="777.8691,-762.0641 767.2896,-762.6343 775.9156,-768.786 777.8691,-762.0641"/>
</g>
<!-- node_150 -->
<g id="node20" class="node">
<title>node_150</title>
<polygon fill="none" stroke="#000000" points="186.5957,-340 51.4043,-340 51.4043,-304 186.5957,-304 186.5957,-340"/>
<text text-anchor="middle" x="119" y="-317.8" font-family="Times,serif" font-size="14.00" fill="#000000">p2 = s1::nullstelle([])</text>
</g>
<!-- node_151 -->
<g id="node21" class="node">
<title>node_151</title>
<polygon fill="none" stroke="#000000" points="219.2306,-268 16.7694,-268 16.7694,-232 219.2306,-232 219.2306,-268"/>
<text text-anchor="middle" x="118" y="-245.8" font-family="Times,serif" font-size="14.00" fill="#000000">bool2 = s2::liagtAufGerade([p2])</text>
</g>
<!-- node_150&#45;&gt;node_151 -->
<g id="edge24" class="edge">
<title>node_150&#45;&gt;node_151</title>
<path fill="none" stroke="#000000" d="M118.7477,-303.8314C118.6407,-296.131 118.5135,-286.9743 118.3947,-278.4166"/>
<polygon fill="#000000" stroke="#000000" points="121.8944,-278.3637 118.2557,-268.4133 114.8951,-278.4609 121.8944,-278.3637"/>
</g>
<!-- node_161 -->
<g id="node31" class="node">
<title>node_161</title>
<polygon fill="none" stroke="#000000" points="396.3694,-196 169.6306,-196 169.6306,-160 396.3694,-160 396.3694,-196"/>
<text text-anchor="middle" x="283" y="-173.8" font-family="Times,serif" font-size="14.00" fill="#000000">cast p2 from demo.types.Punkt to Arr</text>
</g>
<!-- node_150&#45;&gt;node_161 -->
<g id="edge31" class="edge">
<title>node_150&#45;&gt;node_161</title>
<path fill="none" stroke="#000000" d="M169.8502,-303.9187C189.5528,-295.1918 211.3298,-283.2553 228,-268 247.0681,-250.5503 261.8297,-224.9819 271.2367,-205.5527"/>
<polygon fill="#000000" stroke="#000000" points="274.4968,-206.8427 275.5411,-196.2994 268.1499,-203.8902 274.4968,-206.8427"/>
</g>
<!-- node_152 -->
<g id="node22" class="node">
<title>node_152</title>
<polygon fill="none" stroke="#000000" points="1040.7033,-700 789.2967,-700 789.2967,-664 1040.7033,-664 1040.7033,-700"/>
<text text-anchor="middle" x="915" y="-677.8" font-family="Times,serif" font-size="14.00" fill="#000000">a = demo.math.Addierer::__construct([n])</text>
</g>
<!-- node_152&#45;&gt;node_139 -->
<g id="edge49" class="edge">
<title>node_152&#45;&gt;node_139</title>
<path fill="none" stroke="#000000" d="M954.113,-663.8314C974.7512,-654.2446 1000.2484,-642.4008 1022.0673,-632.2655"/>
<polygon fill="#000000" stroke="#000000" points="1023.5734,-635.4251 1031.1682,-628.038 1020.6244,-629.0766 1023.5734,-635.4251"/>
</g>
<!-- node_152&#45;&gt;node_147 -->
<g id="edge52" class="edge">
<title>node_152&#45;&gt;node_147</title>
<path fill="none" stroke="#000000" d="M940.6109,-663.8777C953.16,-654.1783 967.9153,-641.4711 979,-628 990.6299,-613.8664 985.2648,-604.0978 999,-592 1031.329,-563.5248 1064.8474,-591.6742 1089,-556 1097.9701,-542.7509 1099.4384,-532.126 1089,-520 1072.4524,-500.7772 934.7721,-484.3781 834.8372,-474.852"/>
<polygon fill="#000000" stroke="#000000" points="834.9651,-471.3487 824.6808,-473.895 834.3084,-478.3178 834.9651,-471.3487"/>
</g>
<!-- node_153 -->
<g id="node23" class="node">
<title>node_153</title>
<polygon fill="none" stroke="#000000" points="198.0518,-844 141.9482,-844 141.9482,-808 198.0518,-808 198.0518,-844"/>
<text text-anchor="middle" x="170" y="-821.8" font-family="Times,serif" font-size="14.00" fill="#000000">load s2</text>
</g>
<!-- node_153&#45;&gt;node_151 -->
<g id="edge12" class="edge">
<title>node_153&#45;&gt;node_151</title>
<path fill="none" stroke="#000000" d="M141.9374,-814.8066C97.7676,-795.1205 17,-749.8471 17,-682 17,-682 17,-682 17,-394 17,-352.4855 18.1499,-337.9798 42,-304 50.3057,-292.1666 62.0676,-282.017 73.8627,-273.8167"/>
<polygon fill="#000000" stroke="#000000" points="75.9782,-276.6145 82.4083,-268.194 72.1306,-270.7667 75.9782,-276.6145"/>
</g>
<!-- node_166 -->
<g id="node36" class="node">
<title>node_166</title>
<polygon fill="none" stroke="#000000" points="309.4067,-772 136.5933,-772 136.5933,-736 309.4067,-736 309.4067,-772"/>
<text text-anchor="middle" x="223" y="-749.8" font-family="Times,serif" font-size="14.00" fill="#000000">p2 = s2::achsenabschnitt([])</text>
</g>
<!-- node_153&#45;&gt;node_166 -->
<g id="edge18" class="edge">
<title>node_153&#45;&gt;node_166</title>
<path fill="none" stroke="#000000" d="M183.3741,-807.8314C189.4162,-799.6232 196.6763,-789.7606 203.3221,-780.7323"/>
<polygon fill="#000000" stroke="#000000" points="206.3363,-782.5415 209.4458,-772.4133 200.6989,-778.3918 206.3363,-782.5415"/>
</g>
<!-- node_153&#45;&gt;node_170 -->
<g id="edge19" class="edge">
<title>node_153&#45;&gt;node_170</title>
<path fill="none" stroke="#000000" d="M152.452,-807.9458C143.8145,-798.0738 133.9948,-785.1915 128,-772 108.1842,-728.3958 104.0551,-672.0301 103.5484,-638.579"/>
<polygon fill="#000000" stroke="#000000" points="107.0465,-638.1477 103.498,-628.1648 100.0465,-638.1816 107.0465,-638.1477"/>
</g>
<!-- node_154&#45;&gt;node_156 -->
<g id="edge25" class="edge">
<title>node_154&#45;&gt;node_156</title>
<path fill="none" stroke="#000000" d="M599.579,-87.8314C590.8471,-79.219 580.2683,-68.7851 570.7577,-59.4048"/>
<polygon fill="#000000" stroke="#000000" points="572.9925,-56.6931 563.4151,-52.1628 568.077,-61.6769 572.9925,-56.6931"/>
</g>
<!-- node_155&#45;&gt;node_150 -->
<g id="edge38" class="edge">
<title>node_155&#45;&gt;node_150</title>
<path fill="none" stroke="#000000" d="M156.3829,-375.8314C150.6828,-367.6232 143.8337,-357.7606 137.5641,-348.7323"/>
<polygon fill="#000000" stroke="#000000" points="140.3658,-346.6306 131.787,-340.4133 134.6162,-350.6234 140.3658,-346.6306"/>
</g>
<!-- node_168 -->
<g id="node38" class="node">
<title>node_168</title>
<polygon fill="none" stroke="#000000" points="470.7384,-340 205.2616,-340 205.2616,-304 470.7384,-304 470.7384,-340"/>
<text text-anchor="middle" x="338" y="-317.8" font-family="Times,serif" font-size="14.00" fill="#000000">cast p2 from Arr to demo.types.NummerList</text>
</g>
<!-- node_155&#45;&gt;node_168 -->
<g id="edge45" class="edge">
<title>node_155&#45;&gt;node_168</title>
<path fill="none" stroke="#000000" d="M211.6458,-375.8314C234.349,-366.159 262.4451,-354.1891 286.3742,-343.9944"/>
<polygon fill="#000000" stroke="#000000" points="287.8328,-347.1775 295.6608,-340.038 285.0891,-340.7376 287.8328,-347.1775"/>
</g>
<!-- node_157 -->
<g id="node27" class="node">
<title>node_157</title>
<polygon fill="none" stroke="#000000" points="434.7384,-124 169.2616,-124 169.2616,-88 434.7384,-88 434.7384,-124"/>
<text text-anchor="middle" x="302" y="-101.8" font-family="Times,serif" font-size="14.00" fill="#000000">cast p2 from Arr to demo.types.NummerList</text>
</g>
<!-- node_157&#45;&gt;node_156 -->
<g id="edge14" class="edge">
<title>node_157&#45;&gt;node_156</title>
<path fill="none" stroke="#000000" d="M363.0055,-87.9243C396.8028,-77.9103 438.9844,-65.412 474.2262,-54.97"/>
<polygon fill="#000000" stroke="#000000" points="475.3757,-58.2799 483.9694,-52.0831 473.3871,-51.5683 475.3757,-58.2799"/>
</g>
<!-- node_158&#45;&gt;node_147 -->
<g id="edge22" class="edge">
<title>node_158&#45;&gt;node_147</title>
<path fill="none" stroke="#000000" d="M522.5413,-519.9243C561.4789,-509.8033 610.1794,-497.1447 650.6085,-486.6361"/>
<polygon fill="#000000" stroke="#000000" points="651.6323,-489.9863 660.4301,-484.0831 649.8712,-483.2115 651.6323,-489.9863"/>
</g>
<!-- node_160&#45;&gt;node_167 -->
<g id="edge3" class="edge">
<title>node_160&#45;&gt;node_167</title>
<path fill="none" stroke="#000000" d="M471.356,-375.8314C491.5044,-366.2874 516.3752,-354.5065 537.7083,-344.4013"/>
<polygon fill="#000000" stroke="#000000" points="539.3807,-347.482 546.9198,-340.038 536.3841,-341.1558 539.3807,-347.482"/>
</g>
<!-- node_161&#45;&gt;node_157 -->
<g id="edge10" class="edge">
<title>node_161&#45;&gt;node_157</title>
<path fill="none" stroke="#000000" d="M287.7945,-159.8314C289.8489,-152.0463 292.296,-142.7729 294.5756,-134.1347"/>
<polygon fill="#000000" stroke="#000000" points="297.9735,-134.9753 297.1409,-124.4133 291.2052,-133.1892 297.9735,-134.9753"/>
</g>
<!-- node_162&#45;&gt;node_165 -->
<g id="edge26" class="edge">
<title>node_162&#45;&gt;node_165</title>
<path fill="none" stroke="#000000" d="M1058.2605,-811.0055C1055.4756,-809.9606 1052.6994,-808.9474 1050,-808 1015.3435,-795.8371 976.3474,-783.823 943.7081,-774.2262"/>
<polygon fill="#000000" stroke="#000000" points="944.3749,-770.7747 933.7946,-771.328 942.4107,-777.4935 944.3749,-770.7747"/>
</g>
<!-- node_163&#45;&gt;node_138 -->
<g id="edge27" class="edge">
<title>node_163&#45;&gt;node_138</title>
<path fill="none" stroke="#000000" d="M711.7203,-663.7623C708.6501,-639.201 703.1559,-595.2474 699.5443,-566.3541"/>
<polygon fill="#000000" stroke="#000000" points="702.9746,-565.5782 698.2612,-556.0896 696.0287,-566.4465 702.9746,-565.5782"/>
</g>
<!-- node_163&#45;&gt;node_139 -->
<g id="edge28" class="edge">
<title>node_163&#45;&gt;node_139</title>
<path fill="none" stroke="#000000" d="M770.8027,-666.1702C773.9074,-665.4107 776.9882,-664.6818 780,-664 867.6622,-644.1566 890.689,-644.7208 979,-628 985.1267,-626.84 991.4817,-625.6191 997.8559,-624.3823"/>
<polygon fill="#000000" stroke="#000000" points="998.7129,-627.7812 1007.8582,-622.4321 997.3732,-620.9106 998.7129,-627.7812"/>
</g>
<!-- node_163&#45;&gt;node_142 -->
<g id="edge32" class="edge">
<title>node_163&#45;&gt;node_142</title>
<path fill="none" stroke="#000000" d="M657.34,-677.5032C573.1825,-668.1522 414.0313,-639.8919 311,-556 296.8066,-544.4432 304.514,-532.3444 291,-520 276.2912,-506.5641 257.695,-496.0611 239.4839,-488.0367"/>
<polygon fill="#000000" stroke="#000000" points="240.5937,-484.7068 230.0183,-484.0641 237.8847,-491.1614 240.5937,-484.7068"/>
</g>
<!-- node_163&#45;&gt;node_150 -->
<g id="edge35" class="edge">
<title>node_163&#45;&gt;node_150</title>
<path fill="none" stroke="#000000" d="M657.2283,-674.6263C587.297,-665.242 464.9838,-647.8473 361,-628 343.4202,-624.6446 58.1517,-569.9982 47,-556 22.0761,-524.7142 29.1115,-411.7771 47,-376 53.0138,-363.9724 63.1214,-353.9287 73.8907,-345.8944"/>
<polygon fill="#000000" stroke="#000000" points="75.9688,-348.7127 82.1982,-340.1426 71.9841,-342.9575 75.9688,-348.7127"/>
</g>
<!-- node_164 -->
<g id="node34" class="node">
<title>node_164</title>
<polygon fill="none" stroke="#000000" points="970.3694,-628 743.6306,-628 743.6306,-592 970.3694,-592 970.3694,-628"/>
<text text-anchor="middle" x="857" y="-605.8" font-family="Times,serif" font-size="14.00" fill="#000000">cast p1 from demo.types.Punkt to Arr</text>
</g>
<!-- node_163&#45;&gt;node_164 -->
<g id="edge40" class="edge">
<title>node_163&#45;&gt;node_164</title>
<path fill="none" stroke="#000000" d="M750.0849,-663.8314C768.7989,-654.4089 791.8432,-642.8062 811.74,-632.7883"/>
<polygon fill="#000000" stroke="#000000" points="813.5689,-635.7861 820.9266,-628.1628 810.4208,-629.5339 813.5689,-635.7861"/>
</g>
<!-- node_164&#45;&gt;node_136 -->
<g id="edge41" class="edge">
<title>node_164&#45;&gt;node_136</title>
<path fill="none" stroke="#000000" d="M877.6921,-591.8314C887.6948,-583.0485 899.855,-572.3712 910.6999,-562.8489"/>
<polygon fill="#000000" stroke="#000000" points="913.1094,-565.3909 918.3146,-556.1628 908.4908,-560.1308 913.1094,-565.3909"/>
</g>
<!-- node_164&#45;&gt;node_147 -->
<g id="edge47" class="edge">
<title>node_164&#45;&gt;node_147</title>
<path fill="none" stroke="#000000" d="M956.1112,-591.9441C1012.1785,-580.723 1072.7394,-566.4886 1081,-556 1090.8996,-543.4303 1091.4181,-532.1434 1081,-520 1064.9819,-501.3291 932.5088,-484.9499 835.0132,-475.2619"/>
<polygon fill="#000000" stroke="#000000" points="835.0947,-471.7532 824.8004,-474.2587 834.4103,-478.7196 835.0947,-471.7532"/>
</g>
<!-- node_165&#45;&gt;node_152 -->
<g id="edge7" class="edge">
<title>node_165&#45;&gt;node_152</title>
<path fill="none" stroke="#000000" d="M882.8507,-735.8314C887.7023,-727.7079 893.5217,-717.9637 898.868,-709.0118"/>
<polygon fill="#000000" stroke="#000000" points="901.8806,-710.7933 904.0032,-700.4133 895.8708,-707.2041 901.8806,-710.7933"/>
</g>
<!-- node_165&#45;&gt;node_163 -->
<g id="edge13" class="edge">
<title>node_165&#45;&gt;node_163</title>
<path fill="none" stroke="#000000" d="M832.1299,-735.8314C811.0923,-726.2446 785.1017,-714.4008 762.8604,-704.2655"/>
<polygon fill="#000000" stroke="#000000" points="764.1345,-700.9999 753.5834,-700.038 761.2317,-707.3697 764.1345,-700.9999"/>
</g>
<!-- node_166&#45;&gt;node_137 -->
<g id="edge16" class="edge">
<title>node_166&#45;&gt;node_137</title>
<path fill="none" stroke="#000000" d="M226.2804,-735.8314C227.6708,-728.131 229.3241,-718.9743 230.8692,-710.4166"/>
<polygon fill="#000000" stroke="#000000" points="234.3428,-710.8761 232.6754,-700.4133 227.4542,-709.6322 234.3428,-710.8761"/>
</g>
<!-- node_167&#45;&gt;node_143 -->
<g id="edge29" class="edge">
<title>node_167&#45;&gt;node_143</title>
<path fill="none" stroke="#000000" d="M586.7664,-303.8314C587.515,-296.131 588.4053,-286.9743 589.2373,-278.4166"/>
<polygon fill="#000000" stroke="#000000" points="592.7256,-278.7051 590.2098,-268.4133 585.7585,-278.0276 592.7256,-278.7051"/>
</g>
<!-- node_167&#45;&gt;node_154 -->
<g id="edge36" class="edge">
<title>node_167&#45;&gt;node_154</title>
<path fill="none" stroke="#000000" d="M529.9344,-303.9074C513.5278,-295.6534 497.4252,-284.0344 488,-268 479.892,-254.2065 481.7618,-246.7338 488,-232 506.5383,-188.2151 548.5624,-152.1791 579.842,-130.0233"/>
<polygon fill="#000000" stroke="#000000" points="582.1111,-132.7097 588.3511,-124.1474 578.1335,-126.9496 582.1111,-132.7097"/>
</g>
<!-- node_168&#45;&gt;node_143 -->
<g id="edge42" class="edge">
<title>node_168&#45;&gt;node_143</title>
<path fill="none" stroke="#000000" d="M401.7671,-303.9243C437.2452,-293.8675 481.5623,-281.3052 518.4943,-270.8363"/>
<polygon fill="#000000" stroke="#000000" points="519.5403,-274.1777 528.2067,-268.0831 517.6312,-267.4431 519.5403,-274.1777"/>
</g>
<!-- node_169&#45;&gt;node_153 -->
<g id="edge6" class="edge">
<title>node_169&#45;&gt;node_153</title>
<path fill="none" stroke="#000000" d="M328.1162,-885.2936C294.3638,-872.6364 242.6587,-853.247 207.6438,-840.1164"/>
<polygon fill="#000000" stroke="#000000" points="208.8314,-836.8238 198.2392,-836.5897 206.3735,-843.3781 208.8314,-836.8238"/>
</g>
<!-- node_170&#45;&gt;node_148 -->
<g id="edge17" class="edge">
<title>node_170&#45;&gt;node_148</title>
<path fill="none" stroke="#000000" d="M120.4022,-591.8314C128.0415,-583.3694 137.2683,-573.1489 145.6207,-563.8971"/>
<polygon fill="#000000" stroke="#000000" points="148.2738,-566.1813 152.3769,-556.4133 143.0779,-561.4906 148.2738,-566.1813"/>
</g>
<!-- node_171 -->
<g id="node41" class="node">
<title>node_171</title>
<polygon fill="none" stroke="#000000" points="714.6349,-916 641.3651,-916 641.3651,-880 714.6349,-880 714.6349,-916"/>
<text text-anchor="middle" x="678" y="-893.8" font-family="Times,serif" font-size="14.00" fill="#000000">accept in2</text>
</g>
<!-- node_172&#45;&gt;node_154 -->
<g id="edge46" class="edge">
<title>node_172&#45;&gt;node_154</title>
<path fill="none" stroke="#000000" d="M693.5134,-159.8314C680.8341,-150.7927 665.3404,-139.7476 651.6945,-130.0198"/>
<polygon fill="#000000" stroke="#000000" points="653.6529,-127.1176 643.4784,-124.1628 649.5895,-132.8176 653.6529,-127.1176"/>
</g>
<!-- node_172&#45;&gt;node_156 -->
<g id="edge48" class="edge">
<title>node_172&#45;&gt;node_156</title>
<path fill="none" stroke="#000000" d="M735.5109,-159.8787C751.0927,-140.5091 769.7601,-109.6669 753,-88 739.5489,-70.6109 694.4006,-57.788 649.5901,-49.0124"/>
<polygon fill="#000000" stroke="#000000" points="650.2212,-45.5698 639.7442,-47.1458 648.9173,-52.4473 650.2212,-45.5698"/>
</g>
<!-- node_173 -->
<g id="node43" class="node">
<title>node_173</title>
<polygon fill="none" stroke="#000000" points="104,-916 15.9961,-898 104,-880 192.0039,-898 104,-916"/>
<text text-anchor="middle" x="104" y="-893.8" font-family="Times,serif" font-size="14.00" fill="#000000">client executor</text>
</g>
<!-- node_175 -->
<g id="node44" class="node">
<title>node_175</title>
<polygon fill="none" stroke="#000000" points="767.1205,-988 588.8795,-988 588.8795,-952 767.1205,-952 767.1205,-988"/>
<text text-anchor="middle" x="678" y="-965.8" font-family="Times,serif" font-size="14.00" fill="#000000">transmit in2&#45;&gt;client executor</text>
</g>
<!-- node_175&#45;&gt;node_171 -->
<g id="edge58" class="edge">
<title>node_175&#45;&gt;node_171</title>
<path fill="none" stroke="#000000" stroke-dasharray="1,5" d="M678,-951.8314C678,-944.131 678,-934.9743 678,-926.4166"/>
<polygon fill="#000000" stroke="#000000" points="681.5001,-926.4132 678,-916.4133 674.5001,-926.4133 681.5001,-926.4132"/>
</g>
</g>
</svg>
