<?xml version="1.0" encoding="UTF-8" standalone="no"?>
<!DOCTYPE svg PUBLIC "-//W3C//DTD SVG 1.1//EN"
 "http://www.w3.org/Graphics/SVG/1.1/DTD/svg11.dtd">
<!-- Generated by graphviz version 2.40.1 (20161225.0304)
 -->
<!-- Title: %3 Pages: 1 -->
<svg width="2267pt" height="724pt"
 viewBox="0.00 0.00 2267.00 724.00" xmlns="http://www.w3.org/2000/svg" xmlns:xlink="http://www.w3.org/1999/xlink">
<g id="graph0" class="graph" transform="scale(1 1) rotate(0) translate(4 720)">
<title>%3</title>
<polygon fill="#ffffff" stroke="transparent" points="-4,4 -4,-720 2263,-720 2263,4 -4,4"/>
<g id="clust1" class="cluster">
<title>cluster_2114564124</title>
<polygon fill="none" stroke="#000000" points="434,-8 434,-420 863,-420 863,-8 434,-8"/>
</g>
<g id="clust2" class="cluster">
<title>cluster_290577354</title>
<polygon fill="none" stroke="#000000" points="8,-224 8,-708 426,-708 426,-224 8,-224"/>
</g>
<g id="clust3" class="cluster">
<title>cluster_1231035660</title>
<polygon fill="none" stroke="#000000" points="871,-368 871,-492 2251,-492 2251,-368 871,-368"/>
</g>
<!-- node_130 -->
<g id="node1" class="node">
<title>node_130</title>
<polygon fill="none" stroke="#000000" points="1374.1205,-556 1195.8795,-556 1195.8795,-520 1374.1205,-520 1374.1205,-556"/>
<text text-anchor="middle" x="1285" y="-533.8" font-family="Times,serif" font-size="14.00" fill="#000000">transmit in4&#45;&gt;client executor</text>
</g>
<!-- node_114 -->
<g id="node45" class="node">
<title>node_114</title>
<polygon fill="none" stroke="#000000" points="1416.6349,-484 1343.3651,-484 1343.3651,-448 1416.6349,-448 1416.6349,-484"/>
<text text-anchor="middle" x="1380" y="-461.8" font-family="Times,serif" font-size="14.00" fill="#000000">accept in4</text>
</g>
<!-- node_130&#45;&gt;node_114 -->
<g id="edge37" class="edge">
<title>node_130&#45;&gt;node_114</title>
<path fill="none" stroke="#000000" stroke-dasharray="1,5" d="M1308.9725,-519.8314C1320.7861,-510.8779 1335.1972,-499.9558 1347.9435,-490.2955"/>
<polygon fill="#000000" stroke="#000000" points="1350.1795,-492.9925 1356.0352,-484.1628 1345.9514,-487.4137 1350.1795,-492.9925"/>
</g>
<!-- node_131 -->
<g id="node2" class="node">
<title>node_131</title>
<polygon fill="none" stroke="#000000" points="1762.1205,-556 1583.8795,-556 1583.8795,-520 1762.1205,-520 1762.1205,-556"/>
<text text-anchor="middle" x="1673" y="-533.8" font-family="Times,serif" font-size="14.00" fill="#000000">transmit in2&#45;&gt;client executor</text>
</g>
<!-- node_107 -->
<g id="node38" class="node">
<title>node_107</title>
<polygon fill="none" stroke="#000000" points="1687.6349,-484 1614.3651,-484 1614.3651,-448 1687.6349,-448 1687.6349,-484"/>
<text text-anchor="middle" x="1651" y="-461.8" font-family="Times,serif" font-size="14.00" fill="#000000">accept in2</text>
</g>
<!-- node_131&#45;&gt;node_107 -->
<g id="edge31" class="edge">
<title>node_131&#45;&gt;node_107</title>
<path fill="none" stroke="#000000" stroke-dasharray="1,5" d="M1667.4485,-519.8314C1665.0697,-512.0463 1662.2362,-502.7729 1659.5967,-494.1347"/>
<polygon fill="#000000" stroke="#000000" points="1662.8958,-492.954 1656.6263,-484.4133 1656.2013,-494.9996 1662.8958,-492.954"/>
</g>
<!-- node_132 -->
<g id="node3" class="node">
<title>node_132</title>
<polygon fill="none" stroke="#000000" points="2150.6788,-556 1977.3212,-556 1977.3212,-520 2150.6788,-520 2150.6788,-556"/>
<text text-anchor="middle" x="2064" y="-533.8" font-family="Times,serif" font-size="14.00" fill="#000000">transmit s2&#45;&gt;client executor</text>
</g>
<!-- node_112 -->
<g id="node43" class="node">
<title>node_112</title>
<polygon fill="none" stroke="#000000" points="1863.6941,-484 1796.3059,-484 1796.3059,-448 1863.6941,-448 1863.6941,-484"/>
<text text-anchor="middle" x="1830" y="-461.8" font-family="Times,serif" font-size="14.00" fill="#000000">accept s2</text>
</g>
<!-- node_132&#45;&gt;node_112 -->
<g id="edge33" class="edge">
<title>node_132&#45;&gt;node_112</title>
<path fill="none" stroke="#000000" stroke-dasharray="1,5" d="M1977.3734,-520.0492C1935.9936,-510.9091 1891.3404,-500.0571 1872,-492 1869.8774,-491.1158 1867.7388,-490.1315 1865.6107,-489.078"/>
<polygon fill="#000000" stroke="#000000" points="1866.8911,-485.7912 1856.4305,-484.1097 1863.5593,-491.9475 1866.8911,-485.7912"/>
</g>
<!-- node_128 -->
<g id="node4" class="node">
<title>node_128</title>
<polygon fill="none" stroke="#000000" points="854.0971,-52 663.9029,-52 663.9029,-16 854.0971,-16 854.0971,-52"/>
<text text-anchor="middle" x="759" y="-29.8" font-family="Times,serif" font-size="14.00" fill="#000000">FinishNode &amp;finished&amp;exec_2</text>
</g>
<!-- node_105 -->
<g id="node36" class="node">
<title>node_105</title>
<polygon fill="none" stroke="#000000" points="2242.5039,-484 2081.4961,-484 2081.4961,-448 2242.5039,-448 2242.5039,-484"/>
<text text-anchor="middle" x="2162" y="-461.8" font-family="Times,serif" font-size="14.00" fill="#000000">accept &amp;finished&amp;exec_2</text>
</g>
<!-- node_128&#45;&gt;node_105 -->
<g id="edge32" class="edge">
<title>node_128&#45;&gt;node_105</title>
<path fill="none" stroke="#000000" stroke-dasharray="1,5" d="M854.1299,-38.8443C1168.0282,-55.4503 2151,-112.6675 2151,-178 2151,-322 2151,-322 2151,-322 2151,-362.2409 2155.3236,-408.6241 2158.5495,-437.6311"/>
<polygon fill="#000000" stroke="#000000" points="2155.1045,-438.3123 2159.7208,-447.8486 2162.059,-437.515 2155.1045,-438.3123"/>
</g>
<!-- node_129 -->
<g id="node5" class="node">
<title>node_129</title>
<polygon fill="none" stroke="#000000" points="805,-412 755.0871,-394 805,-376 854.9129,-394 805,-412"/>
<text text-anchor="middle" x="805" y="-389.8" font-family="Times,serif" font-size="14.00" fill="#000000">exec_2</text>
</g>
<!-- node_117 -->
<g id="node6" class="node">
<title>node_117</title>
<polygon fill="none" stroke="#000000" points="585.7456,-340 516.2544,-340 516.2544,-304 585.7456,-304 585.7456,-340"/>
<text text-anchor="middle" x="551" y="-317.8" font-family="Times,serif" font-size="14.00" fill="#000000">accept n1</text>
</g>
<!-- node_126 -->
<g id="node15" class="node">
<title>node_126</title>
<polygon fill="none" stroke="#000000" points="763.3031,-268 642.6969,-268 642.6969,-232 763.3031,-232 763.3031,-268"/>
<text text-anchor="middle" x="703" y="-245.8" font-family="Times,serif" font-size="14.00" fill="#000000">p1 = s1::calc([n1])</text>
</g>
<!-- node_117&#45;&gt;node_126 -->
<g id="edge9" class="edge">
<title>node_117&#45;&gt;node_126</title>
<path fill="none" stroke="#000000" d="M585.8719,-305.4817C606.594,-295.666 633.1538,-283.085 655.7413,-272.3857"/>
<polygon fill="#000000" stroke="#000000" points="657.2866,-275.5266 664.8256,-268.0826 654.2899,-269.2004 657.2866,-275.5266"/>
</g>
<!-- node_118 -->
<g id="node7" class="node">
<title>node_118</title>
<polygon fill="none" stroke="#000000" points="840.2306,-196 637.7694,-196 637.7694,-160 840.2306,-160 840.2306,-196"/>
<text text-anchor="middle" x="739" y="-173.8" font-family="Times,serif" font-size="14.00" fill="#000000">bool1 = s1::liagtAufGerade([p1])</text>
</g>
<!-- node_120 -->
<g id="node9" class="node">
<title>node_120</title>
<polygon fill="none" stroke="#000000" points="855.1205,-124 662.8795,-124 662.8795,-88 855.1205,-88 855.1205,-124"/>
<text text-anchor="middle" x="759" y="-101.8" font-family="Times,serif" font-size="14.00" fill="#000000">transmit bool1&#45;&gt;client executor</text>
</g>
<!-- node_118&#45;&gt;node_120 -->
<g id="edge1" class="edge">
<title>node_118&#45;&gt;node_120</title>
<path fill="none" stroke="#000000" d="M744.0468,-159.8314C746.2094,-152.0463 748.7853,-142.7729 751.1848,-134.1347"/>
<polygon fill="#000000" stroke="#000000" points="754.581,-134.9852 753.8852,-124.4133 747.8364,-133.1117 754.581,-134.9852"/>
</g>
<!-- node_119 -->
<g id="node8" class="node">
<title>node_119</title>
<polygon fill="none" stroke="#000000" points="736.6941,-412 669.3059,-412 669.3059,-376 736.6941,-376 736.6941,-412"/>
<text text-anchor="middle" x="703" y="-389.8" font-family="Times,serif" font-size="14.00" fill="#000000">accept s1</text>
</g>
<!-- node_123 -->
<g id="node12" class="node">
<title>node_123</title>
<polygon fill="none" stroke="#000000" points="731.0518,-340 674.9482,-340 674.9482,-304 731.0518,-304 731.0518,-340"/>
<text text-anchor="middle" x="703" y="-317.8" font-family="Times,serif" font-size="14.00" fill="#000000">load s1</text>
</g>
<!-- node_119&#45;&gt;node_123 -->
<g id="edge5" class="edge">
<title>node_119&#45;&gt;node_123</title>
<path fill="none" stroke="#000000" d="M703,-375.8314C703,-368.131 703,-358.9743 703,-350.4166"/>
<polygon fill="#000000" stroke="#000000" points="706.5001,-350.4132 703,-340.4133 699.5001,-350.4133 706.5001,-350.4132"/>
</g>
<!-- node_120&#45;&gt;node_128 -->
<g id="edge7" class="edge">
<title>node_120&#45;&gt;node_128</title>
<path fill="none" stroke="#000000" d="M759,-87.8314C759,-80.131 759,-70.9743 759,-62.4166"/>
<polygon fill="#000000" stroke="#000000" points="762.5001,-62.4132 759,-52.4133 755.5001,-62.4133 762.5001,-62.4132"/>
</g>
<!-- node_102 -->
<g id="node33" class="node">
<title>node_102</title>
<polygon fill="none" stroke="#000000" points="1968.6349,-484 1881.3651,-484 1881.3651,-448 1968.6349,-448 1968.6349,-484"/>
<text text-anchor="middle" x="1925" y="-461.8" font-family="Times,serif" font-size="14.00" fill="#000000">accept bool1</text>
</g>
<!-- node_120&#45;&gt;node_102 -->
<g id="edge36" class="edge">
<title>node_120&#45;&gt;node_102</title>
<path fill="none" stroke="#000000" stroke-dasharray="1,5" d="M855.2557,-109.3294C1112.5812,-119.5035 1797,-155.4511 1797,-250 1797,-322 1797,-322 1797,-322 1797,-374.9524 1845.9485,-417.4811 1883.3066,-442.2284"/>
<polygon fill="#000000" stroke="#000000" points="1881.731,-445.376 1892.0368,-447.8336 1885.5129,-439.4856 1881.731,-445.376"/>
</g>
<!-- node_121 -->
<g id="node10" class="node">
<title>node_121</title>
<polygon fill="none" stroke="#000000" points="603.3031,-196 482.6969,-196 482.6969,-160 603.3031,-160 603.3031,-196"/>
<text text-anchor="middle" x="543" y="-173.8" font-family="Times,serif" font-size="14.00" fill="#000000">p2 = s2::calc([n2])</text>
</g>
<!-- node_125 -->
<g id="node14" class="node">
<title>node_125</title>
<polygon fill="none" stroke="#000000" points="644.2306,-124 441.7694,-124 441.7694,-88 644.2306,-88 644.2306,-124"/>
<text text-anchor="middle" x="543" y="-101.8" font-family="Times,serif" font-size="14.00" fill="#000000">bool2 = s2::liagtAufGerade([p2])</text>
</g>
<!-- node_121&#45;&gt;node_125 -->
<g id="edge6" class="edge">
<title>node_121&#45;&gt;node_125</title>
<path fill="none" stroke="#000000" d="M543,-159.8314C543,-152.131 543,-142.9743 543,-134.4166"/>
<polygon fill="#000000" stroke="#000000" points="546.5001,-134.4132 543,-124.4133 539.5001,-134.4133 546.5001,-134.4132"/>
</g>
<!-- node_122 -->
<g id="node11" class="node">
<title>node_122</title>
<polygon fill="none" stroke="#000000" points="851.6941,-340 784.3059,-340 784.3059,-304 851.6941,-304 851.6941,-340"/>
<text text-anchor="middle" x="818" y="-317.8" font-family="Times,serif" font-size="14.00" fill="#000000">accept s2</text>
</g>
<!-- node_124 -->
<g id="node13" class="node">
<title>node_124</title>
<polygon fill="none" stroke="#000000" points="843.0518,-268 786.9482,-268 786.9482,-232 843.0518,-232 843.0518,-268"/>
<text text-anchor="middle" x="815" y="-245.8" font-family="Times,serif" font-size="14.00" fill="#000000">load s2</text>
</g>
<!-- node_122&#45;&gt;node_124 -->
<g id="edge2" class="edge">
<title>node_122&#45;&gt;node_124</title>
<path fill="none" stroke="#000000" d="M817.243,-303.8314C816.9221,-296.131 816.5406,-286.9743 816.184,-278.4166"/>
<polygon fill="#000000" stroke="#000000" points="819.6806,-278.2589 815.7672,-268.4133 812.6867,-278.5503 819.6806,-278.2589"/>
</g>
<!-- node_123&#45;&gt;node_126 -->
<g id="edge3" class="edge">
<title>node_123&#45;&gt;node_126</title>
<path fill="none" stroke="#000000" d="M703,-303.8314C703,-296.131 703,-286.9743 703,-278.4166"/>
<polygon fill="#000000" stroke="#000000" points="706.5001,-278.4132 703,-268.4133 699.5001,-278.4133 706.5001,-278.4132"/>
</g>
<!-- node_124&#45;&gt;node_121 -->
<g id="edge11" class="edge">
<title>node_124&#45;&gt;node_121</title>
<path fill="none" stroke="#000000" d="M788.4432,-231.987C783.1617,-228.9738 777.5338,-226.1374 772,-224 711.5874,-200.6658 692.4735,-208.8562 629,-196 623.9892,-194.9851 618.8165,-193.9274 613.61,-192.8556"/>
<polygon fill="#000000" stroke="#000000" points="614.0912,-189.3811 603.5897,-190.7843 612.6741,-196.2362 614.0912,-189.3811"/>
</g>
<!-- node_125&#45;&gt;node_128 -->
<g id="edge4" class="edge">
<title>node_125&#45;&gt;node_128</title>
<path fill="none" stroke="#000000" d="M597.2271,-87.9243C626.884,-78.0387 663.8037,-65.7321 694.8821,-55.3726"/>
<polygon fill="#000000" stroke="#000000" points="696.3706,-58.5659 704.7506,-52.0831 694.1569,-51.9251 696.3706,-58.5659"/>
</g>
<!-- node_126&#45;&gt;node_118 -->
<g id="edge8" class="edge">
<title>node_126&#45;&gt;node_118</title>
<path fill="none" stroke="#000000" d="M712.0843,-231.8314C716.0615,-223.8771 720.8155,-214.369 725.2139,-205.5723"/>
<polygon fill="#000000" stroke="#000000" points="728.4517,-206.9228 729.7934,-196.4133 722.1907,-203.7923 728.4517,-206.9228"/>
</g>
<!-- node_127 -->
<g id="node16" class="node">
<title>node_127</title>
<polygon fill="none" stroke="#000000" points="544.7456,-268 475.2544,-268 475.2544,-232 544.7456,-232 544.7456,-268"/>
<text text-anchor="middle" x="510" y="-245.8" font-family="Times,serif" font-size="14.00" fill="#000000">accept n2</text>
</g>
<!-- node_127&#45;&gt;node_121 -->
<g id="edge10" class="edge">
<title>node_127&#45;&gt;node_121</title>
<path fill="none" stroke="#000000" d="M518.3273,-231.8314C521.973,-223.8771 526.3309,-214.369 530.3627,-205.5723"/>
<polygon fill="#000000" stroke="#000000" points="533.5757,-206.9622 534.5606,-196.4133 527.2123,-204.0456 533.5757,-206.9622"/>
</g>
<!-- node_133 -->
<g id="node17" class="node">
<title>node_133</title>
<polygon fill="none" stroke="#000000" points="1959.1205,-556 1780.8795,-556 1780.8795,-520 1959.1205,-520 1959.1205,-556"/>
<text text-anchor="middle" x="1870" y="-533.8" font-family="Times,serif" font-size="14.00" fill="#000000">transmit in3&#45;&gt;client executor</text>
</g>
<!-- node_113 -->
<g id="node44" class="node">
<title>node_113</title>
<polygon fill="none" stroke="#000000" points="1778.6349,-484 1705.3651,-484 1705.3651,-448 1778.6349,-448 1778.6349,-484"/>
<text text-anchor="middle" x="1742" y="-461.8" font-family="Times,serif" font-size="14.00" fill="#000000">accept in3</text>
</g>
<!-- node_133&#45;&gt;node_113 -->
<g id="edge34" class="edge">
<title>node_133&#45;&gt;node_113</title>
<path fill="none" stroke="#000000" stroke-dasharray="1,5" d="M1836.8057,-519.78C1821.5921,-511.3841 1803.3452,-501.2504 1787,-492 1785.4884,-491.1445 1783.9497,-490.2707 1782.3965,-489.3861"/>
<polygon fill="#000000" stroke="#000000" points="1783.848,-486.1842 1773.4303,-484.255 1780.3712,-492.2597 1783.848,-486.1842"/>
</g>
<!-- node_134 -->
<g id="node18" class="node">
<title>node_134</title>
<polygon fill="none" stroke="#000000" points="1177.1205,-556 998.8795,-556 998.8795,-520 1177.1205,-520 1177.1205,-556"/>
<text text-anchor="middle" x="1088" y="-533.8" font-family="Times,serif" font-size="14.00" fill="#000000">transmit in1&#45;&gt;client executor</text>
</g>
<!-- node_109 -->
<g id="node40" class="node">
<title>node_109</title>
<polygon fill="none" stroke="#000000" points="1146.6349,-484 1073.3651,-484 1073.3651,-448 1146.6349,-448 1146.6349,-484"/>
<text text-anchor="middle" x="1110" y="-461.8" font-family="Times,serif" font-size="14.00" fill="#000000">accept in1</text>
</g>
<!-- node_134&#45;&gt;node_109 -->
<g id="edge30" class="edge">
<title>node_134&#45;&gt;node_109</title>
<path fill="none" stroke="#000000" stroke-dasharray="1,5" d="M1093.5515,-519.8314C1095.9303,-512.0463 1098.7638,-502.7729 1101.4033,-494.1347"/>
<polygon fill="#000000" stroke="#000000" points="1104.7987,-494.9996 1104.3737,-484.4133 1098.1042,-492.954 1104.7987,-494.9996"/>
</g>
<!-- node_135 -->
<g id="node19" class="node">
<title>node_135</title>
<polygon fill="none" stroke="#000000" points="1565.6788,-556 1392.3212,-556 1392.3212,-520 1565.6788,-520 1565.6788,-556"/>
<text text-anchor="middle" x="1479" y="-533.8" font-family="Times,serif" font-size="14.00" fill="#000000">transmit s1&#45;&gt;client executor</text>
</g>
<!-- node_104 -->
<g id="node35" class="node">
<title>node_104</title>
<polygon fill="none" stroke="#000000" points="1596.6941,-484 1529.3059,-484 1529.3059,-448 1596.6941,-448 1596.6941,-484"/>
<text text-anchor="middle" x="1563" y="-461.8" font-family="Times,serif" font-size="14.00" fill="#000000">accept s1</text>
</g>
<!-- node_135&#45;&gt;node_104 -->
<g id="edge27" class="edge">
<title>node_135&#45;&gt;node_104</title>
<path fill="none" stroke="#000000" stroke-dasharray="1,5" d="M1500.1967,-519.8314C1510.4434,-511.0485 1522.9003,-500.3712 1534.0097,-490.8489"/>
<polygon fill="#000000" stroke="#000000" points="1536.4952,-493.3282 1541.81,-484.1628 1531.9397,-488.0134 1536.4952,-493.3282"/>
</g>
<!-- node_96 -->
<g id="node20" class="node">
<title>node_96</title>
<polygon fill="none" stroke="#000000" points="319.5794,-628 22.4206,-628 22.4206,-592 319.5794,-592 319.5794,-628"/>
<text text-anchor="middle" x="171" y="-605.8" font-family="Times,serif" font-size="14.00" fill="#000000">adder1 = demo.math.Addierer::__construct([100])</text>
</g>
<!-- node_97 -->
<g id="node21" class="node">
<title>node_97</title>
<polygon fill="none" stroke="#000000" points="252.2825,-556 89.7175,-556 89.7175,-520 252.2825,-520 252.2825,-556"/>
<text text-anchor="middle" x="171" y="-533.8" font-family="Times,serif" font-size="14.00" fill="#000000">n1 = adder1::addier([in3])</text>
</g>
<!-- node_96&#45;&gt;node_97 -->
<g id="edge13" class="edge">
<title>node_96&#45;&gt;node_97</title>
<path fill="none" stroke="#000000" d="M171,-591.8314C171,-584.131 171,-574.9743 171,-566.4166"/>
<polygon fill="#000000" stroke="#000000" points="174.5001,-566.4132 171,-556.4133 167.5001,-566.4133 174.5001,-566.4132"/>
</g>
<!-- node_93 -->
<g id="node29" class="node">
<title>node_93</title>
<polygon fill="none" stroke="#000000" points="326.0794,-484 35.9206,-484 35.9206,-448 326.0794,-448 326.0794,-484"/>
<text text-anchor="middle" x="181" y="-461.8" font-family="Times,serif" font-size="14.00" fill="#000000">adder1 = demo.math.Addierer::__construct([10])</text>
</g>
<!-- node_97&#45;&gt;node_93 -->
<g id="edge19" class="edge">
<title>node_97&#45;&gt;node_93</title>
<path fill="none" stroke="#000000" d="M173.5234,-519.8314C174.5929,-512.131 175.8647,-502.9743 177.0532,-494.4166"/>
<polygon fill="#000000" stroke="#000000" points="180.5336,-494.7997 178.4426,-484.4133 173.6001,-493.8367 180.5336,-494.7997"/>
</g>
<!-- node_95 -->
<g id="node31" class="node">
<title>node_95</title>
<polygon fill="none" stroke="#000000" points="207.5827,-412 76.4173,-412 76.4173,-376 207.5827,-376 207.5827,-412"/>
<text text-anchor="middle" x="142" y="-389.8" font-family="Times,serif" font-size="14.00" fill="#000000">transmit n1&#45;&gt;exec_2</text>
</g>
<!-- node_97&#45;&gt;node_95 -->
<g id="edge22" class="edge">
<title>node_97&#45;&gt;node_95</title>
<path fill="none" stroke="#000000" d="M89.8562,-520.914C61.7963,-513.2352 35.2812,-503.3388 27,-492 15.4663,-476.2078 16.5149,-464.507 27,-448 36.4411,-433.1366 51.1773,-422.292 66.988,-414.4051"/>
<polygon fill="#000000" stroke="#000000" points="68.7576,-417.4442 76.3893,-410.0952 65.8404,-411.081 68.7576,-417.4442"/>
</g>
<!-- node_98 -->
<g id="node22" class="node">
<title>node_98</title>
<polygon fill="none" stroke="#000000" points="386.3041,-556 269.6959,-556 269.6959,-520 386.3041,-520 386.3041,-556"/>
<text text-anchor="middle" x="328" y="-533.8" font-family="Times,serif" font-size="14.00" fill="#000000">parse Number: 10</text>
</g>
<!-- node_98&#45;&gt;node_93 -->
<g id="edge17" class="edge">
<title>node_98&#45;&gt;node_93</title>
<path fill="none" stroke="#000000" d="M290.9057,-519.8314C271.5074,-510.3302 247.583,-498.6121 227.0138,-488.5374"/>
<polygon fill="#000000" stroke="#000000" points="228.3478,-485.2935 217.8276,-484.038 225.2686,-491.5799 228.3478,-485.2935"/>
</g>
<!-- node_99 -->
<g id="node23" class="node">
<title>node_99</title>
<polygon fill="none" stroke="#000000" points="417.6349,-484 344.3651,-484 344.3651,-448 417.6349,-448 417.6349,-484"/>
<text text-anchor="middle" x="381" y="-461.8" font-family="Times,serif" font-size="14.00" fill="#000000">accept in4</text>
</g>
<!-- node_94 -->
<g id="node30" class="node">
<title>node_94</title>
<polygon fill="none" stroke="#000000" points="388.2825,-412 225.7175,-412 225.7175,-376 388.2825,-376 388.2825,-412"/>
<text text-anchor="middle" x="307" y="-389.8" font-family="Times,serif" font-size="14.00" fill="#000000">n2 = adder1::addier([in4])</text>
</g>
<!-- node_99&#45;&gt;node_94 -->
<g id="edge18" class="edge">
<title>node_99&#45;&gt;node_94</title>
<path fill="none" stroke="#000000" d="M362.3267,-447.8314C353.4751,-439.219 342.7514,-428.7851 333.1105,-419.4048"/>
<polygon fill="#000000" stroke="#000000" points="335.2754,-416.6279 325.6674,-412.1628 330.3939,-421.645 335.2754,-416.6279"/>
</g>
<!-- node_100 -->
<g id="node24" class="node">
<title>node_100</title>
<polygon fill="none" stroke="#000000" points="337,-700 287.0871,-682 337,-664 386.9129,-682 337,-700"/>
<text text-anchor="middle" x="337" y="-677.8" font-family="Times,serif" font-size="14.00" fill="#000000">exec_1</text>
</g>
<!-- node_89 -->
<g id="node25" class="node">
<title>node_89</title>
<polygon fill="none" stroke="#000000" points="409.0971,-268 218.9029,-268 218.9029,-232 409.0971,-232 409.0971,-268"/>
<text text-anchor="middle" x="314" y="-245.8" font-family="Times,serif" font-size="14.00" fill="#000000">FinishNode &amp;finished&amp;exec_1</text>
</g>
<!-- node_108 -->
<g id="node39" class="node">
<title>node_108</title>
<polygon fill="none" stroke="#000000" points="1325.5039,-484 1164.4961,-484 1164.4961,-448 1325.5039,-448 1325.5039,-484"/>
<text text-anchor="middle" x="1245" y="-461.8" font-family="Times,serif" font-size="14.00" fill="#000000">accept &amp;finished&amp;exec_1</text>
</g>
<!-- node_89&#45;&gt;node_108 -->
<g id="edge38" class="edge">
<title>node_89&#45;&gt;node_108</title>
<path fill="none" stroke="#000000" stroke-dasharray="1,5" d="M347.8819,-268.1446C362.2379,-277.2716 378.1252,-289.4929 389,-304 421.7981,-347.7529 385.9713,-387.5732 430,-420 461.0402,-442.8609 1058.4695,-443.2218 1154.0397,-448.308"/>
<polygon fill="#000000" stroke="#000000" points="1153.8497,-451.8035 1164.0831,-449.0599 1154.3723,-444.823 1153.8497,-451.8035"/>
</g>
<!-- node_90 -->
<g id="node26" class="node">
<title>node_90</title>
<polygon fill="none" stroke="#000000" points="232.8041,-700 109.1959,-700 109.1959,-664 232.8041,-664 232.8041,-700"/>
<text text-anchor="middle" x="171" y="-677.8" font-family="Times,serif" font-size="14.00" fill="#000000">parse Number: 100</text>
</g>
<!-- node_90&#45;&gt;node_96 -->
<g id="edge14" class="edge">
<title>node_90&#45;&gt;node_96</title>
<path fill="none" stroke="#000000" d="M171,-663.8314C171,-656.131 171,-646.9743 171,-638.4166"/>
<polygon fill="#000000" stroke="#000000" points="174.5001,-638.4132 171,-628.4133 167.5001,-638.4133 174.5001,-638.4132"/>
</g>
<!-- node_91 -->
<g id="node27" class="node">
<title>node_91</title>
<polygon fill="none" stroke="#000000" points="414.6349,-628 341.3651,-628 341.3651,-592 414.6349,-592 414.6349,-628"/>
<text text-anchor="middle" x="378" y="-605.8" font-family="Times,serif" font-size="14.00" fill="#000000">accept in3</text>
</g>
<!-- node_91&#45;&gt;node_97 -->
<g id="edge15" class="edge">
<title>node_91&#45;&gt;node_97</title>
<path fill="none" stroke="#000000" d="M341.376,-596.4432C337.2069,-594.9306 333.0147,-593.4232 329,-592 297.9476,-580.9917 263.3258,-569.1146 234.4242,-559.3098"/>
<polygon fill="#000000" stroke="#000000" points="235.4498,-555.9619 224.8555,-556.0684 233.2038,-562.5918 235.4498,-555.9619"/>
</g>
<!-- node_92 -->
<g id="node28" class="node">
<title>node_92</title>
<polygon fill="none" stroke="#000000" points="379.5827,-340 248.4173,-340 248.4173,-304 379.5827,-304 379.5827,-340"/>
<text text-anchor="middle" x="314" y="-317.8" font-family="Times,serif" font-size="14.00" fill="#000000">transmit n2&#45;&gt;exec_2</text>
</g>
<!-- node_92&#45;&gt;node_127 -->
<g id="edge28" class="edge">
<title>node_92&#45;&gt;node_127</title>
<path fill="none" stroke="#000000" stroke-dasharray="1,5" d="M363.2061,-303.9243C394.7214,-292.3472 435.2754,-277.4498 465.7695,-266.248"/>
<polygon fill="#000000" stroke="#000000" points="467.1126,-269.4833 475.2924,-262.7497 464.6988,-262.9126 467.1126,-269.4833"/>
</g>
<!-- node_92&#45;&gt;node_89 -->
<g id="edge20" class="edge">
<title>node_92&#45;&gt;node_89</title>
<path fill="none" stroke="#000000" d="M314,-303.8314C314,-296.131 314,-286.9743 314,-278.4166"/>
<polygon fill="#000000" stroke="#000000" points="317.5001,-278.4132 314,-268.4133 310.5001,-278.4133 317.5001,-278.4132"/>
</g>
<!-- node_93&#45;&gt;node_94 -->
<g id="edge12" class="edge">
<title>node_93&#45;&gt;node_94</title>
<path fill="none" stroke="#000000" d="M212.7951,-447.8314C229.0605,-438.5368 249.0386,-427.1208 266.4051,-417.1971"/>
<polygon fill="#000000" stroke="#000000" points="268.2691,-420.1631 275.2151,-412.1628 264.7961,-414.0854 268.2691,-420.1631"/>
</g>
<!-- node_94&#45;&gt;node_92 -->
<g id="edge21" class="edge">
<title>node_94&#45;&gt;node_92</title>
<path fill="none" stroke="#000000" d="M308.7664,-375.8314C309.515,-368.131 310.4053,-358.9743 311.2373,-350.4166"/>
<polygon fill="#000000" stroke="#000000" points="314.7256,-350.7051 312.2098,-340.4133 307.7585,-350.0276 314.7256,-350.7051"/>
</g>
<!-- node_95&#45;&gt;node_117 -->
<g id="edge41" class="edge">
<title>node_95&#45;&gt;node_117</title>
<path fill="none" stroke="#000000" stroke-dasharray="1,5" d="M189.5844,-375.885C198.5951,-372.9183 208.0145,-370.1248 217,-368 309.9185,-346.0276 335.4423,-353.2473 430,-340 455.2614,-336.4609 483.4531,-332.2806 506.2652,-328.8398"/>
<polygon fill="#000000" stroke="#000000" points="506.9741,-332.2724 516.338,-327.3158 505.9269,-325.3512 506.9741,-332.2724"/>
</g>
<!-- node_95&#45;&gt;node_89 -->
<g id="edge16" class="edge">
<title>node_95&#45;&gt;node_89</title>
<path fill="none" stroke="#000000" d="M160.3363,-375.6959C179.3936,-356.9855 210.381,-327.4286 239,-304 251.5083,-293.7603 265.7875,-283.2165 278.5065,-274.194"/>
<polygon fill="#000000" stroke="#000000" points="280.8502,-276.825 287.0217,-268.2132 276.8269,-271.0967 280.8502,-276.825"/>
</g>
<!-- node_101 -->
<g id="node32" class="node">
<title>node_101</title>
<polygon fill="none" stroke="#000000" points="1401.9725,-412 1266.0275,-412 1266.0275,-376 1401.9725,-376 1401.9725,-412"/>
<text text-anchor="middle" x="1334" y="-389.8" font-family="Times,serif" font-size="14.00" fill="#000000">transmit in3&#45;&gt;exec_1</text>
</g>
<!-- node_101&#45;&gt;node_91 -->
<g id="edge40" class="edge">
<title>node_101&#45;&gt;node_91</title>
<path fill="none" stroke="#000000" stroke-dasharray="1,5" d="M1265.9395,-406.6533C1239.2155,-411.3166 1208.2349,-416.347 1180,-420 1042.8049,-437.7504 1005.4677,-419.963 870,-448 701.6845,-482.8353 510.4447,-555.958 424.337,-590.7777"/>
<polygon fill="#000000" stroke="#000000" points="422.8048,-587.6223 414.8572,-594.6284 425.4392,-594.1077 422.8048,-587.6223"/>
</g>
<!-- node_103 -->
<g id="node34" class="node">
<title>node_103</title>
<polygon fill="none" stroke="#000000" points="2063.5381,-484 1986.4619,-484 1986.4619,-448 2063.5381,-448 2063.5381,-484"/>
<text text-anchor="middle" x="2025" y="-461.8" font-family="Times,serif" font-size="14.00" fill="#000000">send graph</text>
</g>
<!-- node_106 -->
<g id="node37" class="node">
<title>node_106</title>
<polygon fill="none" stroke="#000000" points="1589.0303,-412 1458.9697,-412 1458.9697,-376 1589.0303,-376 1589.0303,-412"/>
<text text-anchor="middle" x="1524" y="-389.8" font-family="Times,serif" font-size="14.00" fill="#000000">transmit s1&#45;&gt;exec_2</text>
</g>
<!-- node_104&#45;&gt;node_106 -->
<g id="edge23" class="edge">
<title>node_104&#45;&gt;node_106</title>
<path fill="none" stroke="#000000" d="M1553.1587,-447.8314C1548.8043,-439.7925 1543.5902,-430.1666 1538.7831,-421.2918"/>
<polygon fill="#000000" stroke="#000000" points="1541.8143,-419.5392 1533.9739,-412.4133 1535.6592,-422.8732 1541.8143,-419.5392"/>
</g>
<!-- node_106&#45;&gt;node_119 -->
<g id="edge35" class="edge">
<title>node_106&#45;&gt;node_119</title>
<path fill="none" stroke="#000000" stroke-dasharray="1,5" d="M1480.2204,-412.0894C1457.3449,-420.5765 1428.6331,-429.7453 1402,-434 1331.0112,-445.3405 823.0599,-457.1487 755,-434 745.3963,-430.7336 736.1811,-424.8985 728.2464,-418.6775"/>
<polygon fill="#000000" stroke="#000000" points="730.385,-415.9029 720.4785,-412.1463 725.8801,-421.2607 730.385,-415.9029"/>
</g>
<!-- node_110 -->
<g id="node41" class="node">
<title>node_110</title>
<polygon fill="none" stroke="#000000" points="1511.5381,-484 1434.4619,-484 1434.4619,-448 1511.5381,-448 1511.5381,-484"/>
<text text-anchor="middle" x="1473" y="-461.8" font-family="Times,serif" font-size="14.00" fill="#000000">send graph</text>
</g>
<!-- node_111 -->
<g id="node42" class="node">
<title>node_111</title>
<polygon fill="none" stroke="#000000" points="1170.9725,-412 1035.0275,-412 1035.0275,-376 1170.9725,-376 1170.9725,-412"/>
<text text-anchor="middle" x="1103" y="-389.8" font-family="Times,serif" font-size="14.00" fill="#000000">transmit in4&#45;&gt;exec_1</text>
</g>
<!-- node_111&#45;&gt;node_99 -->
<g id="edge39" class="edge">
<title>node_111&#45;&gt;node_99</title>
<path fill="none" stroke="#000000" stroke-dasharray="1,5" d="M1035.1245,-401.7572C987.9782,-407.0769 923.6903,-414.1947 867,-420 705.7746,-436.5101 514.2362,-454.0218 427.6312,-461.8264"/>
<polygon fill="#000000" stroke="#000000" points="427.2448,-458.347 417.5989,-462.7294 427.8724,-465.3188 427.2448,-458.347"/>
</g>
<!-- node_115 -->
<g id="node46" class="node">
<title>node_115</title>
<polygon fill="none" stroke="#000000" points="1758.0303,-412 1627.9697,-412 1627.9697,-376 1758.0303,-376 1758.0303,-412"/>
<text text-anchor="middle" x="1693" y="-389.8" font-family="Times,serif" font-size="14.00" fill="#000000">transmit s2&#45;&gt;exec_2</text>
</g>
<!-- node_112&#45;&gt;node_115 -->
<g id="edge24" class="edge">
<title>node_112&#45;&gt;node_115</title>
<path fill="none" stroke="#000000" d="M1796.1348,-448.2022C1778.0761,-438.7115 1755.6592,-426.9304 1736.3421,-416.7783"/>
<polygon fill="#000000" stroke="#000000" points="1737.9074,-413.6471 1727.4272,-412.0931 1734.6509,-419.8435 1737.9074,-413.6471"/>
</g>
<!-- node_113&#45;&gt;node_101 -->
<g id="edge25" class="edge">
<title>node_113&#45;&gt;node_101</title>
<path fill="none" stroke="#000000" d="M1705.4293,-450.4443C1702.6054,-449.5292 1699.7743,-448.6986 1697,-448 1589.8639,-421.0208 1558.9496,-438.3305 1450,-420 1437.6343,-417.9195 1424.6041,-415.362 1411.9215,-412.6712"/>
<polygon fill="#000000" stroke="#000000" points="1412.3581,-409.1847 1401.8441,-410.4911 1410.878,-416.0265 1412.3581,-409.1847"/>
</g>
<!-- node_114&#45;&gt;node_111 -->
<g id="edge26" class="edge">
<title>node_114&#45;&gt;node_111</title>
<path fill="none" stroke="#000000" d="M1343.3276,-450.8039C1340.5272,-449.8056 1337.7292,-448.858 1335,-448 1284.4775,-432.1168 1226.4445,-418.6111 1181.0587,-409.0792"/>
<polygon fill="#000000" stroke="#000000" points="1181.4899,-405.594 1170.9868,-406.9853 1180.0651,-412.4475 1181.4899,-405.594"/>
</g>
<!-- node_115&#45;&gt;node_122 -->
<g id="edge29" class="edge">
<title>node_115&#45;&gt;node_122</title>
<path fill="none" stroke="#000000" stroke-dasharray="1,5" d="M1634.6374,-375.9775C1622.6218,-372.8479 1609.9797,-369.9705 1598,-368 1454.6825,-344.4266 1005.3555,-328.1041 862.2472,-323.3966"/>
<polygon fill="#000000" stroke="#000000" points="862.1971,-319.8932 852.0882,-323.0651 861.9687,-326.8895 862.1971,-319.8932"/>
</g>
<!-- node_116 -->
<g id="node47" class="node">
<title>node_116</title>
<polygon fill="none" stroke="#000000" points="967,-484 878.9961,-466 967,-448 1055.0039,-466 967,-484"/>
<text text-anchor="middle" x="967" y="-461.8" font-family="Times,serif" font-size="14.00" fill="#000000">client executor</text>
</g>
</g>
</svg>
