<?xml version="1.0" encoding="UTF-8" standalone="no"?>
<!DOCTYPE svg PUBLIC "-//W3C//DTD SVG 1.1//EN"
 "http://www.w3.org/Graphics/SVG/1.1/DTD/svg11.dtd">
<!-- Generated by graphviz version 2.40.1 (20161225.0304)
 -->
<!-- Title: %3 Pages: 1 -->
<svg width="3012pt" height="436pt"
 viewBox="0.00 0.00 3011.58 436.00" xmlns="http://www.w3.org/2000/svg" xmlns:xlink="http://www.w3.org/1999/xlink">
<g id="graph0" class="graph" transform="scale(1 1) rotate(0) translate(4 432)">
<title>%3</title>
<polygon fill="#ffffff" stroke="transparent" points="-4,4 -4,-432 3007.577,-432 3007.577,4 -4,4"/>
<g id="clust1" class="cluster">
<title>cluster_Core Client</title>
<polygon fill="none" stroke="#000000" points="1137,-8 1137,-132 2488,-132 2488,-8 1137,-8"/>
</g>
<g id="clust2" class="cluster">
<title>cluster_Executor 2</title>
<polygon fill="none" stroke="#000000" points="1508,-152 1508,-420 2697,-420 2697,-152 1508,-152"/>
</g>
<g id="clust3" class="cluster">
<title>cluster_Executor 1</title>
<polygon fill="none" stroke="#000000" points="8,-80 8,-420 1129,-420 1129,-80 8,-80"/>
</g>
<!-- 1453774246 -->
<g id="node1" class="node">
<title>1453774246</title>
<polygon fill="none" stroke="#000000" points="1031.8614,-124 882.1386,-124 882.1386,-88 1031.8614,-88 1031.8614,-124"/>
<text text-anchor="middle" x="957" y="-101.8" font-family="Times,serif" font-size="14.00" fill="#000000">transmit l4&#45;&gt;Executor 2</text>
</g>
<!-- 815674463 -->
<g id="node3" class="node">
<title>815674463</title>
<polygon fill="none" stroke="#000000" points="1622.1349,-412 1555.8651,-412 1555.8651,-376 1622.1349,-376 1622.1349,-412"/>
<text text-anchor="middle" x="1589" y="-389.8" font-family="Times,serif" font-size="14.00" fill="#000000">accept l4</text>
</g>
<!-- 1453774246&#45;&gt;815674463 -->
<g id="edge42" class="edge">
<title>1453774246&#45;&gt;815674463</title>
<path fill="none" stroke="#000000" stroke-dasharray="1,5" d="M997.6415,-124.0493C1016.6079,-132.4985 1039.4774,-142.7233 1060,-152 1241.3607,-233.9793 1456.9806,-333.151 1546.6406,-374.465"/>
<polygon fill="#000000" stroke="#000000" points="1545.3851,-377.7402 1555.932,-378.7471 1548.315,-371.3828 1545.3851,-377.7402"/>
</g>
<!-- 1016925085 -->
<g id="node2" class="node">
<title>1016925085</title>
<polygon fill="none" stroke="#000000" points="2437.375,-196 2280.625,-196 2280.625,-160 2437.375,-160 2437.375,-196"/>
<text text-anchor="middle" x="2359" y="-173.8" font-family="Times,serif" font-size="14.00" fill="#000000">transmit n2&#45;&gt;Core Client</text>
</g>
<!-- 1840976765 -->
<g id="node10" class="node">
<title>1840976765</title>
<polygon fill="none" stroke="#000000" points="2220.7456,-124 2151.2544,-124 2151.2544,-88 2220.7456,-88 2220.7456,-124"/>
<text text-anchor="middle" x="2186" y="-101.8" font-family="Times,serif" font-size="14.00" fill="#000000">accept n2</text>
</g>
<!-- 1016925085&#45;&gt;1840976765 -->
<g id="edge43" class="edge">
<title>1016925085&#45;&gt;1840976765</title>
<path fill="none" stroke="#000000" stroke-dasharray="1,5" d="M2300.8993,-159.9224C2278.3718,-152.2332 2252.608,-142.5915 2230,-132 2227.9762,-131.0519 2225.9248,-130.0387 2223.8706,-128.9823"/>
<polygon fill="#000000" stroke="#000000" points="2225.386,-125.8228 2214.9252,-124.1428 2222.0551,-131.9795 2225.386,-125.8228"/>
</g>
<!-- 71587369 -->
<g id="node44" class="node">
<title>71587369</title>
<polygon fill="none" stroke="#000000" points="1739.7589,-340 1516.2411,-340 1516.2411,-304 1739.7589,-304 1739.7589,-340"/>
<text text-anchor="middle" x="1628" y="-317.8" font-family="Times,serif" font-size="14.00" fill="#000000">cast l4 from Arr to demo.types.Punkt</text>
</g>
<!-- 815674463&#45;&gt;71587369 -->
<g id="edge5" class="edge">
<title>815674463&#45;&gt;71587369</title>
<path fill="none" stroke="#000000" d="M1598.8413,-375.8314C1603.1957,-367.7925 1608.4098,-358.1666 1613.2169,-349.2918"/>
<polygon fill="#000000" stroke="#000000" points="1616.3408,-350.8732 1618.0261,-340.4133 1610.1857,-347.5392 1616.3408,-350.8732"/>
</g>
<!-- 222511810 -->
<g id="node4" class="node">
<title>222511810</title>
<polygon fill="none" stroke="#000000" points="1630.1349,-124 1563.8651,-124 1563.8651,-88 1630.1349,-88 1630.1349,-124"/>
<text text-anchor="middle" x="1597" y="-101.8" font-family="Times,serif" font-size="14.00" fill="#000000">accept l3</text>
</g>
<!-- 2129221032 -->
<g id="node5" class="node">
<title>2129221032</title>
<polygon fill="none" stroke="#000000" points="1800.4605,-124 1731.5395,-124 1731.5395,-88 1800.4605,-88 1800.4605,-124"/>
<text text-anchor="middle" x="1766" y="-101.8" font-family="Times,serif" font-size="14.00" fill="#000000">accept a1</text>
</g>
<!-- 407697359 -->
<g id="node6" class="node">
<title>407697359</title>
<polygon fill="none" stroke="#000000" points="2305.1349,-124 2238.8651,-124 2238.8651,-88 2305.1349,-88 2305.1349,-124"/>
<text text-anchor="middle" x="2272" y="-101.8" font-family="Times,serif" font-size="14.00" fill="#000000">accept l1</text>
</g>
<!-- 534906248 -->
<g id="node26" class="node">
<title>534906248</title>
<polygon fill="none" stroke="#000000" points="1624.8614,-52 1475.1386,-52 1475.1386,-16 1624.8614,-16 1624.8614,-52"/>
<text text-anchor="middle" x="1550" y="-29.8" font-family="Times,serif" font-size="14.00" fill="#000000">transmit l1&#45;&gt;Executor 1</text>
</g>
<!-- 407697359&#45;&gt;534906248 -->
<g id="edge1" class="edge">
<title>407697359&#45;&gt;534906248</title>
<path fill="none" stroke="#000000" d="M2247.2085,-87.9407C2241.7726,-84.7721 2235.8785,-81.889 2230,-80 2216.0227,-75.5084 1814.7994,-50.3205 1635.3333,-39.2363"/>
<polygon fill="#000000" stroke="#000000" points="1635.3334,-35.7297 1625.1368,-38.6069 1634.9021,-42.7164 1635.3334,-35.7297"/>
</g>
<!-- 1671846437 -->
<g id="node7" class="node">
<title>1671846437</title>
<polygon fill="none" stroke="#000000" points="2046.7456,-124 1977.2544,-124 1977.2544,-88 2046.7456,-88 2046.7456,-124"/>
<text text-anchor="middle" x="2012" y="-101.8" font-family="Times,serif" font-size="14.00" fill="#000000">accept n1</text>
</g>
<!-- 2131952342 -->
<g id="node8" class="node">
<title>2131952342</title>
<polygon fill="none" stroke="#000000" points="1499.5889,-196 1350.4111,-196 1350.4111,-160 1499.5889,-160 1499.5889,-196"/>
<text text-anchor="middle" x="1425" y="-173.8" font-family="Times,serif" font-size="14.00" fill="#000000">transmit a&#45;&gt;Core Client</text>
</g>
<!-- 1978869058 -->
<g id="node28" class="node">
<title>1978869058</title>
<polygon fill="none" stroke="#000000" points="1959.9607,-124 1898.0393,-124 1898.0393,-88 1959.9607,-88 1959.9607,-124"/>
<text text-anchor="middle" x="1929" y="-101.8" font-family="Times,serif" font-size="14.00" fill="#000000">accept a</text>
</g>
<!-- 2131952342&#45;&gt;1978869058 -->
<g id="edge44" class="edge">
<title>2131952342&#45;&gt;1978869058</title>
<path fill="none" stroke="#000000" stroke-dasharray="1,5" d="M1472.9308,-159.9756C1483.0614,-156.8045 1493.7812,-153.9116 1504,-152 1588.2102,-136.2475 1807.5216,-158.4721 1889,-132 1891.5699,-131.165 1894.1345,-130.1206 1896.6533,-128.9337"/>
<polygon fill="#000000" stroke="#000000" points="1898.3828,-131.9774 1905.5023,-124.1311 1895.0437,-125.825 1898.3828,-131.9774"/>
</g>
<!-- 436532993 -->
<g id="node9" class="node">
<title>436532993</title>
<polygon fill="none" stroke="#000000" points="1050.7648,-196 897.2352,-196 897.2352,-160 1050.7648,-160 1050.7648,-196"/>
<text text-anchor="middle" x="974" y="-173.8" font-family="Times,serif" font-size="14.00" fill="#000000">transmit l2&#45;&gt;Core Client</text>
</g>
<!-- 789653861 -->
<g id="node33" class="node">
<title>789653861</title>
<polygon fill="none" stroke="#000000" points="1714.1349,-124 1647.8651,-124 1647.8651,-88 1714.1349,-88 1714.1349,-124"/>
<text text-anchor="middle" x="1681" y="-101.8" font-family="Times,serif" font-size="14.00" fill="#000000">accept l2</text>
</g>
<!-- 436532993&#45;&gt;789653861 -->
<g id="edge45" class="edge">
<title>436532993&#45;&gt;789653861</title>
<path fill="none" stroke="#000000" stroke-dasharray="1,5" d="M1051.0895,-164.1138C1079.2883,-159.5331 1111.5044,-154.8788 1141,-152 1251.2321,-141.2411 1533.1004,-164.4367 1639,-132 1641.7674,-131.1524 1644.5351,-130.0763 1647.255,-128.8468"/>
<polygon fill="#000000" stroke="#000000" points="1648.981,-131.8944 1656.2478,-124.1844 1645.759,-125.68 1648.981,-131.8944"/>
</g>
<!-- 1100767002 -->
<g id="node11" class="node">
<title>1100767002</title>
<polygon fill="none" stroke="#000000" points="748.7648,-124 595.2352,-124 595.2352,-88 748.7648,-88 748.7648,-124"/>
<text text-anchor="middle" x="672" y="-101.8" font-family="Times,serif" font-size="14.00" fill="#000000">transmit l4&#45;&gt;Core Client</text>
</g>
<!-- 1457410641 -->
<g id="node17" class="node">
<title>1457410641</title>
<polygon fill="none" stroke="#000000" points="1546.1349,-124 1479.8651,-124 1479.8651,-88 1546.1349,-88 1546.1349,-124"/>
<text text-anchor="middle" x="1513" y="-101.8" font-family="Times,serif" font-size="14.00" fill="#000000">accept l4</text>
</g>
<!-- 1100767002&#45;&gt;1457410641 -->
<g id="edge46" class="edge">
<title>1100767002&#45;&gt;1457410641</title>
<path fill="none" stroke="#000000" stroke-dasharray="1,5" d="M748.8907,-122.4039C788.4571,-130.0231 837.5874,-138.2208 882,-142 914.1062,-144.732 1431.2876,-151.7477 1462,-142 1469.9896,-139.4642 1477.8068,-135.1746 1484.8264,-130.4224"/>
<polygon fill="#000000" stroke="#000000" points="1487.2476,-132.9872 1493.2442,-124.2528 1483.1096,-127.3413 1487.2476,-132.9872"/>
</g>
<!-- 1383524016 -->
<g id="node12" class="node">
<title>1383524016</title>
<polygon fill="none" stroke="#000000" points="2392.7456,-124 2323.2544,-124 2323.2544,-88 2392.7456,-88 2392.7456,-124"/>
<text text-anchor="middle" x="2358" y="-101.8" font-family="Times,serif" font-size="14.00" fill="#000000">accept g1</text>
</g>
<!-- 536765369 -->
<g id="node13" class="node">
<title>536765369</title>
<polygon fill="none" stroke="#000000" points="2133.7456,-124 2064.2544,-124 2064.2544,-88 2133.7456,-88 2133.7456,-124"/>
<text text-anchor="middle" x="2099" y="-101.8" font-family="Times,serif" font-size="14.00" fill="#000000">accept b1</text>
</g>
<!-- 1472465 -->
<g id="node14" class="node">
<title>1472465</title>
<polygon fill="none" stroke="#000000" points="675.0889,-268 518.9111,-268 518.9111,-232 675.0889,-232 675.0889,-268"/>
<text text-anchor="middle" x="597" y="-245.8" font-family="Times,serif" font-size="14.00" fill="#000000">transmit a1&#45;&gt;Core Client</text>
</g>
<!-- 1472465&#45;&gt;2129221032 -->
<g id="edge47" class="edge">
<title>1472465&#45;&gt;2129221032</title>
<path fill="none" stroke="#000000" stroke-dasharray="1,5" d="M675.1826,-233.4068C678.1553,-232.9086 681.1022,-232.4372 684,-232 849.9969,-206.9569 896.6185,-234.5825 1060,-196 1112.8558,-183.5181 1120.7988,-162.9164 1174,-152 1293.5893,-127.4614 1606.021,-166.9237 1723,-132 1725.9153,-131.1296 1728.8343,-130.0139 1731.7019,-128.7358"/>
<polygon fill="#000000" stroke="#000000" points="1733.2909,-131.8544 1740.6186,-124.2022 1730.1183,-125.6146 1733.2909,-131.8544"/>
</g>
<!-- 952486988 -->
<g id="node15" class="node">
<title>952486988</title>
<polygon fill="none" stroke="#000000" points="2019.9717,-52 1874.0283,-52 1874.0283,-16 2019.9717,-16 2019.9717,-52"/>
<text text-anchor="middle" x="1947" y="-29.8" font-family="Times,serif" font-size="14.00" fill="#000000">transmit b&#45;&gt;Executor 2</text>
</g>
<!-- 574568002 -->
<g id="node35" class="node">
<title>574568002</title>
<polygon fill="none" stroke="#000000" points="2609.2456,-412 2546.7544,-412 2546.7544,-376 2609.2456,-376 2609.2456,-412"/>
<text text-anchor="middle" x="2578" y="-389.8" font-family="Times,serif" font-size="14.00" fill="#000000">accept b</text>
</g>
<!-- 952486988&#45;&gt;574568002 -->
<g id="edge48" class="edge">
<title>952486988&#45;&gt;574568002</title>
<path fill="none" stroke="#000000" stroke-dasharray="1,5" d="M2020.2516,-39.4388C2146.5728,-48.9483 2400.3626,-68.662 2489,-80 2676.859,-104.0298 2728.5946,-94.3602 2909,-152 2934.3734,-160.1068 2963,-151.363 2963,-178 2963,-250 2963,-250 2963,-250 2963,-410.0512 2776.6938,-318.2239 2618.753,-375.9994"/>
<polygon fill="#000000" stroke="#000000" points="2617.4158,-372.7638 2609.3498,-379.6334 2619.9392,-379.2932 2617.4158,-372.7638"/>
</g>
<!-- 22671767 -->
<g id="node16" class="node">
<title>22671767</title>
<polygon fill="none" stroke="#000000" points="2479.7456,-124 2410.2544,-124 2410.2544,-88 2479.7456,-88 2479.7456,-124"/>
<text text-anchor="middle" x="2445" y="-101.8" font-family="Times,serif" font-size="14.00" fill="#000000">accept g2</text>
</g>
<!-- 802600647 -->
<g id="node18" class="node">
<title>802600647</title>
<polygon fill="none" stroke="#000000" points="2858.7648,-196 2705.2352,-196 2705.2352,-160 2858.7648,-160 2858.7648,-196"/>
<text text-anchor="middle" x="2782" y="-173.8" font-family="Times,serif" font-size="14.00" fill="#000000">transmit l1&#45;&gt;Core Client</text>
</g>
<!-- 802600647&#45;&gt;407697359 -->
<g id="edge49" class="edge">
<title>802600647&#45;&gt;407697359</title>
<path fill="none" stroke="#000000" stroke-dasharray="1,5" d="M2732.8284,-159.9816C2722.4433,-156.8101 2711.4599,-153.9154 2701,-152 2616.2938,-136.4884 2396.1926,-157.6929 2314,-132 2311.2375,-131.1365 2308.4734,-130.0487 2305.7562,-128.8109"/>
<polygon fill="#000000" stroke="#000000" points="2307.2547,-125.6452 2296.7685,-124.1319 2304.0222,-131.8542 2307.2547,-125.6452"/>
</g>
<!-- 1340565491 -->
<g id="node19" class="node">
<title>1340565491</title>
<polygon fill="none" stroke="#000000" points="1332.8751,-196 1183.1249,-196 1183.1249,-160 1332.8751,-160 1332.8751,-196"/>
<text text-anchor="middle" x="1258" y="-173.8" font-family="Times,serif" font-size="14.00" fill="#000000">transmit b&#45;&gt;Core Client</text>
</g>
<!-- 592617454 -->
<g id="node34" class="node">
<title>592617454</title>
<polygon fill="none" stroke="#000000" points="1880.2456,-124 1817.7544,-124 1817.7544,-88 1880.2456,-88 1880.2456,-124"/>
<text text-anchor="middle" x="1849" y="-101.8" font-family="Times,serif" font-size="14.00" fill="#000000">accept b</text>
</g>
<!-- 1340565491&#45;&gt;592617454 -->
<g id="edge50" class="edge">
<title>1340565491&#45;&gt;592617454</title>
<path fill="none" stroke="#000000" stroke-dasharray="1,5" d="M1308.399,-159.9159C1319.0396,-156.7491 1330.2904,-153.873 1341,-152 1443.5386,-134.0669 1709.8524,-163.7097 1809,-132 1811.5738,-131.1769 1814.1412,-130.1412 1816.662,-128.9607"/>
<polygon fill="#000000" stroke="#000000" points="1818.385,-132.008 1825.5153,-124.1716 1815.0544,-125.8511 1818.385,-132.008"/>
</g>
<!-- 689401025 -->
<g id="node20" class="node">
<title>689401025</title>
<polygon fill="none" stroke="#000000" points="1071.7456,-412 1002.2544,-412 1002.2544,-376 1071.7456,-376 1071.7456,-412"/>
<text text-anchor="middle" x="1037" y="-389.8" font-family="Times,serif" font-size="14.00" fill="#000000">accept n2</text>
</g>
<!-- 343856911 -->
<g id="node60" class="node">
<title>343856911</title>
<polygon fill="none" stroke="#000000" points="1120.7384,-340 855.2616,-340 855.2616,-304 1120.7384,-304 1120.7384,-340"/>
<text text-anchor="middle" x="988" y="-317.8" font-family="Times,serif" font-size="14.00" fill="#000000">cast n2 from Arr to demo.types.NummerList</text>
</g>
<!-- 689401025&#45;&gt;343856911 -->
<g id="edge41" class="edge">
<title>689401025&#45;&gt;343856911</title>
<path fill="none" stroke="#000000" d="M1024.6352,-375.8314C1019.0491,-367.6232 1012.337,-357.7606 1006.1928,-348.7323"/>
<polygon fill="#000000" stroke="#000000" points="1009.051,-346.7112 1000.5313,-340.4133 1003.264,-350.6496 1009.051,-346.7112"/>
</g>
<!-- 1907431275 -->
<g id="node21" class="node">
<title>1907431275</title>
<polygon fill="none" stroke="#000000" points="2435.375,-268 2278.625,-268 2278.625,-232 2435.375,-232 2435.375,-268"/>
<text text-anchor="middle" x="2357" y="-245.8" font-family="Times,serif" font-size="14.00" fill="#000000">transmit g1&#45;&gt;Core Client</text>
</g>
<!-- 1907431275&#45;&gt;1383524016 -->
<g id="edge51" class="edge">
<title>1907431275&#45;&gt;1383524016</title>
<path fill="none" stroke="#000000" stroke-dasharray="1,5" d="M2435.6025,-233.4482C2438.7715,-232.9313 2441.9132,-232.4455 2445,-232 2491.6862,-225.2622 2836.0914,-230.7396 2868,-196 2881.2286,-181.5978 2881.5288,-166.1206 2868,-152 2832.0696,-114.4979 2450.7183,-147.0163 2401,-132 2398.0875,-131.1203 2395.1705,-129.9978 2392.3043,-128.715"/>
<polygon fill="#000000" stroke="#000000" points="2393.8893,-125.5944 2383.3903,-124.1724 2390.711,-131.8313 2393.8893,-125.5944"/>
</g>
<!-- 790067787 -->
<g id="node22" class="node">
<title>790067787</title>
<polygon fill="none" stroke="#000000" points="2262.4717,-196 2109.5283,-196 2109.5283,-160 2262.4717,-160 2262.4717,-196"/>
<text text-anchor="middle" x="2186" y="-173.8" font-family="Times,serif" font-size="14.00" fill="#000000">transmit n2&#45;&gt;Executor 1</text>
</g>
<!-- 790067787&#45;&gt;689401025 -->
<g id="edge52" class="edge">
<title>790067787&#45;&gt;689401025</title>
<path fill="none" stroke="#000000" stroke-dasharray="1,5" d="M2109.2017,-194.6524C2106.0998,-195.1416 2103.0237,-195.594 2100,-196 1838.3079,-231.1393 1765.4099,-177.7612 1507,-232 1371.1728,-260.5094 1345.5379,-295.7325 1214,-340 1169.1895,-355.0804 1117.4064,-370.6676 1081.4755,-381.1954"/>
<polygon fill="#000000" stroke="#000000" points="1080.3988,-377.8636 1071.7805,-384.026 1082.3607,-384.5831 1080.3988,-377.8636"/>
</g>
<!-- 1997963191 -->
<g id="node23" class="node">
<title>1997963191</title>
<polygon fill="none" stroke="#000000" points="738.1349,-412 671.8651,-412 671.8651,-376 738.1349,-376 738.1349,-412"/>
<text text-anchor="middle" x="705" y="-389.8" font-family="Times,serif" font-size="14.00" fill="#000000">accept l1</text>
</g>
<!-- 1769193365 -->
<g id="node56" class="node">
<title>1769193365</title>
<polygon fill="none" stroke="#000000" points="554.128,-340 291.872,-340 291.872,-304 554.128,-304 554.128,-340"/>
<text text-anchor="middle" x="423" y="-317.8" font-family="Times,serif" font-size="14.00" fill="#000000">cast l1 from Arr to demo.types.NummerList</text>
</g>
<!-- 1997963191&#45;&gt;1769193365 -->
<g id="edge29" class="edge">
<title>1997963191&#45;&gt;1769193365</title>
<path fill="none" stroke="#000000" d="M671.8218,-385.529C630.7547,-375.0438 559.4189,-356.8303 503.6286,-342.586"/>
<polygon fill="#000000" stroke="#000000" points="504.3125,-339.1484 493.7574,-340.0657 502.5808,-345.9308 504.3125,-339.1484"/>
</g>
<!-- 1625082366 -->
<g id="node24" class="node">
<title>1625082366</title>
<polygon fill="none" stroke="#000000" points="2380.6857,-52 2235.3143,-52 2235.3143,-16 2380.6857,-16 2380.6857,-52"/>
<text text-anchor="middle" x="2308" y="-29.8" font-family="Times,serif" font-size="14.00" fill="#000000">transmit a&#45;&gt;Executor 2</text>
</g>
<!-- 1014166943 -->
<g id="node27" class="node">
<title>1014166943</title>
<polygon fill="none" stroke="#000000" points="2688.9607,-412 2627.0393,-412 2627.0393,-376 2688.9607,-376 2688.9607,-412"/>
<text text-anchor="middle" x="2658" y="-389.8" font-family="Times,serif" font-size="14.00" fill="#000000">accept a</text>
</g>
<!-- 1625082366&#45;&gt;1014166943 -->
<g id="edge53" class="edge">
<title>1625082366&#45;&gt;1014166943</title>
<path fill="none" stroke="#000000" stroke-dasharray="1,5" d="M2380.8006,-36.7132C2549.4798,-43.308 2954.468,-61.0355 2977,-80 3011.308,-108.876 3001,-133.1573 3001,-178 3001,-250 3001,-250 3001,-250 3001,-291.3978 3007.6005,-312.1183 2977,-340 2936.8993,-376.5378 2775.6937,-388.6811 2698.9734,-392.441"/>
<polygon fill="#000000" stroke="#000000" points="2698.5565,-388.9565 2688.73,-392.9175 2698.8819,-395.9489 2698.5565,-388.9565"/>
</g>
<!-- 225472281 -->
<g id="node25" class="node">
<title>225472281</title>
<polygon fill="none" stroke="#000000" points="931.7456,-412 862.2544,-412 862.2544,-376 931.7456,-376 931.7456,-412"/>
<text text-anchor="middle" x="897" y="-389.8" font-family="Times,serif" font-size="14.00" fill="#000000">accept n1</text>
</g>
<!-- 690521419 -->
<g id="node55" class="node">
<title>690521419</title>
<polygon fill="none" stroke="#000000" points="837.7384,-340 572.2616,-340 572.2616,-304 837.7384,-304 837.7384,-340"/>
<text text-anchor="middle" x="705" y="-317.8" font-family="Times,serif" font-size="14.00" fill="#000000">cast n1 from Arr to demo.types.NummerList</text>
</g>
<!-- 225472281&#45;&gt;690521419 -->
<g id="edge34" class="edge">
<title>225472281&#45;&gt;690521419</title>
<path fill="none" stroke="#000000" d="M862.2302,-380.9613C834.4939,-370.5602 795.0541,-355.7703 762.6148,-343.6055"/>
<polygon fill="#000000" stroke="#000000" points="763.8232,-340.3207 753.2309,-340.0866 761.3652,-346.875 763.8232,-340.3207"/>
</g>
<!-- 534906248&#45;&gt;1997963191 -->
<g id="edge54" class="edge">
<title>534906248&#45;&gt;1997963191</title>
<path fill="none" stroke="#000000" stroke-dasharray="1,5" d="M1475.0478,-37.0702C1361.9584,-42.4737 1158.4397,-55.5035 1136,-80 1057.9246,-165.2316 1207.4029,-254.1572 1130,-340 1128.4033,-341.7708 856.3876,-375.3875 748.4263,-388.6678"/>
<polygon fill="#000000" stroke="#000000" points="747.7009,-385.2305 738.2028,-389.9249 748.5553,-392.1782 747.7009,-385.2305"/>
</g>
<!-- 247944893 -->
<g id="node49" class="node">
<title>247944893</title>
<polygon fill="none" stroke="#000000" points="2636.0273,-340 2367.9727,-340 2367.9727,-304 2636.0273,-304 2636.0273,-340"/>
<text text-anchor="middle" x="2502" y="-317.8" font-family="Times,serif" font-size="14.00" fill="#000000">g2 = demo.math.Gerade::__construct([a, &#45;1])</text>
</g>
<!-- 1014166943&#45;&gt;247944893 -->
<g id="edge11" class="edge">
<title>1014166943&#45;&gt;247944893</title>
<path fill="none" stroke="#000000" d="M2627.1794,-379.7751C2605.2907,-369.6726 2575.462,-355.9055 2550.4127,-344.3443"/>
<polygon fill="#000000" stroke="#000000" points="2551.6192,-341.0464 2541.0729,-340.0336 2548.6858,-347.4021 2551.6192,-341.0464"/>
</g>
<!-- 1978869058&#45;&gt;1625082366 -->
<g id="edge2" class="edge">
<title>1978869058&#45;&gt;1625082366</title>
<path fill="none" stroke="#000000" d="M1952.408,-87.9572C1957.3409,-84.8695 1962.6714,-82.0133 1968,-80 2013.5798,-62.7791 2139.7587,-48.7822 2224.9065,-40.9217"/>
<polygon fill="#000000" stroke="#000000" points="2225.4381,-44.3878 2235.0788,-39.9937 2224.8021,-37.4168 2225.4381,-44.3878"/>
</g>
<!-- 733943822 -->
<g id="node29" class="node">
<title>733943822</title>
<polygon fill="none" stroke="#000000" points="878.7648,-196 725.2352,-196 725.2352,-160 878.7648,-160 878.7648,-196"/>
<text text-anchor="middle" x="802" y="-173.8" font-family="Times,serif" font-size="14.00" fill="#000000">transmit l3&#45;&gt;Core Client</text>
</g>
<!-- 733943822&#45;&gt;222511810 -->
<g id="edge55" class="edge">
<title>733943822&#45;&gt;222511810</title>
<path fill="none" stroke="#000000" stroke-dasharray="1,5" d="M853.7815,-159.9485C864.9404,-156.7364 876.7622,-153.8341 888,-152 1034.3524,-128.114 1412.9943,-174.7078 1555,-132 1557.7717,-131.1664 1560.5425,-130.1007 1563.2646,-128.8786"/>
<polygon fill="#000000" stroke="#000000" points="1564.9836,-131.9301 1572.2619,-124.2309 1561.7709,-125.7109 1564.9836,-131.9301"/>
</g>
<!-- 1422222071 -->
<g id="node30" class="node">
<title>1422222071</title>
<polygon fill="none" stroke="#000000" points="1915.375,-196 1758.625,-196 1758.625,-160 1915.375,-160 1915.375,-196"/>
<text text-anchor="middle" x="1837" y="-173.8" font-family="Times,serif" font-size="14.00" fill="#000000">transmit n1&#45;&gt;Core Client</text>
</g>
<!-- 1422222071&#45;&gt;1671846437 -->
<g id="edge56" class="edge">
<title>1422222071&#45;&gt;1671846437</title>
<path fill="none" stroke="#000000" stroke-dasharray="1,5" d="M1897.1894,-159.9666C1920.0928,-152.3464 1946.1604,-142.7407 1969,-132 1970.8355,-131.1368 1972.6922,-130.216 1974.5512,-129.2551"/>
<polygon fill="#000000" stroke="#000000" points="1976.6906,-132.0738 1983.7774,-124.1981 1973.326,-125.9355 1976.6906,-132.0738"/>
</g>
<!-- 2024453272 -->
<g id="node31" class="node">
<title>2024453272</title>
<polygon fill="none" stroke="#000000" points="2610.375,-268 2453.625,-268 2453.625,-232 2610.375,-232 2610.375,-268"/>
<text text-anchor="middle" x="2532" y="-245.8" font-family="Times,serif" font-size="14.00" fill="#000000">transmit g2&#45;&gt;Core Client</text>
</g>
<!-- 2024453272&#45;&gt;22671767 -->
<g id="edge57" class="edge">
<title>2024453272&#45;&gt;22671767</title>
<path fill="none" stroke="#000000" stroke-dasharray="1,5" d="M2610.6328,-233.6412C2613.7934,-233.0708 2616.925,-232.5212 2620,-232 2742.137,-211.2992 2969.9381,-244.0176 2887,-152 2860.7248,-122.8484 2596.988,-110.9773 2489.868,-107.3332"/>
<polygon fill="#000000" stroke="#000000" points="2489.8129,-103.8295 2479.7024,-106.9962 2489.5809,-110.8257 2489.8129,-103.8295"/>
</g>
<!-- 817348612 -->
<g id="node32" class="node">
<title>817348612</title>
<polygon fill="none" stroke="#000000" points="1706.4717,-196 1553.5283,-196 1553.5283,-160 1706.4717,-160 1706.4717,-196"/>
<text text-anchor="middle" x="1630" y="-173.8" font-family="Times,serif" font-size="14.00" fill="#000000">transmit n1&#45;&gt;Executor 1</text>
</g>
<!-- 817348612&#45;&gt;225472281 -->
<g id="edge58" class="edge">
<title>817348612&#45;&gt;225472281</title>
<path fill="none" stroke="#000000" stroke-dasharray="1,5" d="M1553.245,-190.9265C1487.1981,-202.5254 1397.2962,-219.584 1363,-232 1268.012,-266.3877 1257.9754,-305.5776 1163,-340 1142.4413,-347.4512 1011.8481,-372.4871 941.5971,-385.6896"/>
<polygon fill="#000000" stroke="#000000" points="940.8735,-382.2642 931.6904,-387.5482 942.1643,-389.1442 940.8735,-382.2642"/>
</g>
<!-- 592617454&#45;&gt;952486988 -->
<g id="edge3" class="edge">
<title>592617454&#45;&gt;952486988</title>
<path fill="none" stroke="#000000" d="M1873.7295,-87.8314C1885.9162,-78.8779 1900.7823,-67.9558 1913.9312,-58.2955"/>
<polygon fill="#000000" stroke="#000000" points="1916.2918,-60.9042 1922.2784,-52.1628 1912.1473,-55.263 1916.2918,-60.9042"/>
</g>
<!-- 1571967156 -->
<g id="node42" class="node">
<title>1571967156</title>
<polygon fill="none" stroke="#000000" points="2022.1514,-340 1757.8486,-340 1757.8486,-304 2022.1514,-304 2022.1514,-340"/>
<text text-anchor="middle" x="1890" y="-317.8" font-family="Times,serif" font-size="14.00" fill="#000000">g1 = demo.math.Gerade::__construct([b, 1])</text>
</g>
<!-- 574568002&#45;&gt;1571967156 -->
<g id="edge21" class="edge">
<title>574568002&#45;&gt;1571967156</title>
<path fill="none" stroke="#000000" d="M2546.4773,-378.6478C2543.6529,-377.6302 2540.8016,-376.7243 2538,-376 2445.7321,-352.1453 2193.3034,-336.2674 2032.1108,-328.2208"/>
<polygon fill="#000000" stroke="#000000" points="2032.2692,-324.7245 2022.1083,-327.7257 2031.923,-331.7159 2032.2692,-324.7245"/>
</g>
<!-- 1374026904 -->
<g id="node36" class="node">
<title>1374026904</title>
<polygon fill="none" stroke="#000000" points="2091.375,-196 1934.625,-196 1934.625,-160 2091.375,-160 2091.375,-196"/>
<text text-anchor="middle" x="2013" y="-173.8" font-family="Times,serif" font-size="14.00" fill="#000000">transmit b1&#45;&gt;Core Client</text>
</g>
<!-- 1374026904&#45;&gt;536765369 -->
<g id="edge59" class="edge">
<title>1374026904&#45;&gt;536765369</title>
<path fill="none" stroke="#000000" stroke-dasharray="1,5" d="M2034.7014,-159.8314C2045.1921,-151.0485 2057.9455,-140.3712 2069.3194,-130.8489"/>
<polygon fill="#000000" stroke="#000000" points="2071.8847,-133.2659 2077.3055,-124.1628 2067.3911,-127.8986 2071.8847,-133.2659"/>
</g>
<!-- Core Client -->
<g id="node37" class="node">
<title>Core Client</title>
<polygon fill="none" stroke="#ffa500" stroke-width="2" points="1462.3872,-111.5623 1399,-124 1335.6128,-111.5623 1335.672,-91.4377 1462.328,-91.4377 1462.3872,-111.5623"/>
<text text-anchor="middle" x="1399" y="-101.8" font-family="Times,serif" font-size="14.00" fill="#000000">Core Client</text>
</g>
<!-- 370440646 -->
<g id="node38" class="node">
<title>370440646</title>
<polygon fill="none" stroke="#000000" points="1317.5381,-124 1240.4619,-124 1240.4619,-88 1317.5381,-88 1317.5381,-124"/>
<text text-anchor="middle" x="1279" y="-101.8" font-family="Times,serif" font-size="14.00" fill="#000000">send graph</text>
</g>
<!-- 1966250569 -->
<g id="node39" class="node">
<title>1966250569</title>
<polygon fill="none" stroke="#000000" points="1222.5381,-124 1145.4619,-124 1145.4619,-88 1222.5381,-88 1222.5381,-124"/>
<text text-anchor="middle" x="1184" y="-101.8" font-family="Times,serif" font-size="14.00" fill="#000000">send graph</text>
</g>
<!-- Executor 2 -->
<g id="node40" class="node">
<title>Executor 2</title>
<polygon fill="none" stroke="#ffa500" stroke-width="2" points="2240.2915,-399.5623 2180,-412 2119.7085,-399.5623 2119.7647,-379.4377 2240.2353,-379.4377 2240.2915,-399.5623"/>
<text text-anchor="middle" x="2180" y="-389.8" font-family="Times,serif" font-size="14.00" fill="#000000">Executor 2</text>
</g>
<!-- 1024597427 -->
<g id="node41" class="node">
<title>1024597427</title>
<polygon fill="none" stroke="#000000" points="2528.9658,-412 2415.0342,-412 2415.0342,-376 2528.9658,-376 2528.9658,-412"/>
<text text-anchor="middle" x="2472" y="-389.8" font-family="Times,serif" font-size="14.00" fill="#000000">parse Number: &#45;1</text>
</g>
<!-- 1024597427&#45;&gt;247944893 -->
<g id="edge4" class="edge">
<title>1024597427&#45;&gt;247944893</title>
<path fill="none" stroke="#000000" d="M2479.5703,-375.8314C2482.8493,-367.9617 2486.762,-358.5712 2490.3945,-349.8533"/>
<polygon fill="#000000" stroke="#000000" points="2493.7124,-350.9902 2494.3278,-340.4133 2487.2508,-348.2979 2493.7124,-350.9902"/>
</g>
<!-- 1571967156&#45;&gt;1907431275 -->
<g id="edge8" class="edge">
<title>1571967156&#45;&gt;1907431275</title>
<path fill="none" stroke="#000000" d="M2022.2941,-305.1394C2092.5964,-295.6984 2180.6768,-283.11 2268.4888,-268.0352"/>
<polygon fill="#000000" stroke="#000000" points="2269.104,-271.4808 2278.3622,-266.3294 2267.9123,-264.583 2269.104,-271.4808"/>
</g>
<!-- 1277009227 -->
<g id="node46" class="node">
<title>1277009227</title>
<polygon fill="none" stroke="#000000" points="1904.1479,-268 1767.8521,-268 1767.8521,-232 1904.1479,-232 1904.1479,-268"/>
<text text-anchor="middle" x="1836" y="-245.8" font-family="Times,serif" font-size="14.00" fill="#000000">n1 = g1::nullstelle([])</text>
</g>
<!-- 1571967156&#45;&gt;1277009227 -->
<g id="edge6" class="edge">
<title>1571967156&#45;&gt;1277009227</title>
<path fill="none" stroke="#000000" d="M1876.3735,-303.8314C1870.154,-295.5386 1862.6678,-285.557 1855.84,-276.4533"/>
<polygon fill="#000000" stroke="#000000" points="1858.61,-274.3133 1849.81,-268.4133 1853.01,-278.5133 1858.61,-274.3133"/>
</g>
<!-- 1990098664 -->
<g id="node47" class="node">
<title>1990098664</title>
<polygon fill="none" stroke="#000000" points="1749.2145,-268 1688.7855,-268 1688.7855,-232 1749.2145,-232 1749.2145,-268"/>
<text text-anchor="middle" x="1719" y="-245.8" font-family="Times,serif" font-size="14.00" fill="#000000">store g1</text>
</g>
<!-- 1571967156&#45;&gt;1990098664 -->
<g id="edge7" class="edge">
<title>1571967156&#45;&gt;1990098664</title>
<path fill="none" stroke="#000000" d="M1845.287,-303.9803C1819.8992,-293.646 1787.5774,-280.3162 1759,-268 1758.9038,-267.9586 1758.8076,-267.917 1758.7112,-267.8755"/>
<polygon fill="#000000" stroke="#000000" points="1760.0951,-264.6607 1749.5306,-263.8592 1757.2894,-271.0738 1760.0951,-264.6607"/>
</g>
<!-- 2051853139 -->
<g id="node51" class="node">
<title>2051853139</title>
<polygon fill="none" stroke="#000000" points="1670.3872,-268 1515.6128,-268 1515.6128,-232 1670.3872,-232 1670.3872,-268"/>
<text text-anchor="middle" x="1593" y="-245.8" font-family="Times,serif" font-size="14.00" fill="#000000">g1::liagtAufGerade([l4])</text>
</g>
<!-- 1571967156&#45;&gt;2051853139 -->
<g id="edge9" class="edge">
<title>1571967156&#45;&gt;2051853139</title>
<path fill="none" stroke="#000000" d="M1815.4377,-303.9243C1773.4324,-293.7412 1720.8305,-280.9892 1677.3266,-270.4428"/>
<polygon fill="#000000" stroke="#000000" points="1677.8784,-266.9753 1667.3353,-268.0207 1676.2292,-273.7782 1677.8784,-266.9753"/>
</g>
<!-- 591391158 -->
<g id="node43" class="node">
<title>591391158</title>
<polygon fill="none" stroke="#000000" points="1944.8041,-412 1835.1959,-412 1835.1959,-376 1944.8041,-376 1944.8041,-412"/>
<text text-anchor="middle" x="1890" y="-389.8" font-family="Times,serif" font-size="14.00" fill="#000000">parse Number: 1</text>
</g>
<!-- 591391158&#45;&gt;1571967156 -->
<g id="edge10" class="edge">
<title>591391158&#45;&gt;1571967156</title>
<path fill="none" stroke="#000000" d="M1890,-375.8314C1890,-368.131 1890,-358.9743 1890,-350.4166"/>
<polygon fill="#000000" stroke="#000000" points="1893.5001,-350.4132 1890,-340.4133 1886.5001,-350.4133 1893.5001,-350.4132"/>
</g>
<!-- 1307904972 -->
<g id="node48" class="node">
<title>1307904972</title>
<polygon fill="none" stroke="#000000" points="2105.7824,-268 1922.2176,-268 1922.2176,-232 2105.7824,-232 2105.7824,-268"/>
<text text-anchor="middle" x="2014" y="-245.8" font-family="Times,serif" font-size="14.00" fill="#000000">b1 = g2::liagtAufGerade([l4])</text>
</g>
<!-- 71587369&#45;&gt;1307904972 -->
<g id="edge12" class="edge">
<title>71587369&#45;&gt;1307904972</title>
<path fill="none" stroke="#000000" d="M1724.9059,-303.9243C1782.0108,-293.2726 1854.1843,-279.8102 1912.1316,-269.0014"/>
<polygon fill="#000000" stroke="#000000" points="1912.8514,-272.4276 1922.04,-267.1532 1911.5678,-265.5462 1912.8514,-272.4276"/>
</g>
<!-- 71587369&#45;&gt;2051853139 -->
<g id="edge13" class="edge">
<title>71587369&#45;&gt;2051853139</title>
<path fill="none" stroke="#000000" d="M1619.168,-303.8314C1615.3014,-295.8771 1610.6794,-286.369 1606.4032,-277.5723"/>
<polygon fill="#000000" stroke="#000000" points="1609.4707,-275.8768 1601.9509,-268.4133 1603.1751,-278.9371 1609.4707,-275.8768"/>
</g>
<!-- 1686100174 -->
<g id="node45" class="node">
<title>1686100174</title>
<polygon fill="none" stroke="#000000" points="2689.2145,-268 2628.7855,-268 2628.7855,-232 2689.2145,-232 2689.2145,-268"/>
<text text-anchor="middle" x="2659" y="-245.8" font-family="Times,serif" font-size="14.00" fill="#000000">store g2</text>
</g>
<!-- 1277009227&#45;&gt;1422222071 -->
<g id="edge14" class="edge">
<title>1277009227&#45;&gt;1422222071</title>
<path fill="none" stroke="#000000" d="M1836.2523,-231.8314C1836.3593,-224.131 1836.4865,-214.9743 1836.6053,-206.4166"/>
<polygon fill="#000000" stroke="#000000" points="1840.1049,-206.4609 1836.7443,-196.4133 1833.1056,-206.3637 1840.1049,-206.4609"/>
</g>
<!-- 1277009227&#45;&gt;817348612 -->
<g id="edge15" class="edge">
<title>1277009227&#45;&gt;817348612</title>
<path fill="none" stroke="#000000" d="M1784.2834,-231.9243C1756.122,-222.0815 1721.0938,-209.8386 1691.5347,-199.5073"/>
<polygon fill="#000000" stroke="#000000" points="1692.3327,-196.0786 1681.7379,-196.0831 1690.0231,-202.6866 1692.3327,-196.0786"/>
</g>
<!-- 1307904972&#45;&gt;1374026904 -->
<g id="edge16" class="edge">
<title>1307904972&#45;&gt;1374026904</title>
<path fill="none" stroke="#000000" d="M2013.7477,-231.8314C2013.6407,-224.131 2013.5135,-214.9743 2013.3947,-206.4166"/>
<polygon fill="#000000" stroke="#000000" points="2016.8944,-206.3637 2013.2557,-196.4133 2009.8951,-206.4609 2016.8944,-206.3637"/>
</g>
<!-- 247944893&#45;&gt;2024453272 -->
<g id="edge18" class="edge">
<title>247944893&#45;&gt;2024453272</title>
<path fill="none" stroke="#000000" d="M2509.5703,-303.8314C2512.8493,-295.9617 2516.762,-286.5712 2520.3945,-277.8533"/>
<polygon fill="#000000" stroke="#000000" points="2523.7124,-278.9902 2524.3278,-268.4133 2517.2508,-276.2979 2523.7124,-278.9902"/>
</g>
<!-- 247944893&#45;&gt;1686100174 -->
<g id="edge17" class="edge">
<title>247944893&#45;&gt;1686100174</title>
<path fill="none" stroke="#000000" d="M2541.6177,-303.8314C2565.3553,-292.9453 2595.4389,-279.1491 2619.2075,-268.2488"/>
<polygon fill="#000000" stroke="#000000" points="2620.6787,-271.4247 2628.3094,-264.0747 2617.7607,-265.0619 2620.6787,-271.4247"/>
</g>
<!-- 247944893&#45;&gt;1307904972 -->
<g id="edge19" class="edge">
<title>247944893&#45;&gt;1307904972</title>
<path fill="none" stroke="#000000" d="M2367.9354,-304.5597C2296.051,-294.9019 2205.7147,-282.278 2115.9907,-268.1282"/>
<polygon fill="#000000" stroke="#000000" points="2116.3282,-264.6381 2105.9037,-266.5306 2115.233,-271.552 2116.3282,-264.6381"/>
</g>
<!-- 1914301543 -->
<g id="node50" class="node">
<title>1914301543</title>
<polygon fill="none" stroke="#000000" points="2260.1479,-268 2123.8521,-268 2123.8521,-232 2260.1479,-232 2260.1479,-268"/>
<text text-anchor="middle" x="2192" y="-245.8" font-family="Times,serif" font-size="14.00" fill="#000000">n2 = g2::nullstelle([])</text>
</g>
<!-- 247944893&#45;&gt;1914301543 -->
<g id="edge20" class="edge">
<title>247944893&#45;&gt;1914301543</title>
<path fill="none" stroke="#000000" d="M2424.174,-303.9243C2377.123,-292.9963 2317.3342,-279.1099 2270.2135,-268.1657"/>
<polygon fill="#000000" stroke="#000000" points="2270.8924,-264.7303 2260.3598,-265.8771 2269.3087,-271.5488 2270.8924,-264.7303"/>
</g>
<!-- 1914301543&#45;&gt;1016925085 -->
<g id="edge22" class="edge">
<title>1914301543&#45;&gt;1016925085</title>
<path fill="none" stroke="#000000" d="M2234.1412,-231.8314C2256.4764,-222.2018 2284.0936,-210.295 2307.671,-200.1299"/>
<polygon fill="#000000" stroke="#000000" points="2309.3647,-203.2112 2317.1619,-196.038 2306.5933,-196.7831 2309.3647,-203.2112"/>
</g>
<!-- 1914301543&#45;&gt;790067787 -->
<g id="edge23" class="edge">
<title>1914301543&#45;&gt;790067787</title>
<path fill="none" stroke="#000000" d="M2190.4859,-231.8314C2189.8442,-224.131 2189.0812,-214.9743 2188.3681,-206.4166"/>
<polygon fill="#000000" stroke="#000000" points="2191.8529,-206.088 2187.5344,-196.4133 2184.8771,-206.6694 2191.8529,-206.088"/>
</g>
<!-- Executor 1 -->
<g id="node52" class="node">
<title>Executor 1</title>
<polygon fill="none" stroke="#ffa500" stroke-width="2" points="441.2915,-399.5623 381,-412 320.7085,-399.5623 320.7647,-379.4377 441.2353,-379.4377 441.2915,-399.5623"/>
<text text-anchor="middle" x="381" y="-389.8" font-family="Times,serif" font-size="14.00" fill="#000000">Executor 1</text>
</g>
<!-- 317071334 -->
<g id="node53" class="node">
<title>317071334</title>
<polygon fill="none" stroke="#000000" points="174.9278,-268 115.0722,-268 115.0722,-232 174.9278,-232 174.9278,-268"/>
<text text-anchor="middle" x="145" y="-245.8" font-family="Times,serif" font-size="14.00" fill="#000000">store a1</text>
</g>
<!-- 296347592 -->
<g id="node54" class="node">
<title>296347592</title>
<polygon fill="none" stroke="#000000" points="274.2033,-340 15.7967,-340 15.7967,-304 274.2033,-304 274.2033,-340"/>
<text text-anchor="middle" x="145" y="-317.8" font-family="Times,serif" font-size="14.00" fill="#000000">a1 = demo.math.Addierer::__construct([5])</text>
</g>
<!-- 296347592&#45;&gt;1472465 -->
<g id="edge26" class="edge">
<title>296347592&#45;&gt;1472465</title>
<path fill="none" stroke="#000000" d="M274.5173,-304.6744C341.7556,-295.2356 425.4498,-282.7985 508.8785,-268.1521"/>
<polygon fill="#000000" stroke="#000000" points="509.5473,-271.5882 518.786,-266.402 508.3296,-264.6949 509.5473,-271.5882"/>
</g>
<!-- 296347592&#45;&gt;317071334 -->
<g id="edge24" class="edge">
<title>296347592&#45;&gt;317071334</title>
<path fill="none" stroke="#000000" d="M145,-303.8314C145,-296.131 145,-286.9743 145,-278.4166"/>
<polygon fill="#000000" stroke="#000000" points="148.5001,-278.4132 145,-268.4133 141.5001,-278.4133 148.5001,-278.4132"/>
</g>
<!-- 1196695891 -->
<g id="node57" class="node">
<title>1196695891</title>
<polygon fill="none" stroke="#000000" points="707.6925,-196 520.3075,-196 520.3075,-160 707.6925,-160 707.6925,-196"/>
<text text-anchor="middle" x="614" y="-173.8" font-family="Times,serif" font-size="14.00" fill="#000000">l4 = a1::summierListe([l3, l2])</text>
</g>
<!-- 296347592&#45;&gt;1196695891 -->
<g id="edge25" class="edge">
<title>296347592&#45;&gt;1196695891</title>
<path fill="none" stroke="#000000" d="M177.1071,-303.8301C214.2637,-283.5315 277.8164,-251.03 336,-232 392.3026,-213.5852 457.1869,-200.5427 510.1036,-191.8947"/>
<polygon fill="#000000" stroke="#000000" points="510.8615,-195.3179 520.1803,-190.2771 509.7519,-188.4064 510.8615,-195.3179"/>
</g>
<!-- 1708570683 -->
<g id="node58" class="node">
<title>1708570683</title>
<polygon fill="none" stroke="#000000" points="886.9135,-268 693.0865,-268 693.0865,-232 886.9135,-232 886.9135,-268"/>
<text text-anchor="middle" x="790" y="-245.8" font-family="Times,serif" font-size="14.00" fill="#000000">l2 = a1::summierListe([n1, n2])</text>
</g>
<!-- 296347592&#45;&gt;1708570683 -->
<g id="edge27" class="edge">
<title>296347592&#45;&gt;1708570683</title>
<path fill="none" stroke="#000000" d="M274.2645,-304.9794C277.2031,-304.6442 280.118,-304.3172 283,-304 457.6516,-284.7778 504.8512,-290.7674 683.2997,-268.0305"/>
<polygon fill="#000000" stroke="#000000" points="683.8127,-271.4934 693.2843,-266.746 682.9194,-264.5507 683.8127,-271.4934"/>
</g>
<!-- 363988129 -->
<g id="node61" class="node">
<title>363988129</title>
<polygon fill="none" stroke="#000000" points="500.7893,-268 345.2107,-268 345.2107,-232 500.7893,-232 500.7893,-268"/>
<text text-anchor="middle" x="423" y="-245.8" font-family="Times,serif" font-size="14.00" fill="#000000">l3 = a1::addierListe([l1])</text>
</g>
<!-- 296347592&#45;&gt;363988129 -->
<g id="edge28" class="edge">
<title>296347592&#45;&gt;363988129</title>
<path fill="none" stroke="#000000" d="M214.7923,-303.9243C253.8706,-293.8033 302.7469,-281.1447 343.3219,-270.6361"/>
<polygon fill="#000000" stroke="#000000" points="344.3759,-273.9786 353.179,-268.0831 342.6208,-267.2022 344.3759,-273.9786"/>
</g>
<!-- 690521419&#45;&gt;1708570683 -->
<g id="edge30" class="edge">
<title>690521419&#45;&gt;1708570683</title>
<path fill="none" stroke="#000000" d="M726.4491,-303.8314C736.8178,-295.0485 749.4229,-284.3712 760.6646,-274.8489"/>
<polygon fill="#000000" stroke="#000000" points="763.1895,-277.297 768.5578,-268.1628 758.6651,-271.9556 763.1895,-277.297"/>
</g>
<!-- 1769193365&#45;&gt;363988129 -->
<g id="edge31" class="edge">
<title>1769193365&#45;&gt;363988129</title>
<path fill="none" stroke="#000000" d="M423,-303.8314C423,-296.131 423,-286.9743 423,-278.4166"/>
<polygon fill="#000000" stroke="#000000" points="426.5001,-278.4132 423,-268.4133 419.5001,-278.4133 426.5001,-278.4132"/>
</g>
<!-- 1196695891&#45;&gt;1453774246 -->
<g id="edge32" class="edge">
<title>1196695891&#45;&gt;1453774246</title>
<path fill="none" stroke="#000000" d="M682.4459,-159.9425C693.6321,-157.1673 705.119,-154.4229 716,-152 767.6146,-140.507 825.8426,-129.3435 872.1327,-120.8925"/>
<polygon fill="#000000" stroke="#000000" points="872.9092,-124.3088 882.1222,-119.0769 871.6575,-117.4216 872.9092,-124.3088"/>
</g>
<!-- 1196695891&#45;&gt;1100767002 -->
<g id="edge33" class="edge">
<title>1196695891&#45;&gt;1100767002</title>
<path fill="none" stroke="#000000" d="M628.6358,-159.8314C635.3161,-151.5386 643.3568,-141.557 650.6904,-132.4533"/>
<polygon fill="#000000" stroke="#000000" points="653.6194,-134.3965 657.1671,-124.4133 648.1681,-130.0052 653.6194,-134.3965"/>
</g>
<!-- 1708570683&#45;&gt;436532993 -->
<g id="edge35" class="edge">
<title>1708570683&#45;&gt;436532993</title>
<path fill="none" stroke="#000000" d="M836.431,-231.8314C861.368,-222.0734 892.2809,-209.977 918.4826,-199.7242"/>
<polygon fill="#000000" stroke="#000000" points="919.8659,-202.9414 927.9029,-196.038 917.3151,-196.4227 919.8659,-202.9414"/>
</g>
<!-- 1708570683&#45;&gt;1196695891 -->
<g id="edge36" class="edge">
<title>1708570683&#45;&gt;1196695891</title>
<path fill="none" stroke="#000000" d="M745.5878,-231.8314C721.8396,-222.1162 692.4254,-210.0831 667.4336,-199.8592"/>
<polygon fill="#000000" stroke="#000000" points="668.6736,-196.585 658.0929,-196.038 666.0231,-203.0638 668.6736,-196.585"/>
</g>
<!-- 349420578 -->
<g id="node59" class="node">
<title>349420578</title>
<polygon fill="none" stroke="#000000" points="199.8041,-412 90.1959,-412 90.1959,-376 199.8041,-376 199.8041,-412"/>
<text text-anchor="middle" x="145" y="-389.8" font-family="Times,serif" font-size="14.00" fill="#000000">parse Number: 5</text>
</g>
<!-- 349420578&#45;&gt;296347592 -->
<g id="edge37" class="edge">
<title>349420578&#45;&gt;296347592</title>
<path fill="none" stroke="#000000" d="M145,-375.8314C145,-368.131 145,-358.9743 145,-350.4166"/>
<polygon fill="#000000" stroke="#000000" points="148.5001,-350.4132 145,-340.4133 141.5001,-350.4133 148.5001,-350.4132"/>
</g>
<!-- 343856911&#45;&gt;1708570683 -->
<g id="edge38" class="edge">
<title>343856911&#45;&gt;1708570683</title>
<path fill="none" stroke="#000000" d="M938.2918,-303.9243C911.2241,-294.0815 877.5561,-281.8386 849.1451,-271.5073"/>
<polygon fill="#000000" stroke="#000000" points="850.3227,-268.2114 839.7286,-268.0831 847.9305,-274.7899 850.3227,-268.2114"/>
</g>
<!-- 363988129&#45;&gt;733943822 -->
<g id="edge40" class="edge">
<title>363988129&#45;&gt;733943822</title>
<path fill="none" stroke="#000000" d="M500.7638,-233.7831C503.8817,-233.1734 506.9696,-232.5769 510,-232 598.5983,-215.1349 623.6161,-213.7542 715.1419,-196.325"/>
<polygon fill="#000000" stroke="#000000" points="715.9526,-199.7334 725.1146,-194.4129 714.6344,-192.8586 715.9526,-199.7334"/>
</g>
<!-- 363988129&#45;&gt;1196695891 -->
<g id="edge39" class="edge">
<title>363988129&#45;&gt;1196695891</title>
<path fill="none" stroke="#000000" d="M471.1974,-231.8314C497.1966,-222.0306 529.4536,-209.8709 556.7281,-199.5894"/>
<polygon fill="#000000" stroke="#000000" points="558.0266,-202.8404 566.1492,-196.038 555.5574,-196.2904 558.0266,-202.8404"/>
</g>
</g>
</svg>
