<?xml version="1.0" encoding="UTF-8" standalone="no"?>
<!DOCTYPE svg PUBLIC "-//W3C//DTD SVG 1.1//EN"
 "http://www.w3.org/Graphics/SVG/1.1/DTD/svg11.dtd">
<!-- Generated by graphviz version 2.40.1 (20161225.0304)
 -->
<!-- Title: %3 Pages: 1 -->
<svg width="1285pt" height="116pt"
 viewBox="0.00 0.00 1284.59 116.00" xmlns="http://www.w3.org/2000/svg" xmlns:xlink="http://www.w3.org/1999/xlink">
<g id="graph0" class="graph" transform="scale(1 1) rotate(0) translate(4 112)">
<title>%3</title>
<polygon fill="#ffffff" stroke="transparent" points="-4,4 -4,-112 1280.5864,-112 1280.5864,4 -4,4"/>
<!-- 222511810 -->
<g id="node1" class="node">
<title>222511810</title>
<polygon fill="none" stroke="#000000" points="66.2023,-108 -.0675,-108 -.0675,-72 66.2023,-72 66.2023,-108"/>
<text text-anchor="middle" x="33.0674" y="-85.8" font-family="Times,serif" font-size="14.00" fill="#000000">accept l3</text>
</g>
<!-- 2129221032 -->
<g id="node2" class="node">
<title>2129221032</title>
<polygon fill="none" stroke="#000000" points="152.5279,-108 83.6068,-108 83.6068,-72 152.5279,-72 152.5279,-108"/>
<text text-anchor="middle" x="118.0674" y="-85.8" font-family="Times,serif" font-size="14.00" fill="#000000">accept a1</text>
</g>
<!-- 1625082366 -->
<g id="node3" class="node">
<title>1625082366</title>
<polygon fill="none" stroke="#000000" points="273.753,-36 128.3817,-36 128.3817,0 273.753,0 273.753,-36"/>
<text text-anchor="middle" x="201.0674" y="-13.8" font-family="Times,serif" font-size="14.00" fill="#000000">transmit a&#45;&gt;Executor 2</text>
</g>
<!-- 407697359 -->
<g id="node4" class="node">
<title>407697359</title>
<polygon fill="none" stroke="#000000" points="400.2023,-108 333.9325,-108 333.9325,-72 400.2023,-72 400.2023,-108"/>
<text text-anchor="middle" x="367.0674" y="-85.8" font-family="Times,serif" font-size="14.00" fill="#000000">accept l1</text>
</g>
<!-- 534906248 -->
<g id="node10" class="node">
<title>534906248</title>
<polygon fill="none" stroke="#000000" points="441.9288,-36 292.206,-36 292.206,0 441.9288,0 441.9288,-36"/>
<text text-anchor="middle" x="367.0674" y="-13.8" font-family="Times,serif" font-size="14.00" fill="#000000">transmit l1&#45;&gt;Executor 1</text>
</g>
<!-- 407697359&#45;&gt;534906248 -->
<g id="edge1" class="edge">
<title>407697359&#45;&gt;534906248</title>
<path fill="none" stroke="#000000" d="M367.0674,-71.8314C367.0674,-64.131 367.0674,-54.9743 367.0674,-46.4166"/>
<polygon fill="#000000" stroke="#000000" points="370.5675,-46.4132 367.0674,-36.4133 363.5675,-46.4133 370.5675,-46.4132"/>
</g>
<!-- 1671846437 -->
<g id="node5" class="node">
<title>1671846437</title>
<polygon fill="none" stroke="#000000" points="487.8129,-108 418.3218,-108 418.3218,-72 487.8129,-72 487.8129,-108"/>
<text text-anchor="middle" x="453.0674" y="-85.8" font-family="Times,serif" font-size="14.00" fill="#000000">accept n1</text>
</g>
<!-- 1840976765 -->
<g id="node6" class="node">
<title>1840976765</title>
<polygon fill="none" stroke="#000000" points="574.8129,-108 505.3218,-108 505.3218,-72 574.8129,-72 574.8129,-108"/>
<text text-anchor="middle" x="540.0674" y="-85.8" font-family="Times,serif" font-size="14.00" fill="#000000">accept n2</text>
</g>
<!-- 1383524016 -->
<g id="node7" class="node">
<title>1383524016</title>
<polygon fill="none" stroke="#000000" points="661.8129,-108 592.3218,-108 592.3218,-72 661.8129,-72 661.8129,-108"/>
<text text-anchor="middle" x="627.0674" y="-85.8" font-family="Times,serif" font-size="14.00" fill="#000000">accept g1</text>
</g>
<!-- 536765369 -->
<g id="node8" class="node">
<title>536765369</title>
<polygon fill="none" stroke="#000000" points="748.8129,-108 679.3218,-108 679.3218,-72 748.8129,-72 748.8129,-108"/>
<text text-anchor="middle" x="714.0674" y="-85.8" font-family="Times,serif" font-size="14.00" fill="#000000">accept b1</text>
</g>
<!-- 952486988 -->
<g id="node9" class="node">
<title>952486988</title>
<polygon fill="none" stroke="#000000" points="871.0391,-36 725.0957,-36 725.0957,0 871.0391,0 871.0391,-36"/>
<text text-anchor="middle" x="798.0674" y="-13.8" font-family="Times,serif" font-size="14.00" fill="#000000">transmit b&#45;&gt;Executor 2</text>
</g>
<!-- 22671767 -->
<g id="node11" class="node">
<title>22671767</title>
<polygon fill="none" stroke="#000000" points="916.8129,-108 847.3218,-108 847.3218,-72 916.8129,-72 916.8129,-108"/>
<text text-anchor="middle" x="882.0674" y="-85.8" font-family="Times,serif" font-size="14.00" fill="#000000">accept g2</text>
</g>
<!-- 1457410641 -->
<g id="node12" class="node">
<title>1457410641</title>
<polygon fill="none" stroke="#000000" points="1001.2023,-108 934.9325,-108 934.9325,-72 1001.2023,-72 1001.2023,-108"/>
<text text-anchor="middle" x="968.0674" y="-85.8" font-family="Times,serif" font-size="14.00" fill="#000000">accept l4</text>
</g>
<!-- 1978869058 -->
<g id="node13" class="node">
<title>1978869058</title>
<polygon fill="none" stroke="#000000" points="232.0281,-108 170.1067,-108 170.1067,-72 232.0281,-72 232.0281,-108"/>
<text text-anchor="middle" x="201.0674" y="-85.8" font-family="Times,serif" font-size="14.00" fill="#000000">accept a</text>
</g>
<!-- 1978869058&#45;&gt;1625082366 -->
<g id="edge2" class="edge">
<title>1978869058&#45;&gt;1625082366</title>
<path fill="none" stroke="#000000" d="M201.0674,-71.8314C201.0674,-64.131 201.0674,-54.9743 201.0674,-46.4166"/>
<polygon fill="#000000" stroke="#000000" points="204.5675,-46.4132 201.0674,-36.4133 197.5675,-46.4133 204.5675,-46.4132"/>
</g>
<!-- 370440646 -->
<g id="node14" class="node">
<title>370440646</title>
<polygon fill="none" stroke="#000000" points="1096.6055,-108 1019.5293,-108 1019.5293,-72 1096.6055,-72 1096.6055,-108"/>
<text text-anchor="middle" x="1058.0674" y="-85.8" font-family="Times,serif" font-size="14.00" fill="#000000">send graph</text>
</g>
<!-- 789653861 -->
<g id="node15" class="node">
<title>789653861</title>
<polygon fill="none" stroke="#000000" points="1181.2023,-108 1114.9325,-108 1114.9325,-72 1181.2023,-72 1181.2023,-108"/>
<text text-anchor="middle" x="1148.0674" y="-85.8" font-family="Times,serif" font-size="14.00" fill="#000000">accept l2</text>
</g>
<!-- 1966250569 -->
<g id="node16" class="node">
<title>1966250569</title>
<polygon fill="none" stroke="#000000" points="1276.6055,-108 1199.5293,-108 1199.5293,-72 1276.6055,-72 1276.6055,-108"/>
<text text-anchor="middle" x="1238.0674" y="-85.8" font-family="Times,serif" font-size="14.00" fill="#000000">send graph</text>
</g>
<!-- 592617454 -->
<g id="node17" class="node">
<title>592617454</title>
<polygon fill="none" stroke="#000000" points="829.313,-108 766.8218,-108 766.8218,-72 829.313,-72 829.313,-108"/>
<text text-anchor="middle" x="798.0674" y="-85.8" font-family="Times,serif" font-size="14.00" fill="#000000">accept b</text>
</g>
<!-- 592617454&#45;&gt;952486988 -->
<g id="edge3" class="edge">
<title>592617454&#45;&gt;952486988</title>
<path fill="none" stroke="#000000" d="M798.0674,-71.8314C798.0674,-64.131 798.0674,-54.9743 798.0674,-46.4166"/>
<polygon fill="#000000" stroke="#000000" points="801.5675,-46.4132 798.0674,-36.4133 794.5675,-46.4133 801.5675,-46.4132"/>
</g>
</g>
</svg>
