<?xml version="1.0" encoding="UTF-8" standalone="no"?>
<!DOCTYPE svg PUBLIC "-//W3C//DTD SVG 1.1//EN"
 "http://www.w3.org/Graphics/SVG/1.1/DTD/svg11.dtd">
<!-- Generated by graphviz version 2.40.1 (20161225.0304)
 -->
<!-- Title: %3 Pages: 1 -->
<svg width="1372pt" height="260pt"
 viewBox="0.00 0.00 1371.92 260.00" xmlns="http://www.w3.org/2000/svg" xmlns:xlink="http://www.w3.org/1999/xlink">
<g id="graph0" class="graph" transform="scale(1 1) rotate(0) translate(4 256)">
<title>%3</title>
<polygon fill="#ffffff" stroke="transparent" points="-4,4 -4,-256 1367.9233,-256 1367.9233,4 -4,4"/>
<!-- 1016925085 -->
<g id="node1" class="node">
<title>1016925085</title>
<polygon fill="none" stroke="#000000" points="1192.8125,-36 1036.0625,-36 1036.0625,0 1192.8125,0 1192.8125,-36"/>
<text text-anchor="middle" x="1114.4375" y="-13.8" font-family="Times,serif" font-size="14.00" fill="#000000">transmit n2&#45;&gt;Core Client</text>
</g>
<!-- 1024597427 -->
<g id="node2" class="node">
<title>1024597427</title>
<polygon fill="none" stroke="#000000" points="976.4033,-252 862.4717,-252 862.4717,-216 976.4033,-216 976.4033,-252"/>
<text text-anchor="middle" x="919.4375" y="-229.8" font-family="Times,serif" font-size="14.00" fill="#000000">parse Number: &#45;1</text>
</g>
<!-- 247944893 -->
<g id="node15" class="node">
<title>247944893</title>
<polygon fill="none" stroke="#000000" points="1106.4648,-180 838.4102,-180 838.4102,-144 1106.4648,-144 1106.4648,-180"/>
<text text-anchor="middle" x="972.4375" y="-157.8" font-family="Times,serif" font-size="14.00" fill="#000000">g2 = demo.math.Gerade::__construct([a, &#45;1])</text>
</g>
<!-- 1024597427&#45;&gt;247944893 -->
<g id="edge1" class="edge">
<title>1024597427&#45;&gt;247944893</title>
<path fill="none" stroke="#000000" d="M932.8116,-215.8314C938.8537,-207.6232 946.1138,-197.7606 952.7596,-188.7323"/>
<polygon fill="#000000" stroke="#000000" points="955.7738,-190.5415 958.8833,-180.4133 950.1364,-186.3918 955.7738,-190.5415"/>
</g>
<!-- 815674463 -->
<g id="node3" class="node">
<title>815674463</title>
<polygon fill="none" stroke="#000000" points="668.5724,-252 602.3026,-252 602.3026,-216 668.5724,-216 668.5724,-252"/>
<text text-anchor="middle" x="635.4375" y="-229.8" font-family="Times,serif" font-size="14.00" fill="#000000">accept l4</text>
</g>
<!-- 71587369 -->
<g id="node7" class="node">
<title>71587369</title>
<polygon fill="none" stroke="#000000" points="747.1964,-180 523.6786,-180 523.6786,-144 747.1964,-144 747.1964,-180"/>
<text text-anchor="middle" x="635.4375" y="-157.8" font-family="Times,serif" font-size="14.00" fill="#000000">cast l4 from Arr to demo.types.Punkt</text>
</g>
<!-- 815674463&#45;&gt;71587369 -->
<g id="edge2" class="edge">
<title>815674463&#45;&gt;71587369</title>
<path fill="none" stroke="#000000" d="M635.4375,-215.8314C635.4375,-208.131 635.4375,-198.9743 635.4375,-190.4166"/>
<polygon fill="#000000" stroke="#000000" points="638.9376,-190.4132 635.4375,-180.4133 631.9376,-190.4133 638.9376,-190.4132"/>
</g>
<!-- 1571967156 -->
<g id="node4" class="node">
<title>1571967156</title>
<polygon fill="none" stroke="#000000" points="486.5889,-180 222.2861,-180 222.2861,-144 486.5889,-144 486.5889,-180"/>
<text text-anchor="middle" x="354.4375" y="-157.8" font-family="Times,serif" font-size="14.00" fill="#000000">g1 = demo.math.Gerade::__construct([b, 1])</text>
</g>
<!-- 1277009227 -->
<g id="node12" class="node">
<title>1277009227</title>
<polygon fill="none" stroke="#000000" points="232.5854,-108 96.2896,-108 96.2896,-72 232.5854,-72 232.5854,-108"/>
<text text-anchor="middle" x="164.4375" y="-85.8" font-family="Times,serif" font-size="14.00" fill="#000000">n1 = g1::nullstelle([])</text>
</g>
<!-- 1571967156&#45;&gt;1277009227 -->
<g id="edge3" class="edge">
<title>1571967156&#45;&gt;1277009227</title>
<path fill="none" stroke="#000000" d="M306.4925,-143.8314C280.6293,-134.0306 248.5413,-121.8709 221.4095,-111.5894"/>
<polygon fill="#000000" stroke="#000000" points="222.6291,-108.3087 212.0378,-108.038 220.1486,-114.8545 222.6291,-108.3087"/>
</g>
<!-- 1990098664 -->
<g id="node13" class="node">
<title>1990098664</title>
<polygon fill="none" stroke="#000000" points="311.652,-108 251.223,-108 251.223,-72 311.652,-72 311.652,-108"/>
<text text-anchor="middle" x="281.4375" y="-85.8" font-family="Times,serif" font-size="14.00" fill="#000000">store g1</text>
</g>
<!-- 1571967156&#45;&gt;1990098664 -->
<g id="edge4" class="edge">
<title>1571967156&#45;&gt;1990098664</title>
<path fill="none" stroke="#000000" d="M336.0165,-143.8314C327.2846,-135.219 316.7058,-124.7851 307.1952,-115.4048"/>
<polygon fill="#000000" stroke="#000000" points="309.43,-112.6931 299.8526,-108.1628 304.5145,-117.6769 309.43,-112.6931"/>
</g>
<!-- 1907431275 -->
<g id="node16" class="node">
<title>1907431275</title>
<polygon fill="none" stroke="#000000" points="486.8125,-108 330.0625,-108 330.0625,-72 486.8125,-72 486.8125,-108"/>
<text text-anchor="middle" x="408.4375" y="-85.8" font-family="Times,serif" font-size="14.00" fill="#000000">transmit g1&#45;&gt;Core Client</text>
</g>
<!-- 1571967156&#45;&gt;1907431275 -->
<g id="edge5" class="edge">
<title>1571967156&#45;&gt;1907431275</title>
<path fill="none" stroke="#000000" d="M368.064,-143.8314C374.2835,-135.5386 381.7697,-125.557 388.5975,-116.4533"/>
<polygon fill="#000000" stroke="#000000" points="391.4275,-118.5133 394.6275,-108.4133 385.8275,-114.3133 391.4275,-118.5133"/>
</g>
<!-- 2051853139 -->
<g id="node21" class="node">
<title>2051853139</title>
<polygon fill="none" stroke="#000000" points="659.8247,-108 505.0503,-108 505.0503,-72 659.8247,-72 659.8247,-108"/>
<text text-anchor="middle" x="582.4375" y="-85.8" font-family="Times,serif" font-size="14.00" fill="#000000">g1::liagtAufGerade([l4])</text>
</g>
<!-- 1571967156&#45;&gt;2051853139 -->
<g id="edge6" class="edge">
<title>1571967156&#45;&gt;2051853139</title>
<path fill="none" stroke="#000000" d="M411.6772,-143.9243C443.2527,-133.9531 482.6279,-121.5188 515.6081,-111.104"/>
<polygon fill="#000000" stroke="#000000" points="516.6924,-114.4321 525.1742,-108.0831 514.5844,-107.757 516.6924,-114.4321"/>
</g>
<!-- 591391158 -->
<g id="node5" class="node">
<title>591391158</title>
<polygon fill="none" stroke="#000000" points="357.2416,-252 247.6334,-252 247.6334,-216 357.2416,-216 357.2416,-252"/>
<text text-anchor="middle" x="302.4375" y="-229.8" font-family="Times,serif" font-size="14.00" fill="#000000">parse Number: 1</text>
</g>
<!-- 591391158&#45;&gt;1571967156 -->
<g id="edge7" class="edge">
<title>591391158&#45;&gt;1571967156</title>
<path fill="none" stroke="#000000" d="M315.5593,-215.8314C321.4874,-207.6232 328.6104,-197.7606 335.1308,-188.7323"/>
<polygon fill="#000000" stroke="#000000" points="338.1215,-190.5693 341.139,-180.4133 332.4467,-186.4708 338.1215,-190.5693"/>
</g>
<!-- 1014166943 -->
<g id="node6" class="node">
<title>1014166943</title>
<polygon fill="none" stroke="#000000" points="1056.3982,-252 994.4768,-252 994.4768,-216 1056.3982,-216 1056.3982,-252"/>
<text text-anchor="middle" x="1025.4375" y="-229.8" font-family="Times,serif" font-size="14.00" fill="#000000">accept a</text>
</g>
<!-- 1014166943&#45;&gt;247944893 -->
<g id="edge8" class="edge">
<title>1014166943&#45;&gt;247944893</title>
<path fill="none" stroke="#000000" d="M1012.0634,-215.8314C1006.0213,-207.6232 998.7612,-197.7606 992.1154,-188.7323"/>
<polygon fill="#000000" stroke="#000000" points="994.7386,-186.3918 985.9917,-180.4133 989.1012,-190.5415 994.7386,-186.3918"/>
</g>
<!-- 1307904972 -->
<g id="node14" class="node">
<title>1307904972</title>
<polygon fill="none" stroke="#000000" points="861.2199,-108 677.6551,-108 677.6551,-72 861.2199,-72 861.2199,-108"/>
<text text-anchor="middle" x="769.4375" y="-85.8" font-family="Times,serif" font-size="14.00" fill="#000000">b1 = g2::liagtAufGerade([l4])</text>
</g>
<!-- 71587369&#45;&gt;1307904972 -->
<g id="edge9" class="edge">
<title>71587369&#45;&gt;1307904972</title>
<path fill="none" stroke="#000000" d="M669.2514,-143.8314C686.7082,-134.4516 708.1862,-122.9112 726.7727,-112.9244"/>
<polygon fill="#000000" stroke="#000000" points="728.4821,-115.9792 735.6345,-108.1628 725.1689,-109.8129 728.4821,-115.9792"/>
</g>
<!-- 71587369&#45;&gt;2051853139 -->
<g id="edge10" class="edge">
<title>71587369&#45;&gt;2051853139</title>
<path fill="none" stroke="#000000" d="M622.0634,-143.8314C616.0213,-135.6232 608.7612,-125.7606 602.1154,-116.7323"/>
<polygon fill="#000000" stroke="#000000" points="604.7386,-114.3918 595.9917,-108.4133 599.1012,-118.5415 604.7386,-114.3918"/>
</g>
<!-- 1686100174 -->
<g id="node8" class="node">
<title>1686100174</title>
<polygon fill="none" stroke="#000000" points="939.652,-108 879.223,-108 879.223,-72 939.652,-72 939.652,-108"/>
<text text-anchor="middle" x="909.4375" y="-85.8" font-family="Times,serif" font-size="14.00" fill="#000000">store g2</text>
</g>
<!-- 1422222071 -->
<g id="node9" class="node">
<title>1422222071</title>
<polygon fill="none" stroke="#000000" points="156.8125,-36 .0625,-36 .0625,0 156.8125,0 156.8125,-36"/>
<text text-anchor="middle" x="78.4375" y="-13.8" font-family="Times,serif" font-size="14.00" fill="#000000">transmit n1&#45;&gt;Core Client</text>
</g>
<!-- 2024453272 -->
<g id="node10" class="node">
<title>2024453272</title>
<polygon fill="none" stroke="#000000" points="1114.8125,-108 958.0625,-108 958.0625,-72 1114.8125,-72 1114.8125,-108"/>
<text text-anchor="middle" x="1036.4375" y="-85.8" font-family="Times,serif" font-size="14.00" fill="#000000">transmit g2&#45;&gt;Core Client</text>
</g>
<!-- 817348612 -->
<g id="node11" class="node">
<title>817348612</title>
<polygon fill="none" stroke="#000000" points="327.9092,-36 174.9658,-36 174.9658,0 327.9092,0 327.9092,-36"/>
<text text-anchor="middle" x="251.4375" y="-13.8" font-family="Times,serif" font-size="14.00" fill="#000000">transmit n1&#45;&gt;Executor 1</text>
</g>
<!-- 1277009227&#45;&gt;1422222071 -->
<g id="edge11" class="edge">
<title>1277009227&#45;&gt;1422222071</title>
<path fill="none" stroke="#000000" d="M142.7361,-71.8314C132.2454,-63.0485 119.492,-52.3712 108.1181,-42.8489"/>
<polygon fill="#000000" stroke="#000000" points="110.0464,-39.8986 100.132,-36.1628 105.5528,-45.2659 110.0464,-39.8986"/>
</g>
<!-- 1277009227&#45;&gt;817348612 -->
<g id="edge12" class="edge">
<title>1277009227&#45;&gt;817348612</title>
<path fill="none" stroke="#000000" d="M186.3913,-71.8314C197.107,-62.9632 210.1564,-52.1637 221.7465,-42.5718"/>
<polygon fill="#000000" stroke="#000000" points="224.0183,-45.2349 229.4908,-36.1628 219.5553,-39.8422 224.0183,-45.2349"/>
</g>
<!-- 1374026904 -->
<g id="node19" class="node">
<title>1374026904</title>
<polygon fill="none" stroke="#000000" points="847.8125,-36 691.0625,-36 691.0625,0 847.8125,0 847.8125,-36"/>
<text text-anchor="middle" x="769.4375" y="-13.8" font-family="Times,serif" font-size="14.00" fill="#000000">transmit b1&#45;&gt;Core Client</text>
</g>
<!-- 1307904972&#45;&gt;1374026904 -->
<g id="edge13" class="edge">
<title>1307904972&#45;&gt;1374026904</title>
<path fill="none" stroke="#000000" d="M769.4375,-71.8314C769.4375,-64.131 769.4375,-54.9743 769.4375,-46.4166"/>
<polygon fill="#000000" stroke="#000000" points="772.9376,-46.4132 769.4375,-36.4133 765.9376,-46.4133 772.9376,-46.4132"/>
</g>
<!-- 247944893&#45;&gt;1686100174 -->
<g id="edge14" class="edge">
<title>247944893&#45;&gt;1686100174</title>
<path fill="none" stroke="#000000" d="M956.5399,-143.8314C949.2097,-135.454 940.3715,-125.3531 932.3406,-116.1749"/>
<polygon fill="#000000" stroke="#000000" points="934.7682,-113.6343 925.5491,-108.4133 929.5002,-118.2438 934.7682,-113.6343"/>
</g>
<!-- 247944893&#45;&gt;2024453272 -->
<g id="edge15" class="edge">
<title>247944893&#45;&gt;2024453272</title>
<path fill="none" stroke="#000000" d="M988.5874,-143.8314C996.1092,-135.3694 1005.194,-125.1489 1013.4179,-115.8971"/>
<polygon fill="#000000" stroke="#000000" points="1016.0424,-118.2127 1020.0702,-108.4133 1010.8105,-113.5621 1016.0424,-118.2127"/>
</g>
<!-- 247944893&#45;&gt;1307904972 -->
<g id="edge16" class="edge">
<title>247944893&#45;&gt;1307904972</title>
<path fill="none" stroke="#000000" d="M921.4741,-143.9243C893.7228,-134.0815 859.2047,-121.8386 830.0761,-111.5073"/>
<polygon fill="#000000" stroke="#000000" points="831.0167,-108.1273 820.4219,-108.0831 828.6767,-114.7246 831.0167,-108.1273"/>
</g>
<!-- 1914301543 -->
<g id="node20" class="node">
<title>1914301543</title>
<polygon fill="none" stroke="#000000" points="1269.5854,-108 1133.2896,-108 1133.2896,-72 1269.5854,-72 1269.5854,-108"/>
<text text-anchor="middle" x="1201.4375" y="-85.8" font-family="Times,serif" font-size="14.00" fill="#000000">n2 = g2::nullstelle([])</text>
</g>
<!-- 247944893&#45;&gt;1914301543 -->
<g id="edge17" class="edge">
<title>247944893&#45;&gt;1914301543</title>
<path fill="none" stroke="#000000" d="M1029.9283,-143.9243C1061.6423,-133.9531 1101.1902,-121.5188 1134.315,-111.104"/>
<polygon fill="#000000" stroke="#000000" points="1135.4333,-114.4214 1143.9231,-108.0831 1133.3337,-107.7437 1135.4333,-114.4214"/>
</g>
<!-- 790067787 -->
<g id="node17" class="node">
<title>790067787</title>
<polygon fill="none" stroke="#000000" points="1363.9092,-36 1210.9658,-36 1210.9658,0 1363.9092,0 1363.9092,-36"/>
<text text-anchor="middle" x="1287.4375" y="-13.8" font-family="Times,serif" font-size="14.00" fill="#000000">transmit n2&#45;&gt;Executor 1</text>
</g>
<!-- 574568002 -->
<g id="node18" class="node">
<title>574568002</title>
<polygon fill="none" stroke="#000000" points="437.6831,-252 375.1919,-252 375.1919,-216 437.6831,-216 437.6831,-252"/>
<text text-anchor="middle" x="406.4375" y="-229.8" font-family="Times,serif" font-size="14.00" fill="#000000">accept b</text>
</g>
<!-- 574568002&#45;&gt;1571967156 -->
<g id="edge18" class="edge">
<title>574568002&#45;&gt;1571967156</title>
<path fill="none" stroke="#000000" d="M393.3157,-215.8314C387.3876,-207.6232 380.2646,-197.7606 373.7442,-188.7323"/>
<polygon fill="#000000" stroke="#000000" points="376.4283,-186.4708 367.736,-180.4133 370.7535,-190.5693 376.4283,-186.4708"/>
</g>
<!-- 1914301543&#45;&gt;1016925085 -->
<g id="edge19" class="edge">
<title>1914301543&#45;&gt;1016925085</title>
<path fill="none" stroke="#000000" d="M1179.4837,-71.8314C1168.768,-62.9632 1155.7186,-52.1637 1144.1285,-42.5718"/>
<polygon fill="#000000" stroke="#000000" points="1146.3197,-39.8422 1136.3842,-36.1628 1141.8567,-45.2349 1146.3197,-39.8422"/>
</g>
<!-- 1914301543&#45;&gt;790067787 -->
<g id="edge20" class="edge">
<title>1914301543&#45;&gt;790067787</title>
<path fill="none" stroke="#000000" d="M1223.1389,-71.8314C1233.6296,-63.0485 1246.383,-52.3712 1257.7569,-42.8489"/>
<polygon fill="#000000" stroke="#000000" points="1260.3222,-45.2659 1265.743,-36.1628 1255.8286,-39.8986 1260.3222,-45.2659"/>
</g>
</g>
</svg>
