<?xml version="1.0" encoding="UTF-8" standalone="no"?>
<!DOCTYPE svg PUBLIC "-//W3C//DTD SVG 1.1//EN"
 "http://www.w3.org/Graphics/SVG/1.1/DTD/svg11.dtd">
<!-- Generated by graphviz version 2.40.1 (20161225.0304)
 -->
<!-- Title: %3 Pages: 1 -->
<svg width="1113pt" height="332pt"
 viewBox="0.00 0.00 1112.68 332.00" xmlns="http://www.w3.org/2000/svg" xmlns:xlink="http://www.w3.org/1999/xlink">
<g id="graph0" class="graph" transform="scale(1 1) rotate(0) translate(4 328)">
<title>%3</title>
<polygon fill="#ffffff" stroke="transparent" points="-4,4 -4,-328 1108.6831,-328 1108.6831,4 -4,4"/>
<!-- 1453774246 -->
<g id="node1" class="node">
<title>1453774246</title>
<polygon fill="none" stroke="#000000" points="586.4805,-36 436.7577,-36 436.7577,0 586.4805,0 586.4805,-36"/>
<text text-anchor="middle" x="511.6191" y="-13.8" font-family="Times,serif" font-size="14.00" fill="#000000">transmit l4&#45;&gt;Executor 2</text>
</g>
<!-- 317071334 -->
<g id="node2" class="node">
<title>317071334</title>
<polygon fill="none" stroke="#000000" points="851.5469,-180 791.6914,-180 791.6914,-144 851.5469,-144 851.5469,-180"/>
<text text-anchor="middle" x="821.6191" y="-157.8" font-family="Times,serif" font-size="14.00" fill="#000000">store a1</text>
</g>
<!-- 296347592 -->
<g id="node3" class="node">
<title>296347592</title>
<polygon fill="none" stroke="#000000" points="824.8224,-252 566.4158,-252 566.4158,-216 824.8224,-216 824.8224,-252"/>
<text text-anchor="middle" x="695.6191" y="-229.8" font-family="Times,serif" font-size="14.00" fill="#000000">a1 = demo.math.Addierer::__construct([5])</text>
</g>
<!-- 296347592&#45;&gt;317071334 -->
<g id="edge1" class="edge">
<title>296347592&#45;&gt;317071334</title>
<path fill="none" stroke="#000000" d="M727.4143,-215.8314C744.1763,-206.253 764.8812,-194.4217 782.6075,-184.2923"/>
<polygon fill="#000000" stroke="#000000" points="784.6231,-187.1718 791.5691,-179.1715 781.1501,-181.094 784.6231,-187.1718"/>
</g>
<!-- 1196695891 -->
<g id="node9" class="node">
<title>1196695891</title>
<polygon fill="none" stroke="#000000" points="690.3116,-108 502.9267,-108 502.9267,-72 690.3116,-72 690.3116,-108"/>
<text text-anchor="middle" x="596.6191" y="-85.8" font-family="Times,serif" font-size="14.00" fill="#000000">l4 = a1::summierListe([l3, l2])</text>
</g>
<!-- 296347592&#45;&gt;1196695891 -->
<g id="edge2" class="edge">
<title>296347592&#45;&gt;1196695891</title>
<path fill="none" stroke="#000000" d="M650.6444,-215.9158C634.8975,-207.3492 618.657,-195.5259 608.6191,-180 596.8313,-161.7673 594.2541,-137.1015 594.3887,-118.2028"/>
<polygon fill="#000000" stroke="#000000" points="597.8901,-118.2131 594.7164,-108.1047 590.8938,-117.9859 597.8901,-118.2131"/>
</g>
<!-- 1472465 -->
<g id="node10" class="node">
<title>1472465</title>
<polygon fill="none" stroke="#000000" points="773.708,-180 617.5302,-180 617.5302,-144 773.708,-144 773.708,-180"/>
<text text-anchor="middle" x="695.6191" y="-157.8" font-family="Times,serif" font-size="14.00" fill="#000000">transmit a1&#45;&gt;Core Client</text>
</g>
<!-- 296347592&#45;&gt;1472465 -->
<g id="edge3" class="edge">
<title>296347592&#45;&gt;1472465</title>
<path fill="none" stroke="#000000" d="M695.6191,-215.8314C695.6191,-208.131 695.6191,-198.9743 695.6191,-190.4166"/>
<polygon fill="#000000" stroke="#000000" points="699.1192,-190.4132 695.6191,-180.4133 692.1192,-190.4133 699.1192,-190.4132"/>
</g>
<!-- 1708570683 -->
<g id="node12" class="node">
<title>1708570683</title>
<polygon fill="none" stroke="#000000" points="512.5327,-180 318.7056,-180 318.7056,-144 512.5327,-144 512.5327,-180"/>
<text text-anchor="middle" x="415.6191" y="-157.8" font-family="Times,serif" font-size="14.00" fill="#000000">l2 = a1::summierListe([n1, n2])</text>
</g>
<!-- 296347592&#45;&gt;1708570683 -->
<g id="edge4" class="edge">
<title>296347592&#45;&gt;1708570683</title>
<path fill="none" stroke="#000000" d="M625.3247,-215.9243C585.9653,-205.8033 536.7374,-193.1447 495.8705,-182.6361"/>
<polygon fill="#000000" stroke="#000000" points="496.4991,-179.1839 485.9425,-180.0831 494.7557,-185.9634 496.4991,-179.1839"/>
</g>
<!-- 363988129 -->
<g id="node16" class="node">
<title>363988129</title>
<polygon fill="none" stroke="#000000" points="1025.4085,-180 869.8298,-180 869.8298,-144 1025.4085,-144 1025.4085,-180"/>
<text text-anchor="middle" x="947.6191" y="-157.8" font-family="Times,serif" font-size="14.00" fill="#000000">l3 = a1::addierListe([l1])</text>
</g>
<!-- 296347592&#45;&gt;363988129 -->
<g id="edge5" class="edge">
<title>296347592&#45;&gt;363988129</title>
<path fill="none" stroke="#000000" d="M758.8841,-215.9243C794.0829,-205.8675 838.0511,-193.3052 874.6922,-182.8363"/>
<polygon fill="#000000" stroke="#000000" points="875.6745,-186.1958 884.3281,-180.0831 873.7514,-179.4651 875.6745,-186.1958"/>
</g>
<!-- 1997963191 -->
<g id="node4" class="node">
<title>1997963191</title>
<polygon fill="none" stroke="#000000" points="1006.754,-324 940.4842,-324 940.4842,-288 1006.754,-288 1006.754,-324"/>
<text text-anchor="middle" x="973.6191" y="-301.8" font-family="Times,serif" font-size="14.00" fill="#000000">accept l1</text>
</g>
<!-- 1769193365 -->
<g id="node7" class="node">
<title>1769193365</title>
<polygon fill="none" stroke="#000000" points="1104.7471,-252 842.4912,-252 842.4912,-216 1104.7471,-216 1104.7471,-252"/>
<text text-anchor="middle" x="973.6191" y="-229.8" font-family="Times,serif" font-size="14.00" fill="#000000">cast l1 from Arr to demo.types.NummerList</text>
</g>
<!-- 1997963191&#45;&gt;1769193365 -->
<g id="edge6" class="edge">
<title>1997963191&#45;&gt;1769193365</title>
<path fill="none" stroke="#000000" d="M973.6191,-287.8314C973.6191,-280.131 973.6191,-270.9743 973.6191,-262.4166"/>
<polygon fill="#000000" stroke="#000000" points="977.1192,-262.4132 973.6191,-252.4133 970.1192,-262.4133 977.1192,-262.4132"/>
</g>
<!-- 690521419 -->
<g id="node5" class="node">
<title>690521419</title>
<polygon fill="none" stroke="#000000" points="265.3575,-252 -.1192,-252 -.1192,-216 265.3575,-216 265.3575,-252"/>
<text text-anchor="middle" x="132.6191" y="-229.8" font-family="Times,serif" font-size="14.00" fill="#000000">cast n1 from Arr to demo.types.NummerList</text>
</g>
<!-- 690521419&#45;&gt;1708570683 -->
<g id="edge7" class="edge">
<title>690521419&#45;&gt;1708570683</title>
<path fill="none" stroke="#000000" d="M203.6667,-215.9243C243.5319,-205.7819 293.4136,-193.0912 334.7698,-182.5694"/>
<polygon fill="#000000" stroke="#000000" points="335.7141,-185.9408 344.5423,-180.0831 333.9881,-179.1569 335.7141,-185.9408"/>
</g>
<!-- 436532993 -->
<g id="node6" class="node">
<title>436532993</title>
<polygon fill="none" stroke="#000000" points="485.384,-108 331.8543,-108 331.8543,-72 485.384,-72 485.384,-108"/>
<text text-anchor="middle" x="408.6191" y="-85.8" font-family="Times,serif" font-size="14.00" fill="#000000">transmit l2&#45;&gt;Core Client</text>
</g>
<!-- 1769193365&#45;&gt;363988129 -->
<g id="edge8" class="edge">
<title>1769193365&#45;&gt;363988129</title>
<path fill="none" stroke="#000000" d="M967.0582,-215.8314C964.2164,-207.9617 960.8254,-198.5712 957.6773,-189.8533"/>
<polygon fill="#000000" stroke="#000000" points="960.9568,-188.63 954.2684,-180.4133 954.3729,-191.0076 960.9568,-188.63"/>
</g>
<!-- 1100767002 -->
<g id="node8" class="node">
<title>1100767002</title>
<polygon fill="none" stroke="#000000" points="758.384,-36 604.8543,-36 604.8543,0 758.384,0 758.384,-36"/>
<text text-anchor="middle" x="681.6191" y="-13.8" font-family="Times,serif" font-size="14.00" fill="#000000">transmit l4&#45;&gt;Core Client</text>
</g>
<!-- 1196695891&#45;&gt;1453774246 -->
<g id="edge9" class="edge">
<title>1196695891&#45;&gt;1453774246</title>
<path fill="none" stroke="#000000" d="M575.1701,-71.8314C564.8014,-63.0485 552.1962,-52.3712 540.9546,-42.8489"/>
<polygon fill="#000000" stroke="#000000" points="542.9541,-39.9556 533.0614,-36.1628 538.4296,-45.297 542.9541,-39.9556"/>
</g>
<!-- 1196695891&#45;&gt;1100767002 -->
<g id="edge10" class="edge">
<title>1196695891&#45;&gt;1100767002</title>
<path fill="none" stroke="#000000" d="M618.0682,-71.8314C628.4369,-63.0485 641.042,-52.3712 652.2837,-42.8489"/>
<polygon fill="#000000" stroke="#000000" points="654.8087,-45.297 660.1769,-36.1628 650.2842,-39.9556 654.8087,-45.297"/>
</g>
<!-- 225472281 -->
<g id="node11" class="node">
<title>225472281</title>
<polygon fill="none" stroke="#000000" points="167.3647,-324 97.8736,-324 97.8736,-288 167.3647,-288 167.3647,-324"/>
<text text-anchor="middle" x="132.6191" y="-301.8" font-family="Times,serif" font-size="14.00" fill="#000000">accept n1</text>
</g>
<!-- 225472281&#45;&gt;690521419 -->
<g id="edge11" class="edge">
<title>225472281&#45;&gt;690521419</title>
<path fill="none" stroke="#000000" d="M132.6191,-287.8314C132.6191,-280.131 132.6191,-270.9743 132.6191,-262.4166"/>
<polygon fill="#000000" stroke="#000000" points="136.1192,-262.4132 132.6191,-252.4133 129.1192,-262.4133 136.1192,-262.4132"/>
</g>
<!-- 1708570683&#45;&gt;436532993 -->
<g id="edge12" class="edge">
<title>1708570683&#45;&gt;436532993</title>
<path fill="none" stroke="#000000" d="M413.8527,-143.8314C413.1041,-136.131 412.2139,-126.9743 411.3819,-118.4166"/>
<polygon fill="#000000" stroke="#000000" points="414.8606,-118.0276 410.4093,-108.4133 407.8935,-118.7051 414.8606,-118.0276"/>
</g>
<!-- 1708570683&#45;&gt;1196695891 -->
<g id="edge13" class="edge">
<title>1708570683&#45;&gt;1196695891</title>
<path fill="none" stroke="#000000" d="M461.2931,-143.8314C485.7159,-134.1162 515.9658,-122.0831 541.6675,-111.8592"/>
<polygon fill="#000000" stroke="#000000" points="543.2755,-114.9864 551.2736,-108.038 540.6881,-108.4821 543.2755,-114.9864"/>
</g>
<!-- 349420578 -->
<g id="node13" class="node">
<title>349420578</title>
<polygon fill="none" stroke="#000000" points="750.4233,-324 640.815,-324 640.815,-288 750.4233,-288 750.4233,-324"/>
<text text-anchor="middle" x="695.6191" y="-301.8" font-family="Times,serif" font-size="14.00" fill="#000000">parse Number: 5</text>
</g>
<!-- 349420578&#45;&gt;296347592 -->
<g id="edge14" class="edge">
<title>349420578&#45;&gt;296347592</title>
<path fill="none" stroke="#000000" d="M695.6191,-287.8314C695.6191,-280.131 695.6191,-270.9743 695.6191,-262.4166"/>
<polygon fill="#000000" stroke="#000000" points="699.1192,-262.4132 695.6191,-252.4133 692.1192,-262.4133 699.1192,-262.4132"/>
</g>
<!-- 343856911 -->
<g id="node14" class="node">
<title>343856911</title>
<polygon fill="none" stroke="#000000" points="548.3575,-252 282.8808,-252 282.8808,-216 548.3575,-216 548.3575,-252"/>
<text text-anchor="middle" x="415.6191" y="-229.8" font-family="Times,serif" font-size="14.00" fill="#000000">cast n2 from Arr to demo.types.NummerList</text>
</g>
<!-- 343856911&#45;&gt;1708570683 -->
<g id="edge15" class="edge">
<title>343856911&#45;&gt;1708570683</title>
<path fill="none" stroke="#000000" d="M415.6191,-215.8314C415.6191,-208.131 415.6191,-198.9743 415.6191,-190.4166"/>
<polygon fill="#000000" stroke="#000000" points="419.1192,-190.4132 415.6191,-180.4133 412.1192,-190.4133 419.1192,-190.4132"/>
</g>
<!-- 733943822 -->
<g id="node15" class="node">
<title>733943822</title>
<polygon fill="none" stroke="#000000" points="1024.384,-108 870.8543,-108 870.8543,-72 1024.384,-72 1024.384,-108"/>
<text text-anchor="middle" x="947.6191" y="-85.8" font-family="Times,serif" font-size="14.00" fill="#000000">transmit l3&#45;&gt;Core Client</text>
</g>
<!-- 363988129&#45;&gt;1196695891 -->
<g id="edge16" class="edge">
<title>363988129&#45;&gt;1196695891</title>
<path fill="none" stroke="#000000" d="M869.8328,-145.8972C866.7211,-145.2559 863.6407,-144.6216 860.6191,-144 805.8536,-132.7336 744.6828,-120.2171 695.024,-110.0734"/>
<polygon fill="#000000" stroke="#000000" points="695.4284,-106.5838 684.9303,-108.0118 694.0276,-113.4422 695.4284,-106.5838"/>
</g>
<!-- 363988129&#45;&gt;733943822 -->
<g id="edge17" class="edge">
<title>363988129&#45;&gt;733943822</title>
<path fill="none" stroke="#000000" d="M947.6191,-143.8314C947.6191,-136.131 947.6191,-126.9743 947.6191,-118.4166"/>
<polygon fill="#000000" stroke="#000000" points="951.1192,-118.4132 947.6191,-108.4133 944.1192,-118.4133 951.1192,-118.4132"/>
</g>
<!-- 689401025 -->
<g id="node17" class="node">
<title>689401025</title>
<polygon fill="none" stroke="#000000" points="450.3647,-324 380.8736,-324 380.8736,-288 450.3647,-288 450.3647,-324"/>
<text text-anchor="middle" x="415.6191" y="-301.8" font-family="Times,serif" font-size="14.00" fill="#000000">accept n2</text>
</g>
<!-- 689401025&#45;&gt;343856911 -->
<g id="edge18" class="edge">
<title>689401025&#45;&gt;343856911</title>
<path fill="none" stroke="#000000" d="M415.6191,-287.8314C415.6191,-280.131 415.6191,-270.9743 415.6191,-262.4166"/>
<polygon fill="#000000" stroke="#000000" points="419.1192,-262.4132 415.6191,-252.4133 412.1192,-262.4133 419.1192,-262.4132"/>
</g>
</g>
</svg>
